<svg width="125" height="32" viewBox="0 0 125 32" fill="none" xmlns="http://www.w3.org/2000/svg">
<rect width="125" height="32" rx="12" fill="#0066CC"/>
<path d="M21.9665 17.6987L17.7065 21.9587C16.7732 22.892 15.2399 22.892 14.2999 21.9587L10.0398 17.6987C9.10651 16.7654 9.10651 15.232 10.0398 14.292L14.2999 10.032C15.2332 9.0987 16.7665 9.0987 17.7065 10.032L21.9665 14.292C22.8999 15.232 22.8999 16.7654 21.9665 17.6987Z" stroke="white" stroke-width="1.5" stroke-linecap="round" stroke-linejoin="round"/>
<path d="M35.4627 22H29.3187V11.04H31.0947V20.416H35.4627V22ZM37.1364 14.864C37.6911 14.1707 38.6084 13.824 39.8884 13.824C41.1684 13.824 42.0804 14.1707 42.6244 14.864C43.1791 15.5573 43.4564 16.5973 43.4564 17.984C43.4564 19.3707 43.1898 20.416 42.6564 21.12C42.1231 21.824 41.2004 22.176 39.8884 22.176C38.5764 22.176 37.6538 21.824 37.1204 21.12C36.5871 20.416 36.3204 19.3707 36.3204 17.984C36.3204 16.5973 36.5924 15.5573 37.1364 14.864ZM38.4484 20.064C38.6938 20.4907 39.1738 20.704 39.8884 20.704C40.6031 20.704 41.0831 20.4907 41.3284 20.064C41.5738 19.6373 41.6964 18.9387 41.6964 17.968C41.6964 16.9973 41.5631 16.3093 41.2964 15.904C41.0404 15.4987 40.5711 15.296 39.8884 15.296C39.2058 15.296 38.7311 15.4987 38.4644 15.904C38.2084 16.3093 38.0804 16.9973 38.0804 17.968C38.0804 18.9387 38.2031 19.6373 38.4484 20.064ZM45.1888 22V14H46.9168V14.96C47.8235 14.3733 48.7301 13.9947 49.6368 13.824V15.568C48.7195 15.7493 47.9355 15.984 47.2848 16.272L46.9328 16.416V22H45.1888ZM56.6036 20.56L57.0516 20.512L57.0836 21.808C55.8676 22.0533 54.7902 22.176 53.8516 22.176C52.6676 22.176 51.8142 21.8507 51.2916 21.2C50.7796 20.5493 50.5236 19.5093 50.5236 18.08C50.5236 15.2427 51.6809 13.824 53.9956 13.824C56.2356 13.824 57.3556 15.0453 57.3556 17.488L57.2436 18.736H52.2836C52.2942 19.3973 52.4382 19.8827 52.7156 20.192C52.9929 20.5013 53.5102 20.656 54.2676 20.656C55.0249 20.656 55.8036 20.624 56.6036 20.56ZM55.6436 17.392C55.6436 16.6027 55.5156 16.0533 55.2596 15.744C55.0142 15.424 54.5929 15.264 53.9956 15.264C53.3982 15.264 52.9609 15.4293 52.6836 15.76C52.4169 16.0907 52.2782 16.6347 52.2676 17.392H55.6436ZM60.7766 22H59.0326V14H60.7606V14.496C61.5179 14.048 62.2112 13.824 62.8406 13.824C63.7686 13.824 64.4459 14.0853 64.8726 14.608C65.8432 14.0853 66.8086 13.824 67.7686 13.824C68.7286 13.824 69.4059 14.1227 69.8006 14.72C70.1952 15.3067 70.3926 16.304 70.3926 17.712V22H68.6646V17.76C68.6646 16.896 68.5739 16.2827 68.3926 15.92C68.2219 15.5573 67.8592 15.376 67.3046 15.376C66.8246 15.376 66.3072 15.4827 65.7526 15.696L65.4806 15.808C65.5659 16.0213 65.6086 16.704 65.6086 17.856V22H63.8806V17.888C63.8806 16.9387 63.7952 16.2827 63.6246 15.92C63.4539 15.5573 63.0806 15.376 62.5046 15.376C61.9712 15.376 61.4752 15.4827 61.0166 15.696L60.7766 15.792V22ZM75.9544 22V14H77.6984V22H75.9544ZM75.9544 12.64V10.8H77.6984V12.64H75.9544ZM79.8138 25.44V14H81.5418V14.496C82.2778 14.048 82.9658 13.824 83.6058 13.824C84.6618 13.824 85.4351 14.1493 85.9258 14.8C86.4165 15.44 86.6618 16.5227 86.6618 18.048C86.6618 19.5627 86.3791 20.6293 85.8138 21.248C85.2591 21.8667 84.3471 22.176 83.0778 22.176C82.6405 22.176 82.1338 22.128 81.5578 22.032V25.44H79.8138ZM83.3018 15.376C82.8005 15.376 82.2991 15.488 81.7978 15.712L81.5578 15.824V20.544C81.9845 20.6293 82.4538 20.672 82.9658 20.672C83.6911 20.672 84.1925 20.464 84.4698 20.048C84.7471 19.632 84.8858 18.9227 84.8858 17.92C84.8858 16.224 84.3578 15.376 83.3018 15.376ZM93.9596 15.648C92.7009 15.4773 91.7889 15.392 91.2236 15.392C90.6582 15.392 90.2636 15.4613 90.0396 15.6C89.8262 15.728 89.7196 15.936 89.7196 16.224C89.7196 16.512 89.8369 16.7147 90.0716 16.832C90.3169 16.9493 90.8822 17.088 91.7676 17.248C92.6636 17.3973 93.2982 17.6373 93.6716 17.968C94.0449 18.2987 94.2316 18.8853 94.2316 19.728C94.2316 20.5707 93.9596 21.1893 93.4156 21.584C92.8822 21.9787 92.0982 22.176 91.0636 22.176C90.4129 22.176 89.5916 22.0853 88.5996 21.904L88.1036 21.824L88.1676 20.368C89.4476 20.5387 90.3702 20.624 90.9356 20.624C91.5009 20.624 91.9009 20.5547 92.1356 20.416C92.3809 20.2773 92.5036 20.048 92.5036 19.728C92.5036 19.408 92.3862 19.1893 92.1516 19.072C91.9276 18.944 91.3782 18.8107 90.5036 18.672C89.6396 18.5227 89.0049 18.2933 88.5996 17.984C88.1942 17.6747 87.9916 17.1093 87.9916 16.288C87.9916 15.4667 88.2689 14.8533 88.8236 14.448C89.3889 14.0427 90.1089 13.84 90.9836 13.84C91.6662 13.84 92.5036 13.9253 93.4956 14.096L93.9916 14.192L93.9596 15.648ZM100.756 14H102.484V22H100.756V21.504C99.9769 21.952 99.2569 22.176 98.5956 22.176C97.4969 22.176 96.7609 21.8827 96.3876 21.296C96.0142 20.6987 95.8276 19.6587 95.8276 18.176V14H97.5716V18.192C97.5716 19.152 97.6516 19.7973 97.8116 20.128C97.9716 20.4587 98.3449 20.624 98.9316 20.624C99.5076 20.624 100.036 20.5173 100.516 20.304L100.756 20.208V14ZM106.339 22H104.595V14H106.323V14.496C107.08 14.048 107.774 13.824 108.403 13.824C109.331 13.824 110.008 14.0853 110.435 14.608C111.406 14.0853 112.371 13.824 113.331 13.824C114.291 13.824 114.968 14.1227 115.363 14.72C115.758 15.3067 115.955 16.304 115.955 17.712V22H114.227V17.76C114.227 16.896 114.136 16.2827 113.955 15.92C113.784 15.5573 113.422 15.376 112.867 15.376C112.387 15.376 111.87 15.4827 111.315 15.696L111.043 15.808C111.128 16.0213 111.171 16.704 111.171 17.856V22H109.443V17.888C109.443 16.9387 109.358 16.2827 109.187 15.92C109.016 15.5573 108.643 15.376 108.067 15.376C107.534 15.376 107.038 15.4827 106.579 15.696L106.339 15.792V22Z" fill="white"/>
</svg>
