<svg width="340" height="82" viewBox="0 0 340 82" fill="none" xmlns="http://www.w3.org/2000/svg">
                        <path d="M8.208 12.624V11.04H16.208V12.624H13.12V22H11.328V12.624H8.208ZM17.4779 22V14H19.2219V22H17.4779ZM17.4779 12.64V10.8H19.2219V12.64H17.4779ZM25.6413 15.488H23.4333V19.008C23.4333 19.6587 23.4813 20.0907 23.5773 20.304C23.6733 20.5173 23.9186 20.624 24.3133 20.624L25.6253 20.576L25.7053 21.968C24.9906 22.1067 24.4466 22.176 24.0733 22.176C23.1666 22.176 22.5426 21.968 22.2013 21.552C21.8706 21.136 21.7053 20.352 21.7053 19.2V15.488H20.6813V14H21.7053V11.68H23.4333V14H25.6413V15.488ZM27.1676 22V10.672H28.9116V22H27.1676ZM36.8145 20.56L37.2625 20.512L37.2945 21.808C36.0785 22.0533 35.0012 22.176 34.0625 22.176C32.8785 22.176 32.0252 21.8507 31.5025 21.2C30.9905 20.5493 30.7345 19.5093 30.7345 18.08C30.7345 15.2427 31.8918 13.824 34.2065 13.824C36.4465 13.824 37.5665 15.0453 37.5665 17.488L37.4545 18.736H32.4945C32.5052 19.3973 32.6492 19.8827 32.9265 20.192C33.2038 20.5013 33.7212 20.656 34.4785 20.656C35.2358 20.656 36.0145 20.624 36.8145 20.56ZM35.8545 17.392C35.8545 16.6027 35.7265 16.0533 35.4705 15.744C35.2252 15.424 34.8038 15.264 34.2065 15.264C33.6092 15.264 33.1718 15.4293 32.8945 15.76C32.6278 16.0907 32.4892 16.6347 32.4785 17.392H35.8545ZM42.7591 22V14H44.5031V22H42.7591ZM42.7591 12.64V10.8H44.5031V12.64H42.7591ZM48.3625 22H46.6185V14H48.3465V14.496C49.1252 14.048 49.8612 13.824 50.5545 13.824C51.6212 13.824 52.3465 14.128 52.7305 14.736C53.1252 15.3333 53.3225 16.3253 53.3225 17.712V22H51.5945V17.76C51.5945 16.896 51.4985 16.2827 51.3065 15.92C51.1252 15.5573 50.7465 15.376 50.1705 15.376C49.6265 15.376 49.1038 15.4827 48.6025 15.696L48.3625 15.792V22ZM55.3529 25.44V14H57.0809V14.496C57.8169 14.048 58.5049 13.824 59.1449 13.824C60.2009 13.824 60.9742 14.1493 61.4649 14.8C61.9555 15.44 62.2009 16.5227 62.2009 18.048C62.2009 19.5627 61.9182 20.6293 61.3529 21.248C60.7982 21.8667 59.8862 22.176 58.6169 22.176C58.1795 22.176 57.6729 22.128 57.0969 22.032V25.44H55.3529ZM58.8409 15.376C58.3395 15.376 57.8382 15.488 57.3369 15.712L57.0969 15.824V20.544C57.5235 20.6293 57.9929 20.672 58.5049 20.672C59.2302 20.672 59.7315 20.464 60.0089 20.048C60.2862 19.632 60.4249 18.9227 60.4249 17.92C60.4249 16.224 59.8969 15.376 58.8409 15.376ZM68.7946 14H70.5226V22H68.7946V21.504C68.016 21.952 67.296 22.176 66.6346 22.176C65.536 22.176 64.8 21.8827 64.4266 21.296C64.0533 20.6987 63.8666 19.6587 63.8666 18.176V14H65.6106V18.192C65.6106 19.152 65.6906 19.7973 65.8506 20.128C66.0106 20.4587 66.384 20.624 66.9706 20.624C67.5466 20.624 68.0746 20.5173 68.5546 20.304L68.7946 20.208V14ZM76.9381 15.488H74.7301V19.008C74.7301 19.6587 74.7781 20.0907 74.8741 20.304C74.9701 20.5173 75.2155 20.624 75.6101 20.624L76.9221 20.576L77.0021 21.968C76.2875 22.1067 75.7435 22.176 75.3701 22.176C74.4635 22.176 73.8395 21.968 73.4981 21.552C73.1675 21.136 73.0021 20.352 73.0021 19.2V15.488H71.9781V14H73.0021V11.68H74.7301V14H76.9381V15.488Z" fill="#003366"/>
                        <rect x="0.5" y="34.5" width="339" height="47" rx="23.5" fill="white"/>
                        <rect x="0.5" y="34.5" width="339" height="47" rx="23.5" stroke="#CBD5E1"/>
                        <path d="M32.9498 60.55L26.5598 66.94C25.1598 68.34 22.8598 68.34 21.4498 66.94L15.0598 60.55C13.6598 59.15 13.6598 56.85 15.0598 55.44L21.4498 49.05C22.8498 47.65 25.1498 47.65 26.5598 49.05L32.9498 55.44C34.3498 56.85 34.3498 59.15 32.9498 60.55Z" fill="#003366"/>
                        <rect x="48" y="68" width="20" height="1" rx="0.5" transform="rotate(-90 48 68)" fill="#CBD5E1"/>
                        <path d="M69.388 65H62.53V52.544H63.916V63.758H69.388V65ZM77.2633 58.718V63.326C77.2993 63.77 77.6473 64.034 78.3073 64.118L78.2533 65.18C77.3053 65.18 76.5913 64.94 76.1113 64.46C75.0313 64.94 73.9513 65.18 72.8713 65.18C72.0433 65.18 71.4133 64.946 70.9813 64.478C70.5493 64.01 70.3333 63.338 70.3333 62.462C70.3333 61.586 70.5553 60.944 70.9993 60.536C71.4433 60.116 72.1393 59.858 73.0873 59.762L75.9133 59.492V58.718C75.9133 58.106 75.7813 57.668 75.5173 57.404C75.2533 57.14 74.8933 57.008 74.4373 57.008C73.4773 57.008 72.4813 57.068 71.4493 57.188L70.8913 57.242L70.8373 56.216C72.1573 55.952 73.3273 55.82 74.3473 55.82C75.3673 55.82 76.1053 56.054 76.5613 56.522C77.0293 56.99 77.2633 57.722 77.2633 58.718ZM71.7193 62.39C71.7193 63.494 72.1753 64.046 73.0873 64.046C73.9033 64.046 74.7073 63.908 75.4993 63.632L75.9133 63.488V60.518L73.2493 60.77C72.7093 60.818 72.3193 60.974 72.0793 61.238C71.8393 61.502 71.7193 61.886 71.7193 62.39ZM83.9049 55.82C85.1169 55.82 85.9629 56.168 86.4429 56.864C86.9349 57.548 87.1809 58.754 87.1809 60.482C87.1809 62.21 86.8749 63.428 86.2629 64.136C85.6629 64.832 84.5529 65.18 82.9329 65.18C82.4289 65.18 81.5949 65.132 80.4309 65.036L79.9269 64.982V52.076H81.2589V56.45C82.1709 56.03 83.0529 55.82 83.9049 55.82ZM82.9149 63.974C84.0909 63.974 84.8649 63.71 85.2369 63.182C85.6209 62.642 85.8129 61.736 85.8129 60.464C85.8129 59.192 85.6629 58.304 85.3629 57.8C85.0629 57.284 84.5289 57.026 83.7609 57.026C83.0649 57.026 82.3509 57.158 81.6189 57.422L81.2589 57.548V63.884C82.0389 63.944 82.5909 63.974 82.9149 63.974ZM95.5215 63.884L96.0435 63.83L96.0795 64.892C94.7115 65.084 93.5415 65.18 92.5695 65.18C91.2735 65.18 90.3555 64.808 89.8155 64.064C89.2755 63.308 89.0055 62.138 89.0055 60.554C89.0055 57.398 90.2595 55.82 92.7675 55.82C93.9795 55.82 94.8855 56.162 95.4855 56.846C96.0855 57.518 96.3855 58.58 96.3855 60.032L96.3135 61.058H90.3735C90.3735 62.054 90.5535 62.792 90.9135 63.272C91.2735 63.752 91.8975 63.992 92.7855 63.992C93.6855 63.992 94.5975 63.956 95.5215 63.884ZM95.0355 59.978C95.0355 58.874 94.8555 58.094 94.4955 57.638C94.1475 57.182 93.5715 56.954 92.7675 56.954C91.9755 56.954 91.3755 57.194 90.9675 57.674C90.5715 58.154 90.3675 58.922 90.3555 59.978H95.0355ZM98.5974 65V52.076H99.9474V65H98.5974ZM111.272 57.17H108.41V61.472C108.41 62.504 108.482 63.182 108.626 63.506C108.782 63.83 109.142 63.992 109.706 63.992L111.308 63.884L111.398 65C110.594 65.132 109.982 65.198 109.562 65.198C108.626 65.198 107.978 64.97 107.618 64.514C107.258 64.058 107.078 63.188 107.078 61.904V57.17H105.8V56H107.078V53.246H108.41V56H111.272V57.17ZM119.041 63.884L119.563 63.83L119.599 64.892C118.231 65.084 117.061 65.18 116.089 65.18C114.793 65.18 113.875 64.808 113.335 64.064C112.795 63.308 112.525 62.138 112.525 60.554C112.525 57.398 113.779 55.82 116.287 55.82C117.499 55.82 118.405 56.162 119.005 56.846C119.605 57.518 119.905 58.58 119.905 60.032L119.833 61.058H113.893C113.893 62.054 114.073 62.792 114.433 63.272C114.793 63.752 115.417 63.992 116.305 63.992C117.205 63.992 118.117 63.956 119.041 63.884ZM118.555 59.978C118.555 58.874 118.375 58.094 118.015 57.638C117.667 57.182 117.091 56.954 116.287 56.954C115.495 56.954 114.895 57.194 114.487 57.674C114.091 58.154 113.887 58.922 113.875 59.978H118.555ZM121.039 56H122.515L124.711 59.528L126.907 56H128.383L125.521 60.464L128.365 65H126.889L124.711 61.49L122.515 65H121.039L123.865 60.5L121.039 56ZM134.739 57.17H131.877V61.472C131.877 62.504 131.949 63.182 132.093 63.506C132.249 63.83 132.609 63.992 133.173 63.992L134.775 63.884L134.865 65C134.061 65.132 133.449 65.198 133.029 65.198C132.093 65.198 131.445 64.97 131.085 64.514C130.725 64.058 130.545 63.188 130.545 61.904V57.17H129.267V56H130.545V53.246H131.877V56H134.739V57.17Z" fill="#334155"/>
                        </svg>

