<svg width="140" height="140" viewBox="0 0 140 140" fill="none" xmlns="http://www.w3.org/2000/svg">
<g clip-path="url(#clip0_876_39728)">
<rect width="140" height="140" rx="70" fill="white"/>
<mask id="path-2-inside-1_876_39728" fill="white">
<path d="M0 70C0 31.3401 31.3401 0 70 0C108.66 0 140 31.3401 140 70C140 108.66 108.66 140 70 140C31.3401 140 0 108.66 0 70Z"/>
</mask>
<path d="M0 70C0 31.3401 31.3401 0 70 0C108.66 0 140 31.3401 140 70C140 108.66 108.66 140 70 140C31.3401 140 0 108.66 0 70Z" fill="white"/>
<path d="M70 138C32.4446 138 2 107.555 2 70H-2C-2 109.765 30.2355 142 70 142V138ZM138 70C138 107.555 107.555 138 70 138V142C109.765 142 142 109.765 142 70H138ZM70 2C107.555 2 138 32.4446 138 70H142C142 30.2355 109.765 -2 70 -2V2ZM70 -2C30.2355 -2 -2 30.2355 -2 70H2C2 32.4446 32.4446 2 70 2V-2Z" fill="#94C4F5" mask="url(#path-2-inside-1_876_39728)"/>
</g>
<defs>
<clipPath id="clip0_876_39728">
<rect width="140" height="140" rx="70" fill="white"/>
</clipPath>
</defs>
</svg>
