<svg width="270" height="125" viewBox="0 0 270 125" fill="none" xmlns="http://www.w3.org/2000/svg">
<rect width="269.25" height="125" rx="8" fill="#BFDFFF"/>
<path d="M151.08 52.6394L139.56 44.5794C136.42 42.3794 131.6 42.4994 128.58 44.8394L118.56 52.6594C116.56 54.2194 114.98 57.4194 114.98 59.9394V73.7394C114.98 78.8394 119.12 82.9994 124.22 82.9994H145.78C150.88 82.9994 155.02 78.8594 155.02 73.7594V60.1994C155.02 57.4994 153.28 54.1794 151.08 52.6394ZM136.5 74.9994C136.5 75.8194 135.82 76.4994 135 76.4994C134.18 76.4994 133.5 75.8194 133.5 74.9994V68.9994C133.5 68.1794 134.18 67.4994 135 67.4994C135.82 67.4994 136.5 68.1794 136.5 68.9994V74.9994Z" fill="#003366"/>
</svg>

