<svg width="270" height="125" viewBox="0 0 270 125" fill="none" xmlns="http://www.w3.org/2000/svg">
<rect x="0.25" width="269.25" height="125" rx="8" fill="#003366"/>
<path d="M151.33 52.6394L139.81 44.5794C136.67 42.3794 131.85 42.4994 128.83 44.8394L118.81 52.6594C116.81 54.2194 115.23 57.4194 115.23 59.9394V73.7394C115.23 78.8394 119.37 82.9994 124.47 82.9994H146.03C151.13 82.9994 155.27 78.8594 155.27 73.7594V60.1994C155.27 57.4994 153.53 54.1794 151.33 52.6394ZM136.75 74.9994C136.75 75.8194 136.07 76.4994 135.25 76.4994C134.43 76.4994 133.75 75.8194 133.75 74.9994V68.9994C133.75 68.1794 134.43 67.4994 135.25 67.4994C136.07 67.4994 136.75 68.1794 136.75 68.9994V74.9994Z" fill="white"/>
</svg>
