<svg width="270" height="125" viewBox="0 0 270 125" fill="none" xmlns="http://www.w3.org/2000/svg">
<rect width="269.25" height="125" rx="8" fill="#BFDFFF"/>
<path d="M69.994 57.216C68.122 57.216 66.808 56.712 66.052 55.704C65.296 54.696 64.918 53.112 64.918 50.952C64.918 48.78 65.296 47.172 66.052 46.128C66.82 45.072 68.134 44.544 69.994 44.544C71.854 44.544 73.162 45.072 73.918 46.128C74.686 47.172 75.07 48.78 75.07 50.952C75.07 53.616 74.44 55.41 73.18 56.334L74.674 58.746L72.406 59.808L70.786 57.162C70.666 57.198 70.402 57.216 69.994 57.216ZM67.996 54.12C68.356 54.744 69.022 55.056 69.994 55.056C70.966 55.056 71.626 54.744 71.974 54.12C72.334 53.496 72.514 52.44 72.514 50.952C72.514 49.464 72.334 48.384 71.974 47.712C71.614 47.04 70.954 46.704 69.994 46.704C69.034 46.704 68.374 47.04 68.014 47.712C67.654 48.384 67.474 49.464 67.474 50.952C67.474 52.44 67.648 53.496 67.996 54.12ZM82.2942 48H84.7062V57H82.3122V56.496C81.4482 56.976 80.6982 57.216 80.0622 57.216C78.8142 57.216 77.9742 56.874 77.5422 56.19C77.1102 55.494 76.8942 54.336 76.8942 52.716V48H79.3062V52.752C79.3062 53.64 79.3782 54.246 79.5222 54.57C79.6662 54.894 80.0142 55.056 80.5662 55.056C81.0942 55.056 81.5922 54.972 82.0602 54.804L82.2942 54.732V48ZM88.9134 53.526C88.9254 54.078 89.0694 54.48 89.3454 54.732C89.6334 54.972 90.0414 55.092 90.5694 55.092C91.6854 55.092 92.6814 55.056 93.5574 54.984L94.0614 54.93L94.0974 56.712C92.7174 57.048 91.4694 57.216 90.3534 57.216C88.9974 57.216 88.0134 56.856 87.4014 56.136C86.7894 55.416 86.4834 54.246 86.4834 52.626C86.4834 49.398 87.8094 47.784 90.4614 47.784C93.0774 47.784 94.3854 49.14 94.3854 51.852L94.2054 53.526H88.9134ZM92.0094 51.69C92.0094 50.97 91.8954 50.472 91.6674 50.196C91.4394 49.908 91.0374 49.764 90.4614 49.764C89.8974 49.764 89.4954 49.914 89.2554 50.214C89.0274 50.502 88.9074 50.994 88.8954 51.69H92.0094ZM102.571 50.25C101.083 50.058 100.039 49.962 99.4392 49.962C98.8512 49.962 98.4672 50.016 98.2872 50.124C98.1192 50.232 98.0352 50.406 98.0352 50.646C98.0352 50.874 98.1492 51.036 98.3772 51.132C98.6172 51.216 99.2172 51.348 100.177 51.528C101.149 51.696 101.839 51.978 102.247 52.374C102.655 52.77 102.859 53.412 102.859 54.3C102.859 56.244 101.653 57.216 99.2412 57.216C98.4492 57.216 97.4892 57.108 96.3612 56.892L95.7852 56.784L95.8572 54.768C97.3452 54.96 98.3772 55.056 98.9532 55.056C99.5412 55.056 99.9372 55.002 100.141 54.894C100.357 54.774 100.465 54.6 100.465 54.372C100.465 54.144 100.351 53.976 100.123 53.868C99.9072 53.76 99.3312 53.628 98.3952 53.472C97.4712 53.316 96.7812 53.052 96.3252 52.68C95.8692 52.308 95.6412 51.648 95.6412 50.7C95.6412 49.74 95.9652 49.02 96.6132 48.54C97.2612 48.048 98.0952 47.802 99.1152 47.802C99.8232 47.802 100.789 47.916 102.013 48.144L102.607 48.252L102.571 50.25ZM109.585 50.052H107.371V53.742C107.371 54.102 107.377 54.36 107.389 54.516C107.413 54.66 107.479 54.786 107.587 54.894C107.707 55.002 107.887 55.056 108.127 55.056L109.495 55.02L109.603 56.946C108.799 57.126 108.187 57.216 107.767 57.216C106.687 57.216 105.949 56.976 105.553 56.496C105.157 56.004 104.959 55.104 104.959 53.796V50.052H103.897V48H104.959V45.498H107.371V48H109.585V50.052ZM111.642 49.026C112.278 48.198 113.34 47.784 114.828 47.784C116.316 47.784 117.378 48.198 118.014 49.026C118.65 49.842 118.968 50.994 118.968 52.482C118.968 55.638 117.588 57.216 114.828 57.216C112.068 57.216 110.688 55.638 110.688 52.482C110.688 50.994 111.006 49.842 111.642 49.026ZM113.496 54.516C113.748 54.948 114.192 55.164 114.828 55.164C115.464 55.164 115.902 54.948 116.142 54.516C116.394 54.084 116.52 53.406 116.52 52.482C116.52 51.558 116.394 50.886 116.142 50.466C115.902 50.046 115.464 49.836 114.828 49.836C114.192 49.836 113.748 50.046 113.496 50.466C113.256 50.886 113.136 51.558 113.136 52.482C113.136 53.406 113.256 54.084 113.496 54.516ZM126.671 53.526C126.683 54.078 126.827 54.48 127.103 54.732C127.391 54.972 127.799 55.092 128.327 55.092C129.443 55.092 130.439 55.056 131.315 54.984L131.819 54.93L131.855 56.712C130.475 57.048 129.227 57.216 128.111 57.216C126.755 57.216 125.771 56.856 125.159 56.136C124.547 55.416 124.241 54.246 124.241 52.626C124.241 49.398 125.567 47.784 128.219 47.784C130.835 47.784 132.143 49.14 132.143 51.852L131.963 53.526H126.671ZM129.767 51.69C129.767 50.97 129.653 50.472 129.425 50.196C129.197 49.908 128.795 49.764 128.219 49.764C127.655 49.764 127.253 49.914 127.013 50.214C126.785 50.502 126.665 50.994 126.653 51.69H129.767ZM126.275 43.446L130.811 45.282L130.271 46.848L125.555 45.516L126.275 43.446ZM143.132 48H145.544V57H143.15V56.496C142.286 56.976 141.536 57.216 140.9 57.216C139.652 57.216 138.812 56.874 138.38 56.19C137.948 55.494 137.732 54.336 137.732 52.716V48H140.144V52.752C140.144 53.64 140.216 54.246 140.36 54.57C140.504 54.894 140.852 55.056 141.404 55.056C141.932 55.056 142.43 54.972 142.898 54.804L143.132 54.732V48ZM150.183 57H147.771V48H150.165V48.504C150.981 48.024 151.731 47.784 152.415 47.784C153.615 47.784 154.443 48.138 154.899 48.846C155.355 49.554 155.583 50.646 155.583 52.122V57H153.171V52.194C153.171 51.426 153.081 50.862 152.901 50.502C152.721 50.13 152.361 49.944 151.821 49.944C151.329 49.944 150.855 50.028 150.399 50.196L150.183 50.268V57ZM166.662 50.052H164.448V53.742C164.448 54.102 164.454 54.36 164.466 54.516C164.49 54.66 164.556 54.786 164.664 54.894C164.784 55.002 164.964 55.056 165.204 55.056L166.572 55.02L166.68 56.946C165.876 57.126 165.264 57.216 164.844 57.216C163.764 57.216 163.026 56.976 162.63 56.496C162.234 56.004 162.036 55.104 162.036 53.796V50.052H160.974V48H162.036V45.498H164.448V48H166.662V50.052ZM170.212 53.526C170.224 54.078 170.368 54.48 170.644 54.732C170.932 54.972 171.34 55.092 171.868 55.092C172.984 55.092 173.98 55.056 174.856 54.984L175.36 54.93L175.396 56.712C174.016 57.048 172.768 57.216 171.652 57.216C170.296 57.216 169.312 56.856 168.7 56.136C168.088 55.416 167.782 54.246 167.782 52.626C167.782 49.398 169.108 47.784 171.76 47.784C174.376 47.784 175.684 49.14 175.684 51.852L175.504 53.526H170.212ZM173.308 51.69C173.308 50.97 173.194 50.472 172.966 50.196C172.738 49.908 172.336 49.764 171.76 49.764C171.196 49.764 170.794 49.914 170.554 50.214C170.326 50.502 170.206 50.994 170.194 51.69H173.308ZM183.87 50.25C182.382 50.058 181.338 49.962 180.738 49.962C180.15 49.962 179.766 50.016 179.586 50.124C179.418 50.232 179.334 50.406 179.334 50.646C179.334 50.874 179.448 51.036 179.676 51.132C179.916 51.216 180.516 51.348 181.476 51.528C182.448 51.696 183.138 51.978 183.546 52.374C183.954 52.77 184.158 53.412 184.158 54.3C184.158 56.244 182.952 57.216 180.54 57.216C179.748 57.216 178.788 57.108 177.66 56.892L177.084 56.784L177.156 54.768C178.644 54.96 179.676 55.056 180.252 55.056C180.84 55.056 181.236 55.002 181.44 54.894C181.656 54.774 181.764 54.6 181.764 54.372C181.764 54.144 181.65 53.976 181.422 53.868C181.206 53.76 180.63 53.628 179.694 53.472C178.77 53.316 178.08 53.052 177.624 52.68C177.168 52.308 176.94 51.648 176.94 50.7C176.94 49.74 177.264 49.02 177.912 48.54C178.56 48.048 179.394 47.802 180.414 47.802C181.122 47.802 182.088 47.916 183.312 48.144L183.906 48.252L183.87 50.25ZM190.884 50.052H188.67V53.742C188.67 54.102 188.676 54.36 188.688 54.516C188.712 54.66 188.778 54.786 188.886 54.894C189.006 55.002 189.186 55.056 189.426 55.056L190.794 55.02L190.902 56.946C190.098 57.126 189.486 57.216 189.066 57.216C187.986 57.216 187.248 56.976 186.852 56.496C186.456 56.004 186.258 55.104 186.258 53.796V50.052H185.196V48H186.258V45.498H188.67V48H190.884V50.052ZM192.941 49.026C193.577 48.198 194.639 47.784 196.127 47.784C197.615 47.784 198.677 48.198 199.313 49.026C199.949 49.842 200.267 50.994 200.267 52.482C200.267 55.638 198.887 57.216 196.127 57.216C193.367 57.216 191.987 55.638 191.987 52.482C191.987 50.994 192.305 49.842 192.941 49.026ZM194.795 54.516C195.047 54.948 195.491 55.164 196.127 55.164C196.763 55.164 197.201 54.948 197.441 54.516C197.693 54.084 197.819 53.406 197.819 52.482C197.819 51.558 197.693 50.886 197.441 50.466C197.201 50.046 196.763 49.836 196.127 49.836C195.491 49.836 195.047 50.046 194.795 50.466C194.555 50.886 194.435 51.558 194.435 52.482C194.435 53.406 194.555 54.084 194.795 54.516ZM88.4748 74.808V78.552C88.4988 78.84 88.5468 79.044 88.6188 79.164C88.6908 79.272 88.8408 79.35 89.0688 79.398L88.9968 81.216C88.3848 81.216 87.8928 81.174 87.5208 81.09C87.1608 81.006 86.7948 80.838 86.4228 80.586C85.5588 81.006 84.6768 81.216 83.7768 81.216C81.9168 81.216 80.9868 80.232 80.9868 78.264C80.9868 77.304 81.2448 76.626 81.7608 76.23C82.2768 75.822 83.0688 75.582 84.1368 75.51L86.0628 75.366V74.808C86.0628 74.436 85.9788 74.184 85.8108 74.052C85.6428 73.908 85.3728 73.836 85.0008 73.836L81.6168 73.98L81.5448 72.306C82.8288 71.958 84.0468 71.784 85.1988 71.784C86.3628 71.784 87.1968 72.024 87.7008 72.504C88.2168 72.984 88.4748 73.752 88.4748 74.808ZM84.4248 77.184C83.7528 77.244 83.4168 77.604 83.4168 78.264C83.4168 78.924 83.7108 79.254 84.2988 79.254C84.7548 79.254 85.2528 79.182 85.7928 79.038L86.0628 78.966V77.04L84.4248 77.184ZM101.137 69.12V81H98.6533V71.928L96.0793 73.584L94.9453 71.73L98.8693 69.12H101.137ZM105.558 69.768C106.338 69.192 107.382 68.904 108.69 68.904C109.998 68.904 111.054 69.192 111.858 69.768C112.662 70.344 113.064 71.142 113.064 72.162C113.064 72.858 112.98 73.38 112.812 73.728C112.644 74.076 112.296 74.46 111.768 74.88C112.296 75.324 112.674 75.744 112.902 76.14C113.13 76.536 113.244 77.082 113.244 77.778C113.244 78.954 112.824 79.824 111.984 80.388C111.144 80.94 110.046 81.216 108.69 81.216C105.69 81.216 104.19 80.136 104.19 77.976C104.19 77.208 104.304 76.614 104.532 76.194C104.772 75.762 105.156 75.324 105.684 74.88C105.18 74.472 104.838 74.076 104.658 73.692C104.478 73.296 104.388 72.78 104.388 72.144C104.388 71.124 104.778 70.332 105.558 69.768ZM106.854 77.4C106.854 78.456 107.472 78.984 108.708 78.984C109.956 78.984 110.58 78.456 110.58 77.4C110.58 76.776 110.226 76.326 109.518 76.05H107.934C107.214 76.326 106.854 76.776 106.854 77.4ZM108.726 71.136C108.186 71.136 107.772 71.256 107.484 71.496C107.196 71.736 107.052 72.102 107.052 72.594C107.052 73.086 107.346 73.536 107.934 73.944H109.518C110.106 73.536 110.4 73.068 110.4 72.54C110.4 71.604 109.842 71.136 108.726 71.136ZM114.874 84.78V72H117.268V72.486C118.048 72.018 118.732 71.784 119.32 71.784C120.532 71.784 121.426 72.15 122.002 72.882C122.578 73.602 122.866 74.832 122.866 76.572C122.866 78.312 122.548 79.524 121.912 80.208C121.276 80.88 120.232 81.216 118.78 81.216C118.384 81.216 117.958 81.18 117.502 81.108L117.286 81.072V84.78H114.874ZM118.852 73.944C118.408 73.944 117.958 74.034 117.502 74.214L117.286 74.304V79.02C117.826 79.092 118.264 79.128 118.6 79.128C119.296 79.128 119.77 78.924 120.022 78.516C120.286 78.108 120.418 77.412 120.418 76.428C120.418 74.772 119.896 73.944 118.852 73.944ZM123.66 72H126.234L127.674 74.79L129.132 72H131.706L129.15 76.41L131.706 81H129.132L127.674 78.246L126.234 81H123.66L126.126 76.482L123.66 72ZM137.005 81V72H139.417V81H137.005ZM137.005 70.848V68.4H139.417V70.848H137.005ZM144.057 81H141.645V72H144.039V72.504C144.855 72.024 145.605 71.784 146.289 71.784C147.489 71.784 148.317 72.138 148.773 72.846C149.229 73.554 149.457 74.646 149.457 76.122V81H147.045V76.194C147.045 75.426 146.955 74.862 146.775 74.502C146.595 74.13 146.235 73.944 145.695 73.944C145.203 73.944 144.729 74.028 144.273 74.196L144.057 74.268V81ZM159.906 71.784C161.166 71.784 162.084 72.132 162.66 72.828C163.248 73.512 163.542 74.742 163.542 76.518C163.542 78.294 163.206 79.524 162.534 80.208C161.862 80.88 160.704 81.216 159.06 81.216C158.544 81.216 157.602 81.156 156.234 81.036L155.55 80.964V68.4H157.962V72.27C158.73 71.946 159.378 71.784 159.906 71.784ZM159.06 79.056C159.864 79.056 160.404 78.864 160.68 78.48C160.956 78.084 161.094 77.382 161.094 76.374C161.094 74.754 160.59 73.944 159.582 73.944C159.102 73.944 158.646 74.004 158.214 74.124L157.962 74.178V78.984C158.514 79.032 158.88 79.056 159.06 79.056ZM165.827 73.026C166.463 72.198 167.525 71.784 169.013 71.784C170.501 71.784 171.563 72.198 172.199 73.026C172.835 73.842 173.153 74.994 173.153 76.482C173.153 79.638 171.773 81.216 169.013 81.216C166.253 81.216 164.873 79.638 164.873 76.482C164.873 74.994 165.191 73.842 165.827 73.026ZM167.681 78.516C167.933 78.948 168.377 79.164 169.013 79.164C169.649 79.164 170.087 78.948 170.327 78.516C170.579 78.084 170.705 77.406 170.705 76.482C170.705 75.558 170.579 74.886 170.327 74.466C170.087 74.046 169.649 73.836 169.013 73.836C168.377 73.836 167.933 74.046 167.681 74.466C167.441 74.886 167.321 75.558 167.321 76.482C167.321 77.406 167.441 78.084 167.681 78.516ZM175.029 81V68.4H177.441V81H175.029ZM187.422 68.4V81H185.028V80.622C184.188 81.018 183.462 81.216 182.85 81.216C181.542 81.216 180.63 80.838 180.114 80.082C179.598 79.326 179.34 78.132 179.34 76.5C179.34 74.856 179.646 73.662 180.258 72.918C180.882 72.162 181.818 71.784 183.066 71.784C183.45 71.784 183.984 71.844 184.668 71.964L185.01 72.036V68.4H187.422ZM184.758 78.84L185.01 78.786V74.052C184.35 73.932 183.762 73.872 183.246 73.872C182.274 73.872 181.788 74.736 181.788 76.464C181.788 77.4 181.896 78.066 182.112 78.462C182.328 78.858 182.682 79.056 183.174 79.056C183.678 79.056 184.206 78.984 184.758 78.84Z" fill="#003366"/>
</svg>
