<svg width="270" height="125" viewBox="0 0 270 125" fill="none" xmlns="http://www.w3.org/2000/svg">
<rect x="0.25" width="269.25" height="125" rx="8" fill="#003366"/>
<path d="M70.244 57.216C68.372 57.216 67.058 56.712 66.302 55.704C65.546 54.696 65.168 53.112 65.168 50.952C65.168 48.78 65.546 47.172 66.302 46.128C67.07 45.072 68.384 44.544 70.244 44.544C72.104 44.544 73.412 45.072 74.168 46.128C74.936 47.172 75.32 48.78 75.32 50.952C75.32 53.616 74.69 55.41 73.43 56.334L74.924 58.746L72.656 59.808L71.036 57.162C70.916 57.198 70.652 57.216 70.244 57.216ZM68.246 54.12C68.606 54.744 69.272 55.056 70.244 55.056C71.216 55.056 71.876 54.744 72.224 54.12C72.584 53.496 72.764 52.44 72.764 50.952C72.764 49.464 72.584 48.384 72.224 47.712C71.864 47.04 71.204 46.704 70.244 46.704C69.284 46.704 68.624 47.04 68.264 47.712C67.904 48.384 67.724 49.464 67.724 50.952C67.724 52.44 67.898 53.496 68.246 54.12ZM82.5442 48H84.9562V57H82.5622V56.496C81.6982 56.976 80.9482 57.216 80.3122 57.216C79.0642 57.216 78.2242 56.874 77.7922 56.19C77.3602 55.494 77.1442 54.336 77.1442 52.716V48H79.5562V52.752C79.5562 53.64 79.6282 54.246 79.7722 54.57C79.9162 54.894 80.2642 55.056 80.8162 55.056C81.3442 55.056 81.8422 54.972 82.3102 54.804L82.5442 54.732V48ZM89.1634 53.526C89.1754 54.078 89.3194 54.48 89.5954 54.732C89.8834 54.972 90.2914 55.092 90.8194 55.092C91.9354 55.092 92.9314 55.056 93.8074 54.984L94.3114 54.93L94.3474 56.712C92.9674 57.048 91.7194 57.216 90.6034 57.216C89.2474 57.216 88.2634 56.856 87.6514 56.136C87.0394 55.416 86.7334 54.246 86.7334 52.626C86.7334 49.398 88.0594 47.784 90.7114 47.784C93.3274 47.784 94.6354 49.14 94.6354 51.852L94.4554 53.526H89.1634ZM92.2594 51.69C92.2594 50.97 92.1454 50.472 91.9174 50.196C91.6894 49.908 91.2874 49.764 90.7114 49.764C90.1474 49.764 89.7454 49.914 89.5054 50.214C89.2774 50.502 89.1574 50.994 89.1454 51.69H92.2594ZM102.821 50.25C101.333 50.058 100.289 49.962 99.6892 49.962C99.1012 49.962 98.7172 50.016 98.5372 50.124C98.3692 50.232 98.2852 50.406 98.2852 50.646C98.2852 50.874 98.3992 51.036 98.6272 51.132C98.8672 51.216 99.4672 51.348 100.427 51.528C101.399 51.696 102.089 51.978 102.497 52.374C102.905 52.77 103.109 53.412 103.109 54.3C103.109 56.244 101.903 57.216 99.4912 57.216C98.6992 57.216 97.7392 57.108 96.6112 56.892L96.0352 56.784L96.1072 54.768C97.5952 54.96 98.6272 55.056 99.2032 55.056C99.7912 55.056 100.187 55.002 100.391 54.894C100.607 54.774 100.715 54.6 100.715 54.372C100.715 54.144 100.601 53.976 100.373 53.868C100.157 53.76 99.5812 53.628 98.6452 53.472C97.7212 53.316 97.0312 53.052 96.5752 52.68C96.1192 52.308 95.8912 51.648 95.8912 50.7C95.8912 49.74 96.2152 49.02 96.8632 48.54C97.5112 48.048 98.3452 47.802 99.3652 47.802C100.073 47.802 101.039 47.916 102.263 48.144L102.857 48.252L102.821 50.25ZM109.835 50.052H107.621V53.742C107.621 54.102 107.627 54.36 107.639 54.516C107.663 54.66 107.729 54.786 107.837 54.894C107.957 55.002 108.137 55.056 108.377 55.056L109.745 55.02L109.853 56.946C109.049 57.126 108.437 57.216 108.017 57.216C106.937 57.216 106.199 56.976 105.803 56.496C105.407 56.004 105.209 55.104 105.209 53.796V50.052H104.147V48H105.209V45.498H107.621V48H109.835V50.052ZM111.892 49.026C112.528 48.198 113.59 47.784 115.078 47.784C116.566 47.784 117.628 48.198 118.264 49.026C118.9 49.842 119.218 50.994 119.218 52.482C119.218 55.638 117.838 57.216 115.078 57.216C112.318 57.216 110.938 55.638 110.938 52.482C110.938 50.994 111.256 49.842 111.892 49.026ZM113.746 54.516C113.998 54.948 114.442 55.164 115.078 55.164C115.714 55.164 116.152 54.948 116.392 54.516C116.644 54.084 116.77 53.406 116.77 52.482C116.77 51.558 116.644 50.886 116.392 50.466C116.152 50.046 115.714 49.836 115.078 49.836C114.442 49.836 113.998 50.046 113.746 50.466C113.506 50.886 113.386 51.558 113.386 52.482C113.386 53.406 113.506 54.084 113.746 54.516ZM126.921 53.526C126.933 54.078 127.077 54.48 127.353 54.732C127.641 54.972 128.049 55.092 128.577 55.092C129.693 55.092 130.689 55.056 131.565 54.984L132.069 54.93L132.105 56.712C130.725 57.048 129.477 57.216 128.361 57.216C127.005 57.216 126.021 56.856 125.409 56.136C124.797 55.416 124.491 54.246 124.491 52.626C124.491 49.398 125.817 47.784 128.469 47.784C131.085 47.784 132.393 49.14 132.393 51.852L132.213 53.526H126.921ZM130.017 51.69C130.017 50.97 129.903 50.472 129.675 50.196C129.447 49.908 129.045 49.764 128.469 49.764C127.905 49.764 127.503 49.914 127.263 50.214C127.035 50.502 126.915 50.994 126.903 51.69H130.017ZM126.525 43.446L131.061 45.282L130.521 46.848L125.805 45.516L126.525 43.446ZM143.382 48H145.794V57H143.4V56.496C142.536 56.976 141.786 57.216 141.15 57.216C139.902 57.216 139.062 56.874 138.63 56.19C138.198 55.494 137.982 54.336 137.982 52.716V48H140.394V52.752C140.394 53.64 140.466 54.246 140.61 54.57C140.754 54.894 141.102 55.056 141.654 55.056C142.182 55.056 142.68 54.972 143.148 54.804L143.382 54.732V48ZM150.433 57H148.021V48H150.415V48.504C151.231 48.024 151.981 47.784 152.665 47.784C153.865 47.784 154.693 48.138 155.149 48.846C155.605 49.554 155.833 50.646 155.833 52.122V57H153.421V52.194C153.421 51.426 153.331 50.862 153.151 50.502C152.971 50.13 152.611 49.944 152.071 49.944C151.579 49.944 151.105 50.028 150.649 50.196L150.433 50.268V57ZM166.912 50.052H164.698V53.742C164.698 54.102 164.704 54.36 164.716 54.516C164.74 54.66 164.806 54.786 164.914 54.894C165.034 55.002 165.214 55.056 165.454 55.056L166.822 55.02L166.93 56.946C166.126 57.126 165.514 57.216 165.094 57.216C164.014 57.216 163.276 56.976 162.88 56.496C162.484 56.004 162.286 55.104 162.286 53.796V50.052H161.224V48H162.286V45.498H164.698V48H166.912V50.052ZM170.462 53.526C170.474 54.078 170.618 54.48 170.894 54.732C171.182 54.972 171.59 55.092 172.118 55.092C173.234 55.092 174.23 55.056 175.106 54.984L175.61 54.93L175.646 56.712C174.266 57.048 173.018 57.216 171.902 57.216C170.546 57.216 169.562 56.856 168.95 56.136C168.338 55.416 168.032 54.246 168.032 52.626C168.032 49.398 169.358 47.784 172.01 47.784C174.626 47.784 175.934 49.14 175.934 51.852L175.754 53.526H170.462ZM173.558 51.69C173.558 50.97 173.444 50.472 173.216 50.196C172.988 49.908 172.586 49.764 172.01 49.764C171.446 49.764 171.044 49.914 170.804 50.214C170.576 50.502 170.456 50.994 170.444 51.69H173.558ZM184.12 50.25C182.632 50.058 181.588 49.962 180.988 49.962C180.4 49.962 180.016 50.016 179.836 50.124C179.668 50.232 179.584 50.406 179.584 50.646C179.584 50.874 179.698 51.036 179.926 51.132C180.166 51.216 180.766 51.348 181.726 51.528C182.698 51.696 183.388 51.978 183.796 52.374C184.204 52.77 184.408 53.412 184.408 54.3C184.408 56.244 183.202 57.216 180.79 57.216C179.998 57.216 179.038 57.108 177.91 56.892L177.334 56.784L177.406 54.768C178.894 54.96 179.926 55.056 180.502 55.056C181.09 55.056 181.486 55.002 181.69 54.894C181.906 54.774 182.014 54.6 182.014 54.372C182.014 54.144 181.9 53.976 181.672 53.868C181.456 53.76 180.88 53.628 179.944 53.472C179.02 53.316 178.33 53.052 177.874 52.68C177.418 52.308 177.19 51.648 177.19 50.7C177.19 49.74 177.514 49.02 178.162 48.54C178.81 48.048 179.644 47.802 180.664 47.802C181.372 47.802 182.338 47.916 183.562 48.144L184.156 48.252L184.12 50.25ZM191.134 50.052H188.92V53.742C188.92 54.102 188.926 54.36 188.938 54.516C188.962 54.66 189.028 54.786 189.136 54.894C189.256 55.002 189.436 55.056 189.676 55.056L191.044 55.02L191.152 56.946C190.348 57.126 189.736 57.216 189.316 57.216C188.236 57.216 187.498 56.976 187.102 56.496C186.706 56.004 186.508 55.104 186.508 53.796V50.052H185.446V48H186.508V45.498H188.92V48H191.134V50.052ZM193.191 49.026C193.827 48.198 194.889 47.784 196.377 47.784C197.865 47.784 198.927 48.198 199.563 49.026C200.199 49.842 200.517 50.994 200.517 52.482C200.517 55.638 199.137 57.216 196.377 57.216C193.617 57.216 192.237 55.638 192.237 52.482C192.237 50.994 192.555 49.842 193.191 49.026ZM195.045 54.516C195.297 54.948 195.741 55.164 196.377 55.164C197.013 55.164 197.451 54.948 197.691 54.516C197.943 54.084 198.069 53.406 198.069 52.482C198.069 51.558 197.943 50.886 197.691 50.466C197.451 50.046 197.013 49.836 196.377 49.836C195.741 49.836 195.297 50.046 195.045 50.466C194.805 50.886 194.685 51.558 194.685 52.482C194.685 53.406 194.805 54.084 195.045 54.516ZM88.7248 74.808V78.552C88.7488 78.84 88.7968 79.044 88.8688 79.164C88.9408 79.272 89.0908 79.35 89.3188 79.398L89.2468 81.216C88.6348 81.216 88.1428 81.174 87.7708 81.09C87.4108 81.006 87.0448 80.838 86.6728 80.586C85.8088 81.006 84.9268 81.216 84.0268 81.216C82.1668 81.216 81.2368 80.232 81.2368 78.264C81.2368 77.304 81.4948 76.626 82.0108 76.23C82.5268 75.822 83.3188 75.582 84.3868 75.51L86.3128 75.366V74.808C86.3128 74.436 86.2288 74.184 86.0608 74.052C85.8928 73.908 85.6228 73.836 85.2508 73.836L81.8668 73.98L81.7948 72.306C83.0788 71.958 84.2968 71.784 85.4488 71.784C86.6128 71.784 87.4468 72.024 87.9508 72.504C88.4668 72.984 88.7248 73.752 88.7248 74.808ZM84.6748 77.184C84.0028 77.244 83.6668 77.604 83.6668 78.264C83.6668 78.924 83.9608 79.254 84.5488 79.254C85.0048 79.254 85.5028 79.182 86.0428 79.038L86.3128 78.966V77.04L84.6748 77.184ZM101.387 69.12V81H98.9033V71.928L96.3293 73.584L95.1953 71.73L99.1193 69.12H101.387ZM105.808 69.768C106.588 69.192 107.632 68.904 108.94 68.904C110.248 68.904 111.304 69.192 112.108 69.768C112.912 70.344 113.314 71.142 113.314 72.162C113.314 72.858 113.23 73.38 113.062 73.728C112.894 74.076 112.546 74.46 112.018 74.88C112.546 75.324 112.924 75.744 113.152 76.14C113.38 76.536 113.494 77.082 113.494 77.778C113.494 78.954 113.074 79.824 112.234 80.388C111.394 80.94 110.296 81.216 108.94 81.216C105.94 81.216 104.44 80.136 104.44 77.976C104.44 77.208 104.554 76.614 104.782 76.194C105.022 75.762 105.406 75.324 105.934 74.88C105.43 74.472 105.088 74.076 104.908 73.692C104.728 73.296 104.638 72.78 104.638 72.144C104.638 71.124 105.028 70.332 105.808 69.768ZM107.104 77.4C107.104 78.456 107.722 78.984 108.958 78.984C110.206 78.984 110.83 78.456 110.83 77.4C110.83 76.776 110.476 76.326 109.768 76.05H108.184C107.464 76.326 107.104 76.776 107.104 77.4ZM108.976 71.136C108.436 71.136 108.022 71.256 107.734 71.496C107.446 71.736 107.302 72.102 107.302 72.594C107.302 73.086 107.596 73.536 108.184 73.944H109.768C110.356 73.536 110.65 73.068 110.65 72.54C110.65 71.604 110.092 71.136 108.976 71.136ZM115.124 84.78V72H117.518V72.486C118.298 72.018 118.982 71.784 119.57 71.784C120.782 71.784 121.676 72.15 122.252 72.882C122.828 73.602 123.116 74.832 123.116 76.572C123.116 78.312 122.798 79.524 122.162 80.208C121.526 80.88 120.482 81.216 119.03 81.216C118.634 81.216 118.208 81.18 117.752 81.108L117.536 81.072V84.78H115.124ZM119.102 73.944C118.658 73.944 118.208 74.034 117.752 74.214L117.536 74.304V79.02C118.076 79.092 118.514 79.128 118.85 79.128C119.546 79.128 120.02 78.924 120.272 78.516C120.536 78.108 120.668 77.412 120.668 76.428C120.668 74.772 120.146 73.944 119.102 73.944ZM123.91 72H126.484L127.924 74.79L129.382 72H131.956L129.4 76.41L131.956 81H129.382L127.924 78.246L126.484 81H123.91L126.376 76.482L123.91 72ZM137.255 81V72H139.667V81H137.255ZM137.255 70.848V68.4H139.667V70.848H137.255ZM144.307 81H141.895V72H144.289V72.504C145.105 72.024 145.855 71.784 146.539 71.784C147.739 71.784 148.567 72.138 149.023 72.846C149.479 73.554 149.707 74.646 149.707 76.122V81H147.295V76.194C147.295 75.426 147.205 74.862 147.025 74.502C146.845 74.13 146.485 73.944 145.945 73.944C145.453 73.944 144.979 74.028 144.523 74.196L144.307 74.268V81ZM160.156 71.784C161.416 71.784 162.334 72.132 162.91 72.828C163.498 73.512 163.792 74.742 163.792 76.518C163.792 78.294 163.456 79.524 162.784 80.208C162.112 80.88 160.954 81.216 159.31 81.216C158.794 81.216 157.852 81.156 156.484 81.036L155.8 80.964V68.4H158.212V72.27C158.98 71.946 159.628 71.784 160.156 71.784ZM159.31 79.056C160.114 79.056 160.654 78.864 160.93 78.48C161.206 78.084 161.344 77.382 161.344 76.374C161.344 74.754 160.84 73.944 159.832 73.944C159.352 73.944 158.896 74.004 158.464 74.124L158.212 74.178V78.984C158.764 79.032 159.13 79.056 159.31 79.056ZM166.077 73.026C166.713 72.198 167.775 71.784 169.263 71.784C170.751 71.784 171.813 72.198 172.449 73.026C173.085 73.842 173.403 74.994 173.403 76.482C173.403 79.638 172.023 81.216 169.263 81.216C166.503 81.216 165.123 79.638 165.123 76.482C165.123 74.994 165.441 73.842 166.077 73.026ZM167.931 78.516C168.183 78.948 168.627 79.164 169.263 79.164C169.899 79.164 170.337 78.948 170.577 78.516C170.829 78.084 170.955 77.406 170.955 76.482C170.955 75.558 170.829 74.886 170.577 74.466C170.337 74.046 169.899 73.836 169.263 73.836C168.627 73.836 168.183 74.046 167.931 74.466C167.691 74.886 167.571 75.558 167.571 76.482C167.571 77.406 167.691 78.084 167.931 78.516ZM175.279 81V68.4H177.691V81H175.279ZM187.672 68.4V81H185.278V80.622C184.438 81.018 183.712 81.216 183.1 81.216C181.792 81.216 180.88 80.838 180.364 80.082C179.848 79.326 179.59 78.132 179.59 76.5C179.59 74.856 179.896 73.662 180.508 72.918C181.132 72.162 182.068 71.784 183.316 71.784C183.7 71.784 184.234 71.844 184.918 71.964L185.26 72.036V68.4H187.672ZM185.008 78.84L185.26 78.786V74.052C184.6 73.932 184.012 73.872 183.496 73.872C182.524 73.872 182.038 74.736 182.038 76.464C182.038 77.4 182.146 78.066 182.362 78.462C182.578 78.858 182.932 79.056 183.424 79.056C183.928 79.056 184.456 78.984 185.008 78.84Z" fill="white"/>
</svg>
