<svg width="270" height="125" viewBox="0 0 270 125" fill="none" xmlns="http://www.w3.org/2000/svg">
<rect x="0.75" width="269.25" height="125" rx="8" fill="#003366"/>
<path d="M70.744 57.216C68.872 57.216 67.558 56.712 66.802 55.704C66.046 54.696 65.668 53.112 65.668 50.952C65.668 48.78 66.046 47.172 66.802 46.128C67.57 45.072 68.884 44.544 70.744 44.544C72.604 44.544 73.912 45.072 74.668 46.128C75.436 47.172 75.82 48.78 75.82 50.952C75.82 53.616 75.19 55.41 73.93 56.334L75.424 58.746L73.156 59.808L71.536 57.162C71.416 57.198 71.152 57.216 70.744 57.216ZM68.746 54.12C69.106 54.744 69.772 55.056 70.744 55.056C71.716 55.056 72.376 54.744 72.724 54.12C73.084 53.496 73.264 52.44 73.264 50.952C73.264 49.464 73.084 48.384 72.724 47.712C72.364 47.04 71.704 46.704 70.744 46.704C69.784 46.704 69.124 47.04 68.764 47.712C68.404 48.384 68.224 49.464 68.224 50.952C68.224 52.44 68.398 53.496 68.746 54.12ZM83.0442 48H85.4562V57H83.0622V56.496C82.1982 56.976 81.4482 57.216 80.8122 57.216C79.5642 57.216 78.7242 56.874 78.2922 56.19C77.8602 55.494 77.6442 54.336 77.6442 52.716V48H80.0562V52.752C80.0562 53.64 80.1282 54.246 80.2722 54.57C80.4162 54.894 80.7642 55.056 81.3162 55.056C81.8442 55.056 82.3422 54.972 82.8102 54.804L83.0442 54.732V48ZM89.6634 53.526C89.6754 54.078 89.8194 54.48 90.0954 54.732C90.3834 54.972 90.7914 55.092 91.3194 55.092C92.4354 55.092 93.4314 55.056 94.3074 54.984L94.8114 54.93L94.8474 56.712C93.4674 57.048 92.2194 57.216 91.1034 57.216C89.7474 57.216 88.7634 56.856 88.1514 56.136C87.5394 55.416 87.2334 54.246 87.2334 52.626C87.2334 49.398 88.5594 47.784 91.2114 47.784C93.8274 47.784 95.1354 49.14 95.1354 51.852L94.9554 53.526H89.6634ZM92.7594 51.69C92.7594 50.97 92.6454 50.472 92.4174 50.196C92.1894 49.908 91.7874 49.764 91.2114 49.764C90.6474 49.764 90.2454 49.914 90.0054 50.214C89.7774 50.502 89.6574 50.994 89.6454 51.69H92.7594ZM103.321 50.25C101.833 50.058 100.789 49.962 100.189 49.962C99.6012 49.962 99.2172 50.016 99.0372 50.124C98.8692 50.232 98.7852 50.406 98.7852 50.646C98.7852 50.874 98.8992 51.036 99.1272 51.132C99.3672 51.216 99.9672 51.348 100.927 51.528C101.899 51.696 102.589 51.978 102.997 52.374C103.405 52.77 103.609 53.412 103.609 54.3C103.609 56.244 102.403 57.216 99.9912 57.216C99.1992 57.216 98.2392 57.108 97.1112 56.892L96.5352 56.784L96.6072 54.768C98.0952 54.96 99.1272 55.056 99.7032 55.056C100.291 55.056 100.687 55.002 100.891 54.894C101.107 54.774 101.215 54.6 101.215 54.372C101.215 54.144 101.101 53.976 100.873 53.868C100.657 53.76 100.081 53.628 99.1452 53.472C98.2212 53.316 97.5312 53.052 97.0752 52.68C96.6192 52.308 96.3912 51.648 96.3912 50.7C96.3912 49.74 96.7152 49.02 97.3632 48.54C98.0112 48.048 98.8452 47.802 99.8652 47.802C100.573 47.802 101.539 47.916 102.763 48.144L103.357 48.252L103.321 50.25ZM110.335 50.052H108.121V53.742C108.121 54.102 108.127 54.36 108.139 54.516C108.163 54.66 108.229 54.786 108.337 54.894C108.457 55.002 108.637 55.056 108.877 55.056L110.245 55.02L110.353 56.946C109.549 57.126 108.937 57.216 108.517 57.216C107.437 57.216 106.699 56.976 106.303 56.496C105.907 56.004 105.709 55.104 105.709 53.796V50.052H104.647V48H105.709V45.498H108.121V48H110.335V50.052ZM112.392 49.026C113.028 48.198 114.09 47.784 115.578 47.784C117.066 47.784 118.128 48.198 118.764 49.026C119.4 49.842 119.718 50.994 119.718 52.482C119.718 55.638 118.338 57.216 115.578 57.216C112.818 57.216 111.438 55.638 111.438 52.482C111.438 50.994 111.756 49.842 112.392 49.026ZM114.246 54.516C114.498 54.948 114.942 55.164 115.578 55.164C116.214 55.164 116.652 54.948 116.892 54.516C117.144 54.084 117.27 53.406 117.27 52.482C117.27 51.558 117.144 50.886 116.892 50.466C116.652 50.046 116.214 49.836 115.578 49.836C114.942 49.836 114.498 50.046 114.246 50.466C114.006 50.886 113.886 51.558 113.886 52.482C113.886 53.406 114.006 54.084 114.246 54.516ZM127.421 53.526C127.433 54.078 127.577 54.48 127.853 54.732C128.141 54.972 128.549 55.092 129.077 55.092C130.193 55.092 131.189 55.056 132.065 54.984L132.569 54.93L132.605 56.712C131.225 57.048 129.977 57.216 128.861 57.216C127.505 57.216 126.521 56.856 125.909 56.136C125.297 55.416 124.991 54.246 124.991 52.626C124.991 49.398 126.317 47.784 128.969 47.784C131.585 47.784 132.893 49.14 132.893 51.852L132.713 53.526H127.421ZM130.517 51.69C130.517 50.97 130.403 50.472 130.175 50.196C129.947 49.908 129.545 49.764 128.969 49.764C128.405 49.764 128.003 49.914 127.763 50.214C127.535 50.502 127.415 50.994 127.403 51.69H130.517ZM127.025 43.446L131.561 45.282L131.021 46.848L126.305 45.516L127.025 43.446ZM143.882 48H146.294V57H143.9V56.496C143.036 56.976 142.286 57.216 141.65 57.216C140.402 57.216 139.562 56.874 139.13 56.19C138.698 55.494 138.482 54.336 138.482 52.716V48H140.894V52.752C140.894 53.64 140.966 54.246 141.11 54.57C141.254 54.894 141.602 55.056 142.154 55.056C142.682 55.056 143.18 54.972 143.648 54.804L143.882 54.732V48ZM150.933 57H148.521V48H150.915V48.504C151.731 48.024 152.481 47.784 153.165 47.784C154.365 47.784 155.193 48.138 155.649 48.846C156.105 49.554 156.333 50.646 156.333 52.122V57H153.921V52.194C153.921 51.426 153.831 50.862 153.651 50.502C153.471 50.13 153.111 49.944 152.571 49.944C152.079 49.944 151.605 50.028 151.149 50.196L150.933 50.268V57ZM167.412 50.052H165.198V53.742C165.198 54.102 165.204 54.36 165.216 54.516C165.24 54.66 165.306 54.786 165.414 54.894C165.534 55.002 165.714 55.056 165.954 55.056L167.322 55.02L167.43 56.946C166.626 57.126 166.014 57.216 165.594 57.216C164.514 57.216 163.776 56.976 163.38 56.496C162.984 56.004 162.786 55.104 162.786 53.796V50.052H161.724V48H162.786V45.498H165.198V48H167.412V50.052ZM170.962 53.526C170.974 54.078 171.118 54.48 171.394 54.732C171.682 54.972 172.09 55.092 172.618 55.092C173.734 55.092 174.73 55.056 175.606 54.984L176.11 54.93L176.146 56.712C174.766 57.048 173.518 57.216 172.402 57.216C171.046 57.216 170.062 56.856 169.45 56.136C168.838 55.416 168.532 54.246 168.532 52.626C168.532 49.398 169.858 47.784 172.51 47.784C175.126 47.784 176.434 49.14 176.434 51.852L176.254 53.526H170.962ZM174.058 51.69C174.058 50.97 173.944 50.472 173.716 50.196C173.488 49.908 173.086 49.764 172.51 49.764C171.946 49.764 171.544 49.914 171.304 50.214C171.076 50.502 170.956 50.994 170.944 51.69H174.058ZM184.62 50.25C183.132 50.058 182.088 49.962 181.488 49.962C180.9 49.962 180.516 50.016 180.336 50.124C180.168 50.232 180.084 50.406 180.084 50.646C180.084 50.874 180.198 51.036 180.426 51.132C180.666 51.216 181.266 51.348 182.226 51.528C183.198 51.696 183.888 51.978 184.296 52.374C184.704 52.77 184.908 53.412 184.908 54.3C184.908 56.244 183.702 57.216 181.29 57.216C180.498 57.216 179.538 57.108 178.41 56.892L177.834 56.784L177.906 54.768C179.394 54.96 180.426 55.056 181.002 55.056C181.59 55.056 181.986 55.002 182.19 54.894C182.406 54.774 182.514 54.6 182.514 54.372C182.514 54.144 182.4 53.976 182.172 53.868C181.956 53.76 181.38 53.628 180.444 53.472C179.52 53.316 178.83 53.052 178.374 52.68C177.918 52.308 177.69 51.648 177.69 50.7C177.69 49.74 178.014 49.02 178.662 48.54C179.31 48.048 180.144 47.802 181.164 47.802C181.872 47.802 182.838 47.916 184.062 48.144L184.656 48.252L184.62 50.25ZM191.634 50.052H189.42V53.742C189.42 54.102 189.426 54.36 189.438 54.516C189.462 54.66 189.528 54.786 189.636 54.894C189.756 55.002 189.936 55.056 190.176 55.056L191.544 55.02L191.652 56.946C190.848 57.126 190.236 57.216 189.816 57.216C188.736 57.216 187.998 56.976 187.602 56.496C187.206 56.004 187.008 55.104 187.008 53.796V50.052H185.946V48H187.008V45.498H189.42V48H191.634V50.052ZM193.691 49.026C194.327 48.198 195.389 47.784 196.877 47.784C198.365 47.784 199.427 48.198 200.063 49.026C200.699 49.842 201.017 50.994 201.017 52.482C201.017 55.638 199.637 57.216 196.877 57.216C194.117 57.216 192.737 55.638 192.737 52.482C192.737 50.994 193.055 49.842 193.691 49.026ZM195.545 54.516C195.797 54.948 196.241 55.164 196.877 55.164C197.513 55.164 197.951 54.948 198.191 54.516C198.443 54.084 198.569 53.406 198.569 52.482C198.569 51.558 198.443 50.886 198.191 50.466C197.951 50.046 197.513 49.836 196.877 49.836C196.241 49.836 195.797 50.046 195.545 50.466C195.305 50.886 195.185 51.558 195.185 52.482C195.185 53.406 195.305 54.084 195.545 54.516ZM89.2248 74.808V78.552C89.2488 78.84 89.2968 79.044 89.3688 79.164C89.4408 79.272 89.5908 79.35 89.8188 79.398L89.7468 81.216C89.1348 81.216 88.6428 81.174 88.2708 81.09C87.9108 81.006 87.5448 80.838 87.1728 80.586C86.3088 81.006 85.4268 81.216 84.5268 81.216C82.6668 81.216 81.7368 80.232 81.7368 78.264C81.7368 77.304 81.9948 76.626 82.5108 76.23C83.0268 75.822 83.8188 75.582 84.8868 75.51L86.8128 75.366V74.808C86.8128 74.436 86.7288 74.184 86.5608 74.052C86.3928 73.908 86.1228 73.836 85.7508 73.836L82.3668 73.98L82.2948 72.306C83.5788 71.958 84.7968 71.784 85.9488 71.784C87.1128 71.784 87.9468 72.024 88.4508 72.504C88.9668 72.984 89.2248 73.752 89.2248 74.808ZM85.1748 77.184C84.5028 77.244 84.1668 77.604 84.1668 78.264C84.1668 78.924 84.4608 79.254 85.0488 79.254C85.5048 79.254 86.0028 79.182 86.5428 79.038L86.8128 78.966V77.04L85.1748 77.184ZM101.887 69.12V81H99.4033V71.928L96.8293 73.584L95.6953 71.73L99.6193 69.12H101.887ZM106.308 69.768C107.088 69.192 108.132 68.904 109.44 68.904C110.748 68.904 111.804 69.192 112.608 69.768C113.412 70.344 113.814 71.142 113.814 72.162C113.814 72.858 113.73 73.38 113.562 73.728C113.394 74.076 113.046 74.46 112.518 74.88C113.046 75.324 113.424 75.744 113.652 76.14C113.88 76.536 113.994 77.082 113.994 77.778C113.994 78.954 113.574 79.824 112.734 80.388C111.894 80.94 110.796 81.216 109.44 81.216C106.44 81.216 104.94 80.136 104.94 77.976C104.94 77.208 105.054 76.614 105.282 76.194C105.522 75.762 105.906 75.324 106.434 74.88C105.93 74.472 105.588 74.076 105.408 73.692C105.228 73.296 105.138 72.78 105.138 72.144C105.138 71.124 105.528 70.332 106.308 69.768ZM107.604 77.4C107.604 78.456 108.222 78.984 109.458 78.984C110.706 78.984 111.33 78.456 111.33 77.4C111.33 76.776 110.976 76.326 110.268 76.05H108.684C107.964 76.326 107.604 76.776 107.604 77.4ZM109.476 71.136C108.936 71.136 108.522 71.256 108.234 71.496C107.946 71.736 107.802 72.102 107.802 72.594C107.802 73.086 108.096 73.536 108.684 73.944H110.268C110.856 73.536 111.15 73.068 111.15 72.54C111.15 71.604 110.592 71.136 109.476 71.136ZM115.624 84.78V72H118.018V72.486C118.798 72.018 119.482 71.784 120.07 71.784C121.282 71.784 122.176 72.15 122.752 72.882C123.328 73.602 123.616 74.832 123.616 76.572C123.616 78.312 123.298 79.524 122.662 80.208C122.026 80.88 120.982 81.216 119.53 81.216C119.134 81.216 118.708 81.18 118.252 81.108L118.036 81.072V84.78H115.624ZM119.602 73.944C119.158 73.944 118.708 74.034 118.252 74.214L118.036 74.304V79.02C118.576 79.092 119.014 79.128 119.35 79.128C120.046 79.128 120.52 78.924 120.772 78.516C121.036 78.108 121.168 77.412 121.168 76.428C121.168 74.772 120.646 73.944 119.602 73.944ZM124.41 72H126.984L128.424 74.79L129.882 72H132.456L129.9 76.41L132.456 81H129.882L128.424 78.246L126.984 81H124.41L126.876 76.482L124.41 72ZM137.755 81V72H140.167V81H137.755ZM137.755 70.848V68.4H140.167V70.848H137.755ZM144.807 81H142.395V72H144.789V72.504C145.605 72.024 146.355 71.784 147.039 71.784C148.239 71.784 149.067 72.138 149.523 72.846C149.979 73.554 150.207 74.646 150.207 76.122V81H147.795V76.194C147.795 75.426 147.705 74.862 147.525 74.502C147.345 74.13 146.985 73.944 146.445 73.944C145.953 73.944 145.479 74.028 145.023 74.196L144.807 74.268V81ZM160.656 71.784C161.916 71.784 162.834 72.132 163.41 72.828C163.998 73.512 164.292 74.742 164.292 76.518C164.292 78.294 163.956 79.524 163.284 80.208C162.612 80.88 161.454 81.216 159.81 81.216C159.294 81.216 158.352 81.156 156.984 81.036L156.3 80.964V68.4H158.712V72.27C159.48 71.946 160.128 71.784 160.656 71.784ZM159.81 79.056C160.614 79.056 161.154 78.864 161.43 78.48C161.706 78.084 161.844 77.382 161.844 76.374C161.844 74.754 161.34 73.944 160.332 73.944C159.852 73.944 159.396 74.004 158.964 74.124L158.712 74.178V78.984C159.264 79.032 159.63 79.056 159.81 79.056ZM166.577 73.026C167.213 72.198 168.275 71.784 169.763 71.784C171.251 71.784 172.313 72.198 172.949 73.026C173.585 73.842 173.903 74.994 173.903 76.482C173.903 79.638 172.523 81.216 169.763 81.216C167.003 81.216 165.623 79.638 165.623 76.482C165.623 74.994 165.941 73.842 166.577 73.026ZM168.431 78.516C168.683 78.948 169.127 79.164 169.763 79.164C170.399 79.164 170.837 78.948 171.077 78.516C171.329 78.084 171.455 77.406 171.455 76.482C171.455 75.558 171.329 74.886 171.077 74.466C170.837 74.046 170.399 73.836 169.763 73.836C169.127 73.836 168.683 74.046 168.431 74.466C168.191 74.886 168.071 75.558 168.071 76.482C168.071 77.406 168.191 78.084 168.431 78.516ZM175.779 81V68.4H178.191V81H175.779ZM188.172 68.4V81H185.778V80.622C184.938 81.018 184.212 81.216 183.6 81.216C182.292 81.216 181.38 80.838 180.864 80.082C180.348 79.326 180.09 78.132 180.09 76.5C180.09 74.856 180.396 73.662 181.008 72.918C181.632 72.162 182.568 71.784 183.816 71.784C184.2 71.784 184.734 71.844 185.418 71.964L185.76 72.036V68.4H188.172ZM185.508 78.84L185.76 78.786V74.052C185.1 73.932 184.512 73.872 183.996 73.872C183.024 73.872 182.538 74.736 182.538 76.464C182.538 77.4 182.646 78.066 182.862 78.462C183.078 78.858 183.432 79.056 183.924 79.056C184.428 79.056 184.956 78.984 185.508 78.84Z" fill="#207AD5"/>
</svg>
