<svg width="270" height="125" viewBox="0 0 270 125" fill="none" xmlns="http://www.w3.org/2000/svg">
<rect x="0.5" width="269.25" height="125" rx="8" fill="#BFDFFF"/>
<path d="M151.58 52.6394L140.06 44.5794C136.92 42.3794 132.1 42.4994 129.08 44.8394L119.06 52.6594C117.06 54.2194 115.48 57.4194 115.48 59.9394V73.7394C115.48 78.8394 119.62 82.9994 124.72 82.9994H146.28C151.38 82.9994 155.52 78.8594 155.52 73.7594V60.1994C155.52 57.4994 153.78 54.1794 151.58 52.6394ZM137 74.9994C137 75.8194 136.32 76.4994 135.5 76.4994C134.68 76.4994 134 75.8194 134 74.9994V68.9994C134 68.1794 134.68 67.4994 135.5 67.4994C136.32 67.4994 137 68.1794 137 68.9994V74.9994Z" fill="#6AAAEB"/>
</svg>
