<svg width="270" height="125" viewBox="0 0 270 125" fill="none" xmlns="http://www.w3.org/2000/svg">
<rect x="0.75" width="269.25" height="125" rx="8" fill="#003366"/>
<path d="M151.83 52.6394L140.31 44.5794C137.17 42.3794 132.35 42.4994 129.33 44.8394L119.31 52.6594C117.31 54.2194 115.73 57.4194 115.73 59.9394V73.7394C115.73 78.8394 119.87 82.9994 124.97 82.9994H146.53C151.63 82.9994 155.77 78.8594 155.77 73.7594V60.1994C155.77 57.4994 154.03 54.1794 151.83 52.6394ZM137.25 74.9994C137.25 75.8194 136.57 76.4994 135.75 76.4994C134.93 76.4994 134.25 75.8194 134.25 74.9994V68.9994C134.25 68.1794 134.93 67.4994 135.75 67.4994C136.57 67.4994 137.25 68.1794 137.25 68.9994V74.9994Z" fill="#207AD5"/>
</svg>
