<svg width="270" height="125" viewBox="0 0 270 125" fill="none" xmlns="http://www.w3.org/2000/svg">
<rect x="0.5" width="269.25" height="125" rx="8" fill="#BFDFFF"/>
<path d="M70.494 57.216C68.622 57.216 67.308 56.712 66.552 55.704C65.796 54.696 65.418 53.112 65.418 50.952C65.418 48.78 65.796 47.172 66.552 46.128C67.32 45.072 68.634 44.544 70.494 44.544C72.354 44.544 73.662 45.072 74.418 46.128C75.186 47.172 75.57 48.78 75.57 50.952C75.57 53.616 74.94 55.41 73.68 56.334L75.174 58.746L72.906 59.808L71.286 57.162C71.166 57.198 70.902 57.216 70.494 57.216ZM68.496 54.12C68.856 54.744 69.522 55.056 70.494 55.056C71.466 55.056 72.126 54.744 72.474 54.12C72.834 53.496 73.014 52.44 73.014 50.952C73.014 49.464 72.834 48.384 72.474 47.712C72.114 47.04 71.454 46.704 70.494 46.704C69.534 46.704 68.874 47.04 68.514 47.712C68.154 48.384 67.974 49.464 67.974 50.952C67.974 52.44 68.148 53.496 68.496 54.12ZM82.7942 48H85.2062V57H82.8122V56.496C81.9482 56.976 81.1982 57.216 80.5622 57.216C79.3142 57.216 78.4742 56.874 78.0422 56.19C77.6102 55.494 77.3942 54.336 77.3942 52.716V48H79.8062V52.752C79.8062 53.64 79.8782 54.246 80.0222 54.57C80.1662 54.894 80.5142 55.056 81.0662 55.056C81.5942 55.056 82.0922 54.972 82.5602 54.804L82.7942 54.732V48ZM89.4134 53.526C89.4254 54.078 89.5694 54.48 89.8454 54.732C90.1334 54.972 90.5414 55.092 91.0694 55.092C92.1854 55.092 93.1814 55.056 94.0574 54.984L94.5614 54.93L94.5974 56.712C93.2174 57.048 91.9694 57.216 90.8534 57.216C89.4974 57.216 88.5134 56.856 87.9014 56.136C87.2894 55.416 86.9834 54.246 86.9834 52.626C86.9834 49.398 88.3094 47.784 90.9614 47.784C93.5774 47.784 94.8854 49.14 94.8854 51.852L94.7054 53.526H89.4134ZM92.5094 51.69C92.5094 50.97 92.3954 50.472 92.1674 50.196C91.9394 49.908 91.5374 49.764 90.9614 49.764C90.3974 49.764 89.9954 49.914 89.7554 50.214C89.5274 50.502 89.4074 50.994 89.3954 51.69H92.5094ZM103.071 50.25C101.583 50.058 100.539 49.962 99.9392 49.962C99.3512 49.962 98.9672 50.016 98.7872 50.124C98.6192 50.232 98.5352 50.406 98.5352 50.646C98.5352 50.874 98.6492 51.036 98.8772 51.132C99.1172 51.216 99.7172 51.348 100.677 51.528C101.649 51.696 102.339 51.978 102.747 52.374C103.155 52.77 103.359 53.412 103.359 54.3C103.359 56.244 102.153 57.216 99.7412 57.216C98.9492 57.216 97.9892 57.108 96.8612 56.892L96.2852 56.784L96.3572 54.768C97.8452 54.96 98.8772 55.056 99.4532 55.056C100.041 55.056 100.437 55.002 100.641 54.894C100.857 54.774 100.965 54.6 100.965 54.372C100.965 54.144 100.851 53.976 100.623 53.868C100.407 53.76 99.8312 53.628 98.8952 53.472C97.9712 53.316 97.2812 53.052 96.8252 52.68C96.3692 52.308 96.1412 51.648 96.1412 50.7C96.1412 49.74 96.4652 49.02 97.1132 48.54C97.7612 48.048 98.5952 47.802 99.6152 47.802C100.323 47.802 101.289 47.916 102.513 48.144L103.107 48.252L103.071 50.25ZM110.085 50.052H107.871V53.742C107.871 54.102 107.877 54.36 107.889 54.516C107.913 54.66 107.979 54.786 108.087 54.894C108.207 55.002 108.387 55.056 108.627 55.056L109.995 55.02L110.103 56.946C109.299 57.126 108.687 57.216 108.267 57.216C107.187 57.216 106.449 56.976 106.053 56.496C105.657 56.004 105.459 55.104 105.459 53.796V50.052H104.397V48H105.459V45.498H107.871V48H110.085V50.052ZM112.142 49.026C112.778 48.198 113.84 47.784 115.328 47.784C116.816 47.784 117.878 48.198 118.514 49.026C119.15 49.842 119.468 50.994 119.468 52.482C119.468 55.638 118.088 57.216 115.328 57.216C112.568 57.216 111.188 55.638 111.188 52.482C111.188 50.994 111.506 49.842 112.142 49.026ZM113.996 54.516C114.248 54.948 114.692 55.164 115.328 55.164C115.964 55.164 116.402 54.948 116.642 54.516C116.894 54.084 117.02 53.406 117.02 52.482C117.02 51.558 116.894 50.886 116.642 50.466C116.402 50.046 115.964 49.836 115.328 49.836C114.692 49.836 114.248 50.046 113.996 50.466C113.756 50.886 113.636 51.558 113.636 52.482C113.636 53.406 113.756 54.084 113.996 54.516ZM127.171 53.526C127.183 54.078 127.327 54.48 127.603 54.732C127.891 54.972 128.299 55.092 128.827 55.092C129.943 55.092 130.939 55.056 131.815 54.984L132.319 54.93L132.355 56.712C130.975 57.048 129.727 57.216 128.611 57.216C127.255 57.216 126.271 56.856 125.659 56.136C125.047 55.416 124.741 54.246 124.741 52.626C124.741 49.398 126.067 47.784 128.719 47.784C131.335 47.784 132.643 49.14 132.643 51.852L132.463 53.526H127.171ZM130.267 51.69C130.267 50.97 130.153 50.472 129.925 50.196C129.697 49.908 129.295 49.764 128.719 49.764C128.155 49.764 127.753 49.914 127.513 50.214C127.285 50.502 127.165 50.994 127.153 51.69H130.267ZM126.775 43.446L131.311 45.282L130.771 46.848L126.055 45.516L126.775 43.446ZM143.632 48H146.044V57H143.65V56.496C142.786 56.976 142.036 57.216 141.4 57.216C140.152 57.216 139.312 56.874 138.88 56.19C138.448 55.494 138.232 54.336 138.232 52.716V48H140.644V52.752C140.644 53.64 140.716 54.246 140.86 54.57C141.004 54.894 141.352 55.056 141.904 55.056C142.432 55.056 142.93 54.972 143.398 54.804L143.632 54.732V48ZM150.683 57H148.271V48H150.665V48.504C151.481 48.024 152.231 47.784 152.915 47.784C154.115 47.784 154.943 48.138 155.399 48.846C155.855 49.554 156.083 50.646 156.083 52.122V57H153.671V52.194C153.671 51.426 153.581 50.862 153.401 50.502C153.221 50.13 152.861 49.944 152.321 49.944C151.829 49.944 151.355 50.028 150.899 50.196L150.683 50.268V57ZM167.162 50.052H164.948V53.742C164.948 54.102 164.954 54.36 164.966 54.516C164.99 54.66 165.056 54.786 165.164 54.894C165.284 55.002 165.464 55.056 165.704 55.056L167.072 55.02L167.18 56.946C166.376 57.126 165.764 57.216 165.344 57.216C164.264 57.216 163.526 56.976 163.13 56.496C162.734 56.004 162.536 55.104 162.536 53.796V50.052H161.474V48H162.536V45.498H164.948V48H167.162V50.052ZM170.712 53.526C170.724 54.078 170.868 54.48 171.144 54.732C171.432 54.972 171.84 55.092 172.368 55.092C173.484 55.092 174.48 55.056 175.356 54.984L175.86 54.93L175.896 56.712C174.516 57.048 173.268 57.216 172.152 57.216C170.796 57.216 169.812 56.856 169.2 56.136C168.588 55.416 168.282 54.246 168.282 52.626C168.282 49.398 169.608 47.784 172.26 47.784C174.876 47.784 176.184 49.14 176.184 51.852L176.004 53.526H170.712ZM173.808 51.69C173.808 50.97 173.694 50.472 173.466 50.196C173.238 49.908 172.836 49.764 172.26 49.764C171.696 49.764 171.294 49.914 171.054 50.214C170.826 50.502 170.706 50.994 170.694 51.69H173.808ZM184.37 50.25C182.882 50.058 181.838 49.962 181.238 49.962C180.65 49.962 180.266 50.016 180.086 50.124C179.918 50.232 179.834 50.406 179.834 50.646C179.834 50.874 179.948 51.036 180.176 51.132C180.416 51.216 181.016 51.348 181.976 51.528C182.948 51.696 183.638 51.978 184.046 52.374C184.454 52.77 184.658 53.412 184.658 54.3C184.658 56.244 183.452 57.216 181.04 57.216C180.248 57.216 179.288 57.108 178.16 56.892L177.584 56.784L177.656 54.768C179.144 54.96 180.176 55.056 180.752 55.056C181.34 55.056 181.736 55.002 181.94 54.894C182.156 54.774 182.264 54.6 182.264 54.372C182.264 54.144 182.15 53.976 181.922 53.868C181.706 53.76 181.13 53.628 180.194 53.472C179.27 53.316 178.58 53.052 178.124 52.68C177.668 52.308 177.44 51.648 177.44 50.7C177.44 49.74 177.764 49.02 178.412 48.54C179.06 48.048 179.894 47.802 180.914 47.802C181.622 47.802 182.588 47.916 183.812 48.144L184.406 48.252L184.37 50.25ZM191.384 50.052H189.17V53.742C189.17 54.102 189.176 54.36 189.188 54.516C189.212 54.66 189.278 54.786 189.386 54.894C189.506 55.002 189.686 55.056 189.926 55.056L191.294 55.02L191.402 56.946C190.598 57.126 189.986 57.216 189.566 57.216C188.486 57.216 187.748 56.976 187.352 56.496C186.956 56.004 186.758 55.104 186.758 53.796V50.052H185.696V48H186.758V45.498H189.17V48H191.384V50.052ZM193.441 49.026C194.077 48.198 195.139 47.784 196.627 47.784C198.115 47.784 199.177 48.198 199.813 49.026C200.449 49.842 200.767 50.994 200.767 52.482C200.767 55.638 199.387 57.216 196.627 57.216C193.867 57.216 192.487 55.638 192.487 52.482C192.487 50.994 192.805 49.842 193.441 49.026ZM195.295 54.516C195.547 54.948 195.991 55.164 196.627 55.164C197.263 55.164 197.701 54.948 197.941 54.516C198.193 54.084 198.319 53.406 198.319 52.482C198.319 51.558 198.193 50.886 197.941 50.466C197.701 50.046 197.263 49.836 196.627 49.836C195.991 49.836 195.547 50.046 195.295 50.466C195.055 50.886 194.935 51.558 194.935 52.482C194.935 53.406 195.055 54.084 195.295 54.516ZM88.9748 74.808V78.552C88.9988 78.84 89.0468 79.044 89.1188 79.164C89.1908 79.272 89.3408 79.35 89.5688 79.398L89.4968 81.216C88.8848 81.216 88.3928 81.174 88.0208 81.09C87.6608 81.006 87.2948 80.838 86.9228 80.586C86.0588 81.006 85.1768 81.216 84.2768 81.216C82.4168 81.216 81.4868 80.232 81.4868 78.264C81.4868 77.304 81.7448 76.626 82.2608 76.23C82.7768 75.822 83.5688 75.582 84.6368 75.51L86.5628 75.366V74.808C86.5628 74.436 86.4788 74.184 86.3108 74.052C86.1428 73.908 85.8728 73.836 85.5008 73.836L82.1168 73.98L82.0448 72.306C83.3288 71.958 84.5468 71.784 85.6988 71.784C86.8628 71.784 87.6968 72.024 88.2008 72.504C88.7168 72.984 88.9748 73.752 88.9748 74.808ZM84.9248 77.184C84.2528 77.244 83.9168 77.604 83.9168 78.264C83.9168 78.924 84.2108 79.254 84.7988 79.254C85.2548 79.254 85.7528 79.182 86.2928 79.038L86.5628 78.966V77.04L84.9248 77.184ZM101.637 69.12V81H99.1533V71.928L96.5793 73.584L95.4453 71.73L99.3693 69.12H101.637ZM106.058 69.768C106.838 69.192 107.882 68.904 109.19 68.904C110.498 68.904 111.554 69.192 112.358 69.768C113.162 70.344 113.564 71.142 113.564 72.162C113.564 72.858 113.48 73.38 113.312 73.728C113.144 74.076 112.796 74.46 112.268 74.88C112.796 75.324 113.174 75.744 113.402 76.14C113.63 76.536 113.744 77.082 113.744 77.778C113.744 78.954 113.324 79.824 112.484 80.388C111.644 80.94 110.546 81.216 109.19 81.216C106.19 81.216 104.69 80.136 104.69 77.976C104.69 77.208 104.804 76.614 105.032 76.194C105.272 75.762 105.656 75.324 106.184 74.88C105.68 74.472 105.338 74.076 105.158 73.692C104.978 73.296 104.888 72.78 104.888 72.144C104.888 71.124 105.278 70.332 106.058 69.768ZM107.354 77.4C107.354 78.456 107.972 78.984 109.208 78.984C110.456 78.984 111.08 78.456 111.08 77.4C111.08 76.776 110.726 76.326 110.018 76.05H108.434C107.714 76.326 107.354 76.776 107.354 77.4ZM109.226 71.136C108.686 71.136 108.272 71.256 107.984 71.496C107.696 71.736 107.552 72.102 107.552 72.594C107.552 73.086 107.846 73.536 108.434 73.944H110.018C110.606 73.536 110.9 73.068 110.9 72.54C110.9 71.604 110.342 71.136 109.226 71.136ZM115.374 84.78V72H117.768V72.486C118.548 72.018 119.232 71.784 119.82 71.784C121.032 71.784 121.926 72.15 122.502 72.882C123.078 73.602 123.366 74.832 123.366 76.572C123.366 78.312 123.048 79.524 122.412 80.208C121.776 80.88 120.732 81.216 119.28 81.216C118.884 81.216 118.458 81.18 118.002 81.108L117.786 81.072V84.78H115.374ZM119.352 73.944C118.908 73.944 118.458 74.034 118.002 74.214L117.786 74.304V79.02C118.326 79.092 118.764 79.128 119.1 79.128C119.796 79.128 120.27 78.924 120.522 78.516C120.786 78.108 120.918 77.412 120.918 76.428C120.918 74.772 120.396 73.944 119.352 73.944ZM124.16 72H126.734L128.174 74.79L129.632 72H132.206L129.65 76.41L132.206 81H129.632L128.174 78.246L126.734 81H124.16L126.626 76.482L124.16 72ZM137.505 81V72H139.917V81H137.505ZM137.505 70.848V68.4H139.917V70.848H137.505ZM144.557 81H142.145V72H144.539V72.504C145.355 72.024 146.105 71.784 146.789 71.784C147.989 71.784 148.817 72.138 149.273 72.846C149.729 73.554 149.957 74.646 149.957 76.122V81H147.545V76.194C147.545 75.426 147.455 74.862 147.275 74.502C147.095 74.13 146.735 73.944 146.195 73.944C145.703 73.944 145.229 74.028 144.773 74.196L144.557 74.268V81ZM160.406 71.784C161.666 71.784 162.584 72.132 163.16 72.828C163.748 73.512 164.042 74.742 164.042 76.518C164.042 78.294 163.706 79.524 163.034 80.208C162.362 80.88 161.204 81.216 159.56 81.216C159.044 81.216 158.102 81.156 156.734 81.036L156.05 80.964V68.4H158.462V72.27C159.23 71.946 159.878 71.784 160.406 71.784ZM159.56 79.056C160.364 79.056 160.904 78.864 161.18 78.48C161.456 78.084 161.594 77.382 161.594 76.374C161.594 74.754 161.09 73.944 160.082 73.944C159.602 73.944 159.146 74.004 158.714 74.124L158.462 74.178V78.984C159.014 79.032 159.38 79.056 159.56 79.056ZM166.327 73.026C166.963 72.198 168.025 71.784 169.513 71.784C171.001 71.784 172.063 72.198 172.699 73.026C173.335 73.842 173.653 74.994 173.653 76.482C173.653 79.638 172.273 81.216 169.513 81.216C166.753 81.216 165.373 79.638 165.373 76.482C165.373 74.994 165.691 73.842 166.327 73.026ZM168.181 78.516C168.433 78.948 168.877 79.164 169.513 79.164C170.149 79.164 170.587 78.948 170.827 78.516C171.079 78.084 171.205 77.406 171.205 76.482C171.205 75.558 171.079 74.886 170.827 74.466C170.587 74.046 170.149 73.836 169.513 73.836C168.877 73.836 168.433 74.046 168.181 74.466C167.941 74.886 167.821 75.558 167.821 76.482C167.821 77.406 167.941 78.084 168.181 78.516ZM175.529 81V68.4H177.941V81H175.529ZM187.922 68.4V81H185.528V80.622C184.688 81.018 183.962 81.216 183.35 81.216C182.042 81.216 181.13 80.838 180.614 80.082C180.098 79.326 179.84 78.132 179.84 76.5C179.84 74.856 180.146 73.662 180.758 72.918C181.382 72.162 182.318 71.784 183.566 71.784C183.95 71.784 184.484 71.844 185.168 71.964L185.51 72.036V68.4H187.922ZM185.258 78.84L185.51 78.786V74.052C184.85 73.932 184.262 73.872 183.746 73.872C182.774 73.872 182.288 74.736 182.288 76.464C182.288 77.4 182.396 78.066 182.612 78.462C182.828 78.858 183.182 79.056 183.674 79.056C184.178 79.056 184.706 78.984 185.258 78.84Z" fill="#6AAAEB"/>
</svg>
