<svg width="238" height="166" viewBox="0 0 238 166" fill="none" xmlns="http://www.w3.org/2000/svg">
<rect width="238" height="166" rx="4" fill="white"/>
<path d="M63.1565 73.274L58.4105 75.472L63.1565 77.712V78.818L57.3325 75.948V75.024L63.1565 72.182V73.274ZM65.3205 79V72H66.3705V79H65.3205ZM65.3205 70.418V69.2H66.3705V70.418H65.3205ZM69.433 79H68.383V72H69.419V72.49C70.119 72.07 70.8003 71.86 71.463 71.86C72.331 71.86 72.9377 72.098 73.283 72.574C73.591 72.3873 73.9877 72.224 74.473 72.084C74.9677 71.9347 75.4017 71.86 75.775 71.86C76.7083 71.86 77.3337 72.112 77.651 72.616C77.9777 73.1107 78.141 74.0067 78.141 75.304V79H77.091V75.332C77.091 74.3613 76.9977 73.6987 76.811 73.344C76.6243 72.98 76.2277 72.798 75.621 72.798C75.313 72.798 74.9957 72.8447 74.669 72.938C74.3423 73.022 74.0903 73.106 73.913 73.19L73.647 73.316C73.7683 73.624 73.829 74.3053 73.829 75.36V79H72.779V75.388C72.779 74.38 72.6857 73.6987 72.499 73.344C72.3217 72.98 71.925 72.798 71.309 72.798C71.0103 72.798 70.7023 72.8447 70.385 72.938C70.077 73.022 69.839 73.106 69.671 73.19L69.433 73.316V79ZM82.7881 82.29C81.6681 82.29 80.8841 82.136 80.4361 81.828C79.9975 81.5293 79.7781 80.9787 79.7781 80.176C79.7781 79.7933 79.8621 79.4807 80.0301 79.238C80.1981 79.0047 80.4828 78.7387 80.8841 78.44C80.6228 78.2627 80.4921 77.9407 80.4921 77.474C80.4921 77.3153 80.6088 77.0213 80.8421 76.592L80.9681 76.368C80.2308 76.032 79.8621 75.3273 79.8621 74.254C79.8621 72.658 80.7348 71.86 82.4801 71.86C82.9281 71.86 83.3435 71.9067 83.7261 72L83.9361 72.042L86.0081 71.986V72.882L84.6781 72.854C84.9861 73.162 85.1401 73.6287 85.1401 74.254C85.1401 75.1313 84.9208 75.7473 84.4821 76.102C84.0528 76.4473 83.3715 76.62 82.4381 76.62C82.1861 76.62 81.9575 76.6013 81.7521 76.564C81.5841 76.9747 81.5001 77.2407 81.5001 77.362C81.5001 77.6513 81.5888 77.8333 81.7661 77.908C81.9435 77.9733 82.4801 78.006 83.3761 78.006C84.2721 78.006 84.9161 78.146 85.3081 78.426C85.7001 78.706 85.8961 79.252 85.8961 80.064C85.8961 81.548 84.8601 82.29 82.7881 82.29ZM80.8141 80.092C80.8141 80.5867 80.9495 80.9273 81.2201 81.114C81.5001 81.31 82.0088 81.408 82.7461 81.408C83.4928 81.408 84.0248 81.3053 84.3421 81.1C84.6688 80.8947 84.8321 80.5493 84.8321 80.064C84.8321 79.588 84.7155 79.28 84.4821 79.14C84.2488 79 83.7915 78.93 83.1101 78.93L81.5981 78.86C81.2901 79.084 81.0801 79.28 80.9681 79.448C80.8655 79.616 80.8141 79.8307 80.8141 80.092ZM80.9121 74.254C80.9121 74.8047 81.0335 75.1967 81.2761 75.43C81.5281 75.6633 81.9388 75.78 82.5081 75.78C83.0775 75.78 83.4835 75.6633 83.7261 75.43C83.9688 75.1967 84.0901 74.8047 84.0901 74.254C84.0901 73.694 83.9688 73.2973 83.7261 73.064C83.4835 72.8307 83.0775 72.714 82.5081 72.714C81.9388 72.714 81.5281 72.8353 81.2761 73.078C81.0335 73.3113 80.9121 73.7033 80.9121 74.254ZM92.5517 72.798C91.5344 72.798 91.0257 73.1527 91.0257 73.862C91.0257 74.1887 91.1424 74.422 91.3757 74.562C91.609 74.6927 92.141 74.8327 92.9717 74.982C93.8024 75.122 94.3904 75.3227 94.7357 75.584C95.081 75.8453 95.2537 76.3353 95.2537 77.054C95.2537 77.7727 95.0204 78.3 94.5537 78.636C94.0964 78.972 93.4244 79.14 92.5377 79.14C91.959 79.14 91.2777 79.0747 90.4937 78.944L90.0737 78.874L90.1297 77.964C91.1937 78.1227 91.9964 78.202 92.5377 78.202C93.079 78.202 93.4897 78.118 93.7697 77.95C94.059 77.7727 94.2037 77.4833 94.2037 77.082C94.2037 76.6713 94.0824 76.396 93.8397 76.256C93.597 76.1067 93.065 75.9667 92.2437 75.836C91.4224 75.7053 90.839 75.514 90.4937 75.262C90.1484 75.01 89.9757 74.5433 89.9757 73.862C89.9757 73.1807 90.2137 72.6767 90.6897 72.35C91.175 72.0233 91.777 71.86 92.4957 71.86C93.065 71.86 93.779 71.9253 94.6377 72.056L95.0297 72.126L95.0017 73.022C93.9657 72.8727 93.149 72.798 92.5517 72.798ZM96.8615 79V72H97.8975V72.952C98.7095 72.392 99.5635 72.0233 100.46 71.846V72.91C100.068 72.9847 99.6568 73.1013 99.2275 73.26C98.8075 73.4187 98.4855 73.5587 98.2615 73.68L97.9115 73.862V79H96.8615ZM104.183 71.86C104.491 71.86 105.013 71.916 105.751 72.028L106.087 72.07L106.045 72.924C105.298 72.84 104.747 72.798 104.393 72.798C103.599 72.798 103.058 72.9893 102.769 73.372C102.489 73.7453 102.349 74.4453 102.349 75.472C102.349 76.4893 102.479 77.1987 102.741 77.6C103.011 78.0013 103.567 78.202 104.407 78.202L106.059 78.076L106.101 78.944C105.233 79.0747 104.584 79.14 104.155 79.14C103.063 79.14 102.307 78.86 101.887 78.3C101.476 77.74 101.271 76.7973 101.271 75.472C101.271 74.1373 101.495 73.204 101.943 72.672C102.391 72.1307 103.137 71.86 104.183 71.86ZM107.55 74.674V73.708H113.598V74.674H107.55ZM107.55 77.264V76.298H113.598V77.264H107.55ZM115.23 72.14L115.846 69.074H116.952L116.056 72.14H115.23ZM117.47 72.14L118.086 69.074H119.192L118.296 72.14H117.47ZM124.4 72.91H122.174V76.256C122.174 77.0587 122.23 77.586 122.342 77.838C122.463 78.09 122.743 78.216 123.182 78.216L124.428 78.132L124.498 79C123.872 79.1027 123.396 79.154 123.07 79.154C122.342 79.154 121.838 78.9767 121.558 78.622C121.278 78.2673 121.138 77.5907 121.138 76.592V72.91H120.144V72H121.138V69.858H122.174V72H124.4V72.91ZM125.682 79V72H126.718V72.952C127.53 72.392 128.384 72.0233 129.28 71.846V72.91C128.888 72.9847 128.477 73.1013 128.048 73.26C127.628 73.4187 127.306 73.5587 127.082 73.68L126.732 73.862V79H125.682ZM135.145 78.132L135.551 78.09L135.579 78.916C134.515 79.0653 133.605 79.14 132.849 79.14C131.841 79.14 131.127 78.8507 130.707 78.272C130.287 77.684 130.077 76.774 130.077 75.542C130.077 73.0873 131.052 71.86 133.003 71.86C133.946 71.86 134.65 72.126 135.117 72.658C135.584 73.1807 135.817 74.0067 135.817 75.136L135.761 75.934H131.141C131.141 76.7087 131.281 77.2827 131.561 77.656C131.841 78.0293 132.326 78.216 133.017 78.216C133.717 78.216 134.426 78.188 135.145 78.132ZM134.767 75.094C134.767 74.2353 134.627 73.6287 134.347 73.274C134.076 72.9193 133.628 72.742 133.003 72.742C132.387 72.742 131.92 72.9287 131.603 73.302C131.295 73.6753 131.136 74.2727 131.127 75.094H134.767ZM142.213 78.132L142.619 78.09L142.647 78.916C141.583 79.0653 140.673 79.14 139.917 79.14C138.909 79.14 138.195 78.8507 137.775 78.272C137.355 77.684 137.145 76.774 137.145 75.542C137.145 73.0873 138.121 71.86 140.071 71.86C141.014 71.86 141.719 72.126 142.185 72.658C142.652 73.1807 142.885 74.0067 142.885 75.136L142.829 75.934H138.209C138.209 76.7087 138.349 77.2827 138.629 77.656C138.909 78.0293 139.395 78.216 140.085 78.216C140.785 78.216 141.495 78.188 142.213 78.132ZM141.835 75.094C141.835 74.2353 141.695 73.6287 141.415 73.274C141.145 72.9193 140.697 72.742 140.071 72.742C139.455 72.742 138.989 72.9287 138.671 73.302C138.363 73.6753 138.205 74.2727 138.195 75.094H141.835ZM144.942 80.288H150.934V81.212H144.942V80.288ZM153.367 79V72H154.417V79H153.367ZM153.367 70.418V69.2H154.417V70.418H153.367ZM159.048 71.86C159.356 71.86 159.879 71.916 160.616 72.028L160.952 72.07L160.91 72.924C160.163 72.84 159.613 72.798 159.258 72.798C158.465 72.798 157.923 72.9893 157.634 73.372C157.354 73.7453 157.214 74.4453 157.214 75.472C157.214 76.4893 157.345 77.1987 157.606 77.6C157.877 78.0013 158.432 78.202 159.272 78.202L160.924 78.076L160.966 78.944C160.098 79.0747 159.449 79.14 159.02 79.14C157.928 79.14 157.172 78.86 156.752 78.3C156.341 77.74 156.136 76.7973 156.136 75.472C156.136 74.1373 156.36 73.204 156.808 72.672C157.256 72.1307 158.003 71.86 159.048 71.86ZM162.138 75.486C162.138 74.2073 162.366 73.2833 162.824 72.714C163.281 72.1447 164.051 71.86 165.133 71.86C166.226 71.86 166.996 72.1447 167.444 72.714C167.901 73.2833 168.13 74.2073 168.13 75.486C168.13 76.7647 167.915 77.6933 167.486 78.272C167.056 78.8507 166.272 79.14 165.133 79.14C163.995 79.14 163.211 78.8507 162.782 78.272C162.352 77.6933 162.138 76.7647 162.138 75.486ZM163.216 75.472C163.216 76.4893 163.337 77.2033 163.58 77.614C163.832 78.0247 164.35 78.23 165.133 78.23C165.927 78.23 166.445 78.0293 166.688 77.628C166.93 77.2173 167.052 76.4987 167.052 75.472C167.052 74.4453 166.916 73.7407 166.646 73.358C166.375 72.966 165.871 72.77 165.133 72.77C164.406 72.77 163.902 72.966 163.622 73.358C163.351 73.7407 163.216 74.4453 163.216 75.472ZM170.892 79H169.842V72H170.878V72.49C171.634 72.07 172.357 71.86 173.048 71.86C173.981 71.86 174.607 72.112 174.924 72.616C175.251 73.12 175.414 74.016 175.414 75.304V79H174.378V75.332C174.378 74.3613 174.28 73.6987 174.084 73.344C173.897 72.98 173.491 72.798 172.866 72.798C172.567 72.798 172.25 72.8447 171.914 72.938C171.587 73.022 171.335 73.106 171.158 73.19L170.892 73.316V79ZM176.986 72.14L177.602 69.074H178.708L177.812 72.14H176.986ZM179.226 72.14L179.842 69.074H180.948L180.052 72.14H179.226ZM48.4428 90H49.4928L50.9068 96.09H51.1308L52.7968 90.14H53.8888L55.5548 96.09H55.7928L57.1928 90H58.2428L56.5768 97H54.8268L53.3428 91.526L51.8588 97H50.1088L48.4428 90ZM59.6809 97V90H60.7309V97H59.6809ZM59.6809 88.418V87.2H60.7309V88.418H59.6809ZM68.1194 86.948V97H67.0834V96.524C66.3647 96.9347 65.6554 97.14 64.9554 97.14C64.582 97.14 64.2554 97.0933 63.9754 97C63.6954 96.9067 63.434 96.7387 63.1914 96.496C62.6874 95.992 62.4354 95.0633 62.4354 93.71C62.4354 92.3473 62.6594 91.3673 63.1074 90.77C63.5647 90.1633 64.316 89.86 65.3614 89.86C65.9027 89.86 66.4767 89.9207 67.0834 90.042V86.948H68.1194ZM64.0034 95.74C64.1527 95.9173 64.3114 96.0387 64.4794 96.104C64.6474 96.1693 64.862 96.202 65.1234 96.202C65.394 96.202 65.6927 96.16 66.0194 96.076C66.3554 95.9827 66.6167 95.894 66.8034 95.81L67.0834 95.684V90.938C66.486 90.826 65.9307 90.77 65.4174 90.77C64.708 90.77 64.2134 90.9987 63.9334 91.456C63.6534 91.904 63.5134 92.604 63.5134 93.556C63.5134 94.6387 63.6767 95.3667 64.0034 95.74ZM73.7795 90.91H71.5535V94.256C71.5535 95.0587 71.6095 95.586 71.7215 95.838C71.8428 96.09 72.1228 96.216 72.5615 96.216L73.8075 96.132L73.8775 97C73.2522 97.1027 72.7762 97.154 72.4495 97.154C71.7215 97.154 71.2175 96.9767 70.9375 96.622C70.6575 96.2673 70.5175 95.5907 70.5175 94.592V90.91H69.5235V90H70.5175V87.858H71.5535V90H73.7795V90.91ZM76.1117 97H75.0617V86.948H76.1117V90.392C76.8584 90.0373 77.577 89.86 78.2677 89.86C79.201 89.86 79.8264 90.112 80.1437 90.616C80.4704 91.12 80.6337 92.016 80.6337 93.304V97H79.5837V93.332C79.5837 92.3613 79.4857 91.6987 79.2897 91.344C79.103 90.98 78.7017 90.798 78.0857 90.798C77.4977 90.798 76.9284 90.9053 76.3777 91.12L76.1117 91.218V97ZM82.4692 92.674V91.708H88.5172V92.674H82.4692ZM82.4692 95.264V94.298H88.5172V95.264H82.4692ZM90.1492 90.14L90.7652 87.074H91.8712L90.9752 90.14H90.1492ZM92.3892 90.14L93.0052 87.074H94.1112L93.2152 90.14H92.3892ZM101.363 87.76V88.74H96.8686L96.6166 91.75C97.3352 91.3673 98.0586 91.176 98.7866 91.176C100.747 91.176 101.727 92.086 101.727 93.906C101.727 94.9513 101.456 95.7493 100.915 96.3C100.373 96.8507 99.6126 97.126 98.6326 97.126C97.8486 97.126 96.9806 97.0233 96.0286 96.818L95.5666 96.72L95.6926 95.866C96.7659 96.0713 97.6666 96.174 98.3946 96.174C99.1319 96.174 99.6872 95.9873 100.061 95.614C100.434 95.2313 100.621 94.6993 100.621 94.018C100.621 93.3367 100.448 92.856 100.103 92.576C99.7666 92.2867 99.2859 92.142 98.6606 92.142C98.3246 92.142 97.9699 92.1887 97.5966 92.282C97.2326 92.3753 96.9526 92.4687 96.7566 92.562L96.4626 92.702L95.7206 92.562L95.9726 87.76H101.363ZM107.559 97V95.194H103.079V94.354L105.711 87.76H106.887L104.213 94.242H107.559V91.358H108.637V94.242H109.813V95.194H108.637V97H107.559ZM111.095 90.14L111.711 87.074H112.817L111.921 90.14H111.095ZM113.335 90.14L113.951 87.074H115.057L114.161 90.14H113.335ZM120.764 97H119.714V86.948H120.764V90.392C121.511 90.0373 122.229 89.86 122.92 89.86C123.853 89.86 124.479 90.112 124.796 90.616C125.123 91.12 125.286 92.016 125.286 93.304V97H124.236V93.332C124.236 92.3613 124.138 91.6987 123.942 91.344C123.755 90.98 123.354 90.798 122.738 90.798C122.15 90.798 121.581 90.9053 121.03 91.12L120.764 91.218V97ZM131.994 96.132L132.4 96.09L132.428 96.916C131.364 97.0653 130.454 97.14 129.698 97.14C128.69 97.14 127.976 96.8507 127.556 96.272C127.136 95.684 126.926 94.774 126.926 93.542C126.926 91.0873 127.901 89.86 129.852 89.86C130.794 89.86 131.499 90.126 131.966 90.658C132.432 91.1807 132.666 92.0067 132.666 93.136L132.61 93.934H127.99C127.99 94.7087 128.13 95.2827 128.41 95.656C128.69 96.0293 129.175 96.216 129.866 96.216C130.566 96.216 131.275 96.188 131.994 96.132ZM131.616 93.094C131.616 92.2353 131.476 91.6287 131.196 91.274C130.925 90.9193 130.477 90.742 129.852 90.742C129.236 90.742 128.769 90.9287 128.452 91.302C128.144 91.6753 127.985 92.2727 127.976 93.094H131.616ZM134.302 97V90H135.352V97H134.302ZM134.302 88.418V87.2H135.352V88.418H134.302ZM140.066 100.29C138.946 100.29 138.162 100.136 137.714 99.828C137.276 99.5293 137.056 98.9787 137.056 98.176C137.056 97.7933 137.14 97.4807 137.308 97.238C137.476 97.0047 137.761 96.7387 138.162 96.44C137.901 96.2627 137.77 95.9407 137.77 95.474C137.77 95.3153 137.887 95.0213 138.12 94.592L138.246 94.368C137.509 94.032 137.14 93.3273 137.14 92.254C137.14 90.658 138.013 89.86 139.758 89.86C140.206 89.86 140.622 89.9067 141.004 90L141.214 90.042L143.286 89.986V90.882L141.956 90.854C142.264 91.162 142.418 91.6287 142.418 92.254C142.418 93.1313 142.199 93.7473 141.76 94.102C141.331 94.4473 140.65 94.62 139.716 94.62C139.464 94.62 139.236 94.6013 139.03 94.564C138.862 94.9747 138.778 95.2407 138.778 95.362C138.778 95.6513 138.867 95.8333 139.044 95.908C139.222 95.9733 139.758 96.006 140.654 96.006C141.55 96.006 142.194 96.146 142.586 96.426C142.978 96.706 143.174 97.252 143.174 98.064C143.174 99.548 142.138 100.29 140.066 100.29ZM138.092 98.092C138.092 98.5867 138.228 98.9273 138.498 99.114C138.778 99.31 139.287 99.408 140.024 99.408C140.771 99.408 141.303 99.3053 141.62 99.1C141.947 98.8947 142.11 98.5493 142.11 98.064C142.11 97.588 141.994 97.28 141.76 97.14C141.527 97 141.07 96.93 140.388 96.93L138.876 96.86C138.568 97.084 138.358 97.28 138.246 97.448C138.144 97.616 138.092 97.8307 138.092 98.092ZM138.19 92.254C138.19 92.8047 138.312 93.1967 138.554 93.43C138.806 93.6633 139.217 93.78 139.786 93.78C140.356 93.78 140.762 93.6633 141.004 93.43C141.247 93.1967 141.368 92.8047 141.368 92.254C141.368 91.694 141.247 91.2973 141.004 91.064C140.762 90.8307 140.356 90.714 139.786 90.714C139.217 90.714 138.806 90.8353 138.554 91.078C138.312 91.3113 138.19 91.7033 138.19 92.254ZM145.606 97H144.556V86.948H145.606V90.392C146.353 90.0373 147.071 89.86 147.762 89.86C148.695 89.86 149.321 90.112 149.638 90.616C149.965 91.12 150.128 92.016 150.128 93.304V97H149.078V93.332C149.078 92.3613 148.98 91.6987 148.784 91.344C148.597 90.98 148.196 90.798 147.58 90.798C146.992 90.798 146.423 90.9053 145.872 91.12L145.606 91.218V97ZM155.66 90.91H153.434V94.256C153.434 95.0587 153.49 95.586 153.602 95.838C153.724 96.09 154.004 96.216 154.442 96.216L155.688 96.132L155.758 97C155.133 97.1027 154.657 97.154 154.33 97.154C153.602 97.154 153.098 96.9767 152.818 96.622C152.538 96.2673 152.398 95.5907 152.398 94.592V90.91H151.404V90H152.398V87.858H153.434V90H155.66V90.91ZM156.831 92.674V91.708H162.879V92.674H156.831ZM156.831 95.264V94.298H162.879V95.264H156.831ZM164.511 90.14L165.127 87.074H166.233L165.337 90.14H164.511ZM166.751 90.14L167.367 87.074H168.473L167.577 90.14H166.751ZM175.724 87.76V88.74H171.23L170.978 91.75C171.697 91.3673 172.42 91.176 173.148 91.176C175.108 91.176 176.088 92.086 176.088 93.906C176.088 94.9513 175.817 95.7493 175.276 96.3C174.735 96.8507 173.974 97.126 172.994 97.126C172.21 97.126 171.342 97.0233 170.39 96.818L169.928 96.72L170.054 95.866C171.127 96.0713 172.028 96.174 172.756 96.174C173.493 96.174 174.049 95.9873 174.422 95.614C174.795 95.2313 174.982 94.6993 174.982 94.018C174.982 93.3367 174.809 92.856 174.464 92.576C174.128 92.2867 173.647 92.142 173.022 92.142C172.686 92.142 172.331 92.1887 171.958 92.282C171.594 92.3753 171.314 92.4687 171.118 92.562L170.824 92.702L170.082 92.562L170.334 87.76H175.724ZM181.92 97V95.194H177.44V94.354L180.072 87.76H181.248L178.574 94.242H181.92V91.358H182.998V94.242H184.174V95.194H182.998V97H181.92ZM185.456 90.14L186.072 87.074H187.178L186.282 90.14H185.456ZM187.696 90.14L188.312 87.074H189.418L188.522 90.14H187.696Z" fill="#334155"/>
</svg>
