<svg width="238" height="168" viewBox="0 0 238 168" fill="none" xmlns="http://www.w3.org/2000/svg">
<rect width="238" height="168" rx="4" fill="white"/>
<path d="M110.782 56.274L106.036 58.472L110.782 60.712V61.818L104.958 58.948V58.024L110.782 55.182V56.274ZM112.946 62V55H113.996V62H112.946ZM112.946 53.418V52.2H113.996V53.418H112.946ZM117.059 62H116.009V55H117.045V55.49C117.745 55.07 118.426 54.86 119.089 54.86C119.957 54.86 120.564 55.098 120.909 55.574C121.217 55.3873 121.614 55.224 122.099 55.084C122.594 54.9347 123.028 54.86 123.401 54.86C124.334 54.86 124.96 55.112 125.277 55.616C125.604 56.1107 125.767 57.0067 125.767 58.304V62H124.717V58.332C124.717 57.3613 124.624 56.6987 124.437 56.344C124.25 55.98 123.854 55.798 123.247 55.798C122.939 55.798 122.622 55.8447 122.295 55.938C121.968 56.022 121.716 56.106 121.539 56.19L121.273 56.316C121.394 56.624 121.455 57.3053 121.455 58.36V62H120.405V58.388C120.405 57.38 120.312 56.6987 120.125 56.344C119.948 55.98 119.551 55.798 118.935 55.798C118.636 55.798 118.328 55.8447 118.011 55.938C117.703 56.022 117.465 56.106 117.297 56.19L117.059 56.316V62ZM130.414 65.29C129.294 65.29 128.51 65.136 128.062 64.828C127.623 64.5293 127.404 63.9787 127.404 63.176C127.404 62.7933 127.488 62.4807 127.656 62.238C127.824 62.0047 128.109 61.7387 128.51 61.44C128.249 61.2627 128.118 60.9407 128.118 60.474C128.118 60.3153 128.235 60.0213 128.468 59.592L128.594 59.368C127.857 59.032 127.488 58.3273 127.488 57.254C127.488 55.658 128.361 54.86 130.106 54.86C130.554 54.86 130.969 54.9067 131.352 55L131.562 55.042L133.634 54.986V55.882L132.304 55.854C132.612 56.162 132.766 56.6287 132.766 57.254C132.766 58.1313 132.547 58.7473 132.108 59.102C131.679 59.4473 130.997 59.62 130.064 59.62C129.812 59.62 129.583 59.6013 129.378 59.564C129.21 59.9747 129.126 60.2407 129.126 60.362C129.126 60.6513 129.215 60.8333 129.392 60.908C129.569 60.9733 130.106 61.006 131.002 61.006C131.898 61.006 132.542 61.146 132.934 61.426C133.326 61.706 133.522 62.252 133.522 63.064C133.522 64.548 132.486 65.29 130.414 65.29ZM128.44 63.092C128.44 63.5867 128.575 63.9273 128.846 64.114C129.126 64.31 129.635 64.408 130.372 64.408C131.119 64.408 131.651 64.3053 131.968 64.1C132.295 63.8947 132.458 63.5493 132.458 63.064C132.458 62.588 132.341 62.28 132.108 62.14C131.875 62 131.417 61.93 130.736 61.93L129.224 61.86C128.916 62.084 128.706 62.28 128.594 62.448C128.491 62.616 128.44 62.8307 128.44 63.092ZM128.538 57.254C128.538 57.8047 128.659 58.1967 128.902 58.43C129.154 58.6633 129.565 58.78 130.134 58.78C130.703 58.78 131.109 58.6633 131.352 58.43C131.595 58.1967 131.716 57.8047 131.716 57.254C131.716 56.694 131.595 56.2973 131.352 56.064C131.109 55.8307 130.703 55.714 130.134 55.714C129.565 55.714 129.154 55.8353 128.902 56.078C128.659 56.3113 128.538 56.7033 128.538 57.254ZM38.3154 73.798C37.298 73.798 36.7894 74.1527 36.7894 74.862C36.7894 75.1887 36.906 75.422 37.1394 75.562C37.3727 75.6927 37.9047 75.8327 38.7354 75.982C39.566 76.122 40.154 76.3227 40.4994 76.584C40.8447 76.8453 41.0174 77.3353 41.0174 78.054C41.0174 78.7727 40.784 79.3 40.3174 79.636C39.86 79.972 39.188 80.14 38.3014 80.14C37.7227 80.14 37.0414 80.0747 36.2574 79.944L35.8374 79.874L35.8934 78.964C36.9574 79.1227 37.76 79.202 38.3014 79.202C38.8427 79.202 39.2534 79.118 39.5334 78.95C39.8227 78.7727 39.9674 78.4833 39.9674 78.082C39.9674 77.6713 39.846 77.396 39.6034 77.256C39.3607 77.1067 38.8287 76.9667 38.0074 76.836C37.186 76.7053 36.6027 76.514 36.2574 76.262C35.912 76.01 35.7394 75.5433 35.7394 74.862C35.7394 74.1807 35.9774 73.6767 36.4534 73.35C36.9387 73.0233 37.5407 72.86 38.2594 72.86C38.8287 72.86 39.5427 72.9253 40.4014 73.056L40.7934 73.126L40.7654 74.022C39.7294 73.8727 38.9127 73.798 38.3154 73.798ZM42.6252 80V73H43.6612V73.952C44.4732 73.392 45.3272 73.0233 46.2232 72.846V73.91C45.8312 73.9847 45.4205 74.1013 44.9912 74.26C44.5712 74.4187 44.2492 74.5587 44.0252 74.68L43.6752 74.862V80H42.6252ZM49.9463 72.86C50.2543 72.86 50.777 72.916 51.5143 73.028L51.8503 73.07L51.8083 73.924C51.0616 73.84 50.511 73.798 50.1563 73.798C49.363 73.798 48.8216 73.9893 48.5323 74.372C48.2523 74.7453 48.1123 75.4453 48.1123 76.472C48.1123 77.4893 48.243 78.1987 48.5043 78.6C48.775 79.0013 49.3303 79.202 50.1703 79.202L51.8223 79.076L51.8643 79.944C50.9963 80.0747 50.3476 80.14 49.9183 80.14C48.8263 80.14 48.0703 79.86 47.6503 79.3C47.2396 78.74 47.0343 77.7973 47.0343 76.472C47.0343 75.1373 47.2583 74.204 47.7063 73.672C48.1543 73.1307 48.901 72.86 49.9463 72.86ZM53.314 75.674V74.708H59.362V75.674H53.314ZM53.314 78.264V77.298H59.362V78.264H53.314ZM60.994 73.14L61.61 70.074H62.716L61.82 73.14H60.994ZM63.234 73.14L63.85 70.074H64.956L64.06 73.14H63.234ZM66.5373 80V73H67.5873V80H66.5373ZM66.5373 71.418V70.2H67.5873V71.418H66.5373ZM69.6838 80V69.948H70.7338V80H69.6838ZM72.924 80V69.948H73.974V80H72.924ZM80.4483 73H81.4983V80H80.4483V79.51C79.7483 79.93 79.0576 80.14 78.3763 80.14C77.4243 80.14 76.7896 79.8927 76.4723 79.398C76.1643 78.9033 76.0103 77.9887 76.0103 76.654V73H77.0603V76.64C77.0603 77.6573 77.1489 78.3387 77.3263 78.684C77.5036 79.0293 77.9049 79.202 78.5303 79.202C78.8383 79.202 79.1509 79.16 79.4683 79.076C79.7856 78.9827 80.0283 78.894 80.1963 78.81L80.4483 78.684V73ZM85.7158 73.798C84.6984 73.798 84.1898 74.1527 84.1898 74.862C84.1898 75.1887 84.3064 75.422 84.5398 75.562C84.7731 75.6927 85.3051 75.8327 86.1358 75.982C86.9664 76.122 87.5544 76.3227 87.8998 76.584C88.2451 76.8453 88.4178 77.3353 88.4178 78.054C88.4178 78.7727 88.1844 79.3 87.7178 79.636C87.2604 79.972 86.5884 80.14 85.7018 80.14C85.1231 80.14 84.4418 80.0747 83.6578 79.944L83.2378 79.874L83.2938 78.964C84.3578 79.1227 85.1604 79.202 85.7018 79.202C86.2431 79.202 86.6538 79.118 86.9338 78.95C87.2231 78.7727 87.3678 78.4833 87.3678 78.082C87.3678 77.6713 87.2464 77.396 87.0038 77.256C86.7611 77.1067 86.2291 76.9667 85.4078 76.836C84.5864 76.7053 84.0031 76.514 83.6578 76.262C83.3124 76.01 83.1398 75.5433 83.1398 74.862C83.1398 74.1807 83.3778 73.6767 83.8538 73.35C84.3391 73.0233 84.9411 72.86 85.6598 72.86C86.2291 72.86 86.9431 72.9253 87.8018 73.056L88.1938 73.126L88.1658 74.022C87.1298 73.8727 86.3131 73.798 85.7158 73.798ZM93.6516 73.91H91.4256V77.256C91.4256 78.0587 91.4816 78.586 91.5936 78.838C91.7149 79.09 91.9949 79.216 92.4336 79.216L93.6796 79.132L93.7496 80C93.1242 80.1027 92.6482 80.154 92.3216 80.154C91.5936 80.154 91.0896 79.9767 90.8096 79.622C90.5296 79.2673 90.3896 78.5907 90.3896 77.592V73.91H89.3956V73H90.3896V70.858H91.4256V73H93.6516V73.91ZM94.9338 80V73H95.9698V73.952C96.7818 73.392 97.6358 73.0233 98.5318 72.846V73.91C98.1398 73.9847 97.7291 74.1013 97.2998 74.26C96.8798 74.4187 96.5578 74.5587 96.3338 74.68L95.9838 74.862V80H94.9338ZM104.716 75.114V78.698C104.744 79.0433 105.014 79.2487 105.528 79.314L105.486 80.14C104.748 80.14 104.193 79.9533 103.82 79.58C102.98 79.9533 102.14 80.14 101.3 80.14C100.656 80.14 100.166 79.958 99.8296 79.594C99.4936 79.23 99.3256 78.7073 99.3256 78.026C99.3256 77.3447 99.4983 76.8453 99.8436 76.528C100.189 76.2013 100.73 76.0007 101.468 75.926L103.666 75.716V75.114C103.666 74.638 103.563 74.2973 103.358 74.092C103.152 73.8867 102.872 73.784 102.518 73.784C101.771 73.784 100.996 73.8307 100.194 73.924L99.7596 73.966L99.7176 73.168C100.744 72.9627 101.654 72.86 102.448 72.86C103.241 72.86 103.815 73.042 104.17 73.406C104.534 73.77 104.716 74.3393 104.716 75.114ZM100.404 77.97C100.404 78.8287 100.758 79.258 101.468 79.258C102.102 79.258 102.728 79.1507 103.344 78.936L103.666 78.824V76.514L101.594 76.71C101.174 76.7473 100.87 76.8687 100.684 77.074C100.497 77.2793 100.404 77.578 100.404 77.97ZM106.367 73.938V73H111.561V73.938L107.641 79.062H111.561V80H106.367V79.062L110.287 73.938H106.367ZM113.158 80V73H114.208V80H113.158ZM113.158 71.418V70.2H114.208V71.418H113.158ZM115.913 76.486C115.913 75.2073 116.142 74.2833 116.599 73.714C117.056 73.1447 117.826 72.86 118.909 72.86C120.001 72.86 120.771 73.1447 121.219 73.714C121.676 74.2833 121.905 75.2073 121.905 76.486C121.905 77.7647 121.69 78.6933 121.261 79.272C120.832 79.8507 120.048 80.14 118.909 80.14C117.77 80.14 116.986 79.8507 116.557 79.272C116.128 78.6933 115.913 77.7647 115.913 76.486ZM116.991 76.472C116.991 77.4893 117.112 78.2033 117.355 78.614C117.607 79.0247 118.125 79.23 118.909 79.23C119.702 79.23 120.22 79.0293 120.463 78.628C120.706 78.2173 120.827 77.4987 120.827 76.472C120.827 75.4453 120.692 74.7407 120.421 74.358C120.15 73.966 119.646 73.77 118.909 73.77C118.181 73.77 117.677 73.966 117.397 74.358C117.126 74.7407 116.991 75.4453 116.991 76.472ZM124.667 80H123.617V73H124.653V73.49C125.409 73.07 126.133 72.86 126.823 72.86C127.757 72.86 128.382 73.112 128.699 73.616C129.026 74.12 129.189 75.016 129.189 76.304V80H128.153V76.332C128.153 75.3613 128.055 74.6987 127.859 74.344C127.673 73.98 127.267 73.798 126.641 73.798C126.343 73.798 126.025 73.8447 125.689 73.938C125.363 74.022 125.111 74.106 124.933 74.19L124.667 74.316V80ZM135.897 79.132L136.303 79.09L136.331 79.916C135.267 80.0653 134.357 80.14 133.601 80.14C132.593 80.14 131.879 79.8507 131.459 79.272C131.039 78.684 130.829 77.774 130.829 76.542C130.829 74.0873 131.804 72.86 133.755 72.86C134.698 72.86 135.402 73.126 135.869 73.658C136.336 74.1807 136.569 75.0067 136.569 76.136L136.513 76.934H131.893C131.893 77.7087 132.033 78.2827 132.313 78.656C132.593 79.0293 133.078 79.216 133.769 79.216C134.469 79.216 135.178 79.188 135.897 79.132ZM135.519 76.094C135.519 75.2353 135.379 74.6287 135.099 74.274C134.828 73.9193 134.38 73.742 133.755 73.742C133.139 73.742 132.672 73.9287 132.355 74.302C132.047 74.6753 131.888 75.2727 131.879 76.094H135.519ZM138.625 81.288H144.617V82.212H138.625V81.288ZM150.677 73.91H148.451V77.256C148.451 78.0587 148.507 78.586 148.619 78.838C148.74 79.09 149.02 79.216 149.459 79.216L150.705 79.132L150.775 80C150.15 80.1027 149.674 80.154 149.347 80.154C148.619 80.154 148.115 79.9767 147.835 79.622C147.555 79.2673 147.415 78.5907 147.415 77.592V73.91H146.421V73H147.415V70.858H148.451V73H150.677V73.91ZM151.959 80V73H153.009V80H151.959ZM151.959 71.418V70.2H153.009V71.418H151.959ZM158.648 73.91H156.422V77.256C156.422 78.0587 156.478 78.586 156.59 78.838C156.711 79.09 156.991 79.216 157.43 79.216L158.676 79.132L158.746 80C158.12 80.1027 157.644 80.154 157.318 80.154C156.59 80.154 156.086 79.9767 155.806 79.622C155.526 79.2673 155.386 78.5907 155.386 77.592V73.91H154.392V73H155.386V70.858H156.422V73H158.648V73.91ZM159.622 76.486C159.622 75.2073 159.851 74.2833 160.308 73.714C160.765 73.1447 161.535 72.86 162.618 72.86C163.71 72.86 164.48 73.1447 164.928 73.714C165.385 74.2833 165.614 75.2073 165.614 76.486C165.614 77.7647 165.399 78.6933 164.97 79.272C164.541 79.8507 163.757 80.14 162.618 80.14C161.479 80.14 160.695 79.8507 160.266 79.272C159.837 78.6933 159.622 77.7647 159.622 76.486ZM160.7 76.472C160.7 77.4893 160.821 78.2033 161.064 78.614C161.316 79.0247 161.834 79.23 162.618 79.23C163.411 79.23 163.929 79.0293 164.172 78.628C164.415 78.2173 164.536 77.4987 164.536 76.472C164.536 75.4453 164.401 74.7407 164.13 74.358C163.859 73.966 163.355 73.77 162.618 73.77C161.89 73.77 161.386 73.966 161.106 74.358C160.835 74.7407 160.7 75.4453 160.7 76.472ZM167.41 80V69.948H168.46V80H167.41ZM170.259 76.486C170.259 75.2073 170.487 74.2833 170.945 73.714C171.402 73.1447 172.172 72.86 173.255 72.86C174.347 72.86 175.117 73.1447 175.565 73.714C176.022 74.2833 176.251 75.2073 176.251 76.486C176.251 77.7647 176.036 78.6933 175.607 79.272C175.177 79.8507 174.393 80.14 173.255 80.14C172.116 80.14 171.332 79.8507 170.903 79.272C170.473 78.6933 170.259 77.7647 170.259 76.486ZM171.337 76.472C171.337 77.4893 171.458 78.2033 171.701 78.614C171.953 79.0247 172.471 79.23 173.255 79.23C174.048 79.23 174.566 79.0293 174.809 78.628C175.051 78.2173 175.173 77.4987 175.173 76.472C175.173 75.4453 175.037 74.7407 174.767 74.358C174.496 73.966 173.992 73.77 173.255 73.77C172.527 73.77 172.023 73.966 171.743 74.358C171.472 74.7407 171.337 75.4453 171.337 76.472ZM177.893 80V78.404H179.041V80H177.893ZM180.999 79.818V73H182.035V79.832C182.035 80.6907 181.881 81.3347 181.573 81.764C181.265 82.1933 180.644 82.646 179.711 83.122L179.291 82.31C180.019 81.89 180.485 81.5307 180.691 81.232C180.896 80.9427 180.999 80.4713 180.999 79.818ZM180.999 71.418V70.2H182.035V71.418H180.999ZM184.047 83.108V73H185.083V73.504C185.792 73.0747 186.492 72.86 187.183 72.86C188.07 72.86 188.714 73.1447 189.115 73.714C189.516 74.274 189.717 75.2027 189.717 76.5C189.717 77.7973 189.479 78.7307 189.003 79.3C188.536 79.86 187.757 80.14 186.665 80.14C186.096 80.14 185.573 80.0887 185.097 79.986V83.108H184.047ZM187.029 73.798C186.749 73.798 186.446 73.8447 186.119 73.938C185.802 74.0313 185.55 74.1247 185.363 74.218L185.097 74.358V79.076C185.76 79.1787 186.264 79.23 186.609 79.23C187.365 79.23 187.892 79.0153 188.191 78.586C188.499 78.1567 188.653 77.4567 188.653 76.486C188.653 75.5153 188.513 74.8247 188.233 74.414C187.962 74.0033 187.561 73.798 187.029 73.798ZM194.132 83.29C193.012 83.29 192.228 83.136 191.78 82.828C191.341 82.5293 191.122 81.9787 191.122 81.176C191.122 80.7933 191.206 80.4807 191.374 80.238C191.542 80.0047 191.827 79.7387 192.228 79.44C191.967 79.2627 191.836 78.9407 191.836 78.474C191.836 78.3153 191.953 78.0213 192.186 77.592L192.312 77.368C191.575 77.032 191.206 76.3273 191.206 75.254C191.206 73.658 192.079 72.86 193.824 72.86C194.272 72.86 194.687 72.9067 195.07 73L195.28 73.042L197.352 72.986V73.882L196.022 73.854C196.33 74.162 196.484 74.6287 196.484 75.254C196.484 76.1313 196.265 76.7473 195.826 77.102C195.397 77.4473 194.715 77.62 193.782 77.62C193.53 77.62 193.301 77.6013 193.096 77.564C192.928 77.9747 192.844 78.2407 192.844 78.362C192.844 78.6513 192.933 78.8333 193.11 78.908C193.287 78.9733 193.824 79.006 194.72 79.006C195.616 79.006 196.26 79.146 196.652 79.426C197.044 79.706 197.24 80.252 197.24 81.064C197.24 82.548 196.204 83.29 194.132 83.29ZM192.158 81.092C192.158 81.5867 192.293 81.9273 192.564 82.114C192.844 82.31 193.353 82.408 194.09 82.408C194.837 82.408 195.369 82.3053 195.686 82.1C196.013 81.8947 196.176 81.5493 196.176 81.064C196.176 80.588 196.059 80.28 195.826 80.14C195.593 80 195.135 79.93 194.454 79.93L192.942 79.86C192.634 80.084 192.424 80.28 192.312 80.448C192.209 80.616 192.158 80.8307 192.158 81.092ZM192.256 75.254C192.256 75.8047 192.377 76.1967 192.62 76.43C192.872 76.6633 193.283 76.78 193.852 76.78C194.421 76.78 194.827 76.6633 195.07 76.43C195.313 76.1967 195.434 75.8047 195.434 75.254C195.434 74.694 195.313 74.2973 195.07 74.064C194.827 73.8307 194.421 73.714 193.852 73.714C193.283 73.714 192.872 73.8353 192.62 74.078C192.377 74.3113 192.256 74.7033 192.256 75.254ZM198.355 73.14L198.971 70.074H200.077L199.181 73.14H198.355ZM200.595 73.14L201.211 70.074H202.317L201.421 73.14H200.595ZM40.6088 91H41.6588L43.0728 97.09H43.2968L44.9628 91.14H46.0548L47.7208 97.09H47.9588L49.3588 91H50.4088L48.7428 98H46.9928L45.5088 92.526L44.0248 98H42.2748L40.6088 91ZM51.8469 98V91H52.8969V98H51.8469ZM51.8469 89.418V88.2H52.8969V89.418H51.8469ZM60.2854 87.948V98H59.2494V97.524C58.5307 97.9347 57.8214 98.14 57.1214 98.14C56.748 98.14 56.4214 98.0933 56.1414 98C55.8614 97.9067 55.6 97.7387 55.3574 97.496C54.8534 96.992 54.6014 96.0633 54.6014 94.71C54.6014 93.3473 54.8254 92.3673 55.2734 91.77C55.7307 91.1633 56.482 90.86 57.5274 90.86C58.0687 90.86 58.6427 90.9207 59.2494 91.042V87.948H60.2854ZM56.1694 96.74C56.3187 96.9173 56.4774 97.0387 56.6454 97.104C56.8134 97.1693 57.028 97.202 57.2894 97.202C57.56 97.202 57.8587 97.16 58.1854 97.076C58.5214 96.9827 58.7827 96.894 58.9694 96.81L59.2494 96.684V91.938C58.652 91.826 58.0967 91.77 57.5834 91.77C56.874 91.77 56.3794 91.9987 56.0994 92.456C55.8194 92.904 55.6794 93.604 55.6794 94.556C55.6794 95.6387 55.8427 96.3667 56.1694 96.74ZM65.9455 91.91H63.7195V95.256C63.7195 96.0587 63.7755 96.586 63.8875 96.838C64.0089 97.09 64.2889 97.216 64.7275 97.216L65.9735 97.132L66.0435 98C65.4182 98.1027 64.9422 98.154 64.6155 98.154C63.8875 98.154 63.3835 97.9767 63.1035 97.622C62.8235 97.2673 62.6835 96.5907 62.6835 95.592V91.91H61.6895V91H62.6835V88.858H63.7195V91H65.9455V91.91ZM68.2777 98H67.2277V87.948H68.2777V91.392C69.0244 91.0373 69.7431 90.86 70.4337 90.86C71.3671 90.86 71.9924 91.112 72.3097 91.616C72.6364 92.12 72.7997 93.016 72.7997 94.304V98H71.7497V94.332C71.7497 93.3613 71.6517 92.6987 71.4557 92.344C71.2691 91.98 70.8677 91.798 70.2517 91.798C69.6637 91.798 69.0944 91.9053 68.5437 92.12L68.2777 92.218V98ZM74.6353 93.674V92.708H80.6833V93.674H74.6353ZM74.6353 96.264V95.298H80.6833V96.264H74.6353ZM82.3152 91.14L82.9312 88.074H84.0372L83.1412 91.14H82.3152ZM84.5552 91.14L85.1712 88.074H86.2772L85.3812 91.14H84.5552ZM92.2966 88.76V98H91.2186V89.964L88.8386 91.532L88.3486 90.72L91.2886 88.76H92.2966ZM101.433 89.74C100.593 89.628 99.7759 89.572 98.9826 89.572C98.1892 89.572 97.5779 89.8473 97.1486 90.398C96.7192 90.9487 96.5046 91.7373 96.5046 92.764L96.8546 92.624C97.0879 92.54 97.3959 92.4513 97.7786 92.358C98.1706 92.2647 98.5159 92.218 98.8146 92.218C100.887 92.218 101.923 93.1747 101.923 95.088C101.923 96.068 101.638 96.824 101.069 97.356C100.509 97.8787 99.7152 98.14 98.6886 98.14C96.4859 98.14 95.3846 96.5393 95.3846 93.338C95.3846 91.7233 95.6972 90.5333 96.3226 89.768C96.9572 89.0027 97.8486 88.62 98.9966 88.62C99.7526 88.62 100.471 88.676 101.153 88.788L101.531 88.858L101.433 89.74ZM98.7446 93.184C98.4272 93.184 98.0772 93.2307 97.6946 93.324C97.3212 93.408 97.0272 93.492 96.8126 93.576L96.4906 93.716C96.4999 94.78 96.6772 95.6247 97.0226 96.25C97.3772 96.8753 97.9139 97.188 98.6326 97.188C99.3512 97.188 99.8926 97.0107 100.257 96.656C100.621 96.292 100.803 95.7833 100.803 95.13C100.803 94.4673 100.621 93.9773 100.257 93.66C99.9019 93.3427 99.3979 93.184 98.7446 93.184ZM107.965 88.76V98H106.887V89.964L104.507 91.532L104.017 90.72L106.957 88.76H107.965ZM111.095 91.14L111.711 88.074H112.817L111.921 91.14H111.095ZM113.335 91.14L113.951 88.074H115.057L114.161 91.14H113.335ZM120.764 98H119.714V87.948H120.764V91.392C121.511 91.0373 122.229 90.86 122.92 90.86C123.853 90.86 124.479 91.112 124.796 91.616C125.123 92.12 125.286 93.016 125.286 94.304V98H124.236V94.332C124.236 93.3613 124.138 92.6987 123.942 92.344C123.755 91.98 123.354 91.798 122.738 91.798C122.15 91.798 121.581 91.9053 121.03 92.12L120.764 92.218V98ZM131.994 97.132L132.4 97.09L132.428 97.916C131.364 98.0653 130.454 98.14 129.698 98.14C128.69 98.14 127.976 97.8507 127.556 97.272C127.136 96.684 126.926 95.774 126.926 94.542C126.926 92.0873 127.901 90.86 129.852 90.86C130.794 90.86 131.499 91.126 131.966 91.658C132.432 92.1807 132.666 93.0067 132.666 94.136L132.61 94.934H127.99C127.99 95.7087 128.13 96.2827 128.41 96.656C128.69 97.0293 129.175 97.216 129.866 97.216C130.566 97.216 131.275 97.188 131.994 97.132ZM131.616 94.094C131.616 93.2353 131.476 92.6287 131.196 92.274C130.925 91.9193 130.477 91.742 129.852 91.742C129.236 91.742 128.769 91.9287 128.452 92.302C128.144 92.6753 127.985 93.2727 127.976 94.094H131.616ZM134.302 98V91H135.352V98H134.302ZM134.302 89.418V88.2H135.352V89.418H134.302ZM140.066 101.29C138.946 101.29 138.162 101.136 137.714 100.828C137.276 100.529 137.056 99.9787 137.056 99.176C137.056 98.7933 137.14 98.4807 137.308 98.238C137.476 98.0047 137.761 97.7387 138.162 97.44C137.901 97.2627 137.77 96.9407 137.77 96.474C137.77 96.3153 137.887 96.0213 138.12 95.592L138.246 95.368C137.509 95.032 137.14 94.3273 137.14 93.254C137.14 91.658 138.013 90.86 139.758 90.86C140.206 90.86 140.622 90.9067 141.004 91L141.214 91.042L143.286 90.986V91.882L141.956 91.854C142.264 92.162 142.418 92.6287 142.418 93.254C142.418 94.1313 142.199 94.7473 141.76 95.102C141.331 95.4473 140.65 95.62 139.716 95.62C139.464 95.62 139.236 95.6013 139.03 95.564C138.862 95.9747 138.778 96.2407 138.778 96.362C138.778 96.6513 138.867 96.8333 139.044 96.908C139.222 96.9733 139.758 97.006 140.654 97.006C141.55 97.006 142.194 97.146 142.586 97.426C142.978 97.706 143.174 98.252 143.174 99.064C143.174 100.548 142.138 101.29 140.066 101.29ZM138.092 99.092C138.092 99.5867 138.228 99.9273 138.498 100.114C138.778 100.31 139.287 100.408 140.024 100.408C140.771 100.408 141.303 100.305 141.62 100.1C141.947 99.8947 142.11 99.5493 142.11 99.064C142.11 98.588 141.994 98.28 141.76 98.14C141.527 98 141.07 97.93 140.388 97.93L138.876 97.86C138.568 98.084 138.358 98.28 138.246 98.448C138.144 98.616 138.092 98.8307 138.092 99.092ZM138.19 93.254C138.19 93.8047 138.312 94.1967 138.554 94.43C138.806 94.6633 139.217 94.78 139.786 94.78C140.356 94.78 140.762 94.6633 141.004 94.43C141.247 94.1967 141.368 93.8047 141.368 93.254C141.368 92.694 141.247 92.2973 141.004 92.064C140.762 91.8307 140.356 91.714 139.786 91.714C139.217 91.714 138.806 91.8353 138.554 92.078C138.312 92.3113 138.19 92.7033 138.19 93.254ZM145.606 98H144.556V87.948H145.606V91.392C146.353 91.0373 147.071 90.86 147.762 90.86C148.695 90.86 149.321 91.112 149.638 91.616C149.965 92.12 150.128 93.016 150.128 94.304V98H149.078V94.332C149.078 93.3613 148.98 92.6987 148.784 92.344C148.597 91.98 148.196 91.798 147.58 91.798C146.992 91.798 146.423 91.9053 145.872 92.12L145.606 92.218V98ZM155.66 91.91H153.434V95.256C153.434 96.0587 153.49 96.586 153.602 96.838C153.724 97.09 154.004 97.216 154.442 97.216L155.688 97.132L155.758 98C155.133 98.1027 154.657 98.154 154.33 98.154C153.602 98.154 153.098 97.9767 152.818 97.622C152.538 97.2673 152.398 96.5907 152.398 95.592V91.91H151.404V91H152.398V88.858H153.434V91H155.66V91.91ZM156.831 93.674V92.708H162.879V93.674H156.831ZM156.831 96.264V95.298H162.879V96.264H156.831ZM164.511 91.14L165.127 88.074H166.233L165.337 91.14H164.511ZM166.751 91.14L167.367 88.074H168.473L167.577 91.14H166.751ZM174.492 88.76V98H173.414V89.964L171.034 91.532L170.544 90.72L173.484 88.76H174.492ZM183.754 98H177.846V97.09L180.548 94.248C181.015 93.7627 181.355 93.394 181.57 93.142C181.785 92.89 181.976 92.5913 182.144 92.246C182.321 91.9007 182.41 91.5553 182.41 91.21C182.41 90.6127 182.247 90.1927 181.92 89.95C181.593 89.7073 181.085 89.586 180.394 89.586C179.787 89.586 179.111 89.6653 178.364 89.824L178 89.894L177.916 88.998C178.803 88.746 179.717 88.62 180.66 88.62C181.603 88.62 182.312 88.8207 182.788 89.222C183.273 89.614 183.516 90.2393 183.516 91.098C183.516 91.7513 183.371 92.3207 183.082 92.806C182.793 93.2913 182.293 93.8747 181.584 94.556L179.12 97.062H183.754V98ZM189.754 98V96.194H185.274V95.354L187.906 88.76H189.082L186.408 95.242H189.754V92.358H190.832V95.242H192.008V96.194H190.832V98H189.754ZM193.29 91.14L193.906 88.074H195.012L194.116 91.14H193.29ZM195.53 91.14L196.146 88.074H197.252L196.356 91.14H195.53ZM58.259 116V109H59.295V109.952C60.107 109.392 60.961 109.023 61.857 108.846V109.91C61.465 109.985 61.0543 110.101 60.625 110.26C60.205 110.419 59.883 110.559 59.659 110.68L59.309 110.862V116H58.259ZM62.6541 112.486C62.6541 111.207 62.8828 110.283 63.3401 109.714C63.7974 109.145 64.5674 108.86 65.6501 108.86C66.7421 108.86 67.5121 109.145 67.9601 109.714C68.4174 110.283 68.6461 111.207 68.6461 112.486C68.6461 113.765 68.4314 114.693 68.0021 115.272C67.5728 115.851 66.7888 116.14 65.6501 116.14C64.5114 116.14 63.7274 115.851 63.2981 115.272C62.8688 114.693 62.6541 113.765 62.6541 112.486ZM63.7321 112.472C63.7321 113.489 63.8534 114.203 64.0961 114.614C64.3481 115.025 64.8661 115.23 65.6501 115.23C66.4434 115.23 66.9614 115.029 67.2041 114.628C67.4468 114.217 67.5681 113.499 67.5681 112.472C67.5681 111.445 67.4328 110.741 67.1621 110.358C66.8914 109.966 66.3874 109.77 65.6501 109.77C64.9221 109.77 64.4181 109.966 64.1381 110.358C63.8674 110.741 63.7321 111.445 63.7321 112.472ZM70.4426 116V105.948H71.4926V116H70.4426ZM78.3588 115.132L78.7648 115.09L78.7928 115.916C77.7288 116.065 76.8188 116.14 76.0628 116.14C75.0548 116.14 74.3408 115.851 73.9208 115.272C73.5008 114.684 73.2908 113.774 73.2908 112.542C73.2908 110.087 74.2662 108.86 76.2168 108.86C77.1595 108.86 77.8642 109.126 78.3308 109.658C78.7975 110.181 79.0308 111.007 79.0308 112.136L78.9748 112.934H74.3548C74.3548 113.709 74.4948 114.283 74.7748 114.656C75.0548 115.029 75.5402 115.216 76.2308 115.216C76.9308 115.216 77.6402 115.188 78.3588 115.132ZM77.9808 112.094C77.9808 111.235 77.8408 110.629 77.5608 110.274C77.2902 109.919 76.8422 109.742 76.2168 109.742C75.6008 109.742 75.1342 109.929 74.8168 110.302C74.5088 110.675 74.3502 111.273 74.3408 112.094H77.9808ZM80.5552 111.674V110.708H86.6032V111.674H80.5552ZM80.5552 114.264V113.298H86.6032V114.264H80.5552ZM88.2352 109.14L88.8512 106.074H89.9572L89.0612 109.14H88.2352ZM90.4752 109.14L91.0912 106.074H92.1972L91.3012 109.14H90.4752ZM93.7375 119.108V109H94.7735V109.504C95.4828 109.075 96.1828 108.86 96.8735 108.86C97.7602 108.86 98.4042 109.145 98.8055 109.714C99.2068 110.274 99.4075 111.203 99.4075 112.5C99.4075 113.797 99.1695 114.731 98.6935 115.3C98.2268 115.86 97.4475 116.14 96.3555 116.14C95.7862 116.14 95.2635 116.089 94.7875 115.986V119.108H93.7375ZM96.7195 109.798C96.4395 109.798 96.1362 109.845 95.8095 109.938C95.4922 110.031 95.2402 110.125 95.0535 110.218L94.7875 110.358V115.076C95.4502 115.179 95.9542 115.23 96.2995 115.23C97.0555 115.23 97.5828 115.015 97.8815 114.586C98.1895 114.157 98.3435 113.457 98.3435 112.486C98.3435 111.515 98.2035 110.825 97.9235 110.414C97.6528 110.003 97.2515 109.798 96.7195 109.798ZM101.12 116V109H102.156V109.952C102.968 109.392 103.822 109.023 104.718 108.846V109.91C104.326 109.985 103.916 110.101 103.486 110.26C103.066 110.419 102.744 110.559 102.52 110.68L102.17 110.862V116H101.12ZM110.583 115.132L110.989 115.09L111.017 115.916C109.953 116.065 109.043 116.14 108.287 116.14C107.279 116.14 106.565 115.851 106.145 115.272C105.725 114.684 105.515 113.774 105.515 112.542C105.515 110.087 106.491 108.86 108.441 108.86C109.384 108.86 110.089 109.126 110.555 109.658C111.022 110.181 111.255 111.007 111.255 112.136L111.199 112.934H106.579C106.579 113.709 106.719 114.283 106.999 114.656C107.279 115.029 107.765 115.216 108.455 115.216C109.155 115.216 109.865 115.188 110.583 115.132ZM110.205 112.094C110.205 111.235 110.065 110.629 109.785 110.274C109.515 109.919 109.067 109.742 108.441 109.742C107.825 109.742 107.359 109.929 107.041 110.302C106.733 110.675 106.575 111.273 106.565 112.094H110.205ZM115.09 109.798C114.072 109.798 113.564 110.153 113.564 110.862C113.564 111.189 113.68 111.422 113.914 111.562C114.147 111.693 114.679 111.833 115.51 111.982C116.34 112.122 116.928 112.323 117.274 112.584C117.619 112.845 117.792 113.335 117.792 114.054C117.792 114.773 117.558 115.3 117.092 115.636C116.634 115.972 115.962 116.14 115.076 116.14C114.497 116.14 113.816 116.075 113.032 115.944L112.612 115.874L112.668 114.964C113.732 115.123 114.534 115.202 115.076 115.202C115.617 115.202 116.028 115.118 116.308 114.95C116.597 114.773 116.742 114.483 116.742 114.082C116.742 113.671 116.62 113.396 116.378 113.256C116.135 113.107 115.603 112.967 114.782 112.836C113.96 112.705 113.377 112.514 113.032 112.262C112.686 112.01 112.514 111.543 112.514 110.862C112.514 110.181 112.752 109.677 113.228 109.35C113.713 109.023 114.315 108.86 115.034 108.86C115.603 108.86 116.317 108.925 117.176 109.056L117.568 109.126L117.54 110.022C116.504 109.873 115.687 109.798 115.09 109.798ZM124.16 115.132L124.566 115.09L124.594 115.916C123.53 116.065 122.62 116.14 121.864 116.14C120.856 116.14 120.142 115.851 119.722 115.272C119.302 114.684 119.092 113.774 119.092 112.542C119.092 110.087 120.067 108.86 122.018 108.86C122.96 108.86 123.665 109.126 124.132 109.658C124.598 110.181 124.832 111.007 124.832 112.136L124.776 112.934H120.156C120.156 113.709 120.296 114.283 120.576 114.656C120.856 115.029 121.341 115.216 122.032 115.216C122.732 115.216 123.441 115.188 124.16 115.132ZM123.782 112.094C123.782 111.235 123.642 110.629 123.362 110.274C123.091 109.919 122.643 109.742 122.018 109.742C121.402 109.742 120.935 109.929 120.618 110.302C120.31 110.675 120.151 111.273 120.142 112.094H123.782ZM127.518 116H126.468V109H127.504V109.49C128.26 109.07 128.983 108.86 129.674 108.86C130.607 108.86 131.233 109.112 131.55 109.616C131.877 110.12 132.04 111.016 132.04 112.304V116H131.004V112.332C131.004 111.361 130.906 110.699 130.71 110.344C130.523 109.98 130.117 109.798 129.492 109.798C129.193 109.798 128.876 109.845 128.54 109.938C128.213 110.022 127.961 110.106 127.784 110.19L127.518 110.316V116ZM137.572 109.91H135.346V113.256C135.346 114.059 135.402 114.586 135.514 114.838C135.636 115.09 135.916 115.216 136.354 115.216L137.6 115.132L137.67 116C137.045 116.103 136.569 116.154 136.242 116.154C135.514 116.154 135.01 115.977 134.73 115.622C134.45 115.267 134.31 114.591 134.31 113.592V109.91H133.316V109H134.31V106.858H135.346V109H137.572V109.91ZM143.797 111.114V114.698C143.825 115.043 144.095 115.249 144.609 115.314L144.567 116.14C143.829 116.14 143.274 115.953 142.901 115.58C142.061 115.953 141.221 116.14 140.381 116.14C139.737 116.14 139.247 115.958 138.911 115.594C138.575 115.23 138.407 114.707 138.407 114.026C138.407 113.345 138.579 112.845 138.925 112.528C139.27 112.201 139.811 112.001 140.549 111.926L142.747 111.716V111.114C142.747 110.638 142.644 110.297 142.439 110.092C142.233 109.887 141.953 109.784 141.599 109.784C140.852 109.784 140.077 109.831 139.275 109.924L138.841 109.966L138.799 109.168C139.825 108.963 140.735 108.86 141.529 108.86C142.322 108.86 142.896 109.042 143.251 109.406C143.615 109.77 143.797 110.339 143.797 111.114ZM139.485 113.97C139.485 114.829 139.839 115.258 140.549 115.258C141.183 115.258 141.809 115.151 142.425 114.936L142.747 114.824V112.514L140.675 112.71C140.255 112.747 139.951 112.869 139.765 113.074C139.578 113.279 139.485 113.578 139.485 113.97ZM149.494 109.91H147.268V113.256C147.268 114.059 147.324 114.586 147.436 114.838C147.558 115.09 147.838 115.216 148.276 115.216L149.522 115.132L149.592 116C148.967 116.103 148.491 116.154 148.164 116.154C147.436 116.154 146.932 115.977 146.652 115.622C146.372 115.267 146.232 114.591 146.232 113.592V109.91H145.238V109H146.232V106.858H147.268V109H149.494V109.91ZM150.777 116V109H151.827V116H150.777ZM150.777 107.418V106.2H151.827V107.418H150.777ZM153.531 112.486C153.531 111.207 153.76 110.283 154.217 109.714C154.674 109.145 155.444 108.86 156.527 108.86C157.619 108.86 158.389 109.145 158.837 109.714C159.294 110.283 159.523 111.207 159.523 112.486C159.523 113.765 159.308 114.693 158.879 115.272C158.45 115.851 157.666 116.14 156.527 116.14C155.388 116.14 154.604 115.851 154.175 115.272C153.746 114.693 153.531 113.765 153.531 112.486ZM154.609 112.472C154.609 113.489 154.73 114.203 154.973 114.614C155.225 115.025 155.743 115.23 156.527 115.23C157.32 115.23 157.838 115.029 158.081 114.628C158.324 114.217 158.445 113.499 158.445 112.472C158.445 111.445 158.31 110.741 158.039 110.358C157.768 109.966 157.264 109.77 156.527 109.77C155.799 109.77 155.295 109.966 155.015 110.358C154.744 110.741 154.609 111.445 154.609 112.472ZM162.286 116H161.236V109H162.272V109.49C163.028 109.07 163.751 108.86 164.442 108.86C165.375 108.86 166 109.112 166.318 109.616C166.644 110.12 166.808 111.016 166.808 112.304V116H165.772V112.332C165.772 111.361 165.674 110.699 165.478 110.344C165.291 109.98 164.885 109.798 164.26 109.798C163.961 109.798 163.644 109.845 163.308 109.938C162.981 110.022 162.729 110.106 162.552 110.19L162.286 110.316V116ZM168.38 109.14L168.996 106.074H170.102L169.206 109.14H168.38ZM170.62 109.14L171.236 106.074H172.342L171.446 109.14H170.62ZM178.809 112.472L174.063 110.274V109.182L179.887 112.024V112.948L174.063 115.818V114.712L178.809 112.472Z" fill="#334155"/>
</svg>
