<svg width="238" height="166" viewBox="0 0 238 166" fill="none" xmlns="http://www.w3.org/2000/svg">
<rect width="238" height="166" rx="4" fill="white"/>
<path d="M84 83C84 63.67 99.67 48 119 48C138.33 48 154 63.67 154 83C154 102.33 138.33 118 119 118C99.67 118 84 102.33 84 83Z" fill="#DCEDFF"/>
<path d="M132.4 74.3655L122.8 67.6488C120.183 65.8155 116.167 65.9155 113.65 67.8655L105.3 74.3822C103.633 75.6822 102.317 78.3488 102.317 80.4488V91.9488C102.317 96.1988 105.767 99.6655 110.017 99.6655H127.983C132.233 99.6655 135.683 96.2155 135.683 91.9655V80.6655C135.683 78.4155 134.233 75.6488 132.4 74.3655ZM120.25 92.9988C120.25 93.6822 119.683 94.2488 119 94.2488C118.317 94.2488 117.75 93.6822 117.75 92.9988V87.9988C117.75 87.3155 118.317 86.7488 119 86.7488C119.683 86.7488 120.25 87.3155 120.25 87.9988V92.9988Z" fill="#003366"/>
</svg>
