<svg width="1322" height="215" viewBox="0 0 1322 215" fill="none" xmlns="http://www.w3.org/2000/svg">
<rect x="0.5" y="0.5" width="1321" height="214" fill="#0066CC" fill-opacity="0.14"/>
<rect x="0.5" y="0.5" width="1321" height="214" stroke="#CBD5E1"/>
<rect x="0.5" y="0.5" width="1321" height="214" stroke="black" stroke-opacity="0.2"/>
<rect width="1320" height="44" transform="translate(1 1)" fill="#DCEDFF"/>
<path d="M68.408 29H62.264V18.04H64.04V27.416H68.408V29ZM75.5698 23.464V27.112C75.5804 27.3467 75.6391 27.5227 75.7458 27.64C75.8631 27.7467 76.0391 27.816 76.2738 27.848L76.2258 29.176C75.3084 29.176 74.5991 28.9787 74.0978 28.584C73.2444 28.9787 72.3858 29.176 71.5218 29.176C69.9324 29.176 69.1378 28.328 69.1378 26.632C69.1378 25.8213 69.3511 25.2347 69.7778 24.872C70.2151 24.5093 70.8818 24.2907 71.7778 24.216L73.8418 24.04V23.464C73.8418 23.0373 73.7458 22.7387 73.5538 22.568C73.3724 22.3973 73.1004 22.312 72.7378 22.312C72.0551 22.312 71.2018 22.3547 70.1778 22.44L69.6658 22.472L69.6018 21.24C70.7644 20.9627 71.8311 20.824 72.8018 20.824C73.7831 20.824 74.4871 21.0373 74.9138 21.464C75.3511 21.88 75.5698 22.5467 75.5698 23.464ZM71.9858 25.448C71.2498 25.512 70.8818 25.912 70.8818 26.648C70.8818 27.384 71.2071 27.752 71.8578 27.752C72.3911 27.752 72.9564 27.6667 73.5538 27.496L73.8418 27.4V25.272L71.9858 25.448ZM81.4871 20.824C82.5858 20.824 83.3751 21.1333 83.8551 21.752C84.3458 22.36 84.5911 23.4427 84.5911 25C84.5911 26.5573 84.3031 27.6453 83.7271 28.264C83.1511 28.872 82.1378 29.176 80.6871 29.176C80.1858 29.176 79.3911 29.128 78.3031 29.032L77.7591 28.984V17.672H79.4871V21.304C80.2231 20.984 80.8898 20.824 81.4871 20.824ZM80.6871 27.624C81.5405 27.624 82.1058 27.4267 82.3831 27.032C82.6711 26.6267 82.8151 25.944 82.8151 24.984C82.8151 24.024 82.6925 23.352 82.4471 22.968C82.2125 22.5733 81.8231 22.376 81.2791 22.376C80.7671 22.376 80.2551 22.456 79.7431 22.616L79.4871 22.696V27.56C80.0738 27.6027 80.4738 27.624 80.6871 27.624ZM92.0333 27.56L92.4813 27.512L92.5133 28.808C91.2973 29.0533 90.2199 29.176 89.2812 29.176C88.0973 29.176 87.2439 28.8507 86.7213 28.2C86.2093 27.5493 85.9533 26.5093 85.9533 25.08C85.9533 22.2427 87.1106 20.824 89.4253 20.824C91.6653 20.824 92.7853 22.0453 92.7853 24.488L92.6733 25.736H87.7133C87.7239 26.3973 87.8679 26.8827 88.1453 27.192C88.4226 27.5013 88.9399 27.656 89.6973 27.656C90.4546 27.656 91.2333 27.624 92.0333 27.56ZM91.0733 24.392C91.0733 23.6027 90.9453 23.0533 90.6893 22.744C90.4439 22.424 90.0226 22.264 89.4253 22.264C88.8279 22.264 88.3906 22.4293 88.1133 22.76C87.8466 23.0907 87.7079 23.6347 87.6973 24.392H91.0733ZM94.5583 29V17.672H96.3023V29H94.5583ZM106.329 22.488H104.121V26.008C104.121 26.6587 104.169 27.0907 104.265 27.304C104.361 27.5173 104.606 27.624 105.001 27.624L106.313 27.576L106.393 28.968C105.678 29.1067 105.134 29.176 104.761 29.176C103.854 29.176 103.23 28.968 102.889 28.552C102.558 28.136 102.393 27.352 102.393 26.2V22.488H101.369V21H102.393V18.68H104.121V21H106.329V22.488ZM113.455 27.56L113.903 27.512L113.935 28.808C112.719 29.0533 111.642 29.176 110.703 29.176C109.519 29.176 108.666 28.8507 108.143 28.2C107.631 27.5493 107.375 26.5093 107.375 25.08C107.375 22.2427 108.532 20.824 110.847 20.824C113.087 20.824 114.207 22.0453 114.207 24.488L114.095 25.736H109.135C109.146 26.3973 109.29 26.8827 109.567 27.192C109.844 27.5013 110.362 27.656 111.119 27.656C111.876 27.656 112.655 27.624 113.455 27.56ZM112.495 24.392C112.495 23.6027 112.367 23.0533 112.111 22.744C111.866 22.424 111.444 22.264 110.847 22.264C110.25 22.264 109.812 22.4293 109.535 22.76C109.268 23.0907 109.13 23.6347 109.119 24.392H112.495ZM115.116 21H116.972L118.54 23.768L120.124 21H121.98L119.596 24.936L121.98 29H120.124L118.54 26.264L116.972 29H115.116L117.436 24.984L115.116 21ZM127.61 22.488H125.402V26.008C125.402 26.6587 125.45 27.0907 125.546 27.304C125.642 27.5173 125.887 27.624 126.282 27.624L127.594 27.576L127.674 28.968C126.959 29.1067 126.415 29.176 126.042 29.176C125.135 29.176 124.511 28.968 124.17 28.552C123.839 28.136 123.674 27.352 123.674 26.2V22.488H122.65V21H123.674V18.68H125.402V21H127.61V22.488Z" fill="#0066CC"/>
<path d="M61 30.76H127.978V31.24H61V30.76Z" fill="#0066CC"/>
<path d="M159.408 29H153.264V18.04H155.04V27.416H159.408V29ZM166.57 23.464V27.112C166.58 27.3467 166.639 27.5227 166.746 27.64C166.863 27.7467 167.039 27.816 167.274 27.848L167.226 29.176C166.308 29.176 165.599 28.9787 165.098 28.584C164.244 28.9787 163.386 29.176 162.522 29.176C160.932 29.176 160.138 28.328 160.138 26.632C160.138 25.8213 160.351 25.2347 160.778 24.872C161.215 24.5093 161.882 24.2907 162.778 24.216L164.842 24.04V23.464C164.842 23.0373 164.746 22.7387 164.554 22.568C164.372 22.3973 164.1 22.312 163.738 22.312C163.055 22.312 162.202 22.3547 161.178 22.44L160.666 22.472L160.602 21.24C161.764 20.9627 162.831 20.824 163.802 20.824C164.783 20.824 165.487 21.0373 165.914 21.464C166.351 21.88 166.57 22.5467 166.57 23.464ZM162.986 25.448C162.25 25.512 161.882 25.912 161.882 26.648C161.882 27.384 162.207 27.752 162.858 27.752C163.391 27.752 163.956 27.6667 164.554 27.496L164.842 27.4V25.272L162.986 25.448ZM172.487 20.824C173.586 20.824 174.375 21.1333 174.855 21.752C175.346 22.36 175.591 23.4427 175.591 25C175.591 26.5573 175.303 27.6453 174.727 28.264C174.151 28.872 173.138 29.176 171.687 29.176C171.186 29.176 170.391 29.128 169.303 29.032L168.759 28.984V17.672H170.487V21.304C171.223 20.984 171.89 20.824 172.487 20.824ZM171.687 27.624C172.54 27.624 173.106 27.4267 173.383 27.032C173.671 26.6267 173.815 25.944 173.815 24.984C173.815 24.024 173.692 23.352 173.447 22.968C173.212 22.5733 172.823 22.376 172.279 22.376C171.767 22.376 171.255 22.456 170.743 22.616L170.487 22.696V27.56C171.074 27.6027 171.474 27.624 171.687 27.624ZM183.033 27.56L183.481 27.512L183.513 28.808C182.297 29.0533 181.22 29.176 180.281 29.176C179.097 29.176 178.244 28.8507 177.721 28.2C177.209 27.5493 176.953 26.5093 176.953 25.08C176.953 22.2427 178.111 20.824 180.425 20.824C182.665 20.824 183.785 22.0453 183.785 24.488L183.673 25.736H178.713C178.724 26.3973 178.868 26.8827 179.145 27.192C179.423 27.5013 179.94 27.656 180.697 27.656C181.455 27.656 182.233 27.624 183.033 27.56ZM182.073 24.392C182.073 23.6027 181.945 23.0533 181.689 22.744C181.444 22.424 181.023 22.264 180.425 22.264C179.828 22.264 179.391 22.4293 179.113 22.76C178.847 23.0907 178.708 23.6347 178.697 24.392H182.073ZM185.558 29V17.672H187.302V29H185.558ZM197.329 22.488H195.121V26.008C195.121 26.6587 195.169 27.0907 195.265 27.304C195.361 27.5173 195.606 27.624 196.001 27.624L197.313 27.576L197.393 28.968C196.678 29.1067 196.134 29.176 195.761 29.176C194.854 29.176 194.23 28.968 193.889 28.552C193.558 28.136 193.393 27.352 193.393 26.2V22.488H192.369V21H193.393V18.68H195.121V21H197.329V22.488ZM204.455 27.56L204.903 27.512L204.935 28.808C203.719 29.0533 202.642 29.176 201.703 29.176C200.519 29.176 199.666 28.8507 199.143 28.2C198.631 27.5493 198.375 26.5093 198.375 25.08C198.375 22.2427 199.532 20.824 201.847 20.824C204.087 20.824 205.207 22.0453 205.207 24.488L205.095 25.736H200.135C200.146 26.3973 200.29 26.8827 200.567 27.192C200.844 27.5013 201.362 27.656 202.119 27.656C202.876 27.656 203.655 27.624 204.455 27.56ZM203.495 24.392C203.495 23.6027 203.367 23.0533 203.111 22.744C202.866 22.424 202.444 22.264 201.847 22.264C201.25 22.264 200.812 22.4293 200.535 22.76C200.268 23.0907 200.13 23.6347 200.119 24.392H203.495ZM206.116 21H207.972L209.54 23.768L211.124 21H212.98L210.596 24.936L212.98 29H211.124L209.54 26.264L207.972 29H206.116L208.436 24.984L206.116 21ZM218.61 22.488H216.402V26.008C216.402 26.6587 216.45 27.0907 216.546 27.304C216.642 27.5173 216.887 27.624 217.282 27.624L218.594 27.576L218.674 28.968C217.959 29.1067 217.415 29.176 217.042 29.176C216.135 29.176 215.511 28.968 215.17 28.552C214.839 28.136 214.674 27.352 214.674 26.2V22.488H213.65V21H214.674V18.68H216.402V21H218.61V22.488Z" fill="#0066CC"/>
<path d="M152 30.76H218.978V31.24H152V30.76Z" fill="#0066CC"/>
<path d="M250.408 29H244.264V18.04H246.04V27.416H250.408V29ZM257.57 23.464V27.112C257.58 27.3467 257.639 27.5227 257.746 27.64C257.863 27.7467 258.039 27.816 258.274 27.848L258.226 29.176C257.308 29.176 256.599 28.9787 256.098 28.584C255.244 28.9787 254.386 29.176 253.522 29.176C251.932 29.176 251.138 28.328 251.138 26.632C251.138 25.8213 251.351 25.2347 251.778 24.872C252.215 24.5093 252.882 24.2907 253.778 24.216L255.842 24.04V23.464C255.842 23.0373 255.746 22.7387 255.554 22.568C255.372 22.3973 255.1 22.312 254.738 22.312C254.055 22.312 253.202 22.3547 252.178 22.44L251.666 22.472L251.602 21.24C252.764 20.9627 253.831 20.824 254.802 20.824C255.783 20.824 256.487 21.0373 256.914 21.464C257.351 21.88 257.57 22.5467 257.57 23.464ZM253.986 25.448C253.25 25.512 252.882 25.912 252.882 26.648C252.882 27.384 253.207 27.752 253.858 27.752C254.391 27.752 254.956 27.6667 255.554 27.496L255.842 27.4V25.272L253.986 25.448ZM263.487 20.824C264.586 20.824 265.375 21.1333 265.855 21.752C266.346 22.36 266.591 23.4427 266.591 25C266.591 26.5573 266.303 27.6453 265.727 28.264C265.151 28.872 264.138 29.176 262.687 29.176C262.186 29.176 261.391 29.128 260.303 29.032L259.759 28.984V17.672H261.487V21.304C262.223 20.984 262.89 20.824 263.487 20.824ZM262.687 27.624C263.54 27.624 264.106 27.4267 264.383 27.032C264.671 26.6267 264.815 25.944 264.815 24.984C264.815 24.024 264.692 23.352 264.447 22.968C264.212 22.5733 263.823 22.376 263.279 22.376C262.767 22.376 262.255 22.456 261.743 22.616L261.487 22.696V27.56C262.074 27.6027 262.474 27.624 262.687 27.624ZM274.033 27.56L274.481 27.512L274.513 28.808C273.297 29.0533 272.22 29.176 271.281 29.176C270.097 29.176 269.244 28.8507 268.721 28.2C268.209 27.5493 267.953 26.5093 267.953 25.08C267.953 22.2427 269.111 20.824 271.425 20.824C273.665 20.824 274.785 22.0453 274.785 24.488L274.673 25.736H269.713C269.724 26.3973 269.868 26.8827 270.145 27.192C270.423 27.5013 270.94 27.656 271.697 27.656C272.455 27.656 273.233 27.624 274.033 27.56ZM273.073 24.392C273.073 23.6027 272.945 23.0533 272.689 22.744C272.444 22.424 272.023 22.264 271.425 22.264C270.828 22.264 270.391 22.4293 270.113 22.76C269.847 23.0907 269.708 23.6347 269.697 24.392H273.073ZM276.558 29V17.672H278.302V29H276.558ZM288.329 22.488H286.121V26.008C286.121 26.6587 286.169 27.0907 286.265 27.304C286.361 27.5173 286.606 27.624 287.001 27.624L288.313 27.576L288.393 28.968C287.678 29.1067 287.134 29.176 286.761 29.176C285.854 29.176 285.23 28.968 284.889 28.552C284.558 28.136 284.393 27.352 284.393 26.2V22.488H283.369V21H284.393V18.68H286.121V21H288.329V22.488ZM295.455 27.56L295.903 27.512L295.935 28.808C294.719 29.0533 293.642 29.176 292.703 29.176C291.519 29.176 290.666 28.8507 290.143 28.2C289.631 27.5493 289.375 26.5093 289.375 25.08C289.375 22.2427 290.532 20.824 292.847 20.824C295.087 20.824 296.207 22.0453 296.207 24.488L296.095 25.736H291.135C291.146 26.3973 291.29 26.8827 291.567 27.192C291.844 27.5013 292.362 27.656 293.119 27.656C293.876 27.656 294.655 27.624 295.455 27.56ZM294.495 24.392C294.495 23.6027 294.367 23.0533 294.111 22.744C293.866 22.424 293.444 22.264 292.847 22.264C292.25 22.264 291.812 22.4293 291.535 22.76C291.268 23.0907 291.13 23.6347 291.119 24.392H294.495ZM297.116 21H298.972L300.54 23.768L302.124 21H303.98L301.596 24.936L303.98 29H302.124L300.54 26.264L298.972 29H297.116L299.436 24.984L297.116 21ZM309.61 22.488H307.402V26.008C307.402 26.6587 307.45 27.0907 307.546 27.304C307.642 27.5173 307.887 27.624 308.282 27.624L309.594 27.576L309.674 28.968C308.959 29.1067 308.415 29.176 308.042 29.176C307.135 29.176 306.511 28.968 306.17 28.552C305.839 28.136 305.674 27.352 305.674 26.2V22.488H304.65V21H305.674V18.68H307.402V21H309.61V22.488Z" fill="#0066CC"/>
<path d="M243 30.76H309.978V31.24H243V30.76Z" fill="#0066CC"/>
<path d="M341.408 29H335.264V18.04H337.04V27.416H341.408V29ZM348.57 23.464V27.112C348.58 27.3467 348.639 27.5227 348.746 27.64C348.863 27.7467 349.039 27.816 349.274 27.848L349.226 29.176C348.308 29.176 347.599 28.9787 347.098 28.584C346.244 28.9787 345.386 29.176 344.522 29.176C342.932 29.176 342.138 28.328 342.138 26.632C342.138 25.8213 342.351 25.2347 342.778 24.872C343.215 24.5093 343.882 24.2907 344.778 24.216L346.842 24.04V23.464C346.842 23.0373 346.746 22.7387 346.554 22.568C346.372 22.3973 346.1 22.312 345.738 22.312C345.055 22.312 344.202 22.3547 343.178 22.44L342.666 22.472L342.602 21.24C343.764 20.9627 344.831 20.824 345.802 20.824C346.783 20.824 347.487 21.0373 347.914 21.464C348.351 21.88 348.57 22.5467 348.57 23.464ZM344.986 25.448C344.25 25.512 343.882 25.912 343.882 26.648C343.882 27.384 344.207 27.752 344.858 27.752C345.391 27.752 345.956 27.6667 346.554 27.496L346.842 27.4V25.272L344.986 25.448ZM354.487 20.824C355.586 20.824 356.375 21.1333 356.855 21.752C357.346 22.36 357.591 23.4427 357.591 25C357.591 26.5573 357.303 27.6453 356.727 28.264C356.151 28.872 355.138 29.176 353.687 29.176C353.186 29.176 352.391 29.128 351.303 29.032L350.759 28.984V17.672H352.487V21.304C353.223 20.984 353.89 20.824 354.487 20.824ZM353.687 27.624C354.54 27.624 355.106 27.4267 355.383 27.032C355.671 26.6267 355.815 25.944 355.815 24.984C355.815 24.024 355.692 23.352 355.447 22.968C355.212 22.5733 354.823 22.376 354.279 22.376C353.767 22.376 353.255 22.456 352.743 22.616L352.487 22.696V27.56C353.074 27.6027 353.474 27.624 353.687 27.624ZM365.033 27.56L365.481 27.512L365.513 28.808C364.297 29.0533 363.22 29.176 362.281 29.176C361.097 29.176 360.244 28.8507 359.721 28.2C359.209 27.5493 358.953 26.5093 358.953 25.08C358.953 22.2427 360.111 20.824 362.425 20.824C364.665 20.824 365.785 22.0453 365.785 24.488L365.673 25.736H360.713C360.724 26.3973 360.868 26.8827 361.145 27.192C361.423 27.5013 361.94 27.656 362.697 27.656C363.455 27.656 364.233 27.624 365.033 27.56ZM364.073 24.392C364.073 23.6027 363.945 23.0533 363.689 22.744C363.444 22.424 363.023 22.264 362.425 22.264C361.828 22.264 361.391 22.4293 361.113 22.76C360.847 23.0907 360.708 23.6347 360.697 24.392H364.073ZM367.558 29V17.672H369.302V29H367.558ZM379.329 22.488H377.121V26.008C377.121 26.6587 377.169 27.0907 377.265 27.304C377.361 27.5173 377.606 27.624 378.001 27.624L379.313 27.576L379.393 28.968C378.678 29.1067 378.134 29.176 377.761 29.176C376.854 29.176 376.23 28.968 375.889 28.552C375.558 28.136 375.393 27.352 375.393 26.2V22.488H374.369V21H375.393V18.68H377.121V21H379.329V22.488ZM386.455 27.56L386.903 27.512L386.935 28.808C385.719 29.0533 384.642 29.176 383.703 29.176C382.519 29.176 381.666 28.8507 381.143 28.2C380.631 27.5493 380.375 26.5093 380.375 25.08C380.375 22.2427 381.532 20.824 383.847 20.824C386.087 20.824 387.207 22.0453 387.207 24.488L387.095 25.736H382.135C382.146 26.3973 382.29 26.8827 382.567 27.192C382.844 27.5013 383.362 27.656 384.119 27.656C384.876 27.656 385.655 27.624 386.455 27.56ZM385.495 24.392C385.495 23.6027 385.367 23.0533 385.111 22.744C384.866 22.424 384.444 22.264 383.847 22.264C383.25 22.264 382.812 22.4293 382.535 22.76C382.268 23.0907 382.13 23.6347 382.119 24.392H385.495ZM388.116 21H389.972L391.54 23.768L393.124 21H394.98L392.596 24.936L394.98 29H393.124L391.54 26.264L389.972 29H388.116L390.436 24.984L388.116 21ZM400.61 22.488H398.402V26.008C398.402 26.6587 398.45 27.0907 398.546 27.304C398.642 27.5173 398.887 27.624 399.282 27.624L400.594 27.576L400.674 28.968C399.959 29.1067 399.415 29.176 399.042 29.176C398.135 29.176 397.511 28.968 397.17 28.552C396.839 28.136 396.674 27.352 396.674 26.2V22.488H395.65V21H396.674V18.68H398.402V21H400.61V22.488Z" fill="#0066CC"/>
<path d="M334 30.76H400.978V31.24H334V30.76Z" fill="#0066CC"/>
<path d="M432.408 29H426.264V18.04H428.04V27.416H432.408V29ZM439.57 23.464V27.112C439.58 27.3467 439.639 27.5227 439.746 27.64C439.863 27.7467 440.039 27.816 440.274 27.848L440.226 29.176C439.308 29.176 438.599 28.9787 438.098 28.584C437.244 28.9787 436.386 29.176 435.522 29.176C433.932 29.176 433.138 28.328 433.138 26.632C433.138 25.8213 433.351 25.2347 433.778 24.872C434.215 24.5093 434.882 24.2907 435.778 24.216L437.842 24.04V23.464C437.842 23.0373 437.746 22.7387 437.554 22.568C437.372 22.3973 437.1 22.312 436.738 22.312C436.055 22.312 435.202 22.3547 434.178 22.44L433.666 22.472L433.602 21.24C434.764 20.9627 435.831 20.824 436.802 20.824C437.783 20.824 438.487 21.0373 438.914 21.464C439.351 21.88 439.57 22.5467 439.57 23.464ZM435.986 25.448C435.25 25.512 434.882 25.912 434.882 26.648C434.882 27.384 435.207 27.752 435.858 27.752C436.391 27.752 436.956 27.6667 437.554 27.496L437.842 27.4V25.272L435.986 25.448ZM445.487 20.824C446.586 20.824 447.375 21.1333 447.855 21.752C448.346 22.36 448.591 23.4427 448.591 25C448.591 26.5573 448.303 27.6453 447.727 28.264C447.151 28.872 446.138 29.176 444.687 29.176C444.186 29.176 443.391 29.128 442.303 29.032L441.759 28.984V17.672H443.487V21.304C444.223 20.984 444.89 20.824 445.487 20.824ZM444.687 27.624C445.54 27.624 446.106 27.4267 446.383 27.032C446.671 26.6267 446.815 25.944 446.815 24.984C446.815 24.024 446.692 23.352 446.447 22.968C446.212 22.5733 445.823 22.376 445.279 22.376C444.767 22.376 444.255 22.456 443.743 22.616L443.487 22.696V27.56C444.074 27.6027 444.474 27.624 444.687 27.624ZM456.033 27.56L456.481 27.512L456.513 28.808C455.297 29.0533 454.22 29.176 453.281 29.176C452.097 29.176 451.244 28.8507 450.721 28.2C450.209 27.5493 449.953 26.5093 449.953 25.08C449.953 22.2427 451.111 20.824 453.425 20.824C455.665 20.824 456.785 22.0453 456.785 24.488L456.673 25.736H451.713C451.724 26.3973 451.868 26.8827 452.145 27.192C452.423 27.5013 452.94 27.656 453.697 27.656C454.455 27.656 455.233 27.624 456.033 27.56ZM455.073 24.392C455.073 23.6027 454.945 23.0533 454.689 22.744C454.444 22.424 454.023 22.264 453.425 22.264C452.828 22.264 452.391 22.4293 452.113 22.76C451.847 23.0907 451.708 23.6347 451.697 24.392H455.073ZM458.558 29V17.672H460.302V29H458.558ZM470.329 22.488H468.121V26.008C468.121 26.6587 468.169 27.0907 468.265 27.304C468.361 27.5173 468.606 27.624 469.001 27.624L470.313 27.576L470.393 28.968C469.678 29.1067 469.134 29.176 468.761 29.176C467.854 29.176 467.23 28.968 466.889 28.552C466.558 28.136 466.393 27.352 466.393 26.2V22.488H465.369V21H466.393V18.68H468.121V21H470.329V22.488ZM477.455 27.56L477.903 27.512L477.935 28.808C476.719 29.0533 475.642 29.176 474.703 29.176C473.519 29.176 472.666 28.8507 472.143 28.2C471.631 27.5493 471.375 26.5093 471.375 25.08C471.375 22.2427 472.532 20.824 474.847 20.824C477.087 20.824 478.207 22.0453 478.207 24.488L478.095 25.736H473.135C473.146 26.3973 473.29 26.8827 473.567 27.192C473.844 27.5013 474.362 27.656 475.119 27.656C475.876 27.656 476.655 27.624 477.455 27.56ZM476.495 24.392C476.495 23.6027 476.367 23.0533 476.111 22.744C475.866 22.424 475.444 22.264 474.847 22.264C474.25 22.264 473.812 22.4293 473.535 22.76C473.268 23.0907 473.13 23.6347 473.119 24.392H476.495ZM479.116 21H480.972L482.54 23.768L484.124 21H485.98L483.596 24.936L485.98 29H484.124L482.54 26.264L480.972 29H479.116L481.436 24.984L479.116 21ZM491.61 22.488H489.402V26.008C489.402 26.6587 489.45 27.0907 489.546 27.304C489.642 27.5173 489.887 27.624 490.282 27.624L491.594 27.576L491.674 28.968C490.959 29.1067 490.415 29.176 490.042 29.176C489.135 29.176 488.511 28.968 488.17 28.552C487.839 28.136 487.674 27.352 487.674 26.2V22.488H486.65V21H487.674V18.68H489.402V21H491.61V22.488Z" fill="#0066CC"/>
<path d="M425 30.76H491.978V31.24H425V30.76Z" fill="#0066CC"/>
<path d="M523.408 29H517.264V18.04H519.04V27.416H523.408V29ZM530.57 23.464V27.112C530.58 27.3467 530.639 27.5227 530.746 27.64C530.863 27.7467 531.039 27.816 531.274 27.848L531.226 29.176C530.308 29.176 529.599 28.9787 529.098 28.584C528.244 28.9787 527.386 29.176 526.522 29.176C524.932 29.176 524.138 28.328 524.138 26.632C524.138 25.8213 524.351 25.2347 524.778 24.872C525.215 24.5093 525.882 24.2907 526.778 24.216L528.842 24.04V23.464C528.842 23.0373 528.746 22.7387 528.554 22.568C528.372 22.3973 528.1 22.312 527.738 22.312C527.055 22.312 526.202 22.3547 525.178 22.44L524.666 22.472L524.602 21.24C525.764 20.9627 526.831 20.824 527.802 20.824C528.783 20.824 529.487 21.0373 529.914 21.464C530.351 21.88 530.57 22.5467 530.57 23.464ZM526.986 25.448C526.25 25.512 525.882 25.912 525.882 26.648C525.882 27.384 526.207 27.752 526.858 27.752C527.391 27.752 527.956 27.6667 528.554 27.496L528.842 27.4V25.272L526.986 25.448ZM536.487 20.824C537.586 20.824 538.375 21.1333 538.855 21.752C539.346 22.36 539.591 23.4427 539.591 25C539.591 26.5573 539.303 27.6453 538.727 28.264C538.151 28.872 537.138 29.176 535.687 29.176C535.186 29.176 534.391 29.128 533.303 29.032L532.759 28.984V17.672H534.487V21.304C535.223 20.984 535.89 20.824 536.487 20.824ZM535.687 27.624C536.54 27.624 537.106 27.4267 537.383 27.032C537.671 26.6267 537.815 25.944 537.815 24.984C537.815 24.024 537.692 23.352 537.447 22.968C537.212 22.5733 536.823 22.376 536.279 22.376C535.767 22.376 535.255 22.456 534.743 22.616L534.487 22.696V27.56C535.074 27.6027 535.474 27.624 535.687 27.624ZM547.033 27.56L547.481 27.512L547.513 28.808C546.297 29.0533 545.22 29.176 544.281 29.176C543.097 29.176 542.244 28.8507 541.721 28.2C541.209 27.5493 540.953 26.5093 540.953 25.08C540.953 22.2427 542.111 20.824 544.425 20.824C546.665 20.824 547.785 22.0453 547.785 24.488L547.673 25.736H542.713C542.724 26.3973 542.868 26.8827 543.145 27.192C543.423 27.5013 543.94 27.656 544.697 27.656C545.455 27.656 546.233 27.624 547.033 27.56ZM546.073 24.392C546.073 23.6027 545.945 23.0533 545.689 22.744C545.444 22.424 545.023 22.264 544.425 22.264C543.828 22.264 543.391 22.4293 543.113 22.76C542.847 23.0907 542.708 23.6347 542.697 24.392H546.073ZM549.558 29V17.672H551.302V29H549.558ZM561.329 22.488H559.121V26.008C559.121 26.6587 559.169 27.0907 559.265 27.304C559.361 27.5173 559.606 27.624 560.001 27.624L561.313 27.576L561.393 28.968C560.678 29.1067 560.134 29.176 559.761 29.176C558.854 29.176 558.23 28.968 557.889 28.552C557.558 28.136 557.393 27.352 557.393 26.2V22.488H556.369V21H557.393V18.68H559.121V21H561.329V22.488ZM568.455 27.56L568.903 27.512L568.935 28.808C567.719 29.0533 566.642 29.176 565.703 29.176C564.519 29.176 563.666 28.8507 563.143 28.2C562.631 27.5493 562.375 26.5093 562.375 25.08C562.375 22.2427 563.532 20.824 565.847 20.824C568.087 20.824 569.207 22.0453 569.207 24.488L569.095 25.736H564.135C564.146 26.3973 564.29 26.8827 564.567 27.192C564.844 27.5013 565.362 27.656 566.119 27.656C566.876 27.656 567.655 27.624 568.455 27.56ZM567.495 24.392C567.495 23.6027 567.367 23.0533 567.111 22.744C566.866 22.424 566.444 22.264 565.847 22.264C565.25 22.264 564.812 22.4293 564.535 22.76C564.268 23.0907 564.13 23.6347 564.119 24.392H567.495ZM570.116 21H571.972L573.54 23.768L575.124 21H576.98L574.596 24.936L576.98 29H575.124L573.54 26.264L571.972 29H570.116L572.436 24.984L570.116 21ZM582.61 22.488H580.402V26.008C580.402 26.6587 580.45 27.0907 580.546 27.304C580.642 27.5173 580.887 27.624 581.282 27.624L582.594 27.576L582.674 28.968C581.959 29.1067 581.415 29.176 581.042 29.176C580.135 29.176 579.511 28.968 579.17 28.552C578.839 28.136 578.674 27.352 578.674 26.2V22.488H577.65V21H578.674V18.68H580.402V21H582.61V22.488Z" fill="#0066CC"/>
<path d="M516 30.76H582.978V31.24H516V30.76Z" fill="#0066CC"/>
<path d="M614.408 29H608.264V18.04H610.04V27.416H614.408V29ZM621.57 23.464V27.112C621.58 27.3467 621.639 27.5227 621.746 27.64C621.863 27.7467 622.039 27.816 622.274 27.848L622.226 29.176C621.308 29.176 620.599 28.9787 620.098 28.584C619.244 28.9787 618.386 29.176 617.522 29.176C615.932 29.176 615.138 28.328 615.138 26.632C615.138 25.8213 615.351 25.2347 615.778 24.872C616.215 24.5093 616.882 24.2907 617.778 24.216L619.842 24.04V23.464C619.842 23.0373 619.746 22.7387 619.554 22.568C619.372 22.3973 619.1 22.312 618.738 22.312C618.055 22.312 617.202 22.3547 616.178 22.44L615.666 22.472L615.602 21.24C616.764 20.9627 617.831 20.824 618.802 20.824C619.783 20.824 620.487 21.0373 620.914 21.464C621.351 21.88 621.57 22.5467 621.57 23.464ZM617.986 25.448C617.25 25.512 616.882 25.912 616.882 26.648C616.882 27.384 617.207 27.752 617.858 27.752C618.391 27.752 618.956 27.6667 619.554 27.496L619.842 27.4V25.272L617.986 25.448ZM627.487 20.824C628.586 20.824 629.375 21.1333 629.855 21.752C630.346 22.36 630.591 23.4427 630.591 25C630.591 26.5573 630.303 27.6453 629.727 28.264C629.151 28.872 628.138 29.176 626.687 29.176C626.186 29.176 625.391 29.128 624.303 29.032L623.759 28.984V17.672H625.487V21.304C626.223 20.984 626.89 20.824 627.487 20.824ZM626.687 27.624C627.54 27.624 628.106 27.4267 628.383 27.032C628.671 26.6267 628.815 25.944 628.815 24.984C628.815 24.024 628.692 23.352 628.447 22.968C628.212 22.5733 627.823 22.376 627.279 22.376C626.767 22.376 626.255 22.456 625.743 22.616L625.487 22.696V27.56C626.074 27.6027 626.474 27.624 626.687 27.624ZM638.033 27.56L638.481 27.512L638.513 28.808C637.297 29.0533 636.22 29.176 635.281 29.176C634.097 29.176 633.244 28.8507 632.721 28.2C632.209 27.5493 631.953 26.5093 631.953 25.08C631.953 22.2427 633.111 20.824 635.425 20.824C637.665 20.824 638.785 22.0453 638.785 24.488L638.673 25.736H633.713C633.724 26.3973 633.868 26.8827 634.145 27.192C634.423 27.5013 634.94 27.656 635.697 27.656C636.455 27.656 637.233 27.624 638.033 27.56ZM637.073 24.392C637.073 23.6027 636.945 23.0533 636.689 22.744C636.444 22.424 636.023 22.264 635.425 22.264C634.828 22.264 634.391 22.4293 634.113 22.76C633.847 23.0907 633.708 23.6347 633.697 24.392H637.073ZM640.558 29V17.672H642.302V29H640.558ZM652.329 22.488H650.121V26.008C650.121 26.6587 650.169 27.0907 650.265 27.304C650.361 27.5173 650.606 27.624 651.001 27.624L652.313 27.576L652.393 28.968C651.678 29.1067 651.134 29.176 650.761 29.176C649.854 29.176 649.23 28.968 648.889 28.552C648.558 28.136 648.393 27.352 648.393 26.2V22.488H647.369V21H648.393V18.68H650.121V21H652.329V22.488ZM659.455 27.56L659.903 27.512L659.935 28.808C658.719 29.0533 657.642 29.176 656.703 29.176C655.519 29.176 654.666 28.8507 654.143 28.2C653.631 27.5493 653.375 26.5093 653.375 25.08C653.375 22.2427 654.532 20.824 656.847 20.824C659.087 20.824 660.207 22.0453 660.207 24.488L660.095 25.736H655.135C655.146 26.3973 655.29 26.8827 655.567 27.192C655.844 27.5013 656.362 27.656 657.119 27.656C657.876 27.656 658.655 27.624 659.455 27.56ZM658.495 24.392C658.495 23.6027 658.367 23.0533 658.111 22.744C657.866 22.424 657.444 22.264 656.847 22.264C656.25 22.264 655.812 22.4293 655.535 22.76C655.268 23.0907 655.13 23.6347 655.119 24.392H658.495ZM661.116 21H662.972L664.54 23.768L666.124 21H667.98L665.596 24.936L667.98 29H666.124L664.54 26.264L662.972 29H661.116L663.436 24.984L661.116 21ZM673.61 22.488H671.402V26.008C671.402 26.6587 671.45 27.0907 671.546 27.304C671.642 27.5173 671.887 27.624 672.282 27.624L673.594 27.576L673.674 28.968C672.959 29.1067 672.415 29.176 672.042 29.176C671.135 29.176 670.511 28.968 670.17 28.552C669.839 28.136 669.674 27.352 669.674 26.2V22.488H668.65V21H669.674V18.68H671.402V21H673.61V22.488Z" fill="#0066CC"/>
<path d="M607 30.76H673.978V31.24H607V30.76Z" fill="#0066CC"/>
<path d="M705.408 29H699.264V18.04H701.04V27.416H705.408V29ZM712.57 23.464V27.112C712.58 27.3467 712.639 27.5227 712.746 27.64C712.863 27.7467 713.039 27.816 713.274 27.848L713.226 29.176C712.308 29.176 711.599 28.9787 711.098 28.584C710.244 28.9787 709.386 29.176 708.522 29.176C706.932 29.176 706.138 28.328 706.138 26.632C706.138 25.8213 706.351 25.2347 706.778 24.872C707.215 24.5093 707.882 24.2907 708.778 24.216L710.842 24.04V23.464C710.842 23.0373 710.746 22.7387 710.554 22.568C710.372 22.3973 710.1 22.312 709.738 22.312C709.055 22.312 708.202 22.3547 707.178 22.44L706.666 22.472L706.602 21.24C707.764 20.9627 708.831 20.824 709.802 20.824C710.783 20.824 711.487 21.0373 711.914 21.464C712.351 21.88 712.57 22.5467 712.57 23.464ZM708.986 25.448C708.25 25.512 707.882 25.912 707.882 26.648C707.882 27.384 708.207 27.752 708.858 27.752C709.391 27.752 709.956 27.6667 710.554 27.496L710.842 27.4V25.272L708.986 25.448ZM718.487 20.824C719.586 20.824 720.375 21.1333 720.855 21.752C721.346 22.36 721.591 23.4427 721.591 25C721.591 26.5573 721.303 27.6453 720.727 28.264C720.151 28.872 719.138 29.176 717.687 29.176C717.186 29.176 716.391 29.128 715.303 29.032L714.759 28.984V17.672H716.487V21.304C717.223 20.984 717.89 20.824 718.487 20.824ZM717.687 27.624C718.54 27.624 719.106 27.4267 719.383 27.032C719.671 26.6267 719.815 25.944 719.815 24.984C719.815 24.024 719.692 23.352 719.447 22.968C719.212 22.5733 718.823 22.376 718.279 22.376C717.767 22.376 717.255 22.456 716.743 22.616L716.487 22.696V27.56C717.074 27.6027 717.474 27.624 717.687 27.624ZM729.033 27.56L729.481 27.512L729.513 28.808C728.297 29.0533 727.22 29.176 726.281 29.176C725.097 29.176 724.244 28.8507 723.721 28.2C723.209 27.5493 722.953 26.5093 722.953 25.08C722.953 22.2427 724.111 20.824 726.425 20.824C728.665 20.824 729.785 22.0453 729.785 24.488L729.673 25.736H724.713C724.724 26.3973 724.868 26.8827 725.145 27.192C725.423 27.5013 725.94 27.656 726.697 27.656C727.455 27.656 728.233 27.624 729.033 27.56ZM728.073 24.392C728.073 23.6027 727.945 23.0533 727.689 22.744C727.444 22.424 727.023 22.264 726.425 22.264C725.828 22.264 725.391 22.4293 725.113 22.76C724.847 23.0907 724.708 23.6347 724.697 24.392H728.073ZM731.558 29V17.672H733.302V29H731.558ZM743.329 22.488H741.121V26.008C741.121 26.6587 741.169 27.0907 741.265 27.304C741.361 27.5173 741.606 27.624 742.001 27.624L743.313 27.576L743.393 28.968C742.678 29.1067 742.134 29.176 741.761 29.176C740.854 29.176 740.23 28.968 739.889 28.552C739.558 28.136 739.393 27.352 739.393 26.2V22.488H738.369V21H739.393V18.68H741.121V21H743.329V22.488ZM750.455 27.56L750.903 27.512L750.935 28.808C749.719 29.0533 748.642 29.176 747.703 29.176C746.519 29.176 745.666 28.8507 745.143 28.2C744.631 27.5493 744.375 26.5093 744.375 25.08C744.375 22.2427 745.532 20.824 747.847 20.824C750.087 20.824 751.207 22.0453 751.207 24.488L751.095 25.736H746.135C746.146 26.3973 746.29 26.8827 746.567 27.192C746.844 27.5013 747.362 27.656 748.119 27.656C748.876 27.656 749.655 27.624 750.455 27.56ZM749.495 24.392C749.495 23.6027 749.367 23.0533 749.111 22.744C748.866 22.424 748.444 22.264 747.847 22.264C747.25 22.264 746.812 22.4293 746.535 22.76C746.268 23.0907 746.13 23.6347 746.119 24.392H749.495ZM752.116 21H753.972L755.54 23.768L757.124 21H758.98L756.596 24.936L758.98 29H757.124L755.54 26.264L753.972 29H752.116L754.436 24.984L752.116 21ZM764.61 22.488H762.402V26.008C762.402 26.6587 762.45 27.0907 762.546 27.304C762.642 27.5173 762.887 27.624 763.282 27.624L764.594 27.576L764.674 28.968C763.959 29.1067 763.415 29.176 763.042 29.176C762.135 29.176 761.511 28.968 761.17 28.552C760.839 28.136 760.674 27.352 760.674 26.2V22.488H759.65V21H760.674V18.68H762.402V21H764.61V22.488Z" fill="#0066CC"/>
<path d="M698 30.76H764.978V31.24H698V30.76Z" fill="#0066CC"/>
<rect width="1320" height="96" transform="translate(1 45)" fill="white"/>
<path d="M61 73C61 70.7909 62.7909 69 65 69H237C239.209 69 241 70.7909 241 73V113C241 115.209 239.209 117 237 117H65C62.7909 117 61 115.209 61 113V73Z" fill="#F1F5F9"/>
<path d="M91.147 98H85.771V88.41H87.325V96.614H91.147V98ZM93.9175 95.97C94.2348 96.5207 94.8415 96.796 95.7375 96.796C96.6335 96.796 97.2355 96.5253 97.5435 95.984C97.8608 95.4427 98.0195 94.5373 98.0195 93.268C98.0195 91.9893 97.8562 91.0607 97.5295 90.482C97.2122 89.9033 96.6148 89.614 95.7375 89.614C94.8602 89.614 94.2582 89.9033 93.9315 90.482C93.6048 91.0607 93.4415 91.9847 93.4415 93.254C93.4415 94.514 93.6002 95.4193 93.9175 95.97ZM98.7615 96.978C98.1922 97.762 97.1842 98.154 95.7375 98.154C94.2908 98.154 93.2782 97.762 92.6995 96.978C92.1208 96.1847 91.8315 94.9433 91.8315 93.254C91.8315 91.5647 92.1208 90.3093 92.6995 89.488C93.2875 88.6667 94.3002 88.256 95.7375 88.256C97.1748 88.256 98.1828 88.6667 98.7615 89.488C99.3402 90.3 99.6295 91.5553 99.6295 93.254C99.6295 94.9527 99.3402 96.194 98.7615 96.978ZM105.345 94.332V92.96H108.075V97.832C107.823 97.8973 107.31 97.9673 106.535 98.042C105.77 98.1167 105.214 98.154 104.869 98.154C103.413 98.154 102.41 97.7527 101.859 96.95C101.308 96.1473 101.033 94.892 101.033 93.184C101.033 91.4667 101.313 90.216 101.873 89.432C102.442 88.648 103.422 88.256 104.813 88.256C105.634 88.256 106.558 88.3493 107.585 88.536L108.075 88.634L108.019 89.866C106.89 89.7167 105.877 89.642 104.981 89.642C104.085 89.642 103.469 89.894 103.133 90.398C102.806 90.902 102.643 91.8353 102.643 93.198C102.643 94.5607 102.797 95.5033 103.105 96.026C103.422 96.5393 104.057 96.796 105.009 96.796C105.69 96.796 106.199 96.754 106.535 96.67V94.332H105.345ZM111.691 95.97C112.008 96.5207 112.615 96.796 113.511 96.796C114.407 96.796 115.009 96.5253 115.317 95.984C115.634 95.4427 115.793 94.5373 115.793 93.268C115.793 91.9893 115.63 91.0607 115.303 90.482C114.986 89.9033 114.388 89.614 113.511 89.614C112.634 89.614 112.032 89.9033 111.705 90.482C111.378 91.0607 111.215 91.9847 111.215 93.254C111.215 94.514 111.374 95.4193 111.691 95.97ZM116.535 96.978C115.966 97.762 114.958 98.154 113.511 98.154C112.064 98.154 111.052 97.762 110.473 96.978C109.894 96.1847 109.605 94.9433 109.605 93.254C109.605 91.5647 109.894 90.3093 110.473 89.488C111.061 88.6667 112.074 88.256 113.511 88.256C114.948 88.256 115.956 88.6667 116.535 89.488C117.114 90.3 117.403 91.5553 117.403 93.254C117.403 94.9527 117.114 96.194 116.535 96.978ZM121.463 98L123.829 88.41H126.923L129.303 98H127.735L127.217 95.942H123.535L123.017 98H121.463ZM125.033 89.712L123.843 94.57H126.909L125.733 89.712H125.033ZM132.223 94.584V98H130.669V88.41H134.309C136.475 88.41 137.557 89.4273 137.557 91.462C137.557 92.8247 137.035 93.7487 135.989 94.234L137.571 98H135.863L134.477 94.584H132.223ZM135.961 91.476C135.961 90.328 135.411 89.754 134.309 89.754H132.223V93.24H134.337C134.897 93.24 135.308 93.0813 135.569 92.764C135.831 92.4373 135.961 92.008 135.961 91.476ZM139.324 98V88.41H145.372V89.768H140.878V92.484H144.532V93.828H140.878V96.628H145.372V98H139.324ZM146.236 98L148.602 88.41H151.696L154.076 98H152.508L151.99 95.942H148.308L147.79 98H146.236ZM149.806 89.712L148.616 94.57H151.682L150.506 89.712H149.806ZM162.033 95.018H160.073V98H158.519V88.41H162.033C164.208 88.41 165.295 89.4833 165.295 91.63C165.295 92.7313 165.02 93.5713 164.469 94.15C163.928 94.7287 163.116 95.018 162.033 95.018ZM160.073 93.674H162.019C163.139 93.674 163.699 92.9927 163.699 91.63C163.699 90.9767 163.564 90.5007 163.293 90.202C163.022 89.9033 162.598 89.754 162.019 89.754H160.073V93.674ZM168.275 94.934C168.275 96.1753 168.928 96.796 170.235 96.796C171.541 96.796 172.195 96.1753 172.195 94.934V88.41H173.763V94.906C173.763 96.0353 173.464 96.8613 172.867 97.384C172.279 97.8973 171.397 98.154 170.221 98.154C169.054 98.154 168.177 97.8973 167.589 97.384C167.001 96.8613 166.707 96.0353 166.707 94.906V88.41H168.275V94.934ZM175.896 88.41H179.536C180.516 88.41 181.249 88.6107 181.734 89.012C182.219 89.404 182.462 90.034 182.462 90.902C182.462 91.4713 182.369 91.9193 182.182 92.246C182.005 92.5727 181.72 92.8433 181.328 93.058C182.243 93.4127 182.7 94.1547 182.7 95.284C182.7 97.0947 181.683 98 179.648 98H175.896V88.41ZM179.536 93.814H177.45V96.656H179.564C180.077 96.656 180.46 96.5487 180.712 96.334C180.973 96.1193 181.104 95.7507 181.104 95.228C181.104 94.7053 180.955 94.3413 180.656 94.136C180.357 93.9213 179.984 93.814 179.536 93.814ZM179.452 89.754H177.45V92.498H179.508C180.423 92.498 180.88 92.0267 180.88 91.084C180.88 90.1973 180.404 89.754 179.452 89.754ZM184.468 88.41H188.108C189.088 88.41 189.821 88.6107 190.306 89.012C190.792 89.404 191.034 90.034 191.034 90.902C191.034 91.4713 190.941 91.9193 190.754 92.246C190.577 92.5727 190.292 92.8433 189.9 93.058C190.815 93.4127 191.272 94.1547 191.272 95.284C191.272 97.0947 190.255 98 188.22 98H184.468V88.41ZM188.108 93.814H186.022V96.656H188.136C188.65 96.656 189.032 96.5487 189.284 96.334C189.546 96.1193 189.676 95.7507 189.676 95.228C189.676 94.7053 189.527 94.3413 189.228 94.136C188.93 93.9213 188.556 93.814 188.108 93.814ZM188.024 89.754H186.022V92.498H188.08C188.995 92.498 189.452 92.0267 189.452 91.084C189.452 90.1973 188.976 89.754 188.024 89.754ZM198.417 98H193.041V88.41H194.595V96.614H198.417V98ZM199.685 98V88.41H201.239V98H199.685ZM206.665 98.154C205.265 98.154 204.313 97.7667 203.809 96.992C203.314 96.2173 203.067 94.9433 203.067 93.17C203.067 91.3967 203.319 90.1367 203.823 89.39C204.327 88.634 205.274 88.256 206.665 88.256C207.496 88.256 208.41 88.3727 209.409 88.606L209.353 89.866C208.513 89.7167 207.673 89.642 206.833 89.642C205.993 89.642 205.424 89.894 205.125 90.398C204.826 90.8927 204.677 91.8307 204.677 93.212C204.677 94.584 204.822 95.522 205.111 96.026C205.4 96.5207 205.965 96.768 206.805 96.768C207.645 96.768 208.494 96.698 209.353 96.558L209.395 97.846C208.434 98.0513 207.524 98.154 206.665 98.154ZM210.234 98L212.6 88.41H215.694L218.074 98H216.506L215.988 95.942H212.306L211.788 98H210.234ZM213.804 89.712L212.614 94.57H215.68L214.504 89.712H213.804Z" fill="#0066CC"/>
<path d="M912.5 73C912.5 71.067 914.067 69.5 916 69.5H1079C1080.93 69.5 1082.5 71.067 1082.5 73V113C1082.5 114.933 1080.93 116.5 1079 116.5H916C914.067 116.5 912.5 114.933 912.5 113V73Z" stroke="#0066CC"/>
<path d="M924.349 89.624V88.04H932.349V89.624H929.261V99H927.469V89.624H924.349ZM938.049 97.56L938.497 97.512L938.529 98.808C937.313 99.0533 936.236 99.176 935.297 99.176C934.113 99.176 933.26 98.8507 932.737 98.2C932.225 97.5493 931.969 96.5093 931.969 95.08C931.969 92.2427 933.126 90.824 935.441 90.824C937.681 90.824 938.801 92.0453 938.801 94.488L938.689 95.736H933.729C933.74 96.3973 933.884 96.8827 934.161 97.192C934.438 97.5013 934.956 97.656 935.713 97.656C936.47 97.656 937.249 97.624 938.049 97.56ZM937.089 94.392C937.089 93.6027 936.961 93.0533 936.705 92.744C936.46 92.424 936.038 92.264 935.441 92.264C934.844 92.264 934.406 92.4293 934.129 92.76C933.862 93.0907 933.724 93.6347 933.713 94.392H937.089ZM946.03 92.648C944.771 92.4773 943.859 92.392 943.294 92.392C942.729 92.392 942.334 92.4613 942.11 92.6C941.897 92.728 941.79 92.936 941.79 93.224C941.79 93.512 941.907 93.7147 942.142 93.832C942.387 93.9493 942.953 94.088 943.838 94.248C944.734 94.3973 945.369 94.6373 945.742 94.968C946.115 95.2987 946.302 95.8853 946.302 96.728C946.302 97.5707 946.03 98.1893 945.486 98.584C944.953 98.9787 944.169 99.176 943.134 99.176C942.483 99.176 941.662 99.0853 940.67 98.904L940.174 98.824L940.238 97.368C941.518 97.5387 942.441 97.624 943.006 97.624C943.571 97.624 943.971 97.5547 944.206 97.416C944.451 97.2773 944.574 97.048 944.574 96.728C944.574 96.408 944.457 96.1893 944.222 96.072C943.998 95.944 943.449 95.8107 942.574 95.672C941.71 95.5227 941.075 95.2933 940.67 94.984C940.265 94.6747 940.062 94.1093 940.062 93.288C940.062 92.4667 940.339 91.8533 940.894 91.448C941.459 91.0427 942.179 90.84 943.054 90.84C943.737 90.84 944.574 90.9253 945.566 91.096L946.062 91.192L946.03 92.648ZM952.282 92.488H950.074V96.008C950.074 96.6587 950.122 97.0907 950.218 97.304C950.314 97.5173 950.559 97.624 950.954 97.624L952.266 97.576L952.346 98.968C951.631 99.1067 951.087 99.176 950.714 99.176C949.807 99.176 949.183 98.968 948.842 98.552C948.511 98.136 948.346 97.352 948.346 96.2V92.488H947.322V91H948.346V88.68H950.074V91H952.282V92.488ZM954.144 91.864C954.699 91.1707 955.616 90.824 956.896 90.824C958.176 90.824 959.088 91.1707 959.632 91.864C960.187 92.5573 960.464 93.5973 960.464 94.984C960.464 96.3707 960.198 97.416 959.664 98.12C959.131 98.824 958.208 99.176 956.896 99.176C955.584 99.176 954.662 98.824 954.128 98.12C953.595 97.416 953.328 96.3707 953.328 94.984C953.328 93.5973 953.6 92.5573 954.144 91.864ZM955.456 97.064C955.702 97.4907 956.182 97.704 956.896 97.704C957.611 97.704 958.091 97.4907 958.336 97.064C958.582 96.6373 958.704 95.9387 958.704 94.968C958.704 93.9973 958.571 93.3093 958.304 92.904C958.048 92.4987 957.579 92.296 956.896 92.296C956.214 92.296 955.739 92.4987 955.472 92.904C955.216 93.3093 955.088 93.9973 955.088 94.968C955.088 95.9387 955.211 96.6373 955.456 97.064ZM972.24 87.672V99H970.512V98.584C969.734 98.9787 969.019 99.176 968.368 99.176C967.323 99.176 966.555 98.8613 966.064 98.232C965.584 97.6027 965.344 96.5467 965.344 95.064C965.344 93.5813 965.611 92.504 966.144 91.832C966.688 91.16 967.531 90.824 968.672 90.824C969.056 90.824 969.664 90.8933 970.496 91.032V87.672H972.24ZM970.224 97.336L970.496 97.224V92.488C969.856 92.3813 969.264 92.328 968.72 92.328C967.643 92.328 967.104 93.224 967.104 95.016C967.104 95.9973 967.227 96.68 967.472 97.064C967.728 97.4373 968.128 97.624 968.672 97.624C969.216 97.624 969.734 97.528 970.224 97.336ZM980.049 97.56L980.497 97.512L980.529 98.808C979.313 99.0533 978.236 99.176 977.297 99.176C976.113 99.176 975.26 98.8507 974.737 98.2C974.225 97.5493 973.969 96.5093 973.969 95.08C973.969 92.2427 975.126 90.824 977.441 90.824C979.681 90.824 980.801 92.0453 980.801 94.488L980.689 95.736H975.729C975.74 96.3973 975.884 96.8827 976.161 97.192C976.438 97.5013 976.956 97.656 977.713 97.656C978.47 97.656 979.249 97.624 980.049 97.56ZM979.089 94.392C979.089 93.6027 978.961 93.0533 978.705 92.744C978.46 92.424 978.038 92.264 977.441 92.264C976.844 92.264 976.406 92.4293 976.129 92.76C975.862 93.0907 975.724 93.6347 975.713 94.392H979.089ZM982.574 99V87.672H984.318V99H982.574ZM993.768 90.824C994.867 90.824 995.656 91.1333 996.136 91.752C996.627 92.36 996.872 93.4427 996.872 95C996.872 96.5573 996.584 97.6453 996.008 98.264C995.432 98.872 994.419 99.176 992.968 99.176C992.467 99.176 991.672 99.128 990.584 99.032L990.04 98.984V87.672H991.768V91.304C992.504 90.984 993.171 90.824 993.768 90.824ZM992.968 97.624C993.822 97.624 994.387 97.4267 994.664 97.032C994.952 96.6267 995.096 95.944 995.096 94.984C995.096 94.024 994.974 93.352 994.728 92.968C994.494 92.5733 994.104 92.376 993.56 92.376C993.048 92.376 992.536 92.456 992.024 92.616L991.768 92.696V97.56C992.355 97.6027 992.755 97.624 992.968 97.624ZM999.051 91.864C999.605 91.1707 1000.52 90.824 1001.8 90.824C1003.08 90.824 1003.99 91.1707 1004.54 91.864C1005.09 92.5573 1005.37 93.5973 1005.37 94.984C1005.37 96.3707 1005.1 97.416 1004.57 98.12C1004.04 98.824 1003.11 99.176 1001.8 99.176C1000.49 99.176 999.568 98.824 999.035 98.12C998.501 97.416 998.235 96.3707 998.235 94.984C998.235 93.5973 998.507 92.5573 999.051 91.864ZM1000.36 97.064C1000.61 97.4907 1001.09 97.704 1001.8 97.704C1002.52 97.704 1003 97.4907 1003.24 97.064C1003.49 96.6373 1003.61 95.9387 1003.61 94.968C1003.61 93.9973 1003.48 93.3093 1003.21 92.904C1002.95 92.4987 1002.49 92.296 1001.8 92.296C1001.12 92.296 1000.65 92.4987 1000.38 92.904C1000.12 93.3093 999.995 93.9973 999.995 94.968C999.995 95.9387 1000.12 96.6373 1000.36 97.064ZM1011.41 92.488H1009.2V96.008C1009.2 96.6587 1009.25 97.0907 1009.34 97.304C1009.44 97.5173 1009.68 97.624 1010.08 97.624L1011.39 97.576L1011.47 98.968C1010.76 99.1067 1010.21 99.176 1009.84 99.176C1008.93 99.176 1008.31 98.968 1007.97 98.552C1007.64 98.136 1007.47 97.352 1007.47 96.2V92.488H1006.45V91H1007.47V88.68H1009.2V91H1011.41V92.488ZM1017.14 92.488H1014.93V96.008C1014.93 96.6587 1014.98 97.0907 1015.08 97.304C1015.17 97.5173 1015.42 97.624 1015.81 97.624L1017.13 97.576L1017.21 98.968C1016.49 99.1067 1015.95 99.176 1015.57 99.176C1014.67 99.176 1014.04 98.968 1013.7 98.552C1013.37 98.136 1013.21 97.352 1013.21 96.2V92.488H1012.18V91H1013.21V88.68H1014.93V91H1017.14V92.488ZM1019 91.864C1019.56 91.1707 1020.48 90.824 1021.76 90.824C1023.04 90.824 1023.95 91.1707 1024.49 91.864C1025.05 92.5573 1025.32 93.5973 1025.32 94.984C1025.32 96.3707 1025.06 97.416 1024.52 98.12C1023.99 98.824 1023.07 99.176 1021.76 99.176C1020.44 99.176 1019.52 98.824 1018.99 98.12C1018.45 97.416 1018.19 96.3707 1018.19 94.984C1018.19 93.5973 1018.46 92.5573 1019 91.864ZM1020.32 97.064C1020.56 97.4907 1021.04 97.704 1021.76 97.704C1022.47 97.704 1022.95 97.4907 1023.2 97.064C1023.44 96.6373 1023.56 95.9387 1023.56 94.968C1023.56 93.9973 1023.43 93.3093 1023.16 92.904C1022.91 92.4987 1022.44 92.296 1021.76 92.296C1021.07 92.296 1020.6 92.4987 1020.33 92.904C1020.08 93.3093 1019.95 93.9973 1019.95 94.968C1019.95 95.9387 1020.07 96.6373 1020.32 97.064ZM1028.8 99H1027.06V91H1028.78V91.496C1029.56 91.048 1030.3 90.824 1030.99 90.824C1032.06 90.824 1032.78 91.128 1033.17 91.736C1033.56 92.3333 1033.76 93.3253 1033.76 94.712V99H1032.03V94.76C1032.03 93.896 1031.94 93.2827 1031.74 92.92C1031.56 92.5573 1031.18 92.376 1030.61 92.376C1030.06 92.376 1029.54 92.4827 1029.04 92.696L1028.8 92.792V99ZM1041.49 97.56L1041.93 97.512L1041.97 98.808C1040.75 99.0533 1039.67 99.176 1038.73 99.176C1037.55 99.176 1036.7 98.8507 1036.17 98.2C1035.66 97.5493 1035.41 96.5093 1035.41 95.08C1035.41 92.2427 1036.56 90.824 1038.88 90.824C1041.12 90.824 1042.24 92.0453 1042.24 94.488L1042.13 95.736H1037.17C1037.18 96.3973 1037.32 96.8827 1037.6 97.192C1037.88 97.5013 1038.39 97.656 1039.15 97.656C1039.91 97.656 1040.69 97.624 1041.49 97.56ZM1040.53 94.392C1040.53 93.6027 1040.4 93.0533 1040.14 92.744C1039.9 92.424 1039.48 92.264 1038.88 92.264C1038.28 92.264 1037.84 92.4293 1037.57 92.76C1037.3 93.0907 1037.16 93.6347 1037.15 94.392H1040.53Z" fill="#0066CC"/>
<path d="M1061.83 92.1654L1068.67 85.332" stroke="#0066CC" stroke-width="1.5" stroke-linecap="round" stroke-linejoin="round"/>
<path d="M1069.33 88.668V84.668H1065.33" fill="#0066CC"/>
<path d="M1069.33 88.668V84.668H1065.33" stroke="#0066CC" stroke-width="1.5" stroke-linecap="round" stroke-linejoin="round"/>
<path d="M1060.17 84.668H1058.5C1054.33 84.668 1052.67 86.3346 1052.67 90.5013V95.5013C1052.67 99.668 1054.33 101.335 1058.5 101.335H1063.5C1067.67 101.335 1069.33 99.668 1069.33 95.5013V93.8346" stroke="#0066CC" stroke-width="1.5" stroke-linecap="round" stroke-linejoin="round"/>
<rect x="1095" y="117" width="48" height="1" rx="0.5" transform="rotate(-90 1095 117)" fill="#CBD5E1"/>
<path d="M1108 73C1108 70.7909 1109.79 69 1112 69H1201C1203.21 69 1205 70.7909 1205 73V113C1205 115.209 1203.21 117 1201 117H1112C1109.79 117 1108 115.209 1108 113V73Z" fill="#0066CC"/>
<path d="M1130 93.0013C1132.3 93.0013 1134.17 91.1358 1134.17 88.8346C1134.17 86.5334 1132.3 84.668 1130 84.668C1127.7 84.668 1125.83 86.5334 1125.83 88.8346C1125.83 91.1358 1127.7 93.0013 1130 93.0013Z" fill="white"/>
<path d="M1130 95.082C1125.82 95.082 1122.42 97.882 1122.42 101.332C1122.42 101.565 1122.61 101.749 1122.84 101.749H1137.16C1137.39 101.749 1137.57 101.565 1137.57 101.332C1137.57 97.882 1134.17 95.082 1130 95.082Z" fill="white"/>
<path d="M1148.76 99L1151.46 88.04H1155L1157.72 99H1155.93L1155.33 96.648H1151.13L1150.53 99H1148.76ZM1152.84 89.528L1151.48 95.08H1154.98L1153.64 89.528H1152.84ZM1161.99 90.824C1162.55 90.824 1163.22 90.8987 1163.99 91.048L1164.39 91.128L1164.32 92.504C1163.48 92.4187 1162.85 92.376 1162.45 92.376C1161.64 92.376 1161.09 92.5573 1160.82 92.92C1160.54 93.2827 1160.4 93.9653 1160.4 94.968C1160.4 95.9707 1160.53 96.664 1160.8 97.048C1161.07 97.432 1161.62 97.624 1162.47 97.624L1164.34 97.496L1164.39 98.888C1163.31 99.08 1162.5 99.176 1161.95 99.176C1160.74 99.176 1159.88 98.8507 1159.38 98.2C1158.89 97.5387 1158.64 96.4613 1158.64 94.968C1158.64 93.4747 1158.9 92.4133 1159.43 91.784C1159.95 91.144 1160.8 90.824 1161.99 90.824ZM1168.99 90.824C1169.55 90.824 1170.22 90.8987 1170.99 91.048L1171.39 91.128L1171.32 92.504C1170.48 92.4187 1169.85 92.376 1169.45 92.376C1168.64 92.376 1168.09 92.5573 1167.82 92.92C1167.54 93.2827 1167.4 93.9653 1167.4 94.968C1167.4 95.9707 1167.53 96.664 1167.8 97.048C1168.07 97.432 1168.62 97.624 1169.47 97.624L1171.34 97.496L1171.39 98.888C1170.31 99.08 1169.5 99.176 1168.95 99.176C1167.74 99.176 1166.88 98.8507 1166.38 98.2C1165.89 97.5387 1165.64 96.4613 1165.64 94.968C1165.64 93.4747 1165.9 92.4133 1166.43 91.784C1166.95 91.144 1167.8 90.824 1168.99 90.824ZM1178.69 97.56L1179.14 97.512L1179.17 98.808C1177.95 99.0533 1176.88 99.176 1175.94 99.176C1174.75 99.176 1173.9 98.8507 1173.38 98.2C1172.87 97.5493 1172.61 96.5093 1172.61 95.08C1172.61 92.2427 1173.77 90.824 1176.08 90.824C1178.32 90.824 1179.44 92.0453 1179.44 94.488L1179.33 95.736H1174.37C1174.38 96.3973 1174.52 96.8827 1174.8 97.192C1175.08 97.5013 1175.6 97.656 1176.35 97.656C1177.11 97.656 1177.89 97.624 1178.69 97.56ZM1177.73 94.392C1177.73 93.6027 1177.6 93.0533 1177.35 92.744C1177.1 92.424 1176.68 92.264 1176.08 92.264C1175.48 92.264 1175.05 92.4293 1174.77 92.76C1174.5 93.0907 1174.36 93.6347 1174.35 94.392H1177.73ZM1187.65 87.672V99H1185.92V98.584C1185.14 98.9787 1184.43 99.176 1183.77 99.176C1182.73 99.176 1181.96 98.8613 1181.47 98.232C1180.99 97.6027 1180.75 96.5467 1180.75 95.064C1180.75 93.5813 1181.02 92.504 1181.55 91.832C1182.09 91.16 1182.94 90.824 1184.08 90.824C1184.46 90.824 1185.07 90.8933 1185.9 91.032V87.672H1187.65ZM1185.63 97.336L1185.9 97.224V92.488C1185.26 92.3813 1184.67 92.328 1184.13 92.328C1183.05 92.328 1182.51 93.224 1182.51 95.016C1182.51 95.9973 1182.63 96.68 1182.88 97.064C1183.13 97.4373 1183.53 97.624 1184.08 97.624C1184.62 97.624 1185.14 97.528 1185.63 97.336ZM1189.76 99V91H1191.5V99H1189.76ZM1189.76 89.64V87.8H1191.5V89.64H1189.76Z" fill="white"/>
<path d="M1217.5 73C1217.5 71.067 1219.07 69.5 1221 69.5H1257C1258.93 69.5 1260.5 71.067 1260.5 73V113C1260.5 114.933 1258.93 116.5 1257 116.5H1221C1219.07 116.5 1217.5 114.933 1217.5 113V73Z" stroke="#0066CC"/>
<path d="M1233.17 91.332C1232.25 91.332 1231.5 92.082 1231.5 92.9987C1231.5 93.9154 1232.25 94.6654 1233.17 94.6654C1234.08 94.6654 1234.83 93.9154 1234.83 92.9987C1234.83 92.082 1234.08 91.332 1233.17 91.332Z" fill="#0066CC" stroke="#0066CC" stroke-width="0.3"/>
<path d="M1244.83 91.332C1243.92 91.332 1243.17 92.082 1243.17 92.9987C1243.17 93.9154 1243.92 94.6654 1244.83 94.6654C1245.75 94.6654 1246.5 93.9154 1246.5 92.9987C1246.5 92.082 1245.75 91.332 1244.83 91.332Z" fill="#0066CC" stroke="#0066CC" stroke-width="0.3"/>
<path d="M1239 91.332C1238.08 91.332 1237.33 92.082 1237.33 92.9987C1237.33 93.9154 1238.08 94.6654 1239 94.6654C1239.92 94.6654 1240.67 93.9154 1240.67 92.9987C1240.67 92.082 1239.92 91.332 1239 91.332Z" fill="#0066CC" stroke="#0066CC" stroke-width="0.3"/>
<g filter="url(#filter0_b_888_42012)">
<mask id="path-27-inside-1_888_42012" fill="white">
<path d="M1 141H1321V214H1V141Z"/>
</mask>
<path d="M1 141H1321V214H1V141Z" fill="white"/>
<path d="M1321 213H1V215H1321V213Z" fill="#CBD5E1" mask="url(#path-27-inside-1_888_42012)"/>
<rect x="61" y="141" width="1200" height="1" rx="0.5" fill="#CBD5E1"/>
<path d="M61 158C61 155.791 62.7909 154 65 154H170C172.209 154 174 155.791 174 158V194C174 196.209 172.209 198 170 198H65C62.7909 198 61 196.209 61 194V158Z" fill="white"/>
<path d="M76.408 182H70.264V171.04H72.04V180.416H76.408V182ZM83.5698 176.464V180.112C83.5804 180.347 83.6391 180.523 83.7458 180.64C83.8631 180.747 84.0391 180.816 84.2738 180.848L84.2258 182.176C83.3084 182.176 82.5991 181.979 82.0978 181.584C81.2444 181.979 80.3858 182.176 79.5218 182.176C77.9324 182.176 77.1378 181.328 77.1378 179.632C77.1378 178.821 77.3511 178.235 77.7778 177.872C78.2151 177.509 78.8818 177.291 79.7778 177.216L81.8418 177.04V176.464C81.8418 176.037 81.7458 175.739 81.5538 175.568C81.3724 175.397 81.1004 175.312 80.7378 175.312C80.0551 175.312 79.2018 175.355 78.1778 175.44L77.6658 175.472L77.6018 174.24C78.7644 173.963 79.8311 173.824 80.8018 173.824C81.7831 173.824 82.4871 174.037 82.9138 174.464C83.3511 174.88 83.5698 175.547 83.5698 176.464ZM79.9858 178.448C79.2498 178.512 78.8818 178.912 78.8818 179.648C78.8818 180.384 79.2071 180.752 79.8578 180.752C80.3911 180.752 80.9564 180.667 81.5538 180.496L81.8418 180.4V178.272L79.9858 178.448ZM89.4871 173.824C90.5858 173.824 91.3751 174.133 91.8551 174.752C92.3458 175.36 92.5911 176.443 92.5911 178C92.5911 179.557 92.3031 180.645 91.7271 181.264C91.1511 181.872 90.1378 182.176 88.6871 182.176C88.1858 182.176 87.3911 182.128 86.3031 182.032L85.7591 181.984V170.672H87.4871V174.304C88.2231 173.984 88.8898 173.824 89.4871 173.824ZM88.6871 180.624C89.5405 180.624 90.1058 180.427 90.3831 180.032C90.6711 179.627 90.8151 178.944 90.8151 177.984C90.8151 177.024 90.6925 176.352 90.4471 175.968C90.2125 175.573 89.8231 175.376 89.2791 175.376C88.7671 175.376 88.2551 175.456 87.7431 175.616L87.4871 175.696V180.56C88.0738 180.603 88.4738 180.624 88.6871 180.624ZM100.033 180.56L100.481 180.512L100.513 181.808C99.2973 182.053 98.2199 182.176 97.2812 182.176C96.0973 182.176 95.2439 181.851 94.7213 181.2C94.2093 180.549 93.9533 179.509 93.9533 178.08C93.9533 175.243 95.1106 173.824 97.4253 173.824C99.6653 173.824 100.785 175.045 100.785 177.488L100.673 178.736H95.7133C95.7239 179.397 95.8679 179.883 96.1453 180.192C96.4226 180.501 96.9399 180.656 97.6973 180.656C98.4546 180.656 99.2333 180.624 100.033 180.56ZM99.0733 177.392C99.0733 176.603 98.9453 176.053 98.6893 175.744C98.4439 175.424 98.0226 175.264 97.4253 175.264C96.8279 175.264 96.3906 175.429 96.1133 175.76C95.8466 176.091 95.7079 176.635 95.6973 177.392H99.0733ZM102.558 182V170.672H104.302V182H102.558ZM114.329 175.488H112.121V179.008C112.121 179.659 112.169 180.091 112.265 180.304C112.361 180.517 112.606 180.624 113.001 180.624L114.313 180.576L114.393 181.968C113.678 182.107 113.134 182.176 112.761 182.176C111.854 182.176 111.23 181.968 110.889 181.552C110.558 181.136 110.393 180.352 110.393 179.2V175.488H109.369V174H110.393V171.68H112.121V174H114.329V175.488ZM121.455 180.56L121.903 180.512L121.935 181.808C120.719 182.053 119.642 182.176 118.703 182.176C117.519 182.176 116.666 181.851 116.143 181.2C115.631 180.549 115.375 179.509 115.375 178.08C115.375 175.243 116.532 173.824 118.847 173.824C121.087 173.824 122.207 175.045 122.207 177.488L122.095 178.736H117.135C117.146 179.397 117.29 179.883 117.567 180.192C117.844 180.501 118.362 180.656 119.119 180.656C119.876 180.656 120.655 180.624 121.455 180.56ZM120.495 177.392C120.495 176.603 120.367 176.053 120.111 175.744C119.866 175.424 119.444 175.264 118.847 175.264C118.25 175.264 117.812 175.429 117.535 175.76C117.268 176.091 117.13 176.635 117.119 177.392H120.495ZM123.116 174H124.972L126.54 176.768L128.124 174H129.98L127.596 177.936L129.98 182H128.124L126.54 179.264L124.972 182H123.116L125.436 177.984L123.116 174ZM135.61 175.488H133.402V179.008C133.402 179.659 133.45 180.091 133.546 180.304C133.642 180.517 133.887 180.624 134.282 180.624L135.594 180.576L135.674 181.968C134.959 182.107 134.415 182.176 134.042 182.176C133.135 182.176 132.511 181.968 132.17 181.552C131.839 181.136 131.674 180.352 131.674 179.2V175.488H130.65V174H131.674V171.68H133.402V174H135.61V175.488Z" fill="#003366"/>
<path d="M162.917 173.035L157.223 178.482C156.55 179.125 155.45 179.125 154.777 178.482L149.083 173.035" stroke="#003366" stroke-width="1.4823" stroke-miterlimit="10" stroke-linecap="round" stroke-linejoin="round"/>
<path d="M182 158C182 155.791 183.791 154 186 154H291C293.209 154 295 155.791 295 158V194C295 196.209 293.209 198 291 198H186C183.791 198 182 196.209 182 194V158Z" fill="white"/>
<path d="M197.408 182H191.264V171.04H193.04V180.416H197.408V182ZM204.57 176.464V180.112C204.58 180.347 204.639 180.523 204.746 180.64C204.863 180.747 205.039 180.816 205.274 180.848L205.226 182.176C204.308 182.176 203.599 181.979 203.098 181.584C202.244 181.979 201.386 182.176 200.522 182.176C198.932 182.176 198.138 181.328 198.138 179.632C198.138 178.821 198.351 178.235 198.778 177.872C199.215 177.509 199.882 177.291 200.778 177.216L202.842 177.04V176.464C202.842 176.037 202.746 175.739 202.554 175.568C202.372 175.397 202.1 175.312 201.738 175.312C201.055 175.312 200.202 175.355 199.178 175.44L198.666 175.472L198.602 174.24C199.764 173.963 200.831 173.824 201.802 173.824C202.783 173.824 203.487 174.037 203.914 174.464C204.351 174.88 204.57 175.547 204.57 176.464ZM200.986 178.448C200.25 178.512 199.882 178.912 199.882 179.648C199.882 180.384 200.207 180.752 200.858 180.752C201.391 180.752 201.956 180.667 202.554 180.496L202.842 180.4V178.272L200.986 178.448ZM210.487 173.824C211.586 173.824 212.375 174.133 212.855 174.752C213.346 175.36 213.591 176.443 213.591 178C213.591 179.557 213.303 180.645 212.727 181.264C212.151 181.872 211.138 182.176 209.687 182.176C209.186 182.176 208.391 182.128 207.303 182.032L206.759 181.984V170.672H208.487V174.304C209.223 173.984 209.89 173.824 210.487 173.824ZM209.687 180.624C210.54 180.624 211.106 180.427 211.383 180.032C211.671 179.627 211.815 178.944 211.815 177.984C211.815 177.024 211.692 176.352 211.447 175.968C211.212 175.573 210.823 175.376 210.279 175.376C209.767 175.376 209.255 175.456 208.743 175.616L208.487 175.696V180.56C209.074 180.603 209.474 180.624 209.687 180.624ZM221.033 180.56L221.481 180.512L221.513 181.808C220.297 182.053 219.22 182.176 218.281 182.176C217.097 182.176 216.244 181.851 215.721 181.2C215.209 180.549 214.953 179.509 214.953 178.08C214.953 175.243 216.111 173.824 218.425 173.824C220.665 173.824 221.785 175.045 221.785 177.488L221.673 178.736H216.713C216.724 179.397 216.868 179.883 217.145 180.192C217.423 180.501 217.94 180.656 218.697 180.656C219.455 180.656 220.233 180.624 221.033 180.56ZM220.073 177.392C220.073 176.603 219.945 176.053 219.689 175.744C219.444 175.424 219.023 175.264 218.425 175.264C217.828 175.264 217.391 175.429 217.113 175.76C216.847 176.091 216.708 176.635 216.697 177.392H220.073ZM223.558 182V170.672H225.302V182H223.558ZM235.329 175.488H233.121V179.008C233.121 179.659 233.169 180.091 233.265 180.304C233.361 180.517 233.606 180.624 234.001 180.624L235.313 180.576L235.393 181.968C234.678 182.107 234.134 182.176 233.761 182.176C232.854 182.176 232.23 181.968 231.889 181.552C231.558 181.136 231.393 180.352 231.393 179.2V175.488H230.369V174H231.393V171.68H233.121V174H235.329V175.488ZM242.455 180.56L242.903 180.512L242.935 181.808C241.719 182.053 240.642 182.176 239.703 182.176C238.519 182.176 237.666 181.851 237.143 181.2C236.631 180.549 236.375 179.509 236.375 178.08C236.375 175.243 237.532 173.824 239.847 173.824C242.087 173.824 243.207 175.045 243.207 177.488L243.095 178.736H238.135C238.146 179.397 238.29 179.883 238.567 180.192C238.844 180.501 239.362 180.656 240.119 180.656C240.876 180.656 241.655 180.624 242.455 180.56ZM241.495 177.392C241.495 176.603 241.367 176.053 241.111 175.744C240.866 175.424 240.444 175.264 239.847 175.264C239.25 175.264 238.812 175.429 238.535 175.76C238.268 176.091 238.13 176.635 238.119 177.392H241.495ZM244.116 174H245.972L247.54 176.768L249.124 174H250.98L248.596 177.936L250.98 182H249.124L247.54 179.264L245.972 182H244.116L246.436 177.984L244.116 174ZM256.61 175.488H254.402V179.008C254.402 179.659 254.45 180.091 254.546 180.304C254.642 180.517 254.887 180.624 255.282 180.624L256.594 180.576L256.674 181.968C255.959 182.107 255.415 182.176 255.042 182.176C254.135 182.176 253.511 181.968 253.17 181.552C252.839 181.136 252.674 180.352 252.674 179.2V175.488H251.65V174H252.674V171.68H254.402V174H256.61V175.488Z" fill="#003366"/>
<path d="M283.917 173.035L278.223 178.482C277.55 179.125 276.45 179.125 275.777 178.482L270.083 173.035" stroke="#003366" stroke-width="1.4823" stroke-miterlimit="10" stroke-linecap="round" stroke-linejoin="round"/>
<path d="M303 158C303 155.791 304.791 154 307 154H412C414.209 154 416 155.791 416 158V194C416 196.209 414.209 198 412 198H307C304.791 198 303 196.209 303 194V158Z" fill="white"/>
<path d="M318.408 182H312.264V171.04H314.04V180.416H318.408V182ZM325.57 176.464V180.112C325.58 180.347 325.639 180.523 325.746 180.64C325.863 180.747 326.039 180.816 326.274 180.848L326.226 182.176C325.308 182.176 324.599 181.979 324.098 181.584C323.244 181.979 322.386 182.176 321.522 182.176C319.932 182.176 319.138 181.328 319.138 179.632C319.138 178.821 319.351 178.235 319.778 177.872C320.215 177.509 320.882 177.291 321.778 177.216L323.842 177.04V176.464C323.842 176.037 323.746 175.739 323.554 175.568C323.372 175.397 323.1 175.312 322.738 175.312C322.055 175.312 321.202 175.355 320.178 175.44L319.666 175.472L319.602 174.24C320.764 173.963 321.831 173.824 322.802 173.824C323.783 173.824 324.487 174.037 324.914 174.464C325.351 174.88 325.57 175.547 325.57 176.464ZM321.986 178.448C321.25 178.512 320.882 178.912 320.882 179.648C320.882 180.384 321.207 180.752 321.858 180.752C322.391 180.752 322.956 180.667 323.554 180.496L323.842 180.4V178.272L321.986 178.448ZM331.487 173.824C332.586 173.824 333.375 174.133 333.855 174.752C334.346 175.36 334.591 176.443 334.591 178C334.591 179.557 334.303 180.645 333.727 181.264C333.151 181.872 332.138 182.176 330.687 182.176C330.186 182.176 329.391 182.128 328.303 182.032L327.759 181.984V170.672H329.487V174.304C330.223 173.984 330.89 173.824 331.487 173.824ZM330.687 180.624C331.54 180.624 332.106 180.427 332.383 180.032C332.671 179.627 332.815 178.944 332.815 177.984C332.815 177.024 332.692 176.352 332.447 175.968C332.212 175.573 331.823 175.376 331.279 175.376C330.767 175.376 330.255 175.456 329.743 175.616L329.487 175.696V180.56C330.074 180.603 330.474 180.624 330.687 180.624ZM342.033 180.56L342.481 180.512L342.513 181.808C341.297 182.053 340.22 182.176 339.281 182.176C338.097 182.176 337.244 181.851 336.721 181.2C336.209 180.549 335.953 179.509 335.953 178.08C335.953 175.243 337.111 173.824 339.425 173.824C341.665 173.824 342.785 175.045 342.785 177.488L342.673 178.736H337.713C337.724 179.397 337.868 179.883 338.145 180.192C338.423 180.501 338.94 180.656 339.697 180.656C340.455 180.656 341.233 180.624 342.033 180.56ZM341.073 177.392C341.073 176.603 340.945 176.053 340.689 175.744C340.444 175.424 340.023 175.264 339.425 175.264C338.828 175.264 338.391 175.429 338.113 175.76C337.847 176.091 337.708 176.635 337.697 177.392H341.073ZM344.558 182V170.672H346.302V182H344.558ZM356.329 175.488H354.121V179.008C354.121 179.659 354.169 180.091 354.265 180.304C354.361 180.517 354.606 180.624 355.001 180.624L356.313 180.576L356.393 181.968C355.678 182.107 355.134 182.176 354.761 182.176C353.854 182.176 353.23 181.968 352.889 181.552C352.558 181.136 352.393 180.352 352.393 179.2V175.488H351.369V174H352.393V171.68H354.121V174H356.329V175.488ZM363.455 180.56L363.903 180.512L363.935 181.808C362.719 182.053 361.642 182.176 360.703 182.176C359.519 182.176 358.666 181.851 358.143 181.2C357.631 180.549 357.375 179.509 357.375 178.08C357.375 175.243 358.532 173.824 360.847 173.824C363.087 173.824 364.207 175.045 364.207 177.488L364.095 178.736H359.135C359.146 179.397 359.29 179.883 359.567 180.192C359.844 180.501 360.362 180.656 361.119 180.656C361.876 180.656 362.655 180.624 363.455 180.56ZM362.495 177.392C362.495 176.603 362.367 176.053 362.111 175.744C361.866 175.424 361.444 175.264 360.847 175.264C360.25 175.264 359.812 175.429 359.535 175.76C359.268 176.091 359.13 176.635 359.119 177.392H362.495ZM365.116 174H366.972L368.54 176.768L370.124 174H371.98L369.596 177.936L371.98 182H370.124L368.54 179.264L366.972 182H365.116L367.436 177.984L365.116 174ZM377.61 175.488H375.402V179.008C375.402 179.659 375.45 180.091 375.546 180.304C375.642 180.517 375.887 180.624 376.282 180.624L377.594 180.576L377.674 181.968C376.959 182.107 376.415 182.176 376.042 182.176C375.135 182.176 374.511 181.968 374.17 181.552C373.839 181.136 373.674 180.352 373.674 179.2V175.488H372.65V174H373.674V171.68H375.402V174H377.61V175.488Z" fill="#003366"/>
<path d="M404.917 173.035L399.223 178.482C398.55 179.125 397.45 179.125 396.777 178.482L391.083 173.035" stroke="#003366" stroke-width="1.4823" stroke-miterlimit="10" stroke-linecap="round" stroke-linejoin="round"/>
<path d="M424 158C424 155.791 425.791 154 428 154H533C535.209 154 537 155.791 537 158V194C537 196.209 535.209 198 533 198H428C425.791 198 424 196.209 424 194V158Z" fill="white"/>
<path d="M439.408 182H433.264V171.04H435.04V180.416H439.408V182ZM446.57 176.464V180.112C446.58 180.347 446.639 180.523 446.746 180.64C446.863 180.747 447.039 180.816 447.274 180.848L447.226 182.176C446.308 182.176 445.599 181.979 445.098 181.584C444.244 181.979 443.386 182.176 442.522 182.176C440.932 182.176 440.138 181.328 440.138 179.632C440.138 178.821 440.351 178.235 440.778 177.872C441.215 177.509 441.882 177.291 442.778 177.216L444.842 177.04V176.464C444.842 176.037 444.746 175.739 444.554 175.568C444.372 175.397 444.1 175.312 443.738 175.312C443.055 175.312 442.202 175.355 441.178 175.44L440.666 175.472L440.602 174.24C441.764 173.963 442.831 173.824 443.802 173.824C444.783 173.824 445.487 174.037 445.914 174.464C446.351 174.88 446.57 175.547 446.57 176.464ZM442.986 178.448C442.25 178.512 441.882 178.912 441.882 179.648C441.882 180.384 442.207 180.752 442.858 180.752C443.391 180.752 443.956 180.667 444.554 180.496L444.842 180.4V178.272L442.986 178.448ZM452.487 173.824C453.586 173.824 454.375 174.133 454.855 174.752C455.346 175.36 455.591 176.443 455.591 178C455.591 179.557 455.303 180.645 454.727 181.264C454.151 181.872 453.138 182.176 451.687 182.176C451.186 182.176 450.391 182.128 449.303 182.032L448.759 181.984V170.672H450.487V174.304C451.223 173.984 451.89 173.824 452.487 173.824ZM451.687 180.624C452.54 180.624 453.106 180.427 453.383 180.032C453.671 179.627 453.815 178.944 453.815 177.984C453.815 177.024 453.692 176.352 453.447 175.968C453.212 175.573 452.823 175.376 452.279 175.376C451.767 175.376 451.255 175.456 450.743 175.616L450.487 175.696V180.56C451.074 180.603 451.474 180.624 451.687 180.624ZM463.033 180.56L463.481 180.512L463.513 181.808C462.297 182.053 461.22 182.176 460.281 182.176C459.097 182.176 458.244 181.851 457.721 181.2C457.209 180.549 456.953 179.509 456.953 178.08C456.953 175.243 458.111 173.824 460.425 173.824C462.665 173.824 463.785 175.045 463.785 177.488L463.673 178.736H458.713C458.724 179.397 458.868 179.883 459.145 180.192C459.423 180.501 459.94 180.656 460.697 180.656C461.455 180.656 462.233 180.624 463.033 180.56ZM462.073 177.392C462.073 176.603 461.945 176.053 461.689 175.744C461.444 175.424 461.023 175.264 460.425 175.264C459.828 175.264 459.391 175.429 459.113 175.76C458.847 176.091 458.708 176.635 458.697 177.392H462.073ZM465.558 182V170.672H467.302V182H465.558ZM477.329 175.488H475.121V179.008C475.121 179.659 475.169 180.091 475.265 180.304C475.361 180.517 475.606 180.624 476.001 180.624L477.313 180.576L477.393 181.968C476.678 182.107 476.134 182.176 475.761 182.176C474.854 182.176 474.23 181.968 473.889 181.552C473.558 181.136 473.393 180.352 473.393 179.2V175.488H472.369V174H473.393V171.68H475.121V174H477.329V175.488ZM484.455 180.56L484.903 180.512L484.935 181.808C483.719 182.053 482.642 182.176 481.703 182.176C480.519 182.176 479.666 181.851 479.143 181.2C478.631 180.549 478.375 179.509 478.375 178.08C478.375 175.243 479.532 173.824 481.847 173.824C484.087 173.824 485.207 175.045 485.207 177.488L485.095 178.736H480.135C480.146 179.397 480.29 179.883 480.567 180.192C480.844 180.501 481.362 180.656 482.119 180.656C482.876 180.656 483.655 180.624 484.455 180.56ZM483.495 177.392C483.495 176.603 483.367 176.053 483.111 175.744C482.866 175.424 482.444 175.264 481.847 175.264C481.25 175.264 480.812 175.429 480.535 175.76C480.268 176.091 480.13 176.635 480.119 177.392H483.495ZM486.116 174H487.972L489.54 176.768L491.124 174H492.98L490.596 177.936L492.98 182H491.124L489.54 179.264L487.972 182H486.116L488.436 177.984L486.116 174ZM498.61 175.488H496.402V179.008C496.402 179.659 496.45 180.091 496.546 180.304C496.642 180.517 496.887 180.624 497.282 180.624L498.594 180.576L498.674 181.968C497.959 182.107 497.415 182.176 497.042 182.176C496.135 182.176 495.511 181.968 495.17 181.552C494.839 181.136 494.674 180.352 494.674 179.2V175.488H493.65V174H494.674V171.68H496.402V174H498.61V175.488Z" fill="#003366"/>
<path d="M525.917 173.035L520.223 178.482C519.55 179.125 518.45 179.125 517.777 178.482L512.083 173.035" stroke="#003366" stroke-width="1.4823" stroke-miterlimit="10" stroke-linecap="round" stroke-linejoin="round"/>
<path d="M545 158C545 155.791 546.791 154 549 154H654C656.209 154 658 155.791 658 158V194C658 196.209 656.209 198 654 198H549C546.791 198 545 196.209 545 194V158Z" fill="white"/>
<path d="M560.408 182H554.264V171.04H556.04V180.416H560.408V182ZM567.57 176.464V180.112C567.58 180.347 567.639 180.523 567.746 180.64C567.863 180.747 568.039 180.816 568.274 180.848L568.226 182.176C567.308 182.176 566.599 181.979 566.098 181.584C565.244 181.979 564.386 182.176 563.522 182.176C561.932 182.176 561.138 181.328 561.138 179.632C561.138 178.821 561.351 178.235 561.778 177.872C562.215 177.509 562.882 177.291 563.778 177.216L565.842 177.04V176.464C565.842 176.037 565.746 175.739 565.554 175.568C565.372 175.397 565.1 175.312 564.738 175.312C564.055 175.312 563.202 175.355 562.178 175.44L561.666 175.472L561.602 174.24C562.764 173.963 563.831 173.824 564.802 173.824C565.783 173.824 566.487 174.037 566.914 174.464C567.351 174.88 567.57 175.547 567.57 176.464ZM563.986 178.448C563.25 178.512 562.882 178.912 562.882 179.648C562.882 180.384 563.207 180.752 563.858 180.752C564.391 180.752 564.956 180.667 565.554 180.496L565.842 180.4V178.272L563.986 178.448ZM573.487 173.824C574.586 173.824 575.375 174.133 575.855 174.752C576.346 175.36 576.591 176.443 576.591 178C576.591 179.557 576.303 180.645 575.727 181.264C575.151 181.872 574.138 182.176 572.687 182.176C572.186 182.176 571.391 182.128 570.303 182.032L569.759 181.984V170.672H571.487V174.304C572.223 173.984 572.89 173.824 573.487 173.824ZM572.687 180.624C573.54 180.624 574.106 180.427 574.383 180.032C574.671 179.627 574.815 178.944 574.815 177.984C574.815 177.024 574.692 176.352 574.447 175.968C574.212 175.573 573.823 175.376 573.279 175.376C572.767 175.376 572.255 175.456 571.743 175.616L571.487 175.696V180.56C572.074 180.603 572.474 180.624 572.687 180.624ZM584.033 180.56L584.481 180.512L584.513 181.808C583.297 182.053 582.22 182.176 581.281 182.176C580.097 182.176 579.244 181.851 578.721 181.2C578.209 180.549 577.953 179.509 577.953 178.08C577.953 175.243 579.111 173.824 581.425 173.824C583.665 173.824 584.785 175.045 584.785 177.488L584.673 178.736H579.713C579.724 179.397 579.868 179.883 580.145 180.192C580.423 180.501 580.94 180.656 581.697 180.656C582.455 180.656 583.233 180.624 584.033 180.56ZM583.073 177.392C583.073 176.603 582.945 176.053 582.689 175.744C582.444 175.424 582.023 175.264 581.425 175.264C580.828 175.264 580.391 175.429 580.113 175.76C579.847 176.091 579.708 176.635 579.697 177.392H583.073ZM586.558 182V170.672H588.302V182H586.558ZM598.329 175.488H596.121V179.008C596.121 179.659 596.169 180.091 596.265 180.304C596.361 180.517 596.606 180.624 597.001 180.624L598.313 180.576L598.393 181.968C597.678 182.107 597.134 182.176 596.761 182.176C595.854 182.176 595.23 181.968 594.889 181.552C594.558 181.136 594.393 180.352 594.393 179.2V175.488H593.369V174H594.393V171.68H596.121V174H598.329V175.488ZM605.455 180.56L605.903 180.512L605.935 181.808C604.719 182.053 603.642 182.176 602.703 182.176C601.519 182.176 600.666 181.851 600.143 181.2C599.631 180.549 599.375 179.509 599.375 178.08C599.375 175.243 600.532 173.824 602.847 173.824C605.087 173.824 606.207 175.045 606.207 177.488L606.095 178.736H601.135C601.146 179.397 601.29 179.883 601.567 180.192C601.844 180.501 602.362 180.656 603.119 180.656C603.876 180.656 604.655 180.624 605.455 180.56ZM604.495 177.392C604.495 176.603 604.367 176.053 604.111 175.744C603.866 175.424 603.444 175.264 602.847 175.264C602.25 175.264 601.812 175.429 601.535 175.76C601.268 176.091 601.13 176.635 601.119 177.392H604.495ZM607.116 174H608.972L610.54 176.768L612.124 174H613.98L611.596 177.936L613.98 182H612.124L610.54 179.264L608.972 182H607.116L609.436 177.984L607.116 174ZM619.61 175.488H617.402V179.008C617.402 179.659 617.45 180.091 617.546 180.304C617.642 180.517 617.887 180.624 618.282 180.624L619.594 180.576L619.674 181.968C618.959 182.107 618.415 182.176 618.042 182.176C617.135 182.176 616.511 181.968 616.17 181.552C615.839 181.136 615.674 180.352 615.674 179.2V175.488H614.65V174H615.674V171.68H617.402V174H619.61V175.488Z" fill="#003366"/>
<path d="M646.917 173.035L641.223 178.482C640.55 179.125 639.45 179.125 638.777 178.482L633.083 173.035" stroke="#003366" stroke-width="1.4823" stroke-miterlimit="10" stroke-linecap="round" stroke-linejoin="round"/>
</g>
<defs>
<filter id="filter0_b_888_42012" x="-9" y="131" width="1340" height="93" filterUnits="userSpaceOnUse" color-interpolation-filters="sRGB">
<feFlood flood-opacity="0" result="BackgroundImageFix"/>
<feGaussianBlur in="BackgroundImageFix" stdDeviation="5"/>
<feComposite in2="SourceAlpha" operator="in" result="effect1_backgroundBlur_888_42012"/>
<feBlend mode="normal" in="SourceGraphic" in2="effect1_backgroundBlur_888_42012" result="shape"/>
</filter>
</defs>
</svg>
