<svg width="1321" height="215" viewBox="0 0 1321 215" fill="none" xmlns="http://www.w3.org/2000/svg">
<rect width="1321" height="215" rx="8" fill="#F1F5F9"/>
<path d="M28.32 36L31.024 25.04H34.56L37.28 36H35.488L34.896 33.648H30.688L30.096 36H28.32ZM32.4 26.528L31.04 32.08H34.544L33.2 26.528H32.4ZM41.548 27.824C42.1133 27.824 42.78 27.8987 43.548 28.048L43.948 28.128L43.884 29.504C43.0413 29.4187 42.4173 29.376 42.012 29.376C41.2013 29.376 40.6573 29.5573 40.38 29.92C40.1027 30.2827 39.964 30.9653 39.964 31.968C39.964 32.9707 40.0973 33.664 40.364 34.048C40.6307 34.432 41.1853 34.624 42.028 34.624L43.9 34.496L43.948 35.888C42.8707 36.08 42.06 36.176 41.516 36.176C40.3 36.176 39.4413 35.8507 38.94 35.2C38.4493 34.5387 38.204 33.4613 38.204 31.968C38.204 30.4747 38.4653 29.4133 38.988 28.784C39.5107 28.144 40.364 27.824 41.548 27.824ZM48.548 27.824C49.1133 27.824 49.78 27.8987 50.548 28.048L50.948 28.128L50.884 29.504C50.0413 29.4187 49.4173 29.376 49.012 29.376C48.2013 29.376 47.6573 29.5573 47.38 29.92C47.1027 30.2827 46.964 30.9653 46.964 31.968C46.964 32.9707 47.0973 33.664 47.364 34.048C47.6307 34.432 48.1853 34.624 49.028 34.624L50.9 34.496L50.948 35.888C49.8707 36.08 49.06 36.176 48.516 36.176C47.3 36.176 46.4413 35.8507 45.94 35.2C45.4493 34.5387 45.204 33.4613 45.204 31.968C45.204 30.4747 45.4653 29.4133 45.988 28.784C46.5107 28.144 47.364 27.824 48.548 27.824ZM52.988 28.864C53.5427 28.1707 54.46 27.824 55.74 27.824C57.02 27.824 57.932 28.1707 58.476 28.864C59.0307 29.5573 59.308 30.5973 59.308 31.984C59.308 33.3707 59.0413 34.416 58.508 35.12C57.9747 35.824 57.052 36.176 55.74 36.176C54.428 36.176 53.5053 35.824 52.972 35.12C52.4387 34.416 52.172 33.3707 52.172 31.984C52.172 30.5973 52.444 29.5573 52.988 28.864ZM54.3 34.064C54.5453 34.4907 55.0253 34.704 55.74 34.704C56.4547 34.704 56.9347 34.4907 57.18 34.064C57.4253 33.6373 57.548 32.9387 57.548 31.968C57.548 30.9973 57.4147 30.3093 57.148 29.904C56.892 29.4987 56.4227 29.296 55.74 29.296C55.0573 29.296 54.5827 29.4987 54.316 29.904C54.06 30.3093 53.932 30.9973 53.932 31.968C53.932 32.9387 54.0547 33.6373 54.3 34.064ZM61.0404 36V28H62.7684V28.96C63.675 28.3733 64.5817 27.9947 65.4884 27.824V29.568C64.571 29.7493 63.787 29.984 63.1364 30.272L62.7844 30.416V36H61.0404ZM73.2715 24.672V36H71.5435V35.584C70.7648 35.9787 70.0502 36.176 69.3995 36.176C68.3542 36.176 67.5862 35.8613 67.0955 35.232C66.6155 34.6027 66.3755 33.5467 66.3755 32.064C66.3755 30.5813 66.6422 29.504 67.1755 28.832C67.7195 28.16 68.5622 27.824 69.7035 27.824C70.0875 27.824 70.6955 27.8933 71.5275 28.032V24.672H73.2715ZM71.2555 34.336L71.5275 34.224V29.488C70.8875 29.3813 70.2955 29.328 69.7515 29.328C68.6742 29.328 68.1355 30.224 68.1355 32.016C68.1355 32.9973 68.2582 33.68 68.5035 34.064C68.7595 34.4373 69.1595 34.624 69.7035 34.624C70.2475 34.624 70.7648 34.528 71.2555 34.336ZM75.3841 36V28H77.1281V36H75.3841ZM75.3841 26.64V24.8H77.1281V26.64H75.3841ZM79.6755 28.864C80.2302 28.1707 81.1475 27.824 82.4275 27.824C83.7075 27.824 84.6195 28.1707 85.1635 28.864C85.7182 29.5573 85.9955 30.5973 85.9955 31.984C85.9955 33.3707 85.7288 34.416 85.1955 35.12C84.6622 35.824 83.7395 36.176 82.4275 36.176C81.1155 36.176 80.1928 35.824 79.6595 35.12C79.1262 34.416 78.8595 33.3707 78.8595 31.984C78.8595 30.5973 79.1315 29.5573 79.6755 28.864ZM80.9875 34.064C81.2328 34.4907 81.7128 34.704 82.4275 34.704C83.1422 34.704 83.6222 34.4907 83.8675 34.064C84.1128 33.6373 84.2355 32.9387 84.2355 31.968C84.2355 30.9973 84.1022 30.3093 83.8355 29.904C83.5795 29.4987 83.1102 29.296 82.4275 29.296C81.7448 29.296 81.2702 29.4987 81.0035 29.904C80.7475 30.3093 80.6195 30.9973 80.6195 31.968C80.6195 32.9387 80.7422 33.6373 80.9875 34.064ZM89.4719 36H87.7279V28H89.4559V28.496C90.2345 28.048 90.9705 27.824 91.6639 27.824C92.7305 27.824 93.4559 28.128 93.8399 28.736C94.2345 29.3333 94.4319 30.3253 94.4319 31.712V36H92.7039V31.76C92.7039 30.896 92.6079 30.2827 92.4159 29.92C92.2345 29.5573 91.8559 29.376 91.2799 29.376C90.7359 29.376 90.2132 29.4827 89.7119 29.696L89.4719 29.792V36ZM95.9183 35.856L100.478 24.576L102.014 25.136L97.4383 36.4L95.9183 35.856ZM107.556 36H103.764V25.04H107.556C109.241 25.04 110.393 25.4667 111.012 26.32C111.631 27.1733 111.94 28.512 111.94 30.336C111.94 31.264 111.876 32.0533 111.748 32.704C111.631 33.344 111.417 33.9253 111.108 34.448C110.5 35.4827 109.316 36 107.556 36ZM110.1 30.336C110.1 29.0133 109.935 28.0587 109.604 27.472C109.273 26.8853 108.591 26.592 107.556 26.592H105.54V34.432H107.556C108.612 34.432 109.316 34.0427 109.668 33.264C109.839 32.8693 109.951 32.448 110.004 32C110.068 31.552 110.1 30.9973 110.1 30.336ZM119.502 34.56L119.95 34.512L119.982 35.808C118.766 36.0533 117.689 36.176 116.75 36.176C115.566 36.176 114.713 35.8507 114.19 35.2C113.678 34.5493 113.422 33.5093 113.422 32.08C113.422 29.2427 114.579 27.824 116.894 27.824C119.134 27.824 120.254 29.0453 120.254 31.488L120.142 32.736H115.182C115.193 33.3973 115.337 33.8827 115.614 34.192C115.891 34.5013 116.409 34.656 117.166 34.656C117.923 34.656 118.702 34.624 119.502 34.56ZM118.542 31.392C118.542 30.6027 118.414 30.0533 118.158 29.744C117.913 29.424 117.491 29.264 116.894 29.264C116.297 29.264 115.859 29.4293 115.582 29.76C115.315 30.0907 115.177 30.6347 115.166 31.392H118.542ZM127.483 29.648C126.224 29.4773 125.312 29.392 124.747 29.392C124.182 29.392 123.787 29.4613 123.563 29.6C123.35 29.728 123.243 29.936 123.243 30.224C123.243 30.512 123.36 30.7147 123.595 30.832C123.84 30.9493 124.406 31.088 125.291 31.248C126.187 31.3973 126.822 31.6373 127.195 31.968C127.568 32.2987 127.755 32.8853 127.755 33.728C127.755 34.5707 127.483 35.1893 126.939 35.584C126.406 35.9787 125.622 36.176 124.587 36.176C123.936 36.176 123.115 36.0853 122.123 35.904L121.627 35.824L121.691 34.368C122.971 34.5387 123.894 34.624 124.459 34.624C125.024 34.624 125.424 34.5547 125.659 34.416C125.904 34.2773 126.027 34.048 126.027 33.728C126.027 33.408 125.91 33.1893 125.675 33.072C125.451 32.944 124.902 32.8107 124.027 32.672C123.163 32.5227 122.528 32.2933 122.123 31.984C121.718 31.6747 121.515 31.1093 121.515 30.288C121.515 29.4667 121.792 28.8533 122.347 28.448C122.912 28.0427 123.632 27.84 124.507 27.84C125.19 27.84 126.027 27.9253 127.019 28.096L127.515 28.192L127.483 29.648ZM131.175 36H129.431V24.672H131.175V31.216L132.167 31.12L134.055 28H136.007L133.703 31.744L136.135 36H134.167L132.215 32.624L131.175 32.736V36ZM141.719 29.488H139.511V33.008C139.511 33.6587 139.559 34.0907 139.655 34.304C139.751 34.5173 139.997 34.624 140.391 34.624L141.703 34.576L141.783 35.968C141.069 36.1067 140.525 36.176 140.151 36.176C139.245 36.176 138.621 35.968 138.279 35.552C137.949 35.136 137.783 34.352 137.783 33.2V29.488H136.759V28H137.783V25.68H139.511V28H141.719V29.488ZM143.582 28.864C144.136 28.1707 145.054 27.824 146.334 27.824C147.614 27.824 148.526 28.1707 149.07 28.864C149.624 29.5573 149.902 30.5973 149.902 31.984C149.902 33.3707 149.635 34.416 149.102 35.12C148.568 35.824 147.646 36.176 146.334 36.176C145.022 36.176 144.099 35.824 143.566 35.12C143.032 34.416 142.766 33.3707 142.766 31.984C142.766 30.5973 143.038 29.5573 143.582 28.864ZM144.894 34.064C145.139 34.4907 145.619 34.704 146.334 34.704C147.048 34.704 147.528 34.4907 147.774 34.064C148.019 33.6373 148.142 32.9387 148.142 31.968C148.142 30.9973 148.008 30.3093 147.742 29.904C147.486 29.4987 147.016 29.296 146.334 29.296C145.651 29.296 145.176 29.4987 144.91 29.904C144.654 30.3093 144.526 30.9973 144.526 31.968C144.526 32.9387 144.648 33.6373 144.894 34.064ZM151.634 39.44V28H153.362V28.496C154.098 28.048 154.786 27.824 155.426 27.824C156.482 27.824 157.255 28.1493 157.746 28.8C158.237 29.44 158.482 30.5227 158.482 32.048C158.482 33.5627 158.199 34.6293 157.634 35.248C157.079 35.8667 156.167 36.176 154.898 36.176C154.461 36.176 153.954 36.128 153.378 36.032V39.44H151.634ZM155.122 29.376C154.621 29.376 154.119 29.488 153.618 29.712L153.378 29.824V34.544C153.805 34.6293 154.274 34.672 154.786 34.672C155.511 34.672 156.013 34.464 156.29 34.048C156.567 33.632 156.706 32.9227 156.706 31.92C156.706 30.224 156.178 29.376 155.122 29.376Z" fill="#64748B"/>
<mask id="path-3-inside-1_900_47663" fill="white">
<path d="M40 126H646.5V182H40V126Z"/>
</mask>
<path d="M40 126H646.5V182H40V126Z" fill="white"/>
<path d="M646.5 181H40V183H646.5V181Z" fill="#BFDFFF" mask="url(#path-3-inside-1_900_47663)"/>
<path d="M76.95 156.55L70.56 162.94C69.16 164.34 66.86 164.34 65.45 162.94L59.06 156.55C57.66 155.15 57.66 152.85 59.06 151.44L65.45 145.05C66.85 143.65 69.15 143.65 70.56 145.05L76.95 151.44C78.35 152.85 78.35 155.15 76.95 156.55Z" fill="#003366"/>
<path d="M92.234 150.452V148.67H101.234V150.452H97.76V161H95.744V150.452H92.234ZM102.663 161V152H104.625V161H102.663ZM102.663 150.47V148.4H104.625V150.47H102.663ZM111.846 153.674H109.362V157.634C109.362 158.366 109.416 158.852 109.524 159.092C109.632 159.332 109.908 159.452 110.352 159.452L111.828 159.398L111.918 160.964C111.114 161.12 110.502 161.198 110.082 161.198C109.062 161.198 108.36 160.964 107.976 160.496C107.604 160.028 107.418 159.146 107.418 157.85V153.674H106.266V152H107.418V149.39H109.362V152H111.846V153.674ZM113.564 161V148.256H115.526V161H113.564ZM124.416 159.38L124.92 159.326L124.956 160.784C123.588 161.06 122.376 161.198 121.32 161.198C119.988 161.198 119.028 160.832 118.44 160.1C117.864 159.368 117.576 158.198 117.576 156.59C117.576 153.398 118.878 151.802 121.482 151.802C124.002 151.802 125.262 153.176 125.262 155.924L125.136 157.328H119.556C119.568 158.072 119.73 158.618 120.042 158.966C120.354 159.314 120.936 159.488 121.788 159.488C122.64 159.488 123.516 159.452 124.416 159.38ZM123.336 155.816C123.336 154.928 123.192 154.31 122.904 153.962C122.628 153.602 122.154 153.422 121.482 153.422C120.81 153.422 120.318 153.608 120.006 153.98C119.706 154.352 119.55 154.964 119.538 155.816H123.336Z" fill="#003366"/>
<path d="M92 162.98H125.964V163.52H92V162.98Z" fill="#003366"/>
<path d="M618.5 164C624 164 628.5 159.5 628.5 154C628.5 148.5 624 144 618.5 144C613 144 608.5 148.5 608.5 154C608.5 159.5 613 164 618.5 164Z" stroke="#003366" stroke-width="1.5" stroke-linecap="round" stroke-linejoin="round"/>
<path d="M614.5 154H622.5" stroke="#003366" stroke-width="1.5" stroke-linecap="round" stroke-linejoin="round"/>
<path d="M618.5 158V150" stroke="#003366" stroke-width="1.5" stroke-linecap="round" stroke-linejoin="round"/>
<rect x="677" y="128" width="602.5" height="52" rx="2" fill="white"/>
<rect x="677" y="128" width="602.5" height="52" rx="2" stroke="#BFDFFF" stroke-width="4"/>
<path d="M711.95 156.55L705.56 162.94C704.16 164.34 701.86 164.34 700.45 162.94L694.06 156.55C692.66 155.15 692.66 152.85 694.06 151.44L700.45 145.05C701.85 143.65 704.15 143.65 705.56 145.05L711.95 151.44C713.35 152.85 713.35 155.15 711.95 156.55Z" fill="#003366"/>
<path d="M727.234 150.452V148.67H736.234V150.452H732.76V161H730.744V150.452H727.234ZM737.663 161V152H739.625V161H737.663ZM737.663 150.47V148.4H739.625V150.47H737.663ZM746.846 153.674H744.362V157.634C744.362 158.366 744.416 158.852 744.524 159.092C744.632 159.332 744.908 159.452 745.352 159.452L746.828 159.398L746.918 160.964C746.114 161.12 745.502 161.198 745.082 161.198C744.062 161.198 743.36 160.964 742.976 160.496C742.604 160.028 742.418 159.146 742.418 157.85V153.674H741.266V152H742.418V149.39H744.362V152H746.846V153.674ZM748.564 161V148.256H750.526V161H748.564ZM759.416 159.38L759.92 159.326L759.956 160.784C758.588 161.06 757.376 161.198 756.32 161.198C754.988 161.198 754.028 160.832 753.44 160.1C752.864 159.368 752.576 158.198 752.576 156.59C752.576 153.398 753.878 151.802 756.482 151.802C759.002 151.802 760.262 153.176 760.262 155.924L760.136 157.328H754.556C754.568 158.072 754.73 158.618 755.042 158.966C755.354 159.314 755.936 159.488 756.788 159.488C757.64 159.488 758.516 159.452 759.416 159.38ZM758.336 155.816C758.336 154.928 758.192 154.31 757.904 153.962C757.628 153.602 757.154 153.422 756.482 153.422C755.81 153.422 755.318 153.608 755.006 153.98C754.706 154.352 754.55 154.964 754.538 155.816H758.336Z" fill="#003366"/>
<path d="M727 162.98H760.964V163.52H727V162.98Z" fill="#003366"/>
<path d="M1253.5 164C1259 164 1263.5 159.5 1263.5 154C1263.5 148.5 1259 144 1253.5 144C1248 144 1243.5 148.5 1243.5 154C1243.5 159.5 1248 164 1253.5 164Z" stroke="#003366" stroke-width="1.5" stroke-linecap="round" stroke-linejoin="round"/>
<path d="M1249.5 154H1257.5" stroke="#003366" stroke-width="1.5" stroke-linecap="round" stroke-linejoin="round"/>
<path d="M1253.5 158V150" stroke="#003366" stroke-width="1.5" stroke-linecap="round" stroke-linejoin="round"/>
<path d="M929.376 83.704C928.068 83.704 927.414 84.136 927.414 85C927.414 85.384 927.576 85.678 927.9 85.882C928.224 86.086 928.98 86.38 930.168 86.764C931.368 87.148 932.208 87.586 932.688 88.078C933.168 88.558 933.408 89.302 933.408 90.31C933.408 91.594 933.018 92.566 932.238 93.226C931.458 93.886 930.438 94.216 929.178 94.216C928.242 94.216 927.096 94.072 925.74 93.784L925.092 93.658L925.344 91.732C926.952 91.948 928.182 92.056 929.034 92.056C930.306 92.056 930.942 91.528 930.942 90.472C930.942 90.088 930.792 89.788 930.492 89.572C930.204 89.356 929.622 89.122 928.746 88.87C927.354 88.474 926.37 88.006 925.794 87.466C925.23 86.914 924.948 86.152 924.948 85.18C924.948 83.956 925.32 83.044 926.064 82.444C926.808 81.844 927.828 81.544 929.124 81.544C930.012 81.544 931.14 81.664 932.508 81.904L933.156 82.03L932.958 83.992C931.266 83.8 930.072 83.704 929.376 83.704ZM940.087 87.052H937.873V90.742C937.873 91.102 937.879 91.36 937.891 91.516C937.915 91.66 937.981 91.786 938.089 91.894C938.209 92.002 938.389 92.056 938.629 92.056L939.997 92.02L940.105 93.946C939.301 94.126 938.689 94.216 938.269 94.216C937.189 94.216 936.451 93.976 936.055 93.496C935.659 93.004 935.461 92.104 935.461 90.796V87.052H934.399V85H935.461V82.498H937.873V85H940.087V87.052ZM948.552 87.808V91.552C948.576 91.84 948.624 92.044 948.696 92.164C948.768 92.272 948.918 92.35 949.146 92.398L949.074 94.216C948.462 94.216 947.97 94.174 947.598 94.09C947.238 94.006 946.872 93.838 946.5 93.586C945.636 94.006 944.754 94.216 943.854 94.216C941.994 94.216 941.064 93.232 941.064 91.264C941.064 90.304 941.322 89.626 941.838 89.23C942.354 88.822 943.146 88.582 944.214 88.51L946.14 88.366V87.808C946.14 87.436 946.056 87.184 945.888 87.052C945.72 86.908 945.45 86.836 945.078 86.836L941.694 86.98L941.622 85.306C942.906 84.958 944.124 84.784 945.276 84.784C946.44 84.784 947.274 85.024 947.778 85.504C948.294 85.984 948.552 86.752 948.552 87.808ZM944.502 90.184C943.83 90.244 943.494 90.604 943.494 91.264C943.494 91.924 943.788 92.254 944.376 92.254C944.832 92.254 945.33 92.182 945.87 92.038L946.14 91.966V90.04L944.502 90.184ZM955.837 87.052H953.623V90.742C953.623 91.102 953.629 91.36 953.641 91.516C953.665 91.66 953.731 91.786 953.839 91.894C953.959 92.002 954.139 92.056 954.379 92.056L955.747 92.02L955.855 93.946C955.051 94.126 954.439 94.216 954.019 94.216C952.939 94.216 952.201 93.976 951.805 93.496C951.409 93.004 951.211 92.104 951.211 90.796V87.052H950.149V85H951.211V82.498H953.623V85H955.837V87.052ZM957.894 86.026C958.53 85.198 959.592 84.784 961.08 84.784C962.568 84.784 963.63 85.198 964.266 86.026C964.902 86.842 965.22 87.994 965.22 89.482C965.22 92.638 963.84 94.216 961.08 94.216C958.32 94.216 956.94 92.638 956.94 89.482C956.94 87.994 957.258 86.842 957.894 86.026ZM959.748 91.516C960 91.948 960.444 92.164 961.08 92.164C961.716 92.164 962.154 91.948 962.394 91.516C962.646 91.084 962.772 90.406 962.772 89.482C962.772 88.558 962.646 87.886 962.394 87.466C962.154 87.046 961.716 86.836 961.08 86.836C960.444 86.836 960 87.046 959.748 87.466C959.508 87.886 959.388 88.558 959.388 89.482C959.388 90.406 959.508 91.084 959.748 91.516ZM978.593 81.4V94H976.199V93.622C975.359 94.018 974.633 94.216 974.021 94.216C972.713 94.216 971.801 93.838 971.285 93.082C970.769 92.326 970.511 91.132 970.511 89.5C970.511 87.856 970.817 86.662 971.429 85.918C972.053 85.162 972.989 84.784 974.237 84.784C974.621 84.784 975.155 84.844 975.839 84.964L976.181 85.036V81.4H978.593ZM975.929 91.84L976.181 91.786V87.052C975.521 86.932 974.933 86.872 974.417 86.872C973.445 86.872 972.959 87.736 972.959 89.464C972.959 90.4 973.067 91.066 973.283 91.462C973.499 91.858 973.853 92.056 974.345 92.056C974.849 92.056 975.377 91.984 975.929 91.84ZM980.822 94V85H983.234V94H980.822ZM980.822 83.848V81.4H983.234V83.848H980.822ZM992.262 87.052V94H989.85V87.052H988.878V85H989.85V84.604C989.85 83.308 990.042 82.414 990.426 81.922C990.81 81.43 991.494 81.184 992.478 81.184C992.91 81.184 993.468 81.244 994.152 81.364L994.53 81.418L994.494 83.38C993.966 83.356 993.522 83.344 993.162 83.344C992.802 83.344 992.562 83.44 992.442 83.632C992.322 83.824 992.262 84.154 992.262 84.622V85H994.44V87.052H992.262ZM996.267 86.026C996.903 85.198 997.965 84.784 999.453 84.784C1000.94 84.784 1002 85.198 1002.64 86.026C1003.28 86.842 1003.59 87.994 1003.59 89.482C1003.59 92.638 1002.21 94.216 999.453 94.216C996.693 94.216 995.313 92.638 995.313 89.482C995.313 87.994 995.631 86.842 996.267 86.026ZM998.121 91.516C998.373 91.948 998.817 92.164 999.453 92.164C1000.09 92.164 1000.53 91.948 1000.77 91.516C1001.02 91.084 1001.15 90.406 1001.15 89.482C1001.15 88.558 1001.02 87.886 1000.77 87.466C1000.53 87.046 1000.09 86.836 999.453 86.836C998.817 86.836 998.373 87.046 998.121 87.466C997.881 87.886 997.761 88.558 997.761 89.482C997.761 90.406 997.881 91.084 998.121 91.516ZM1008.73 84.784C1009.35 84.784 1010.15 84.88 1011.12 85.072L1011.61 85.18L1011.54 87.088C1010.59 86.992 1009.89 86.944 1009.43 86.944C1008.6 86.944 1008.05 87.124 1007.77 87.484C1007.51 87.832 1007.38 88.498 1007.38 89.482C1007.38 90.466 1007.51 91.144 1007.77 91.516C1008.05 91.876 1008.61 92.056 1009.45 92.056L1011.54 91.912L1011.61 93.838C1010.32 94.09 1009.35 94.216 1008.67 94.216C1007.34 94.216 1006.38 93.844 1005.79 93.1C1005.22 92.344 1004.93 91.138 1004.93 89.482C1004.93 87.826 1005.23 86.632 1005.83 85.9C1006.43 85.156 1007.4 84.784 1008.73 84.784ZM1018.7 85H1021.12V94H1018.72V93.496C1017.86 93.976 1017.11 94.216 1016.47 94.216C1015.22 94.216 1014.38 93.874 1013.95 93.19C1013.52 92.494 1013.3 91.336 1013.3 89.716V85H1015.72V89.752C1015.72 90.64 1015.79 91.246 1015.93 91.57C1016.08 91.894 1016.42 92.056 1016.98 92.056C1017.5 92.056 1018 91.972 1018.47 91.804L1018.7 91.732V85ZM1029.81 87.25C1028.32 87.058 1027.27 86.962 1026.67 86.962C1026.09 86.962 1025.7 87.016 1025.52 87.124C1025.35 87.232 1025.27 87.406 1025.27 87.646C1025.27 87.874 1025.38 88.036 1025.61 88.132C1025.85 88.216 1026.45 88.348 1027.41 88.528C1028.38 88.696 1029.07 88.978 1029.48 89.374C1029.89 89.77 1030.09 90.412 1030.09 91.3C1030.09 93.244 1028.89 94.216 1026.48 94.216C1025.68 94.216 1024.72 94.108 1023.6 93.892L1023.02 93.784L1023.09 91.768C1024.58 91.96 1025.61 92.056 1026.19 92.056C1026.78 92.056 1027.17 92.002 1027.38 91.894C1027.59 91.774 1027.7 91.6 1027.7 91.372C1027.7 91.144 1027.59 90.976 1027.36 90.868C1027.14 90.76 1026.57 90.628 1025.63 90.472C1024.71 90.316 1024.02 90.052 1023.56 89.68C1023.1 89.308 1022.88 88.648 1022.88 87.7C1022.88 86.74 1023.2 86.02 1023.85 85.54C1024.5 85.048 1025.33 84.802 1026.35 84.802C1027.06 84.802 1028.02 84.916 1029.25 85.144L1029.84 85.252L1029.81 87.25Z" fill="#64748B"/>
<path d="M297.302 83.704C295.994 83.704 295.34 84.136 295.34 85C295.34 85.384 295.502 85.678 295.826 85.882C296.15 86.086 296.906 86.38 298.094 86.764C299.294 87.148 300.134 87.586 300.614 88.078C301.094 88.558 301.334 89.302 301.334 90.31C301.334 91.594 300.944 92.566 300.164 93.226C299.384 93.886 298.364 94.216 297.104 94.216C296.168 94.216 295.022 94.072 293.666 93.784L293.018 93.658L293.27 91.732C294.878 91.948 296.108 92.056 296.96 92.056C298.232 92.056 298.868 91.528 298.868 90.472C298.868 90.088 298.718 89.788 298.418 89.572C298.13 89.356 297.548 89.122 296.672 88.87C295.28 88.474 294.296 88.006 293.72 87.466C293.156 86.914 292.874 86.152 292.874 85.18C292.874 83.956 293.246 83.044 293.99 82.444C294.734 81.844 295.754 81.544 297.05 81.544C297.938 81.544 299.066 81.664 300.434 81.904L301.082 82.03L300.884 83.992C299.192 83.8 297.998 83.704 297.302 83.704ZM308.013 87.052H305.799V90.742C305.799 91.102 305.805 91.36 305.817 91.516C305.841 91.66 305.907 91.786 306.015 91.894C306.135 92.002 306.315 92.056 306.555 92.056L307.923 92.02L308.031 93.946C307.227 94.126 306.615 94.216 306.195 94.216C305.115 94.216 304.377 93.976 303.981 93.496C303.585 93.004 303.387 92.104 303.387 90.796V87.052H302.325V85H303.387V82.498H305.799V85H308.013V87.052ZM316.478 87.808V91.552C316.502 91.84 316.55 92.044 316.622 92.164C316.694 92.272 316.844 92.35 317.072 92.398L317 94.216C316.388 94.216 315.896 94.174 315.524 94.09C315.164 94.006 314.798 93.838 314.426 93.586C313.562 94.006 312.68 94.216 311.78 94.216C309.92 94.216 308.99 93.232 308.99 91.264C308.99 90.304 309.248 89.626 309.764 89.23C310.28 88.822 311.072 88.582 312.14 88.51L314.066 88.366V87.808C314.066 87.436 313.982 87.184 313.814 87.052C313.646 86.908 313.376 86.836 313.004 86.836L309.62 86.98L309.548 85.306C310.832 84.958 312.05 84.784 313.202 84.784C314.366 84.784 315.2 85.024 315.704 85.504C316.22 85.984 316.478 86.752 316.478 87.808ZM312.428 90.184C311.756 90.244 311.42 90.604 311.42 91.264C311.42 91.924 311.714 92.254 312.302 92.254C312.758 92.254 313.256 92.182 313.796 92.038L314.066 91.966V90.04L312.428 90.184ZM323.763 87.052H321.549V90.742C321.549 91.102 321.555 91.36 321.567 91.516C321.591 91.66 321.657 91.786 321.765 91.894C321.885 92.002 322.065 92.056 322.305 92.056L323.673 92.02L323.781 93.946C322.977 94.126 322.365 94.216 321.945 94.216C320.865 94.216 320.127 93.976 319.731 93.496C319.335 93.004 319.137 92.104 319.137 90.796V87.052H318.075V85H319.137V82.498H321.549V85H323.763V87.052ZM325.82 86.026C326.456 85.198 327.518 84.784 329.006 84.784C330.494 84.784 331.556 85.198 332.192 86.026C332.828 86.842 333.146 87.994 333.146 89.482C333.146 92.638 331.766 94.216 329.006 94.216C326.246 94.216 324.866 92.638 324.866 89.482C324.866 87.994 325.184 86.842 325.82 86.026ZM327.674 91.516C327.926 91.948 328.37 92.164 329.006 92.164C329.642 92.164 330.08 91.948 330.32 91.516C330.572 91.084 330.698 90.406 330.698 89.482C330.698 88.558 330.572 87.886 330.32 87.466C330.08 87.046 329.642 86.836 329.006 86.836C328.37 86.836 327.926 87.046 327.674 87.466C327.434 87.886 327.314 88.558 327.314 89.482C327.314 90.406 327.434 91.084 327.674 91.516ZM346.519 81.4V94H344.125V93.622C343.285 94.018 342.559 94.216 341.947 94.216C340.639 94.216 339.727 93.838 339.211 93.082C338.695 92.326 338.437 91.132 338.437 89.5C338.437 87.856 338.743 86.662 339.355 85.918C339.979 85.162 340.915 84.784 342.163 84.784C342.547 84.784 343.081 84.844 343.765 84.964L344.107 85.036V81.4H346.519ZM343.855 91.84L344.107 91.786V87.052C343.447 86.932 342.859 86.872 342.343 86.872C341.371 86.872 340.885 87.736 340.885 89.464C340.885 90.4 340.993 91.066 341.209 91.462C341.425 91.858 341.779 92.056 342.271 92.056C342.775 92.056 343.303 91.984 343.855 91.84ZM350.728 90.526C350.74 91.078 350.884 91.48 351.16 91.732C351.448 91.972 351.856 92.092 352.384 92.092C353.5 92.092 354.496 92.056 355.372 91.984L355.876 91.93L355.912 93.712C354.532 94.048 353.284 94.216 352.168 94.216C350.812 94.216 349.828 93.856 349.216 93.136C348.604 92.416 348.298 91.246 348.298 89.626C348.298 86.398 349.624 84.784 352.276 84.784C354.892 84.784 356.2 86.14 356.2 88.852L356.02 90.526H350.728ZM353.824 88.69C353.824 87.97 353.71 87.472 353.482 87.196C353.254 86.908 352.852 86.764 352.276 86.764C351.712 86.764 351.31 86.914 351.07 87.214C350.842 87.502 350.722 87.994 350.71 88.69H353.824ZM360.768 87.052V94H358.356V87.052H357.384V85H358.356V84.604C358.356 83.308 358.548 82.414 358.932 81.922C359.316 81.43 360 81.184 360.984 81.184C361.416 81.184 361.974 81.244 362.658 81.364L363.036 81.418L363 83.38C362.472 83.356 362.028 83.344 361.668 83.344C361.308 83.344 361.068 83.44 360.948 83.632C360.828 83.824 360.768 84.154 360.768 84.622V85H362.946V87.052H360.768ZM371.251 87.808V91.552C371.275 91.84 371.323 92.044 371.395 92.164C371.467 92.272 371.617 92.35 371.845 92.398L371.773 94.216C371.161 94.216 370.669 94.174 370.297 94.09C369.937 94.006 369.571 93.838 369.199 93.586C368.335 94.006 367.453 94.216 366.553 94.216C364.693 94.216 363.763 93.232 363.763 91.264C363.763 90.304 364.021 89.626 364.537 89.23C365.053 88.822 365.845 88.582 366.913 88.51L368.839 88.366V87.808C368.839 87.436 368.755 87.184 368.587 87.052C368.419 86.908 368.149 86.836 367.777 86.836L364.393 86.98L364.321 85.306C365.605 84.958 366.823 84.784 367.975 84.784C369.139 84.784 369.973 85.024 370.477 85.504C370.993 85.984 371.251 86.752 371.251 87.808ZM367.201 90.184C366.529 90.244 366.193 90.604 366.193 91.264C366.193 91.924 366.487 92.254 367.075 92.254C367.531 92.254 368.029 92.182 368.569 92.038L368.839 91.966V90.04L367.201 90.184ZM378.861 85H381.273V94H378.879V93.496C378.015 93.976 377.265 94.216 376.629 94.216C375.381 94.216 374.541 93.874 374.109 93.19C373.677 92.494 373.461 91.336 373.461 89.716V85H375.873V89.752C375.873 90.64 375.945 91.246 376.089 91.57C376.233 91.894 376.581 92.056 377.133 92.056C377.661 92.056 378.159 91.972 378.627 91.804L378.861 91.732V85ZM383.608 94V81.4H386.02V94H383.608ZM393.337 87.052H391.123V90.742C391.123 91.102 391.129 91.36 391.141 91.516C391.165 91.66 391.231 91.786 391.339 91.894C391.459 92.002 391.639 92.056 391.879 92.056L393.247 92.02L393.355 93.946C392.551 94.126 391.939 94.216 391.519 94.216C390.439 94.216 389.701 93.976 389.305 93.496C388.909 93.004 388.711 92.104 388.711 90.796V87.052H387.649V85H388.711V82.498H391.123V85H393.337V87.052Z" fill="#64748B"/>
</svg>
