<svg width="1321" height="322" viewBox="0 0 1321 322" fill="none" xmlns="http://www.w3.org/2000/svg">
<rect width="1321" height="322" rx="8" fill="#F1F5F9"/>
<path d="M28.32 36L31.024 25.04H34.56L37.28 36H35.488L34.896 33.648H30.688L30.096 36H28.32ZM32.4 26.528L31.04 32.08H34.544L33.2 26.528H32.4ZM41.548 27.824C42.1133 27.824 42.78 27.8987 43.548 28.048L43.948 28.128L43.884 29.504C43.0413 29.4187 42.4173 29.376 42.012 29.376C41.2013 29.376 40.6573 29.5573 40.38 29.92C40.1027 30.2827 39.964 30.9653 39.964 31.968C39.964 32.9707 40.0973 33.664 40.364 34.048C40.6307 34.432 41.1853 34.624 42.028 34.624L43.9 34.496L43.948 35.888C42.8707 36.08 42.06 36.176 41.516 36.176C40.3 36.176 39.4413 35.8507 38.94 35.2C38.4493 34.5387 38.204 33.4613 38.204 31.968C38.204 30.4747 38.4653 29.4133 38.988 28.784C39.5107 28.144 40.364 27.824 41.548 27.824ZM48.548 27.824C49.1133 27.824 49.78 27.8987 50.548 28.048L50.948 28.128L50.884 29.504C50.0413 29.4187 49.4173 29.376 49.012 29.376C48.2013 29.376 47.6573 29.5573 47.38 29.92C47.1027 30.2827 46.964 30.9653 46.964 31.968C46.964 32.9707 47.0973 33.664 47.364 34.048C47.6307 34.432 48.1853 34.624 49.028 34.624L50.9 34.496L50.948 35.888C49.8707 36.08 49.06 36.176 48.516 36.176C47.3 36.176 46.4413 35.8507 45.94 35.2C45.4493 34.5387 45.204 33.4613 45.204 31.968C45.204 30.4747 45.4653 29.4133 45.988 28.784C46.5107 28.144 47.364 27.824 48.548 27.824ZM52.988 28.864C53.5427 28.1707 54.46 27.824 55.74 27.824C57.02 27.824 57.932 28.1707 58.476 28.864C59.0307 29.5573 59.308 30.5973 59.308 31.984C59.308 33.3707 59.0413 34.416 58.508 35.12C57.9747 35.824 57.052 36.176 55.74 36.176C54.428 36.176 53.5053 35.824 52.972 35.12C52.4387 34.416 52.172 33.3707 52.172 31.984C52.172 30.5973 52.444 29.5573 52.988 28.864ZM54.3 34.064C54.5453 34.4907 55.0253 34.704 55.74 34.704C56.4547 34.704 56.9347 34.4907 57.18 34.064C57.4253 33.6373 57.548 32.9387 57.548 31.968C57.548 30.9973 57.4147 30.3093 57.148 29.904C56.892 29.4987 56.4227 29.296 55.74 29.296C55.0573 29.296 54.5827 29.4987 54.316 29.904C54.06 30.3093 53.932 30.9973 53.932 31.968C53.932 32.9387 54.0547 33.6373 54.3 34.064ZM61.0404 36V28H62.7684V28.96C63.675 28.3733 64.5817 27.9947 65.4884 27.824V29.568C64.571 29.7493 63.787 29.984 63.1364 30.272L62.7844 30.416V36H61.0404ZM73.2715 24.672V36H71.5435V35.584C70.7648 35.9787 70.0502 36.176 69.3995 36.176C68.3542 36.176 67.5862 35.8613 67.0955 35.232C66.6155 34.6027 66.3755 33.5467 66.3755 32.064C66.3755 30.5813 66.6422 29.504 67.1755 28.832C67.7195 28.16 68.5622 27.824 69.7035 27.824C70.0875 27.824 70.6955 27.8933 71.5275 28.032V24.672H73.2715ZM71.2555 34.336L71.5275 34.224V29.488C70.8875 29.3813 70.2955 29.328 69.7515 29.328C68.6742 29.328 68.1355 30.224 68.1355 32.016C68.1355 32.9973 68.2582 33.68 68.5035 34.064C68.7595 34.4373 69.1595 34.624 69.7035 34.624C70.2475 34.624 70.7648 34.528 71.2555 34.336ZM75.3841 36V28H77.1281V36H75.3841ZM75.3841 26.64V24.8H77.1281V26.64H75.3841ZM79.6755 28.864C80.2302 28.1707 81.1475 27.824 82.4275 27.824C83.7075 27.824 84.6195 28.1707 85.1635 28.864C85.7182 29.5573 85.9955 30.5973 85.9955 31.984C85.9955 33.3707 85.7288 34.416 85.1955 35.12C84.6622 35.824 83.7395 36.176 82.4275 36.176C81.1155 36.176 80.1928 35.824 79.6595 35.12C79.1262 34.416 78.8595 33.3707 78.8595 31.984C78.8595 30.5973 79.1315 29.5573 79.6755 28.864ZM80.9875 34.064C81.2328 34.4907 81.7128 34.704 82.4275 34.704C83.1422 34.704 83.6222 34.4907 83.8675 34.064C84.1128 33.6373 84.2355 32.9387 84.2355 31.968C84.2355 30.9973 84.1022 30.3093 83.8355 29.904C83.5795 29.4987 83.1102 29.296 82.4275 29.296C81.7448 29.296 81.2702 29.4987 81.0035 29.904C80.7475 30.3093 80.6195 30.9973 80.6195 31.968C80.6195 32.9387 80.7422 33.6373 80.9875 34.064ZM89.4719 36H87.7279V28H89.4559V28.496C90.2345 28.048 90.9705 27.824 91.6639 27.824C92.7305 27.824 93.4559 28.128 93.8399 28.736C94.2345 29.3333 94.4319 30.3253 94.4319 31.712V36H92.7039V31.76C92.7039 30.896 92.6079 30.2827 92.4159 29.92C92.2345 29.5573 91.8559 29.376 91.2799 29.376C90.7359 29.376 90.2132 29.4827 89.7119 29.696L89.4719 29.792V36ZM95.9183 35.856L100.478 24.576L102.014 25.136L97.4383 36.4L95.9183 35.856ZM107.556 36H103.764V25.04H107.556C109.241 25.04 110.393 25.4667 111.012 26.32C111.631 27.1733 111.94 28.512 111.94 30.336C111.94 31.264 111.876 32.0533 111.748 32.704C111.631 33.344 111.417 33.9253 111.108 34.448C110.5 35.4827 109.316 36 107.556 36ZM110.1 30.336C110.1 29.0133 109.935 28.0587 109.604 27.472C109.273 26.8853 108.591 26.592 107.556 26.592H105.54V34.432H107.556C108.612 34.432 109.316 34.0427 109.668 33.264C109.839 32.8693 109.951 32.448 110.004 32C110.068 31.552 110.1 30.9973 110.1 30.336ZM119.502 34.56L119.95 34.512L119.982 35.808C118.766 36.0533 117.689 36.176 116.75 36.176C115.566 36.176 114.713 35.8507 114.19 35.2C113.678 34.5493 113.422 33.5093 113.422 32.08C113.422 29.2427 114.579 27.824 116.894 27.824C119.134 27.824 120.254 29.0453 120.254 31.488L120.142 32.736H115.182C115.193 33.3973 115.337 33.8827 115.614 34.192C115.891 34.5013 116.409 34.656 117.166 34.656C117.923 34.656 118.702 34.624 119.502 34.56ZM118.542 31.392C118.542 30.6027 118.414 30.0533 118.158 29.744C117.913 29.424 117.491 29.264 116.894 29.264C116.297 29.264 115.859 29.4293 115.582 29.76C115.315 30.0907 115.177 30.6347 115.166 31.392H118.542ZM127.483 29.648C126.224 29.4773 125.312 29.392 124.747 29.392C124.182 29.392 123.787 29.4613 123.563 29.6C123.35 29.728 123.243 29.936 123.243 30.224C123.243 30.512 123.36 30.7147 123.595 30.832C123.84 30.9493 124.406 31.088 125.291 31.248C126.187 31.3973 126.822 31.6373 127.195 31.968C127.568 32.2987 127.755 32.8853 127.755 33.728C127.755 34.5707 127.483 35.1893 126.939 35.584C126.406 35.9787 125.622 36.176 124.587 36.176C123.936 36.176 123.115 36.0853 122.123 35.904L121.627 35.824L121.691 34.368C122.971 34.5387 123.894 34.624 124.459 34.624C125.024 34.624 125.424 34.5547 125.659 34.416C125.904 34.2773 126.027 34.048 126.027 33.728C126.027 33.408 125.91 33.1893 125.675 33.072C125.451 32.944 124.902 32.8107 124.027 32.672C123.163 32.5227 122.528 32.2933 122.123 31.984C121.718 31.6747 121.515 31.1093 121.515 30.288C121.515 29.4667 121.792 28.8533 122.347 28.448C122.912 28.0427 123.632 27.84 124.507 27.84C125.19 27.84 126.027 27.9253 127.019 28.096L127.515 28.192L127.483 29.648ZM131.175 36H129.431V24.672H131.175V31.216L132.167 31.12L134.055 28H136.007L133.703 31.744L136.135 36H134.167L132.215 32.624L131.175 32.736V36ZM141.719 29.488H139.511V33.008C139.511 33.6587 139.559 34.0907 139.655 34.304C139.751 34.5173 139.997 34.624 140.391 34.624L141.703 34.576L141.783 35.968C141.069 36.1067 140.525 36.176 140.151 36.176C139.245 36.176 138.621 35.968 138.279 35.552C137.949 35.136 137.783 34.352 137.783 33.2V29.488H136.759V28H137.783V25.68H139.511V28H141.719V29.488ZM143.582 28.864C144.136 28.1707 145.054 27.824 146.334 27.824C147.614 27.824 148.526 28.1707 149.07 28.864C149.624 29.5573 149.902 30.5973 149.902 31.984C149.902 33.3707 149.635 34.416 149.102 35.12C148.568 35.824 147.646 36.176 146.334 36.176C145.022 36.176 144.099 35.824 143.566 35.12C143.032 34.416 142.766 33.3707 142.766 31.984C142.766 30.5973 143.038 29.5573 143.582 28.864ZM144.894 34.064C145.139 34.4907 145.619 34.704 146.334 34.704C147.048 34.704 147.528 34.4907 147.774 34.064C148.019 33.6373 148.142 32.9387 148.142 31.968C148.142 30.9973 148.008 30.3093 147.742 29.904C147.486 29.4987 147.016 29.296 146.334 29.296C145.651 29.296 145.176 29.4987 144.91 29.904C144.654 30.3093 144.526 30.9973 144.526 31.968C144.526 32.9387 144.648 33.6373 144.894 34.064ZM151.634 39.44V28H153.362V28.496C154.098 28.048 154.786 27.824 155.426 27.824C156.482 27.824 157.255 28.1493 157.746 28.8C158.237 29.44 158.482 30.5227 158.482 32.048C158.482 33.5627 158.199 34.6293 157.634 35.248C157.079 35.8667 156.167 36.176 154.898 36.176C154.461 36.176 153.954 36.128 153.378 36.032V39.44H151.634ZM155.122 29.376C154.621 29.376 154.119 29.488 153.618 29.712L153.378 29.824V34.544C153.805 34.6293 154.274 34.672 154.786 34.672C155.511 34.672 156.013 34.464 156.29 34.048C156.567 33.632 156.706 32.9227 156.706 31.92C156.706 30.224 156.178 29.376 155.122 29.376Z" fill="#64748B"/>
<path d="M33.094 72.704C31.786 72.704 31.132 73.136 31.132 74C31.132 74.384 31.294 74.678 31.618 74.882C31.942 75.086 32.698 75.38 33.886 75.764C35.086 76.148 35.926 76.586 36.406 77.078C36.886 77.558 37.126 78.302 37.126 79.31C37.126 80.594 36.736 81.566 35.956 82.226C35.176 82.886 34.156 83.216 32.896 83.216C31.96 83.216 30.814 83.072 29.458 82.784L28.81 82.658L29.062 80.732C30.67 80.948 31.9 81.056 32.752 81.056C34.024 81.056 34.66 80.528 34.66 79.472C34.66 79.088 34.51 78.788 34.21 78.572C33.922 78.356 33.34 78.122 32.464 77.87C31.072 77.474 30.088 77.006 29.512 76.466C28.948 75.914 28.666 75.152 28.666 74.18C28.666 72.956 29.038 72.044 29.782 71.444C30.526 70.844 31.546 70.544 32.842 70.544C33.73 70.544 34.858 70.664 36.226 70.904L36.874 71.03L36.676 72.992C34.984 72.8 33.79 72.704 33.094 72.704ZM43.8051 76.052H41.5911V79.742C41.5911 80.102 41.5971 80.36 41.6091 80.516C41.6331 80.66 41.6991 80.786 41.8071 80.894C41.9271 81.002 42.1071 81.056 42.3471 81.056L43.7151 81.02L43.8231 82.946C43.0191 83.126 42.4071 83.216 41.9871 83.216C40.9071 83.216 40.1691 82.976 39.7731 82.496C39.3771 82.004 39.1791 81.104 39.1791 79.796V76.052H38.1171V74H39.1791V71.498H41.5911V74H43.8051V76.052ZM52.2698 76.808V80.552C52.2938 80.84 52.3418 81.044 52.4138 81.164C52.4858 81.272 52.6358 81.35 52.8638 81.398L52.7918 83.216C52.1798 83.216 51.6878 83.174 51.3158 83.09C50.9558 83.006 50.5898 82.838 50.2178 82.586C49.3538 83.006 48.4718 83.216 47.5718 83.216C45.7118 83.216 44.7818 82.232 44.7818 80.264C44.7818 79.304 45.0398 78.626 45.5558 78.23C46.0718 77.822 46.8638 77.582 47.9318 77.51L49.8578 77.366V76.808C49.8578 76.436 49.7738 76.184 49.6058 76.052C49.4378 75.908 49.1678 75.836 48.7958 75.836L45.4118 75.98L45.3398 74.306C46.6238 73.958 47.8418 73.784 48.9938 73.784C50.1578 73.784 50.9918 74.024 51.4958 74.504C52.0118 74.984 52.2698 75.752 52.2698 76.808ZM48.2198 79.184C47.5478 79.244 47.2118 79.604 47.2118 80.264C47.2118 80.924 47.5058 81.254 48.0938 81.254C48.5498 81.254 49.0478 81.182 49.5878 81.038L49.8578 80.966V79.04L48.2198 79.184ZM59.5551 76.052H57.3411V79.742C57.3411 80.102 57.3471 80.36 57.3591 80.516C57.3831 80.66 57.4491 80.786 57.5571 80.894C57.6771 81.002 57.8571 81.056 58.0971 81.056L59.4651 81.02L59.5731 82.946C58.7691 83.126 58.1571 83.216 57.7371 83.216C56.6571 83.216 55.9191 82.976 55.5231 82.496C55.1271 82.004 54.9291 81.104 54.9291 79.796V76.052H53.8671V74H54.9291V71.498H57.3411V74H59.5551V76.052ZM61.6118 75.026C62.2478 74.198 63.3098 73.784 64.7978 73.784C66.2858 73.784 67.3478 74.198 67.9838 75.026C68.6198 75.842 68.9378 76.994 68.9378 78.482C68.9378 81.638 67.5578 83.216 64.7978 83.216C62.0378 83.216 60.6578 81.638 60.6578 78.482C60.6578 76.994 60.9758 75.842 61.6118 75.026ZM63.4658 80.516C63.7178 80.948 64.1618 81.164 64.7978 81.164C65.4338 81.164 65.8718 80.948 66.1118 80.516C66.3638 80.084 66.4898 79.406 66.4898 78.482C66.4898 77.558 66.3638 76.886 66.1118 76.466C65.8718 76.046 65.4338 75.836 64.7978 75.836C64.1618 75.836 63.7178 76.046 63.4658 76.466C63.2258 76.886 63.1058 77.558 63.1058 78.482C63.1058 79.406 63.2258 80.084 63.4658 80.516ZM82.3109 70.4V83H79.9169V82.622C79.0769 83.018 78.3509 83.216 77.7389 83.216C76.4309 83.216 75.5189 82.838 75.0029 82.082C74.4869 81.326 74.2289 80.132 74.2289 78.5C74.2289 76.856 74.5349 75.662 75.1469 74.918C75.7709 74.162 76.7069 73.784 77.9549 73.784C78.3389 73.784 78.8729 73.844 79.5569 73.964L79.8989 74.036V70.4H82.3109ZM79.6469 80.84L79.8989 80.786V76.052C79.2389 75.932 78.6509 75.872 78.1349 75.872C77.1629 75.872 76.6769 76.736 76.6769 78.464C76.6769 79.4 76.7849 80.066 77.0009 80.462C77.2169 80.858 77.5709 81.056 78.0629 81.056C78.5669 81.056 79.0949 80.984 79.6469 80.84ZM86.5198 79.526C86.5318 80.078 86.6758 80.48 86.9518 80.732C87.2398 80.972 87.6478 81.092 88.1758 81.092C89.2918 81.092 90.2878 81.056 91.1638 80.984L91.6678 80.93L91.7038 82.712C90.3238 83.048 89.0758 83.216 87.9598 83.216C86.6038 83.216 85.6198 82.856 85.0078 82.136C84.3958 81.416 84.0898 80.246 84.0898 78.626C84.0898 75.398 85.4158 73.784 88.0678 73.784C90.6838 73.784 91.9918 75.14 91.9918 77.852L91.8118 79.526H86.5198ZM89.6158 77.69C89.6158 76.97 89.5018 76.472 89.2738 76.196C89.0458 75.908 88.6438 75.764 88.0678 75.764C87.5038 75.764 87.1018 75.914 86.8618 76.214C86.6338 76.502 86.5138 76.994 86.5018 77.69H89.6158ZM96.5596 76.052V83H94.1476V76.052H93.1756V74H94.1476V73.604C94.1476 72.308 94.3396 71.414 94.7236 70.922C95.1076 70.43 95.7916 70.184 96.7756 70.184C97.2076 70.184 97.7656 70.244 98.4496 70.364L98.8276 70.418L98.7916 72.38C98.2636 72.356 97.8196 72.344 97.4596 72.344C97.0996 72.344 96.8596 72.44 96.7396 72.632C96.6196 72.824 96.5596 73.154 96.5596 73.622V74H98.7376V76.052H96.5596ZM107.043 76.808V80.552C107.067 80.84 107.115 81.044 107.187 81.164C107.259 81.272 107.409 81.35 107.637 81.398L107.565 83.216C106.953 83.216 106.461 83.174 106.089 83.09C105.729 83.006 105.363 82.838 104.991 82.586C104.127 83.006 103.245 83.216 102.345 83.216C100.485 83.216 99.5552 82.232 99.5552 80.264C99.5552 79.304 99.8132 78.626 100.329 78.23C100.845 77.822 101.637 77.582 102.705 77.51L104.631 77.366V76.808C104.631 76.436 104.547 76.184 104.379 76.052C104.211 75.908 103.941 75.836 103.569 75.836L100.185 75.98L100.113 74.306C101.397 73.958 102.615 73.784 103.767 73.784C104.931 73.784 105.765 74.024 106.269 74.504C106.785 74.984 107.043 75.752 107.043 76.808ZM102.993 79.184C102.321 79.244 101.985 79.604 101.985 80.264C101.985 80.924 102.279 81.254 102.867 81.254C103.323 81.254 103.821 81.182 104.361 81.038L104.631 80.966V79.04L102.993 79.184ZM114.653 74H117.065V83H114.671V82.496C113.807 82.976 113.057 83.216 112.421 83.216C111.173 83.216 110.333 82.874 109.901 82.19C109.469 81.494 109.253 80.336 109.253 78.716V74H111.665V78.752C111.665 79.64 111.737 80.246 111.881 80.57C112.025 80.894 112.373 81.056 112.925 81.056C113.453 81.056 113.951 80.972 114.419 80.804L114.653 80.732V74ZM119.4 83V70.4H121.812V83H119.4ZM129.129 76.052H126.915V79.742C126.915 80.102 126.921 80.36 126.933 80.516C126.957 80.66 127.023 80.786 127.131 80.894C127.251 81.002 127.431 81.056 127.671 81.056L129.039 81.02L129.147 82.946C128.343 83.126 127.731 83.216 127.311 83.216C126.231 83.216 125.493 82.976 125.097 82.496C124.701 82.004 124.503 81.104 124.503 79.796V76.052H123.441V74H124.503V71.498H126.915V74H129.129V76.052Z" fill="#64748B"/>
<mask id="path-4-inside-1_900_47663" fill="white">
<path d="M28 115H1293V171H28V115Z"/>
</mask>
<path d="M28 115H1293V171H28V115Z" fill="white"/>
<path d="M1293 170H28V172H1293V170Z" fill="#BFDFFF" mask="url(#path-4-inside-1_900_47663)"/>
<path d="M64.95 145.55L58.56 151.94C57.16 153.34 54.86 153.34 53.45 151.94L47.06 145.55C45.66 144.15 45.66 141.85 47.06 140.44L53.45 134.05C54.85 132.65 57.15 132.65 58.56 134.05L64.95 140.44C66.35 141.85 66.35 144.15 64.95 145.55Z" fill="#003366"/>
<path d="M80.234 139.452V137.67H89.234V139.452H85.76V150H83.744V139.452H80.234ZM90.6626 150V141H92.6246V150H90.6626ZM90.6626 139.47V137.4H92.6246V139.47H90.6626ZM99.8464 142.674H97.3624V146.634C97.3624 147.366 97.4164 147.852 97.5244 148.092C97.6324 148.332 97.9084 148.452 98.3524 148.452L99.8284 148.398L99.9184 149.964C99.1144 150.12 98.5024 150.198 98.0824 150.198C97.0624 150.198 96.3604 149.964 95.9764 149.496C95.6044 149.028 95.4184 148.146 95.4184 146.85V142.674H94.2664V141H95.4184V138.39H97.3624V141H99.8464V142.674ZM101.564 150V137.256H103.526V150H101.564ZM112.416 148.38L112.92 148.326L112.956 149.784C111.588 150.06 110.376 150.198 109.32 150.198C107.988 150.198 107.028 149.832 106.44 149.1C105.864 148.368 105.576 147.198 105.576 145.59C105.576 142.398 106.878 140.802 109.482 140.802C112.002 140.802 113.262 142.176 113.262 144.924L113.136 146.328H107.556C107.568 147.072 107.73 147.618 108.042 147.966C108.354 148.314 108.936 148.488 109.788 148.488C110.64 148.488 111.516 148.452 112.416 148.38ZM111.336 144.816C111.336 143.928 111.192 143.31 110.904 142.962C110.628 142.602 110.154 142.422 109.482 142.422C108.81 142.422 108.318 142.608 108.006 142.98C107.706 143.352 107.55 143.964 107.538 144.816H111.336Z" fill="#003366"/>
<path d="M80 151.98H104.822V152.52H80V151.98ZM104.82 151.98H113.964V152.52H104.82V151.98Z" fill="#003366"/>
<path d="M1265 153C1270.5 153 1275 148.5 1275 143C1275 137.5 1270.5 133 1265 133C1259.5 133 1255 137.5 1255 143C1255 148.5 1259.5 153 1265 153Z" stroke="#003366" stroke-width="1.5" stroke-linecap="round" stroke-linejoin="round"/>
<path d="M1261 143H1269" stroke="#003366" stroke-width="1.5" stroke-linecap="round" stroke-linejoin="round"/>
<path d="M1265 147V139" stroke="#003366" stroke-width="1.5" stroke-linecap="round" stroke-linejoin="round"/>
<path d="M33.094 203.704C31.786 203.704 31.132 204.136 31.132 205C31.132 205.384 31.294 205.678 31.618 205.882C31.942 206.086 32.698 206.38 33.886 206.764C35.086 207.148 35.926 207.586 36.406 208.078C36.886 208.558 37.126 209.302 37.126 210.31C37.126 211.594 36.736 212.566 35.956 213.226C35.176 213.886 34.156 214.216 32.896 214.216C31.96 214.216 30.814 214.072 29.458 213.784L28.81 213.658L29.062 211.732C30.67 211.948 31.9 212.056 32.752 212.056C34.024 212.056 34.66 211.528 34.66 210.472C34.66 210.088 34.51 209.788 34.21 209.572C33.922 209.356 33.34 209.122 32.464 208.87C31.072 208.474 30.088 208.006 29.512 207.466C28.948 206.914 28.666 206.152 28.666 205.18C28.666 203.956 29.038 203.044 29.782 202.444C30.526 201.844 31.546 201.544 32.842 201.544C33.73 201.544 34.858 201.664 36.226 201.904L36.874 202.03L36.676 203.992C34.984 203.8 33.79 203.704 33.094 203.704ZM43.8051 207.052H41.5911V210.742C41.5911 211.102 41.5971 211.36 41.6091 211.516C41.6331 211.66 41.6991 211.786 41.8071 211.894C41.9271 212.002 42.1071 212.056 42.3471 212.056L43.7151 212.02L43.8231 213.946C43.0191 214.126 42.4071 214.216 41.9871 214.216C40.9071 214.216 40.1691 213.976 39.7731 213.496C39.3771 213.004 39.1791 212.104 39.1791 210.796V207.052H38.1171V205H39.1791V202.498H41.5911V205H43.8051V207.052ZM52.2698 207.808V211.552C52.2938 211.84 52.3418 212.044 52.4138 212.164C52.4858 212.272 52.6358 212.35 52.8638 212.398L52.7918 214.216C52.1798 214.216 51.6878 214.174 51.3158 214.09C50.9558 214.006 50.5898 213.838 50.2178 213.586C49.3538 214.006 48.4718 214.216 47.5718 214.216C45.7118 214.216 44.7818 213.232 44.7818 211.264C44.7818 210.304 45.0398 209.626 45.5558 209.23C46.0718 208.822 46.8638 208.582 47.9318 208.51L49.8578 208.366V207.808C49.8578 207.436 49.7738 207.184 49.6058 207.052C49.4378 206.908 49.1678 206.836 48.7958 206.836L45.4118 206.98L45.3398 205.306C46.6238 204.958 47.8418 204.784 48.9938 204.784C50.1578 204.784 50.9918 205.024 51.4958 205.504C52.0118 205.984 52.2698 206.752 52.2698 207.808ZM48.2198 210.184C47.5478 210.244 47.2118 210.604 47.2118 211.264C47.2118 211.924 47.5058 212.254 48.0938 212.254C48.5498 212.254 49.0478 212.182 49.5878 212.038L49.8578 211.966V210.04L48.2198 210.184ZM59.5551 207.052H57.3411V210.742C57.3411 211.102 57.3471 211.36 57.3591 211.516C57.3831 211.66 57.4491 211.786 57.5571 211.894C57.6771 212.002 57.8571 212.056 58.0971 212.056L59.4651 212.02L59.5731 213.946C58.7691 214.126 58.1571 214.216 57.7371 214.216C56.6571 214.216 55.9191 213.976 55.5231 213.496C55.1271 213.004 54.9291 212.104 54.9291 210.796V207.052H53.8671V205H54.9291V202.498H57.3411V205H59.5551V207.052ZM61.6118 206.026C62.2478 205.198 63.3098 204.784 64.7978 204.784C66.2858 204.784 67.3478 205.198 67.9838 206.026C68.6198 206.842 68.9378 207.994 68.9378 209.482C68.9378 212.638 67.5578 214.216 64.7978 214.216C62.0378 214.216 60.6578 212.638 60.6578 209.482C60.6578 207.994 60.9758 206.842 61.6118 206.026ZM63.4658 211.516C63.7178 211.948 64.1618 212.164 64.7978 212.164C65.4338 212.164 65.8718 211.948 66.1118 211.516C66.3638 211.084 66.4898 210.406 66.4898 209.482C66.4898 208.558 66.3638 207.886 66.1118 207.466C65.8718 207.046 65.4338 206.836 64.7978 206.836C64.1618 206.836 63.7178 207.046 63.4658 207.466C63.2258 207.886 63.1058 208.558 63.1058 209.482C63.1058 210.406 63.2258 211.084 63.4658 211.516ZM82.3109 201.4V214H79.9169V213.622C79.0769 214.018 78.3509 214.216 77.7389 214.216C76.4309 214.216 75.5189 213.838 75.0029 213.082C74.4869 212.326 74.2289 211.132 74.2289 209.5C74.2289 207.856 74.5349 206.662 75.1469 205.918C75.7709 205.162 76.7069 204.784 77.9549 204.784C78.3389 204.784 78.8729 204.844 79.5569 204.964L79.8989 205.036V201.4H82.3109ZM79.6469 211.84L79.8989 211.786V207.052C79.2389 206.932 78.6509 206.872 78.1349 206.872C77.1629 206.872 76.6769 207.736 76.6769 209.464C76.6769 210.4 76.7849 211.066 77.0009 211.462C77.2169 211.858 77.5709 212.056 78.0629 212.056C78.5669 212.056 79.0949 211.984 79.6469 211.84ZM84.5398 214V205H86.9518V214H84.5398ZM84.5398 203.848V201.4H86.9518V203.848H84.5398ZM95.9795 207.052V214H93.5675V207.052H92.5955V205H93.5675V204.604C93.5675 203.308 93.7595 202.414 94.1435 201.922C94.5275 201.43 95.2115 201.184 96.1955 201.184C96.6275 201.184 97.1855 201.244 97.8695 201.364L98.2475 201.418L98.2115 203.38C97.6835 203.356 97.2395 203.344 96.8795 203.344C96.5195 203.344 96.2795 203.44 96.1595 203.632C96.0395 203.824 95.9795 204.154 95.9795 204.622V205H98.1575V207.052H95.9795ZM99.9848 206.026C100.621 205.198 101.683 204.784 103.171 204.784C104.659 204.784 105.721 205.198 106.357 206.026C106.993 206.842 107.311 207.994 107.311 209.482C107.311 212.638 105.931 214.216 103.171 214.216C100.411 214.216 99.0308 212.638 99.0308 209.482C99.0308 207.994 99.3488 206.842 99.9848 206.026ZM101.839 211.516C102.091 211.948 102.535 212.164 103.171 212.164C103.807 212.164 104.245 211.948 104.485 211.516C104.737 211.084 104.863 210.406 104.863 209.482C104.863 208.558 104.737 207.886 104.485 207.466C104.245 207.046 103.807 206.836 103.171 206.836C102.535 206.836 102.091 207.046 101.839 207.466C101.599 207.886 101.479 208.558 101.479 209.482C101.479 210.406 101.599 211.084 101.839 211.516ZM112.445 204.784C113.069 204.784 113.867 204.88 114.839 205.072L115.325 205.18L115.253 207.088C114.305 206.992 113.603 206.944 113.147 206.944C112.319 206.944 111.767 207.124 111.491 207.484C111.227 207.832 111.095 208.498 111.095 209.482C111.095 210.466 111.227 211.144 111.491 211.516C111.767 211.876 112.325 212.056 113.165 212.056L115.253 211.912L115.325 213.838C114.041 214.09 113.063 214.216 112.391 214.216C111.059 214.216 110.099 213.844 109.511 213.1C108.935 212.344 108.647 211.138 108.647 209.482C108.647 207.826 108.947 206.632 109.547 205.9C110.147 205.156 111.113 204.784 112.445 204.784ZM122.422 205H124.834V214H122.44V213.496C121.576 213.976 120.826 214.216 120.19 214.216C118.942 214.216 118.102 213.874 117.67 213.19C117.238 212.494 117.022 211.336 117.022 209.716V205H119.434V209.752C119.434 210.64 119.506 211.246 119.65 211.57C119.794 211.894 120.142 212.056 120.694 212.056C121.222 212.056 121.72 211.972 122.188 211.804L122.422 211.732V205ZM133.523 207.25C132.035 207.058 130.991 206.962 130.391 206.962C129.803 206.962 129.419 207.016 129.239 207.124C129.071 207.232 128.987 207.406 128.987 207.646C128.987 207.874 129.101 208.036 129.329 208.132C129.569 208.216 130.169 208.348 131.129 208.528C132.101 208.696 132.791 208.978 133.199 209.374C133.607 209.77 133.811 210.412 133.811 211.3C133.811 213.244 132.605 214.216 130.193 214.216C129.401 214.216 128.441 214.108 127.313 213.892L126.737 213.784L126.809 211.768C128.297 211.96 129.329 212.056 129.905 212.056C130.493 212.056 130.889 212.002 131.093 211.894C131.309 211.774 131.417 211.6 131.417 211.372C131.417 211.144 131.303 210.976 131.075 210.868C130.859 210.76 130.283 210.628 129.347 210.472C128.423 210.316 127.733 210.052 127.277 209.68C126.821 209.308 126.593 208.648 126.593 207.7C126.593 206.74 126.917 206.02 127.565 205.54C128.213 205.048 129.047 204.802 130.067 204.802C130.775 204.802 131.741 204.916 132.965 205.144L133.559 205.252L133.523 207.25Z" fill="#64748B"/>
<rect x="30" y="248" width="1261" height="52" rx="2" fill="white"/>
<rect x="30" y="248" width="1261" height="52" rx="2" stroke="#BFDFFF" stroke-width="4"/>
<path d="M64.95 276.55L58.56 282.94C57.16 284.34 54.86 284.34 53.45 282.94L47.06 276.55C45.66 275.15 45.66 272.85 47.06 271.44L53.45 265.05C54.85 263.65 57.15 263.65 58.56 265.05L64.95 271.44C66.35 272.85 66.35 275.15 64.95 276.55Z" fill="#003366"/>
<path d="M80.234 270.452V268.67H89.234V270.452H85.76V281H83.744V270.452H80.234ZM90.6626 281V272H92.6246V281H90.6626ZM90.6626 270.47V268.4H92.6246V270.47H90.6626ZM99.8464 273.674H97.3624V277.634C97.3624 278.366 97.4164 278.852 97.5244 279.092C97.6324 279.332 97.9084 279.452 98.3524 279.452L99.8284 279.398L99.9184 280.964C99.1144 281.12 98.5024 281.198 98.0824 281.198C97.0624 281.198 96.3604 280.964 95.9764 280.496C95.6044 280.028 95.4184 279.146 95.4184 277.85V273.674H94.2664V272H95.4184V269.39H97.3624V272H99.8464V273.674ZM101.564 281V268.256H103.526V281H101.564ZM112.416 279.38L112.92 279.326L112.956 280.784C111.588 281.06 110.376 281.198 109.32 281.198C107.988 281.198 107.028 280.832 106.44 280.1C105.864 279.368 105.576 278.198 105.576 276.59C105.576 273.398 106.878 271.802 109.482 271.802C112.002 271.802 113.262 273.176 113.262 275.924L113.136 277.328H107.556C107.568 278.072 107.73 278.618 108.042 278.966C108.354 279.314 108.936 279.488 109.788 279.488C110.64 279.488 111.516 279.452 112.416 279.38ZM111.336 275.816C111.336 274.928 111.192 274.31 110.904 273.962C110.628 273.602 110.154 273.422 109.482 273.422C108.81 273.422 108.318 273.608 108.006 273.98C107.706 274.352 107.55 274.964 107.538 275.816H111.336Z" fill="#003366"/>
<path d="M80 282.98H104.822V283.52H80V282.98ZM104.82 282.98H113.964V283.52H104.82V282.98Z" fill="#003366"/>
<path d="M1265 284C1270.5 284 1275 279.5 1275 274C1275 268.5 1270.5 264 1265 264C1259.5 264 1255 268.5 1255 274C1255 279.5 1259.5 284 1265 284Z" stroke="#003366" stroke-width="1.5" stroke-linecap="round" stroke-linejoin="round"/>
<path d="M1261 274H1269" stroke="#003366" stroke-width="1.5" stroke-linecap="round" stroke-linejoin="round"/>
<path d="M1265 278V270" stroke="#003366" stroke-width="1.5" stroke-linecap="round" stroke-linejoin="round"/>
</svg>
