<?xml version="1.0" encoding="UTF-8"?><svg id="a" xmlns="http://www.w3.org/2000/svg" width="64" height="42" viewBox="0 0 64 42"><path d="m2.9,10.74h.91v6.25h3v.76h-3.9v-7.01Z" style="fill:#e6e6e6; stroke-width:0px;"/><path d="m12.19,15.19c0,1.86-1.29,2.67-2.51,2.67-1.36,0-2.41-1-2.41-2.59,0-1.69,1.1-2.67,2.5-2.67s2.42,1.05,2.42,2.59Zm-4,.05c0,1.1.63,1.94,1.53,1.94s1.53-.82,1.53-1.96c0-.85-.43-1.94-1.51-1.94s-1.55,1-1.55,1.96Z" style="fill:#e6e6e6; stroke-width:0px;"/><path d="m13.34,14.29c0-.59-.01-1.1-.04-1.57h.8l.03.99h.04c.23-.68.78-1.1,1.39-1.1.1,0,.18.01.26.03v.86c-.09-.02-.19-.03-.31-.03-.65,0-1.1.49-1.23,1.18-.02.12-.04.27-.04.43v2.69h-.91v-3.47Z" style="fill:#e6e6e6; stroke-width:0px;"/><path d="m17.15,15.4c.02,1.24.81,1.75,1.73,1.75.66,0,1.05-.11,1.39-.26l.16.66c-.32.15-.87.31-1.68.31-1.55,0-2.48-1.02-2.48-2.54s.89-2.72,2.36-2.72c1.64,0,2.08,1.45,2.08,2.37,0,.19-.02.33-.03.43h-3.54Zm2.68-.66c.01-.58-.24-1.49-1.27-1.49-.93,0-1.33.85-1.4,1.49h2.67Z" style="fill:#e6e6e6; stroke-width:0px;"/><path d="m21.85,14.08c0-.52-.01-.95-.04-1.36h.8l.04.81h.03c.28-.48.75-.93,1.58-.93.69,0,1.21.42,1.43,1.01h.02c.16-.28.35-.5.56-.66.3-.23.63-.35,1.11-.35.67,0,1.65.44,1.65,2.19v2.97h-.89v-2.85c0-.97-.35-1.55-1.09-1.55-.52,0-.93.38-1.08.83-.04.12-.07.29-.07.46v3.11h-.89v-3.02c0-.8-.35-1.38-1.05-1.38-.57,0-.99.46-1.13.92-.05.14-.07.29-.07.45v3.04h-.89v-3.67Z" style="fill:#e6e6e6; stroke-width:0px;"/><path d="m33.75,11.3c.01.31-.22.56-.58.56-.32,0-.55-.25-.55-.56s.24-.57.57-.57.56.25.56.57Zm-1.02,6.45v-5.04h.92v5.04h-.92Z" style="fill:#e6e6e6; stroke-width:0px;"/><path d="m35.17,14.36c0-.65-.02-1.17-.04-1.64h.82l.04.86h.02c.38-.61.97-.98,1.79-.98,1.22,0,2.13,1.03,2.13,2.56,0,1.81-1.1,2.71-2.29,2.71-.67,0-1.25-.29-1.55-.79h-.02v2.74h-.91v-5.45Zm.91,1.34c0,.14.02.26.04.38.17.63.72,1.07,1.37,1.07.97,0,1.53-.79,1.53-1.95,0-1.01-.53-1.87-1.5-1.87-.62,0-1.21.45-1.38,1.13-.03.11-.06.25-.06.37v.86Z" style="fill:#e6e6e6; stroke-width:0px;"/><path d="m40.96,16.82c.27.18.75.36,1.21.36.67,0,.98-.33.98-.75,0-.44-.26-.68-.94-.93-.91-.32-1.33-.82-1.33-1.43,0-.81.66-1.48,1.74-1.48.51,0,.96.15,1.24.31l-.23.67c-.2-.12-.56-.29-1.03-.29-.54,0-.84.31-.84.69,0,.42.3.6.96.85.87.33,1.32.77,1.32,1.52,0,.88-.69,1.51-1.88,1.51-.55,0-1.06-.14-1.42-.34l.23-.7Z" style="fill:#e6e6e6; stroke-width:0px;"/><path d="m49.42,16.38c0,.52,0,.98.04,1.37h-.81l-.05-.82h-.02c-.24.41-.77.94-1.67.94-.79,0-1.74-.44-1.74-2.21v-2.94h.92v2.79c0,.96.29,1.6,1.12,1.6.61,0,1.04-.43,1.21-.83.05-.14.08-.3.08-.47v-3.09h.92v3.66Z" style="fill:#e6e6e6; stroke-width:0px;"/><path d="m50.93,14.08c0-.52-.01-.95-.04-1.36h.8l.04.81h.03c.28-.48.75-.93,1.58-.93.69,0,1.21.42,1.43,1.01h.02c.16-.28.35-.5.56-.66.3-.23.63-.35,1.11-.35.67,0,1.65.44,1.65,2.19v2.97h-.89v-2.85c0-.97-.35-1.55-1.09-1.55-.52,0-.93.38-1.08.83-.04.12-.07.29-.07.46v3.11h-.89v-3.02c0-.8-.35-1.38-1.05-1.38-.57,0-.99.46-1.13.92-.05.14-.07.29-.07.45v3.04h-.89v-3.67Z" style="fill:#e6e6e6; stroke-width:0px;"/><path d="m7.22,22.85v6.09c0,.45.01.96.04,1.3h-.82l-.04-.87h-.02c-.28.56-.89.99-1.72.99-1.22,0-2.15-1.03-2.15-2.56-.01-1.68,1.03-2.71,2.26-2.71.77,0,1.29.36,1.52.77h.02v-3.01h.92Zm-.92,4.4c0-.12,0-.27-.04-.39-.14-.58-.63-1.06-1.32-1.06-.95,0-1.51.83-1.51,1.95,0,1.02.5,1.86,1.49,1.86.61,0,1.18-.41,1.34-1.09.03-.12.04-.25.04-.4v-.87Z" style="fill:#e6e6e6; stroke-width:0px;"/><path d="m13.29,27.68c0,1.86-1.29,2.67-2.51,2.67-1.36,0-2.41-1-2.41-2.59,0-1.69,1.1-2.67,2.5-2.67s2.42,1.05,2.42,2.59Zm-4,.05c0,1.1.63,1.94,1.53,1.94s1.53-.82,1.53-1.96c0-.85-.43-1.94-1.51-1.94s-1.55,1-1.55,1.96Z" style="fill:#e6e6e6; stroke-width:0px;"/><path d="m14.45,22.85h.92v7.39h-.92v-7.39Z" style="fill:#e6e6e6; stroke-width:0px;"/><path d="m21.46,27.68c0,1.86-1.29,2.67-2.51,2.67-1.36,0-2.41-1-2.41-2.59,0-1.69,1.1-2.67,2.5-2.67s2.42,1.05,2.42,2.59Zm-4,.05c0,1.1.63,1.94,1.53,1.94s1.53-.82,1.53-1.96c0-.85-.43-1.94-1.51-1.94s-1.55,1-1.55,1.96Z" style="fill:#e6e6e6; stroke-width:0px;"/><path d="m22.61,26.77c0-.59-.01-1.1-.04-1.57h.8l.03.99h.04c.23-.68.78-1.1,1.39-1.1.1,0,.18.01.26.03v.86c-.09-.02-.19-.03-.31-.03-.65,0-1.1.49-1.23,1.18-.02.12-.04.27-.04.43v2.68h-.91v-3.47Z" style="fill:#e6e6e6; stroke-width:0px;"/><path d="m28.09,29.3c.27.18.75.36,1.21.36.67,0,.98-.33.98-.75,0-.44-.26-.68-.94-.93-.91-.32-1.33-.82-1.33-1.43,0-.81.66-1.48,1.74-1.48.51,0,.96.15,1.24.31l-.23.67c-.2-.12-.56-.29-1.03-.29-.54,0-.84.31-.84.69,0,.42.3.6.96.85.87.33,1.32.77,1.32,1.52,0,.88-.69,1.51-1.88,1.51-.55,0-1.06-.14-1.42-.34l.23-.7Z" style="fill:#e6e6e6; stroke-width:0px;"/><path d="m33.36,23.78c.01.31-.22.56-.58.56-.32,0-.55-.25-.55-.56s.24-.57.57-.57.56.25.56.57Zm-1.02,6.45v-5.04h.92v5.04h-.92Z" style="fill:#e6e6e6; stroke-width:0px;"/><path d="m35.87,23.75v1.45h1.31v.7h-1.31v2.72c0,.62.18.98.69.98.24,0,.42-.03.53-.06l.04.69c-.18.07-.46.12-.81.12-.43,0-.77-.14-.99-.39-.26-.27-.35-.72-.35-1.31v-2.75h-.78v-.7h.78v-1.21l.89-.24Z" style="fill:#e6e6e6; stroke-width:0px;"/><path d="m43.21,30.24l-.07-.63h-.03c-.28.4-.82.75-1.54.75-1.02,0-1.54-.72-1.54-1.45,0-1.22,1.08-1.88,3.03-1.87v-.1c0-.42-.11-1.17-1.14-1.17-.47,0-.96.15-1.31.37l-.21-.6c.42-.27,1.02-.45,1.65-.45,1.54,0,1.92,1.05,1.92,2.06v1.88c0,.44.02.86.08,1.21h-.83Zm-.14-2.57c-1-.02-2.13.16-2.13,1.13,0,.59.4.88.86.88.66,0,1.07-.42,1.22-.84.03-.09.05-.2.05-.29v-.87Z" style="fill:#e6e6e6; stroke-width:0px;"/><path d="m45.43,26.56c0-.52-.01-.95-.04-1.36h.8l.04.81h.03c.28-.48.75-.93,1.58-.93.69,0,1.21.42,1.43,1.01h.02c.16-.28.35-.5.56-.66.3-.23.63-.35,1.11-.35.67,0,1.65.44,1.65,2.19v2.97h-.89v-2.85c0-.97-.35-1.55-1.09-1.55-.52,0-.93.39-1.08.83-.04.12-.07.29-.07.46v3.11h-.89v-3.02c0-.8-.35-1.38-1.05-1.38-.57,0-.99.46-1.13.92-.05.14-.07.29-.07.45v3.04h-.89v-3.67Z" style="fill:#e6e6e6; stroke-width:0px;"/><path d="m54.62,27.88c.02,1.24.81,1.75,1.73,1.75.66,0,1.05-.11,1.39-.26l.16.66c-.32.15-.87.31-1.68.31-1.55,0-2.48-1.02-2.48-2.54s.89-2.72,2.36-2.72c1.64,0,2.08,1.45,2.08,2.37,0,.19-.02.33-.03.43h-3.54Zm2.68-.66c.01-.58-.24-1.49-1.27-1.49-.93,0-1.33.85-1.4,1.49h2.67Z" style="fill:#e6e6e6; stroke-width:0px;"/><path d="m60.42,23.75v1.45h1.31v.7h-1.31v2.72c0,.62.18.98.69.98.24,0,.42-.03.53-.06l.04.69c-.18.07-.46.12-.81.12-.43,0-.77-.14-.99-.39-.26-.27-.35-.72-.35-1.31v-2.75h-.78v-.7h.78v-1.21l.89-.24Z" style="fill:#e6e6e6; stroke-width:0px;"/></svg>