<?xml version="1.0" encoding="utf-8"?>
<!-- Generator: Adobe Illustrator 27.8.0, SVG Export Plug-In . SVG Version: 6.00 Build 0)  -->
<svg version="1.1" id="Layer_1" xmlns="http://www.w3.org/2000/svg" xmlns:xlink="http://www.w3.org/1999/xlink" x="0px" y="0px"
	 viewBox="0 0 84 84" style="enable-background:new 0 0 84 84;" xml:space="preserve">
<style type="text/css">
	.st0{fill:#94A3B8;}
	.st1{fill:#64748B;}
	.st2{fill:none;stroke:#FFFFFF;stroke-width:1.6667;stroke-linecap:round;stroke-linejoin:round;}
</style>
<path class="st0" d="M42,0L42,0c23.2,0,42,18.8,42,42l0,0c0,23.2-18.8,42-42,42l0,0C18.8,84,0,65.2,0,42l0,0C0,18.8,18.8,0,42,0z"/>
<path class="st1" d="M42,7.4L42,7.4c19.1,0,34.6,15.5,34.6,34.6l0,0c0,19.1-15.5,34.6-34.6,34.6l0,0C22.9,76.6,7.4,61.1,7.4,42l0,0
	C7.4,22.9,22.9,7.4,42,7.4z"/>
<path class="st2" d="M32,51.5c-1.1-0.3-2.1-0.8-2.9-1.6c-1.5-1.3-2.5-3.2-2.6-5.3c-0.1-2,0.5-4,1.9-5.6c0.7-0.8,1.5-1.4,2.4-1.8
	c0.9-0.4,1.9-0.7,2.9-0.8c0.1,0,0.2,0,0.3-0.1c0.1-0.1,0.2-0.1,0.2-0.2c0.7-2,2.1-3.7,3.9-4.8c1.8-1.1,3.9-1.6,6-1.3
	c2.1,0.3,4.1,1.2,5.5,2.7c1.5,1.5,2.4,3.5,2.6,5.6c0,0.1,0.1,0.2,0.1,0.3c0.1,0.1,0.2,0.1,0.3,0.2c1.6,0.4,2.9,1.3,3.9,2.6
	c0.9,1.3,1.3,2.9,1.2,4.5c-0.2,1.6-0.9,3.1-2.1,4.1c-0.9,0.8-2,1.3-3.2,1.6"/>
<path class="st2" d="M47.4,48.4l-4.8-4.8l-4.8,4.8"/>
<path class="st2" d="M42.6,43.6v13.2"/>
</svg>
