<?xml version="1.0" encoding="utf-8"?>
<!-- Generator: Adobe Illustrator 27.8.0, SVG Export Plug-In . SVG Version: 6.00 Build 0)  -->
<svg version="1.1" id="Layer_1" xmlns="http://www.w3.org/2000/svg" xmlns:xlink="http://www.w3.org/1999/xlink" x="0px" y="0px"
	 viewBox="0 0 84 84" style="enable-background:new 0 0 84 84;" xml:space="preserve">
<style type="text/css">
	.st0{fill:#E6F9EF;}
	.st1{fill:#CAF2DD;}
	.st2{fill:#1D7748;}
</style>
<path class="st0" d="M42,0L42,0c23.2,0,42,18.8,42,42l0,0c0,23.2-18.8,42-42,42l0,0C18.8,84,0,65.2,0,42l0,0C0,18.8,18.8,0,42,0z"/>
<path class="st1" d="M42,7.4L42,7.4c19.1,0,34.6,15.5,34.6,34.6l0,0c0,19.1-15.5,34.6-34.6,34.6l0,0C22.9,76.6,7.4,61.1,7.4,42l0,0
	C7.4,22.9,22.9,7.4,42,7.4z"/>
<path class="st2" d="M42,25.5c-9.1,0-16.5,7.4-16.5,16.5S32.9,58.5,42,58.5S58.5,51.1,58.5,42S51.1,25.5,42,25.5z M49.9,38.2
	l-9.4,9.3c-0.2,0.2-0.5,0.4-0.9,0.4c-0.3,0-0.7-0.1-0.9-0.4l-4.6-4.6c-0.5-0.5-0.5-1.3,0-1.8s1.3-0.5,1.8,0l3.8,3.8l8.5-8.5
	c0.5-0.5,1.3-0.5,1.8,0C50.4,37,50.4,37.8,49.9,38.2z"/>
</svg>
