<svg width="120" height="26" viewBox="0 0 120 26" fill="none" xmlns="http://www.w3.org/2000/svg">
<rect x="0.5" y="0.5" width="83" height="25" stroke="#9747FF"/>
<path d="M9.39477 20H1.71477V6.3H3.93477V18.02H9.39477V20ZM18.347 13.08V17.64C18.3603 17.9333 18.4336 18.1533 18.567 18.3C18.7136 18.4333 18.9336 18.52 19.227 18.56L19.167 20.22C18.0203 20.22 17.1336 19.9733 16.507 19.48C15.4403 19.9733 14.367 20.22 13.287 20.22C11.3003 20.22 10.307 19.16 10.307 17.04C10.307 16.0267 10.5736 15.2933 11.107 14.84C11.6536 14.3867 12.487 14.1133 13.607 14.02L16.187 13.8V13.08C16.187 12.5467 16.067 12.1733 15.827 11.96C15.6003 11.7467 15.2603 11.64 14.807 11.64C13.9536 11.64 12.887 11.6933 11.607 11.8L10.967 11.84L10.887 10.3C12.3403 9.95333 13.6736 9.78 14.887 9.78C16.1136 9.78 16.9936 10.0467 17.527 10.58C18.0736 11.1 18.347 11.9333 18.347 13.08ZM13.867 15.56C12.947 15.64 12.487 16.14 12.487 17.06C12.487 17.98 12.8936 18.44 13.707 18.44C14.3736 18.44 15.0803 18.3333 15.827 18.12L16.187 18V15.34L13.867 15.56ZM25.7437 9.78C27.117 9.78 28.1037 10.1667 28.7037 10.94C29.317 11.7 29.6237 13.0533 29.6237 15C29.6237 16.9467 29.2637 18.3067 28.5437 19.08C27.8237 19.84 26.557 20.22 24.7437 20.22C24.117 20.22 23.1237 20.16 21.7637 20.04L21.0837 19.98V5.84H23.2437V10.38C24.1637 9.98 24.997 9.78 25.7437 9.78ZM24.7437 18.28C25.8103 18.28 26.517 18.0333 26.8637 17.54C27.2237 17.0333 27.4037 16.18 27.4037 14.98C27.4037 13.78 27.2503 12.94 26.9437 12.46C26.6503 11.9667 26.1637 11.72 25.4837 11.72C24.8437 11.72 24.2037 11.82 23.5637 12.02L23.2437 12.12V18.2C23.977 18.2533 24.477 18.28 24.7437 18.28ZM38.9263 18.2L39.4863 18.14L39.5263 19.76C38.0063 20.0667 36.6597 20.22 35.4863 20.22C34.0063 20.22 32.9397 19.8133 32.2863 19C31.6463 18.1867 31.3263 16.8867 31.3263 15.1C31.3263 11.5533 32.773 9.78 35.6663 9.78C38.4663 9.78 39.8663 11.3067 39.8663 14.36L39.7263 15.92H33.5263C33.5397 16.7467 33.7197 17.3533 34.0663 17.74C34.413 18.1267 35.0597 18.32 36.0063 18.32C36.953 18.32 37.9263 18.28 38.9263 18.2ZM37.7263 14.24C37.7263 13.2533 37.5663 12.5667 37.2463 12.18C36.9397 11.78 36.413 11.58 35.6663 11.58C34.9197 11.58 34.373 11.7867 34.0263 12.2C33.693 12.6133 33.5197 13.2933 33.5063 14.24H37.7263ZM42.0826 20V5.84H44.2626V20H42.0826ZM56.7957 11.86H54.0357V16.26C54.0357 17.0733 54.0957 17.6133 54.2157 17.88C54.3357 18.1467 54.6424 18.28 55.1357 18.28L56.7757 18.22L56.8757 19.96C55.9824 20.1333 55.3024 20.22 54.8357 20.22C53.7024 20.22 52.9224 19.96 52.4957 19.44C52.0824 18.92 51.8757 17.94 51.8757 16.5V11.86H50.5957V10H51.8757V7.1H54.0357V10H56.7957V11.86ZM65.7037 18.2L66.2637 18.14L66.3037 19.76C64.7837 20.0667 63.437 20.22 62.2637 20.22C60.7837 20.22 59.717 19.8133 59.0637 19C58.4237 18.1867 58.1037 16.8867 58.1037 15.1C58.1037 11.5533 59.5503 9.78 62.4437 9.78C65.2437 9.78 66.6437 11.3067 66.6437 14.36L66.5037 15.92H60.3037C60.317 16.7467 60.497 17.3533 60.8437 17.74C61.1903 18.1267 61.837 18.32 62.7837 18.32C63.7303 18.32 64.7037 18.28 65.7037 18.2ZM64.5037 14.24C64.5037 13.2533 64.3437 12.5667 64.0237 12.18C63.717 11.78 63.1903 11.58 62.4437 11.58C61.697 11.58 61.1503 11.7867 60.8037 12.2C60.4703 12.6133 60.297 13.2933 60.2837 14.24H64.5037ZM67.7799 10H70.0999L72.0599 13.46L74.0399 10H76.3599L73.3799 14.92L76.3599 20H74.0399L72.0599 16.58L70.0999 20H67.7799L70.6799 14.98L67.7799 10ZM83.3973 11.86H80.6373V16.26C80.6373 17.0733 80.6973 17.6133 80.8173 17.88C80.9373 18.1467 81.2439 18.28 81.7373 18.28L83.3773 18.22L83.4773 19.96C82.5839 20.1333 81.9039 20.22 81.4373 20.22C80.3039 20.22 79.5239 19.96 79.0973 19.44C78.6839 18.92 78.4773 17.94 78.4773 16.5V11.86H77.1973V10H78.4773V7.1H80.6373V10H83.3973V11.86Z" fill="black"/>
<rect x="96.5" y="1.5" width="23" height="23" stroke="#9747FF"/>
<path d="M105.02 3.83821L99.63 8.03821C98.73 8.73821 98 10.2282 98 11.3582V18.7682C98 21.0882 99.89 22.9882 102.21 22.9882H113.79C116.11 22.9882 118 21.0882 118 18.7782V11.4982C118 10.2882 117.19 8.73821 116.2 8.04821L110.02 3.71821C108.62 2.73821 106.37 2.78821 105.02 3.83821Z" stroke="#003366" stroke-width="1.5" stroke-linecap="round" stroke-linejoin="round"/>
<path d="M108 18.9883V15.9883" stroke="#003366" stroke-width="1.5" stroke-linecap="round" stroke-linejoin="round"/>
</svg>
