<svg width="141" height="26" viewBox="0 0 141 26" fill="none" xmlns="http://www.w3.org/2000/svg">
<path d="M18.3948 20H10.7148V6.3H12.9348V18.02H18.3948V20ZM27.347 13.08V17.64C27.3603 17.9333 27.4336 18.1533 27.567 18.3C27.7136 18.4333 27.9336 18.52 28.227 18.56L28.167 20.22C27.0203 20.22 26.1336 19.9733 25.507 19.48C24.4403 19.9733 23.367 20.22 22.287 20.22C20.3003 20.22 19.307 19.16 19.307 17.04C19.307 16.0267 19.5736 15.2933 20.107 14.84C20.6536 14.3867 21.487 14.1133 22.607 14.02L25.187 13.8V13.08C25.187 12.5467 25.067 12.1733 24.827 11.96C24.6003 11.7467 24.2603 11.64 23.807 11.64C22.9536 11.64 21.887 11.6933 20.607 11.8L19.967 11.84L19.887 10.3C21.3403 9.95333 22.6736 9.78 23.887 9.78C25.1136 9.78 25.9936 10.0467 26.527 10.58C27.0736 11.1 27.347 11.9333 27.347 13.08ZM22.867 15.56C21.947 15.64 21.487 16.14 21.487 17.06C21.487 17.98 21.8936 18.44 22.707 18.44C23.3736 18.44 24.0803 18.3333 24.827 18.12L25.187 18V15.34L22.867 15.56ZM34.7437 9.78C36.117 9.78 37.1037 10.1667 37.7037 10.94C38.317 11.7 38.6237 13.0533 38.6237 15C38.6237 16.9467 38.2637 18.3067 37.5437 19.08C36.8237 19.84 35.557 20.22 33.7437 20.22C33.117 20.22 32.1237 20.16 30.7637 20.04L30.0837 19.98V5.84H32.2437V10.38C33.1637 9.98 33.997 9.78 34.7437 9.78ZM33.7437 18.28C34.8103 18.28 35.517 18.0333 35.8637 17.54C36.2237 17.0333 36.4037 16.18 36.4037 14.98C36.4037 13.78 36.2503 12.94 35.9437 12.46C35.6503 11.9667 35.1637 11.72 34.4837 11.72C33.8437 11.72 33.2037 11.82 32.5637 12.02L32.2437 12.12V18.2C32.977 18.2533 33.477 18.28 33.7437 18.28ZM47.9263 18.2L48.4863 18.14L48.5263 19.76C47.0063 20.0667 45.6597 20.22 44.4863 20.22C43.0063 20.22 41.9397 19.8133 41.2863 19C40.6463 18.1867 40.3263 16.8867 40.3263 15.1C40.3263 11.5533 41.773 9.78 44.6663 9.78C47.4663 9.78 48.8663 11.3067 48.8663 14.36L48.7263 15.92H42.5263C42.5397 16.7467 42.7197 17.3533 43.0663 17.74C43.413 18.1267 44.0597 18.32 45.0063 18.32C45.953 18.32 46.9263 18.28 47.9263 18.2ZM46.7263 14.24C46.7263 13.2533 46.5663 12.5667 46.2463 12.18C45.9397 11.78 45.413 11.58 44.6663 11.58C43.9197 11.58 43.373 11.7867 43.0263 12.2C42.693 12.6133 42.5197 13.2933 42.5063 14.24H46.7263ZM51.0826 20V5.84H53.2626V20H51.0826ZM65.7957 11.86H63.0357V16.26C63.0357 17.0733 63.0957 17.6133 63.2157 17.88C63.3357 18.1467 63.6424 18.28 64.1357 18.28L65.7757 18.22L65.8757 19.96C64.9824 20.1333 64.3024 20.22 63.8357 20.22C62.7024 20.22 61.9224 19.96 61.4957 19.44C61.0824 18.92 60.8757 17.94 60.8757 16.5V11.86H59.5957V10H60.8757V7.1H63.0357V10H65.7957V11.86ZM74.7037 18.2L75.2637 18.14L75.3037 19.76C73.7837 20.0667 72.437 20.22 71.2637 20.22C69.7837 20.22 68.717 19.8133 68.0637 19C67.4237 18.1867 67.1037 16.8867 67.1037 15.1C67.1037 11.5533 68.5503 9.78 71.4437 9.78C74.2437 9.78 75.6437 11.3067 75.6437 14.36L75.5037 15.92H69.3037C69.317 16.7467 69.497 17.3533 69.8437 17.74C70.1903 18.1267 70.837 18.32 71.7837 18.32C72.7303 18.32 73.7037 18.28 74.7037 18.2ZM73.5037 14.24C73.5037 13.2533 73.3437 12.5667 73.0237 12.18C72.717 11.78 72.1903 11.58 71.4437 11.58C70.697 11.58 70.1503 11.7867 69.8037 12.2C69.4703 12.6133 69.297 13.2933 69.2837 14.24H73.5037ZM76.7799 10H79.0999L81.0599 13.46L83.0399 10H85.3599L82.3799 14.92L85.3599 20H83.0399L81.0599 16.58L79.0999 20H76.7799L79.6799 14.98L76.7799 10ZM92.3973 11.86H89.6373V16.26C89.6373 17.0733 89.6973 17.6133 89.8173 17.88C89.9373 18.1467 90.2439 18.28 90.7373 18.28L92.3773 18.22L92.4773 19.96C91.5839 20.1333 90.9039 20.22 90.4373 20.22C89.3039 20.22 88.5239 19.96 88.0973 19.44C87.6839 18.92 87.4773 17.94 87.4773 16.5V11.86H86.1973V10H87.4773V7.1H89.6373V10H92.3973V11.86Z" fill="black"/>
<path d="M114.02 3.83821L108.63 8.03821C107.73 8.73821 107 10.2282 107 11.3582V18.7682C107 21.0882 108.89 22.9882 111.21 22.9882H122.79C125.11 22.9882 127 21.0882 127 18.7782V11.4982C127 10.2882 126.19 8.73821 125.2 8.04821L119.02 3.71821C117.62 2.73821 115.37 2.78821 114.02 3.83821Z" stroke="#003366" stroke-width="1.5" stroke-linecap="round" stroke-linejoin="round"/>
<path d="M117 18.9883V15.9883" stroke="#003366" stroke-width="1.5" stroke-linecap="round" stroke-linejoin="round"/>
<path d="M1 16L140 16" stroke="#9747FF" stroke-linecap="round"/>
</svg>
