<svg width="198" height="24" viewBox="0 0 198 24" fill="none" xmlns="http://www.w3.org/2000/svg">
<path d="M5.60391 7.02C3.91057 7.02 3.06391 7.61333 3.06391 8.8C3.06391 9.41333 3.26391 9.85333 3.66391 10.12C4.06391 10.3733 4.94391 10.6933 6.30391 11.08C7.67724 11.4533 8.64391 11.9067 9.20391 12.44C9.76391 12.96 10.0439 13.7867 10.0439 14.92C10.0439 16.36 9.63057 17.44 8.80391 18.16C7.99057 18.8667 6.87724 19.22 5.46391 19.22C4.33057 19.22 3.07724 19.0867 1.70391 18.82L0.983906 18.68L1.20391 16.9C3.00391 17.14 4.37724 17.26 5.32391 17.26C6.97724 17.26 7.80391 16.5267 7.80391 15.06C7.80391 14.4867 7.61724 14.0667 7.24391 13.8C6.87057 13.52 6.03057 13.22 4.72391 12.9C3.41724 12.5667 2.44391 12.1133 1.80391 11.54C1.16391 10.9667 0.843906 10.06 0.843906 8.82C0.843906 7.58 1.24391 6.64667 2.04391 6.02C2.85724 5.38 3.97724 5.06 5.40391 5.06C6.43057 5.06 7.64391 5.18 9.04391 5.42L9.74391 5.54L9.56391 7.34C7.69724 7.12667 6.37724 7.02 5.60391 7.02ZM15.9233 8.78C16.6299 8.78 17.4633 8.87333 18.4233 9.06L18.9233 9.16L18.8433 10.88C17.7899 10.7733 17.0099 10.72 16.5033 10.72C15.4899 10.72 14.8099 10.9467 14.4633 11.4C14.1166 11.8533 13.9433 12.7067 13.9433 13.96C13.9433 15.2133 14.1099 16.08 14.4433 16.56C14.7766 17.04 15.4699 17.28 16.5233 17.28L18.8633 17.12L18.9233 18.86C17.5766 19.1 16.5633 19.22 15.8833 19.22C14.3633 19.22 13.2899 18.8133 12.6633 18C12.0499 17.1733 11.7433 15.8267 11.7433 13.96C11.7433 12.0933 12.0699 10.7667 12.7233 9.98C13.3766 9.18 14.4433 8.78 15.9233 8.78ZM28.4309 12.08V16.64C28.4443 16.9333 28.5176 17.1533 28.6509 17.3C28.7976 17.4333 29.0176 17.52 29.3109 17.56L29.2509 19.22C28.1043 19.22 27.2176 18.9733 26.5909 18.48C25.5243 18.9733 24.4509 19.22 23.3709 19.22C21.3843 19.22 20.3909 18.16 20.3909 16.04C20.3909 15.0267 20.6576 14.2933 21.1909 13.84C21.7376 13.3867 22.5709 13.1133 23.6909 13.02L26.2709 12.8V12.08C26.2709 11.5467 26.1509 11.1733 25.9109 10.96C25.6843 10.7467 25.3443 10.64 24.8909 10.64C24.0376 10.64 22.9709 10.6933 21.6909 10.8L21.0509 10.84L20.9709 9.3C22.4243 8.95333 23.7576 8.78 24.9709 8.78C26.1976 8.78 27.0776 9.04667 27.6109 9.58C28.1576 10.1 28.4309 10.9333 28.4309 12.08ZM23.9509 14.56C23.0309 14.64 22.5709 15.14 22.5709 16.06C22.5709 16.98 22.9776 17.44 23.7909 17.44C24.4576 17.44 25.1643 17.3333 25.9109 17.12L26.2709 17V14.34L23.9509 14.56ZM31.1677 19V9H33.3277V10.2C34.461 9.46667 35.5943 8.99333 36.7277 8.78V10.96C35.581 11.1867 34.601 11.48 33.7877 11.84L33.3477 12.02V19H31.1677ZM38.3942 19V9H40.5742V19H38.3942ZM38.3942 7.3V5H40.5742V7.3H38.3942ZM46.9584 8.78C47.6651 8.78 48.4984 8.87333 49.4584 9.06L49.9584 9.16L49.8784 10.88C48.8251 10.7733 48.0451 10.72 47.5384 10.72C46.5251 10.72 45.8451 10.9467 45.4984 11.4C45.1518 11.8533 44.9784 12.7067 44.9784 13.96C44.9784 15.2133 45.1451 16.08 45.4784 16.56C45.8118 17.04 46.5051 17.28 47.5584 17.28L49.8984 17.12L49.9584 18.86C48.6118 19.1 47.5984 19.22 46.9184 19.22C45.3984 19.22 44.3251 18.8133 43.6984 18C43.0851 17.1733 42.7784 15.8267 42.7784 13.96C42.7784 12.0933 43.1051 10.7667 43.7584 9.98C44.4118 9.18 45.4784 8.78 46.9584 8.78ZM59.4661 12.08V16.64C59.4794 16.9333 59.5528 17.1533 59.6861 17.3C59.8328 17.4333 60.0528 17.52 60.3461 17.56L60.2861 19.22C59.1394 19.22 58.2528 18.9733 57.6261 18.48C56.5594 18.9733 55.4861 19.22 54.4061 19.22C52.4194 19.22 51.4261 18.16 51.4261 16.04C51.4261 15.0267 51.6928 14.2933 52.2261 13.84C52.7728 13.3867 53.6061 13.1133 54.7261 13.02L57.3061 12.8V12.08C57.3061 11.5467 57.1861 11.1733 56.9461 10.96C56.7194 10.7467 56.3794 10.64 55.9261 10.64C55.0728 10.64 54.0061 10.6933 52.7261 10.8L52.0861 10.84L52.0061 9.3C53.4594 8.95333 54.7928 8.78 56.0061 8.78C57.2328 8.78 58.1128 9.04667 58.6461 9.58C59.1928 10.1 59.4661 10.9333 59.4661 12.08ZM54.9861 14.56C54.0661 14.64 53.6061 15.14 53.6061 16.06C53.6061 16.98 54.0128 17.44 54.8261 17.44C55.4928 17.44 56.1994 17.3333 56.9461 17.12L57.3061 17V14.34L54.9861 14.56ZM74.7573 4.84V19H72.5973V18.48C71.624 18.9733 70.7307 19.22 69.9173 19.22C68.6107 19.22 67.6507 18.8267 67.0373 18.04C66.4373 17.2533 66.1373 15.9333 66.1373 14.08C66.1373 12.2267 66.4707 10.88 67.1373 10.04C67.8173 9.2 68.8707 8.78 70.2973 8.78C70.7773 8.78 71.5373 8.86667 72.5773 9.04V4.84H74.7573ZM72.2373 16.92L72.5773 16.78V10.86C71.7773 10.7267 71.0373 10.66 70.3573 10.66C69.0107 10.66 68.3373 11.78 68.3373 14.02C68.3373 15.2467 68.4907 16.1 68.7973 16.58C69.1173 17.0467 69.6173 17.28 70.2973 17.28C70.9773 17.28 71.624 17.16 72.2373 16.92ZM77.9381 10.08C78.6315 9.21333 79.7781 8.78 81.3781 8.78C82.9781 8.78 84.1181 9.21333 84.7981 10.08C85.4915 10.9467 85.8381 12.2467 85.8381 13.98C85.8381 15.7133 85.5048 17.02 84.8381 17.9C84.1715 18.78 83.0181 19.22 81.3781 19.22C79.7381 19.22 78.5848 18.78 77.9181 17.9C77.2515 17.02 76.9181 15.7133 76.9181 13.98C76.9181 12.2467 77.2581 10.9467 77.9381 10.08ZM79.5781 16.58C79.8848 17.1133 80.4848 17.38 81.3781 17.38C82.2715 17.38 82.8715 17.1133 83.1781 16.58C83.4848 16.0467 83.6381 15.1733 83.6381 13.96C83.6381 12.7467 83.4715 11.8867 83.1381 11.38C82.8181 10.8733 82.2315 10.62 81.3781 10.62C80.5248 10.62 79.9315 10.8733 79.5981 11.38C79.2781 11.8867 79.1181 12.7467 79.1181 13.96C79.1181 15.1733 79.2715 16.0467 79.5781 16.58ZM91.7436 8.78C92.4503 8.78 93.2836 8.87333 94.2436 9.06L94.7436 9.16L94.6636 10.88C93.6103 10.7733 92.8303 10.72 92.3236 10.72C91.3103 10.72 90.6303 10.9467 90.2836 11.4C89.9369 11.8533 89.7636 12.7067 89.7636 13.96C89.7636 15.2133 89.9303 16.08 90.2636 16.56C90.5969 17.04 91.2903 17.28 92.3436 17.28L94.6836 17.12L94.7436 18.86C93.3969 19.1 92.3836 19.22 91.7036 19.22C90.1836 19.22 89.1103 18.8133 88.4836 18C87.8703 17.1733 87.5636 15.8267 87.5636 13.96C87.5636 12.0933 87.8903 10.7667 88.5436 9.98C89.1969 9.18 90.2636 8.78 91.7436 8.78ZM102.911 9H105.071V19H102.911V18.38C101.938 18.94 101.038 19.22 100.211 19.22C98.8379 19.22 97.9179 18.8533 97.4513 18.12C96.9846 17.3733 96.7513 16.0733 96.7513 14.22V9H98.9313V14.24C98.9313 15.44 99.0313 16.2467 99.2313 16.66C99.4313 17.0733 99.8979 17.28 100.631 17.28C101.351 17.28 102.011 17.1467 102.611 16.88L102.911 16.76V9ZM109.891 19H107.711V9H109.871V9.62C110.817 9.06 111.684 8.78 112.471 8.78C113.631 8.78 114.477 9.10667 115.011 9.76C116.224 9.10667 117.431 8.78 118.631 8.78C119.831 8.78 120.677 9.15333 121.171 9.9C121.664 10.6333 121.911 11.88 121.911 13.64V19H119.751V13.7C119.751 12.62 119.637 11.8533 119.411 11.4C119.197 10.9467 118.744 10.72 118.051 10.72C117.451 10.72 116.804 10.8533 116.111 11.12L115.771 11.26C115.877 11.5267 115.931 12.38 115.931 13.82V19H113.771V13.86C113.771 12.6733 113.664 11.8533 113.451 11.4C113.237 10.9467 112.771 10.72 112.051 10.72C111.384 10.72 110.764 10.8533 110.191 11.12L109.891 11.24V19ZM131.588 17.2L132.148 17.14L132.188 18.76C130.668 19.0667 129.322 19.22 128.148 19.22C126.668 19.22 125.602 18.8133 124.948 18C124.308 17.1867 123.988 15.8867 123.988 14.1C123.988 10.5533 125.435 8.78 128.328 8.78C131.128 8.78 132.528 10.3067 132.528 13.36L132.388 14.92H126.188C126.202 15.7467 126.382 16.3533 126.728 16.74C127.075 17.1267 127.722 17.32 128.668 17.32C129.615 17.32 130.588 17.28 131.588 17.2ZM130.388 13.24C130.388 12.2533 130.228 11.5667 129.908 11.18C129.602 10.78 129.075 10.58 128.328 10.58C127.582 10.58 127.035 10.7867 126.688 11.2C126.355 11.6133 126.182 12.2933 126.168 13.24H130.388ZM136.805 19H134.625V9H136.785V9.62C137.758 9.06 138.678 8.78 139.545 8.78C140.878 8.78 141.785 9.16 142.265 9.92C142.758 10.6667 143.005 11.9067 143.005 13.64V19H140.845V13.7C140.845 12.62 140.725 11.8533 140.485 11.4C140.258 10.9467 139.785 10.72 139.065 10.72C138.385 10.72 137.731 10.8533 137.105 11.12L136.805 11.24V19ZM150.923 10.86H148.163V15.26C148.163 16.0733 148.223 16.6133 148.343 16.88C148.463 17.1467 148.769 17.28 149.263 17.28L150.903 17.22L151.003 18.96C150.109 19.1333 149.429 19.22 148.963 19.22C147.829 19.22 147.049 18.96 146.623 18.44C146.209 17.92 146.003 16.94 146.003 15.5V10.86H144.723V9H146.003V6.1H148.163V9H150.923V10.86ZM153.251 10.08C153.944 9.21333 155.091 8.78 156.691 8.78C158.291 8.78 159.431 9.21333 160.111 10.08C160.804 10.9467 161.151 12.2467 161.151 13.98C161.151 15.7133 160.817 17.02 160.151 17.9C159.484 18.78 158.331 19.22 156.691 19.22C155.051 19.22 153.897 18.78 153.231 17.9C152.564 17.02 152.231 15.7133 152.231 13.98C152.231 12.2467 152.571 10.9467 153.251 10.08ZM154.891 16.58C155.197 17.1133 155.797 17.38 156.691 17.38C157.584 17.38 158.184 17.1133 158.491 16.58C158.797 16.0467 158.951 15.1733 158.951 13.96C158.951 12.7467 158.784 11.8867 158.451 11.38C158.131 10.8733 157.544 10.62 156.691 10.62C155.837 10.62 155.244 10.8733 154.911 11.38C154.591 11.8867 154.431 12.7467 154.431 13.96C154.431 15.1733 154.584 16.0467 154.891 16.58Z" fill="black"/>
<path d="M183 11V17L185 15" stroke="#003366" stroke-width="1.5" stroke-linecap="round" stroke-linejoin="round"/>
<path d="M183 17L181 15" stroke="#003366" stroke-width="1.5" stroke-linecap="round" stroke-linejoin="round"/>
<path d="M196 10V15C196 20 194 22 189 22H183C178 22 176 20 176 15V9C176 4 178 2 183 2H188" stroke="#003366" stroke-width="1.5" stroke-linecap="round" stroke-linejoin="round"/>
<path d="M196 10H192C189 10 188 9 188 6V2L196 10Z" stroke="#003366" stroke-width="1.5" stroke-linecap="round" stroke-linejoin="round"/>
</svg>
