<svg
                        width="121"
                        height="26"
                        viewBox="0 0 121 26"
                        fill="none"
                        xmlns="http://www.w3.org/2000/svg"
                      >
                        <path
                          d="M9.89477 20H2.21477V6.3H4.43477V18.02H9.89477V20ZM18.847 13.08V17.64C18.8603 17.9333 18.9336 18.1533 19.067 18.3C19.2136 18.4333 19.4336 18.52 19.727 18.56L19.667 20.22C18.5203 20.22 17.6336 19.9733 17.007 19.48C15.9403 19.9733 14.867 20.22 13.787 20.22C11.8003 20.22 10.807 19.16 10.807 17.04C10.807 16.0267 11.0736 15.2933 11.607 14.84C12.1536 14.3867 12.987 14.1133 14.107 14.02L16.687 13.8V13.08C16.687 12.5467 16.567 12.1733 16.327 11.96C16.1003 11.7467 15.7603 11.64 15.307 11.64C14.4536 11.64 13.387 11.6933 12.107 11.8L11.467 11.84L11.387 10.3C12.8403 9.95333 14.1736 9.78 15.387 9.78C16.6136 9.78 17.4936 10.0467 18.027 10.58C18.5736 11.1 18.847 11.9333 18.847 13.08ZM14.367 15.56C13.447 15.64 12.987 16.14 12.987 17.06C12.987 17.98 13.3936 18.44 14.207 18.44C14.8736 18.44 15.5803 18.3333 16.327 18.12L16.687 18V15.34L14.367 15.56ZM26.2437 9.78C27.617 9.78 28.6037 10.1667 29.2037 10.94C29.817 11.7 30.1237 13.0533 30.1237 15C30.1237 16.9467 29.7637 18.3067 29.0437 19.08C28.3237 19.84 27.057 20.22 25.2437 20.22C24.617 20.22 23.6237 20.16 22.2637 20.04L21.5837 19.98V5.84H23.7437V10.38C24.6637 9.98 25.497 9.78 26.2437 9.78ZM25.2437 18.28C26.3103 18.28 27.017 18.0333 27.3637 17.54C27.7237 17.0333 27.9037 16.18 27.9037 14.98C27.9037 13.78 27.7503 12.94 27.4437 12.46C27.1503 11.9667 26.6637 11.72 25.9837 11.72C25.3437 11.72 24.7037 11.82 24.0637 12.02L23.7437 12.12V18.2C24.477 18.2533 24.977 18.28 25.2437 18.28ZM39.4263 18.2L39.9863 18.14L40.0263 19.76C38.5063 20.0667 37.1597 20.22 35.9863 20.22C34.5063 20.22 33.4397 19.8133 32.7863 19C32.1463 18.1867 31.8263 16.8867 31.8263 15.1C31.8263 11.5533 33.273 9.78 36.1663 9.78C38.9663 9.78 40.3663 11.3067 40.3663 14.36L40.2263 15.92H34.0263C34.0397 16.7467 34.2197 17.3533 34.5663 17.74C34.913 18.1267 35.5597 18.32 36.5063 18.32C37.453 18.32 38.4263 18.28 39.4263 18.2ZM38.2263 14.24C38.2263 13.2533 38.0663 12.5667 37.7463 12.18C37.4397 11.78 36.913 11.58 36.1663 11.58C35.4197 11.58 34.873 11.7867 34.5263 12.2C34.193 12.6133 34.0197 13.2933 34.0063 14.24H38.2263ZM42.5826 20V5.84H44.7626V20H42.5826ZM57.2957 11.86H54.5357V16.26C54.5357 17.0733 54.5957 17.6133 54.7157 17.88C54.8357 18.1467 55.1424 18.28 55.6357 18.28L57.2757 18.22L57.3757 19.96C56.4824 20.1333 55.8024 20.22 55.3357 20.22C54.2024 20.22 53.4224 19.96 52.9957 19.44C52.5824 18.92 52.3757 17.94 52.3757 16.5V11.86H51.0957V10H52.3757V7.1H54.5357V10H57.2957V11.86ZM66.2037 18.2L66.7637 18.14L66.8037 19.76C65.2837 20.0667 63.937 20.22 62.7637 20.22C61.2837 20.22 60.217 19.8133 59.5637 19C58.9237 18.1867 58.6037 16.8867 58.6037 15.1C58.6037 11.5533 60.0503 9.78 62.9437 9.78C65.7437 9.78 67.1437 11.3067 67.1437 14.36L67.0037 15.92H60.8037C60.817 16.7467 60.997 17.3533 61.3437 17.74C61.6903 18.1267 62.337 18.32 63.2837 18.32C64.2303 18.32 65.2037 18.28 66.2037 18.2ZM65.0037 14.24C65.0037 13.2533 64.8437 12.5667 64.5237 12.18C64.217 11.78 63.6903 11.58 62.9437 11.58C62.197 11.58 61.6503 11.7867 61.3037 12.2C60.9703 12.6133 60.797 13.2933 60.7837 14.24H65.0037ZM68.2799 10H70.5999L72.5599 13.46L74.5399 10H76.8599L73.8799 14.92L76.8599 20H74.5399L72.5599 16.58L70.5999 20H68.2799L71.1799 14.98L68.2799 10ZM83.8973 11.86H81.1373V16.26C81.1373 17.0733 81.1973 17.6133 81.3173 17.88C81.4373 18.1467 81.7439 18.28 82.2373 18.28L83.8773 18.22L83.9773 19.96C83.0839 20.1333 82.4039 20.22 81.9373 20.22C80.8039 20.22 80.0239 19.96 79.5973 19.44C79.1839 18.92 78.9773 17.94 78.9773 16.5V11.86H77.6973V10H78.9773V7.1H81.1373V10H83.8973V11.86Z"
                          fill="#0D2244"
                        />
                        <path
                          d="M105.52 3.83821L100.13 8.03821C99.23 8.73821 98.5 10.2282 98.5 11.3582V18.7682C98.5 21.0882 100.39 22.9882 102.71 22.9882H114.29C116.61 22.9882 118.5 21.0882 118.5 18.7782V11.4982C118.5 10.2882 117.69 8.73821 116.7 8.04821L110.52 3.71821C109.12 2.73821 106.87 2.78821 105.52 3.83821Z"
                          stroke="#14B8A6"
                          stroke-width="1.5"
                          stroke-linecap="round"
                          stroke-linejoin="round"
                        />
                        <path
                          d="M108.5 18.9883V15.9883"
                          stroke="#14B8A6"
                          stroke-width="1.5"
                          stroke-linecap="round"
                          stroke-linejoin="round"
                        />
                      </svg>