<svg width="128" height="32" viewBox="0 0 128 32" fill="none" xmlns="http://www.w3.org/2000/svg">
<rect x="0.5" y="3.5" width="83" height="25" stroke="#9747FF"/>
<path d="M9.39477 23H1.71477V9.3H3.93477V21.02H9.39477V23ZM18.347 16.08V20.64C18.3603 20.9333 18.4336 21.1533 18.567 21.3C18.7136 21.4333 18.9336 21.52 19.227 21.56L19.167 23.22C18.0203 23.22 17.1336 22.9733 16.507 22.48C15.4403 22.9733 14.367 23.22 13.287 23.22C11.3003 23.22 10.307 22.16 10.307 20.04C10.307 19.0267 10.5736 18.2933 11.107 17.84C11.6536 17.3867 12.487 17.1133 13.607 17.02L16.187 16.8V16.08C16.187 15.5467 16.067 15.1733 15.827 14.96C15.6003 14.7467 15.2603 14.64 14.807 14.64C13.9536 14.64 12.887 14.6933 11.607 14.8L10.967 14.84L10.887 13.3C12.3403 12.9533 13.6736 12.78 14.887 12.78C16.1136 12.78 16.9936 13.0467 17.527 13.58C18.0736 14.1 18.347 14.9333 18.347 16.08ZM13.867 18.56C12.947 18.64 12.487 19.14 12.487 20.06C12.487 20.98 12.8936 21.44 13.707 21.44C14.3736 21.44 15.0803 21.3333 15.827 21.12L16.187 21V18.34L13.867 18.56ZM25.7437 12.78C27.117 12.78 28.1037 13.1667 28.7037 13.94C29.317 14.7 29.6237 16.0533 29.6237 18C29.6237 19.9467 29.2637 21.3067 28.5437 22.08C27.8237 22.84 26.557 23.22 24.7437 23.22C24.117 23.22 23.1237 23.16 21.7637 23.04L21.0837 22.98V8.84H23.2437V13.38C24.1637 12.98 24.997 12.78 25.7437 12.78ZM24.7437 21.28C25.8103 21.28 26.517 21.0333 26.8637 20.54C27.2237 20.0333 27.4037 19.18 27.4037 17.98C27.4037 16.78 27.2503 15.94 26.9437 15.46C26.6503 14.9667 26.1637 14.72 25.4837 14.72C24.8437 14.72 24.2037 14.82 23.5637 15.02L23.2437 15.12V21.2C23.977 21.2533 24.477 21.28 24.7437 21.28ZM38.9263 21.2L39.4863 21.14L39.5263 22.76C38.0063 23.0667 36.6597 23.22 35.4863 23.22C34.0063 23.22 32.9397 22.8133 32.2863 22C31.6463 21.1867 31.3263 19.8867 31.3263 18.1C31.3263 14.5533 32.773 12.78 35.6663 12.78C38.4663 12.78 39.8663 14.3067 39.8663 17.36L39.7263 18.92H33.5263C33.5397 19.7467 33.7197 20.3533 34.0663 20.74C34.413 21.1267 35.0597 21.32 36.0063 21.32C36.953 21.32 37.9263 21.28 38.9263 21.2ZM37.7263 17.24C37.7263 16.2533 37.5663 15.5667 37.2463 15.18C36.9397 14.78 36.413 14.58 35.6663 14.58C34.9197 14.58 34.373 14.7867 34.0263 15.2C33.693 15.6133 33.5197 16.2933 33.5063 17.24H37.7263ZM42.0826 23V8.84H44.2626V23H42.0826ZM56.7957 14.86H54.0357V19.26C54.0357 20.0733 54.0957 20.6133 54.2157 20.88C54.3357 21.1467 54.6424 21.28 55.1357 21.28L56.7757 21.22L56.8757 22.96C55.9824 23.1333 55.3024 23.22 54.8357 23.22C53.7024 23.22 52.9224 22.96 52.4957 22.44C52.0824 21.92 51.8757 20.94 51.8757 19.5V14.86H50.5957V13H51.8757V10.1H54.0357V13H56.7957V14.86ZM65.7037 21.2L66.2637 21.14L66.3037 22.76C64.7837 23.0667 63.437 23.22 62.2637 23.22C60.7837 23.22 59.717 22.8133 59.0637 22C58.4237 21.1867 58.1037 19.8867 58.1037 18.1C58.1037 14.5533 59.5503 12.78 62.4437 12.78C65.2437 12.78 66.6437 14.3067 66.6437 17.36L66.5037 18.92H60.3037C60.317 19.7467 60.497 20.3533 60.8437 20.74C61.1903 21.1267 61.837 21.32 62.7837 21.32C63.7303 21.32 64.7037 21.28 65.7037 21.2ZM64.5037 17.24C64.5037 16.2533 64.3437 15.5667 64.0237 15.18C63.717 14.78 63.1903 14.58 62.4437 14.58C61.697 14.58 61.1503 14.7867 60.8037 15.2C60.4703 15.6133 60.297 16.2933 60.2837 17.24H64.5037ZM67.7799 13H70.0999L72.0599 16.46L74.0399 13H76.3599L73.3799 17.92L76.3599 23H74.0399L72.0599 19.58L70.0999 23H67.7799L70.6799 17.98L67.7799 13ZM83.3973 14.86H80.6373V19.26C80.6373 20.0733 80.6973 20.6133 80.8173 20.88C80.9373 21.1467 81.2439 21.28 81.7373 21.28L83.3773 21.22L83.4773 22.96C82.5839 23.1333 81.9039 23.22 81.4373 23.22C80.3039 23.22 79.5239 22.96 79.0973 22.44C78.6839 21.92 78.4773 20.94 78.4773 19.5V14.86H77.1973V13H78.4773V10.1H80.6373V13H83.3973V14.86Z" fill="black"/>
<rect x="96.5" y="0.5" width="31" height="31" stroke="#9747FF"/>
<path d="M108.027 3.78819L100.84 9.38819C99.6403 10.3215 98.667 12.3082 98.667 13.8149V23.6949C98.667 26.7882 101.187 29.3215 104.28 29.3215H119.72C122.814 29.3215 125.334 26.7882 125.334 23.7082V14.0015C125.334 12.3882 124.254 10.3215 122.934 9.40152L114.694 3.62819C112.827 2.32152 109.827 2.38819 108.027 3.78819Z" stroke="#003366" stroke-width="1.5" stroke-linecap="round" stroke-linejoin="round"/>
<path d="M112 23.9883V19.9883" stroke="#003366" stroke-width="1.5" stroke-linecap="round" stroke-linejoin="round"/>
</svg>
