<svg width="141" height="27" viewBox="0 0 141 27" fill="none" xmlns="http://www.w3.org/2000/svg">
<path d="M18.3948 21H10.7148V7.3H12.9348V19.02H18.3948V21ZM27.347 14.08V18.64C27.3603 18.9333 27.4336 19.1533 27.567 19.3C27.7136 19.4333 27.9336 19.52 28.227 19.56L28.167 21.22C27.0203 21.22 26.1336 20.9733 25.507 20.48C24.4403 20.9733 23.367 21.22 22.287 21.22C20.3003 21.22 19.307 20.16 19.307 18.04C19.307 17.0267 19.5736 16.2933 20.107 15.84C20.6536 15.3867 21.487 15.1133 22.607 15.02L25.187 14.8V14.08C25.187 13.5467 25.067 13.1733 24.827 12.96C24.6003 12.7467 24.2603 12.64 23.807 12.64C22.9536 12.64 21.887 12.6933 20.607 12.8L19.967 12.84L19.887 11.3C21.3403 10.9533 22.6736 10.78 23.887 10.78C25.1136 10.78 25.9936 11.0467 26.527 11.58C27.0736 12.1 27.347 12.9333 27.347 14.08ZM22.867 16.56C21.947 16.64 21.487 17.14 21.487 18.06C21.487 18.98 21.8936 19.44 22.707 19.44C23.3736 19.44 24.0803 19.3333 24.827 19.12L25.187 19V16.34L22.867 16.56ZM34.7437 10.78C36.117 10.78 37.1037 11.1667 37.7037 11.94C38.317 12.7 38.6237 14.0533 38.6237 16C38.6237 17.9467 38.2637 19.3067 37.5437 20.08C36.8237 20.84 35.557 21.22 33.7437 21.22C33.117 21.22 32.1237 21.16 30.7637 21.04L30.0837 20.98V6.84H32.2437V11.38C33.1637 10.98 33.997 10.78 34.7437 10.78ZM33.7437 19.28C34.8103 19.28 35.517 19.0333 35.8637 18.54C36.2237 18.0333 36.4037 17.18 36.4037 15.98C36.4037 14.78 36.2503 13.94 35.9437 13.46C35.6503 12.9667 35.1637 12.72 34.4837 12.72C33.8437 12.72 33.2037 12.82 32.5637 13.02L32.2437 13.12V19.2C32.977 19.2533 33.477 19.28 33.7437 19.28ZM47.9263 19.2L48.4863 19.14L48.5263 20.76C47.0063 21.0667 45.6597 21.22 44.4863 21.22C43.0063 21.22 41.9397 20.8133 41.2863 20C40.6463 19.1867 40.3263 17.8867 40.3263 16.1C40.3263 12.5533 41.773 10.78 44.6663 10.78C47.4663 10.78 48.8663 12.3067 48.8663 15.36L48.7263 16.92H42.5263C42.5397 17.7467 42.7197 18.3533 43.0663 18.74C43.413 19.1267 44.0597 19.32 45.0063 19.32C45.953 19.32 46.9263 19.28 47.9263 19.2ZM46.7263 15.24C46.7263 14.2533 46.5663 13.5667 46.2463 13.18C45.9397 12.78 45.413 12.58 44.6663 12.58C43.9197 12.58 43.373 12.7867 43.0263 13.2C42.693 13.6133 42.5197 14.2933 42.5063 15.24H46.7263ZM51.0826 21V6.84H53.2626V21H51.0826ZM65.7957 12.86H63.0357V17.26C63.0357 18.0733 63.0957 18.6133 63.2157 18.88C63.3357 19.1467 63.6424 19.28 64.1357 19.28L65.7757 19.22L65.8757 20.96C64.9824 21.1333 64.3024 21.22 63.8357 21.22C62.7024 21.22 61.9224 20.96 61.4957 20.44C61.0824 19.92 60.8757 18.94 60.8757 17.5V12.86H59.5957V11H60.8757V8.1H63.0357V11H65.7957V12.86ZM74.7037 19.2L75.2637 19.14L75.3037 20.76C73.7837 21.0667 72.437 21.22 71.2637 21.22C69.7837 21.22 68.717 20.8133 68.0637 20C67.4237 19.1867 67.1037 17.8867 67.1037 16.1C67.1037 12.5533 68.5503 10.78 71.4437 10.78C74.2437 10.78 75.6437 12.3067 75.6437 15.36L75.5037 16.92H69.3037C69.317 17.7467 69.497 18.3533 69.8437 18.74C70.1903 19.1267 70.837 19.32 71.7837 19.32C72.7303 19.32 73.7037 19.28 74.7037 19.2ZM73.5037 15.24C73.5037 14.2533 73.3437 13.5667 73.0237 13.18C72.717 12.78 72.1903 12.58 71.4437 12.58C70.697 12.58 70.1503 12.7867 69.8037 13.2C69.4703 13.6133 69.297 14.2933 69.2837 15.24H73.5037ZM76.7799 11H79.0999L81.0599 14.46L83.0399 11H85.3599L82.3799 15.92L85.3599 21H83.0399L81.0599 17.58L79.0999 21H76.7799L79.6799 15.98L76.7799 11ZM92.3973 12.86H89.6373V17.26C89.6373 18.0733 89.6973 18.6133 89.8173 18.88C89.9373 19.1467 90.2439 19.28 90.7373 19.28L92.3773 19.22L92.4773 20.96C91.5839 21.1333 90.9039 21.22 90.4373 21.22C89.3039 21.22 88.5239 20.96 88.0973 20.44C87.6839 19.92 87.4773 18.94 87.4773 17.5V12.86H86.1973V11H87.4773V8.1H89.6373V11H92.3973V12.86Z" fill="black"/>
<path d="M114.02 2.83821L108.63 7.03821C107.73 7.73821 107 9.22821 107 10.3582V17.7682C107 20.0882 108.89 21.9882 111.21 21.9882H122.79C125.11 21.9882 127 20.0882 127 17.7782V10.4982C127 9.28821 126.19 7.73821 125.2 7.04821L119.02 2.71821C117.62 1.73821 115.37 1.78821 114.02 2.83821Z" stroke="#003366" stroke-width="1.5" stroke-linecap="round" stroke-linejoin="round"/>
<path d="M117 17.9883V14.9883" stroke="#003366" stroke-width="1.5" stroke-linecap="round" stroke-linejoin="round"/>
<path d="M1 23L140 23" stroke="#9747FF" stroke-linecap="round"/>
</svg>
