<?xml version="1.0" encoding="utf-8"?>
<!-- Generator: Adobe Illustrator 27.7.0, SVG Export Plug-In . SVG Version: 6.00 Build 0)  -->
<svg version="1.1" id="m" xmlns="http://www.w3.org/2000/svg" xmlns:xlink="http://www.w3.org/1999/xlink" x="0px" y="0px"
	 viewBox="0 0 64 64" style="enable-background:new 0 0 64 64;" xml:space="preserve">
<style type="text/css">
	.st0{fill:#BD192E;}
</style>
<path id="n" class="st0" d="M32,4C16.6,4,4,16.6,4,32s12.6,28,28,28s28-12.6,28-28S47.4,4,32,4z M29.9,20.8c0-1.1,1-2.1,2.1-2.1
	c1.2,0,2.1,1,2.1,2.1v14c0,1.2-1,2.1-2.1,2.1s-2.1-1-2.1-2.1C29.9,34.8,29.9,20.8,29.9,20.8z M34.6,44.3c-0.1,0.4-0.3,0.6-0.6,0.9
	c-0.3,0.2-0.6,0.5-0.9,0.6C32.7,45.9,32.4,46,32,46s-0.7-0.1-1.1-0.2c-0.3-0.1-0.6-0.3-0.9-0.6c-0.2-0.3-0.5-0.6-0.6-0.9
	c-0.1-0.3-0.2-0.7-0.2-1.1s0.1-0.7,0.2-1.1c0.1-0.3,0.3-0.6,0.6-0.9c0.3-0.2,0.6-0.5,0.9-0.6c0.7-0.3,1.5-0.3,2.1,0
	c0.3,0.1,0.6,0.3,0.9,0.6c0.2,0.3,0.5,0.6,0.6,0.9s0.2,0.7,0.2,1.1S34.7,43.9,34.6,44.3L34.6,44.3z"/>
</svg>
