<?xml version="1.0" encoding="utf-8"?>
<!-- Generator: Adobe Illustrator 27.8.0, SVG Export Plug-In . SVG Version: 6.00 Build 0)  -->
<svg version="1.1" id="m" xmlns="http://www.w3.org/2000/svg" xmlns:xlink="http://www.w3.org/1999/xlink" x="0px" y="0px"
	 viewBox="0 0 64 64" style="enable-background:new 0 0 64 64;" xml:space="preserve">
<style type="text/css">
	.st0{fill-rule:evenodd;clip-rule:evenodd;fill:#0066CC;}
</style>
<path class="st0" d="M51.8,12.2C46.5,6.9,39.4,4,32,4s-14.6,2.9-19.8,8.2S4,24.6,4,32s2.9,14.5,8.2,19.8S24.6,60,32,60
	s14.5-3,19.8-8.2S60,39.4,60,32S57,17.4,51.8,12.2z M29.2,17.2c0.8-0.8,1.8-1.2,2.8-1.2s2.1,0.4,2.8,1.2S36,18.9,36,20
	s-0.4,2.1-1.2,2.8C34.1,23.6,33,24,32,24s-2.1-0.4-2.8-1.2C28.4,22.1,28,21.1,28,20S28.4,17.9,29.2,17.2z M39.8,45.8
	c-0.5,0.5-1.1,0.7-1.8,0.7H26c-0.7,0-1.3-0.3-1.8-0.7c-0.5-0.5-0.7-1.1-0.7-1.8s0.3-1.3,0.7-1.8c0.5-0.5,1.1-0.7,1.8-0.7h3.5v-9H28
	c-0.6,0-1.3-0.3-1.8-0.7s-0.8-1.1-0.8-1.8s0.3-1.3,0.8-1.8c0.5-0.5,1.1-0.7,1.8-0.7h4c0.7,0,1.3,0.3,1.8,0.7
	c0.5,0.5,0.7,1.1,0.7,1.8v11.5H38c0.7,0,1.3,0.3,1.8,0.7c0.5,0.5,0.7,1.1,0.7,1.8S40.2,45.3,39.8,45.8L39.8,45.8z"/>
</svg>
