<?xml version="1.0" encoding="utf-8"?>
<!-- Generator: Adobe Illustrator 27.8.0, SVG Export Plug-In . SVG Version: 6.00 Build 0)  -->
<svg version="1.1" id="m" xmlns="http://www.w3.org/2000/svg" xmlns:xlink="http://www.w3.org/1999/xlink" x="0px" y="0px"
	 viewBox="0 0 64 64" style="enable-background:new 0 0 64 64;" xml:space="preserve">
<style type="text/css">
	.st0{fill:#1D7748;}
</style>
<path id="n" class="st0" d="M32,4C16.6,4,4,16.6,4,32s12.6,28,28,28s28-12.6,28-28S47.4,4,32,4z M45.4,25.6L29.5,41.4
	c-0.4,0.4-0.9,0.6-1.5,0.6s-1.1-0.2-1.5-0.6l-7.9-7.9c-0.8-0.8-0.8-2.2,0-3s2.2-0.8,3,0L28,37l14.4-14.4c0.8-0.8,2.2-0.8,3,0
	S46.2,24.7,45.4,25.6L45.4,25.6z"/>
</svg>
