<?xml version="1.0" encoding="utf-8"?>
<!-- Generator: Adobe Illustrator 27.8.0, SVG Export Plug-In . SVG Version: 6.00 Build 0)  -->
<svg version="1.1" id="m" xmlns="http://www.w3.org/2000/svg" xmlns:xlink="http://www.w3.org/1999/xlink" x="0px" y="0px"
	 viewBox="0 0 64 64" style="enable-background:new 0 0 64 64;" xml:space="preserve">
<style type="text/css">
	.st0{fill:#A36200;}
</style>
<path id="o" class="st0" d="M58.2,42.3L41,11.4C38.7,7.3,35.5,5,32,5s-6.7,2.3-9,6.4L5.8,42.3C3.7,46.3,3.4,50.1,5.2,53
	s5.2,4.6,9.7,4.6h34.3c4.5,0,7.9-1.6,9.7-4.6C60.6,50.1,60.3,46.2,58.2,42.3L58.2,42.3z M30,23.8c0-1.1,0.9-2,2-2c1.1,0,2,0.9,2,2
	v13.4c0,1.1-0.9,2-2,2s-2-0.9-2-2C30,37.2,30,23.8,30,23.8z M33.9,47.1c-0.1,0.1-0.3,0.2-0.4,0.3c-0.2,0.1-0.3,0.2-0.5,0.2
	c-0.2,0.1-0.3,0.1-0.5,0.2c-0.2,0-0.3,0-0.5,0s-0.4,0-0.5,0c-0.2,0-0.3-0.1-0.5-0.2c-0.2,0-0.3-0.1-0.5-0.2
	c-0.1-0.1-0.3-0.2-0.4-0.3c-0.5-0.5-0.8-1.2-0.8-1.9s0.3-1.4,0.8-1.9c0.1-0.1,0.3-0.2,0.4-0.3c0.2-0.1,0.3-0.2,0.5-0.2
	c0.2-0.1,0.3-0.1,0.5-0.2c0.4-0.1,0.7-0.1,1,0c0.2,0,0.3,0.1,0.5,0.2c0.2,0,0.3,0.1,0.5,0.2c0.1,0.1,0.3,0.2,0.4,0.3
	c0.5,0.5,0.8,1.2,0.8,1.9S34.4,46.6,33.9,47.1z"/>
</svg>
