<svg width="270" height="127" viewBox="0 0 270 127" fill="none" xmlns="http://www.w3.org/2000/svg">
<rect x="3" y="3" width="267" height="4" fill="#E5EDFA"/>
<rect width="259" height="116" transform="matrix(1 0 0 -1 7 123)" fill="#CBD5E1"/>
<rect x="3" y="123" width="267" height="4" fill="#E5EDFA"/>
<rect x="3" y="3" width="4" height="120" fill="#E5EDFA"/>
<rect x="266" y="3" width="4" height="120" fill="#E5EDFA"/>
<path d="M0.113249 7L3 9.88675L5.88675 7L3 4.11325L0.113249 7ZM9.88675 7L7 4.11325L4.11325 7L7 9.88675L9.88675 7ZM3 7.5H7V6.5H3V7.5Z" fill="#3126FF"/>
<path d="M7 0.113249L4.11325 3L7 5.88675L9.88675 3L7 0.113249ZM6.5 3L6.5 7L7.5 7L7.5 3L6.5 3Z" fill="#3126FF"/>
</svg>
