<svg width="88" height="88" viewBox="0 0 88 88" fill="none" xmlns="http://www.w3.org/2000/svg">
<path d="M0 44C0 19.6995 19.6995 0 44 0C68.3005 0 88 19.6995 88 44C88 68.3005 68.3005 88 44 88C19.6995 88 0 68.3005 0 44Z" fill="#DCEDFF"/>
<path d="M63.3809 38.0277C58.5409 30.422 51.459 26.043 44 26.043C40.2705 26.043 36.6457 27.1325 33.3352 29.1649C30.0248 31.2182 27.0495 34.2144 24.619 38.0277C22.5238 41.3173 22.5238 46.6601 24.619 49.9496C29.459 57.5763 36.5409 61.9344 44 61.9344C47.7295 61.9344 51.3543 60.8449 54.6648 58.8125C57.9752 56.7592 60.9505 53.763 63.3809 49.9496C65.4762 46.6811 65.4762 41.3173 63.3809 38.0277ZM44 52.4639C39.3067 52.4639 35.5352 48.6715 35.5352 43.9992C35.5352 39.3268 39.3067 35.5344 44 35.5344C48.6933 35.5344 52.4648 39.3268 52.4648 43.9992C52.4648 48.6715 48.6933 52.4639 44 52.4639Z" fill="#003366"/>
<path d="M38.7786 44.0002C38.7786 41.1022 41.1264 38.7578 44 38.7578C46.8753 38.7578 49.2424 41.1249 49.2424 44.0002C49.2424 46.8721 46.8787 49.2216 44 49.2216C41.1247 49.2216 38.7786 46.8755 38.7786 44.0002Z" fill="#003366" stroke="#003366" stroke-width="1.5"/>
</svg>
