<svg width="33" height="32" viewBox="0 0 33 32" fill="none" xmlns="http://www.w3.org/2000/svg">
<path d="M16.5073 1.33594C18.3677 2.02563 20.2256 2.72575 22.09 3.40501C24.5502 4.30069 27.013 5.18595 29.481 6.05686C29.8578 6.18984 29.966 6.35803 29.9138 6.7635C29.4288 10.59 28.9673 14.4205 28.5006 18.2496C28.2776 20.0788 28.0808 21.9106 27.8135 23.7333C27.7705 24.0305 27.481 24.3851 27.2085 24.5416C23.807 26.4933 20.3873 28.4138 16.974 30.3446C16.8097 30.4372 16.6624 30.5611 16.5073 30.6693H16.3769C14.5425 29.6132 12.7107 28.5507 10.8711 27.5024C9.12015 26.5051 7.35225 25.539 5.61694 24.5142C5.35228 24.3578 5.09674 23.9771 5.05893 23.6733C4.36924 18.1701 3.73822 12.6578 3.02376 7.15593C2.92598 6.40366 3.12024 6.16116 3.77342 5.93039C7.79031 4.50799 11.7929 3.04778 15.7993 1.59669C15.9975 1.52498 16.1852 1.42329 16.3769 1.33594C16.4199 1.33594 16.4642 1.33594 16.5073 1.33594ZM29.5318 6.5236C29.3532 6.44668 29.2189 6.37889 29.0794 6.32934C25.5606 5.05818 22.0131 3.85741 18.5333 2.48586C17.0653 1.90699 15.8019 1.92002 14.3404 2.49498C10.8789 3.85741 7.35225 5.05296 3.85556 6.32413C3.61567 6.41148 3.30537 6.4193 3.36274 6.85998C3.64826 9.00857 3.89989 11.1611 4.16586 13.3123C4.58436 16.7099 4.99635 20.1101 5.43963 23.5051C5.47483 23.7724 5.68344 24.114 5.9129 24.2456C9.27791 26.1713 12.6586 28.0709 16.047 29.9548C16.2452 30.0656 16.6063 30.0839 16.7967 29.977C20.223 28.0709 23.6362 26.1413 27.0443 24.2013C27.2203 24.1009 27.408 23.8688 27.4328 23.6772C27.6779 21.8298 27.8865 19.9771 28.1133 18.1271C28.4406 15.4596 28.7757 12.7934 29.1029 10.1272C29.2502 8.92774 29.3884 7.72828 29.5305 6.52491L29.5318 6.5236Z" fill="#003366"/>
<path d="M15.9167 4.00034L15.8352 4.17747C13.0086 10.3169 10.242 16.3273 7.43241 22.4315L7.2012 22.9338C7.1518 22.9001 7.13172 22.879 7.12227 22.867L7.12178 22.8664C7.11613 22.8593 7.09406 22.8318 7.08239 22.7297L7.08235 22.7293C6.77133 20.0222 6.43616 17.318 6.10136 14.6167C6.04696 14.1778 5.99257 13.739 5.9383 13.3003L15.9167 4.00034ZM15.9167 4.00034C14.3332 4.56085 12.7539 5.13212 11.1721 5.70428C10.5571 5.92674 9.94166 6.14934 9.3255 6.3715L15.9167 4.00034ZM7.98056 23.3769C10.7601 24.9388 13.5377 26.5048 16.31 28.0811L16.311 28.0816C16.4004 28.1326 16.4394 28.1418 16.4481 28.1433C16.4494 28.1431 16.4513 28.1426 16.4543 28.1418C16.4655 28.1386 16.4924 28.1293 16.5384 28.1029L16.5391 28.1025C17.9093 27.3201 19.2761 26.5465 20.6414 25.7737C22.0499 24.9765 23.457 24.18 24.865 23.3756H24.8448C24.5853 23.3756 24.3295 23.3771 24.0767 23.3785C23.3392 23.3827 22.6271 23.3868 21.9234 23.354L21.9219 23.354C21.7216 23.3442 21.5645 23.2641 21.4686 23.2027C21.3664 23.1372 21.2812 23.0594 21.2147 22.9888C21.0844 22.8505 20.9692 22.6797 20.8955 22.5161L20.8948 22.5145C20.3971 21.4026 19.9122 20.2807 19.4569 19.1448L19.4562 19.1431C19.4448 19.1144 19.435 19.0926 19.427 19.0763C19.4151 19.0758 19.4005 19.0755 19.383 19.0757L19.3822 19.0757C17.4212 19.0993 15.4603 19.0993 13.4993 19.0757L13.4985 19.0757C13.4812 19.0755 13.4668 19.0758 13.455 19.0763C13.4467 19.093 13.4365 19.1155 13.4244 19.1454C13.4243 19.1456 13.4243 19.1458 13.4242 19.1459L12.8059 18.8967C12.5736 19.4745 12.3279 20.0464 12.0822 20.6182L7.98056 23.3769ZM7.98056 23.3769H8.03801C8.33261 23.3769 8.61235 23.375 8.88205 23.3732C9.50276 23.3689 10.0703 23.3651 10.6439 23.3856C10.9075 23.3953 11.2089 23.3613 11.4843 23.1832C11.7603 23.0048 11.9148 22.7435 12.0135 22.498L7.98056 23.3769ZM21.5033 22.2422C21.0078 21.1353 20.5267 20.0219 20.0756 18.8967C19.9361 18.546 19.7706 18.4039 19.3742 18.4091C17.4186 18.4326 15.4629 18.4326 13.5073 18.4091L21.5033 22.2422ZM21.5033 22.2422C21.5867 22.4273 21.794 22.6803 21.9544 22.6881L21.5033 22.2422ZM5.93826 13.3C5.75735 11.8324 5.57281 10.3652 5.38534 8.87464C5.34207 8.53061 5.29864 8.18533 5.25507 7.83851C5.78415 7.64779 6.31265 7.45737 6.84071 7.26712C7.66989 6.96838 8.49796 6.67004 9.32538 6.37154L5.93826 13.3ZM25.5115 23.0057V22.7089V22.7076V22.5615L25.4504 22.4288C23.9444 19.1579 22.4504 15.9134 20.9541 12.664C19.6563 9.84565 18.3567 7.02359 17.0463 4.17746L16.9613 3.99287C19.8804 5.03531 22.7949 6.09194 25.7102 7.14888C26.3466 7.37961 26.983 7.61036 27.6196 7.84097C27.5454 8.45901 27.4717 9.07556 27.3982 9.69105C27.1982 11.3647 26.9991 13.0304 26.7933 14.6964L26.7933 14.6966C26.4622 17.3839 26.1291 20.0675 25.7661 22.7463C25.7654 22.7487 25.7632 22.7561 25.758 22.7685C25.7489 22.7898 25.7346 22.8165 25.7153 22.8448C25.696 22.873 25.6757 22.897 25.6578 22.9147C25.6435 22.9288 25.6351 22.9347 25.6343 22.9353C25.5933 22.9588 25.5524 22.9822 25.5115 23.0057Z" fill="#003366" stroke="#003366" stroke-width="1.33333"/>
<path d="M18.8123 15.9251H14.0888C14.8776 14.0777 15.6377 12.3006 16.4499 10.3984C17.2543 12.2798 18.0157 14.062 18.811 15.9251H18.8123Z" fill="#003366"/>
</svg>
