<svg width="88" height="88" viewBox="0 0 88 88" fill="none" xmlns="http://www.w3.org/2000/svg">
<path d="M0 44C0 19.6995 19.6995 0 44 0C68.3005 0 88 19.6995 88 44C88 68.3005 68.3005 88 44 88C19.6995 88 0 68.3005 0 44Z" fill="#DCEDFF"/>
<path d="M40.2328 30.0206V30.024V34.005C40.2328 36.163 39.6651 37.6878 38.6768 38.6761C37.6885 39.6643 36.1637 40.2321 34.0057 40.2321H30.0248C27.8667 40.2321 26.3419 39.6643 25.3537 38.6761C24.3654 37.6878 23.7976 36.163 23.7976 34.005V30.024C23.7976 27.866 24.3654 26.3416 25.3557 25.3535C26.3463 24.3651 27.8763 23.7969 30.0457 23.7969H34.0267C36.1849 23.7969 37.7092 24.3648 38.6945 25.3523C39.6796 26.3396 40.2428 27.8632 40.2328 30.0206Z" fill="#003366" stroke="#003366" stroke-width="1.5"/>
<path d="M53.9944 23.7969H57.9753C60.1333 23.7969 61.6581 24.3646 62.6464 25.3529C63.6347 26.3412 64.2025 27.866 64.2025 30.024V34.005C64.2025 36.163 63.6347 37.6878 62.6464 38.6761C61.6581 39.6643 60.1333 40.2321 57.9753 40.2321H53.9944C51.8363 40.2321 50.3115 39.6643 49.3233 38.6761C48.335 37.6878 47.7672 36.163 47.7672 34.005V30.024C47.7672 27.866 48.335 26.3412 49.3233 25.3529C50.3115 24.3646 51.8363 23.7969 53.9944 23.7969Z" fill="#003366" stroke="#003366" stroke-width="1.5"/>
<path d="M53.9944 47.7461H57.9753C60.1333 47.7461 61.6581 48.3139 62.6464 49.3021C63.6347 50.2904 64.2025 51.8152 64.2025 53.9732V57.9542C64.2025 60.1122 63.6347 61.637 62.6464 62.6253C61.6581 63.6136 60.1333 64.1813 57.9753 64.1813H53.9944C51.8363 64.1813 50.3115 63.6136 49.3233 62.6253C48.335 61.637 47.7672 60.1122 47.7672 57.9542V53.9732C47.7672 51.8152 48.335 50.2904 49.3233 49.3021C50.3115 48.3139 51.8363 47.7461 53.9944 47.7461Z" fill="#003366" stroke="#003366" stroke-width="1.5"/>
<path d="M40.2328 53.9908V53.9942V57.9751C40.2328 60.1332 39.6651 61.658 38.6768 62.6462C37.6885 63.6345 36.1637 64.2023 34.0057 64.2023H30.0248C27.8667 64.2023 26.3424 63.6345 25.3542 62.6442C24.3659 61.6536 23.7976 60.1236 23.7976 57.9542V53.9732C23.7976 51.8152 24.3654 50.2908 25.3557 49.3027C26.3463 48.3143 27.8763 47.7461 30.0457 47.7461H34.0267C36.1849 47.7461 37.7088 48.314 38.694 49.3036C39.6791 50.2932 40.2428 51.822 40.2328 53.9908Z" fill="#003366" stroke="#003366" stroke-width="1.5"/>
</svg>
