<svg width="65" height="69" viewBox="0 0 65 69" fill="none" xmlns="http://www.w3.org/2000/svg">
<path fill-rule="evenodd" clip-rule="evenodd" d="M49.6803 45.6562C50.0088 45.6562 50.4699 45.8131 50.3552 46.076C50.2405 46.3388 50.11 46.7798 49.849 46.8073C49.5904 46.8349 49.0842 46.4915 49.0842 46.182C49.0842 45.8725 49.3519 45.6562 49.6803 45.6562Z" fill="white"/>
<path fill-rule="evenodd" clip-rule="evenodd" d="M39.5919 65.918C39.4884 66.0897 39.5536 66.2593 39.7853 66.4289C40.017 66.5984 40.2105 66.6366 40.3657 66.5391L39.5919 65.918Z" fill="white"/>
<path fill-rule="evenodd" clip-rule="evenodd" d="M64.6389 32.2081C64.8459 30.8959 64.7041 30.0692 64.2137 29.7279C63.6964 29.3866 63.0643 29.4968 62.3175 30.0565C61.8788 29.8381 61.2849 30.0437 60.5359 30.6776C60.6641 30.3617 60.6776 30.0819 60.5741 29.8381C61.2467 29.5477 61.6786 29.2255 61.8721 28.8715C62.0655 28.5196 62.1622 27.9663 62.1622 27.2116C62.2387 26.7495 62.6909 25.9228 63.5187 24.7293C64.0855 23.5379 63.6851 23.1246 62.3175 23.4892C63.0665 22.8575 63.4399 22.3105 63.4399 21.8484C63.4917 21.4117 63.2982 20.8521 62.8573 20.1695C62.6774 19.7816 62.4052 19.7074 62.0453 19.9511C62.1757 19.7074 62.2455 19.4148 62.259 19.0756C62.2725 18.7344 62.034 18.0178 61.5414 16.924C61.4649 15.4889 61.1027 14.8932 60.4571 15.1348C60.3537 14.3823 60.095 13.6637 59.6833 12.9832C59.0625 12.1077 58.5743 11.8766 58.2122 12.29C57.2067 10.8803 56.2641 10.2952 55.3869 10.539C55.3621 9.93062 55.1417 9.3837 54.7278 8.89825C54.4961 7.974 54.2126 7.32957 53.8775 6.96495C53.4118 6.79324 53.0902 7.03703 52.9102 7.69418C52.8337 7.15998 52.6515 6.60034 52.3681 6.01738C52.0846 5.43442 51.6325 5.12916 51.0139 5.10584C50.7822 5.08253 50.5618 5.11856 50.3548 5.21608C49.9409 4.97229 49.5922 4.85146 49.3088 4.85146C48.4315 3.97597 47.6307 3.90389 46.9086 4.63312L46.7917 3.86785C46.533 2.96692 46.0178 2.77189 45.244 3.28489C43.9798 2.04478 42.8956 1.22864 41.9913 0.840709C41.2445 0.596927 40.7518 0.658402 40.5202 1.02302C40.1332 0.658402 39.7193 0.427339 39.2807 0.329826C38.842 0.232313 38.4282 0.1242 38.0412 0.0012491C37.4474 -0.0220692 37.1887 0.281069 37.2674 0.912784C36.3384 0.961541 35.6996 1.11417 35.3509 1.36855C35.0022 1.62505 34.9122 1.98331 35.0787 2.44543C35.2474 2.90756 35.6276 3.28489 36.2214 3.57531C36.0662 3.7449 36.001 4.012 36.028 4.37874C36.0527 4.74335 36.4666 5.04649 37.2674 5.29027C37.8613 5.43654 38.4417 5.44714 39.0085 5.32631C38.8803 5.88595 39.0872 6.23784 39.6294 6.38411C40.3784 7.11334 41.3075 7.29565 42.4164 6.93103L42.2995 7.62423L43.8089 8.20718C43.8606 8.88766 44.1958 9.37522 44.8144 9.66564L45.4082 9.9073C45.28 9.92214 44.7266 10.3546 44.7176 10.4224C44.6996 10.4436 44.6772 10.4775 44.6524 10.5178L43.2533 11.7431C42.5289 11.3488 41.7821 10.9948 41.0285 10.681L41.285 8.55272L40.9565 8.42129C40.4977 8.23898 38.6171 7.66662 38.0997 7.54579L37.7466 7.461L36.6331 9.33706C35.803 9.16323 34.9932 9.04028 34.1767 8.96397L33.7133 6.8632L33.3534 6.83988C32.9035 6.8102 31.2794 6.80596 30.5753 6.82928V6.82504L29.9994 6.8632L29.554 8.96397C28.688 9.04452 27.8624 9.16959 27.0931 9.33494L25.9436 7.45888L25.5927 7.54579C25.1001 7.66662 23.242 8.23474 22.7651 8.41917L22.43 8.54848L22.6864 10.681C21.9441 10.9884 21.204 11.3446 20.4729 11.7431L18.7701 10.2825L18.5024 10.4457C18.6419 10.1532 18.7431 9.91154 18.7791 9.76527L19.1075 9.66564L19.4944 9.51937C20.7856 9.03392 21.8833 8.51244 22.8889 8.07575L24.45 7.29353C25.5342 6.85684 26.5667 6.25904 27.5475 5.5065C28.58 4.65432 29.1334 3.76822 29.2121 2.84185C29.0321 2.6235 28.5013 2.50055 27.624 2.47723C28.0896 1.99179 28.3348 1.4809 28.3596 0.944582C28.0244 0.507893 27.0189 0.433698 25.3385 0.726237C23.5839 1.13961 22.0476 1.78404 20.7316 2.65954C19.3887 3.46296 18.183 4.44233 17.1122 5.59553C16.0415 6.75085 15.1844 7.95068 14.5388 9.19079L15.3127 7.51187C15.6996 6.70845 16.1135 5.7736 16.5521 4.70307C16.6803 4.19219 16.6871 3.82758 16.5701 3.60923C16.4531 3.39089 16.2034 3.32941 15.8143 3.42692C15.4026 3.52444 14.6536 4.03532 13.5693 4.95957C12.3816 6.10217 11.3311 7.51399 10.4133 9.19079C9.4978 10.8697 8.87245 12.1946 8.53728 13.1676C8.71723 12.0738 8.69249 11.1368 8.46079 10.3588C8.33033 10.043 8.04689 9.95606 7.60825 10.1023C7.1966 10.3694 6.7827 10.7722 6.36879 11.3064C5.95714 11.8406 5.55674 12.3578 5.16758 12.856C4.78067 13.3563 4.32178 14.0664 3.79316 14.9907C3.26228 15.915 2.79889 17.0088 2.39849 18.2743C1.99809 19.5399 1.69441 21.2167 1.48971 23.309C1.35924 24.6466 1.46496 26.0818 1.80013 27.6144C2.21179 29.1471 2.62569 30.279 3.03959 31.0083C3.45124 31.7375 3.83815 32.1636 4.20031 32.2844C4.43201 32.8186 4.74243 33.709 5.12934 34.9491C5.33629 35.532 5.42627 35.9772 5.40152 36.2803C5.37453 36.5856 5.45776 36.7976 5.65346 36.9184C5.84692 37.0414 6.00663 37.2851 6.1371 37.6476C6.47227 38.8157 6.92441 39.8968 7.49128 40.8953C7.3878 41.4316 7.33606 41.9658 7.33606 42.5021C6.09661 39.1209 5.0911 36.5665 4.31503 34.841C2.81914 31.7036 1.64492 30.2685 0.792374 30.5356C0.380722 30.6818 0.122033 31.0358 0.0185581 31.5934C-0.00618602 31.8117 -0.00618602 32.3713 0.0185581 33.2723C0.0433022 34.1711 0.13553 35.1208 0.288494 36.1192C1.06231 39.3541 2.39174 42.0548 4.27679 44.2171L7.10437 47.3544C7.67123 47.8886 8.2156 48.285 8.73073 48.5394C9.24811 48.7938 9.72499 48.8616 10.1636 48.7408C10.8092 49.7138 11.6213 50.7356 12.6021 51.8061C13.2207 52.7049 13.8663 53.131 14.5388 53.0823C14.8223 53.6652 15.2474 53.9578 15.8165 53.9578L16.3992 53.8857C17.1977 54.6149 17.9198 55.2 18.5654 55.6367L17.8298 57.606C16.5386 57.7756 15.3509 57.8731 14.2667 57.8986C13.2612 57.216 11.8417 56.2917 10.0084 55.1258L9.89145 52.9381C9.83972 52.1834 9.98143 51.5517 10.3166 51.0408C10.3931 50.6275 10.1501 50.2501 9.58103 49.9088C8.72848 49.5209 8.12337 49.3619 7.76121 49.434C7.606 49.4828 7.51602 49.6163 7.48903 49.8347V51.0387L3.81115 51.1108C3.47598 51.1108 3.1993 51.2316 2.97885 51.4754C2.7584 51.7192 2.75391 52.2046 2.95861 52.9339C2.98335 53.201 2.9721 53.432 2.92037 53.6271C2.74041 54.405 2.26127 55.3547 1.48746 56.4719C1.38398 56.6415 1.42897 56.898 1.62243 57.2372C1.81588 57.5785 2.29951 58.1127 3.07333 58.8419C3.4085 59.1577 3.91913 59.5478 4.60296 60.0099C5.2868 60.472 6.49251 61.178 8.22235 62.1255C10.2604 63.2681 12.2107 64.2178 14.0687 64.9725C14.4556 64.9979 17.038 64.6672 21.8114 63.9868L21.8496 64.3874C20.4819 65.3604 19.6046 65.7611 19.2177 65.5915C18.6756 65.6402 18.5069 66.0176 18.7139 66.7214C18.8668 67.0393 19.1525 67.2577 19.5664 67.3785L20.0703 67.9254L21.5032 68.7289C22.0453 68.8751 22.5604 68.8751 23.0508 68.7289C23.5142 68.5572 23.8246 68.1798 23.9798 67.5969L24.1328 67.4527L25.6827 65.9921L26.8052 65.1887C27.6825 65.0424 28.2516 64.752 28.5103 64.3132C28.562 63.9232 28.6767 63.6815 28.8589 63.584L30.2154 62.7085C30.2671 62.5855 30.8205 62.7933 31.88 63.3296C32.3951 63.4504 32.8472 63.425 33.2341 63.2554L34.2397 62.7085C35.1439 62.9035 36.7298 63.9613 38.9995 65.8819C38.9748 66.1003 39.1165 66.3568 39.4269 66.6472C39.6069 66.8655 40.0973 67.0499 40.8981 67.1962L41.4402 68.1438L41.9823 68.3261C42.7831 68.3515 43.5299 68.0823 44.2295 67.5227L45.0798 67.2683C45.5185 66.9524 45.7119 66.6366 45.6624 66.3207L45.3138 65.9921L44.5782 65.8098C43.6492 65.3965 42.7066 64.8368 41.7529 64.1309L41.1343 63.6942C43.9483 64.1563 47.444 64.521 51.6258 64.7881C52.1409 64.8856 52.8315 64.6354 53.6975 64.0419C54.5613 63.4462 57.1752 61.6867 61.5369 58.7698C62.1825 58.1127 62.6999 57.3601 63.0845 56.5079C62.6976 56.1666 62.3557 55.6812 62.0588 55.0495C61.7618 54.4178 61.5751 53.8814 61.4964 53.4448C61.3929 53.0314 61.3794 52.6604 61.4582 52.3318C61.5346 52.0033 61.4199 51.6938 61.1095 51.4012C60.9813 51.2295 60.6843 51.1214 60.2187 51.0726C59.3932 51.0006 58.4641 51.0112 57.4316 51.1087C56.9412 51.0599 56.6556 50.9518 56.5791 50.7801L56.6173 49.9046C56.6938 49.5167 56.5791 49.345 56.2686 49.3937C55.1327 49.6608 54.4488 49.93 54.2171 50.1972C53.882 50.5384 53.8955 50.9031 54.2554 51.2931C54.5388 51.5369 54.6805 51.8167 54.6805 52.1326C54.5253 53.7394 54.3836 54.8205 54.2554 55.3802C52.3703 56.7899 51.0926 57.6548 50.4223 57.9706C49.8802 58.1402 48.6677 58.0681 46.7827 57.7523C46.3688 57.411 46.0741 56.828 45.8919 56.0013C46.5375 55.6367 47.2213 55.2 47.9434 54.6891C48.4338 54.617 48.8477 54.5238 49.1828 54.4156C49.518 54.3054 49.6867 54.0086 49.6867 53.5232C50.0219 53.4002 50.2671 53.1353 50.4223 52.7198L52.6673 50.1654C53.3893 49.5824 54.1766 49.2411 55.0292 49.1436C56.0617 49.0715 57.4046 48.5246 59.0557 47.5007C59.3144 47.2336 59.3144 46.8563 59.0557 46.3687C59.5461 46.1016 60.3469 45.3469 61.4559 44.1068C61.8946 43.5217 61.998 42.8794 61.7663 42.1735C62.7988 41.0055 63.3792 40.0812 63.5097 39.4008C63.6131 38.7924 63.5997 38.1352 63.4714 37.4314C63.9618 37.1389 64.3037 36.8909 64.4972 36.6831C64.6906 36.4775 64.7874 36.1913 64.7874 35.8267C64.7874 35.4621 64.6456 35.1568 64.3622 34.9152C65.109 33.9188 65.2013 33.0179 64.6322 32.2166L64.6389 32.2081ZM55.0764 12.1777C55.2564 11.8364 55.3869 11.5565 55.4633 11.3382C55.5398 11.1199 55.7738 11.0965 56.1607 11.2661C56.5476 11.4357 57.1662 12.0823 58.0187 13.1994C58.4304 12.7627 58.8308 12.9196 59.2199 13.6743C59.6856 14.3569 59.8655 15.1709 59.7621 16.1185C60.7181 15.633 61.0533 15.9616 60.7676 17.1042C61.1815 17.9076 61.4334 18.533 61.5234 18.9824C61.6134 19.4318 61.5369 19.8515 61.2917 20.2416C61.0465 20.6316 60.9295 20.9284 60.943 21.1361C60.9565 21.3418 61.0465 21.3375 61.213 21.1171C61.3817 20.8987 61.7236 20.7164 62.2387 20.5701C62.5739 21.2506 62.7156 21.7021 62.6639 21.9205C62.6639 22.1876 62.4907 22.4801 62.142 22.796C61.7933 23.1118 61.5931 23.4892 61.5436 23.9259C61.5436 24.1442 61.6606 24.2544 61.8923 24.2544L62.5896 24.0721C62.9518 24.0234 62.9631 24.2905 62.6279 24.8756C62.2657 25.5073 62.0025 26.0436 61.8338 26.4803C61.6674 26.9191 61.5819 27.271 61.5819 27.5381C61.5549 28.0977 61.4537 28.4263 61.2715 28.5238C61.3232 27.8179 61.3052 27.0823 61.213 26.3171C61.123 25.5518 60.961 24.6932 60.7293 23.7457C60.934 23.5761 61.2197 23.0037 61.5796 22.0307C61.7596 21.5453 61.7213 21.4838 61.4627 21.8484C61.1792 22.5776 60.8958 23.027 60.6124 23.1988C60.3289 22.2978 60.0185 21.204 59.6833 19.9151C60.0702 19.3067 60.3154 18.5414 60.4189 17.6172C60.4459 16.8392 60.3942 16.7777 60.2637 17.4349C60.1107 18.3591 59.825 19.0756 59.4111 19.5865C59.076 18.5648 58.7138 17.6045 58.3269 16.7035C58.4551 16.1927 58.5069 15.597 58.4821 14.9165C58.4551 14.2339 58.3921 14.2106 58.2887 14.8423C58.2887 15.3532 58.2257 15.792 58.0952 16.1566L57.2449 14.1131L56.7028 12.945C56.5228 12.5571 56.4576 12.5571 56.5093 12.945L57.0132 14.4777C56.6263 14.0643 56.2641 13.7612 55.929 13.5662C55.5938 13.3733 55.5286 13.3839 55.7355 13.6022C56.3046 14.0643 56.795 14.5625 57.2067 15.0988C57.5418 15.8768 57.877 16.6802 58.2122 17.507C57.2314 16.729 56.5476 16.2902 56.1607 16.1927C55.6703 16.0231 55.6703 16.1079 56.1607 16.4492C56.858 16.8625 57.6836 17.5918 58.6396 18.6368C58.95 19.489 59.2447 20.3158 59.5304 21.1192C59.04 20.8521 58.4461 20.3158 57.751 19.5123C57.4406 19.2198 57.4271 19.2686 57.7128 19.6586C58.2797 20.4599 58.9388 21.1658 59.6878 21.7742L60.2682 24.0001C59.6743 23.4404 58.9005 22.8681 57.9467 22.2851C57.5328 22.0413 57.5081 22.0901 57.8703 22.4314C58.6958 22.991 59.5596 23.8178 60.4639 24.9116C60.7226 25.5942 60.8396 26.8449 60.8126 28.6701C60.7856 29.1322 60.4257 29.4714 59.7283 29.6919L59.7216 29.7639L59.5731 31.4428L58.6058 31.4789C58.0907 30.7963 57.6971 30.2684 57.4249 29.8911C57.1549 29.5138 56.768 28.9372 56.2641 28.1592C55.7603 27.3812 55.3936 26.7495 55.1597 26.2619C54.928 25.7765 54.8897 25.2783 55.0427 24.7674C55.1979 24.2566 55.3261 23.8665 55.4296 23.5994C55.5331 23.3323 55.5196 23.2835 55.3914 23.4531C55.0809 23.964 54.8605 24.4622 54.7323 24.9497L53.9584 22.8702C54.0349 22.0434 54.5006 20.9856 55.3509 19.6968C55.6096 19.2601 55.5826 19.2219 55.2744 19.5865C54.5006 20.5595 53.9967 21.5453 53.765 22.5416L52.5638 20.0253C52.539 19.5632 52.8472 18.6877 53.4928 17.3988C53.828 16.7184 53.7515 16.7417 53.2611 17.4709C52.8495 18.2001 52.5525 18.8827 52.3703 19.5145C52.0082 18.1281 51.6595 16.9494 51.3243 15.9764L51.0544 15.9022L51.2096 16.305C51.4166 17.5218 51.7 18.5796 52.0621 19.4784C51.5718 19.0651 51.0161 18.7259 50.3975 18.4567C50.0624 18.2871 50.0624 18.3231 50.3975 18.5669C51.1466 18.9803 51.7135 19.3936 52.1026 19.807C52.4131 20.4875 52.6965 21.1086 52.9529 21.6682C52.4895 21.3524 51.7022 20.9878 50.591 20.5744C50.1793 20.5023 50.1793 20.5511 50.591 20.7206C51.9857 21.2549 52.8495 21.7785 53.1846 22.2893L53.9584 24.2226C53.675 24.2226 53.2994 23.822 52.836 23.0186C52.4491 22.3381 51.4818 21.6809 49.9319 21.0492C49.6215 20.9284 49.4798 20.674 49.5068 20.284C49.5585 20.0169 49.8554 19.9066 50.3975 19.9554C50.2423 19.542 50.0624 19.2134 49.8554 18.9697L49.545 18.5308C49.1311 17.7295 49.3763 17.3268 50.2806 17.3268C49.9454 16.8392 49.8284 16.4619 49.9319 16.1948C49.9072 15.7326 50.0219 15.2832 50.2806 14.8444C50.4358 14.5519 50.5528 14.2594 50.6292 13.9689C51.1196 14.236 51.565 14.4607 51.9654 14.6452C52.3636 14.8275 52.5773 15.1624 52.6043 15.6479L52.4108 16.7777C52.4873 16.9961 52.6943 16.924 53.0294 16.5594C53.3646 16.1206 53.6345 15.8662 53.8415 15.7941C54.1249 15.915 54.3971 16.1354 54.6535 16.4513C54.9122 16.9134 54.82 17.7635 54.3813 19.0036L53.9562 20.0253C54.8335 18.9294 55.5421 18.4079 56.0842 18.4567C56.2641 18.5775 56.3226 18.8276 56.2596 19.205C56.1944 19.5823 56.1944 19.9766 56.2596 20.39C56.3226 20.8033 56.1764 21.1552 55.8143 21.4478C55.4521 21.7403 55.2091 22.213 55.0787 22.8702C55.9042 22.2872 56.2394 22.3953 56.0842 23.1988L55.6185 24.7674C55.4903 25.52 55.6186 25.874 56.0077 25.8252C56.3946 25.7765 56.6331 25.8252 56.723 25.9694C56.813 26.1157 56.8333 26.37 56.7815 26.7347C56.5498 27.2455 56.4464 27.5805 56.4711 27.7395C56.4981 27.8985 56.5678 28.032 56.6848 28.1401C56.7995 28.2504 57.0515 28.2249 57.4406 28.068C57.8275 27.9091 58.021 28.0193 58.021 28.3966C58.021 28.774 58.0277 29.1386 58.039 29.4905C58.0525 29.8424 58.1739 30.19 58.4079 30.5292C58.5811 30.7645 58.806 30.915 59.076 30.9913L59.4494 30.6076L59.4539 30.6034C59.2177 30.614 59.049 30.5461 58.9298 30.4147C58.7858 30.26 58.7183 30.0119 58.7386 29.6537C58.7768 28.9965 58.77 28.4857 58.7183 28.121C58.6283 27.9175 58.5361 27.7607 58.4461 27.6377C58.4214 27.6059 58.3989 27.5762 58.3741 27.5487C58.2819 27.4448 58.1897 27.377 58.0975 27.3537C58.0367 27.3388 57.9512 27.2137 57.8455 26.9996C57.6858 26.6774 57.4721 26.1347 57.2067 25.3589C57.0447 24.8883 56.867 24.3414 56.6668 23.7054L57.1212 23.7245L57.4789 23.7393C58.0727 25.7829 58.5496 26.8831 58.9118 27.042C59.2739 27.1989 59.4404 27.3833 59.4156 27.589C59.4021 27.7034 59.4156 27.8942 59.4584 28.1528C59.4921 28.3627 59.5394 28.615 59.6091 28.9202C60.0725 28.7994 60.3447 28.3966 60.4212 27.7162C60.5494 27.0844 60.3559 26.5969 59.8408 26.2577C59.2987 25.9652 58.9905 25.6981 58.9118 25.4564C58.7566 25.043 58.9253 24.7865 59.4156 24.6911C59.6991 24.5449 59.0152 23.9619 57.3641 22.9401C56.5138 22.3805 56.2551 21.8823 56.5903 21.4435C56.7185 21.2252 56.9592 21.2294 57.3079 21.4605C57.6566 21.6915 57.8815 21.7467 57.985 21.6237C58.1649 21.2824 58.0232 21.0471 57.5598 20.9114C57.0942 20.7779 56.876 20.6253 56.9007 20.4557C56.876 19.7031 56.8872 19.1901 56.939 18.923C56.9907 18.6559 56.9637 18.3401 56.8603 17.9754C56.5768 17.5875 56.0347 17.6108 55.2339 18.0475C55.4138 17.6342 55.4588 17.2335 55.3689 16.8434C55.2789 16.4534 55.0787 16.0782 54.7705 15.7114L54.3813 14.5816C54.2779 14.1936 54.5118 13.9244 55.0787 13.7781C54.8987 13.0256 54.8987 12.4893 55.0787 12.1734V12.1777H55.0764ZM54.2239 38.6291C54.0687 38.9217 53.9337 39.1761 53.8167 39.3944C53.702 39.6127 53.5648 39.8311 53.4096 40.0516C53.3578 39.6615 53.1914 38.9683 52.9057 37.972C52.674 37.2915 52.6088 37.3042 52.7122 38.008C52.9192 39.1506 53.0609 40.2572 53.1374 41.3277C52.6987 40.8889 52.2533 40.5116 51.8012 40.1957C51.3491 39.8798 50.9554 39.5386 50.6202 39.1739C50.3368 39.0043 50.2851 39.0277 50.465 39.246C50.7732 39.6361 51.2321 40.0918 51.8395 40.6154C52.4468 41.139 52.8135 41.4846 52.9417 41.6542C53.0722 41.8237 53.1486 41.97 53.1734 42.093C52.9417 42.3855 52.6695 42.6886 52.3613 43.0045C52.1814 42.907 52.0779 42.7438 52.0509 42.5127C52.0262 42.2816 51.9407 42.112 51.799 42.0018C51.6572 41.8916 51.2253 41.5588 50.501 40.9991C49.8554 40.4628 49.6485 39.9774 49.8824 39.5407C49.7025 39.3223 49.5405 39.0658 49.3988 38.7754C49.2571 38.4829 49.2886 38.1988 49.4955 37.9169C49.7025 37.637 50.1793 37.7642 50.9284 38.3006C51.0566 37.8872 51.0566 37.4971 50.9284 37.1325C50.8002 36.7679 50.645 36.4033 50.465 36.0387C50.1276 35.4536 49.8059 34.9554 49.4978 34.5442C49.2143 33.9845 49.1491 33.6687 49.3043 33.5966C49.4573 33.5224 49.7047 33.6199 50.0399 33.8892C50.6855 33.232 51.1106 33.0433 51.3176 33.3232C51.5245 33.603 51.6932 34.0715 51.8215 34.7286C51.9519 35.3858 51.9632 36.0662 51.8597 36.7721L51.7045 36.9163L51.8597 37.0626C51.9114 37.2088 51.8462 37.7558 51.6662 38.7033C51.6662 38.8984 51.7292 39.0913 51.8597 39.2863C51.808 38.9937 51.7945 38.7754 51.8215 38.6291C51.8484 38.5062 51.9317 38.2221 52.0734 37.7706C52.2151 37.3191 52.2871 37.0668 52.2871 37.0053C52.2871 36.9439 52.2938 36.9015 52.0869 36.8781C52.3186 36.8039 52.3568 36.7001 52.4221 36.5665C52.4873 36.433 52.4985 36.2994 52.4603 36.1659C52.4221 36.0323 52.3951 35.6486 52.3816 35.0169C52.3681 34.3852 52.3051 33.904 52.1881 33.5754C52.0711 33.2468 52.0014 32.9925 51.9744 32.8101C51.9474 32.6278 51.7945 32.524 51.5088 32.5007C51.2253 32.4752 50.8249 32.7444 50.3076 33.3041C50.5393 32.2569 50.7777 31.5594 51.0252 31.2054C51.2703 30.8514 51.5223 30.7497 51.781 30.8959C52.0374 31.0422 52.2061 31.1991 52.2848 31.3708C52.3613 31.5404 52.4783 31.5107 52.6335 31.2796C52.7887 31.0486 52.9169 30.9701 53.0227 31.0422C53.1261 31.1143 53.2364 31.2605 53.3511 31.4789C53.4681 31.6972 53.5513 31.9304 53.603 32.1721C53.6548 32.4159 53.6998 32.8589 53.738 33.5033C53.7762 34.1478 53.693 34.5802 53.4861 34.7986C53.2791 35.0169 53.1756 35.2861 53.1756 35.602C53.2274 36.8675 53.3308 37.4929 53.4861 37.4802C53.6413 37.4675 53.828 37.3699 54.0462 37.1876C54.2666 37.0053 54.4578 36.9375 54.6265 36.9862C54.7952 37.035 54.892 37.3869 54.9167 38.0441C54.9437 38.7012 55.0067 38.7669 55.1102 38.2454C55.2136 37.7218 55.4071 37.4611 55.6905 37.4611C55.974 37.4611 56.0257 38.1649 55.8457 39.5767C54.8402 40.4289 54.1182 41.1327 53.6773 41.6923C53.522 41.0839 53.5153 40.6578 53.6593 40.4162C53.801 40.1724 53.9292 39.8989 54.0462 39.5958C54.1631 39.2926 54.2599 39.0192 54.3364 38.7754C54.5411 38.1924 54.5051 38.1437 54.2194 38.6291H54.2239ZM48.6497 47.5664C48.7532 48.1261 48.436 48.7535 47.7004 49.4446C46.9649 50.1378 46.4812 50.7759 46.2495 51.3609C46.1191 51.7998 45.6174 52.2725 44.7401 52.7834C44.6884 52.6371 44.4815 52.4081 44.1215 52.0902C44.0698 51.9927 43.9663 51.9566 43.8111 51.9799C42.9338 52.1983 41.1657 52.9275 38.5069 54.1676C38.0435 54.386 37.3844 55.0325 36.5341 56.1009H35.0225C34.6108 55.8826 34.1699 55.5773 33.7065 55.1894C33.3714 54.9456 32.7775 55.0325 31.9249 55.4438C31.1264 55.2742 30.3256 55.4311 29.5248 55.9186C29.0344 56.0882 28.6722 56.1242 28.4405 56.0289L26.5442 54.0955C22.6212 52.5396 20.4774 51.8464 20.1175 52.016C19.7306 52.2343 19.4472 52.5502 19.2672 52.9657C18.8781 52.7961 18.2999 52.3318 17.5261 51.5793L16.3249 50.3031C15.4476 49.3789 15.0855 48.5034 15.2407 47.6766L15.4341 46.5447C15.4589 46.3751 15.4341 46.2394 15.3576 46.144C15.0742 45.8515 14.5703 45.6755 14.3116 45.6268C14.2577 45.6034 14.089 45.5504 13.8977 46.2097C13.927 46.3009 13.5041 45.7455 13.1419 45.2515L14.9662 44.4714C15.4949 45.0141 16.0752 45.5568 16.7298 46.1186L15.7828 48.0985L16.0662 48.3168C16.4554 48.6157 18.057 49.7032 18.4664 49.9555L18.7768 50.1463L20.4639 48.6857C21.1883 49.0779 21.9351 49.434 22.6909 49.7477L22.4322 51.9079L22.7809 52.0308C23.2735 52.2025 25.1248 52.7664 25.6017 52.8957L25.9639 52.9932L27.0864 51.1044C27.9344 51.2698 28.7555 51.3906 29.5405 51.4648L30.0062 53.5931L30.3796 53.6059C30.6338 53.6143 31.2501 53.6186 31.8642 53.6186C32.4783 53.6186 33.0924 53.6143 33.3376 53.6059L33.7133 53.5931L34.1632 51.4754C35.0405 51.3843 35.8503 51.2634 36.6196 51.1066L37.7578 52.9932L38.1177 52.8957C38.6059 52.7643 40.4887 52.194 40.9453 52.0287L41.2895 51.9036L41.0308 49.7583C41.8001 49.4298 42.5424 49.0694 43.2443 48.6857L44.9426 50.1399L45.2485 49.9597C45.6872 49.7011 47.3045 48.5712 47.6465 48.3253L47.9479 48.107L46.9806 46.1355C47.6397 45.5822 48.2223 45.0332 48.7487 44.4736L50.6652 45.2876C50.5505 45.4614 50.4718 45.5801 50.4673 45.5907C50.4043 45.614 49.509 45.1413 49.2121 45.3872C48.8994 45.6501 48.643 46.0041 48.4967 46.2182L48.652 47.5685H48.6497V47.5664ZM41.0218 55.5943C40.8913 55.1809 41.0465 54.8523 41.4852 54.6085C41.8991 54.316 42.349 54.1952 42.8393 54.2439C43.0463 54.2673 43.0575 54.6213 42.8776 55.3017C42.7224 55.643 41.9598 56.0564 40.5921 56.5419L39.3144 56.3956L40.6686 55.6664L41.0173 56.1772H41.2107L41.0173 55.5943H41.0218ZM42.7651 53.6249C42.4299 53.6016 41.9778 53.7034 41.4109 53.9344C40.8418 54.1655 40.5336 54.4877 40.4819 54.9011C40.3784 55.1936 40.2367 55.3759 40.0568 55.448C39.4899 55.7405 38.9725 55.9949 38.5091 56.2133L37.3102 56.1412L37.9288 55.3378C38.2392 54.9965 38.6373 54.6933 39.13 54.4262C41.3232 53.4045 42.7809 52.8088 43.5052 52.6392C43.6334 52.5905 43.7504 52.6265 43.8539 52.7494L44.1643 53.1141L43.7391 53.3706C43.4804 53.5635 43.1588 53.6504 42.7719 53.6249H42.7651ZM21.5482 52.8597C21.1365 52.6413 20.8014 52.5671 20.5427 52.6413C20.3627 52.6901 20.167 52.9339 19.9623 53.3706L19.8836 53.2964C19.987 52.883 20.149 52.6265 20.3672 52.5311C20.5854 52.4336 20.8643 52.459 21.1995 52.6032L23.0576 53.4426L26.2338 54.5725C27.0076 55.3505 27.4845 55.8847 27.6667 56.1772C27.0211 56.2514 26.3238 56.3002 25.577 56.3235L23.9124 55.2275C23.242 54.475 22.7516 53.926 22.4412 53.5847C22.1308 53.2434 21.8339 53.0017 21.5504 52.8554V52.8597H21.5482ZM22.1668 54.0998C21.8046 54.2715 21.4447 54.2715 21.0825 54.0998L20.4639 53.6631C20.6709 53.1755 20.9408 53.0187 21.276 53.1883L21.8946 53.6991L22.1645 54.0998H22.1668ZM50.555 44.2594L48.4855 43.3797L48.2538 43.6362C47.6285 44.3273 46.9176 44.9972 46.0808 45.6819L45.8109 45.9023L46.7579 47.8293C46.29 48.16 45.505 48.7027 45.0371 49.01L43.359 47.5728L43.0553 47.7466C42.205 48.2299 41.285 48.6772 40.3244 49.0715L40.0028 49.2051L40.257 51.3079C39.7103 51.4839 38.7746 51.768 38.2122 51.9312L37.0965 50.0827L36.75 50.159C35.8188 50.3646 34.8268 50.513 33.7178 50.6169L33.3669 50.6487L32.9282 52.7155C32.3479 52.7219 31.3716 52.7219 30.7867 52.7155L30.3301 50.6275L29.9747 50.5999C29.0209 50.5257 28.0019 50.3773 26.9446 50.159L26.6005 50.0869L25.5027 51.9312C24.9471 51.768 24.0181 51.4839 23.4625 51.3058L23.7167 49.1839L23.3882 49.0545C22.4525 48.6836 21.5302 48.2426 20.6439 47.7466L20.3402 47.5749L18.6824 49.01C18.21 48.7005 17.4182 48.16 16.957 47.8335L17.886 45.8917L17.6251 45.6734C16.7883 44.9696 16.0752 44.3018 15.4431 43.632L15.2092 43.384L13.1689 44.2573C13.1239 44.2001 13.0677 44.1259 13.0137 44.0581C13.3354 43.5557 13.7088 42.801 13.954 41.9573C14.3521 40.59 14.5366 39.0807 14.5186 38.5041C14.5816 38.396 14.5951 38.3663 14.6671 38.3006C14.8335 38.1797 15.0112 37.777 15.1799 37.2428C15.956 38.8814 17.002 40.4162 18.3044 41.7792L18.7094 42.2032L24.0991 34.788L21.1455 44.1195L29.4798 38.6885L23.6312 45.6246L24.1823 45.8642C26.6095 46.9177 29.2211 47.4435 31.835 47.4435C34.4488 47.4435 36.9525 46.9389 39.3437 45.9299L39.8948 45.6967L34.0889 38.5995L42.5739 44.1195L39.6676 34.966L44.8639 42.3473L45.2755 41.9276C47.1763 39.9901 48.5395 37.6879 49.3335 35.2225C49.8959 36.1595 50.6135 37.1537 50.6472 37.7176C50.1141 37.2703 48.9062 37.2576 48.9039 38.3472C48.9039 38.6779 49.1896 39.2375 49.3088 39.4771C49.0614 40.6387 50.483 41.4888 51.6437 42.5827C51.6392 42.6844 51.6482 42.7544 51.6595 42.8222C51.3243 43.2716 50.8564 43.8779 50.555 44.2573V44.2594ZM12.9147 30.9701C12.5031 32.9882 12.2579 35.5787 12.1792 38.7415L12.1409 40.8211L12.0622 43.668L11.5583 43.1211C11.1961 41.4189 11.0432 39.6297 11.0949 37.7579C11.1714 36.3715 11.4053 34.8749 11.7922 33.2702C12.3344 31.2521 12.8495 30.1815 13.3399 30.0607C13.6233 30.7666 13.8573 32.0724 14.0372 33.9824C14.2172 35.8924 14.2172 37.6116 14.0372 39.1443C13.8055 41.0903 13.4569 42.4046 12.9912 43.0851L12.4873 44.1068C12.4873 42.5996 12.5076 41.3701 12.5458 40.4225C12.5841 39.475 12.6223 38.2158 12.6628 36.6471C12.701 35.0784 12.8113 33.2956 12.9912 31.3008C13.0947 30.8154 13.0699 30.7051 12.9147 30.9722V30.9701ZM10.8632 36.0408C9.72724 37.8893 8.84995 39.7251 8.23135 41.5503C8.07614 42.1099 7.94792 42.7798 7.84219 43.5578C7.76571 42.5593 7.93892 41.1687 8.36632 39.3796C8.79147 37.5925 9.76548 35.7377 11.2884 33.815C11.0297 34.8134 10.888 35.5554 10.861 36.0408H10.8632ZM10.8925 42.3537L10.8655 42.3813L10.0512 41.404L10.6698 39.9456C10.645 40.7257 10.7215 41.5291 10.8925 42.3558V42.3537ZM7.10887 35.4918C6.85018 35.248 6.51501 34.1541 6.10336 32.2081C6.1281 31.6972 6.34855 30.932 6.7602 29.9102C6.83668 29.7215 6.93341 29.5138 7.02789 29.306C7.02114 30.0416 7.02339 31.2499 7.03688 31.6061L7.05038 31.958L9.30884 32.3968C9.38757 33.1154 9.51354 33.8786 9.69125 34.7095L7.68248 35.7864L7.79045 36.1277C7.88043 36.416 8.17961 37.2979 8.4203 37.9847C8.28309 38.3854 8.15937 38.7924 8.06489 39.21C7.83319 38.8687 7.70048 38.3769 7.49353 37.7324C7.28882 37.088 7.22359 36.6577 7.30007 36.4372C7.50702 36.0959 7.44179 35.7801 7.10662 35.4896H7.10887V35.4918ZM9.35608 35.9263C9.21886 36.1701 9.0884 36.416 8.96692 36.6683C8.91069 36.5029 8.85895 36.3503 8.81396 36.2167L9.35383 35.9263H9.35608ZM27.8219 25.5009L28.3348 25.6429L28.3573 25.1384L31.8507 15.7411L35.3756 25.1511L35.3914 25.6535L35.911 25.5179L46.4655 25.7447L38.0615 31.8053L37.5599 31.9728L37.8568 32.3947L40.8846 41.9319L32.1814 36.2697L31.8552 35.8733L31.5223 36.2676L22.8326 41.9319L25.8581 32.3692L26.1618 31.9516L25.6579 31.7757L17.2562 25.7447L27.8219 25.503V25.5009ZM27.435 24.4579L17.1415 21.5961C19.5731 17.9182 23.44 15.3023 27.8962 14.3208L27.435 24.4579ZM36.001 14.359C40.4729 15.3998 44.315 18.0602 46.6814 21.7615L36.3069 24.4813L35.9987 14.359H36.001ZM48.7284 33.9294C48.0986 36.4775 46.8276 38.8708 44.9808 40.891L39.0265 32.4328L49.1378 29.0347C49.2458 30.4041 49.1468 31.7672 48.8949 33.0963C48.7307 33.215 48.6362 33.4228 48.6722 33.7259C48.679 33.7895 48.7104 33.8637 48.7262 33.9315H48.7284V33.9294ZM38.3944 45.3363C34.1362 46.9686 29.3696 46.9495 25.1383 45.2812L31.844 37.3275L38.3944 45.3363ZM15.857 32.8292C15.7806 32.4392 15.6838 32.2399 15.5668 32.2272C15.4499 32.2145 15.3397 32.2463 15.2384 32.3183L15.4701 31.8795C15.5983 31.5637 15.5983 31.3559 15.4701 31.2605C15.4139 31.2054 15.0292 31.1969 14.5906 31.3072C14.5321 30.491 14.5164 29.6707 14.5906 28.8482L24.6884 32.3904L18.6126 40.7469C17.2674 39.2375 16.2552 37.5226 15.5646 35.7037C15.8008 34.5315 15.9425 33.3083 15.8593 32.8292H15.857ZM14.6198 33.9612L14.3881 34.3619L14.3499 33.6327L14.9303 32.9395C15.3172 32.5748 15.4859 32.7699 15.4341 33.5224C15.3554 34.6184 15.099 35.9793 14.6603 37.6095C14.6356 36.2719 14.5703 35.373 14.4669 34.9088L14.8155 33.9973C14.8425 33.6814 14.7773 33.6687 14.6221 33.9612H14.6198ZM14.8515 31.5531C15.1867 31.481 15.2519 31.6252 15.045 31.9898L14.3094 33.0115C14.2577 32.5982 14.1924 32.2463 14.1159 31.9537C14.3746 31.7841 14.6198 31.6485 14.8515 31.5531ZM54.8987 36.221C54.8672 36.3249 54.8245 36.4499 54.784 36.5771C54.604 36.5114 54.4128 36.5029 54.2824 36.5898C54.2734 36.5962 53.9292 36.823 53.7178 36.9757C53.6458 37.0265 53.5805 36.6407 53.558 36.3524C53.549 36.2083 53.5266 35.8097 53.567 35.5002L54.901 36.221H54.8987ZM55.8435 37.0011C55.8547 36.9863 55.7625 36.9714 55.6523 36.9693C55.776 36.5983 55.8817 36.2676 55.92 36.1023L55.9965 35.7801L54.0282 34.7159C54.0304 34.7011 54.0327 34.6883 54.0372 34.6735C54.0507 34.6502 54.0687 34.629 54.0822 34.6057C54.1946 34.4149 54.2374 34.0778 54.2306 33.675C54.3049 33.2405 54.3678 32.8144 54.4128 32.3989L56.6601 31.9622L56.6848 31.623C56.7073 31.3326 56.7163 30.5207 56.7095 29.8254C56.7883 29.9526 57.7196 30.9065 58.0682 31.7841C57.9445 32.3777 57.9602 32.8886 57.958 32.9183C57.8253 34.0905 57.6003 35.1674 57.2877 36.1468C56.1899 35.6486 56.01 36.3291 55.848 36.999H55.8435V37.0011ZM58.6801 31.604C58.8353 31.5552 59.1839 31.5955 59.5191 31.5955C59.157 33.444 58.7408 35.4684 58.4056 36.734L57.8635 36.4414C58.3292 34.6905 58.5788 32.7232 58.6801 31.604ZM55.7175 28.2885L54.4083 28.0447C54.3229 27.2328 54.1924 26.4548 54.0169 25.7277L54.3611 25.5433C54.721 26.4782 55.1799 27.3918 55.7175 28.2906V28.2885ZM47.7274 12.7818C47.8332 12.8984 47.9501 13.0235 48.0896 13.1655C48.508 13.5958 49.2998 14.0198 49.9656 14.2848C49.9229 14.3293 49.7407 14.8042 49.572 15.2387C49.5248 15.3638 49.4843 15.5079 49.4528 15.6585L48.7577 15.9637C48.2021 15.3808 47.6217 14.8338 46.9941 14.3039L47.7297 12.7797H47.7274V12.7818ZM46.7534 11.4802C46.8366 11.4802 46.9176 11.4887 47.0009 11.4866C47.0054 11.5438 47.0346 11.6201 47.0571 11.6922C46.9604 11.6244 46.8614 11.5544 46.7557 11.4802H46.7534ZM50.3526 6.08945C50.3796 5.74816 50.618 5.64641 51.0679 5.77784C51.52 5.91351 51.9384 6.81868 52.3253 8.49548L52.9439 8.71383C53.1509 8.2517 53.3196 8.02064 53.4478 8.02064C53.6548 8.02064 53.8595 8.42129 54.0664 9.22471C54.5838 9.66352 54.829 10.38 54.802 11.3785C54.4668 11.7918 54.2869 12.3027 54.2599 12.9111L53.9495 12.254C53.7695 11.5247 53.6908 10.7595 53.7178 9.95606C53.693 9.61476 53.6525 9.61476 53.6008 9.95606C53.5243 10.662 53.5108 11.2576 53.5625 11.7431C52.8652 10.893 52.1184 10.1256 51.3176 9.44518C51.1624 8.90885 51.1129 8.30258 51.1624 7.6221C51.0836 7.03703 51.0206 6.90348 50.9689 7.22145C50.9172 7.95068 50.9442 8.63327 51.0454 9.26499C50.4515 8.70535 49.7542 7.89133 48.9556 6.8208C48.7509 6.47951 48.6587 6.40743 48.6857 6.60246C49.1761 7.47796 49.6912 8.20718 50.2333 8.79014C50.7755 9.3731 51.2141 9.83523 51.5493 10.1765C50.8789 9.9815 50.2963 9.85431 49.8082 9.79283C49.3178 9.73135 48.8657 9.60416 48.454 9.40914C48.0671 9.33706 48.0784 9.42186 48.4923 9.66564C48.7239 9.81191 49.1963 9.94546 49.9049 10.0663C50.6157 10.1871 51.2793 10.3949 51.9002 10.6853C52.2354 10.8803 52.6875 11.3785 53.2544 12.1819L53.72 13.1676C52.9979 12.8009 52.1971 12.5465 51.3198 12.4024C50.4425 12.2561 49.9274 12.1225 49.7722 12.0017C49.1019 11.7346 49.0231 11.7579 49.5405 12.0738C49.6957 12.2201 50.2446 12.3833 51.1849 12.5656C52.1274 12.7479 53.0362 13.0956 53.9135 13.6043L53.9899 13.8227C53.81 14.0177 53.7447 14.2848 53.7965 14.6261L54.0664 15.3553C53.8347 15.0882 53.5108 15.209 53.0992 15.7199C53.2544 15.4041 53.2161 15.1115 52.9822 14.8444C52.62 14.3335 51.7427 13.7866 50.3503 13.2015L50.1186 13.6022C48.9826 13.2609 48.2718 12.6292 47.9884 11.7049C47.9636 11.4124 48.2336 11.2492 48.8004 11.211C49.3673 11.175 49.4573 11.0223 49.0704 10.7552C48.3213 10.5115 47.7027 10.0981 47.2123 9.51513C46.8771 9.10176 46.8771 8.80922 47.2123 8.63963L47.7949 8.49336L48.0649 8.16479L47.7162 6.88864C47.6127 6.23148 47.8062 5.76936 48.2965 5.50226C48.9939 5.40474 49.6755 5.59977 50.3481 6.08521L50.3526 6.08945ZM42.7651 7.11122L42.8416 6.27388L42.106 6.41803C41.4087 6.63638 40.7114 6.44347 40.0163 5.83507C39.5529 5.90927 39.3594 5.73756 39.4359 5.32419C39.6159 4.95746 39.5641 4.76455 39.2807 4.74123L38.1582 4.85146C37.4361 4.75395 36.9592 4.55892 36.7253 4.2685C36.5701 4.02472 36.6736 3.72158 37.0357 3.35697C36.3384 3.08987 35.9065 2.79733 35.7378 2.48147C35.5713 2.16561 35.6748 1.90911 36.0482 1.71621C36.4239 1.52118 37.1145 1.48514 38.12 1.60597C37.8883 1.33887 37.823 1.05905 37.9265 0.766514C37.9535 0.473975 38.6239 0.632964 39.9398 1.24136L40.7136 1.67805C40.9183 1.31344 41.2692 1.2032 41.7574 1.34947C42.3512 1.61657 42.9068 1.93879 43.422 2.31612C43.9393 2.69346 44.5197 3.23402 45.1653 3.93993C45.7074 3.59863 46.0943 3.67283 46.326 4.15827L46.443 5.03377C45.8761 4.52289 45.1788 4.48685 44.3532 4.92354L43.8111 4.70519C43.062 3.85301 42.6122 3.2107 42.4569 2.77189C42.3017 2.21225 42.2252 2.16349 42.2252 2.62562C42.25 3.11107 42.5604 3.73218 43.1543 4.48685C42.0183 4.14555 41.186 3.70886 40.6574 3.17466C40.1265 2.63834 39.7216 2.18893 39.4382 1.82432C39.1547 1.38551 39.0378 1.38551 39.0895 1.82432C39.3999 2.35852 39.8251 2.8588 40.3672 3.31881C39.9555 3.14922 39.5664 2.97752 39.2065 2.80793C38.3022 2.44331 37.5554 2.24829 36.9615 2.22497C36.6781 2.22497 36.6646 2.27373 36.9233 2.37124C37.931 2.61502 38.6598 2.83973 39.112 3.04747C39.5641 3.2531 39.8678 3.44176 40.0208 3.61135C39.2987 3.90389 38.5496 4.03744 37.7758 4.01412C37.2854 3.98868 37.065 4.0014 37.119 4.05016C37.1707 4.09892 37.3259 4.14767 37.5824 4.19431C38.5114 4.29182 39.4539 4.19431 40.4099 3.90177C41.1073 4.24307 41.9193 4.57164 42.8483 4.8875C42.2792 5.01045 41.7259 5.25211 41.1837 5.61673C40.9768 5.86051 41.0803 5.87111 41.4942 5.65277C41.9058 5.36023 42.5267 5.17792 43.3522 5.10584L44.0091 5.36023C43.9573 6.01738 44.126 6.68513 44.513 7.36772L44.0878 7.51399L42.7719 7.11122H42.7651ZM45.7839 10.2126L46.0448 9.79919C45.2035 9.4367 44.4297 9.00849 44.3892 8.02488L45.0866 7.76837C45.397 7.42708 45.4037 7.1727 45.1046 7.00311C44.8076 6.83352 44.6457 6.38411 44.6209 5.65277C44.9044 5.06981 45.6017 5.06981 46.7107 5.65277C47.2011 4.75395 47.7949 4.48473 48.4923 4.85146C47.7432 4.85146 47.3045 5.1546 47.1763 5.763C47.0976 6.15305 47.0976 6.6279 47.1763 7.18542C46.9176 6.84412 46.6094 6.5537 46.2473 6.30992C45.5499 5.96862 45.4217 6.00678 45.8581 6.42015C46.2968 6.83352 46.6837 7.25961 47.0211 7.69842C46.452 8.13723 45.8334 8.33013 45.163 8.28138C44.9314 8.37889 44.9696 8.43825 45.28 8.46369C45.5904 8.53788 45.9504 8.51244 46.3643 8.39161C46.3125 8.77954 46.4497 9.4261 46.6297 9.81615C46.8749 10.1468 47.2011 10.4415 47.5857 10.7086C47.4058 10.7574 47.2573 10.8485 47.1786 11.0181C45.7322 11.0414 45.442 11.0096 45.361 10.7998C45.307 10.6386 45.2755 10.4903 45.7839 10.2168V10.2126ZM18.6824 11.4188L20.3582 12.8539L20.6619 12.6801C21.5572 12.1713 22.4727 11.7325 23.386 11.3721L23.7167 11.2428L23.4625 9.13144C24.0046 8.95125 24.9381 8.66507 25.4892 8.5082L26.6275 10.3673L26.9761 10.2846C27.8984 10.0684 28.9129 9.91366 29.9949 9.82887L30.3526 9.80131L30.7935 7.72386C31.3693 7.71114 32.3568 7.71114 32.9327 7.72386L33.3916 9.80343L33.747 9.83099C34.7525 9.9073 35.74 10.0578 36.768 10.2889L37.119 10.3673L38.2234 8.51032C38.7813 8.66719 39.7238 8.95337 40.2615 9.13356L40.0073 11.247L40.3357 11.3764C41.2692 11.7473 42.1938 12.1861 43.0778 12.6843L43.3837 12.8581L45.0303 11.4188C45.5027 11.724 46.299 12.2752 46.7669 12.6122L45.8356 14.5434L46.1033 14.7639C46.8929 15.4125 47.606 16.0824 48.2808 16.8138L48.517 17.0682L49.4505 16.6569C49.4933 16.8244 49.5585 16.9791 49.662 17.1021C49.5765 17.0618 49.2053 17.3056 49.0749 17.4985C48.5935 18.2002 49.6372 19.2071 49.8037 19.5547C49.7227 19.5463 49.4348 19.684 49.2818 19.7858C48.9219 20.0275 49.0456 21.2358 50.0669 21.4435C50.3211 21.5601 51.493 22.2024 52.0801 22.7621C52.1949 22.8723 52.5233 23.4553 52.9912 24.034C53.1936 24.2841 53.4163 24.6615 53.8145 24.8077L52.9304 25.2826L53.0182 25.6133C53.2499 26.4866 53.4118 27.4448 53.5018 28.4581L53.531 28.7952L55.7558 29.2106C55.7693 29.7533 55.7693 30.6818 55.7558 31.2245L53.9157 31.5828C53.873 31.4238 53.8257 31.2669 53.7762 31.1206C53.6548 30.7603 53.4051 30.5885 53.1824 30.508C53.0947 30.4741 52.5143 30.508 52.4063 30.9235C52.3748 30.6861 51.9677 30.544 51.6662 30.4762C50.8204 30.2875 49.9139 31.8202 50.0151 33.2426C49.9656 33.2044 49.9117 33.179 49.8599 33.1493C50.1456 31.5849 50.2266 29.9823 50.0421 28.3712L49.9769 27.8052L41.0105 30.8175L49.2098 24.9052L39.0917 24.6869L48.1278 22.319L47.8332 21.8209C45.2665 17.4688 40.8148 14.3823 35.6186 13.3542L35.027 13.2376L35.2991 22.2173L31.862 13.0362L28.5103 22.0477L28.9107 13.21L28.3168 13.3203C23.143 14.2784 18.6599 17.3119 16.0145 21.6385L15.7131 22.1325L24.8459 24.6721L14.5298 24.9074L22.5919 30.6945L13.7875 27.6059L13.7155 28.174C13.6503 28.6955 13.6233 29.2149 13.6098 29.7342C13.5851 29.677 13.5626 29.6261 13.5423 29.5859C13.4883 29.4735 13.3196 29.5943 13.3151 29.5965C12.2309 30.2155 11.7495 31.57 11.3649 33.249L11.0544 33.5182C10.8857 33.7153 10.7238 33.9188 10.564 34.1245C10.4133 33.3677 10.2964 32.649 10.2356 31.9898L10.2064 31.6548L7.99291 31.2245C7.98616 30.6755 7.98616 29.7533 7.99291 29.2043L10.2086 28.774L10.2379 28.439C10.3166 27.5317 10.4696 26.599 10.708 25.5836L10.7845 25.2571L10.2919 24.9964C12.0442 23.4404 15.1642 19.3512 15.8998 16.3622C16.4576 15.792 17.0335 15.2472 17.6296 14.7596L17.8995 14.5392L17.1392 12.962C17.2922 12.7013 17.4497 12.432 17.6049 12.1586C17.9895 11.8915 18.4034 11.6074 18.6959 11.4124L18.6824 11.4188ZM7.48003 28.386C7.83769 27.6971 8.26509 26.9466 8.76672 26.139C8.81621 26.0754 9.21661 25.6663 9.34033 25.6366C9.36958 25.6302 9.41232 25.6027 9.44606 25.5899L9.69125 25.7193C9.51354 26.5269 9.38757 27.2901 9.30884 28.032L7.48228 28.386H7.48003ZM16.01 14.6642C15.9808 14.7872 16.2079 14.4607 16.5431 13.9265L16.7253 14.3039C16.4891 14.5031 16.2574 14.7151 16.028 14.9271C16.0212 14.8402 16.028 14.7448 16.0122 14.6621H16.01V14.6642ZM28.517 3.09623C28.517 3.55836 28.2201 4.06924 27.6262 4.62888C26.7219 5.40686 25.5927 6.12337 24.2385 6.78265C22.8844 7.4398 21.123 8.21778 18.9545 9.11872V8.90037C21.5864 7.05187 24.0271 5.54465 26.272 4.3745C26.8659 4.0332 26.8142 3.93781 26.1191 4.08196C25.3453 4.44869 24.4927 4.8981 23.5637 5.4323C22.0161 6.37987 20.5067 7.31685 19.0355 8.2411L19.0738 7.80229C22.0161 5.37083 24.4297 3.80214 26.3148 3.09623C27.2438 2.9012 27.9794 2.9012 28.5215 3.09623H28.517ZM19.7868 3.97173C21.1928 2.87576 22.8776 2.0257 24.8391 1.41731C25.7929 1.17353 26.6207 1.06329 27.318 1.08873C27.6532 1.16293 27.7432 1.34523 27.588 1.63565L26.7377 2.69346C25.9886 2.79097 24.9629 3.19162 23.6604 3.89753C22.3557 4.60344 20.9566 5.54041 19.4584 6.70633L18.9163 7.03491C18.6329 6.83988 18.1155 6.92467 17.3687 7.28929C19.7419 5.41746 21.8091 3.99504 23.5614 3.01991C24.6974 2.48571 25.3565 2.10838 25.5365 1.89003C24.9696 2.0363 24.1688 2.36912 23.1363 2.89272C22.1038 3.41633 20.4009 4.50381 18.0255 6.15941L15.7423 8.09271C17.0335 6.43923 18.3809 5.06345 19.7891 3.96961L19.7868 3.97173ZM16.7411 8.56756C16.9615 8.37889 17.1775 8.18598 17.4047 8.02064C17.5419 7.94856 17.6454 7.91252 17.7533 7.86801C17.9715 7.78109 18.1537 7.73234 18.2572 7.76413C18.2797 7.81501 18.2842 7.88921 18.2977 7.94856C18.3517 8.16479 18.3719 8.42129 18.3337 8.74562V8.76894C18.2977 9.05724 18.1222 9.58084 17.8253 10.2995C17.6858 10.6408 17.5261 11.0117 17.3259 11.4506L15.893 14.077C15.2002 14.1597 14.5343 14.4056 13.891 14.7872C13.5986 14.961 13.3106 15.1539 13.0272 15.3914C13.2589 15.014 13.5153 14.6091 13.7965 14.1788C14.0777 13.7463 14.3814 13.2885 14.7121 12.8009C15.2699 11.9784 16.1067 10.7849 17.1887 9.26499C17.3867 8.98941 17.5756 8.72231 17.7893 8.42341C17.8478 8.33225 17.8905 8.25806 17.9198 8.20082C17.949 8.14359 17.9648 8.10331 17.967 8.07999C17.967 8.07151 17.958 8.07999 17.9535 8.07363C17.94 8.05455 17.8973 8.07363 17.8073 8.14783C17.5891 8.33013 17.002 9.02969 16.046 10.2465C15.866 10.4754 15.6703 10.7362 15.4656 11.0139C14.5928 12.2052 13.5086 13.829 12.2129 15.9022C11.7743 16.5339 10.69 18.1026 8.96018 20.6083C8.82971 20.7313 8.4428 20.8033 7.7972 20.8266L6.51951 24.3647C6.62298 24.5109 6.94466 24.4622 7.48678 24.2184C7.22809 24.6805 6.84118 24.937 6.3238 24.9837L6.01338 24.7653L5.85817 24.2184L5.89641 23.8898L6.20683 23.9259L7.56326 20.6783L6.7512 19.7307L6.94466 19.1838C7.20335 19.6946 7.44854 19.9745 7.68023 20.0232C8.04239 19.3661 8.56427 18.4736 9.24811 17.3416C9.93194 16.2096 10.7395 15.0607 11.6685 13.8926L11.6303 13.6001C11.6303 13.4305 11.7203 13.4178 11.9002 13.564L13.8348 10.9375L12.2489 13.528C12.5053 13.7951 12.3906 13.9774 11.9002 14.0749C10.2491 16.1418 8.98492 18.198 8.10538 20.2416L8.49229 20.3518C8.72398 20.4493 8.94443 20.3518 9.15138 20.0593L11.5133 16.1185L13.7583 12.1777C14.6401 10.698 15.6366 9.50453 16.7321 8.56544H16.7411V8.56756ZM8.96692 21.1192C8.92418 21.1934 8.89494 21.257 8.85445 21.3312H8.83645L8.78022 21.4711C8.33707 22.2745 7.97491 23.0186 7.72747 23.6736L7.41704 23.6376L8.2291 21.2655L8.96467 21.1192H8.96692ZM7.22359 25.096L6.44977 27.0654L5.90765 28.7803L6.10111 27.3219L6.37104 26.2641L6.60274 25.2063L7.22134 25.096H7.22359ZM5.94589 23.345C6.12585 22.2512 6.37329 21.2527 6.68147 20.3518L6.9919 20.7185L5.94589 23.345ZM7.92092 16.96C8.95343 15.3786 10.1929 13.1422 11.637 10.2465C12.0757 9.3943 12.7213 8.43401 13.5738 7.36348C13.8303 6.80384 13.6908 6.81656 13.1487 7.39952C11.8845 8.88342 10.4133 11.2301 8.73523 14.4417L9.4708 12.6907C9.59902 12.3006 10.0129 11.4188 10.7103 10.0451C11.4076 8.67143 12.0892 7.58183 12.7618 6.78053C13.4321 5.9771 13.8977 5.45562 14.1542 5.21184C15.0832 4.45717 15.6253 4.10528 15.7806 4.15403C15.911 4.25155 15.947 4.40841 15.8975 4.62888L14.0012 9.22471C12.7618 11.4866 11.1354 13.846 9.12214 16.3029C8.26959 17.1784 7.74097 17.738 7.53402 17.9818C7.32707 18.2256 7.16061 18.4567 7.03014 18.675L7.18535 18.0539L7.92092 16.96ZM6.41153 36.8803C6.41153 36.3927 6.35305 36.0896 6.23607 35.9687C6.1191 35.8479 6.00438 35.6232 5.88741 35.2946C5.77044 34.966 5.59723 34.4806 5.36328 33.8362C5.13159 33.1917 4.96288 32.613 4.8594 32.1021C4.81891 32.0852 4.78517 32.0597 4.74693 32.0406C4.27679 31.8202 3.89438 31.5064 3.61095 31.0888C3.51422 30.9447 3.4265 30.7899 3.35226 30.6225C3.04184 29.9293 2.75391 29.0241 2.48172 27.9048C2.44123 27.7395 2.41199 27.5572 2.37825 27.3812C2.18929 26.3743 2.10831 25.2169 2.15105 23.8919C2.18029 23.4807 2.21853 23.0737 2.26352 22.6688C2.36925 21.6894 2.51771 20.7228 2.71342 19.771C2.80114 19.3427 2.89787 18.9167 3.0036 18.4927C3.51198 16.5785 4.441 14.7406 5.78168 12.9768C6.14385 12.4999 6.53076 12.0272 6.95365 11.5608C7.02114 11.4908 7.07737 11.4421 7.13811 11.3891C7.46653 11.0902 7.68023 11.0287 7.76796 11.2343C7.79945 11.529 7.8017 11.8173 7.81295 12.1077C7.83769 12.7712 7.83095 13.4263 7.74996 14.0622C7.70947 14.3865 7.63074 14.7384 7.55426 15.0882C7.50252 15.332 7.44629 15.5779 7.37655 15.8344C7.26633 16.2478 7.14936 16.6633 6.99414 17.1105C6.51501 18.6156 6.13035 19.877 5.83117 20.9136C5.50275 22.0562 5.2823 22.9211 5.17433 23.4955C4.8684 24.5131 4.53773 25.7807 4.18456 27.2816C4.09009 27.6844 3.99561 28.0935 3.89663 28.5302C3.69193 27.5338 3.8134 25.4352 4.26555 22.2363C4.71769 19.0375 5.2913 16.7565 5.98864 15.3956C6.1416 15.0713 6.22033 14.8805 6.22708 14.8063C6.22708 14.7808 6.22708 14.7639 6.20908 14.7702C6.17084 14.7851 6.08536 14.8847 5.95039 15.0649C5.17658 16.3071 4.56472 17.844 4.10808 19.6692C3.6357 21.558 3.33202 23.7542 3.20155 26.2662C3.14981 27.9939 3.25329 29.2403 3.51197 30.0056C3.69868 30.561 3.90788 30.9426 4.13508 31.1588C4.22056 31.2415 4.31053 31.3029 4.40276 31.3369C4.42976 31.3517 4.46125 31.3475 4.48824 31.3559C4.55348 31.3792 4.62096 31.4026 4.68844 31.3983C4.78292 31.392 4.8819 31.3602 4.98312 31.3008C5.13834 30.3766 5.24181 29.6283 5.29355 29.0559C5.34529 28.4835 5.41727 27.8158 5.505 27.0505C5.59498 26.2853 5.75694 25.6451 5.98864 25.1342L6.14385 25.2804C5.88516 26.3997 5.75019 27.1777 5.73669 27.6165C5.7232 28.0532 5.69171 28.492 5.63997 28.9287C5.58823 29.3675 5.53649 30.2049 5.48475 31.445C5.62422 30.9998 5.76819 30.5673 5.9189 30.1413C6.10336 29.6134 6.29231 29.0983 6.49251 28.6022L6.91091 27.4596L7.69373 25.3186L8.70374 23.0588L9.24136 21.8526C9.66651 21.0747 10.1771 20.2416 10.771 19.3533C11.3649 18.4651 12.0419 17.5239 12.8045 16.5255C13.1442 16.1524 13.4636 15.8641 13.774 15.6203C14.2892 15.2133 14.7705 14.9653 15.2047 14.9207C15.2497 14.9822 15.2834 15.0585 15.3059 15.1518C15.3509 15.332 15.3487 15.5758 15.3059 15.8768C15.2834 16.04 15.2497 16.2181 15.2024 16.4174C15.135 16.7014 15.0292 16.9961 14.9235 17.2907C14.8493 17.4964 14.766 17.7062 14.6738 17.9182C14.5501 18.2044 14.4286 18.4906 14.2712 18.7873C14.2622 18.8022 14.2532 18.817 14.2464 18.8319C13.8438 19.5314 13.4434 20.1822 13.0452 20.7885C13.0362 20.8012 13.0295 20.8139 13.0205 20.8266C12.8383 21.1043 12.6583 21.3672 12.4761 21.6258C12.4513 21.6619 12.4266 21.7 12.4019 21.7361C12.2489 21.9544 12.0959 22.1579 11.943 22.3614C11.8912 22.4292 11.8395 22.5034 11.7878 22.5713C11.664 22.7324 11.5403 22.8808 11.4188 23.0313C11.3401 23.1288 11.2591 23.2327 11.1804 23.3281C11.0859 23.4404 10.9914 23.5422 10.897 23.6482C10.7912 23.769 10.6855 23.8941 10.5798 24.0064C10.4988 24.0933 10.4178 24.1696 10.3368 24.2544C10.2199 24.3753 10.1029 24.4982 9.98593 24.6106C9.78798 24.7992 9.59227 24.9752 9.39432 25.1384L12.0667 21.0513L13.3444 18.8637C13.711 18.2447 13.855 17.9246 13.7718 17.9055C13.7448 17.8991 13.693 17.9267 13.6143 17.9882C11.0072 21.6852 9.44606 24.0085 8.93093 24.9561C8.41356 25.9037 7.91193 26.7919 7.42154 27.6208C6.93116 28.4475 6.60949 29.0919 6.45427 29.5541C6.29906 30.0162 5.97739 30.8429 5.487 32.0343C5.487 32.2526 5.64222 32.8865 5.95264 33.9315C6.26082 34.9788 6.52626 35.5914 6.74445 35.7737C6.96265 35.956 6.9829 36.1553 6.80294 36.3757C6.72646 36.5708 6.77595 36.9354 6.95815 37.4696C7.08637 38.0547 7.3833 38.856 7.84894 39.8777L7.73197 40.2423C7.24159 39.2206 6.80294 38.1013 6.41603 36.8866V36.8803H6.41153ZM5.13384 26.0436C4.87515 27.9896 4.65695 29.5095 4.47699 30.6034L4.32178 30.3108C4.16657 30.0925 4.43875 28.6701 5.13384 26.0415V26.0436ZM17.4069 53.4426L16.903 52.8215C16.7501 52.6519 16.5364 52.6159 16.2642 52.7113C15.9943 52.8088 15.7805 52.6625 15.6253 52.2746C14.928 52.6625 14.2194 52.5184 13.4973 51.8358L12.2196 50.3773L11.0207 48.444L10.5955 48.1515C10.3503 48.2999 10.0782 48.3508 9.78123 48.3105C9.27735 48.249 8.69699 47.931 8.11663 47.3502C8.07164 47.312 8.0199 47.2569 7.96366 47.1891C7.65999 46.8308 7.17635 46.0634 6.51951 44.9039C6.29681 44.5096 6.05612 44.0771 5.79293 43.5917C4.47699 41.2323 3.51647 39.3647 2.90462 37.9741C2.7854 37.7028 2.67292 37.442 2.5807 37.2088C2.52671 37.052 2.48172 36.9227 2.43223 36.7806C2.23878 36.2231 2.08132 35.7822 1.96209 35.46C1.88111 35.2416 1.81363 35.0572 1.76864 34.9448C1.70341 34.788 1.65842 34.7074 1.63367 34.7032C1.62243 34.7032 1.61568 34.7201 1.61118 34.7519V34.7562C1.60893 34.7943 1.61118 34.8494 1.61568 34.9258C1.62917 35.072 1.68091 35.3116 1.77314 35.6338C1.77539 35.6444 1.77764 35.6529 1.78214 35.6635C1.78214 35.6719 1.78889 35.6825 1.78889 35.6889C1.83612 35.8543 1.89236 36.0366 1.9576 36.2443C2.02733 36.4626 2.10606 36.7022 2.19829 36.9672C2.49972 37.849 3.02834 39.0934 3.75942 40.6621C3.90563 40.9737 4.04735 41.2811 4.20931 41.6202C4.33978 41.8746 4.47025 42.1184 4.60072 42.3664C4.94263 43.0151 5.2823 43.6405 5.61972 44.2425C5.99088 44.9039 6.3598 45.5398 6.72646 46.144C6.00888 45.4148 5.39253 44.7067 4.82566 44.0114C3.88089 42.8519 3.11607 41.7368 2.5852 40.6727C1.81138 39.1506 1.28501 37.7324 0.979079 36.4118C0.947587 36.2761 0.907096 36.1362 0.880103 36.0026C0.832864 35.814 0.794623 35.5766 0.760881 35.3137C0.704645 34.8643 0.664154 34.3174 0.648408 33.6496C0.643909 33.4588 0.641659 33.302 0.63941 33.1408C0.632662 32.7211 0.637161 32.4095 0.648408 32.1996C0.657406 32.0428 0.668653 31.9219 0.686649 31.8795C0.76538 31.6612 0.862107 31.5255 0.97683 31.4556C1.05331 31.4089 1.13654 31.3856 1.22877 31.4047C1.35924 31.4047 1.64042 31.6675 2.05657 32.1615C2.13305 32.2526 2.20729 32.3374 2.29277 32.4455C2.78765 33.0624 3.43999 34.364 4.24755 36.3461C4.34878 36.5941 4.45225 36.8463 4.55798 37.1156C5.32054 39.0489 5.84467 40.4416 6.1371 41.3107C6.21133 41.5291 6.27432 41.7241 6.31931 41.8767C6.5375 42.6314 6.75795 43.2864 6.9784 43.8461C7.1966 44.4057 7.46203 44.976 7.77021 45.561C7.90518 45.8133 8.0379 46.0359 8.17286 46.2415C8.47429 46.7036 8.77347 47.0449 9.0749 47.2739C9.10414 47.2972 9.13338 47.3269 9.16488 47.3481C9.31784 47.4498 9.46181 47.5304 9.59452 47.5919C9.99268 47.772 10.2986 47.7636 10.5191 47.5643L9.10189 45.1773C8.97367 45.1244 8.82971 45.1138 8.66325 45.1583C8.634 45.1583 8.61826 45.1498 8.59126 45.1498V45.1604C8.53278 45.1604 8.49004 45.1392 8.4383 45.1307C8.37981 45.1201 8.31458 45.118 8.26734 45.0968C8.2201 45.0777 8.18861 45.0417 8.15262 45.0141C8.10988 44.9823 8.06264 44.9569 8.03115 44.9145C7.99965 44.87 7.98616 44.8064 7.96816 44.747C7.95242 44.7004 7.92767 44.6622 7.91867 44.6071C7.90293 44.482 7.90518 44.34 7.92992 44.1725C7.94792 44.0157 7.98841 43.8037 8.03565 43.5641C8.12113 43.1381 8.2516 42.5975 8.4338 41.9107C9.00292 40.1109 9.81497 38.3218 10.8722 36.5474C10.744 37.3275 10.6788 37.9826 10.6788 38.5189C10.1479 39.6403 9.70475 40.6303 9.33359 41.5121C9.03666 42.2159 8.78247 42.8582 8.58901 43.4094C8.48329 43.8143 8.43605 44.1111 8.43155 44.3294C8.43155 44.4672 8.44055 44.5753 8.47654 44.6389C8.51028 44.6983 8.55977 44.7279 8.62725 44.7216L8.93768 44.5753L8.70599 44.0644L8.8612 43.6638L9.32459 44.429L9.59677 44.2467L9.82847 44.5753L9.59677 44.9039L11.3401 47.276L11.7653 46.9474L12.0757 47.276C11.5583 47.7614 11.3514 48.0773 11.4548 48.2236C11.9182 49.027 12.3456 49.6714 12.7325 50.1569C13.5063 51.2274 14.1384 51.5305 14.6288 51.0684C14.784 50.9476 14.9775 50.9709 15.2092 51.1426C15.4409 51.3122 15.6996 51.6789 15.983 52.2364L15.9448 51.397L14.5119 50.1208L13.6998 48.5882C13.0295 47.6894 12.5503 46.9941 12.2669 46.5086C11.9835 46.021 11.628 45.4381 11.2029 44.7576C10.7755 44.0771 10.2536 43.3098 9.63501 42.4576L9.75199 42.0569L10.9914 43.4793C12.1027 44.817 12.8832 45.8324 13.3331 46.5256C13.7853 47.2188 14.0485 47.382 14.1272 47.0174L14.3589 46.3242L14.7076 46.5065L14.4759 47.9289L14.3994 48.3656C14.3724 48.7069 14.4444 48.9062 14.6108 48.9676C14.7795 49.027 14.928 49.2538 15.0562 49.6417C15.1327 49.8855 15.5399 50.3901 16.2754 51.1553C17.011 51.9206 17.7848 52.5671 18.5991 53.0886C19.4112 53.6122 20.0838 54.0362 20.6124 54.3648C21.141 54.6933 21.393 55.0156 21.3682 55.3314L22.1038 55.4777L21.9103 54.6022L22.3737 54.492C22.6054 54.6361 22.7989 54.9053 22.9563 55.2954C23.6267 55.7808 24.207 56.1709 24.6974 56.4634L22.9923 56.756L20.0905 55.1131L17.4204 53.4342L17.4092 53.4426H17.4069ZM10.2829 44.906L10.5146 44.6877L11.5988 46.4026L11.4818 46.621L10.2829 44.906ZM12.1027 48.3359L12.5301 47.825L13.5356 49.1754L14.1182 50.1611L14.3116 50.708C13.9495 50.5384 13.6413 50.2819 13.3826 49.9428L12.7618 49.1775L12.1027 48.338V48.3359ZM21.0465 57.1291L18.7251 57.4937L19.2672 56.0352L21.0488 57.1312H21.0465V57.1291ZM26.5825 63.9507C25.4982 64.9492 24.2723 65.8967 22.9046 66.7977L22.439 66.6514C23.2398 66.1893 24.3757 65.4367 25.8469 64.3895L26.5037 63.6963L26.1551 63.6603C25.6647 64.0737 25.1023 64.4934 24.4725 64.9195C23.8404 65.3456 23.1093 65.7526 22.286 66.1426L21.1635 66.6514L21.357 66.8698L22.2073 66.98C22.6977 67.2725 22.9046 67.5651 22.8281 67.8555C22.5694 68.2201 22.1578 68.2689 21.5887 68.0018L20.6596 67.529C20.3245 67.2132 19.9893 66.9927 19.6541 66.8719L19.2672 66.5793L19.4224 66.2147L20.5854 66.6514H20.9341L20.7406 65.9964L22.1353 65.193C22.4974 65.0721 22.6527 64.8644 22.6009 64.574L22.7156 63.9168C23.3095 64.0376 23.9551 63.9465 24.6524 63.6433C25.3498 63.3381 26.0066 63.1621 26.6275 63.1155C27.0144 63.3593 27.0031 63.6391 26.5892 63.955L26.5825 63.9507ZM25.6534 62.4372C24.3105 62.717 23.0981 62.965 22.0138 63.1855C19.3032 63.6476 16.6331 64.0249 13.999 64.3153C13.3286 64.1457 11.3918 63.2088 8.19086 61.5065C5.9189 60.2177 4.33078 59.1726 3.42874 58.3692C2.39624 57.322 1.98234 56.6902 2.18929 56.4719C2.85963 55.4268 3.31177 54.5026 3.54347 53.6991C3.64694 53.3578 3.67169 53.0907 3.6222 52.8957C3.33877 52.069 3.54347 51.6429 4.2408 51.6196C5.97064 51.5221 7.13136 51.4966 7.72522 51.5454C7.98391 51.5687 8.15037 51.4966 8.2291 51.327L8.80946 50.2311L8.46079 50.0848L7.95691 50.814L7.91867 49.9746C7.91867 49.8516 7.99516 49.8177 8.15037 49.8643C9.23461 50.1314 9.73624 50.4727 9.65976 50.8861C9.32459 51.4224 9.16938 52.0287 9.19412 52.7113L9.23236 54.6085C7.86469 53.7564 6.39354 53.0017 4.81891 52.3467C4.99887 52.3234 5.20582 52.3043 5.43752 52.2916C5.66921 52.2788 5.82442 52.2004 5.90091 52.0541C5.97964 51.91 5.83567 51.8231 5.47576 51.7998C4.67495 51.7998 4.15982 51.8591 3.92813 51.9821C3.74817 52.1771 3.78641 52.3827 4.0451 52.6011C5.90315 53.4766 7.54076 54.3521 8.96243 55.2275C11.2074 56.5652 12.9485 57.6611 14.1879 58.5112C15.4004 58.4858 17.1032 58.3289 19.2987 58.0363L22.6279 57.4534C23.9956 57.2096 25.415 57.004 26.8862 56.8344C27.4283 56.7602 28.1121 56.7114 28.9377 56.6881C29.7632 56.6648 30.5258 56.6033 31.2231 56.5058C31.8935 57.6972 32.3074 58.7444 32.4626 59.6432C32.5391 60.1053 32.4761 60.3597 32.2691 60.4085C29.1986 61.479 26.9896 62.1531 25.6489 62.4329L25.6534 62.4372ZM35.5646 61.2522L35.3711 60.6692L34.3251 61.9093L33.4726 62.4202C33.0857 62.736 32.6853 62.8569 32.2736 62.7848L30.9194 62.1637L31.6168 61.8351L31.8102 61.9814C31.682 62.346 31.835 62.2972 32.2759 61.8351L33.4748 60.7392C33.5513 60.082 33.3849 59.2383 32.971 58.2038C32.5593 57.1693 32.2489 56.5206 32.0419 56.2514C31.9902 56.0331 31.3963 55.9843 30.2603 56.1052C30.9307 55.7893 31.718 55.7639 32.6223 56.0331L33.5513 56.3977L34.0574 56.1942L33.9855 56.1306L33.1262 55.7427L33.5896 55.7787L33.9832 56.1306L34.0934 56.1794L34.0574 56.1942L34.3274 56.4359C35.6433 57.7735 36.3856 58.685 36.5543 59.1726C36.7208 59.658 36.7411 60.1329 36.6128 60.595C36.1224 61.2034 35.7738 61.4217 35.5668 61.2522H35.5646ZM44.8166 66.5051L45.2418 66.5772L45.0888 66.7595L44.0811 67.0521C43.6424 67.4167 43.1273 67.6605 42.5334 67.7813L41.8743 67.6711L41.7191 67.2344C41.8743 67.016 42.0745 66.857 42.3197 66.7595C42.5649 66.662 42.8821 66.5772 43.269 66.5051L44.198 66.6514L44.8166 66.5051ZM43.3837 66.1024C42.6864 66.1024 42.2477 66.1766 42.0678 66.3207H41.5257C40.7766 65.8331 40.1827 65.3837 39.7441 64.9704L37.9243 63.62C38.2594 63.4483 38.9815 63.5098 40.0928 63.8023L43.3837 66.1003V66.1024ZM48.9197 58.6787C49.6687 58.7401 50.2356 58.7083 50.6225 58.5875C51.3198 58.3204 52.7505 57.322 54.919 55.5964C57.0087 54.1125 58.779 53.078 60.2232 52.4951C60.6618 52.2513 60.6798 52.0753 60.2817 51.9651C59.8813 51.857 59.2807 51.8019 58.4821 51.8019C58.2234 51.9948 58.2504 52.1538 58.5586 52.2767C58.9208 52.2534 59.1795 52.2767 59.3324 52.3488C57.6026 53.201 56.1584 54.051 54.9977 54.9032C55.1012 54.3436 55.1912 53.3833 55.2676 52.0202C55.2406 51.5835 55.0877 51.1935 54.802 50.8522C54.622 50.6105 54.8672 50.3901 55.5376 50.195L56.0797 50.0488V50.8501L55.3441 50.6678L55.4206 51.0345C55.5758 51.3016 55.8592 51.4839 56.2731 51.5814L58.3651 51.6916L59.2942 51.6556C60.3784 51.6789 60.907 51.9291 60.88 52.4039C60.8553 52.8788 60.8935 53.3218 60.997 53.7352C61.177 54.7803 61.6156 55.7787 62.313 56.7263C62.1577 57.163 61.8226 57.6738 61.3074 58.2589L59.2942 59.499C57.5643 60.6671 55.2159 62.187 52.2466 64.0588C50.1299 64.1076 47.588 63.9486 44.6209 63.584C42.4794 63.3169 40.0118 62.806 37.2269 62.0513L36.6083 61.9051L36.8783 61.6507C37.3169 61.1165 37.5554 60.7582 37.5936 60.5759C37.6318 60.3936 37.5666 59.9802 37.4001 59.3337C37.2314 58.6893 36.7478 57.9282 35.9492 57.0527V56.8344L36.5296 56.7602C38.129 56.8577 39.5574 57.0527 40.8081 57.3432C42.061 57.6357 43.5502 57.9028 45.28 58.1466C46.9581 58.4391 48.1706 58.6151 48.9197 58.6744V58.6787ZM46.0156 57.712C45.3452 57.6145 44.261 57.4322 42.7629 57.163L44.117 56.7263C44.8414 56.8726 45.253 56.7263 45.3565 56.2875C45.46 56.7984 45.6804 57.2732 46.0156 57.7099V57.712ZM54.1069 46.9474C53.5895 47.4837 53.4231 48.0434 53.603 48.6263C52.8787 48.991 52.1836 49.5273 51.5133 50.2311C50.8429 50.937 50.3323 51.5326 49.9836 52.0202C49.635 52.5078 49.2683 52.7982 48.8814 52.8957C48.4428 53.0907 47.9389 52.9932 47.3698 52.6032L47.2146 53.5147L44.6209 55.0113L43.3432 55.5222C43.4467 55.2784 43.5119 54.8651 43.5367 54.2821L44.0001 53.9175C45.7816 53.042 46.8141 52.2407 47.0976 51.5093C47.4597 50.9009 47.8467 50.3964 48.2606 49.9958C48.6722 49.5951 48.9691 49.1033 49.1513 48.5182L49.1896 47.6427L49.0726 46.7312C49.4843 47.1679 49.8599 47.2654 50.1951 47.0237C50.7372 46.074 51.3176 45.1943 51.9384 44.3782C52.557 43.5641 53.2161 42.8031 53.9135 42.0972C54.6108 41.3913 55.2046 40.7977 55.6928 40.3102L55.6545 41.2217C54.1069 43.0236 53.1374 44.251 52.7505 44.906C51.4345 46.78 50.5438 48.2638 50.0804 49.3577C49.7969 49.9661 49.383 50.4536 48.8409 50.8161C48.4293 51.0112 48.1188 51.2168 47.9119 51.4373C47.7319 51.7531 47.8354 51.8379 48.2223 51.6916C48.481 51.45 48.7644 51.2655 49.0749 51.1447C49.6417 50.8776 50.8564 49.6121 52.7145 47.3502L52.6763 46.074L53.1014 45.3809C53.0744 46.0846 53.1396 46.4747 53.2949 46.5468C53.4501 46.621 53.6615 46.4196 53.9337 45.9447C54.2036 45.4699 54.8695 44.1619 55.9267 42.023C55.695 42.6802 55.6815 43.2525 55.8885 43.738C55.2699 44.1513 55.1012 44.8573 55.3846 45.8557L54.1069 46.9495V46.9474ZM62.7988 38.8475C62.7089 39.4559 62.4952 39.9795 62.16 40.4162C61.1005 41.5588 60.6641 42.2392 60.8441 42.4597C61.1275 42.9218 61.0758 43.4454 60.6888 44.0284C60.1197 44.6855 59.3729 45.4148 58.4439 46.2161C58.7026 46.7036 58.5091 47.1149 57.8635 47.4562C57.1144 47.8462 56.2889 48.1854 55.3846 48.478C57.0627 47.2866 58.093 46.0083 58.4821 44.6474C59.0242 44.1853 59.5011 43.8821 59.915 43.7359C60.2772 43.5175 60.3402 43.42 60.1085 43.4433C59.6428 43.6129 59.1547 43.88 58.6373 44.2467C59.1277 43.3225 59.4764 42.3261 59.6833 41.2535C60.6888 40.3293 61.3209 39.6 61.5796 39.0658C61.9418 38.5549 61.9553 38.4468 61.6179 38.7372C61.231 39.3456 60.6371 39.9901 59.8363 40.6705C60.1985 39.6255 60.5201 38.4574 60.8036 37.1686C60.9318 36.4139 60.8935 36.2803 60.6866 36.7679L60.2997 38.0441C60.1197 37.5332 59.9128 37.1452 59.6811 36.876L60.185 38.4087C60.0815 39.0171 59.8363 39.8798 59.4494 40.9991C59.0872 40.0261 58.6103 39.1506 58.0165 38.3726C57.4744 37.7409 57.3844 37.7282 57.7465 38.3366C58.3404 39.1379 58.8308 40.1957 59.2177 41.51C58.9073 42.678 58.5473 43.6511 58.1334 44.429C57.823 43.9902 57.5014 43.6871 57.1662 43.5154C56.9075 43.3946 56.9075 43.4666 57.1662 43.7337C57.5014 44.0496 57.7735 44.3654 57.9782 44.6813C57.6678 45.3851 57.2629 46.0062 56.759 46.5425C56.2551 47.0788 55.758 47.5283 55.2676 47.8929C55.8862 46.9941 56.0932 45.9956 55.8862 44.9018C55.8862 44.7067 56.0482 44.5499 56.3699 44.4269C56.6915 44.304 56.8018 44.1704 56.6983 44.0263C56.4149 43.4899 56.2731 43.066 56.2731 42.748C56.4801 42.6505 56.7905 42.6505 57.2022 42.748C57.5373 42.5297 57.5058 42.2202 57.1054 41.8174C56.705 41.4167 56.4531 40.838 56.3496 40.0855C56.3496 39.6467 56.6601 39.4898 57.2787 39.6106C57.5621 39.5852 57.5891 39.2693 57.3551 38.6631L56.6983 37.8236C56.2327 36.8506 56.4261 36.4987 57.2787 36.7658L58.2842 37.3487C58.9545 37.5925 59.2784 37.1664 59.2514 36.0726C59.2514 35.8288 59.4516 35.7737 59.852 35.9072C60.2502 36.0408 60.6191 35.7546 60.9543 35.0508C61.2895 34.7095 61.5481 35.0254 61.7281 35.9984C61.6516 37.2873 61.9868 37.8957 62.7336 37.8215C62.8618 37.8935 62.8821 38.2348 62.7921 38.8432L62.7988 38.8475ZM63.9618 35.7101C64.0001 35.9539 63.9416 36.1532 63.7864 36.3121C63.6311 36.4711 63.3342 36.611 62.8956 36.7319L62.4704 36.0026C62.4952 35.4197 62.2882 34.86 61.8496 34.3237C62.0295 34.1775 62.313 34.0312 62.6999 33.887C62.9833 33.7641 62.9316 33.728 62.5469 33.7768C62.1352 33.8489 61.8113 33.9464 61.5796 34.0693H61.5031C61.7348 33.2914 62.1082 32.5494 62.6256 31.8435C62.7561 31.5276 62.6774 31.5382 62.3939 31.8795C61.9553 32.4625 61.5684 33.0836 61.2332 33.7408C61.078 33.5945 60.961 33.3274 60.8845 32.9373C60.7811 32.4752 60.7046 32.4625 60.6529 32.9013C60.7316 33.4609 60.8463 33.8616 61.0015 34.1054C60.4324 34.9321 59.9825 35.2607 59.6451 35.0911C59.852 33.9231 60.122 32.6957 60.4571 31.4068C61.051 30.8472 61.5684 30.6649 62.0048 30.8599C62.6234 30.3978 63.1543 30.313 63.5929 30.6034C63.8246 30.9701 63.9281 31.3284 63.9033 31.6803C63.8763 32.0322 63.7481 32.4286 63.5164 32.8653C64.0068 32.8653 64.2655 33.0476 64.2902 33.4122C64.0833 34.2389 63.6716 34.8346 63.0508 35.2013C63.6176 35.2989 63.9213 35.4684 63.9618 35.7122V35.7101Z" fill="white"/>
<path fill-rule="evenodd" clip-rule="evenodd" d="M9.47171 45.5586L9.96209 46.5019L9.47171 45.5586Z" fill="white"/>
<path fill-rule="evenodd" clip-rule="evenodd" d="M9.74617 59.0086C9.75067 59.0913 9.84065 59.087 9.93288 59.1634C10.2928 59.3923 10.6415 59.2927 10.8844 58.8687C11.2128 58.4405 11.1026 58.1161 10.7404 57.8893C10.6145 57.7833 10.4975 57.8172 10.3918 57.989L9.74392 59.0086H9.74617ZM4.63539 55.7843C5.09878 56.0917 5.37097 56.3249 5.86585 55.7228C6.11104 55.3815 6.08629 54.9724 5.81411 54.8177C5.72413 54.7414 5.54417 54.6672 5.54417 54.6672C5.45195 54.6714 5.45869 54.7541 5.36872 54.7604L4.63314 55.7822L4.63539 55.7843ZM11.9799 59.1867C12.0474 58.8539 12.1171 58.6058 11.8472 58.3705L11.9282 58.2815C12.1036 58.3578 12.2948 58.5126 12.4725 58.5868C12.6547 58.6588 12.8369 58.8157 13.1046 58.8814L13.0191 58.9662C12.9314 58.8899 12.6637 58.8242 12.5827 58.9874C12.504 59.1612 12.2881 59.9922 12.2071 60.2466L11.9416 61.6584L13.0394 60.7829C13.2013 60.6091 13.8717 59.9943 13.9504 59.829C14.1146 59.5704 13.9324 59.4983 13.8402 59.4199L13.8312 59.2587C14.0157 59.4114 14.1911 59.4877 14.2878 59.564C14.47 59.6382 14.6455 59.7124 14.74 59.7908L14.7445 59.8671C14.3801 59.6424 14.0516 60.0706 13.7142 60.3335L11.5345 62.2583L11.3545 62.182L11.9754 59.1846H11.9799V59.1867ZM9.17031 59.6933C9.09383 59.8629 8.85313 60.2084 8.86213 60.3695C8.7834 60.5391 8.95661 60.6154 9.14557 60.7702L9.06233 60.855C8.88238 60.7024 8.69567 60.6282 8.42349 60.4692C8.24353 60.3992 8.06132 60.2466 7.88137 60.1745L7.87237 60.007C8.05233 60.0834 8.23453 60.2402 8.32001 60.0706C8.48647 59.9753 8.73616 59.6382 8.81489 59.4665L9.6202 58.1903C9.69668 58.0229 9.94412 57.6837 10.0251 57.5904C10.0993 57.3424 9.92163 57.2682 9.73942 57.1961L9.8249 57.1071C10.0071 57.264 10.277 57.3339 10.4637 57.4887C10.6415 57.5608 10.8282 57.7176 11.0081 57.7918C11.4558 58.0144 11.8382 58.4871 11.4288 59.0892C11.0261 59.7675 10.3153 59.6361 9.86089 59.3329C9.77317 59.3372 9.58871 59.1824 9.58871 59.1824L9.17706 59.6933H9.17031ZM7.22227 56.7679C7.29875 56.5983 7.54395 56.2549 7.62718 56.168C7.70141 55.92 7.52145 55.8458 7.3415 55.7716L7.51245 55.6741L9.42675 56.8188L8.93636 57.5014L8.84414 57.4251C9.16806 56.9163 8.9791 56.7594 8.52696 56.4521L8.25253 56.3016C8.19404 56.2486 8.10856 56.2782 7.99609 56.3948L7.26726 57.5035C7.81388 57.8914 8.06582 57.6328 8.31326 57.3678L8.40099 57.3636C8.24578 57.6222 8.07707 57.7939 7.99384 57.9635C7.83413 58.2179 7.7554 58.3832 7.58894 58.5592L7.49446 58.4786C7.81838 57.972 7.63393 57.8173 7.18178 57.5883L6.69365 58.3578C6.61267 58.5232 6.45071 58.6991 6.45971 58.8602C6.4732 59.1082 6.65766 59.2715 6.83986 59.3393C7.29426 59.564 7.55969 59.634 7.97359 59.2079L8.06132 59.2036L7.57769 59.9604L5.39121 58.5846L5.46994 58.4977C5.56892 58.5762 5.74438 58.6525 5.91534 58.5592C5.99632 58.4723 6.24376 58.131 6.40797 57.9614L7.22227 56.7679ZM5.10778 57.9042C5.12127 58.1522 5.12577 58.2327 5.31248 58.3917L5.2315 58.4786C5.13477 58.4002 5.04254 58.3239 4.95256 58.2412C4.85584 58.1649 4.68038 58.1734 4.58815 58.0971L4.65339 57.6795L4.66688 56.3609C4.65789 56.1977 4.59265 56.062 4.46893 55.9581L4.05953 56.4754C3.97855 56.645 3.73561 56.982 3.65687 57.1516C3.66587 57.317 3.7581 57.3933 3.93806 57.4696L3.85483 57.5565C3.67487 57.4823 3.49041 57.3276 3.31271 57.2512C3.12375 57.1007 2.9393 56.9418 2.67386 56.876L2.75259 56.7891C2.9348 56.8612 3.02702 56.9375 3.19573 56.8485C3.36894 56.7573 3.61413 56.4139 3.69287 56.2486L4.5859 54.9639C4.67138 54.8749 4.91657 54.5357 4.9998 54.3683C5.07404 54.2008 4.89183 54.1245 4.7996 54.0482L4.7906 53.8828C5.06504 54.0354 5.24949 54.1923 5.52168 54.3428C5.70164 54.4149 5.88384 54.5718 5.97832 54.6481C6.43496 54.9576 6.80837 55.3476 6.40122 55.9433C5.99182 56.4627 5.55092 56.486 5.10328 56.2549V57.9042H5.10778ZM30.2545 58.9959L29.5302 57.7219L29.3075 59.0976L30.2545 58.9959ZM19.0297 61.404C19.1174 61.563 19.1242 61.8068 19.2142 61.9658C19.3086 62.1248 19.4774 62.1205 19.6483 62.1163C19.9925 62.0251 20.1544 61.6987 20.0555 61.298C20.0465 60.9758 19.8665 60.8147 19.691 60.6621C19.4346 60.59 19.2659 60.6727 19.0904 60.6769L18.9217 60.6812L19.0275 61.404H19.0297ZM18.9172 60.4437H19.0027C19.1692 60.3505 19.3401 60.3462 19.4256 60.2636C19.5921 60.0982 19.5853 59.8565 19.5786 59.617C19.4818 59.2185 19.3041 59.0616 18.9645 59.0701C18.8812 59.1506 18.7035 59.1549 18.7035 59.1549C18.7035 59.1549 18.708 59.3117 18.7103 59.3965L18.9172 60.4416V60.4437ZM16.2179 61.7983C16.2224 61.9573 16.3169 62.2774 16.4046 62.4406C16.4991 62.5975 16.67 62.5933 16.8387 62.5064C17.2661 62.4958 17.4303 62.1714 17.3314 61.6881C17.2369 61.4486 17.1424 61.209 16.8837 61.1327C16.7128 61.0606 16.4563 61.067 16.1999 61.1497H16.1099L16.2179 61.7983ZM16.0199 60.9122L16.1886 60.8317C16.3573 60.8274 16.5261 60.8232 16.6138 60.6621C16.7802 60.4967 16.7757 60.3293 16.769 60.0918C16.6723 59.6891 16.4878 59.4538 16.0627 59.5428C16.0627 59.5428 15.894 59.547 15.8062 59.6318L15.8107 59.7929L16.0177 60.9101H16.0199V60.9122ZM29.1478 59.4877C29.1545 59.7294 28.9948 60.1364 29.0848 60.2932C29.0916 60.5391 29.348 60.448 29.5235 60.4437L29.528 60.6091C29.3525 60.6133 29.1793 60.6176 29.0106 60.6218C28.8396 60.7045 28.6732 60.7108 28.4999 60.713V60.6345C28.7519 60.5476 28.8329 60.4628 28.9161 60.2169C28.9881 59.812 28.9791 59.4919 29.0556 59.1612L29.429 56.982L29.5999 56.9778L30.9586 59.4411C31.0463 59.5979 31.2263 59.8396 31.3185 59.9943C31.4085 60.0749 31.5795 60.0706 31.7482 60.0664L31.7527 60.2254C31.5817 60.2296 31.3253 60.236 31.1543 60.3229C30.8979 60.3293 30.6437 60.4141 30.4705 60.4183V60.3399C30.5492 60.2551 30.8101 60.2487 30.7134 60.0092C30.7134 59.9286 30.6257 59.7675 30.6234 59.6891L30.259 59.1294L29.1455 59.3245L29.15 59.4856H29.1478V59.4877ZM27.5462 57.4293H27.6339L27.8386 58.4702H27.7486C27.5597 57.9105 27.1188 57.5226 26.6059 57.6116C25.7466 57.7134 25.6881 58.68 25.7961 59.4834C25.994 60.2869 26.3585 61.0839 27.2155 60.9822C27.8139 60.8062 27.9736 60.3208 27.9556 59.6764L28.0388 59.5916L28.2458 60.7956L28.0681 60.5582C27.8184 60.8868 27.4764 60.9758 27.1345 61.0649C26.1965 61.2514 25.4024 60.626 25.2 59.5852C25.083 58.5401 25.5756 57.6392 26.5159 57.5396C26.9478 57.4463 27.2088 57.5226 27.5552 57.671L27.5484 57.4293H27.5462ZM24.0325 58.9662C24.028 58.803 23.9358 58.4871 23.9313 58.326C23.7513 58.1691 23.5826 58.1734 23.4949 58.1755L23.4072 58.0992C23.6636 58.008 23.9245 58.0017 24.0955 57.9996C24.3519 57.9911 24.6061 57.9042 24.7793 57.8999V57.9826C24.6961 57.9847 24.5229 58.0738 24.4442 58.2285C24.4487 58.3981 24.4577 58.7139 24.5454 58.8751L24.7636 60.4035C24.7681 60.5625 24.8648 60.9631 24.948 61.0394C25.0425 61.1984 25.218 61.192 25.3844 61.1878L25.3889 61.3532C25.1348 61.3595 24.957 61.3638 24.7006 61.3701C24.5319 61.4507 24.2755 61.4591 24.0168 61.4655V61.3871C24.1877 61.3828 24.3564 61.3786 24.3497 61.1348C24.4329 60.9716 24.3362 60.6536 24.3317 60.4946L24.0303 58.9662H24.0325ZM21.043 59.5046C21.0385 59.3435 20.9395 58.945 20.935 58.7797C20.8428 58.6228 20.5931 58.6292 20.5031 58.7118L20.4109 58.555C20.6696 58.5486 20.9283 58.5422 21.0992 58.4596C21.3557 58.4532 21.6166 58.4468 21.7853 58.3599L21.8708 58.5189C21.7021 58.5232 21.5311 58.5274 21.4479 58.6885C21.4524 58.8496 21.5491 59.2481 21.5559 59.4156L21.7696 60.9377C21.8775 61.5821 22.0507 61.7368 22.6513 61.6415C22.8178 61.5588 23.081 61.5503 23.2452 61.3828C23.4139 61.2196 23.4072 60.9779 23.4027 60.7342L23.5714 60.6472L23.6793 61.616C23.5961 61.616 23.5084 61.6203 23.4252 61.6224C22.6513 61.722 21.7943 61.9043 21.0227 62.0061V61.9234C21.1914 61.8407 21.3624 61.8365 21.3579 61.6754C21.4389 61.5121 21.3422 61.1094 21.3377 60.9483L21.0407 59.5068H21.043V59.5046ZM18.2986 59.971C18.2941 59.8078 18.1997 59.4114 18.1074 59.3308C18.0174 59.174 17.8465 59.1782 17.6733 59.1846V59.1061C17.9297 59.0171 18.0984 59.0128 18.3616 59.0065C18.5281 59.0022 18.6968 58.9175 18.8745 58.9132C19.3851 58.8157 19.988 58.8857 20.0937 59.528C20.1972 60.0092 19.853 60.2551 19.5156 60.431C19.7765 60.4247 20.033 60.4183 20.2129 60.5752C20.4694 60.7278 20.6516 60.9631 20.7438 61.2005C20.755 61.6054 20.5886 61.8492 20.4221 62.0167C20.1702 62.2668 19.826 62.2753 19.5673 62.2816C19.4863 62.3664 19.2254 62.3728 19.059 62.377C18.7935 62.3834 18.5416 62.4682 18.2896 62.5551L18.2851 62.3982C18.3684 62.3982 18.6226 62.3898 18.6158 62.1481C18.6113 61.987 18.5168 61.6627 18.5123 61.5058L18.2986 59.9774V59.971ZM15.4013 60.4416C15.3968 60.2848 15.2978 59.882 15.2956 59.723C15.2056 59.564 15.0324 59.5682 14.8637 59.6552L14.8592 59.4941C15.0302 59.4898 15.2888 59.4835 15.4576 59.3944C15.7207 59.3881 15.8895 59.3838 16.0582 59.3011C16.4833 59.21 17.1762 59.2736 17.2841 59.9943C17.3831 60.4777 17.1289 60.7236 16.7937 60.8889C17.0524 60.8825 17.3089 60.8762 17.4821 60.9589C17.7475 61.1094 17.9252 61.3489 17.932 61.6711C18.0264 61.9955 17.8667 62.2371 17.6125 62.4852C17.4438 62.6505 17.1042 62.7395 16.8455 62.7438C16.5823 62.7501 16.4136 62.7544 16.2471 62.8413C15.8985 62.8519 15.7342 62.9388 15.3878 62.9473V62.8646C15.5543 62.7777 15.7297 62.7735 15.8107 62.6123C15.8062 62.4555 15.7072 62.0527 15.705 61.8916L15.4036 60.4416H15.4013ZM44.5364 60.8677L44.2754 59.3859L43.5781 60.7045L44.5364 60.8656V60.8677ZM50.3737 60.5031C50.3737 60.3399 50.2882 59.9307 50.2882 59.8438C50.205 59.5979 50.0251 59.6827 49.8541 59.6827V59.5152H50.5469C50.7179 59.5152 50.9811 59.4326 51.2443 59.4326V59.5979C51.0733 59.5979 50.8911 59.5979 50.8101 59.7654V60.5031L50.9811 61.987C50.9811 62.1523 50.9811 62.5615 51.0711 62.7268C51.1588 62.8922 51.332 62.8922 51.503 62.8922V62.9727H50.8101C50.5469 63.0533 50.3737 63.0533 50.1128 63.0533V62.9727C50.2028 62.9727 50.4637 62.9727 50.4637 62.7268C50.5469 62.5615 50.4637 62.2329 50.4637 62.0675L50.3737 60.5031ZM46.9523 60.1894C46.9523 60.0219 47.0445 59.6128 47.0445 59.4495C46.9523 59.2842 46.7836 59.1973 46.6081 59.1973L46.6981 59.121C46.8691 59.121 47.13 59.1973 47.3032 59.1973C47.5664 59.2842 47.8251 59.2842 48.086 59.2842L48.0028 59.4495C47.9151 59.4495 47.6519 59.369 47.5664 59.5301C47.4787 59.6933 47.4787 60.1067 47.3887 60.2678L47.1278 61.8365C47.0423 62.4915 47.1278 62.6569 47.6496 62.7417C47.9151 62.7417 48.1715 62.8222 48.3447 62.7417C48.7001 62.5742 48.7001 62.4088 48.7811 62.0803H48.9588L48.7001 63.0681C48.7001 62.9876 48.5224 62.9876 48.5224 62.9876C47.6519 62.8222 46.8691 62.7417 46.0053 62.5742V62.4915C46.174 62.4915 46.3472 62.4915 46.5226 62.3283C46.5226 62.2477 46.6081 61.8365 46.6981 61.6711L46.9523 60.1894ZM43.3194 61.0352C43.2317 61.2005 43.0607 61.6097 42.973 61.7771C42.973 62.0209 43.2317 62.0209 43.3194 62.1078V62.1884C43.144 62.1884 42.973 62.1078 42.802 62.1078C42.6311 62.1078 42.4511 62.0209 42.2802 62.0209L42.3634 61.9425C42.6243 61.9425 42.7076 61.8577 42.8875 61.6097C43.0607 61.279 43.2339 60.9525 43.4094 60.6218L44.4509 58.6482L44.6241 58.7267L45.1437 61.527C45.236 61.6923 45.236 62.0188 45.3214 62.1863C45.4047 62.3537 45.4924 62.3537 45.6656 62.4322V62.517C45.4924 62.517 45.2382 62.4322 44.9728 62.4322C44.7951 62.3537 44.5386 62.3537 44.2777 62.3537L44.3654 62.1863C44.4531 62.1863 44.7118 62.2689 44.7118 62.1057V61.6097L44.6241 61.0352L43.4094 60.8698L43.3194 61.0352ZM42.9842 59.352L42.8943 59.2715C42.9842 58.7754 42.8088 58.608 42.3769 58.5253C42.1159 58.5253 41.8505 58.449 41.8505 58.6101L41.4186 61.1602C41.4186 61.5736 41.4186 61.6563 41.8505 61.8216V61.9022C41.5941 61.9022 41.3309 61.8216 41.0744 61.739C40.809 61.739 40.5481 61.739 40.2894 61.6563V61.5757C40.809 61.5757 40.9035 61.4952 40.9845 61.0797L41.3309 58.5274C41.4186 58.4511 41.1554 58.3642 40.9845 58.3642C40.4603 58.2879 40.2894 58.2879 40.2039 58.9408L40.0284 58.8602L40.2039 58.0335L43.1575 58.5274L42.9842 59.3541V59.352ZM38.582 58.7987C38.582 58.6313 38.6675 58.3048 38.582 58.1373C38.582 57.9762 38.4088 57.8914 38.2401 57.8914V57.7303C38.4943 57.8109 38.7575 57.8914 38.933 57.8914C39.1939 57.8914 39.4503 57.9762 39.7135 57.9762L39.6258 58.0547C39.5336 58.0547 39.2771 58.0547 39.1939 58.2221C39.1039 58.3854 39.1039 58.7118 39.0184 58.8814L38.843 60.4416C38.7597 60.6091 38.7598 61.0182 38.7598 61.103C38.7598 61.3468 38.9352 61.3468 39.1039 61.3468V61.5143C38.843 61.4252 38.6675 61.4252 38.4111 61.3468C38.1479 61.3468 37.9769 61.3468 37.7182 61.2641V61.1836C37.887 61.1836 38.0579 61.1836 38.1479 61.0182C38.2424 60.9377 38.3234 60.5243 38.3234 60.3632L38.5843 58.7987H38.582ZM59.556 56.3312L58.2558 55.5066L58.7755 56.9078L59.556 56.3291V56.3312ZM53.6984 60.3017L52.567 59.3139L52.8279 60.7151L53.6984 60.2996V60.3017ZM58.861 57.2364C58.861 57.4823 59.0364 57.8957 59.1264 58.061C59.2996 58.2264 59.4728 58.061 59.556 57.9784L59.6438 58.1437C59.556 58.2264 59.3851 58.3133 59.2119 58.3938C59.1264 58.468 58.9464 58.555 58.861 58.7224L58.7755 58.5571C58.9487 58.396 58.9487 58.3154 58.9487 58.0632C58.7755 57.6519 58.6877 57.3212 58.6045 56.9947L57.9094 54.8558L57.9927 54.7689L60.5166 56.4203C60.5998 56.5008 60.9462 56.7488 61.0362 56.7488C61.2071 56.8294 61.3849 56.7488 61.5603 56.6662V56.8315C61.3849 56.9163 61.2071 56.9969 61.0362 57.1601C60.8652 57.3254 60.6875 57.4102 60.5166 57.5735L60.4311 57.4887C60.5166 57.4102 60.6875 57.2428 60.5998 57.0774C60.5166 56.9969 60.3433 56.9163 60.2534 56.8315L59.736 56.5029L58.7755 57.1601L58.861 57.2428V57.2364ZM54.5172 57.8321C54.2586 57.7473 54.0808 57.7473 53.9099 57.919L53.8222 57.7494C53.9954 57.6689 54.0808 57.6689 54.1708 57.5078C54.2608 57.5078 54.4318 57.4272 54.5195 57.3424L57.9094 58.415L56.9512 57.1749C56.778 57.0138 56.6047 56.681 56.4293 56.5199C56.1728 56.3546 56.0806 56.4372 55.8219 56.5199L55.7342 56.4372C55.9074 56.3546 56.0784 56.2698 56.2583 56.1892C56.3438 56.0217 56.4293 55.9433 56.6047 55.8564L56.6925 55.9454C56.6047 56.1108 56.4293 56.1108 56.517 56.3567C56.6047 56.522 56.9489 56.9333 57.1289 57.1771L58.5168 58.9916L58.4313 59.0722C58.2581 59.0722 58.0849 58.9916 57.9094 58.9069L54.7782 57.9232L55.9074 59.4008C55.9996 59.5682 56.2583 59.812 56.4293 59.9774C56.6047 60.0622 56.778 59.9774 56.9512 59.8926V59.9774C56.8657 60.1448 56.6925 60.2254 56.5193 60.3081C56.3438 60.3886 56.2583 60.4713 56.0806 60.6366L55.9996 60.554C56.1728 60.3886 56.2583 60.3081 56.1728 60.0622C56.0784 59.8926 55.9074 59.6488 55.7342 59.4813L54.5172 57.8363V57.8321ZM52.9201 61.1263C52.9201 61.2896 53.0033 61.7029 53.0911 61.9467C53.1788 62.1121 53.433 62.0273 53.5207 61.9467L53.6085 62.0273C53.4307 62.1142 53.352 62.1947 53.1766 62.2795C53.0011 62.3601 52.8279 62.4428 52.7402 62.5233L52.6502 62.4428C52.8256 62.2795 52.9179 62.1947 52.8256 61.8683C52.8256 61.5376 52.7379 61.1285 52.6502 60.7999L52.216 58.5762H52.3915L54.6477 60.4671C54.7377 60.5519 54.9986 60.7999 55.1718 60.8783C55.3428 60.9631 55.5182 60.8783 55.6082 60.8783L55.6937 60.9631C55.5182 61.0437 55.2573 61.1285 55.0841 61.2917C54.9131 61.3744 54.6477 61.457 54.4745 61.6203L54.3868 61.4549C54.5622 61.4549 54.7377 61.2896 54.6477 61.1263C54.5622 61.0415 54.4745 60.8762 54.3013 60.7978L53.8671 60.4649L52.8256 60.9589L52.9156 61.1242H52.9201V61.1263Z" fill="white"/>
</svg>
