<svg width="33" height="32" viewBox="0 0 33 32" fill="none" xmlns="http://www.w3.org/2000/svg">
<circle cx="16.6667" cy="16.1471" r="14.6667" fill="#003366"/>
<path d="M26.1743 13.1219C25.3394 12.6932 24.4506 12.3682 23.5532 11.9832C23.6157 11.64 23.6993 11.2305 23.7627 10.8178C23.9355 9.69933 23.9843 8.58181 23.6997 7.47133C23.5842 7.02056 23.4068 6.59703 23.11 6.23454C22.517 5.51002 21.7323 5.37338 20.8656 5.54054C19.8302 5.7401 18.9395 6.25473 18.1093 6.87641C17.6172 7.245 17.1547 7.65304 16.6762 8.04558C16.2922 7.72676 15.9076 7.3854 15.5 7.07315C14.6337 6.40921 13.7082 5.84857 12.6302 5.59642C12.0991 5.47246 11.5605 5.44147 11.0384 5.64103C10.2956 5.9251 9.91147 6.52519 9.68562 7.245C9.35552 8.29679 9.3898 9.37159 9.53067 10.4459C9.59922 10.9699 9.71097 11.4888 9.80817 12.0372C9.72506 12.064 9.62411 12.0964 9.52315 12.1283C8.17649 12.5551 6.88288 13.0909 5.78743 14.0126C5.29112 14.4305 4.87134 14.9118 4.7178 15.5659C4.54219 16.3143 4.838 16.9294 5.30849 17.4774C6.06399 18.3573 7.04629 18.9161 8.09009 19.372C8.63852 19.612 9.20809 19.804 9.78986 20.0261C9.71896 20.3994 9.63538 20.7858 9.5734 21.1756C9.38088 22.379 9.3034 23.5834 9.68421 24.7667C9.95185 25.5987 10.4327 26.2382 11.3417 26.4467C11.4309 26.4674 11.5197 26.4899 11.6084 26.5115H12.1709C12.4344 26.4505 12.702 26.4026 12.9607 26.3265C14.0651 26.0025 15.0075 25.3865 15.8888 24.6681C16.1663 24.4422 16.4302 24.1994 16.7115 23.9548C17.0012 24.2074 17.2871 24.4704 17.5876 24.7155C18.4375 25.4095 19.3433 26.0105 20.4063 26.3335C20.6411 26.4049 20.8834 26.4523 21.1219 26.511H21.7779C21.9624 26.4561 22.1531 26.4167 22.3296 26.3429C23.041 26.0443 23.4157 25.4541 23.649 24.7587C24.0054 23.698 23.9881 22.6077 23.858 21.516C23.7965 20.999 23.6894 20.4877 23.5997 19.9524C23.9007 19.8463 24.2073 19.7401 24.5121 19.6298C25.3366 19.3316 26.1268 18.9621 26.857 18.4733C27.674 17.9268 28.3821 17.2858 28.6666 16.2951V15.6391C28.2656 14.3746 27.2664 13.6811 26.1733 13.12L26.1743 13.1219ZM20.8872 6.58106C20.9097 6.57496 20.9322 6.56838 20.9552 6.56322C21.868 6.36319 22.3676 6.64868 22.6545 7.53706C22.9142 8.3414 22.9081 9.16874 22.8287 9.99421C22.7776 10.5286 22.6644 11.0563 22.5766 11.5869C22.5667 11.647 22.5442 11.7052 22.5231 11.7818C22.1103 11.7052 21.7084 11.6203 21.3032 11.5573C20.7562 11.4723 20.2077 11.3967 19.6579 11.3338C19.4644 11.3118 19.3386 11.239 19.2184 11.0812C18.6371 10.3187 18.0398 9.56833 17.4247 8.78371C18.4408 7.85307 19.5048 6.96985 20.8876 6.58106H20.8872ZM13.2147 19.6246C12.4771 19.5054 11.792 19.3946 11.0633 19.2772C11.3187 18.5771 11.5572 17.9225 11.8169 17.2107C12.2921 18.031 12.7358 18.7973 13.2147 19.6246ZM11.0792 12.7617C11.8005 12.6378 12.47 12.5223 13.1917 12.3978C12.7212 13.2144 12.2874 13.9671 11.8183 14.7803C11.5671 14.0943 11.3323 13.4529 11.0792 12.7617ZM12.4653 16.1519C12.4231 16.0636 12.4203 15.9143 12.4668 15.8316C13.1124 14.693 13.7669 13.559 14.4304 12.4302C14.4778 12.3499 14.6107 12.2743 14.7046 12.2734C16.0142 12.2635 17.3242 12.2635 18.6338 12.2734C18.7277 12.2743 18.8606 12.3495 18.908 12.4298C19.5752 13.5562 20.2331 14.6883 20.8834 15.8251C20.9271 15.9016 20.9294 16.0457 20.8867 16.1218C20.2401 17.2689 19.5856 18.4123 18.9207 19.549C18.8704 19.6345 18.7305 19.7092 18.6282 19.7153C17.9821 19.7542 17.3346 19.7725 16.6875 19.7974V19.7303C16.0395 19.7303 15.3925 19.7279 14.745 19.7322C14.5985 19.7331 14.5065 19.6824 14.4219 19.5561C13.6918 18.4653 13.034 17.3337 12.4649 16.1514L12.4653 16.1519ZM21.5398 17.1708C21.8042 17.8662 22.0545 18.525 22.323 19.2307C21.583 19.3575 20.8825 19.4777 20.1401 19.6049C20.6167 18.7762 21.0651 17.9962 21.5398 17.1708ZM21.5309 14.7888C21.0618 13.9797 20.6219 13.2205 20.1434 12.3959C20.8792 12.5246 21.5572 12.6434 22.2737 12.7692C22.0221 13.4538 21.7863 14.0938 21.5304 14.7888H21.5309ZM16.68 9.52184C17.1449 10.0839 17.582 10.6126 18.0591 11.1892H15.2892C15.7663 10.6168 16.21 10.0853 16.68 9.52184ZM10.5721 7.86105C10.8454 6.61769 11.4826 6.26975 12.6992 6.67732C13.6392 6.99192 14.4454 7.53424 15.2066 8.15123C15.4606 8.35689 15.7019 8.57852 15.932 8.77761C15.2925 9.5918 14.6732 10.3839 14.0487 11.1718C14.0003 11.2329 13.9191 11.2934 13.8458 11.3042C12.8447 11.4531 11.8423 11.593 10.8003 11.7409C10.7205 11.3193 10.6172 10.8727 10.5543 10.4206C10.436 9.56786 10.3852 8.71046 10.5721 7.86058V7.86105ZM10.0378 19.0105C9.56682 18.8438 9.05783 18.6808 8.56199 18.4841C7.81259 18.1874 7.1078 17.8047 6.47485 17.2985C6.14945 17.0384 5.92266 16.7139 5.77522 16.3242C5.63717 15.9589 5.67849 15.6114 5.93628 15.3405C6.26637 14.9935 6.61759 14.6521 7.00966 14.3812C7.94218 13.7374 8.99914 13.3552 10.0547 13.0378C10.4472 14.0149 10.828 14.9606 11.2046 15.9086C11.2248 15.9598 11.2257 16.0331 11.2055 16.0838C10.8243 17.0463 10.4388 18.007 10.0378 19.01V19.0105ZM12.7424 25.3358C12.2991 25.5053 11.8404 25.5118 11.3858 25.3686C11.0497 25.2625 10.883 24.9855 10.7538 24.6878C10.4435 23.9736 10.4036 23.2143 10.4698 22.4574C10.5285 21.7836 10.6642 21.1164 10.759 20.4454C10.7806 20.2933 10.8421 20.2576 10.9924 20.2801C11.9484 20.4243 12.9058 20.5572 13.8618 20.6999C13.9299 20.7102 14.0078 20.7558 14.0515 20.8093C14.6882 21.5888 15.3197 22.3724 15.9517 23.1552C15.9611 23.1664 15.9635 23.1833 15.9747 23.211C15.0441 24.1591 13.9702 24.8662 12.7424 25.3353V25.3358ZM16.7082 22.4945C16.2292 21.9198 15.7836 21.3854 15.3 20.8051H18.0779C17.6158 21.3746 17.1801 21.9127 16.7082 22.4945ZM22.7992 24.0778C22.7236 24.561 22.4907 24.978 22.1099 25.294C21.8723 25.4912 21.5779 25.5029 21.2863 25.4757C20.659 25.417 20.0997 25.1601 19.5621 24.8531C18.8061 24.4211 18.1337 23.8778 17.5041 23.2801C17.4825 23.2594 17.467 23.2326 17.4538 23.2157C17.9126 22.6434 18.3685 22.0804 18.8164 21.5113C18.9902 21.2911 19.1409 21.053 19.3128 20.8314C19.3597 20.7708 19.4405 20.7126 19.5137 20.7008C20.5054 20.5407 21.499 20.3891 22.4921 20.2365C22.5141 20.2332 22.5371 20.2388 22.5996 20.2426C22.6813 20.6853 22.7818 21.1319 22.8438 21.5836C22.9583 22.4156 22.9283 23.2505 22.7992 24.0783V24.0778ZM27.4237 16.5937C27.0796 17.0947 26.5978 17.4403 26.0907 17.7511C25.2549 18.2629 24.3515 18.6254 23.4194 18.9198C23.3828 18.9311 23.3438 18.9339 23.3377 18.9349C22.9297 17.9554 22.5339 17.0074 22.1427 16.057C22.1225 16.0072 22.1258 15.9349 22.1455 15.8837C22.5071 14.9465 22.8733 14.0107 23.2387 13.0749C23.241 13.0688 23.2504 13.0651 23.2861 13.0359C23.6697 13.1688 24.0773 13.2965 24.4745 13.451C25.3643 13.7975 26.2198 14.2112 26.9486 14.8437C27.1181 14.9907 27.2725 15.1606 27.4073 15.34C27.7238 15.7603 27.7224 16.1584 27.4237 16.5932V16.5937Z" fill="white"/>
<path d="M16.6795 18.1525C17.8684 18.145 18.8291 17.1702 18.8226 15.978C18.816 14.799 17.8492 13.8369 16.6706 13.8359C15.4723 13.835 14.5069 14.8149 14.5168 16.0217C14.5262 17.1974 15.5028 18.1595 16.6795 18.1525Z" fill="white"/>
</svg>
