<?xml version="1.0" encoding="utf-8"?>
<!-- Generator: Adobe Illustrator 27.8.0, SVG Export Plug-In . SVG Version: 6.00 Build 0)  -->
<svg version="1.1" id="b" xmlns="http://www.w3.org/2000/svg" xmlns:xlink="http://www.w3.org/1999/xlink" x="0px" y="0px"
	 viewBox="0 0 64 64" style="enable-background:new 0 0 64 64;" xml:space="preserve">
<style type="text/css">
	.st0{fill:#0066CC;}
</style>
<g id="d">
	<path class="st0" d="M32,60C16.6,60,4,47.4,4,32S16.6,4,32,4s28,12.6,28,28S47.4,60,32,60z M32,7.9C18.7,7.9,7.9,18.7,7.9,32
		S18.7,56.1,32,56.1S56.1,45.3,56.1,32S45.3,7.9,32,7.9z"/>
	<path class="st0" d="M42.4,34H21.6c-1.1,0-2-0.9-2-2s0.9-2,2-2h20.8c1.1,0,2,0.9,2,2C44.4,33.1,43.5,34,42.4,34z"/>
</g>
</svg>
