<?xml version="1.0" encoding="utf-8"?>
<!-- Generator: Adobe Illustrator 27.8.0, SVG Export Plug-In . SVG Version: 6.00 Build 0)  -->
<svg version="1.1" id="b" xmlns="http://www.w3.org/2000/svg" xmlns:xlink="http://www.w3.org/1999/xlink" x="0px" y="0px"
	 viewBox="0 0 64 64" style="enable-background:new 0 0 64 64;" xml:space="preserve">
<style type="text/css">
	.st0{fill:#003366;}
</style>
<g id="c">
	<path class="st0" d="M32,60C16.6,60,4,47.4,4,32S16.6,4,32,4s28,12.6,28,28S47.4,60,32,60z M32,7.9C18.7,7.9,7.9,18.7,7.9,32
		S18.7,56.1,32,56.1S56.1,45.3,56.1,32S45.3,7.9,32,7.9z"/>
	<path class="st0" d="M34,42.4c0,1.1-0.9,2-2,2c-0.5,0-1-0.2-1.4-0.6s-0.6-0.8-0.6-1.4v-8.5h-8.5c-0.5,0-1-0.2-1.4-0.6
		s-0.6-0.8-0.6-1.4c0-1.1,0.9-1.9,2-2h8.5v-8.5c0-1.1,0.9-1.9,2-2c1.1,0,2,0.9,2,2V30h8.5c1.1,0,2,0.9,2,2c0,1.1-0.9,2-2,2H34
		C34,34,34,42.4,34,42.4z"/>
</g>
</svg>
