<?xml version="1.0" encoding="utf-8"?>
<!-- Generator: Adobe Illustrator 27.3.1, SVG Export Plug-In . SVG Version: 6.00 Build 0)  -->
<svg version="1.1" id="Layer_1" xmlns="http://www.w3.org/2000/svg" xmlns:xlink="http://www.w3.org/1999/xlink" x="0px" y="0px"
	 viewBox="0 0 62 56" style="enable-background:new 0 0 62 56;" xml:space="preserve">
<style type="text/css">
	.st0{fill:#F1F5F9;}
	.st1{fill:#2F67B2;}
</style>
<path class="st0" d="M0,3.5C0,1.6,1.6,0,3.6,0h54.9c2,0,3.6,1.6,3.6,3.5v49c0,1.9-1.6,3.5-3.6,3.5H3.6c-2,0-3.6-1.6-3.6-3.5V3.5z"/>
<path class="st1" d="M21.3,33h-5.4v-9.6h1.6v8.2h3.8V33z M24,31c0.3,0.6,0.9,0.8,1.8,0.8c0.9,0,1.5-0.3,1.8-0.8
	c0.3-0.5,0.5-1.4,0.5-2.7c0-1.3-0.2-2.2-0.5-2.8c-0.3-0.6-0.9-0.9-1.8-0.9c-0.9,0-1.5,0.3-1.8,0.9c-0.3,0.6-0.5,1.5-0.5,2.8
	C23.6,29.5,23.7,30.4,24,31z M28.9,32c-0.6,0.8-1.6,1.2-3,1.2c-1.4,0-2.5-0.4-3-1.2c-0.6-0.8-0.9-2-0.9-3.7s0.3-2.9,0.9-3.8
	c0.6-0.8,1.6-1.2,3-1.2c1.4,0,2.4,0.4,3,1.2c0.6,0.8,0.9,2.1,0.9,3.8S29.5,31.2,28.9,32z M35.5,29.3V28h2.7v4.9
	c-0.3,0.1-0.8,0.1-1.5,0.2c-0.8,0.1-1.3,0.1-1.7,0.1c-1.5,0-2.5-0.4-3-1.2c-0.6-0.8-0.8-2.1-0.8-3.8c0-1.7,0.3-3,0.8-3.8
	c0.6-0.8,1.5-1.2,2.9-1.2c0.8,0,1.7,0.1,2.8,0.3l0.5,0.1l-0.1,1.2c-1.1-0.1-2.1-0.2-3-0.2s-1.5,0.3-1.8,0.8
	c-0.3,0.5-0.5,1.4-0.5,2.8s0.2,2.3,0.5,2.8c0.3,0.5,1,0.8,1.9,0.8c0.7,0,1.2,0,1.5-0.1v-2.3H35.5z M41.8,31c0.3,0.6,0.9,0.8,1.8,0.8
	s1.5-0.3,1.8-0.8c0.3-0.5,0.5-1.4,0.5-2.7c0-1.3-0.2-2.2-0.5-2.8c-0.3-0.6-0.9-0.9-1.8-0.9s-1.5,0.3-1.8,0.9
	c-0.3,0.6-0.5,1.5-0.5,2.8C41.3,29.5,41.5,30.4,41.8,31z M46.6,32c-0.6,0.8-1.6,1.2-3,1.2c-1.4,0-2.5-0.4-3-1.2
	c-0.6-0.8-0.9-2-0.9-3.7s0.3-2.9,0.9-3.8c0.6-0.8,1.6-1.2,3-1.2c1.4,0,2.4,0.4,3,1.2c0.6,0.8,0.9,2.1,0.9,3.8S47.2,31.2,46.6,32z"/>
</svg>
