<svg width="862" height="90" viewBox="0 0 862 90" fill="none" xmlns="http://www.w3.org/2000/svg">
<g clip-path="url(#clip0_1662_51846)">
<rect width="861.84" height="89.775" fill="#E2E8F0"/>
<g clip-path="url(#clip1_1662_51846)">
<g clip-path="url(#clip2_1662_51846)">
<rect x="135.561" y="0.00390625" width="37.7055" height="484.785" fill="#BFDFFF"/>
<rect x="185.834" y="0.00390625" width="37.7055" height="484.785" fill="#BFDFFF"/>
<rect x="236.109" y="0.00390625" width="37.7055" height="484.785" fill="#BFDFFF"/>
<rect x="286.383" y="0.00390625" width="37.7055" height="484.785" fill="#BFDFFF"/>
<rect x="336.656" y="0.00390625" width="37.7055" height="484.785" fill="#BFDFFF"/>
<rect x="386.93" y="0.00390625" width="37.7055" height="484.785" fill="#BFDFFF"/>
<rect x="437.205" y="0.00390625" width="37.7055" height="484.785" fill="#BFDFFF"/>
<rect x="487.479" y="0.00390625" width="37.7055" height="484.785" fill="#BFDFFF"/>
<rect x="537.752" y="0.00390625" width="37.7055" height="484.785" fill="#BFDFFF"/>
<rect x="588.025" y="0.00390625" width="37.7055" height="484.785" fill="#BFDFFF"/>
<rect x="638.301" y="0.00390625" width="37.7055" height="484.785" fill="#BFDFFF"/>
<rect x="688.574" y="0.00390625" width="37.7055" height="484.785" fill="#BFDFFF"/>
</g>
</g>
</g>
<defs>
<clipPath id="clip0_1662_51846">
<rect width="861.84" height="89.775" fill="white"/>
</clipPath>
<clipPath id="clip1_1662_51846">
<rect width="861.84" height="484.785" fill="white" transform="translate(0 -0.00390625)"/>
</clipPath>
<clipPath id="clip2_1662_51846">
<rect width="861.84" height="484.785" fill="white"/>
</clipPath>
</defs>
</svg>
