<svg width="446" height="90" viewBox="0 0 446 90" fill="none" xmlns="http://www.w3.org/2000/svg">
<g clip-path="url(#clip0_1662_51816)">
<rect width="445.284" height="89.775" fill="#E2E8F0"/>
<g clip-path="url(#clip1_1662_51816)">
<g clip-path="url(#clip2_1662_51816)">
<rect x="6.2832" y="0.0117188" width="27.8303" height="224.438" fill="#BFDFFF"/>
<rect x="43.0918" y="0.0117188" width="27.8303" height="224.438" fill="#BFDFFF"/>
<rect x="79.9004" y="0.0117188" width="27.8303" height="224.438" fill="#BFDFFF"/>
<rect x="116.707" y="0.0117188" width="27.8303" height="224.438" fill="#BFDFFF"/>
<rect x="153.516" y="0.0117188" width="27.8303" height="224.438" fill="#BFDFFF"/>
<rect x="190.322" y="0.0117188" width="27.8303" height="224.438" fill="#BFDFFF"/>
<rect x="227.131" y="0.0117188" width="27.8303" height="224.438" fill="#BFDFFF"/>
<rect x="263.938" y="0.0117188" width="27.8303" height="224.438" fill="#BFDFFF"/>
<rect x="300.746" y="0.0117188" width="27.8303" height="224.438" fill="#BFDFFF"/>
<rect x="337.553" y="0.0117188" width="27.8303" height="224.438" fill="#BFDFFF"/>
<rect x="374.361" y="0.0117188" width="27.8303" height="224.438" fill="#BFDFFF"/>
<rect x="411.17" y="0.0117188" width="27.8303" height="224.438" fill="#BFDFFF"/>
</g>
</g>
</g>
<defs>
<clipPath id="clip0_1662_51816">
<rect width="445.284" height="89.775" fill="white"/>
</clipPath>
<clipPath id="clip1_1662_51816">
<rect width="445.284" height="224.438" fill="white" transform="translate(0 0.00390625)"/>
</clipPath>
<clipPath id="clip2_1662_51816">
<rect width="445.284" height="224.438" fill="white" transform="translate(0 0.0078125)"/>
</clipPath>
</defs>
</svg>
