<svg width="259" height="90" viewBox="0 0 259 90" fill="none" xmlns="http://www.w3.org/2000/svg">
<g clip-path="url(#clip0_1662_51760)">
<rect width="258.552" height="89.775" fill="#E2E8F0"/>
<g clip-path="url(#clip1_1662_51760)">
<g clip-path="url(#clip2_1662_51760)">
<rect x="8.08008" y="0.0078125" width="15.2618" height="224.438" fill="#BFDFFF"/>
<rect x="28.7266" y="0.0078125" width="15.2618" height="224.438" fill="#BFDFFF"/>
<rect x="49.377" y="0.0078125" width="15.2618" height="224.438" fill="#BFDFFF"/>
<rect x="70.0254" y="0.0078125" width="15.2618" height="224.438" fill="#BFDFFF"/>
<rect x="90.6719" y="0.0078125" width="15.2618" height="224.438" fill="#BFDFFF"/>
<rect x="111.32" y="0.0078125" width="15.2618" height="224.438" fill="#BFDFFF"/>
<rect x="131.969" y="0.0078125" width="15.2618" height="224.438" fill="#BFDFFF"/>
<rect x="152.617" y="0.0078125" width="15.2618" height="224.438" fill="#BFDFFF"/>
<rect x="173.266" y="0.0078125" width="15.2618" height="224.438" fill="#BFDFFF"/>
<rect x="193.914" y="0.0078125" width="15.2618" height="224.438" fill="#BFDFFF"/>
<rect x="214.562" y="0.0078125" width="15.2618" height="224.438" fill="#BFDFFF"/>
<rect x="235.211" y="0.0078125" width="15.2618" height="224.438" fill="#BFDFFF"/>
</g>
</g>
</g>
<defs>
<clipPath id="clip0_1662_51760">
<rect width="258.552" height="89.775" fill="white"/>
</clipPath>
<clipPath id="clip1_1662_51760">
<rect width="258.552" height="224.438" fill="white" transform="translate(0 0.0078125)"/>
</clipPath>
<clipPath id="clip2_1662_51760">
<rect width="258.552" height="224.438" fill="white" transform="translate(0 0.0078125)"/>
</clipPath>
</defs>
</svg>
