<?xml version="1.0" encoding="utf-8"?>
<!-- Generator: Adobe Illustrator 27.2.0, SVG Export Plug-In . SVG Version: 6.00 Build 0)  -->
<svg version="1.1" id="Livello_1" xmlns="http://www.w3.org/2000/svg" xmlns:xlink="http://www.w3.org/1999/xlink" x="0px" y="0px"
	 viewBox="0 0 72 80" style="enable-background:new 0 0 72 80;" xml:space="preserve">

	<defs>
		<style type="text/css">
			.st0{fill:#FFFFFF;}
		</style>
		<style>
			g        { display: none;   }
			g:target { display: inline; }
		</style>

		<svg viewBox="0 0 72 80" id="ministero"><use xlink:href="#ministero-bg" x="0" y="0"/></svg>

	</defs>
	<g viewBox="0 0 72 80" id="ministero-bg">
		<path class="st0" d="M54.3,53c0.3,0,0.9,0.2,0.7,0.5c-0.2,0.2-0.2,0.8-0.6,0.8c-0.3,0-0.8-0.2-0.8-0.6C53.7,53.3,54,53,54.3,53
			L54.3,53L54.3,53z"/>
		<path class="st0" d="M23.1,62.8c0.3,0.2,0.8,0.2,1.1,0L24,62.3l-0.7-0.6c-0.3-0.2-0.7,0-0.9,0.6L23.1,62.8L23.1,62.8z"/>
		<path class="st0" d="M70.7,37.4c0.2-1.5,0.1-2.5-0.5-2.9c-0.6-0.3-1.3-0.2-2.1,0.3c-0.5-0.2-1.1,0-1.9,0.7c0.1-0.3,0.1-0.7,0-1
			c0.6-0.2,1-0.6,1.4-1.1c0.2-0.6,0.3-1.3,0.3-1.9c0.3-1,0.8-2.1,1.5-2.9c0.6-1.4,0.2-1.8-1.4-1.5c0.7-0.5,1.1-1.1,1.3-1.9
			c0-0.7-0.2-1.4-0.7-1.9c-0.2-0.5-0.5-0.6-0.9-0.2c0.1-0.3,0.2-0.7,0.2-1c-0.1-0.9-0.3-1.7-0.8-2.5c-0.1-1.7-0.5-2.4-1.1-2.1
			c-0.1-0.9-0.5-1.7-0.8-2.5c-0.7-1-1.3-1.3-1.6-0.8c-1.1-1.6-2.2-2.3-3.1-2.1c0-0.7-0.2-1.4-0.7-1.9c-0.1-0.8-0.5-1.6-0.9-2.3
			c-0.5-0.2-0.9,0.1-1,0.8c-0.1-0.7-0.3-1.4-0.6-1.9s-0.8-1-1.5-1c-0.2,0-0.5,0-0.7,0.1c-0.3-0.2-0.7-0.3-1.1-0.5
			c-0.9-1-1.8-1.1-2.6-0.2l-0.1-0.9c-0.2-1-0.8-1.3-1.7-0.7c-1-1.1-2.2-2.2-3.5-2.9c-0.9,0-1.5,0.1-1.7,0.5c-0.3-0.3-0.8-0.7-1.4-0.8
			C42.5,0.2,42,0.1,41.6,0c-0.7,0-0.9,0.3-0.8,1c-0.7,0-1.5,0.1-2.1,0.6c-0.3,0.3-0.5,0.8-0.3,1.3c0.2,0.6,0.7,1,1.3,1.4
			c-0.2,0.2-0.2,0.6-0.2,0.9c0,0.5,0.5,0.8,1.4,1c0.6,0.1,1.3,0.2,1.9,0c-0.2,0.5,0,1,0.6,1.1h0.1c0.8,0.8,2.1,1.1,3.1,0.7l-0.1,0.8
			l1.6,0.7c0,0.7,0.5,1.4,1.1,1.7l0.7,0.2c-0.3,0.1-0.6,0.3-0.8,0.6c-0.1,0.1-0.5,0.9,0.3,1.1c0.7,0.1,1.4,0.1,2.2,0.1
			c0,0.2,0.1,0.6,0.2,0.8c0.2,0.5,0.6,0.8,0.9,1.1c0.6,0.6,1.3,1,2.1,1.3c-0.1,0.3-0.3,0.7-0.5,1.1c-0.3,0.7-0.2,1.5,0.1,2.2
			c-0.1,0-0.5,0.2-0.7,0.5c-0.6,0.8,0.6,1.9,0.8,2.4c-0.2,0-0.5,0.1-0.6,0.2c-0.3,0.2-0.2,1.7,0.9,1.9c0.8,0.5,1.5,0.9,2.2,1.5
			c0.1,0.1,0.5,0.8,1,1.5c0.2,0.3,0.6,0.9,1.3,1c0.7,2.1,1.6,4,2.9,5.7c0.6,0.7,1.1,1.5,1.5,2.3c-0.1,0.5-0.1,0.9-0.1,1.4
			c-0.1,1.3-0.3,2.5-0.7,3.8c-1.3-0.6-1.4,0.2-1.6,1c0,0-0.6-0.1-0.7,0.1c0-0.5-0.7-0.9-1-0.7c0,0-0.3,0.2-0.6,0.5
			c-0.1,0.1-0.1-0.3-0.2-0.7c0-0.5,0-0.9,0.1-1.4c0,0,0.3-0.3,0.5-0.7c0.3-0.7,0.1-2.6-0.3-4c-0.1-0.3-0.3-0.6-0.7-0.7
			c-0.1,0-0.7,0-0.8,0.5c0-0.2-0.5-0.5-0.8-0.6c-0.9-0.2-1.9,1.6-1.8,3.2c-0.7-0.6-1.6-0.3-1.5,0.6c0.1,1.3,2.1,3.7,2.2,4.7
			c-0.6-0.6-1.9-0.6-1.9,0.7c0.1,0.5,0.2,0.9,0.5,1.4c-0.2,1.4,1.3,2.3,2.5,3.7c0,0.6,0.2,0.6,0.3,0.8c-0.2,0.3-1.6,2.6-1.7,2.6
			s-1-0.6-1.4-0.2c-0.3,0.3-0.6,0.6-0.8,0.9l0.1,1.6c0,0.8-0.3,1.7-1,2.2c-0.7,0.6-1.3,1.4-1.6,2.2c-0.1,0.5-0.7,1-1.6,1.6
			c-0.1-0.3-0.5-0.6-0.7-0.8c0-0.1-0.1-0.1-0.3-0.1C45.9,61,44,61.9,42,63c-0.9,0.6-1.7,1.5-2.2,2.5h-1.6c-0.5-0.5-0.9-0.9-1.5-1.4
			c-0.3-0.2-1-0.3-1.9,0.1c-0.9-0.2-1.8,0-2.6,0.5c-0.3,0.2-0.8,0.2-1.1,0.1L29,62.6c-4.3-1.8-6.6-2.6-7.1-2.4
			c-0.5,0.2-0.8,0.7-0.9,1.1c-0.7-0.5-1.4-1-1.9-1.6l-1.3-1.5c-0.8-0.8-1.3-1.9-1.1-3.1l0.2-1.4c0-0.1,0-0.3-0.1-0.5
			c-0.3-0.3-0.7-0.5-1.1-0.6c-0.1,0-0.2-0.1-0.5,0.7c-0.5-0.6-0.9-1.3-1.4-1.9c0.7-0.9,1.1-1.9,1.5-3c0.3-1.3,0.6-2.6,0.6-4
			c0-0.1,0.1-0.1,0.1-0.2c0.7-0.5,1.5-5.3,1.3-6.4c-0.1-0.5-0.2-0.7-0.3-0.7c-0.1,0-0.2,0-0.3,0.1l0.2-0.5c0.1-0.3,0.1-0.6,0-0.7
			c-0.6-0.1-1,0-1.5,0.2c-0.1-0.8-0.3-1.5-0.6-2.2c-0.1-0.1-0.2,0-0.2,0c-1.1,0.7-1.7,2.3-2.2,4.2L12,38.8c-1.6,1.9-2.7,4.2-3.3,6.6
			c-0.2-0.6-0.5-1.1-0.6-1.7C8,43.4,7.9,42.8,8,42.4c0.2-0.3,0.1-0.8-0.2-1.1c-0.6-1.3-0.9-2.5-1.1-3.8c0.1-0.9,0.3-1.8,0.7-2.6
			c0.6-1.5,1.4-3,2.2-4.3c0.2-0.2,0.3-0.5,0.6-0.6c1.5-0.3,8-8.8,7.3-12.8c1.1-1.8,2.2-3.7,3.1-5.7l0.3-0.1l0.5-0.1
			c1.4-0.6,2.6-1.1,3.8-1.7l1.7-0.9C28,8,29.1,7.3,30.1,6.5c1-0.9,1.6-1.9,1.8-3.2c-0.2-0.2-0.8-0.3-1.7-0.5c0.5-0.5,0.8-1.1,0.8-1.8
			c-0.3-0.5-1.5-0.6-3.3-0.2c-1.8,0.5-3.5,1.1-5,2.3c-1.5,0.9-2.9,2.1-4,3.4c-1.1,1.3-2.1,2.6-2.9,4.2l0.8-1.9
			c0.5-0.9,0.9-2.1,1.4-3.3c0.2-0.5,0.2-0.9,0.1-1.3C18,4,17.7,3.9,17.4,4c-1,0.5-1.8,1-2.5,1.7c-1.4,1.5-2.5,3.1-3.4,4.9
			c-0.8,1.5-1.5,3.1-2.1,4.6c0.2-1,0.2-2.2-0.1-3.3c-0.1-0.3-0.5-0.5-0.9-0.3c-0.6,0.3-1,0.9-1.4,1.4c-0.5,0.6-0.9,1.3-1.4,1.8
			c-0.6,0.8-1,1.6-1.5,2.5C3.4,18.5,3,19.8,2.6,21c-0.6,1.9-0.8,3.9-1,5.8c-0.1,1.7,0,3.3,0.3,5c0.3,1.4,0.8,2.6,1.4,4
			c0.5,0.8,0.9,1.4,1.3,1.5c0.2,0.6,0.6,1.6,1,3.1c0.2,0.5,0.3,1,0.3,1.6c0,0.2,0,0.6,0.2,0.7c0.2,0.2,0.5,0.6,0.6,0.8
			c0.3,1.3,0.8,2.6,1.5,3.8C8.1,48.1,8,48.7,8,49.3c-1.4-3.9-2.5-6.8-3.3-8.9c-1.6-3.7-3-5.3-3.9-5C0.3,35.6,0,36.2,0,36.6
			c0,0.2,0,0.9,0,1.9c0,1.1,0.1,2.2,0.3,3.3c0.7,3.4,2.2,6.6,4.3,9.4l3.1,3.7c0.6,0.6,1.1,1,1.8,1.4c0.5,0.2,1,0.3,1.6,0.2
			c0.8,1.3,1.7,2.4,2.6,3.5c0.7,1,1.4,1.5,2.2,1.5c0.2,0.6,0.8,1,1.4,1l0.7-0.1c0.7,0.7,1.5,1.4,2.4,2.1l-0.8,2.3
			c-1.3,0.2-2.6,0.3-3.9,0.3c-1.1-0.8-2.6-1.8-4.7-3.2L11,61.4c-0.1-0.8,0.1-1.5,0.5-2.2c0.1-0.5-0.2-0.9-0.8-1.4
			c-0.9-0.5-1.4-0.7-1.7-0.6c-0.1,0,0,0.2,0,0.5v0.1c0-0.1,0-0.2,0.2-0.1c1.1,0.3,1.7,0.7,1.6,1.1c-0.3,0.7-0.6,1.4-0.6,2.2v2.2
			c-1.5-1-3.2-1.9-4.8-2.6c0.2,0,0.5,0,0.7-0.1c0.2,0,0.5-0.1,0.5-0.2C6.6,60,6.4,60,6.1,59.9c-0.6,0-1.1,0-1.7,0.2
			c-0.2,0.2-0.1,0.5,0.1,0.7c1.8,0.9,3.7,1.9,5.4,3.1c2.4,1.6,4.3,2.9,5.7,3.8c1.8-0.1,3.8-0.2,5.6-0.6l3.7-0.7
			c1.5-0.2,3.1-0.6,4.7-0.7c0.8-0.1,1.5-0.1,2.3-0.1s1.7-0.1,2.5-0.2c0.7,1.1,1.1,2.4,1.4,3.7c0.1,0.6,0,0.8-0.2,0.9
			c-2.4,0.9-4.8,1.7-7.2,2.4c-1.5,0.3-2.7,0.6-4,0.9c-3,0.6-5.9,0.9-8.8,1.4c-2.2-0.9-4.3-2.1-6.4-3.3c-1.8-1-3.5-2.3-5.3-3.7
			c-1.1-1.3-1.6-1.9-1.4-2.2c0.7-1,1.1-2.1,1.5-3.2C4,62,4,61.8,4,61.4c-0.3-0.9-0.1-1.5,0.7-1.5c1.3-0.1,2.5-0.1,3.8-0.1
			c0.2,0,0.5,0,0.6-0.2l0.7-1.3l-0.3-0.1L8.8,59v-0.9v1.1l-4.3,0.1c-0.3,0-0.8,0.1-1,0.5c-0.3,0.6-0.3,1.1-0.1,1.7
			c0,0.2,0,0.6-0.1,0.8c-0.3,1.1-0.9,2.3-1.6,3.3c-0.1,0.2-0.1,0.5,0.1,0.9c0.6,0.6,1,1.3,1.7,1.7c0.6,0.5,1,0.9,1.7,1.4
			c0.8,0.6,2.1,1.4,4,2.5c2.1,1.3,4.2,2.4,6.4,3.3c0.5,0,3.2-0.3,8.4-1.1v0.5c-1.5,1.1-2.5,1.6-2.9,1.4c-0.6,0-0.8,0.5-0.6,1.4
			c0.2,0.3,0.6,0.7,0.9,0.8L22,79l1.6,0.9c0.6,0.1,1.1,0.1,1.7,0c0.6-0.2,0.9-0.7,1-1.4l0.1-0.1l1.7-1.7l1.3-0.9c0.8,0,1.5-0.5,1.8-1
			c0-0.5,0.2-0.7,0.3-0.8l1.5-1c0-0.1,0.7,0.1,1.8,0.7c0.5,0.1,1,0.1,1.5-0.1l1.1-0.7c1,0.2,2.7,1.5,5.3,3.7c0,0.3,0.2,0.7,0.5,0.9
			c0.5,0.3,1,0.6,1.6,0.7l0.6,1.1l0.6,0.2c0.9,0,1.8-0.3,2.5-0.9l0.9-0.3c0.5-0.3,0.7-0.7,0.7-1.1l-0.3-0.3L49,76.5
			c-1.1-0.6-2.2-1.1-3.1-1.9l-0.7-0.5c3.8,0.6,7.6,1,11.5,1.3c0.8,0,1.6-0.3,2.3-0.9c0.9-0.7,3.8-2.7,8.6-6.2c0.7-0.8,1.3-1.7,1.7-2.6
			c-0.5-0.5-0.9-1-1.1-1.7c-0.2-0.6-0.5-1.3-0.6-1.8c-0.1-0.5-0.1-0.9,0-1.3c0.1-0.5-0.1-0.8-0.3-1c-0.2-0.2-0.6-0.3-1-0.3
			c-1-0.1-2.1-0.1-3.1,0c-0.6,0-0.8-0.2-0.9-0.3v-1c0.1-0.5,0-0.7-0.3-0.6c-0.8,0.1-1.6,0.5-2.3,0.9c-0.3,0.3-0.3,0.9,0,1.3
			c0,0,0,0,0.1,0.1c0.3,0.2,0.5,0.6,0.5,1c-0.1,1.3-0.2,2.5-0.5,3.8c-1.4,1.1-2.7,2.2-4.2,3c-1.4,0.1-2.6,0.1-4-0.2
			c-0.6-0.6-0.9-1.3-1-2.1c0.8-0.5,1.5-1,2.3-1.5c0.5-0.1,0.9-0.2,1.4-0.3c0.3-0.1,0.6-0.5,0.6-1c0.3-0.2,0.7-0.6,0.8-0.9l2.5-3
			c0.7-0.7,1.6-1,2.6-1.1c1.6-0.2,3.1-0.9,4.5-1.9c0.2-0.3,0.2-0.8,0-1.4c1-0.8,1.8-1.6,2.6-2.6c0.5-0.7,0.6-1.5,0.3-2.3
			c0.9-0.9,1.5-2.1,1.9-3.2c0.1-0.8,0.1-1.5,0-2.3c0.5-0.2,0.8-0.6,1.1-0.9c0.2-0.2,0.3-0.7,0.3-1c0-0.5-0.1-0.8-0.5-1
			C71.2,39.7,71.4,38.4,70.7,37.4z M31.3,3.7c0,0.7-0.3,1.4-0.9,1.8c-1.1,1-2.3,1.8-3.7,2.5c-1.5,0.8-3.4,1.7-5.6,2.7v-0.3
			c2.5-1.9,5.1-3.8,7.9-5.3c0.6-0.5,0.3-0.6-0.5-0.3c-0.8,0.5-1.7,0.9-2.7,1.6c-1.7,1.1-3.3,2.2-4.9,3.3V9.2c2.3-2.3,5-4.1,7.9-5.5
			C29.6,3.4,30.5,3.4,31.3,3.7z M21.7,4.6c1.6-1.4,3.5-2.3,5.5-3c0.9-0.2,1.8-0.3,2.7-0.3c0.3,0.1,0.5,0.3,0.3,0.7l-0.9,1.3
			c-1.1,0.2-2.3,0.7-3.3,1.4c-1.6,0.9-3.2,2.1-4.6,3.3l-0.6,0.3C20.4,8,19.9,8,19,8.4c2.2-1.8,4.3-3.5,6.7-4.9
			c0.8-0.3,1.5-0.8,2.2-1.3C26.9,2.6,26,3,25.2,3.4c-1.9,1.1-3.8,2.4-5.6,3.8l-2.5,2.3C18.5,7.6,20,6.1,21.7,4.6z M19.1,9.4
			C19.5,9.1,19.9,9,20,9c0.1,0.3,0.1,0.8,0.1,1.1c-0.2,1-0.6,2.2-1.1,3.1l-1.6,3.1c-1.1,0.2-2.3,0.7-3.1,1.5c0.5-0.9,1.1-1.8,1.8-3
			s1.8-2.9,3.3-5.1c0.2-0.5,0.2-0.6,0-0.3c-0.7,0.8-1.4,1.6-1.9,2.4c-1,1.4-2.4,3.7-4.2,6.5c-0.5,0.7-1.6,2.5-3.5,5.4l0.2-0.7l2.5-4.5
			l2.4-4.6C16.1,12.3,17.4,10.6,19.1,9.4z M8.7,19.8c1.5-2.5,2.9-5.1,4.1-7.8c0.6-1.1,1.3-2.3,2.2-3.3c0.2-0.7,0.1-0.7-0.5,0
			c-1.8,2.5-3.5,5.3-4.8,8.2l0.8-2.1c0.3-1,0.8-2.1,1.4-3.1c0.6-1.4,1.4-2.6,2.3-3.8c0.7-0.9,1.3-1.5,1.5-1.8c1-0.9,1.6-1.3,1.8-1.3
			c0.1,0.1,0.2,0.3,0.1,0.6l-2.1,5.4c-1.5,2.9-3.3,5.6-5.4,8.2c-0.9,1-1.5,1.7-1.7,1.9c-0.5,0.1-0.6,0.3-0.8,0.7L7.8,21L8.7,19.8z
			M9.8,24.5c-0.6,0.9-1,1.9-1.4,3H8.1L9,24.8L9.8,24.5z M6.6,31.7L7,30.5l0.2-1.3l0.7-0.1l-0.8,2.3l-0.6,1.9L6.6,31.7z M6.5,27.1
			c0.2-1.1,0.5-2.3,0.8-3.4l0.3,0.5L6.5,27.1z M4.9,35.5l-0.1-0.3c-0.1-0.2,0.1-1.9,0.9-4.9C5.4,32.5,5.1,34.2,4.9,35.5z M4.2,33.1
			c-0.2-2.4,0-4.9,0.5-7.3c0.2-2.7,0.9-5.4,1.9-8C7,17,7,16.9,6.6,17.5c-1.7,3-2.7,7.3-3,13c-0.1,1.5,0,3,0.3,4.3
			c0.2,0.9,0.6,1.4,1,1.6c0.2,0.1,0.5,0.1,0.7,0c-0.1,0.3-0.1,0.6-0.1,0.9C4.8,37,4.2,36.4,4,35.6c-0.5-1-0.7-2.1-0.9-3.2
			c-0.7-1.6-0.8-3.1-0.7-4.7c0.1-2.1,0.5-4.2,0.9-6.3c0.8-3,2.3-5.7,4.3-8c0.5-0.6,0.8-0.7,0.9-0.3c0.1,1.1,0.1,2.2,0,3.3
			c-0.1,1.3-0.5,2.4-0.8,3.5c-1.1,3.7-1.7,6.2-1.9,7.4C5.3,28.8,4.8,30.7,4.2,33.1L4.2,33.1z M5.5,37.2v-0.7c1-1.1,0.9-2.3,1.4-3.3
			l1.5-3.8l1.7-4c1.1-2.2,2.5-4.2,3.9-6.2c0.6-0.9,1.6-1.6,2.6-1.8c0.2,0.6,0.2,1.1,0,1.7c-0.2,0.9-0.6,1.8-1,2.7c0,0-0.1,0,0,0
			c-1.4,2.7-3.2,5.1-5.3,7.3l3-4.8l1.4-2.5c0.6-0.9,0.7-1.3,0.3-1c-2.9,4.3-4.6,7-5.1,8.1c-0.6,1.1-1.1,2.2-1.7,3.1
			c-0.5,0.7-0.9,1.5-1.3,2.3C6.6,35.4,6.2,36.3,5.5,37.2L5.5,37.2z M16.9,38.9c-0.1,1.6-0.5,3.2-0.8,4.8c0-1-0.1-2.1-0.2-3.1l0.3-1
			c0-0.3,0-0.3-0.2,0l-0.2,0.5v-0.8l0.7-0.8C16.8,37.8,16.9,38,16.9,38.9L16.9,38.9z M16.2,36.6c0.3-0.1,0.5,0.1,0.2,0.5l-0.8,1.1
			c0-0.5-0.1-0.8-0.2-1.3C15.6,36.9,16,36.8,16.2,36.6L16.2,36.6z M12.9,38.6c0.6-2.4,1.1-3.5,1.7-3.8c0.5,1.5,0.7,3,0.8,4.6
			c0.2,1.9,0.2,4,0,6.1C15.3,47,15,48.6,14.3,50l-0.6,1.1c0-1.7,0-3.2,0.1-4.2c0-1.1,0.1-2.5,0.1-4.3c0-1.8,0.1-3.9,0.3-6.2
			c0.1-0.6,0.1-0.7-0.1-0.3c-0.5,3-0.8,6.1-0.8,9v2.4l-0.1,3.3l-0.6-0.7c-0.5-2.1-0.6-4.1-0.5-6.3C12.2,42.1,12.4,40.3,12.9,38.6z
			M9.1,45.7c0.6-2.4,1.7-4.6,3.2-6.5c-0.2,0.8-0.3,1.7-0.5,2.6c-1.1,2.1-2.2,4.1-2.9,6.4c-0.2,0.8-0.3,1.6-0.5,2.3
			C8.6,49,8.8,47.3,9.1,45.7z M11.9,49.2L11,48.1l0.7-1.7C11.6,47.4,11.8,48.3,11.9,49.2L11.9,49.2z M20.4,66.8l0.6-1.7l1.9,1.3
			L20.4,66.8z M25.1,65.9l-3.2-1.9L19,62l-0.6-0.7c-0.2-0.2-0.5-0.2-0.7-0.1c-0.3,0.1-0.6,0-0.7-0.5c-0.8,0.5-1.8,0.2-2.3-0.5
			l-1.4-1.7l-1.3-2.3l-0.6-0.3c-0.2,0.1-0.6,0.2-0.9,0.2c-0.7-0.1-1.4-0.6-1.8-1.1c-1-1.4-1.8-2.9-2.5-4.3c-1.3-2.4-2.5-4.9-3.5-7.4
			c-0.5-1.4-0.8-2.3-0.9-2.6c-0.1-0.3-0.2-0.3-0.1,0c0.1,0.8,0.3,1.6,0.7,2.4c0.7,1.8,1.4,3.7,2.2,5.4c0.9,1.9,1.8,3.7,2.7,5.3
			c-1.8-1.8-3.3-4-4.6-6.4c-0.8-1.7-1.5-3.5-1.8-5.4c-0.2-0.9-0.2-1.8-0.2-2.7c0-0.7,0-1.4,0-2.1c0.1-0.5,0.3-0.6,0.6-0.6
			c0.1,0,0.6,0.5,1.1,1.3c1,1.7,1.8,3.5,2.5,5.4c1,2.9,1.7,4.7,1.9,5.5c0.2,0.9,0.5,1.6,0.7,2.3c0.2,0.7,0.6,1.4,0.9,1.9
			c0.3,0.8,0.9,1.5,1.5,2.1c0.7,0.5,1.1,0.6,1.5,0.2l-1.6-2.7c-0.1-0.1-0.3-0.1-0.5,0c0,0,0,0-0.1,0l0,0H9.1c-0.1,0-0.1,0-0.2,0
			l-0.1-0.1l-0.1-0.1c0,0,0-0.1-0.1-0.2c0-0.1,0-0.1-0.1-0.2c0-0.1,0-0.3,0-0.5c0.1-0.9,0.3-1.7,0.6-2.6c0.7-2.2,1.6-4.2,2.6-6.3
			c-0.1,0.8-0.2,1.5-0.2,2.3c-1,2.4-1.8,4.2-2.3,5.7c-0.2,1-0.2,1.6,0,1.5l0.3-0.1l-0.2-0.6l0.1-0.5l0.5,0.9l0.7-0.2l0.2,0.3l-0.2,0.3
			l1.9,2.7l0.5-0.3l0.3,0.3c-0.6,0.6-0.8,0.9-0.7,1.1c0.5,0.8,0.9,1.5,1.4,2.3c0.8,1.3,1.5,1.6,2.1,1c0.1-0.1,0.3-0.1,0.7,0.1
			c0.3,0.3,0.7,0.8,0.8,1.3v-1l-1.6-1.4L15,56.4c-0.6-0.8-1.1-1.6-1.6-2.4c-0.3-0.6-0.7-1.3-1.1-2.1c-0.5-0.8-1-1.7-1.7-2.6l0.1-0.5
			l1.4,1.6c0.9,1.1,1.7,2.3,2.5,3.5c0.5,0.8,0.8,1,0.9,0.6l0.2-0.8L16,54l-0.2,1.6l-0.1,0.5c0,0.3,0,0.6,0.2,0.7s0.3,0.3,0.5,0.8
			c0.3,0.7,0.8,1.3,1.4,1.7c0.8,0.8,1.6,1.6,2.5,2.3c0.9,0.6,1.6,1.1,2.2,1.5c0.6,0.3,0.8,0.8,0.8,1.1l0.8,0.1v-0.9l0.5-0.1
			c0.3,0.2,0.6,0.6,0.7,0.9c0.7,0.6,1.4,1,1.9,1.4L25.1,65.9z M11.2,52.2l0.2-0.2l1.1,1.9v0.2L11.2,52.2z M13.2,56.2l0.5-0.6l1.1,1.6
			l0.7,1.1l0.2,0.7c-0.5-0.2-0.8-0.5-1-0.9l-0.8-1L13.2,56.2z M28,65.4l-1.8-1.3c-0.7-0.9-1.3-1.5-1.6-1.9c-0.2-0.3-0.6-0.6-1-0.8
			c-0.3-0.2-0.7-0.3-1.1-0.2c-0.2,0-0.5,0.3-0.7,0.8v-0.1c0-0.3,0.2-0.7,0.6-0.9c0.3-0.1,0.7-0.1,0.9,0.1l2.1,1l3.4,1.4
			c0.6,0.6,1.1,1.1,1.6,1.8C29.6,65.3,28.8,65.4,28,65.4z M29.1,74.2c-1.3,1.3-2.6,2.3-4,3.3l-0.5-0.1c0.9-0.6,2.2-1.4,3.8-2.6
			l0.7-0.8h-0.3c-0.6,0.6-1.3,1-1.8,1.5c-0.8,0.6-1.6,1-2.4,1.4l-1.3,0.6l0.2,0.2l0.9,0.1c0.6,0.3,0.8,0.7,0.7,1
			c-0.2,0.5-0.7,0.5-1.4,0.1l-1-0.6c-0.3-0.3-0.7-0.6-1.1-0.8l-0.5-0.3l0.1-0.3l1.3,0.6h0.3l-0.2-0.8l1.5-0.9c0.3-0.1,0.6-0.3,0.5-0.7
			l0.1-0.8c0.7,0.1,1.5,0,2.2-0.3s1.4-0.6,2.2-0.6C29.6,73.5,29.6,73.9,29.1,74.2L29.1,74.2z M46.8,8.2V7.3L46,7.4
			c-0.8,0.2-1.7,0-2.3-0.7C43.3,6.8,43,6.6,43,6.2c0.3-0.5,0.2-0.7-0.1-0.7l-1.3,0.1c-0.6,0-1.1-0.2-1.6-0.7c-0.1-0.2,0-0.7,0.3-1
			c-0.5-0.1-1-0.5-1.4-1c-0.2-0.3-0.1-0.7,0.3-0.9c0.7-0.2,1.5-0.3,2.3-0.1c-0.2-0.2-0.3-0.7-0.2-1c0-0.3,0.8-0.1,2.2,0.6l0.9,0.6
			c0.2-0.5,0.7-0.6,1.1-0.3c0.7,0.3,1.3,0.7,1.8,1.1c0.7,0.6,1.4,1.1,1.9,1.9c0.6-0.3,1-0.3,1.3,0.2l0.1,1c-0.7-0.6-1.6-0.7-2.3-0.1
			l-0.6-0.3c-0.6-0.7-1.1-1.4-1.5-2.3c-0.1-0.7-0.2-0.7-0.2-0.1c0.1,0.8,0.5,1.6,1,2.2c-1-0.2-1.9-0.8-2.7-1.5c-0.5-0.5-0.9-1-1.4-1.6
			c-0.3-0.5-0.5-0.5-0.3,0c0.3,0.7,0.8,1.3,1.4,1.7c-0.5-0.2-0.9-0.3-1.3-0.6c-0.8-0.3-1.6-0.6-2.5-0.7c-0.3,0-0.3,0,0,0.1
			C41.2,3,42,3.2,42.8,3.5c0.3,0.1,0.7,0.3,1,0.7c-0.8,0.3-1.6,0.5-2.5,0.5c-0.6,0-0.8,0-0.7,0c0.1,0.1,0.3,0.1,0.5,0.1
			c1,0.1,2.1,0,3.1-0.3c0.9,0.5,1.7,0.8,2.6,1.1c-0.7,0.1-1.3,0.5-1.8,0.8c-0.2,0.2-0.1,0.3,0.3,0c0.6-0.3,1.3-0.6,2.1-0.6l0.7,0.3
			c0,0.8,0.1,1.6,0.6,2.3l-0.5,0.1L46.8,8.2z M51.6,12.8c-1.6,0-1.9,0-1.9-0.2c-0.1-0.2-0.1-0.3,0.5-0.7l0.3-0.5
			c-0.9-0.5-1.7-0.9-1.8-2.1L49.4,9c0.3-0.3,0.3-0.7,0-0.9c-0.3-0.2-0.5-0.7-0.6-1.6c0.3-0.7,1-0.7,2.3,0c0.6-1,1.1-1.4,1.9-0.9
			c-0.7-0.1-1.4,0.3-1.5,1c-0.1,0.6-0.1,1.1,0,1.6c-0.2-0.2-0.6-0.6-1-0.9C49.8,7,49.7,7,50.1,7.4c0.5,0.5,0.9,0.9,1.3,1.5
			c-0.6,0.5-1.3,0.7-2.1,0.7c-0.2,0.1-0.2,0.2,0.1,0.2c0.3,0.1,0.8,0,1.1-0.1c0,0.6,0.1,1.1,0.3,1.6c0.3,0.5,0.7,0.8,1,1
			C51.8,12.4,51.7,12.6,51.6,12.8z M52.5,13.6c0-0.3,0.2-0.6,0.9-0.6c0.6,0,0.7-0.2,0.3-0.6c-0.8-0.2-1.5-0.8-2.1-1.5
			c-0.3-0.5-0.3-0.8,0-1l0.7-0.1l0.3-0.3L52.2,8c-0.2-0.6,0.1-1.3,0.7-1.6c0.8-0.1,1.6,0.1,2.3,0.7c0-0.3,0.3-0.6,0.8-0.3
			c0.5,0.1,0.9,1.3,1.4,3.2l0.7,0.2c0.2-0.6,0.5-0.8,0.6-0.8c0.2,0,0.5,0.5,0.7,1.4c0.6,0.7,0.9,1.6,0.8,2.5c-0.3,0.6-0.6,1.1-0.6,1.8
			l-0.3-0.8c-0.2-0.9-0.3-1.8-0.2-2.6c0-0.3-0.1-0.3-0.1,0c-0.1,0.7-0.1,1.4,0,2.1c-0.7-0.9-1.6-1.8-2.4-2.6c-0.5-0.8-0.5-1.5-0.5-2.2
			c-0.1-0.7-0.1-0.8-0.2-0.5c-0.1,0.8,0,1.6,0.1,2.4C55,9.9,54.2,9,53.5,8c-0.2-0.3-0.3-0.5-0.3-0.2c0.5,0.9,1,1.7,1.7,2.5
			c0.6,0.7,1,1.3,1.5,1.6c-0.6-0.2-1.3-0.3-1.9-0.5c-0.6-0.1-1-0.2-1.5-0.5c-0.5-0.1-0.5,0,0,0.3c0.5,0.2,1,0.5,1.6,0.5
			c0.8,0.1,1.5,0.3,2.2,0.7c0.6,0.5,1.1,1,1.5,1.7l0.5,1.1c-0.8-0.5-1.7-0.7-2.6-0.9c-0.6,0-1.1-0.2-1.7-0.5c-0.7-0.3-0.7-0.2-0.1,0.1
			c0.6,0.3,1.1,0.5,1.8,0.6c1,0.2,2.1,0.7,3,1.3l0.1,0.2c-0.2,0.2-0.2,0.6-0.2,0.9l0.3,0.8c-0.2-0.3-0.6-0.1-1,0.5
			c0.2-0.3,0.1-0.7-0.1-1c-0.8-0.9-1.8-1.5-2.9-1.9l-0.5,0.5C53.7,15.5,52.9,14.7,52.5,13.6L52.5,13.6z M56.1,19
			c0.2,1.3,0.5,2.5,0.9,3.7c-0.6-0.5-1.1-0.9-1.8-1.1c-0.3-0.2-0.3-0.1,0,0.1c0.7,0.3,1.4,0.9,1.8,1.5c0.3,0.8,0.7,1.5,0.9,2.2
			c-0.8-0.6-1.7-0.9-2.6-1.3c-0.5-0.1-0.5,0,0,0.1c1.1,0.3,2.1,0.9,2.9,1.8l0.8,2.3c-0.3,0-0.7-0.5-1.3-1.4c-0.8-1-1.9-1.8-3.2-2.3
			c-0.3-0.1-0.6-0.6-0.5-0.9c0-0.3,0.3-0.5,1-0.3c-0.1-0.5-0.3-0.8-0.6-1.1l-0.3-0.5c-0.5-0.9-0.2-1.4,0.8-1.4c-0.3-0.6-0.5-1-0.3-1.3
			c0-0.6,0.1-1.1,0.3-1.6c0.1-0.3,0.3-0.7,0.3-1c0.6,0.3,1,0.6,1.5,0.8c0.5,0.2,0.7,0.7,0.7,1.1l-0.2,1.3c0.1,0.2,0.3,0.1,0.7-0.2
			c0.2-0.3,0.6-0.7,0.9-0.9c0.3,0.2,0.7,0.5,0.9,0.8c0.2,1,0.1,2.1-0.3,3l-0.5,1.1c0.9-1.3,1.7-1.8,2.3-1.8c0.2,0.1,0.2,0.5,0.2,0.9
			c-0.1,0.5-0.1,0.9,0,1.4c0.1,0.5-0.1,0.9-0.5,1.3c-0.5,0.5-0.7,1-0.8,1.6c0.9-0.7,1.3-0.6,1.1,0.3l-0.5,1.8c-0.1,0.9,0,1.3,0.5,1.3
			c0.5,0,0.7,0,0.8,0.1c0.1,0.2,0.1,0.6,0.1,0.9c-0.2,0.3-0.3,0.8-0.3,1.1c0,0.2,0.1,0.3,0.2,0.5c0.1,0.1,0.5,0.1,0.8-0.1
			c0.5-0.2,0.7,0,0.7,0.3c0,0.5,0,0.9,0,1.3c0,0.5,0.1,0.8,0.5,1.3c0.2,0.2,0.5,0.5,0.8,0.6l0.3-0.5c-0.6,0-0.8-0.3-0.8-1.1
			c0-0.6,0-1.1,0-1.8c-0.2-0.6-0.5-0.8-0.7-0.9c-0.2-0.1-0.8-1.5-1.6-4.2H63c0.7,2.4,1.1,3.7,1.6,3.9c0.3,0.2,0.6,0.3,0.6,0.7
			c0,0.6,0.1,1,0.2,1.6c0.5-0.1,0.8-0.6,0.9-1.4c0.2-0.7-0.1-1.4-0.7-1.7s-0.9-0.7-1-0.9c-0.1-0.5,0-0.8,0.6-0.9
			c0.3-0.1-0.5-0.8-2.3-2.1C62,26,61.6,25.5,62.1,25c0.1-0.2,0.5-0.2,0.8,0c0.3,0.2,0.7,0.3,0.8,0.2c0.2-0.3,0-0.7-0.5-0.8
			c-0.5-0.1-0.8-0.3-0.7-0.6c0-0.6,0-1.1,0-1.8c0-0.3,0-0.8-0.1-1.1c-0.3-0.5-0.9-0.5-1.8,0.1c0.2-0.5,0.2-0.9,0.1-1.4
			c-0.1-0.5-0.3-0.9-0.7-1.3l-0.5-1.3c-0.1-0.5,0.1-0.8,0.8-0.9c-0.2-0.6-0.2-1.3,0-1.8c0.1-0.3,0.3-0.7,0.5-1
			c0.1-0.2,0.3-0.2,0.8-0.1c0.8,0.6,1.5,1.4,2.1,2.3c0.5-0.5,0.9-0.3,1.4,0.6c0.6,0.8,0.7,1.8,0.6,2.9c1-0.6,1.4-0.2,1.1,1.1
			c0.3,0.7,0.7,1.4,0.8,2.2c0.1,0.5,0,1-0.2,1.5c-0.2,0.3-0.3,0.7-0.3,1c0,0.2,0.1,0.2,0.3,0c0.3-0.3,0.7-0.6,1.1-0.7
			c0.2,0.5,0.5,1,0.5,1.6c0,0.5-0.2,0.8-0.6,1c-0.3,0.3-0.6,0.8-0.7,1.3c0,0.2,0.1,0.3,0.3,0.3c0,0,0,0,0.1,0l0.8-0.2
			c0.3,0,0.5,0.2,0,0.9c-0.3,0.6-0.6,1.3-0.9,1.8c-0.6,0.3-0.7,0.7-0.7,1.1c0,0.7-0.1,1-0.3,1.1c0-0.8,0-1.7-0.1-2.5
			c-0.1-1-0.3-2.1-0.6-3c0.5-0.6,0.8-1.3,0.9-1.9c0.2-0.6,0.1-0.7-0.1-0.2c-0.1,0.6-0.5,1.1-0.9,1.6c-0.3-1-0.7-2.3-1-3.8
			c0.5-0.8,0.7-1.7,0.8-2.6c0-0.9,0-1-0.1-0.2c-0.1,0.9-0.5,1.7-0.9,2.5c-0.3-1.1-0.8-2.3-1.1-3.3c0.1-0.7,0.2-1.4,0.1-2.1
			c0-0.8-0.1-0.8-0.2-0.1c0,0.6-0.1,1-0.2,1.5l-0.9-2.4L62,15.2c-0.2-0.5-0.2-0.5-0.2,0l0.6,1.8c-0.3-0.5-0.7-0.8-1.1-1
			c-0.3-0.2-0.5-0.2-0.2,0c0.6,0.6,1.1,1.1,1.6,1.7c0.3,0.9,0.7,1.8,1.1,2.7c-0.7-0.7-1.4-1.1-2.3-1.5c-0.6-0.2-0.6-0.1,0,0.3
			c1,0.7,1.9,1.6,2.7,2.5c0.3,1,0.7,1.9,1,2.9c-0.8-0.5-1.4-1.1-1.9-1.8c-0.3-0.3-0.3-0.2,0,0.1c0.6,0.9,1.4,1.7,2.2,2.5l0.7,2.6
			c-0.8-0.8-1.6-1.4-2.5-1.9c-0.5-0.2-0.5-0.2-0.1,0.1c1,0.8,2.1,1.8,2.9,2.9c0.3,1.4,0.5,2.9,0.3,4.3c0,0.6-0.5,0.9-1.1,1.1l-0.3,1.9
			h-1c-0.6-0.8-1-1.4-1.3-1.8c-0.3-0.5-0.7-1.1-1.3-2.1c-0.5-0.7-0.8-1.5-1.3-2.2c-0.2-0.6-0.3-1.1-0.1-1.7c0.1-0.6,0.3-1,0.5-1.4
			c0.1-0.3,0.1-0.3,0-0.1c-0.3,0.6-0.6,1.1-0.7,1.7l-0.8-2.4c0.2-1.4,0.8-2.6,1.5-3.7c0.2-0.5,0.2-0.6-0.1-0.1c-0.8,1-1.4,2.2-1.6,3.4
			l-1.4-3c0.1-1,0.5-2.1,1-3.1c0.3-0.8,0.2-0.8-0.2,0.1c-0.5,0.8-0.7,1.6-1,2.4 M64.2,36.6c0.3,0,0.6,0,0.9,0
			c-0.3,2.2-0.8,4.5-1.3,5.9l-0.6-0.3C63.7,40.4,64,38.6,64.2,36.6L64.2,36.6z M56.6,48.7c-0.1-0.1-0.6-0.6-1.4-1.1
			c-0.7-0.6-0.9-1.1-0.7-1.7c-0.2-0.2-0.3-0.6-0.6-0.9c-0.1-0.3-0.1-0.7,0.1-1c0.2-0.3,0.8-0.2,1.6,0.5c0.1-0.5,0.1-0.9,0-1.4
			c-0.1-0.5-0.3-0.9-0.5-1.3c-0.3-0.6-0.7-1.1-1-1.7c-0.3-0.7-0.3-1-0.2-1.1c0.1-0.1,0.5,0,0.8,0.3c0.7-0.8,1.1-1,1.4-0.7
			c0.3,0.5,0.5,1,0.6,1.6c0.1,0.8,0.1,1.6,0,2.4l-0.1,0.1l0.1,0.1c0,0.7,0,1.3-0.2,1.9c0,0.2,0.1,0.5,0.2,0.7c0-0.2-0.1-0.5,0-0.8
			c0-0.1,0.1-0.5,0.2-1c0.1-0.3,0.2-0.6,0.2-0.9c0-0.1,0-0.1-0.2-0.1c0.2,0,0.3-0.2,0.3-0.3c0.1-0.1,0.1-0.3,0-0.5
			c-0.1-0.5-0.1-0.9-0.1-1.4c0-0.6-0.1-1.1-0.2-1.7c-0.1-0.3-0.2-0.6-0.2-0.9c0-0.2-0.2-0.3-0.5-0.3c-0.3,0-0.8,0.2-1.4,0.9
			c0.1-0.8,0.3-1.7,0.8-2.4c0.2-0.5,0.6-0.6,0.8-0.3c0.2,0.1,0.5,0.3,0.6,0.6c0.1,0.2,0.2,0.1,0.3-0.1c0.1-0.2,0.3-0.3,0.5-0.2
			c0.1,0.1,0.2,0.3,0.3,0.5c0.1,0.2,0.2,0.6,0.2,0.8c0.1,0.5,0.1,1,0.1,1.6c0.1,0.6,0,1-0.2,1.5c-0.2,0.2-0.3,0.6-0.3,0.9
			c0,1.5,0.1,2.2,0.3,2.2c0.2,0,0.5-0.1,0.6-0.3c0.1-0.2,0.3-0.2,0.7-0.2c0.2,0,0.3,0.5,0.3,1.3s0.1,0.8,0.2,0.2s0.3-0.9,0.7-0.9
			c0.3,0,0.3,0.8,0.1,2.5c-0.9,0.8-1.7,1.6-2.4,2.5c-0.2-0.5-0.2-1,0-1.5c0.1-0.3,0.3-0.6,0.5-0.9c0.1-0.3,0.2-0.7,0.3-0.9
			c0.2-0.7,0.2-0.7-0.1-0.1c-0.1,0.3-0.3,0.7-0.5,0.9c-0.1,0.2-0.2,0.6-0.5,0.8c-0.1-0.8-0.3-1.6-0.6-2.4c-0.2-0.8-0.3-0.8-0.2,0
			c0.2,1.3,0.3,2.5,0.5,3.9c-0.5-0.5-0.9-0.9-1.5-1.4c-0.5-0.3-0.9-0.7-1.3-1.1c-0.3-0.2-0.3-0.1-0.1,0.1c0.5,0.6,0.9,1.1,1.5,1.6
			c0.5,0.3,0.8,0.8,1.3,1.3c0.1,0.1,0.2,0.3,0.2,0.5c-0.2,0.3-0.6,0.7-0.9,1c-0.2-0.1-0.3-0.3-0.3-0.6C57,49.1,56.9,49,56.6,48.7z
			M41.4,64.3c0.3-0.5,0.8-0.8,1.4-1c1.5-0.8,3.1-1.5,4.8-2.1c0.1-0.1,0.3,0,0.3,0.1l0.3,0.5l-0.5,0.3c-0.3,0.2-0.7,0.3-1,0.3
			c-0.6,0-1,0.1-1.5,0.3c-0.6,0.1-0.9,0.6-1,1.1c-0.1,0.2-0.2,0.5-0.5,0.7c-0.6,0.3-1.1,0.7-1.7,0.9l-1.4-0.1L41.4,64.3z M45.1,65.6
			h-0.2v-0.1c-0.1,0.1-0.3,0.1-0.5,0.1L43,65.4l1.5-0.7l0.3,0.7l0.2-0.1l-0.2-0.7c-0.1-0.5,0.1-1,0.5-1.3c0.5-0.3,0.9-0.5,1.5-0.5
			c0.2,0,0.2,0.5,0,1.1c-0.5,0.6-1.1,1-1.8,1.3L45.1,65.6z M38.9,71.1l-0.2-0.7l-1.1,1.5l-0.9,0.6c-0.3,0.3-0.8,0.5-1.3,0.5l-1.5-0.7
			l0.8-0.3l0.2,0.1c-0.1,0.5,0,0.3,0.5-0.1l1.4-1.3c0-1-0.1-2.1-0.6-3c-0.2-0.8-0.6-1.6-1-2.3c0-0.2-0.7-0.3-1.9-0.1
			c0.8-0.3,1.7-0.5,2.6-0.1l1,0.5l0.6-0.2l-0.1-0.1l-0.9-0.5h0.5l0.5,0.5h0.1l0,0l0.3,0.2c1,0.9,1.8,1.9,2.4,3.2
			c0.2,0.6,0.2,1.1,0.1,1.6C39.5,71,39.2,71.4,38.9,71.1L38.9,71.1z M49,77.2l0.5,0.1l-0.1,0.2l-1.1,0.3c-0.5,0.5-1,0.7-1.7,0.8
			l-0.7-0.1l-0.1-0.5c0.1-0.2,0.3-0.5,0.7-0.6c0.3-0.1,0.7-0.2,1-0.3l1,0.2L49,77.2z M47.5,76.9c-0.8,0-1.3,0.5-1.5,0.5h-0.6
			c-0.6-0.7-1.3-1.3-1.9-1.8l-1.9-1.7c0.8-0.1,1.6,0,2.4,0.2L47.5,76.9z M53.5,68.2c0.6,0.1,1.3,0,1.8-0.1c1.7-1,3.3-2.2,4.7-3.4
			c1.8-1.4,3.8-2.6,5.8-3.7c0.5-0.2,0.5-0.5,0.1-0.6c-0.7-0.1-1.3-0.2-1.9-0.2c-0.2,0.2-0.2,0.5,0.1,0.6c0.2,0,0.6,0,0.8,0.1
			c-1.7,0.8-3.2,1.8-4.8,3c0.1-1.1,0.2-2.2,0.3-3.3c0-0.5-0.2-0.9-0.5-1.4c-0.2-0.2,0-0.6,0.8-0.8l0.6-0.1v0.9l-0.9-0.3l0.1,0.5
			c0.2,0.3,0.6,0.6,0.9,0.7l2.3,0.1h1c1.1,0,1.7,0.3,1.7,0.9c0,0.6,0,1,0.1,1.6c0.2,1.3,0.7,2.4,1.5,3.4c-0.2,0.7-0.7,1.3-1.1,1.8
			l-2.2,1.5c-1.9,1.4-4.5,3.1-7.8,5.3c-2.7,0-5.6-0.1-8.3-0.6c-2.7-0.3-5.5-1-8.1-1.8l-0.6-0.2l0.3-0.3c0.3-0.3,0.6-0.8,0.8-1.3
			c0-0.5-0.1-1-0.2-1.5c-0.2-1-0.8-1.9-1.6-2.6V66l0.7-0.1c1.6,0.1,3.2,0.3,4.7,0.7c1.4,0.3,3,0.7,4.9,0.9
			C51.4,67.8,52.7,68,53.5,68.2L53.5,68.2z M50.3,67c-0.7-0.1-1.9-0.3-3.5-0.7l1.5-0.5c0.8,0.1,1.3,0,1.4-0.5C49.8,66,50,66.6,50.3,67
			L50.3,67z M59.1,54.5c-0.6,0.5-0.8,1.3-0.6,1.9c-0.9,0.5-1.6,1.1-2.3,1.8c-0.6,0.7-1.1,1.4-1.7,2.1c-0.2,0.5-0.7,0.8-1.3,1
			c-0.6,0.2-1.3,0.1-1.6-0.3l-0.1,1l-2.9,1.7l-1.4,0.6c0.1-0.5,0.2-0.9,0.2-1.5l0.5-0.5c1.9-1,3.1-1.9,3.4-2.7
			c0.3-0.7,0.8-1.3,1.3-1.7c0.5-0.5,0.8-1,1-1.7v-1l-0.1-0.9c0.5,0.5,0.9,0.6,1.3,0.3c0.6-1,1.3-2.1,1.9-3.1c0.7-0.9,1.4-1.8,2.2-2.6
			s1.4-1.5,1.9-2.1v1c-1.1,1.4-2.2,2.7-3.2,4.2c-1.1,1.6-2.2,3.3-3,5.1c-0.3,0.7-0.8,1.3-1.4,1.7c-0.3,0.2-0.7,0.5-1,0.7
			c-0.2,0.3-0.1,0.5,0.3,0.3c0.2-0.2,0.6-0.5,0.9-0.7c0.6-0.3,1.9-1.8,4-4.5v-1.5l0.5-0.8c0,0.8,0,1.3,0.2,1.4s0.5-0.1,0.7-0.7
			c0.3-0.6,1-2.1,2.2-4.6c-0.2,0.7-0.2,1.4,0,1.9c-0.7,0.5-0.9,1.3-0.6,2.5L59.1,54.5z M68.7,45.1c-0.1,0.7-0.3,1.3-0.7,1.8
			c-1.1,1.4-1.6,2.2-1.5,2.4c0.3,0.6,0.2,1.3-0.1,1.8c-0.8,0.9-1.6,1.7-2.4,2.5c0.2,0.6,0.1,1-0.7,1.5c-0.9,0.5-1.8,0.9-2.7,1.1
			c1.6-1,2.7-2.6,3.4-4.5c0.5-0.5,1-0.8,1.6-1c0.3-0.2,0.5-0.3,0.2-0.3c-0.6,0.2-1.1,0.6-1.6,0.9c0.6-1.1,0.9-2.3,1.1-3.4
			c0.8-0.7,1.5-1.6,2.1-2.5c0.3-0.6,0.5-0.7,0-0.3c-0.6,0.8-1.1,1.6-1.9,2.3c0.5-1.4,0.8-2.7,1-4.1c0.1-0.9,0.1-1-0.1-0.5L66,44.3
			c-0.1-0.5-0.3-0.9-0.7-1.4l0.6,1.8c-0.2,1-0.5,2.1-0.8,3c-0.3-1.1-0.9-2.2-1.6-3.1c-0.6-0.7-0.7-0.8-0.3,0c0.7,1.1,1.3,2.4,1.6,3.7
			c-0.2,1.1-0.7,2.3-1.1,3.4c-0.2-0.5-0.6-0.8-1-1c-0.2-0.1-0.2,0,0,0.2c0.3,0.3,0.7,0.7,0.9,1.1c-0.3,0.8-0.8,1.5-1.4,2.2
			c-0.5,0.6-1,1.1-1.6,1.6c0.7-1,0.9-2.3,0.7-3.4c0-0.2,0.2-0.5,0.6-0.6c0.3-0.1,0.5-0.3,0.3-0.5c-0.2-0.5-0.5-0.9-0.5-1.5
			c0.3-0.1,0.7-0.1,1,0c0.3-0.2,0.3-0.6-0.1-1c-0.6-0.9-0.9-1.6-0.9-2.3c0-0.5,0.3-0.7,1-0.6c0.3,0,0.3-0.3,0.1-1.1l-0.7-1
			c-0.5-1.1-0.3-1.5,0.7-1.3l1.1,0.7c0.7,0.2,1.1-0.2,1-1.5c0-0.2,0.2-0.3,0.7-0.2c0.5,0.1,0.8-0.2,1.3-1c0.3-0.3,0.7,0,0.8,1.1
			c-0.1,1.5,0.2,2.2,1.1,2.2C68.7,44,68.8,44.4,68.7,45.1L68.7,45.1z M70,41.4c0,0.2,0,0.5-0.2,0.7c-0.2,0.2-0.6,0.5-1,0.5l-0.5-0.8
			c0-0.7-0.2-1.4-0.7-1.9c0.2-0.2,0.6-0.3,0.9-0.6c0.3-0.1,0.2,0-0.1,0.1c-0.5,0.1-0.8,0.6-1,0.6h-0.1c0.2-1,0.7-1.9,1.3-2.7
			c0.1-0.3,0-0.5-0.2,0c-0.5,0.7-0.9,1.4-1.3,2.1c-0.2-0.2-0.3-0.6-0.3-0.9c-0.1-0.6-0.2-0.6-0.2,0c0,0.5,0.1,0.9,0.3,1.4
			c-0.6,0.9-1.1,1.4-1.5,1.1c0.2-1.4,0.6-2.7,0.9-4.2c0.7-0.7,1.3-0.9,1.7-0.7c0.7-0.6,1.3-0.7,1.7-0.3c0.2,0.3,0.3,0.8,0.3,1.3
			s-0.2,0.9-0.5,1.4c0.6,0,0.8,0.2,0.8,0.7c-0.1,0.8-0.7,1.6-1.4,2.1C69.6,41,69.9,41.2,70,41.4L70,41.4z"/>
		<path class="st0" d="M10.6,68.5c0,0.1,0.1,0.1,0.2,0.2c0.3,0.2,0.8,0.1,1-0.3c0.2-0.2,0.3-0.7,0-1c0-0.1-0.1-0.1-0.2-0.1
			c-0.2-0.2-0.2-0.2-0.3,0.1L10.6,68.5L10.6,68.5z M5,64.7c0.5,0.3,0.8,0.6,1.4-0.1c0.2-0.3,0.2-0.8,0-1l0,0c-0.1-0.1-0.2-0.1-0.3-0.2
			c-0.1,0-0.1,0.1-0.2,0.1L5,64.7L5,64.7z M13.1,68.7c0.1-0.3,0.1-0.7-0.1-0.9l0.1-0.1c0.2,0.1,0.5,0.2,0.6,0.3
			c0.2,0.1,0.5,0.2,0.7,0.3l-0.1,0.1c-0.1-0.1-0.3-0.1-0.5,0s-0.3,1.1-0.5,1.5L13,71.6l1.3-1c0.3-0.3,0.7-0.7,1-1.1
			c0.2-0.3,0-0.3-0.1-0.5v-0.2c0.2,0.2,0.3,0.2,0.5,0.3c0.2,0.1,0.3,0.1,0.5,0.2v0.1c-0.3-0.2-0.8,0.2-1.1,0.6l-2.4,2.3l-0.2-0.1
			L13.1,68.7L13.1,68.7z M10,69.3c-0.1,0.2-0.2,0.5-0.3,0.8c-0.1,0.2,0.1,0.3,0.3,0.5l-0.1,0.1c-0.2-0.1-0.5-0.3-0.7-0.5
			C9,70.1,8.9,70,8.7,69.9v-0.2c0.2,0.1,0.3,0.2,0.5,0.1c0.2-0.2,0.5-0.5,0.6-0.7l0.9-1.5c0.1-0.2,0.2-0.5,0.5-0.7
			c0.1-0.3-0.1-0.3-0.3-0.5l0.1-0.1c0.2,0.2,0.5,0.2,0.7,0.5c0.2,0.1,0.3,0.2,0.6,0.3c0.5,0.2,0.8,0.8,0.6,1.3c0,0.1-0.1,0.1-0.1,0.2
			c-0.3,0.6-0.9,0.7-1.5,0.5C11,69.1,11,69,10.8,69s-0.3-0.2-0.3-0.2L10,69.3L10,69.3z M7.9,65.9c0.1-0.2,0.2-0.5,0.5-0.7
			c0.1-0.3-0.1-0.3-0.3-0.5l0.2-0.1l2.1,1.4l-0.6,0.8l-0.1-0.1c0.3-0.6,0.1-0.8-0.3-1.1l-0.3-0.2c-0.1-0.1-0.1-0.1-0.2,0.1L8,66.8
			c0.6,0.5,0.9,0.1,1.1-0.1h0.1C9,67,8.9,67.1,8.8,67.4S8.6,67.8,8.3,68l-0.1-0.1c0.3-0.6,0.1-0.8-0.3-1l-0.6,0.9
			c-0.1,0.2-0.2,0.3-0.2,0.6s0.2,0.5,0.5,0.6c0.5,0.2,0.8,0.3,1.3-0.1h0.1l-0.6,0.8L5.9,68l0.1-0.1C6.2,68,6.4,68,6.5,68
			c0-0.1,0.3-0.6,0.5-0.7L7.9,65.9L7.9,65.9z M5.6,67.2c0,0.3,0,0.3,0.2,0.6l-0.1,0.1c-0.1-0.1-0.2-0.2-0.3-0.2S5,67.6,5,67.6l0.1-0.5
			v-1.5c0-0.3,0-0.3-0.2-0.5l-0.5,0.6C4.3,66,4.1,66.3,4,66.6c0,0.2,0.1,0.2,0.3,0.3L4.2,67c-0.2-0.1-0.3-0.2-0.6-0.3
			C3.4,66.2,3.2,66.1,3,66l0.1-0.1C3.3,66,3.4,66.1,3.5,66c0.2-0.2,0.5-0.5,0.6-0.7l1-1.5c0.1-0.2,0.3-0.5,0.5-0.7
			c0-0.2-0.2-0.3-0.3-0.3v-0.2c0.2,0.2,0.5,0.3,0.8,0.6c0.2,0.1,0.3,0.2,0.5,0.3C7,63.8,7.4,64.3,7,65c-0.2,0.5-0.9,0.7-1.4,0.5
			c0,0,0,0-0.1,0L5.6,67.2L5.6,67.2z M33.1,68.5L32.3,67l-0.2,1.6L33.1,68.5L33.1,68.5z M20.8,71.2c0.1,0.2,0.1,0.5,0.2,0.7
			s0.3,0.2,0.5,0.2c0.3-0.1,0.6-0.6,0.5-0.9l0,0c0-0.3-0.1-0.6-0.5-0.7c-0.2,0-0.5,0-0.7,0h-0.2L20.8,71.2L20.8,71.2z M20.7,70.2
			L20.7,70.2c0.2-0.1,0.5-0.1,0.6-0.2c0.1-0.2,0.2-0.5,0.1-0.8c-0.1-0.5-0.3-0.7-0.7-0.7c-0.1,0.1-0.2,0.1-0.3,0.1v0.2L20.7,70.2
			L20.7,70.2z M17.7,71.7c0,0.2,0.1,0.5,0.2,0.8c0.1,0.2,0.3,0.2,0.5,0.1c0.5,0,0.7-0.3,0.6-0.9c-0.1-0.2-0.2-0.6-0.5-0.7
			c-0.2-0.1-0.5-0.1-0.8,0h-0.1L17.7,71.7L17.7,71.7z M17.5,70.7l0.2-0.1c0.2,0,0.3,0,0.5-0.2c0.1-0.2,0.2-0.5,0.1-0.7
			c-0.1-0.5-0.3-0.7-0.8-0.7c-0.1,0-0.2,0-0.2,0.1v0.2L17.5,70.7L17.5,70.7z M31.9,69.1c0,0.2-0.1,0.8-0.1,0.9c0,0.2,0.3,0.2,0.5,0.2
			v0.2c-0.2,0-0.3,0-0.6,0c-0.2,0.1-0.3,0.1-0.6,0.1v-0.1c0.2,0,0.5-0.2,0.5-0.5c0.1-0.5,0.1-0.8,0.1-1.3l0.5-2.5h0.2l1.5,2.9
			c0.1,0.2,0.3,0.5,0.3,0.7c0.1,0.1,0.3,0.1,0.5,0.1v0.2c-0.2,0-0.5,0-0.7,0.1c-0.2,0-0.6,0.1-0.8,0.1v-0.1c0.1-0.1,0.3-0.1,0.2-0.3
			c0-0.1-0.1-0.2-0.1-0.3l-0.1-0.9l-1.3,0.2V69.1L31.9,69.1z M30.1,66.7L30.1,66.7l0.3,1.3h-0.1c-0.2-0.7-0.7-1.1-1.3-1
			c-0.9,0.1-1,1.3-0.9,2.2c0.2,0.9,0.6,1.8,1.6,1.7c0.7-0.2,0.8-0.8,0.8-1.5l0.1-0.1l0.2,1.4l-0.2-0.2c-0.2,0.3-0.6,0.6-1,0.6
			c-1,0.1-1.9-0.6-2.1-1.5c0-0.1,0-0.1,0-0.2c-0.1-1.3,0.5-2.3,1.5-2.4c0.3-0.1,0.8,0,1.1,0.1L30.1,66.7L30.1,66.7z M26.3,68.5
			c0-0.2-0.1-0.6-0.1-0.8c-0.1-0.1-0.3-0.2-0.5-0.2l-0.1-0.1c0.2-0.1,0.5-0.1,0.8-0.1c0.2,0,0.6-0.1,0.8-0.1v0.2
			c-0.1,0-0.3,0.1-0.3,0.3c0,0.2,0,0.5,0.1,0.8l0.2,1.8c0,0.2,0.1,0.5,0.2,0.7c0.1,0.2,0.3,0.2,0.5,0.2v0.2h-0.8
			c-0.2,0.1-0.5,0.1-0.8,0.1v-0.1c0.2,0,0.3,0,0.3-0.3c0.1-0.2,0-0.6,0-0.8L26.3,68.5L26.3,68.5z M23.1,69.1c0-0.2-0.1-0.7-0.1-0.8
			c-0.1-0.1-0.3-0.2-0.5-0.1l0,0l-0.1-0.2c0.2,0,0.5,0,0.8-0.1c0.2,0,0.5,0,0.8-0.1l0.1,0.2c-0.2,0-0.3,0-0.5,0.2
			c0,0.2,0.1,0.7,0.1,0.8l0.2,1.7c0.1,0.8,0.3,0.9,0.9,0.8c0.2-0.1,0.5-0.1,0.7-0.3c0.1-0.2,0.2-0.5,0.1-0.8l0.2-0.1l0.1,1.1h-0.2
			c-0.8,0.1-1.8,0.3-2.6,0.5v0.1c0.2-0.1,0.3-0.1,0.3-0.3s0-0.6,0-0.8L23.1,69.1L23.1,69.1z M20,69.6c0-0.2-0.1-0.6-0.2-0.8
			c-0.1-0.2-0.2-0.2-0.5-0.1v-0.1c0.2-0.1,0.5-0.1,0.8-0.1c0.2,0,0.3-0.1,0.6-0.1c0.6-0.1,1.3,0,1.4,0.7c0.1,0.6-0.2,0.8-0.7,1
			c0.2,0,0.6,0,0.8,0.1c0.2,0.2,0.5,0.5,0.6,0.7c0.1,0.6-0.3,1.1-1,1.3c-0.1,0-0.2,0-0.2,0c-0.1,0.1-0.3,0.1-0.6,0.1
			c-0.3,0-0.6,0.1-0.8,0.2v-0.2c0.1,0,0.3,0,0.3-0.3c0-0.2-0.1-0.6-0.1-0.8L20,69.6L20,69.6z M16.9,70.2c0-0.2-0.1-0.7-0.1-0.8
			c-0.1-0.2-0.3-0.2-0.5-0.1v-0.2c0.2,0,0.5,0,0.7-0.1c0.2,0,0.5,0,0.7-0.1c0.6-0.2,1.1,0.1,1.3,0.6c0,0.1,0,0.1,0,0.2
			c0.1,0.5-0.1,0.9-0.6,1c0.2,0,0.5,0,0.8,0.1c0.3,0.1,0.5,0.5,0.5,0.8c0.1,0.3-0.1,0.7-0.3,0.9c-0.2,0.2-0.6,0.3-0.8,0.3
			c-0.2,0-0.5,0-0.7,0.1c-0.3,0-0.6,0.1-0.9,0.1V73c0.2-0.1,0.3-0.1,0.5-0.3c0-0.2-0.1-0.7-0.1-0.8L16.9,70.2L16.9,70.2z M48.7,70.7
			L48.5,69l-0.8,1.5L48.7,70.7L48.7,70.7z M55.1,70.2c0-0.2-0.1-0.7-0.1-0.8c-0.1-0.3-0.3-0.2-0.5-0.2V69h0.8c0.2,0,0.5-0.1,0.8-0.1
			v0.2c-0.2,0-0.3,0-0.5,0.2v0.9l0.2,1.7c0,0.3,0,0.6,0.1,0.9c0.1,0.2,0.2,0.2,0.5,0.2l0,0h-0.8c-0.2,0.1-0.5,0.1-0.8,0.1v-0.1
			c0.1,0,0.3,0,0.3-0.2c0-0.2,0-0.5,0-0.8L55.1,70.2L55.1,70.2z M51.4,69.9c0-0.2,0.1-0.7,0.1-0.9c-0.1-0.2-0.2-0.3-0.5-0.3l0.1-0.1
			c0.2,0,0.5,0.1,0.7,0.1c0.2,0.1,0.6,0.1,0.8,0.1l-0.1,0.3c-0.1,0-0.3-0.1-0.5,0.1c-0.1,0.2-0.1,0.7-0.2,0.9l-0.2,1.8
			c-0.1,0.8,0,0.9,0.6,1c0.3,0,0.6,0.1,0.8,0c0.3-0.2,0.3-0.3,0.5-0.8h0.2l-0.2,1.1c0-0.1-0.2-0.1-0.2-0.1c-0.9-0.2-1.8-0.3-2.7-0.5
			v-0.1c0.2,0,0.5,0,0.6-0.2c0-0.2,0.1-0.6,0.2-0.8L51.4,69.9L51.4,69.9z M47.4,70.9c-0.1,0.2-0.2,0.7-0.3,0.9c0,0.2,0.2,0.2,0.3,0.3
			v0.1c-0.2,0-0.3-0.1-0.6-0.1S46.5,72,46.2,72l0.1-0.1c0.2,0,0.3-0.1,0.6-0.3c0.2-0.3,0.3-0.8,0.6-1.1l1.1-2.3l0.2,0.1l0.6,3.2
			c0.1,0.2,0.1,0.6,0.2,0.8c0.1,0.2,0.2,0.2,0.3,0.3v0.1c-0.2,0-0.5-0.1-0.8-0.1c-0.2-0.1-0.5-0.1-0.8-0.1l0.1-0.2
			c0.1,0,0.3,0.1,0.3-0.1v-0.6l-0.1-0.7l-1.4-0.2L47.4,70.9L47.4,70.9z M47,69L47,69c0-0.7-0.2-0.9-0.7-0.9c-0.2,0-0.6-0.1-0.6,0.1
			l-0.5,3c0,0.5,0,0.6,0.5,0.8V72c-0.3,0-0.6-0.1-0.8-0.2c-0.3,0-0.6,0-0.9-0.1v-0.1c0.6,0,0.7-0.1,0.8-0.6l0.3-3
			c0.1-0.1-0.2-0.2-0.3-0.2c-0.6-0.1-0.8-0.1-0.8,0.7l-0.2-0.1l0.2-0.9l3.2,0.6L47,69L47,69z M42.2,68.3c0-0.2,0-0.5,0-0.8
			c0-0.2-0.2-0.3-0.3-0.3v-0.2c0.2,0.1,0.5,0.1,0.8,0.2c0.3,0,0.6,0.1,0.8,0.1l-0.1,0.1c-0.1,0-0.3,0-0.5,0.2s-0.1,0.6-0.2,0.8
			l-0.2,1.8c-0.1,0.2-0.1,0.5-0.1,0.8c0,0.2,0.2,0.2,0.3,0.2v0.2c-0.2-0.1-0.5-0.1-0.8-0.2c-0.2,0-0.6,0-0.8-0.1V71
			c0.2,0,0.3,0,0.5-0.2s0.2-0.5,0.2-0.8L42.2,68.3L42.2,68.3z M65.2,65.4l-1.4-0.9l0.6,1.6L65.2,65.4L65.2,65.4z M58.8,70l-1.3-1.1
			l0.3,1.6L58.8,70L58.8,70z M64.4,66.4c0,0.3,0.1,0.7,0.3,0.9c0.2,0.2,0.3,0,0.5-0.1l0.1,0.2c-0.1,0.1-0.3,0.2-0.5,0.3
			c-0.1,0.1-0.3,0.2-0.3,0.3l-0.1-0.2c0.2-0.2,0.2-0.2,0.2-0.6c-0.1-0.5-0.2-0.8-0.3-1.3l-0.8-2.5l0.1-0.1l2.7,1.9
			c0.1,0.1,0.3,0.3,0.6,0.3c0.2,0.1,0.5,0,0.6-0.1v0.2c-0.2,0.1-0.5,0.2-0.6,0.3c-0.2,0.2-0.3,0.3-0.6,0.5l-0.1-0.1
			c0.1-0.1,0.2-0.3,0.2-0.5c-0.1-0.1-0.2-0.2-0.3-0.2l-0.6-0.3L64.4,66.4L64.4,66.4L64.4,66.4z M59.6,67.1c-0.2-0.1-0.5-0.1-0.7,0.1
			L58.8,67c0.2-0.1,0.2-0.1,0.3-0.2c0.1,0,0.2-0.1,0.3-0.2l3.7,1.3l-1-1.5c-0.2-0.2-0.3-0.6-0.6-0.8c-0.2-0.2-0.3-0.1-0.7,0l-0.1-0.1
			c0.2-0.1,0.3-0.2,0.6-0.3c0.1-0.2,0.2-0.3,0.3-0.3l0.1,0.1c-0.1,0.2-0.3,0.2-0.2,0.5s0.5,0.7,0.7,0.9l1.5,2.1l0.2,0.3
			c-0.2,0-0.3-0.1-0.6-0.2l-3.4-1.1l1.3,1.7c0.1,0.2,0.3,0.5,0.6,0.7c0.2,0.1,0.3,0,0.6-0.1v0.1c-0.1,0.2-0.2,0.3-0.5,0.3
			c-0.2,0.1-0.3,0.2-0.5,0.3l-0.1-0.1c0.2-0.2,0.2-0.3,0.2-0.6c-0.1-0.2-0.3-0.5-0.5-0.7L59.6,67.1L59.6,67.1z M57.9,71
			c0,0.3,0.1,0.7,0.2,0.9c0.1,0.2,0.3,0.1,0.5,0l0.1,0.1c-0.2,0.1-0.2,0.2-0.5,0.3c-0.1,0.1-0.3,0.1-0.5,0.2l-0.1-0.1
			c0.2-0.1,0.3-0.5,0.2-0.7c0-0.5-0.1-0.8-0.2-1.3L57.1,68h0.2l2.5,2.2c0.1,0.2,0.3,0.3,0.6,0.5c0.2,0.1,0.3,0,0.5,0l0.1,0.1
			c-0.2,0.1-0.5,0.2-0.7,0.3c-0.2,0.1-0.5,0.2-0.7,0.3l-0.1-0.2c0.2,0,0.3-0.2,0.2-0.3c-0.1-0.1-0.2-0.3-0.3-0.3l-0.5-0.3l-1.1,0.6
			L57.9,71L57.9,71z"/>
		<path class="st0" d="M9.4,43.8c-0.2-0.8-0.6-1.7-0.7-1.9v-0.2l2.2-1.3c-0.2-1-0.3-2.1-0.5-3.1L8,36.9v-0.2c0-0.6,0-2.7,0-3.2v-0.2
			l2.5-0.5c0.1-1,0.2-2.1,0.5-3.1L9.7,29l0.8-0.1l0.9,0.6v0.2c-0.2,1.1-0.5,2.2-0.6,3.3v0.2l-2.4,0.5c0,0.7,0,2.2,0,2.9l2.4,0.5v0.2
			c0.1,1.1,0.2,2.3,0.6,3.3v0.2L9.2,42c0.1,0.3,0.2,0.9,0.5,1.4L9.4,43.8z M57.1,50.2c-0.5,0.7-1.3,1.7-1.5,1.9l-0.1,0.1l-2.3-1
			c-0.7,0.8-1.4,1.5-2.2,2.2l1,2.3l-0.1,0.1c-0.5,0.3-2.2,1.6-2.6,1.9l-0.1,0.1l-1.8-1.7c-0.9,0.6-1.8,1-2.7,1.4l0.2,2.5l-0.2,0.1
			c-0.5,0.2-2.5,0.8-3.1,1h-0.2L40.1,59c-1,0.2-2.1,0.3-3.1,0.5l-0.5,2.4h-0.2c-0.3,0-1,0-1.6,0s-1.3,0-1.6,0h-0.2l-0.5-2.5
			c-1-0.1-2.1-0.2-3.1-0.5l-1.3,2.2h-0.2c-0.5-0.1-2.5-0.8-3.1-1l-0.2-0.1l0.2-2.5c-0.9-0.5-1.8-0.9-2.7-1.4l-1.5,1.8l-0.1-0.1
			c-0.5-0.3-2.2-1.6-2.6-1.9l-0.1-0.1l1-2.3c-0.8-0.7-1.5-1.4-2.2-2.2l-2.3,1l-0.1-0.1c-0.1-0.1-0.3-0.5-0.6-0.8l0.3-0.5
			c0.2,0.3,0.5,0.6,0.6,0.8l2.3-1l0.1,0.1c0.8,0.8,1.6,1.6,2.4,2.4l0.1,0.1l-1,2.3c0.5,0.3,1.7,1.3,2.3,1.6l1.8-1.7l0.1,0.1
			c1,0.6,1.9,1.1,3.1,1.5l0.1,0.1l-0.2,2.5c0.6,0.2,2.1,0.7,2.6,0.9l1.3-2.2h0.2c1.1,0.2,2.3,0.5,3.3,0.6h0.2l0.5,2.4
			c0.3,0,0.8,0,1.4,0c0.6,0,1.1,0,1.4,0l0.5-2.4h0.2c1.1-0.1,2.3-0.2,3.3-0.6h0.2l1.3,2.2c0.7-0.2,2.1-0.7,2.6-0.9l-0.2-2.5l0.1-0.1
			c1-0.5,2.1-0.9,3-1.6l0.1-0.1l1.8,1.7c0.6-0.3,1.7-1.3,2.3-1.6l-1-2.3l0.1-0.1c0.9-0.7,1.7-1.6,2.4-2.4l0.1-0.1l2.3,1
			c0.3-0.3,0.9-1.3,1.4-1.8 M60,43c0.1-0.2,0.2-0.9,0.3-1l-1.8-1l0.3-0.5l2.1,1.1v0.2c0,0.1-0.2,1-0.3,1.4L60,43z M59.5,29.5l-0.7,0.2
			c0.2,1,0.3,2.1,0.5,3.1l2.4,0.5v0.2c0,0.6,0,2.7,0,3.2v0.2l-2.7,0.6L58.8,37l2.4-0.5c0-0.7,0-2.2,0-2.7l-2.4-0.5v-0.2
			c-0.1-1.1-0.2-2.3-0.6-3.3v-0.2l1.1-0.6 M54,19.1l-0.8,0.3l-0.1-0.1c-0.8-0.9-1.6-1.7-2.4-2.4l-0.1-0.1l1-2.3
			c-0.5-0.3-1.7-1.3-2.3-1.6l-1.8,1.7l-0.1-0.1c-1-0.6-1.9-1.1-3.1-1.5l-0.1-0.1l0.2-2.5c-0.6-0.2-2.1-0.7-2.6-0.9l-1.3,2.2h-0.2
			c-1.1-0.2-2.2-0.5-3.3-0.6h-0.2l-0.5-2.4c-0.3,0-0.8,0-1.4,0s-1.1,0-1.4,0l-0.5,2.4h-0.2c-1.1,0.1-2.3,0.2-3.3,0.6h-0.2l-1.3-2.2
			c-0.6,0.2-2.1,0.7-2.6,0.9l0.2,2.5L25.6,13c-1,0.5-2.1,0.9-3,1.5l-0.1,0.1l-1.8-1.7c-0.2,0.2-0.7,0.5-1.1,0.8l0.1-0.7
			c0.3-0.2,0.7-0.6,0.9-0.7l0.1-0.1l1.8,1.7c0.9-0.6,1.8-1,2.7-1.4L25,10l0.1-0.1c0.5-0.2,2.5-0.9,3.1-1h0.2l1.3,2.2
			c1-0.2,2.1-0.3,3.1-0.5l0.5-2.4h0.2l0,0h0.1l0,0l0,0h0.2c0.3,0,0.8,0,1.1,0c0.6,0,1.4,0,1.6,0h0.2l0.5,2.4c1,0.1,2.1,0.2,3.1,0.5
			l1.3-2.2h0.2c0.6,0.1,2.6,0.8,3.1,1L45,10l-0.5,2.5c0.9,0.5,1.8,0.9,2.7,1.4l1.8-1.7l0.1,0.1c0.5,0.3,2.2,1.6,2.6,1.9l0.1,0.1
			l-1,2.3c0.8,0.7,1.5,1.4,2.2,2.2l0.7-0.3L54,19.1z"/>
		<path class="st0" d="M34.8,54.9c-2.9,0-5.7-0.6-8.2-1.8L26.3,53l8.7-10.8l8.4,11L43,53.2C40.4,54.2,37.7,54.9,34.8,54.9z M27.2,52.6
			c2.4,1,5,1.6,7.6,1.6s5.1-0.6,7.5-1.5L34.8,43L27.2,52.6z M53.9,40.3c-0.8,3.1-2.4,5.8-4.6,8.2l-0.2,0.3l-7.6-11.5l13-4.7V33
			c0.2,1.9,0.1,3.9-0.2,5.7l-0.6-0.2c0.3-1.7,0.3-3.4,0.2-5.1l-11.6,4.1l6.8,10.3c2.1-2.4,3.5-5.3,4.3-8.2L53.9,40.3z M16.8,41.4
			c0.8,2.3,2.1,4.5,3.7,6.3l7-10.2l-11.5-4.3c-0.1,1.1-0.1,2.3,0,3.4l-0.6-0.1c-0.1-1.3-0.1-2.5,0.1-3.7v-0.3l13,4.8l-7.9,11.4
			l-0.2-0.3c-1.6-1.7-2.9-3.8-3.7-5.8L16.8,41.4z M38.9,29.5l-0.3-13.8l0.3,0.1c5.6,1.1,10.4,4.7,13.2,9.7l0.2,0.3L38.9,29.5z
			M39.2,16.4l0.3,12.3l11.9-3.4C48.7,20.9,44.3,17.6,39.2,16.4L39.2,16.4z M30.8,29.5l-13.2-3.9l0.2-0.3c2.9-4.9,7.6-8.4,13.4-9.6
			l0.3-0.1L30.8,29.5z M18.4,25.2l11.8,3.4l0.6-12.3C25.6,17.5,21.1,20.7,18.4,25.2L18.4,25.2z"/>
		<path class="st0" d="M34.8,17.1L30.6,29l-0.1,0.2h-0.2l-12.7,0.3l10,7.6l0.1,0.1v0.2l-3.7,12.1l10.4-7.2l0.1-0.1l0.1,0.1l10.4,7.2
			l-3.7-12.1v-0.2l0.1-0.1l10-7.6l-12.7-0.3h-0.2L38.6,29L34.8,17.1z M30.1,28.7l4.3-12.6l0.2-0.8l0.2,0.8l4.5,12.6L52.6,29h0.8
			l-0.7,0.5l-10.5,8.1l4,12.7l0.2,0.8l-0.7-0.5l-11-7.5L24,50.6L23.3,51l0.2-0.8l3.8-12.8l-10.5-8L16.1,29h0.8L30.1,28.7L30.1,28.7z"
			/>
		<path class="st0" d="M11.5,55.3L11.5,55.3L11.5,55.3z"/>
		<polygon class="st0" points="10.4,52.9 11.5,55.3 11.5,55.3 "/>
	</g>
</svg>
