<svg width="984" height="440" viewBox="0 0 984 440" fill="none" xmlns="http://www.w3.org/2000/svg">
<rect x="0.5" y="0.5" width="983" height="439" rx="6.72202" fill="white"/>
<rect x="0.5" y="0.5" width="983" height="439" rx="6.72202" stroke="#CBD5E1"/>
<g filter="url(#filter0_d_732_80201)">
<path d="M59 66C59 61.5817 62.5817 58 67 58H916C920.418 58 924 61.5817 924 66V298C924 302.418 920.418 306 916 306H67C62.5817 306 59 302.418 59 298V66Z" fill="white" shape-rendering="crispEdges"/>
<path d="M75.416 87.144V83.24H91.416V87.144H85.656V105H81.24V87.144H75.416ZM93.8278 105V89H98.1158V105H93.8278ZM93.8278 86.952V82.6H98.1158V86.952H93.8278ZM110.942 92.648H107.006V99.208C107.006 99.848 107.016 100.307 107.038 100.584C107.08 100.84 107.198 101.064 107.39 101.256C107.603 101.448 107.923 101.544 108.35 101.544L110.782 101.48L110.974 104.904C109.544 105.224 108.456 105.384 107.71 105.384C105.79 105.384 104.478 104.957 103.774 104.104C103.07 103.229 102.718 101.629 102.718 99.304V92.648H100.83V89H102.718V84.552H107.006V89H110.942V92.648ZM114.598 90.824C115.729 89.352 117.617 88.616 120.262 88.616C122.907 88.616 124.795 89.352 125.926 90.824C127.057 92.2747 127.622 94.3227 127.622 96.968C127.622 102.579 125.169 105.384 120.262 105.384C115.355 105.384 112.902 102.579 112.902 96.968C112.902 94.3227 113.467 92.2747 114.598 90.824ZM117.894 100.584C118.342 101.352 119.131 101.736 120.262 101.736C121.393 101.736 122.171 101.352 122.598 100.584C123.046 99.816 123.27 98.6107 123.27 96.968C123.27 95.3253 123.046 94.1307 122.598 93.384C122.171 92.6373 121.393 92.264 120.262 92.264C119.131 92.264 118.342 92.6373 117.894 93.384C117.467 94.1307 117.254 95.3253 117.254 96.968C117.254 98.6107 117.467 99.816 117.894 100.584ZM130.957 105V82.6H135.245V105H130.957ZM140.254 90.824C141.385 89.352 143.273 88.616 145.918 88.616C148.564 88.616 150.452 89.352 151.582 90.824C152.713 92.2747 153.278 94.3227 153.278 96.968C153.278 102.579 150.825 105.384 145.918 105.384C141.012 105.384 138.558 102.579 138.558 96.968C138.558 94.3227 139.124 92.2747 140.254 90.824ZM143.55 100.584C143.998 101.352 144.788 101.736 145.918 101.736C147.049 101.736 147.828 101.352 148.254 100.584C148.702 99.816 148.926 98.6107 148.926 96.968C148.926 95.3253 148.702 94.1307 148.254 93.384C147.828 92.6373 147.049 92.264 145.918 92.264C144.788 92.264 143.998 92.6373 143.55 93.384C143.124 94.1307 142.91 95.3253 142.91 96.968C142.91 98.6107 143.124 99.816 143.55 100.584ZM177.053 82.6V105H172.797V104.328C171.303 105.032 170.013 105.384 168.925 105.384C166.599 105.384 164.978 104.712 164.061 103.368C163.143 102.024 162.685 99.9013 162.685 97C162.685 94.0773 163.229 91.9547 164.317 90.632C165.426 89.288 167.09 88.616 169.309 88.616C169.991 88.616 170.941 88.7227 172.157 88.936L172.765 89.064V82.6H177.053ZM172.317 101.16L172.765 101.064V92.648C171.591 92.4347 170.546 92.328 169.629 92.328C167.901 92.328 167.037 93.864 167.037 96.936C167.037 98.6 167.229 99.784 167.613 100.488C167.997 101.192 168.626 101.544 169.501 101.544C170.397 101.544 171.335 101.416 172.317 101.16ZM184.535 98.824C184.557 99.8053 184.813 100.52 185.303 100.968C185.815 101.395 186.541 101.608 187.479 101.608C189.463 101.608 191.234 101.544 192.791 101.416L193.687 101.32L193.751 104.488C191.298 105.085 189.079 105.384 187.095 105.384C184.685 105.384 182.935 104.744 181.847 103.464C180.759 102.184 180.215 100.104 180.215 97.224C180.215 91.4853 182.573 88.616 187.287 88.616C191.938 88.616 194.263 91.0267 194.263 95.848L193.943 98.824H184.535ZM190.039 95.56C190.039 94.28 189.837 93.3947 189.431 92.904C189.026 92.392 188.311 92.136 187.287 92.136C186.285 92.136 185.57 92.4027 185.143 92.936C184.738 93.448 184.525 94.3227 184.503 95.56H190.039ZM197.52 105V82.6H201.808V105H197.52ZM206.145 105V82.6H210.433V105H206.145ZM226.834 93.992V100.648C226.876 101.16 226.962 101.523 227.09 101.736C227.218 101.928 227.484 102.067 227.89 102.152L227.762 105.384C226.674 105.384 225.799 105.309 225.138 105.16C224.498 105.011 223.847 104.712 223.186 104.264C221.65 105.011 220.082 105.384 218.482 105.384C215.175 105.384 213.522 103.635 213.522 100.136C213.522 98.4293 213.98 97.224 214.898 96.52C215.815 95.7947 217.223 95.368 219.122 95.24L222.546 94.984V93.992C222.546 93.3307 222.396 92.8827 222.098 92.648C221.799 92.392 221.319 92.264 220.658 92.264L214.642 92.52L214.514 89.544C216.796 88.9253 218.962 88.616 221.01 88.616C223.079 88.616 224.562 89.0427 225.458 89.896C226.375 90.7493 226.834 92.1147 226.834 93.992ZM219.634 98.216C218.439 98.3227 217.842 98.9627 217.842 100.136C217.842 101.309 218.364 101.896 219.41 101.896C220.22 101.896 221.106 101.768 222.066 101.512L222.546 101.384V97.96L219.634 98.216ZM243.937 88.616C245.046 88.616 246.465 88.7867 248.193 89.128L249.057 89.32L248.929 92.712C247.243 92.5413 245.995 92.456 245.185 92.456C243.713 92.456 242.731 92.776 242.241 93.416C241.771 94.0347 241.537 95.2187 241.537 96.968C241.537 98.7173 241.771 99.9227 242.241 100.584C242.731 101.224 243.723 101.544 245.217 101.544L248.929 101.288L249.057 104.712C246.774 105.16 245.035 105.384 243.841 105.384C241.473 105.384 239.766 104.723 238.721 103.4C237.697 102.056 237.185 99.912 237.185 96.968C237.185 94.024 237.718 91.9013 238.785 90.6C239.851 89.2773 241.569 88.616 243.937 88.616ZM264.49 93.992V100.648C264.533 101.16 264.618 101.523 264.746 101.736C264.874 101.928 265.141 102.067 265.546 102.152L265.418 105.384C264.33 105.384 263.455 105.309 262.794 105.16C262.154 105.011 261.503 104.712 260.842 104.264C259.306 105.011 257.738 105.384 256.138 105.384C252.831 105.384 251.178 103.635 251.178 100.136C251.178 98.4293 251.637 97.224 252.554 96.52C253.471 95.7947 254.879 95.368 256.778 95.24L260.202 94.984V93.992C260.202 93.3307 260.053 92.8827 259.754 92.648C259.455 92.392 258.975 92.264 258.314 92.264L252.298 92.52L252.17 89.544C254.453 88.9253 256.618 88.616 258.666 88.616C260.735 88.616 262.218 89.0427 263.114 89.896C264.031 90.7493 264.49 92.1147 264.49 93.992ZM257.29 98.216C256.095 98.3227 255.498 98.9627 255.498 100.136C255.498 101.309 256.021 101.896 257.066 101.896C257.877 101.896 258.762 101.768 259.722 101.512L260.202 101.384V97.96L257.29 98.216ZM268.578 105V89H272.834V90.696C274.626 89.6293 276.332 88.936 277.954 88.616V92.936C276.226 93.2987 274.743 93.672 273.506 94.056L272.866 94.28V105H268.578ZM294.084 82.6V105H289.828V104.328C288.335 105.032 287.044 105.384 285.956 105.384C283.631 105.384 282.009 104.712 281.092 103.368C280.175 102.024 279.716 99.9013 279.716 97C279.716 94.0773 280.26 91.9547 281.348 90.632C282.457 89.288 284.121 88.616 286.34 88.616C287.023 88.616 287.972 88.7227 289.188 88.936L289.796 89.064V82.6H294.084ZM289.348 101.16L289.796 101.064V92.648C288.623 92.4347 287.577 92.328 286.66 92.328C284.932 92.328 284.068 93.864 284.068 96.936C284.068 98.6 284.26 99.784 284.644 100.488C285.028 101.192 285.657 101.544 286.532 101.544C287.428 101.544 288.367 101.416 289.348 101.16Z" fill="#003366"/>
<path d="M83.26 140.06C81.6867 139.847 80.5467 139.74 79.84 139.74C79.1333 139.74 78.64 139.827 78.36 140C78.0933 140.16 77.96 140.42 77.96 140.78C77.96 141.14 78.1067 141.393 78.4 141.54C78.7067 141.687 79.4133 141.86 80.52 142.06C81.64 142.247 82.4333 142.547 82.9 142.96C83.3667 143.373 83.6 144.107 83.6 145.16C83.6 146.213 83.26 146.987 82.58 147.48C81.9133 147.973 80.9333 148.22 79.64 148.22C78.8267 148.22 77.8 148.107 76.56 147.88L75.94 147.78L76.02 145.96C77.62 146.173 78.7733 146.28 79.48 146.28C80.1867 146.28 80.6867 146.193 80.98 146.02C81.2867 145.847 81.44 145.56 81.44 145.16C81.44 144.76 81.2933 144.487 81 144.34C80.72 144.18 80.0333 144.013 78.94 143.84C77.86 143.653 77.0667 143.367 76.56 142.98C76.0533 142.593 75.8 141.887 75.8 140.86C75.8 139.833 76.1467 139.067 76.84 138.56C77.5467 138.053 78.4467 137.8 79.54 137.8C80.3933 137.8 81.44 137.907 82.68 138.12L83.3 138.24L83.26 140.06ZM86.235 139.08C86.9283 138.213 88.075 137.78 89.675 137.78C91.275 137.78 92.415 138.213 93.095 139.08C93.7883 139.947 94.135 141.247 94.135 142.98C94.135 144.713 93.8017 146.02 93.135 146.9C92.4683 147.78 91.315 148.22 89.675 148.22C88.035 148.22 86.8817 147.78 86.215 146.9C85.5483 146.02 85.215 144.713 85.215 142.98C85.215 141.247 85.555 139.947 86.235 139.08ZM87.875 145.58C88.1817 146.113 88.7817 146.38 89.675 146.38C90.5683 146.38 91.1683 146.113 91.475 145.58C91.7817 145.047 91.935 144.173 91.935 142.96C91.935 141.747 91.7683 140.887 91.435 140.38C91.115 139.873 90.5283 139.62 89.675 139.62C88.8217 139.62 88.2283 139.873 87.895 140.38C87.575 140.887 87.415 141.747 87.415 142.96C87.415 144.173 87.5683 145.047 87.875 145.58ZM101.68 139.86H98.9205V144.26C98.9205 145.073 98.9805 145.613 99.1005 145.88C99.2205 146.147 99.5271 146.28 100.02 146.28L101.66 146.22L101.76 147.96C100.867 148.133 100.187 148.22 99.7205 148.22C98.5871 148.22 97.8071 147.96 97.3805 147.44C96.9671 146.92 96.7605 145.94 96.7605 144.5V139.86H95.4805V138H96.7605V135.1H98.9205V138H101.68V139.86ZM108.848 139.86H106.088V144.26C106.088 145.073 106.148 145.613 106.268 145.88C106.388 146.147 106.695 146.28 107.188 146.28L108.828 146.22L108.928 147.96C108.035 148.133 107.355 148.22 106.888 148.22C105.755 148.22 104.975 147.96 104.548 147.44C104.135 146.92 103.928 145.94 103.928 144.5V139.86H102.648V138H103.928V135.1H106.088V138H108.848V139.86ZM111.176 139.08C111.87 138.213 113.016 137.78 114.616 137.78C116.216 137.78 117.356 138.213 118.036 139.08C118.73 139.947 119.076 141.247 119.076 142.98C119.076 144.713 118.743 146.02 118.076 146.9C117.41 147.78 116.256 148.22 114.616 148.22C112.976 148.22 111.823 147.78 111.156 146.9C110.49 146.02 110.156 144.713 110.156 142.98C110.156 141.247 110.496 139.947 111.176 139.08ZM112.816 145.58C113.123 146.113 113.723 146.38 114.616 146.38C115.51 146.38 116.11 146.113 116.416 145.58C116.723 145.047 116.876 144.173 116.876 142.96C116.876 141.747 116.71 140.887 116.376 140.38C116.056 139.873 115.47 139.62 114.616 139.62C113.763 139.62 113.17 139.873 112.836 140.38C112.516 140.887 112.356 141.747 112.356 142.96C112.356 144.173 112.51 145.047 112.816 145.58ZM126.622 139.86H123.862V144.26C123.862 145.073 123.922 145.613 124.042 145.88C124.162 146.147 124.469 146.28 124.962 146.28L126.602 146.22L126.702 147.96C125.809 148.133 125.129 148.22 124.662 148.22C123.529 148.22 122.749 147.96 122.322 147.44C121.909 146.92 121.702 145.94 121.702 144.5V139.86H120.422V138H121.702V135.1H123.862V138H126.622V139.86ZM128.41 148V138H130.59V148H128.41ZM128.41 136.3V134H130.59V136.3H128.41ZM138.614 139.86H135.854V144.26C135.854 145.073 135.914 145.613 136.034 145.88C136.154 146.147 136.461 146.28 136.954 146.28L138.594 146.22L138.694 147.96C137.801 148.133 137.121 148.22 136.654 148.22C135.521 148.22 134.741 147.96 134.314 147.44C133.901 146.92 133.694 145.94 133.694 144.5V139.86H132.414V138H133.694V135.1H135.854V138H138.614V139.86ZM140.942 139.08C141.635 138.213 142.782 137.78 144.382 137.78C145.982 137.78 147.122 138.213 147.802 139.08C148.495 139.947 148.842 141.247 148.842 142.98C148.842 144.713 148.509 146.02 147.842 146.9C147.175 147.78 146.022 148.22 144.382 148.22C142.742 148.22 141.589 147.78 140.922 146.9C140.255 146.02 139.922 144.713 139.922 142.98C139.922 141.247 140.262 139.947 140.942 139.08ZM142.582 145.58C142.889 146.113 143.489 146.38 144.382 146.38C145.275 146.38 145.875 146.113 146.182 145.58C146.489 145.047 146.642 144.173 146.642 142.96C146.642 141.747 146.475 140.887 146.142 140.38C145.822 139.873 145.235 139.62 144.382 139.62C143.529 139.62 142.935 139.873 142.602 140.38C142.282 140.887 142.122 141.747 142.122 142.96C142.122 144.173 142.275 145.047 142.582 145.58ZM151.128 148V133.84H153.308V148H151.128ZM156.606 139.08C157.299 138.213 158.446 137.78 160.046 137.78C161.646 137.78 162.786 138.213 163.466 139.08C164.159 139.947 164.506 141.247 164.506 142.98C164.506 144.713 164.173 146.02 163.506 146.9C162.839 147.78 161.686 148.22 160.046 148.22C158.406 148.22 157.253 147.78 156.586 146.9C155.919 146.02 155.586 144.713 155.586 142.98C155.586 141.247 155.926 139.947 156.606 139.08ZM158.246 145.58C158.553 146.113 159.153 146.38 160.046 146.38C160.939 146.38 161.539 146.113 161.846 145.58C162.153 145.047 162.306 144.173 162.306 142.96C162.306 141.747 162.139 140.887 161.806 140.38C161.486 139.873 160.899 139.62 160.046 139.62C159.193 139.62 158.599 139.873 158.266 140.38C157.946 140.887 157.786 141.747 157.786 142.96C157.786 144.173 157.939 145.047 158.246 145.58ZM179.226 133.84V148H177.066V147.48C176.093 147.973 175.199 148.22 174.386 148.22C173.079 148.22 172.119 147.827 171.506 147.04C170.906 146.253 170.606 144.933 170.606 143.08C170.606 141.227 170.939 139.88 171.606 139.04C172.286 138.2 173.339 137.78 174.766 137.78C175.246 137.78 176.006 137.867 177.046 138.04V133.84H179.226ZM176.706 145.92L177.046 145.78V139.86C176.246 139.727 175.506 139.66 174.826 139.66C173.479 139.66 172.806 140.78 172.806 143.02C172.806 144.247 172.959 145.1 173.266 145.58C173.586 146.047 174.086 146.28 174.766 146.28C175.446 146.28 176.093 146.16 176.706 145.92ZM188.987 146.2L189.547 146.14L189.587 147.76C188.067 148.067 186.72 148.22 185.547 148.22C184.067 148.22 183 147.813 182.347 147C181.707 146.187 181.387 144.887 181.387 143.1C181.387 139.553 182.834 137.78 185.727 137.78C188.527 137.78 189.927 139.307 189.927 142.36L189.787 143.92H183.587C183.6 144.747 183.78 145.353 184.127 145.74C184.474 146.127 185.12 146.32 186.067 146.32C187.014 146.32 187.987 146.28 188.987 146.2ZM187.787 142.24C187.787 141.253 187.627 140.567 187.307 140.18C187 139.78 186.474 139.58 185.727 139.58C184.98 139.58 184.434 139.787 184.087 140.2C183.754 140.613 183.58 141.293 183.567 142.24H187.787ZM192.143 148V133.84H194.323V148H192.143ZM197.202 148V133.84H199.382V148H197.202ZM209.54 141.08V145.64C209.554 145.933 209.627 146.153 209.76 146.3C209.907 146.433 210.127 146.52 210.42 146.56L210.36 148.22C209.214 148.22 208.327 147.973 207.7 147.48C206.634 147.973 205.56 148.22 204.48 148.22C202.494 148.22 201.5 147.16 201.5 145.04C201.5 144.027 201.767 143.293 202.3 142.84C202.847 142.387 203.68 142.113 204.8 142.02L207.38 141.8V141.08C207.38 140.547 207.26 140.173 207.02 139.96C206.794 139.747 206.454 139.64 206 139.64C205.147 139.64 204.08 139.693 202.8 139.8L202.16 139.84L202.08 138.3C203.534 137.953 204.867 137.78 206.08 137.78C207.307 137.78 208.187 138.047 208.72 138.58C209.267 139.1 209.54 139.933 209.54 141.08ZM205.06 143.56C204.14 143.64 203.68 144.14 203.68 145.06C203.68 145.98 204.087 146.44 204.9 146.44C205.567 146.44 206.274 146.333 207.02 146.12L207.38 146V143.34L205.06 143.56ZM220.412 137.78C221.118 137.78 221.952 137.873 222.912 138.06L223.412 138.16L223.332 139.88C222.278 139.773 221.498 139.72 220.992 139.72C219.978 139.72 219.298 139.947 218.952 140.4C218.605 140.853 218.432 141.707 218.432 142.96C218.432 144.213 218.598 145.08 218.932 145.56C219.265 146.04 219.958 146.28 221.012 146.28L223.352 146.12L223.412 147.86C222.065 148.1 221.052 148.22 220.372 148.22C218.852 148.22 217.778 147.813 217.152 147C216.538 146.173 216.232 144.827 216.232 142.96C216.232 141.093 216.558 139.767 217.212 138.98C217.865 138.18 218.932 137.78 220.412 137.78ZM232.919 141.08V145.64C232.933 145.933 233.006 146.153 233.139 146.3C233.286 146.433 233.506 146.52 233.799 146.56L233.739 148.22C232.593 148.22 231.706 147.973 231.079 147.48C230.013 147.973 228.939 148.22 227.859 148.22C225.873 148.22 224.879 147.16 224.879 145.04C224.879 144.027 225.146 143.293 225.679 142.84C226.226 142.387 227.059 142.113 228.179 142.02L230.759 141.8V141.08C230.759 140.547 230.639 140.173 230.399 139.96C230.173 139.747 229.833 139.64 229.379 139.64C228.526 139.64 227.459 139.693 226.179 139.8L225.539 139.84L225.459 138.3C226.913 137.953 228.246 137.78 229.459 137.78C230.686 137.78 231.566 138.047 232.099 138.58C232.646 139.1 232.919 139.933 232.919 141.08ZM228.439 143.56C227.519 143.64 227.059 144.14 227.059 145.06C227.059 145.98 227.466 146.44 228.279 146.44C228.946 146.44 229.653 146.333 230.399 146.12L230.759 146V143.34L228.439 143.56ZM235.656 148V138H237.816V139.2C238.949 138.467 240.083 137.993 241.216 137.78V139.96C240.069 140.187 239.089 140.48 238.276 140.84L237.836 141.02V148H235.656ZM250.945 133.84V148H248.785V147.48C247.812 147.973 246.918 148.22 246.105 148.22C244.798 148.22 243.838 147.827 243.225 147.04C242.625 146.253 242.325 144.933 242.325 143.08C242.325 141.227 242.658 139.88 243.325 139.04C244.005 138.2 245.058 137.78 246.485 137.78C246.965 137.78 247.725 137.867 248.765 138.04V133.84H250.945ZM248.425 145.92L248.765 145.78V139.86C247.965 139.727 247.225 139.66 246.545 139.66C245.198 139.66 244.525 140.78 244.525 143.02C244.525 144.247 244.678 145.1 244.985 145.58C245.305 146.047 245.805 146.28 246.485 146.28C247.165 146.28 247.812 146.16 248.425 145.92Z" fill="#003366"/>
<path d="M83.388 189H76.53V176.544H77.916V187.758H83.388V189ZM84.4254 184.482C84.4254 182.838 84.7194 181.65 85.3074 180.918C85.8954 180.186 86.8854 179.82 88.2774 179.82C89.6814 179.82 90.6714 180.186 91.2474 180.918C91.8354 181.65 92.1294 182.838 92.1294 184.482C92.1294 186.126 91.8534 187.32 91.3014 188.064C90.7494 188.808 89.7414 189.18 88.2774 189.18C86.8134 189.18 85.8054 188.808 85.2534 188.064C84.7014 187.32 84.4254 186.126 84.4254 184.482ZM85.8114 184.464C85.8114 185.772 85.9674 186.69 86.2794 187.218C86.6034 187.746 87.2694 188.01 88.2774 188.01C89.2974 188.01 89.9634 187.752 90.2754 187.236C90.5874 186.708 90.7434 185.784 90.7434 184.464C90.7434 183.144 90.5694 182.238 90.2214 181.746C89.8734 181.242 89.2254 180.99 88.2774 180.99C87.3414 180.99 86.6934 181.242 86.3334 181.746C85.9854 182.238 85.8114 183.144 85.8114 184.464ZM94.3312 189V180H95.6632V181.224C96.7072 180.504 97.8052 180.03 98.9572 179.802V181.17C98.4532 181.266 97.9252 181.416 97.3732 181.62C96.8332 181.824 96.4192 182.004 96.1312 182.16L95.6812 182.394V189H94.3312ZM106.498 187.884L107.02 187.83L107.056 188.892C105.688 189.084 104.518 189.18 103.546 189.18C102.25 189.18 101.332 188.808 100.792 188.064C100.252 187.308 99.982 186.138 99.982 184.554C99.982 181.398 101.236 179.82 103.744 179.82C104.956 179.82 105.862 180.162 106.462 180.846C107.062 181.518 107.362 182.58 107.362 184.032L107.29 185.058H101.35C101.35 186.054 101.53 186.792 101.89 187.272C102.25 187.752 102.874 187.992 103.762 187.992C104.662 187.992 105.574 187.956 106.498 187.884ZM106.012 183.978C106.012 182.874 105.832 182.094 105.472 181.638C105.124 181.182 104.548 180.954 103.744 180.954C102.952 180.954 102.352 181.194 101.944 181.674C101.548 182.154 101.344 182.922 101.332 183.978H106.012ZM110.816 189H109.466V180H110.798V180.63C111.698 180.09 112.574 179.82 113.426 179.82C114.542 179.82 115.322 180.126 115.766 180.738C116.162 180.498 116.672 180.288 117.296 180.108C117.932 179.916 118.49 179.82 118.97 179.82C120.17 179.82 120.974 180.144 121.382 180.792C121.802 181.428 122.012 182.58 122.012 184.248V189H120.662V184.284C120.662 183.036 120.542 182.184 120.302 181.728C120.062 181.26 119.552 181.026 118.772 181.026C118.376 181.026 117.968 181.086 117.548 181.206C117.128 181.314 116.804 181.422 116.576 181.53L116.234 181.692C116.39 182.088 116.468 182.964 116.468 184.32V189H115.118V184.356C115.118 183.06 114.998 182.184 114.758 181.728C114.53 181.26 114.02 181.026 113.228 181.026C112.844 181.026 112.448 181.086 112.04 181.206C111.644 181.314 111.338 181.422 111.122 181.53L110.816 181.692V189ZM128.468 189V180H129.818V189H128.468ZM128.468 177.966V176.4H129.818V177.966H128.468ZM132.405 192.996V180H133.737V180.648C134.649 180.096 135.549 179.82 136.437 179.82C137.577 179.82 138.405 180.186 138.921 180.918C139.437 181.638 139.695 182.832 139.695 184.5C139.695 186.168 139.389 187.368 138.777 188.1C138.177 188.82 137.175 189.18 135.771 189.18C135.039 189.18 134.367 189.114 133.755 188.982V192.996H132.405ZM136.239 181.026C135.879 181.026 135.489 181.086 135.069 181.206C134.661 181.326 134.337 181.446 134.097 181.566L133.755 181.746V187.812C134.607 187.944 135.255 188.01 135.699 188.01C136.671 188.01 137.349 187.734 137.733 187.182C138.129 186.63 138.327 185.73 138.327 184.482C138.327 183.234 138.147 182.346 137.787 181.818C137.439 181.29 136.923 181.026 136.239 181.026ZM144.724 181.026C143.416 181.026 142.762 181.482 142.762 182.394C142.762 182.814 142.912 183.114 143.212 183.294C143.512 183.462 144.196 183.642 145.264 183.834C146.332 184.014 147.088 184.272 147.532 184.608C147.976 184.944 148.198 185.574 148.198 186.498C148.198 187.422 147.898 188.1 147.298 188.532C146.71 188.964 145.846 189.18 144.706 189.18C143.962 189.18 143.086 189.096 142.078 188.928L141.538 188.838L141.61 187.668C142.978 187.872 144.01 187.974 144.706 187.974C145.402 187.974 145.93 187.866 146.29 187.65C146.662 187.422 146.848 187.05 146.848 186.534C146.848 186.006 146.692 185.652 146.38 185.472C146.068 185.28 145.384 185.1 144.328 184.932C143.272 184.764 142.522 184.518 142.078 184.194C141.634 183.87 141.412 183.27 141.412 182.394C141.412 181.518 141.718 180.87 142.33 180.45C142.954 180.03 143.728 179.82 144.652 179.82C145.384 179.82 146.302 179.904 147.406 180.072L147.91 180.162L147.874 181.314C146.542 181.122 145.492 181.026 144.724 181.026ZM155.881 180H157.231V189H155.881V188.37C154.981 188.91 154.093 189.18 153.217 189.18C151.993 189.18 151.177 188.862 150.769 188.226C150.373 187.59 150.175 186.414 150.175 184.698V180H151.525V184.68C151.525 185.988 151.639 186.864 151.867 187.308C152.095 187.752 152.611 187.974 153.415 187.974C153.811 187.974 154.213 187.92 154.621 187.812C155.029 187.692 155.341 187.578 155.557 187.47L155.881 187.308V180ZM161.177 189H159.827V180H161.159V180.63C162.059 180.09 162.935 179.82 163.787 179.82C164.903 179.82 165.683 180.126 166.127 180.738C166.523 180.498 167.033 180.288 167.657 180.108C168.293 179.916 168.851 179.82 169.331 179.82C170.531 179.82 171.335 180.144 171.743 180.792C172.163 181.428 172.373 182.58 172.373 184.248V189H171.023V184.284C171.023 183.036 170.903 182.184 170.663 181.728C170.423 181.26 169.913 181.026 169.133 181.026C168.737 181.026 168.329 181.086 167.909 181.206C167.489 181.314 167.165 181.422 166.937 181.53L166.595 181.692C166.751 182.088 166.829 182.964 166.829 184.32V189H165.479V184.356C165.479 183.06 165.359 182.184 165.119 181.728C164.891 181.26 164.381 181.026 163.589 181.026C163.205 181.026 162.809 181.086 162.401 181.206C162.005 181.314 161.699 181.422 161.483 181.53L161.177 181.692V189ZM185.741 176.076V189H184.409V188.388C183.485 188.916 182.573 189.18 181.673 189.18C181.193 189.18 180.773 189.12 180.413 189C180.053 188.88 179.717 188.664 179.405 188.352C178.757 187.704 178.433 186.51 178.433 184.77C178.433 183.018 178.721 181.758 179.297 180.99C179.885 180.21 180.851 179.82 182.195 179.82C182.891 179.82 183.629 179.898 184.409 180.054V176.076H185.741ZM180.449 187.38C180.641 187.608 180.845 187.764 181.061 187.848C181.277 187.932 181.553 187.974 181.889 187.974C182.237 187.974 182.621 187.92 183.041 187.812C183.473 187.692 183.809 187.578 184.049 187.47L184.409 187.308V181.206C183.641 181.062 182.927 180.99 182.267 180.99C181.355 180.99 180.719 181.284 180.359 181.872C179.999 182.448 179.819 183.348 179.819 184.572C179.819 185.964 180.029 186.9 180.449 187.38ZM187.961 184.482C187.961 182.838 188.255 181.65 188.843 180.918C189.431 180.186 190.421 179.82 191.813 179.82C193.217 179.82 194.207 180.186 194.783 180.918C195.371 181.65 195.665 182.838 195.665 184.482C195.665 186.126 195.389 187.32 194.837 188.064C194.285 188.808 193.277 189.18 191.813 189.18C190.349 189.18 189.341 188.808 188.789 188.064C188.237 187.32 187.961 186.126 187.961 184.482ZM189.347 184.464C189.347 185.772 189.503 186.69 189.815 187.218C190.139 187.746 190.805 188.01 191.813 188.01C192.833 188.01 193.499 187.752 193.811 187.236C194.123 186.708 194.279 185.784 194.279 184.464C194.279 183.144 194.105 182.238 193.757 181.746C193.409 181.242 192.761 180.99 191.813 180.99C190.877 180.99 190.229 181.242 189.869 181.746C189.521 182.238 189.347 183.144 189.347 184.464ZM197.974 189V176.076H199.324V189H197.974ZM201.636 184.482C201.636 182.838 201.93 181.65 202.518 180.918C203.106 180.186 204.096 179.82 205.488 179.82C206.892 179.82 207.882 180.186 208.458 180.918C209.046 181.65 209.34 182.838 209.34 184.482C209.34 186.126 209.064 187.32 208.512 188.064C207.96 188.808 206.952 189.18 205.488 189.18C204.024 189.18 203.016 188.808 202.464 188.064C201.912 187.32 201.636 186.126 201.636 184.482ZM203.022 184.464C203.022 185.772 203.178 186.69 203.49 187.218C203.814 187.746 204.48 188.01 205.488 188.01C206.508 188.01 207.174 187.752 207.486 187.236C207.798 186.708 207.954 185.784 207.954 184.464C207.954 183.144 207.78 182.238 207.432 181.746C207.084 181.242 206.436 180.99 205.488 180.99C204.552 180.99 203.904 181.242 203.544 181.746C203.196 182.238 203.022 183.144 203.022 184.464ZM211.542 189V180H212.874V181.224C213.918 180.504 215.016 180.03 216.168 179.802V181.17C215.664 181.266 215.136 181.416 214.584 181.62C214.044 181.824 213.63 182.004 213.342 182.16L212.892 182.394V189H211.542ZM224.546 181.026C223.238 181.026 222.584 181.482 222.584 182.394C222.584 182.814 222.734 183.114 223.034 183.294C223.334 183.462 224.018 183.642 225.086 183.834C226.154 184.014 226.91 184.272 227.354 184.608C227.798 184.944 228.02 185.574 228.02 186.498C228.02 187.422 227.72 188.1 227.12 188.532C226.532 188.964 225.668 189.18 224.528 189.18C223.784 189.18 222.908 189.096 221.9 188.928L221.36 188.838L221.432 187.668C222.8 187.872 223.832 187.974 224.528 187.974C225.224 187.974 225.752 187.866 226.112 187.65C226.484 187.422 226.67 187.05 226.67 186.534C226.67 186.006 226.514 185.652 226.202 185.472C225.89 185.28 225.206 185.1 224.15 184.932C223.094 184.764 222.344 184.518 221.9 184.194C221.456 183.87 221.234 183.27 221.234 182.394C221.234 181.518 221.54 180.87 222.152 180.45C222.776 180.03 223.55 179.82 224.474 179.82C225.206 179.82 226.124 179.904 227.228 180.072L227.732 180.162L227.696 181.314C226.364 181.122 225.314 181.026 224.546 181.026ZM230.087 189V180H231.437V189H230.087ZM230.087 177.966V176.4H231.437V177.966H230.087ZM238.687 181.17H235.825V185.472C235.825 186.504 235.897 187.182 236.041 187.506C236.197 187.83 236.557 187.992 237.121 187.992L238.723 187.884L238.813 189C238.009 189.132 237.397 189.198 236.977 189.198C236.041 189.198 235.393 188.97 235.033 188.514C234.673 188.058 234.493 187.188 234.493 185.904V181.17H233.215V180H234.493V177.246H235.825V180H238.687V181.17ZM250.644 182.718V187.326C250.68 187.77 251.028 188.034 251.688 188.118L251.634 189.18C250.686 189.18 249.972 188.94 249.492 188.46C248.412 188.94 247.332 189.18 246.252 189.18C245.424 189.18 244.794 188.946 244.362 188.478C243.93 188.01 243.714 187.338 243.714 186.462C243.714 185.586 243.936 184.944 244.38 184.536C244.824 184.116 245.52 183.858 246.468 183.762L249.294 183.492V182.718C249.294 182.106 249.162 181.668 248.898 181.404C248.634 181.14 248.274 181.008 247.818 181.008C246.858 181.008 245.862 181.068 244.83 181.188L244.272 181.242L244.218 180.216C245.538 179.952 246.708 179.82 247.728 179.82C248.748 179.82 249.486 180.054 249.942 180.522C250.41 180.99 250.644 181.722 250.644 182.718ZM245.1 186.39C245.1 187.494 245.556 188.046 246.468 188.046C247.284 188.046 248.088 187.908 248.88 187.632L249.294 187.488V184.518L246.63 184.77C246.09 184.818 245.7 184.974 245.46 185.238C245.22 185.502 245.1 185.886 245.1 186.39ZM254.658 189H253.308V180H254.64V180.63C255.54 180.09 256.416 179.82 257.268 179.82C258.384 179.82 259.164 180.126 259.608 180.738C260.004 180.498 260.514 180.288 261.138 180.108C261.774 179.916 262.332 179.82 262.812 179.82C264.012 179.82 264.816 180.144 265.224 180.792C265.644 181.428 265.854 182.58 265.854 184.248V189H264.504V184.284C264.504 183.036 264.384 182.184 264.144 181.728C263.904 181.26 263.394 181.026 262.614 181.026C262.218 181.026 261.81 181.086 261.39 181.206C260.97 181.314 260.646 181.422 260.418 181.53L260.076 181.692C260.232 182.088 260.31 182.964 260.31 184.32V189H258.96V184.356C258.96 183.06 258.84 182.184 258.6 181.728C258.372 181.26 257.862 181.026 257.07 181.026C256.686 181.026 256.29 181.086 255.882 181.206C255.486 181.314 255.18 181.422 254.964 181.53L254.658 181.692V189ZM274.475 187.884L274.997 187.83L275.033 188.892C273.665 189.084 272.495 189.18 271.523 189.18C270.227 189.18 269.309 188.808 268.769 188.064C268.229 187.308 267.959 186.138 267.959 184.554C267.959 181.398 269.213 179.82 271.721 179.82C272.933 179.82 273.839 180.162 274.439 180.846C275.039 181.518 275.339 182.58 275.339 184.032L275.267 185.058H269.327C269.327 186.054 269.507 186.792 269.867 187.272C270.227 187.752 270.851 187.992 271.739 187.992C272.639 187.992 273.551 187.956 274.475 187.884ZM273.989 183.978C273.989 182.874 273.809 182.094 273.449 181.638C273.101 181.182 272.525 180.954 271.721 180.954C270.929 180.954 270.329 181.194 269.921 181.674C269.525 182.154 269.321 182.922 269.309 183.978H273.989ZM282.052 181.17H279.19V185.472C279.19 186.504 279.262 187.182 279.406 187.506C279.562 187.83 279.922 187.992 280.486 187.992L282.088 187.884L282.178 189C281.374 189.132 280.762 189.198 280.342 189.198C279.406 189.198 278.758 188.97 278.398 188.514C278.038 188.058 277.858 187.188 277.858 185.904V181.17H276.58V180H277.858V177.246H279.19V180H282.052V181.17ZM283.016 191.214L283.844 187.074H285.338L284.132 191.214H283.016ZM295.029 179.82C295.425 179.82 296.097 179.892 297.045 180.036L297.477 180.09L297.423 181.188C296.463 181.08 295.755 181.026 295.299 181.026C294.279 181.026 293.583 181.272 293.211 181.764C292.851 182.244 292.671 183.144 292.671 184.464C292.671 185.772 292.839 186.684 293.175 187.2C293.523 187.716 294.237 187.974 295.317 187.974L297.441 187.812L297.495 188.928C296.379 189.096 295.545 189.18 294.993 189.18C293.589 189.18 292.617 188.82 292.077 188.1C291.549 187.38 291.285 186.168 291.285 184.464C291.285 182.748 291.573 181.548 292.149 180.864C292.725 180.168 293.685 179.82 295.029 179.82ZM299.002 184.482C299.002 182.838 299.296 181.65 299.884 180.918C300.472 180.186 301.462 179.82 302.854 179.82C304.258 179.82 305.248 180.186 305.824 180.918C306.412 181.65 306.706 182.838 306.706 184.482C306.706 186.126 306.43 187.32 305.878 188.064C305.326 188.808 304.318 189.18 302.854 189.18C301.39 189.18 300.382 188.808 299.83 188.064C299.278 187.32 299.002 186.126 299.002 184.482ZM300.388 184.464C300.388 185.772 300.544 186.69 300.856 187.218C301.18 187.746 301.846 188.01 302.854 188.01C303.874 188.01 304.54 187.752 304.852 187.236C305.164 186.708 305.32 185.784 305.32 184.464C305.32 183.144 305.146 182.238 304.798 181.746C304.45 181.242 303.802 180.99 302.854 180.99C301.918 180.99 301.27 181.242 300.91 181.746C300.562 182.238 300.388 183.144 300.388 184.464ZM310.257 189H308.907V180H310.239V180.63C311.211 180.09 312.141 179.82 313.029 179.82C314.229 179.82 315.033 180.144 315.441 180.792C315.861 181.44 316.071 182.592 316.071 184.248V189H314.739V184.284C314.739 183.036 314.613 182.184 314.361 181.728C314.121 181.26 313.599 181.026 312.795 181.026C312.411 181.026 312.003 181.086 311.571 181.206C311.151 181.314 310.827 181.422 310.599 181.53L310.257 181.692V189ZM321.401 181.026C320.093 181.026 319.439 181.482 319.439 182.394C319.439 182.814 319.589 183.114 319.889 183.294C320.189 183.462 320.873 183.642 321.941 183.834C323.009 184.014 323.765 184.272 324.209 184.608C324.653 184.944 324.875 185.574 324.875 186.498C324.875 187.422 324.575 188.1 323.975 188.532C323.387 188.964 322.523 189.18 321.383 189.18C320.639 189.18 319.763 189.096 318.755 188.928L318.215 188.838L318.287 187.668C319.655 187.872 320.687 187.974 321.383 187.974C322.079 187.974 322.607 187.866 322.967 187.65C323.339 187.422 323.525 187.05 323.525 186.534C323.525 186.006 323.369 185.652 323.057 185.472C322.745 185.28 322.061 185.1 321.005 184.932C319.949 184.764 319.199 184.518 318.755 184.194C318.311 183.87 318.089 183.27 318.089 182.394C318.089 181.518 318.395 180.87 319.007 180.45C319.631 180.03 320.405 179.82 321.329 179.82C322.061 179.82 322.979 179.904 324.083 180.072L324.587 180.162L324.551 181.314C323.219 181.122 322.169 181.026 321.401 181.026ZM333.062 187.884L333.584 187.83L333.62 188.892C332.252 189.084 331.082 189.18 330.11 189.18C328.814 189.18 327.896 188.808 327.356 188.064C326.816 187.308 326.546 186.138 326.546 184.554C326.546 181.398 327.8 179.82 330.308 179.82C331.52 179.82 332.426 180.162 333.026 180.846C333.626 181.518 333.926 182.58 333.926 184.032L333.854 185.058H327.914C327.914 186.054 328.094 186.792 328.454 187.272C328.814 187.752 329.438 187.992 330.326 187.992C331.226 187.992 332.138 187.956 333.062 187.884ZM332.576 183.978C332.576 182.874 332.396 182.094 332.036 181.638C331.688 181.182 331.112 180.954 330.308 180.954C329.516 180.954 328.916 181.194 328.508 181.674C328.112 182.154 327.908 182.922 327.896 183.978H332.576ZM339.396 179.82C339.792 179.82 340.464 179.892 341.412 180.036L341.844 180.09L341.79 181.188C340.83 181.08 340.122 181.026 339.666 181.026C338.646 181.026 337.95 181.272 337.578 181.764C337.218 182.244 337.038 183.144 337.038 184.464C337.038 185.772 337.206 186.684 337.542 187.2C337.89 187.716 338.604 187.974 339.684 187.974L341.808 187.812L341.862 188.928C340.746 189.096 339.912 189.18 339.36 189.18C337.956 189.18 336.984 188.82 336.444 188.1C335.916 187.38 335.652 186.168 335.652 184.464C335.652 182.748 335.94 181.548 336.516 180.864C337.092 180.168 338.052 179.82 339.396 179.82ZM348.532 181.17H345.67V185.472C345.67 186.504 345.742 187.182 345.886 187.506C346.042 187.83 346.402 187.992 346.966 187.992L348.568 187.884L348.658 189C347.854 189.132 347.242 189.198 346.822 189.198C345.886 189.198 345.238 188.97 344.878 188.514C344.518 188.058 344.338 187.188 344.338 185.904V181.17H343.06V180H344.338V177.246H345.67V180H348.532V181.17ZM356.301 187.884L356.823 187.83L356.859 188.892C355.491 189.084 354.321 189.18 353.349 189.18C352.053 189.18 351.135 188.808 350.595 188.064C350.055 187.308 349.785 186.138 349.785 184.554C349.785 181.398 351.039 179.82 353.547 179.82C354.759 179.82 355.665 180.162 356.265 180.846C356.865 181.518 357.165 182.58 357.165 184.032L357.093 185.058H351.153C351.153 186.054 351.333 186.792 351.693 187.272C352.053 187.752 352.677 187.992 353.565 187.992C354.465 187.992 355.377 187.956 356.301 187.884ZM355.815 183.978C355.815 182.874 355.635 182.094 355.275 181.638C354.927 181.182 354.351 180.954 353.547 180.954C352.755 180.954 352.155 181.194 351.747 181.674C351.351 182.154 351.147 182.922 351.135 183.978H355.815ZM363.878 181.17H361.016V185.472C361.016 186.504 361.088 187.182 361.232 187.506C361.388 187.83 361.748 187.992 362.312 187.992L363.914 187.884L364.004 189C363.2 189.132 362.588 189.198 362.168 189.198C361.232 189.198 360.584 188.97 360.224 188.514C359.864 188.058 359.684 187.188 359.684 185.904V181.17H358.406V180H359.684V177.246H361.016V180H363.878V181.17ZM371.142 180H372.492V189H371.142V188.37C370.242 188.91 369.354 189.18 368.478 189.18C367.254 189.18 366.438 188.862 366.03 188.226C365.634 187.59 365.436 186.414 365.436 184.698V180H366.786V184.68C366.786 185.988 366.9 186.864 367.128 187.308C367.356 187.752 367.872 187.974 368.676 187.974C369.072 187.974 369.474 187.92 369.882 187.812C370.29 187.692 370.602 187.578 370.818 187.47L371.142 187.308V180ZM375.089 189V180H376.421V181.224C377.465 180.504 378.563 180.03 379.715 179.802V181.17C379.211 181.266 378.683 181.416 378.131 181.62C377.591 181.824 377.177 182.004 376.889 182.16L376.439 182.394V189H375.089ZM391.621 182.718V187.326C391.657 187.77 392.005 188.034 392.665 188.118L392.611 189.18C391.663 189.18 390.949 188.94 390.469 188.46C389.389 188.94 388.309 189.18 387.229 189.18C386.401 189.18 385.771 188.946 385.339 188.478C384.907 188.01 384.691 187.338 384.691 186.462C384.691 185.586 384.913 184.944 385.357 184.536C385.801 184.116 386.497 183.858 387.445 183.762L390.271 183.492V182.718C390.271 182.106 390.139 181.668 389.875 181.404C389.611 181.14 389.251 181.008 388.795 181.008C387.835 181.008 386.839 181.068 385.807 181.188L385.249 181.242L385.195 180.216C386.515 179.952 387.685 179.82 388.705 179.82C389.725 179.82 390.463 180.054 390.919 180.522C391.387 180.99 391.621 181.722 391.621 182.718ZM386.077 186.39C386.077 187.494 386.533 188.046 387.445 188.046C388.261 188.046 389.065 187.908 389.857 187.632L390.271 187.488V184.518L387.607 184.77C387.067 184.818 386.677 184.974 386.437 185.238C386.197 185.502 386.077 185.886 386.077 186.39ZM401.196 176.076V189H399.864V188.388C398.94 188.916 398.028 189.18 397.128 189.18C396.648 189.18 396.228 189.12 395.868 189C395.508 188.88 395.172 188.664 394.86 188.352C394.212 187.704 393.888 186.51 393.888 184.77C393.888 183.018 394.176 181.758 394.752 180.99C395.34 180.21 396.306 179.82 397.65 179.82C398.346 179.82 399.084 179.898 399.864 180.054V176.076H401.196ZM395.904 187.38C396.096 187.608 396.3 187.764 396.516 187.848C396.732 187.932 397.008 187.974 397.344 187.974C397.692 187.974 398.076 187.92 398.496 187.812C398.928 187.692 399.264 187.578 399.504 187.47L399.864 187.308V181.206C399.096 181.062 398.382 180.99 397.722 180.99C396.81 180.99 396.174 181.284 395.814 181.872C395.454 182.448 395.274 183.348 395.274 184.572C395.274 185.964 395.484 186.9 395.904 187.38ZM403.812 189V180H405.162V189H403.812ZM403.812 177.966V176.4H405.162V177.966H403.812ZM407.749 192.996V180H409.081V180.648C409.993 180.096 410.893 179.82 411.781 179.82C412.921 179.82 413.749 180.186 414.265 180.918C414.781 181.638 415.039 182.832 415.039 184.5C415.039 186.168 414.733 187.368 414.121 188.1C413.521 188.82 412.519 189.18 411.115 189.18C410.383 189.18 409.711 189.114 409.099 188.982V192.996H407.749ZM411.583 181.026C411.223 181.026 410.833 181.086 410.413 181.206C410.005 181.326 409.681 181.446 409.441 181.566L409.099 181.746V187.812C409.951 187.944 410.599 188.01 411.043 188.01C412.015 188.01 412.693 187.734 413.077 187.182C413.473 186.63 413.671 185.73 413.671 184.482C413.671 183.234 413.491 182.346 413.131 181.818C412.783 181.29 412.267 181.026 411.583 181.026ZM417.241 189V180H418.591V189H417.241ZM417.241 177.966V176.4H418.591V177.966H417.241ZM424.005 181.026C422.697 181.026 422.043 181.482 422.043 182.394C422.043 182.814 422.193 183.114 422.493 183.294C422.793 183.462 423.477 183.642 424.545 183.834C425.613 184.014 426.369 184.272 426.813 184.608C427.257 184.944 427.479 185.574 427.479 186.498C427.479 187.422 427.179 188.1 426.579 188.532C425.991 188.964 425.127 189.18 423.987 189.18C423.243 189.18 422.367 189.096 421.359 188.928L420.819 188.838L420.891 187.668C422.259 187.872 423.291 187.974 423.987 187.974C424.683 187.974 425.211 187.866 425.571 187.65C425.943 187.422 426.129 187.05 426.129 186.534C426.129 186.006 425.973 185.652 425.661 185.472C425.349 185.28 424.665 185.1 423.609 184.932C422.553 184.764 421.803 184.518 421.359 184.194C420.915 183.87 420.693 183.27 420.693 182.394C420.693 181.518 420.999 180.87 421.611 180.45C422.235 180.03 423.009 179.82 423.933 179.82C424.665 179.82 425.583 179.904 426.687 180.072L427.191 180.162L427.155 181.314C425.823 181.122 424.773 181.026 424.005 181.026ZM432.912 179.82C433.308 179.82 433.98 179.892 434.928 180.036L435.36 180.09L435.306 181.188C434.346 181.08 433.638 181.026 433.182 181.026C432.162 181.026 431.466 181.272 431.094 181.764C430.734 182.244 430.554 183.144 430.554 184.464C430.554 185.772 430.722 186.684 431.058 187.2C431.406 187.716 432.12 187.974 433.2 187.974L435.324 187.812L435.378 188.928C434.262 189.096 433.428 189.18 432.876 189.18C431.472 189.18 430.5 188.82 429.96 188.1C429.432 187.38 429.168 186.168 429.168 184.464C429.168 182.748 429.456 181.548 430.032 180.864C430.608 180.168 431.568 179.82 432.912 179.82ZM437.386 189V180H438.736V189H437.386ZM437.386 177.966V176.4H438.736V177.966H437.386ZM442.673 189H441.323V180H442.655V180.63C443.627 180.09 444.557 179.82 445.445 179.82C446.645 179.82 447.449 180.144 447.857 180.792C448.277 181.44 448.487 182.592 448.487 184.248V189H447.155V184.284C447.155 183.036 447.029 182.184 446.777 181.728C446.537 181.26 446.015 181.026 445.211 181.026C444.827 181.026 444.419 181.086 443.987 181.206C443.567 181.314 443.243 181.422 443.015 181.53L442.673 181.692V189ZM454.465 193.23C453.025 193.23 452.017 193.032 451.441 192.636C450.877 192.252 450.595 191.544 450.595 190.512C450.595 190.02 450.703 189.618 450.919 189.306C451.135 189.006 451.501 188.664 452.017 188.28C451.681 188.052 451.513 187.638 451.513 187.038C451.513 186.834 451.663 186.456 451.963 185.904L452.125 185.616C451.177 185.184 450.703 184.278 450.703 182.898C450.703 180.846 451.825 179.82 454.069 179.82C454.645 179.82 455.179 179.88 455.671 180L455.941 180.054L458.605 179.982V181.134L456.895 181.098C457.291 181.494 457.489 182.094 457.489 182.898C457.489 184.026 457.207 184.818 456.643 185.274C456.091 185.718 455.215 185.94 454.015 185.94C453.691 185.94 453.397 185.916 453.133 185.868C452.917 186.396 452.809 186.738 452.809 186.894C452.809 187.266 452.923 187.5 453.151 187.596C453.379 187.68 454.069 187.722 455.221 187.722C456.373 187.722 457.201 187.902 457.705 188.262C458.209 188.622 458.461 189.324 458.461 190.368C458.461 192.276 457.129 193.23 454.465 193.23ZM451.927 190.404C451.927 191.04 452.101 191.478 452.449 191.718C452.809 191.97 453.463 192.096 454.411 192.096C455.371 192.096 456.055 191.964 456.463 191.7C456.883 191.436 457.093 190.992 457.093 190.368C457.093 189.756 456.943 189.36 456.643 189.18C456.343 189 455.755 188.91 454.879 188.91L452.935 188.82C452.539 189.108 452.269 189.36 452.125 189.576C451.993 189.792 451.927 190.068 451.927 190.404ZM452.053 182.898C452.053 183.606 452.209 184.11 452.521 184.41C452.845 184.71 453.373 184.86 454.105 184.86C454.837 184.86 455.359 184.71 455.671 184.41C455.983 184.11 456.139 183.606 456.139 182.898C456.139 182.178 455.983 181.668 455.671 181.368C455.359 181.068 454.837 180.918 454.105 180.918C453.373 180.918 452.845 181.074 452.521 181.386C452.209 181.686 452.053 182.19 452.053 182.898ZM470.312 187.884L470.834 187.83L470.87 188.892C469.502 189.084 468.332 189.18 467.36 189.18C466.064 189.18 465.146 188.808 464.606 188.064C464.066 187.308 463.796 186.138 463.796 184.554C463.796 181.398 465.05 179.82 467.558 179.82C468.77 179.82 469.676 180.162 470.276 180.846C470.876 181.518 471.176 182.58 471.176 184.032L471.104 185.058H465.164C465.164 186.054 465.344 186.792 465.704 187.272C466.064 187.752 466.688 187.992 467.576 187.992C468.476 187.992 469.388 187.956 470.312 187.884ZM469.826 183.978C469.826 182.874 469.646 182.094 469.286 181.638C468.938 181.182 468.362 180.954 467.558 180.954C466.766 180.954 466.166 181.194 465.758 181.674C465.362 182.154 465.158 182.922 465.146 183.978H469.826ZM473.388 189V176.076H474.738V189H473.388ZM477.446 189V180H478.796V189H477.446ZM477.446 177.966V176.4H478.796V177.966H477.446ZM486.046 181.17H483.184V185.472C483.184 186.504 483.256 187.182 483.4 187.506C483.556 187.83 483.916 187.992 484.48 187.992L486.082 187.884L486.172 189C485.368 189.132 484.756 189.198 484.336 189.198C483.4 189.198 482.752 188.97 482.392 188.514C482.032 188.058 481.852 187.188 481.852 185.904V181.17H480.574V180H481.852V177.246H483.184V180H486.046V181.17ZM487.01 191.214L487.838 187.074H489.332L488.126 191.214H487.01ZM498.483 181.026C497.175 181.026 496.521 181.482 496.521 182.394C496.521 182.814 496.671 183.114 496.971 183.294C497.271 183.462 497.955 183.642 499.023 183.834C500.091 184.014 500.847 184.272 501.291 184.608C501.735 184.944 501.957 185.574 501.957 186.498C501.957 187.422 501.657 188.1 501.057 188.532C500.469 188.964 499.605 189.18 498.465 189.18C497.721 189.18 496.845 189.096 495.837 188.928L495.297 188.838L495.369 187.668C496.737 187.872 497.769 187.974 498.465 187.974C499.161 187.974 499.689 187.866 500.049 187.65C500.421 187.422 500.607 187.05 500.607 186.534C500.607 186.006 500.451 185.652 500.139 185.472C499.827 185.28 499.143 185.1 498.087 184.932C497.031 184.764 496.281 184.518 495.837 184.194C495.393 183.87 495.171 183.27 495.171 182.394C495.171 181.518 495.477 180.87 496.089 180.45C496.713 180.03 497.487 179.82 498.411 179.82C499.143 179.82 500.061 179.904 501.165 180.072L501.669 180.162L501.633 181.314C500.301 181.122 499.251 181.026 498.483 181.026ZM510.145 187.884L510.667 187.83L510.703 188.892C509.335 189.084 508.165 189.18 507.193 189.18C505.897 189.18 504.979 188.808 504.439 188.064C503.899 187.308 503.629 186.138 503.629 184.554C503.629 181.398 504.883 179.82 507.391 179.82C508.603 179.82 509.509 180.162 510.109 180.846C510.709 181.518 511.009 182.58 511.009 184.032L510.937 185.058H504.997C504.997 186.054 505.177 186.792 505.537 187.272C505.897 187.752 506.521 187.992 507.409 187.992C508.309 187.992 509.221 187.956 510.145 187.884ZM509.659 183.978C509.659 182.874 509.479 182.094 509.119 181.638C508.771 181.182 508.195 180.954 507.391 180.954C506.599 180.954 505.999 181.194 505.591 181.674C505.195 182.154 504.991 182.922 504.979 183.978H509.659ZM520.024 176.076V189H518.692V188.388C517.768 188.916 516.856 189.18 515.956 189.18C515.476 189.18 515.056 189.12 514.696 189C514.336 188.88 514 188.664 513.688 188.352C513.04 187.704 512.716 186.51 512.716 184.77C512.716 183.018 513.004 181.758 513.58 180.99C514.168 180.21 515.134 179.82 516.478 179.82C517.174 179.82 517.912 179.898 518.692 180.054V176.076H520.024ZM514.732 187.38C514.924 187.608 515.128 187.764 515.344 187.848C515.56 187.932 515.836 187.974 516.172 187.974C516.52 187.974 516.904 187.92 517.324 187.812C517.756 187.692 518.092 187.578 518.332 187.47L518.692 187.308V181.206C517.924 181.062 517.21 180.99 516.55 180.99C515.638 180.99 515.002 181.284 514.642 181.872C514.282 182.448 514.102 183.348 514.102 184.572C514.102 185.964 514.312 186.9 514.732 187.38ZM533.507 176.076V189H532.175V188.388C531.251 188.916 530.339 189.18 529.439 189.18C528.959 189.18 528.539 189.12 528.179 189C527.819 188.88 527.483 188.664 527.171 188.352C526.523 187.704 526.199 186.51 526.199 184.77C526.199 183.018 526.487 181.758 527.063 180.99C527.651 180.21 528.617 179.82 529.961 179.82C530.657 179.82 531.395 179.898 532.175 180.054V176.076H533.507ZM528.215 187.38C528.407 187.608 528.611 187.764 528.827 187.848C529.043 187.932 529.319 187.974 529.655 187.974C530.003 187.974 530.387 187.92 530.807 187.812C531.239 187.692 531.575 187.578 531.815 187.47L532.175 187.308V181.206C531.407 181.062 530.693 180.99 530.033 180.99C529.121 180.99 528.485 181.284 528.125 181.872C527.765 182.448 527.585 183.348 527.585 184.572C527.585 185.964 527.795 186.9 528.215 187.38ZM535.726 184.482C535.726 182.838 536.02 181.65 536.608 180.918C537.196 180.186 538.186 179.82 539.578 179.82C540.982 179.82 541.972 180.186 542.548 180.918C543.136 181.65 543.43 182.838 543.43 184.482C543.43 186.126 543.154 187.32 542.602 188.064C542.05 188.808 541.042 189.18 539.578 189.18C538.114 189.18 537.106 188.808 536.554 188.064C536.002 187.32 535.726 186.126 535.726 184.482ZM537.112 184.464C537.112 185.772 537.268 186.69 537.58 187.218C537.904 187.746 538.57 188.01 539.578 188.01C540.598 188.01 541.264 187.752 541.576 187.236C541.888 186.708 542.044 185.784 542.044 184.464C542.044 183.144 541.87 182.238 541.522 181.746C541.174 181.242 540.526 180.99 539.578 180.99C538.642 180.99 537.994 181.242 537.634 181.746C537.286 182.238 537.112 183.144 537.112 184.464ZM555.707 187.884L556.229 187.83L556.265 188.892C554.897 189.084 553.727 189.18 552.755 189.18C551.459 189.18 550.541 188.808 550.001 188.064C549.461 187.308 549.191 186.138 549.191 184.554C549.191 181.398 550.445 179.82 552.953 179.82C554.165 179.82 555.071 180.162 555.671 180.846C556.271 181.518 556.571 182.58 556.571 184.032L556.499 185.058H550.559C550.559 186.054 550.739 186.792 551.099 187.272C551.459 187.752 552.083 187.992 552.971 187.992C553.871 187.992 554.783 187.956 555.707 187.884ZM555.221 183.978C555.221 182.874 555.041 182.094 554.681 181.638C554.333 181.182 553.757 180.954 552.953 180.954C552.161 180.954 551.561 181.194 551.153 181.674C550.757 182.154 550.553 182.922 550.541 183.978H555.221ZM558.675 189V180H560.025V189H558.675ZM558.675 177.966V176.4H560.025V177.966H558.675ZM568.228 180H569.578V189H568.228V188.37C567.328 188.91 566.44 189.18 565.564 189.18C564.34 189.18 563.524 188.862 563.116 188.226C562.72 187.59 562.522 186.414 562.522 184.698V180H563.872V184.68C563.872 185.988 563.986 186.864 564.214 187.308C564.442 187.752 564.958 187.974 565.762 187.974C566.158 187.974 566.56 187.92 566.968 187.812C567.376 187.692 567.688 187.578 567.904 187.47L568.228 187.308V180ZM575.001 181.026C573.693 181.026 573.039 181.482 573.039 182.394C573.039 182.814 573.189 183.114 573.489 183.294C573.789 183.462 574.473 183.642 575.541 183.834C576.609 184.014 577.365 184.272 577.809 184.608C578.253 184.944 578.475 185.574 578.475 186.498C578.475 187.422 578.175 188.1 577.575 188.532C576.987 188.964 576.123 189.18 574.983 189.18C574.239 189.18 573.363 189.096 572.355 188.928L571.815 188.838L571.887 187.668C573.255 187.872 574.287 187.974 574.983 187.974C575.679 187.974 576.207 187.866 576.567 187.65C576.939 187.422 577.125 187.05 577.125 186.534C577.125 186.006 576.969 185.652 576.657 185.472C576.345 185.28 575.661 185.1 574.605 184.932C573.549 184.764 572.799 184.518 572.355 184.194C571.911 183.87 571.689 183.27 571.689 182.394C571.689 181.518 571.995 180.87 572.607 180.45C573.231 180.03 574.005 179.82 574.929 179.82C575.661 179.82 576.579 179.904 577.683 180.072L578.187 180.162L578.151 181.314C576.819 181.122 575.769 181.026 575.001 181.026ZM581.892 189H580.542V180H581.874V180.63C582.774 180.09 583.65 179.82 584.502 179.82C585.618 179.82 586.398 180.126 586.842 180.738C587.238 180.498 587.748 180.288 588.372 180.108C589.008 179.916 589.566 179.82 590.046 179.82C591.246 179.82 592.05 180.144 592.458 180.792C592.878 181.428 593.088 182.58 593.088 184.248V189H591.738V184.284C591.738 183.036 591.618 182.184 591.378 181.728C591.138 181.26 590.628 181.026 589.848 181.026C589.452 181.026 589.044 181.086 588.624 181.206C588.204 181.314 587.88 181.422 587.652 181.53L587.31 181.692C587.466 182.088 587.544 182.964 587.544 184.32V189H586.194V184.356C586.194 183.06 586.074 182.184 585.834 181.728C585.606 181.26 585.096 181.026 584.304 181.026C583.92 181.026 583.524 181.086 583.116 181.206C582.72 181.314 582.414 181.422 582.198 181.53L581.892 181.692V189ZM595.193 184.482C595.193 182.838 595.487 181.65 596.075 180.918C596.663 180.186 597.653 179.82 599.045 179.82C600.449 179.82 601.439 180.186 602.015 180.918C602.603 181.65 602.897 182.838 602.897 184.482C602.897 186.126 602.621 187.32 602.069 188.064C601.517 188.808 600.509 189.18 599.045 189.18C597.581 189.18 596.573 188.808 596.021 188.064C595.469 187.32 595.193 186.126 595.193 184.482ZM596.579 184.464C596.579 185.772 596.735 186.69 597.047 187.218C597.371 187.746 598.037 188.01 599.045 188.01C600.065 188.01 600.731 187.752 601.043 187.236C601.355 186.708 601.511 185.784 601.511 184.464C601.511 183.144 601.337 182.238 600.989 181.746C600.641 181.242 599.993 180.99 599.045 180.99C598.109 180.99 597.461 181.242 597.101 181.746C596.753 182.238 596.579 183.144 596.579 184.464ZM612.011 176.076V189H610.679V188.388C609.755 188.916 608.843 189.18 607.943 189.18C607.463 189.18 607.043 189.12 606.683 189C606.323 188.88 605.987 188.664 605.675 188.352C605.027 187.704 604.703 186.51 604.703 184.77C604.703 183.018 604.991 181.758 605.567 180.99C606.155 180.21 607.121 179.82 608.465 179.82C609.161 179.82 609.899 179.898 610.679 180.054V176.076H612.011ZM606.719 187.38C606.911 187.608 607.115 187.764 607.331 187.848C607.547 187.932 607.823 187.974 608.159 187.974C608.507 187.974 608.891 187.92 609.311 187.812C609.743 187.692 610.079 187.578 610.319 187.47L610.679 187.308V181.206C609.911 181.062 609.197 180.99 608.537 180.99C607.625 180.99 606.989 181.284 606.629 181.872C606.269 182.448 606.089 183.348 606.089 184.572C606.089 185.964 606.299 186.9 606.719 187.38ZM623.243 181.17H620.381V185.472C620.381 186.504 620.453 187.182 620.597 187.506C620.753 187.83 621.113 187.992 621.677 187.992L623.279 187.884L623.369 189C622.565 189.132 621.953 189.198 621.533 189.198C620.597 189.198 619.949 188.97 619.589 188.514C619.229 188.058 619.049 187.188 619.049 185.904V181.17H617.771V180H619.049V177.246H620.381V180H623.243V181.17ZM631.012 187.884L631.534 187.83L631.57 188.892C630.202 189.084 629.032 189.18 628.06 189.18C626.764 189.18 625.846 188.808 625.306 188.064C624.766 187.308 624.496 186.138 624.496 184.554C624.496 181.398 625.75 179.82 628.258 179.82C629.47 179.82 630.376 180.162 630.976 180.846C631.576 181.518 631.876 182.58 631.876 184.032L631.804 185.058H625.864C625.864 186.054 626.044 186.792 626.404 187.272C626.764 187.752 627.388 187.992 628.276 187.992C629.176 187.992 630.088 187.956 631.012 187.884ZM630.526 183.978C630.526 182.874 630.346 182.094 629.986 181.638C629.638 181.182 629.062 180.954 628.258 180.954C627.466 180.954 626.866 181.194 626.458 181.674C626.062 182.154 625.858 182.922 625.846 183.978H630.526ZM635.33 189H633.98V180H635.312V180.63C636.212 180.09 637.088 179.82 637.94 179.82C639.056 179.82 639.836 180.126 640.28 180.738C640.676 180.498 641.186 180.288 641.81 180.108C642.446 179.916 643.004 179.82 643.484 179.82C644.684 179.82 645.488 180.144 645.896 180.792C646.316 181.428 646.526 182.58 646.526 184.248V189H645.176V184.284C645.176 183.036 645.056 182.184 644.816 181.728C644.576 181.26 644.066 181.026 643.286 181.026C642.89 181.026 642.482 181.086 642.062 181.206C641.642 181.314 641.318 181.422 641.09 181.53L640.748 181.692C640.904 182.088 640.982 182.964 640.982 184.32V189H639.632V184.356C639.632 183.06 639.512 182.184 639.272 181.728C639.044 181.26 638.534 181.026 637.742 181.026C637.358 181.026 636.962 181.086 636.554 181.206C636.158 181.314 635.852 181.422 635.636 181.53L635.33 181.692V189ZM649.026 192.996V180H650.358V180.648C651.27 180.096 652.17 179.82 653.058 179.82C654.198 179.82 655.026 180.186 655.542 180.918C656.058 181.638 656.316 182.832 656.316 184.5C656.316 186.168 656.01 187.368 655.398 188.1C654.798 188.82 653.796 189.18 652.392 189.18C651.66 189.18 650.988 189.114 650.376 188.982V192.996H649.026ZM652.86 181.026C652.5 181.026 652.11 181.086 651.69 181.206C651.282 181.326 650.958 181.446 650.718 181.566L650.376 181.746V187.812C651.228 187.944 651.876 188.01 652.32 188.01C653.292 188.01 653.97 187.734 654.354 187.182C654.75 186.63 654.948 185.73 654.948 184.482C654.948 183.234 654.768 182.346 654.408 181.818C654.06 181.29 653.544 181.026 652.86 181.026ZM658.123 184.482C658.123 182.838 658.417 181.65 659.005 180.918C659.593 180.186 660.583 179.82 661.975 179.82C663.379 179.82 664.369 180.186 664.945 180.918C665.533 181.65 665.827 182.838 665.827 184.482C665.827 186.126 665.551 187.32 664.999 188.064C664.447 188.808 663.439 189.18 661.975 189.18C660.511 189.18 659.503 188.808 658.951 188.064C658.399 187.32 658.123 186.126 658.123 184.482ZM659.509 184.464C659.509 185.772 659.665 186.69 659.977 187.218C660.301 187.746 660.967 188.01 661.975 188.01C662.995 188.01 663.661 187.752 663.973 187.236C664.285 186.708 664.441 185.784 664.441 184.464C664.441 183.144 664.267 182.238 663.919 181.746C663.571 181.242 662.923 180.99 661.975 180.99C661.039 180.99 660.391 181.242 660.031 181.746C659.683 182.238 659.509 183.144 659.509 184.464ZM668.028 189V180H669.36V181.224C670.404 180.504 671.502 180.03 672.654 179.802V181.17C672.15 181.266 671.622 181.416 671.07 181.62C670.53 181.824 670.116 182.004 669.828 182.16L669.378 182.394V189H668.028ZM678.206 189V180H679.556V189H678.206ZM678.206 177.966V176.4H679.556V177.966H678.206ZM683.494 189H682.144V180H683.476V180.63C684.448 180.09 685.378 179.82 686.266 179.82C687.466 179.82 688.27 180.144 688.678 180.792C689.098 181.44 689.308 182.592 689.308 184.248V189H687.976V184.284C687.976 183.036 687.85 182.184 687.598 181.728C687.358 181.26 686.836 181.026 686.032 181.026C685.648 181.026 685.24 181.086 684.808 181.206C684.388 181.314 684.064 181.422 683.836 181.53L683.494 181.692V189ZM695.178 179.82C695.574 179.82 696.246 179.892 697.194 180.036L697.626 180.09L697.572 181.188C696.612 181.08 695.904 181.026 695.448 181.026C694.428 181.026 693.732 181.272 693.36 181.764C693 182.244 692.82 183.144 692.82 184.464C692.82 185.772 692.988 186.684 693.324 187.2C693.672 187.716 694.386 187.974 695.466 187.974L697.59 187.812L697.644 188.928C696.528 189.096 695.694 189.18 695.142 189.18C693.738 189.18 692.766 188.82 692.226 188.1C691.698 187.38 691.434 186.168 691.434 184.464C691.434 182.748 691.722 181.548 692.298 180.864C692.874 180.168 693.834 179.82 695.178 179.82ZM699.651 189V180H701.001V189H699.651ZM699.651 177.966V176.4H701.001V177.966H699.651ZM710.501 176.076V189H709.169V188.388C708.245 188.916 707.333 189.18 706.433 189.18C705.953 189.18 705.533 189.12 705.173 189C704.813 188.88 704.477 188.664 704.165 188.352C703.517 187.704 703.193 186.51 703.193 184.77C703.193 183.018 703.481 181.758 704.057 180.99C704.645 180.21 705.611 179.82 706.955 179.82C707.651 179.82 708.389 179.898 709.169 180.054V176.076H710.501ZM705.209 187.38C705.401 187.608 705.605 187.764 705.821 187.848C706.037 187.932 706.313 187.974 706.649 187.974C706.997 187.974 707.381 187.92 707.801 187.812C708.233 187.692 708.569 187.578 708.809 187.47L709.169 187.308V181.206C708.401 181.062 707.687 180.99 707.027 180.99C706.115 180.99 705.479 181.284 705.119 181.872C704.759 182.448 704.579 183.348 704.579 184.572C704.579 185.964 704.789 186.9 705.209 187.38ZM713.116 189V180H714.466V189H713.116ZM713.116 177.966V176.4H714.466V177.966H713.116ZM723.966 176.076V189H722.634V188.388C721.71 188.916 720.798 189.18 719.898 189.18C719.418 189.18 718.998 189.12 718.638 189C718.278 188.88 717.942 188.664 717.63 188.352C716.982 187.704 716.658 186.51 716.658 184.77C716.658 183.018 716.946 181.758 717.522 180.99C718.11 180.21 719.076 179.82 720.42 179.82C721.116 179.82 721.854 179.898 722.634 180.054V176.076H723.966ZM718.674 187.38C718.866 187.608 719.07 187.764 719.286 187.848C719.502 187.932 719.778 187.974 720.114 187.974C720.462 187.974 720.846 187.92 721.266 187.812C721.698 187.692 722.034 187.578 722.274 187.47L722.634 187.308V181.206C721.866 181.062 721.152 180.99 720.492 180.99C719.58 180.99 718.944 181.284 718.584 181.872C718.224 182.448 718.044 183.348 718.044 184.572C718.044 185.964 718.254 186.9 718.674 187.38ZM732.197 180H733.547V189H732.197V188.37C731.297 188.91 730.409 189.18 729.533 189.18C728.309 189.18 727.493 188.862 727.085 188.226C726.689 187.59 726.491 186.414 726.491 184.698V180H727.841V184.68C727.841 185.988 727.955 186.864 728.183 187.308C728.411 187.752 728.927 187.974 729.731 187.974C730.127 187.974 730.529 187.92 730.937 187.812C731.345 187.692 731.657 187.578 731.873 187.47L732.197 187.308V180ZM737.494 189H736.144V180H737.476V180.63C738.448 180.09 739.378 179.82 740.266 179.82C741.466 179.82 742.27 180.144 742.678 180.792C743.098 181.44 743.308 182.592 743.308 184.248V189H741.976V184.284C741.976 183.036 741.85 182.184 741.598 181.728C741.358 181.26 740.836 181.026 740.032 181.026C739.648 181.026 739.24 181.086 738.808 181.206C738.388 181.314 738.064 181.422 737.836 181.53L737.494 181.692V189ZM750.421 181.17H747.559V185.472C747.559 186.504 747.631 187.182 747.775 187.506C747.931 187.83 748.291 187.992 748.855 187.992L750.457 187.884L750.547 189C749.743 189.132 749.131 189.198 748.711 189.198C747.775 189.198 747.127 188.97 746.767 188.514C746.407 188.058 746.227 187.188 746.227 185.904V181.17H744.949V180H746.227V177.246H747.559V180H750.421V181.17ZM761.641 180H762.991V189H761.641V188.37C760.741 188.91 759.853 189.18 758.977 189.18C757.753 189.18 756.937 188.862 756.529 188.226C756.133 187.59 755.935 186.414 755.935 184.698V180H757.285V184.68C757.285 185.988 757.399 186.864 757.627 187.308C757.855 187.752 758.371 187.974 759.175 187.974C759.571 187.974 759.973 187.92 760.381 187.812C760.789 187.692 761.101 187.578 761.317 187.47L761.641 187.308V180ZM770.249 181.17H767.387V185.472C767.387 186.504 767.459 187.182 767.603 187.506C767.759 187.83 768.119 187.992 768.683 187.992L770.285 187.884L770.375 189C769.571 189.132 768.959 189.198 768.539 189.198C767.603 189.198 766.955 188.97 766.595 188.514C766.235 188.058 766.055 187.188 766.055 185.904V181.17H764.777V180H766.055V177.246H767.387V180H770.249V181.17ZM775.961 189V176.076H777.311V189H775.961ZM786.373 182.718V187.326C786.409 187.77 786.757 188.034 787.417 188.118L787.363 189.18C786.415 189.18 785.701 188.94 785.221 188.46C784.141 188.94 783.061 189.18 781.981 189.18C781.153 189.18 780.523 188.946 780.091 188.478C779.659 188.01 779.443 187.338 779.443 186.462C779.443 185.586 779.665 184.944 780.109 184.536C780.553 184.116 781.249 183.858 782.197 183.762L785.023 183.492V182.718C785.023 182.106 784.891 181.668 784.627 181.404C784.363 181.14 784.003 181.008 783.547 181.008C782.587 181.008 781.591 181.068 780.559 181.188L780.001 181.242L779.947 180.216C781.267 179.952 782.437 179.82 783.457 179.82C784.477 179.82 785.215 180.054 785.671 180.522C786.139 180.99 786.373 181.722 786.373 182.718ZM780.829 186.39C780.829 187.494 781.285 188.046 782.197 188.046C783.013 188.046 783.817 187.908 784.609 187.632L785.023 187.488V184.518L782.359 184.77C781.819 184.818 781.429 184.974 781.189 185.238C780.949 185.502 780.829 185.886 780.829 186.39ZM793.014 179.82C794.226 179.82 795.072 180.168 795.552 180.864C796.044 181.548 796.29 182.754 796.29 184.482C796.29 186.21 795.984 187.428 795.372 188.136C794.772 188.832 793.662 189.18 792.042 189.18C791.538 189.18 790.704 189.132 789.54 189.036L789.036 188.982V176.076H790.368V180.45C791.28 180.03 792.162 179.82 793.014 179.82ZM792.024 187.974C793.2 187.974 793.974 187.71 794.346 187.182C794.73 186.642 794.922 185.736 794.922 184.464C794.922 183.192 794.772 182.304 794.472 181.8C794.172 181.284 793.638 181.026 792.87 181.026C792.174 181.026 791.46 181.158 790.728 181.422L790.368 181.548V187.884C791.148 187.944 791.7 187.974 792.024 187.974ZM798.115 184.482C798.115 182.838 798.409 181.65 798.997 180.918C799.585 180.186 800.575 179.82 801.967 179.82C803.371 179.82 804.361 180.186 804.937 180.918C805.525 181.65 805.819 182.838 805.819 184.482C805.819 186.126 805.543 187.32 804.991 188.064C804.439 188.808 803.431 189.18 801.967 189.18C800.503 189.18 799.495 188.808 798.943 188.064C798.391 187.32 798.115 186.126 798.115 184.482ZM799.501 184.464C799.501 185.772 799.657 186.69 799.969 187.218C800.293 187.746 800.959 188.01 801.967 188.01C802.987 188.01 803.653 187.752 803.965 187.236C804.277 186.708 804.433 185.784 804.433 184.464C804.433 183.144 804.259 182.238 803.911 181.746C803.563 181.242 802.915 180.99 801.967 180.99C801.031 180.99 800.383 181.242 800.023 181.746C799.675 182.238 799.501 183.144 799.501 184.464ZM808.021 189V180H809.353V181.224C810.397 180.504 811.495 180.03 812.647 179.802V181.17C812.143 181.266 811.615 181.416 811.063 181.62C810.523 181.824 810.109 182.004 809.821 182.16L809.371 182.394V189H808.021ZM820.187 187.884L820.709 187.83L820.745 188.892C819.377 189.084 818.207 189.18 817.235 189.18C815.939 189.18 815.021 188.808 814.481 188.064C813.941 187.308 813.671 186.138 813.671 184.554C813.671 181.398 814.925 179.82 817.433 179.82C818.645 179.82 819.551 180.162 820.151 180.846C820.751 181.518 821.051 182.58 821.051 184.032L820.979 185.058H815.039C815.039 186.054 815.219 186.792 815.579 187.272C815.939 187.752 816.563 187.992 817.451 187.992C818.351 187.992 819.263 187.956 820.187 187.884ZM819.701 183.978C819.701 182.874 819.521 182.094 819.161 181.638C818.813 181.182 818.237 180.954 817.433 180.954C816.641 180.954 816.041 181.194 815.633 181.674C815.237 182.154 815.033 182.922 815.021 183.978H819.701ZM833.23 187.884L833.752 187.83L833.788 188.892C832.42 189.084 831.25 189.18 830.278 189.18C828.982 189.18 828.064 188.808 827.524 188.064C826.984 187.308 826.714 186.138 826.714 184.554C826.714 181.398 827.968 179.82 830.476 179.82C831.688 179.82 832.594 180.162 833.194 180.846C833.794 181.518 834.094 182.58 834.094 184.032L834.022 185.058H828.082C828.082 186.054 828.262 186.792 828.622 187.272C828.982 187.752 829.606 187.992 830.494 187.992C831.394 187.992 832.306 187.956 833.23 187.884ZM832.744 183.978C832.744 182.874 832.564 182.094 832.204 181.638C831.856 181.182 831.28 180.954 830.476 180.954C829.684 180.954 829.084 181.194 828.676 181.674C828.28 182.154 828.076 182.922 828.064 183.978H832.744ZM840.808 181.17H837.946V185.472C837.946 186.504 838.018 187.182 838.162 187.506C838.318 187.83 838.678 187.992 839.242 187.992L840.844 187.884L840.934 189C840.13 189.132 839.518 189.198 839.098 189.198C838.162 189.198 837.514 188.97 837.154 188.514C836.794 188.058 836.614 187.188 836.614 185.904V181.17H835.336V180H836.614V177.246H837.946V180H840.808V181.17ZM853.323 176.076V189H851.991V188.388C851.067 188.916 850.155 189.18 849.255 189.18C848.775 189.18 848.355 189.12 847.995 189C847.635 188.88 847.299 188.664 846.987 188.352C846.339 187.704 846.015 186.51 846.015 184.77C846.015 183.018 846.303 181.758 846.879 180.99C847.467 180.21 848.433 179.82 849.777 179.82C850.473 179.82 851.211 179.898 851.991 180.054V176.076H853.323ZM848.031 187.38C848.223 187.608 848.427 187.764 848.643 187.848C848.859 187.932 849.135 187.974 849.471 187.974C849.819 187.974 850.203 187.92 850.623 187.812C851.055 187.692 851.391 187.578 851.631 187.47L851.991 187.308V181.206C851.223 181.062 850.509 180.99 849.849 180.99C848.937 180.99 848.301 181.284 847.941 181.872C847.581 182.448 847.401 183.348 847.401 184.572C847.401 185.964 847.611 186.9 848.031 187.38ZM855.543 184.482C855.543 182.838 855.837 181.65 856.425 180.918C857.013 180.186 858.003 179.82 859.395 179.82C860.799 179.82 861.789 180.186 862.365 180.918C862.953 181.65 863.247 182.838 863.247 184.482C863.247 186.126 862.971 187.32 862.419 188.064C861.867 188.808 860.859 189.18 859.395 189.18C857.931 189.18 856.923 188.808 856.371 188.064C855.819 187.32 855.543 186.126 855.543 184.482ZM856.929 184.464C856.929 185.772 857.085 186.69 857.397 187.218C857.721 187.746 858.387 188.01 859.395 188.01C860.415 188.01 861.081 187.752 861.393 187.236C861.705 186.708 861.861 185.784 861.861 184.464C861.861 183.144 861.687 182.238 861.339 181.746C860.991 181.242 860.343 180.99 859.395 180.99C858.459 180.99 857.811 181.242 857.451 181.746C857.103 182.238 856.929 183.144 856.929 184.464ZM865.556 189V176.076H866.906V189H865.556ZM869.218 184.482C869.218 182.838 869.512 181.65 870.1 180.918C870.688 180.186 871.678 179.82 873.07 179.82C874.474 179.82 875.464 180.186 876.04 180.918C876.628 181.65 876.922 182.838 876.922 184.482C876.922 186.126 876.646 187.32 876.094 188.064C875.542 188.808 874.534 189.18 873.07 189.18C871.606 189.18 870.598 188.808 870.046 188.064C869.494 187.32 869.218 186.126 869.218 184.482ZM870.604 184.464C870.604 185.772 870.76 186.69 871.072 187.218C871.396 187.746 872.062 188.01 873.07 188.01C874.09 188.01 874.756 187.752 875.068 187.236C875.38 186.708 875.536 185.784 875.536 184.464C875.536 183.144 875.362 182.238 875.014 181.746C874.666 181.242 874.018 180.99 873.07 180.99C872.134 180.99 871.486 181.242 871.126 181.746C870.778 182.238 870.604 183.144 870.604 184.464ZM879.124 189V180H880.456V181.224C881.5 180.504 882.598 180.03 883.75 179.802V181.17C883.246 181.266 882.718 181.416 882.166 181.62C881.626 181.824 881.212 182.004 880.924 182.16L880.474 182.394V189H879.124ZM891.291 187.884L891.813 187.83L891.849 188.892C890.481 189.084 889.311 189.18 888.339 189.18C887.043 189.18 886.125 188.808 885.585 188.064C885.045 187.308 884.775 186.138 884.775 184.554C884.775 181.398 886.029 179.82 888.537 179.82C889.749 179.82 890.655 180.162 891.255 180.846C891.855 181.518 892.155 182.58 892.155 184.032L892.083 185.058H886.143C886.143 186.054 886.323 186.792 886.683 187.272C887.043 187.752 887.667 187.992 888.555 187.992C889.455 187.992 890.367 187.956 891.291 187.884ZM890.805 183.978C890.805 182.874 890.625 182.094 890.265 181.638C889.917 181.182 889.341 180.954 888.537 180.954C887.745 180.954 887.145 181.194 886.737 181.674C886.341 182.154 886.137 182.922 886.125 183.978H890.805ZM77.646 213H76.296V204H77.628V204.63C78.528 204.09 79.404 203.82 80.256 203.82C81.372 203.82 82.152 204.126 82.596 204.738C82.992 204.498 83.502 204.288 84.126 204.108C84.762 203.916 85.32 203.82 85.8 203.82C87 203.82 87.804 204.144 88.212 204.792C88.632 205.428 88.842 206.58 88.842 208.248V213H87.492V208.284C87.492 207.036 87.372 206.184 87.132 205.728C86.892 205.26 86.382 205.026 85.602 205.026C85.206 205.026 84.798 205.086 84.378 205.206C83.958 205.314 83.634 205.422 83.406 205.53L83.064 205.692C83.22 206.088 83.298 206.964 83.298 208.32V213H81.948V208.356C81.948 207.06 81.828 206.184 81.588 205.728C81.36 205.26 80.85 205.026 80.058 205.026C79.674 205.026 79.278 205.086 78.87 205.206C78.474 205.314 78.168 205.422 77.952 205.53L77.646 205.692V213ZM97.6969 206.718V211.326C97.7329 211.77 98.0809 212.034 98.7409 212.118L98.6869 213.18C97.7389 213.18 97.0249 212.94 96.5449 212.46C95.4649 212.94 94.3849 213.18 93.3049 213.18C92.4769 213.18 91.8469 212.946 91.4149 212.478C90.9829 212.01 90.7669 211.338 90.7669 210.462C90.7669 209.586 90.9889 208.944 91.4329 208.536C91.8769 208.116 92.5729 207.858 93.5209 207.762L96.3469 207.492V206.718C96.3469 206.106 96.2149 205.668 95.9509 205.404C95.6869 205.14 95.3269 205.008 94.8709 205.008C93.9109 205.008 92.9149 205.068 91.8829 205.188L91.3249 205.242L91.2709 204.216C92.5909 203.952 93.7609 203.82 94.7809 203.82C95.8009 203.82 96.5389 204.054 96.9949 204.522C97.4629 204.99 97.6969 205.722 97.6969 206.718ZM92.1529 210.39C92.1529 211.494 92.6089 212.046 93.5209 212.046C94.3369 212.046 95.1409 211.908 95.9329 211.632L96.3469 211.488V208.518L93.6829 208.77C93.1429 208.818 92.7529 208.974 92.5129 209.238C92.2729 209.502 92.1529 209.886 92.1529 210.39ZM103.834 217.23C102.394 217.23 101.386 217.032 100.81 216.636C100.246 216.252 99.9645 215.544 99.9645 214.512C99.9645 214.02 100.072 213.618 100.288 213.306C100.504 213.006 100.87 212.664 101.386 212.28C101.05 212.052 100.882 211.638 100.882 211.038C100.882 210.834 101.032 210.456 101.332 209.904L101.494 209.616C100.546 209.184 100.072 208.278 100.072 206.898C100.072 204.846 101.194 203.82 103.438 203.82C104.014 203.82 104.548 203.88 105.04 204L105.31 204.054L107.974 203.982V205.134L106.264 205.098C106.66 205.494 106.858 206.094 106.858 206.898C106.858 208.026 106.576 208.818 106.012 209.274C105.46 209.718 104.584 209.94 103.384 209.94C103.06 209.94 102.766 209.916 102.502 209.868C102.286 210.396 102.178 210.738 102.178 210.894C102.178 211.266 102.292 211.5 102.52 211.596C102.748 211.68 103.438 211.722 104.59 211.722C105.742 211.722 106.57 211.902 107.074 212.262C107.578 212.622 107.83 213.324 107.83 214.368C107.83 216.276 106.498 217.23 103.834 217.23ZM101.296 214.404C101.296 215.04 101.47 215.478 101.818 215.718C102.178 215.97 102.832 216.096 103.78 216.096C104.74 216.096 105.424 215.964 105.832 215.7C106.252 215.436 106.462 214.992 106.462 214.368C106.462 213.756 106.312 213.36 106.012 213.18C105.712 213 105.124 212.91 104.248 212.91L102.304 212.82C101.908 213.108 101.638 213.36 101.494 213.576C101.362 213.792 101.296 214.068 101.296 214.404ZM101.422 206.898C101.422 207.606 101.578 208.11 101.89 208.41C102.214 208.71 102.742 208.86 103.474 208.86C104.206 208.86 104.728 208.71 105.04 208.41C105.352 208.11 105.508 207.606 105.508 206.898C105.508 206.178 105.352 205.668 105.04 205.368C104.728 205.068 104.206 204.918 103.474 204.918C102.742 204.918 102.214 205.074 101.89 205.386C101.578 205.686 101.422 206.19 101.422 206.898ZM110.957 213H109.607V204H110.939V204.63C111.911 204.09 112.841 203.82 113.729 203.82C114.929 203.82 115.733 204.144 116.141 204.792C116.561 205.44 116.771 206.592 116.771 208.248V213H115.439V208.284C115.439 207.036 115.313 206.184 115.061 205.728C114.821 205.26 114.299 205.026 113.495 205.026C113.111 205.026 112.703 205.086 112.271 205.206C111.851 205.314 111.527 205.422 111.299 205.53L110.957 205.692V213ZM125.629 206.718V211.326C125.665 211.77 126.013 212.034 126.673 212.118L126.619 213.18C125.671 213.18 124.957 212.94 124.477 212.46C123.397 212.94 122.317 213.18 121.237 213.18C120.409 213.18 119.779 212.946 119.347 212.478C118.915 212.01 118.699 211.338 118.699 210.462C118.699 209.586 118.921 208.944 119.365 208.536C119.809 208.116 120.505 207.858 121.453 207.762L124.279 207.492V206.718C124.279 206.106 124.147 205.668 123.883 205.404C123.619 205.14 123.259 205.008 122.803 205.008C121.843 205.008 120.847 205.068 119.815 205.188L119.257 205.242L119.203 204.216C120.523 203.952 121.693 203.82 122.713 203.82C123.733 203.82 124.471 204.054 124.927 204.522C125.395 204.99 125.629 205.722 125.629 206.718ZM120.085 210.39C120.085 211.494 120.541 212.046 121.453 212.046C122.269 212.046 123.073 211.908 123.865 211.632L124.279 211.488V208.518L121.615 208.77C121.075 208.818 120.685 208.974 120.445 209.238C120.205 209.502 120.085 209.886 120.085 210.39ZM138.601 206.718V211.326C138.637 211.77 138.985 212.034 139.645 212.118L139.591 213.18C138.643 213.18 137.929 212.94 137.449 212.46C136.369 212.94 135.289 213.18 134.209 213.18C133.381 213.18 132.751 212.946 132.319 212.478C131.887 212.01 131.671 211.338 131.671 210.462C131.671 209.586 131.893 208.944 132.337 208.536C132.781 208.116 133.477 207.858 134.425 207.762L137.251 207.492V206.718C137.251 206.106 137.119 205.668 136.855 205.404C136.591 205.14 136.231 205.008 135.775 205.008C134.815 205.008 133.819 205.068 132.787 205.188L132.229 205.242L132.175 204.216C133.495 203.952 134.665 203.82 135.685 203.82C136.705 203.82 137.443 204.054 137.899 204.522C138.367 204.99 138.601 205.722 138.601 206.718ZM133.057 210.39C133.057 211.494 133.513 212.046 134.425 212.046C135.241 212.046 136.045 211.908 136.837 211.632L137.251 211.488V208.518L134.587 208.77C134.047 208.818 133.657 208.974 133.417 209.238C133.177 209.502 133.057 209.886 133.057 210.39ZM141.373 213V200.076H142.723V213H141.373ZM145.431 213V204H146.781V213H145.431ZM145.431 201.966V200.4H146.781V201.966H145.431ZM152.356 213.18C151.144 213.18 150.274 212.826 149.746 212.118C149.23 211.41 148.972 210.21 148.972 208.518C148.972 206.826 149.284 205.62 149.908 204.9C150.532 204.18 151.636 203.82 153.22 203.82L156.226 204V216.996H154.894V212.586C154.054 212.982 153.208 213.18 152.356 213.18ZM153.238 204.99C152.11 204.99 151.342 205.272 150.934 205.836C150.538 206.4 150.34 207.3 150.34 208.536C150.34 209.76 150.502 210.642 150.826 211.182C151.162 211.71 151.72 211.974 152.5 211.974C153.196 211.974 153.886 211.842 154.57 211.578L154.894 211.452V205.098C154.15 205.026 153.598 204.99 153.238 204.99ZM164.459 204H165.809V213H164.459V212.37C163.559 212.91 162.671 213.18 161.795 213.18C160.571 213.18 159.755 212.862 159.347 212.226C158.951 211.59 158.753 210.414 158.753 208.698V204H160.103V208.68C160.103 209.988 160.217 210.864 160.445 211.308C160.673 211.752 161.189 211.974 161.993 211.974C162.389 211.974 162.791 211.92 163.199 211.812C163.607 211.692 163.919 211.578 164.135 211.47L164.459 211.308V204ZM174.759 206.718V211.326C174.795 211.77 175.143 212.034 175.803 212.118L175.749 213.18C174.801 213.18 174.087 212.94 173.607 212.46C172.527 212.94 171.447 213.18 170.367 213.18C169.539 213.18 168.909 212.946 168.477 212.478C168.045 212.01 167.829 211.338 167.829 210.462C167.829 209.586 168.051 208.944 168.495 208.536C168.939 208.116 169.635 207.858 170.583 207.762L173.409 207.492V206.718C173.409 206.106 173.277 205.668 173.013 205.404C172.749 205.14 172.389 205.008 171.933 205.008C170.973 205.008 169.977 205.068 168.945 205.188L168.387 205.242L168.333 204.216C169.653 203.952 170.823 203.82 171.843 203.82C172.863 203.82 173.601 204.054 174.057 204.522C174.525 204.99 174.759 205.722 174.759 206.718ZM169.215 210.39C169.215 211.494 169.671 212.046 170.583 212.046C171.399 212.046 172.203 211.908 172.995 211.632L173.409 211.488V208.518L170.745 208.77C170.205 208.818 169.815 208.974 169.575 209.238C169.335 209.502 169.215 209.886 169.215 210.39ZM177.333 213V210.948H178.809V213H177.333Z" fill="#334155"/>
<path d="M76.4124 261.04H80.5724C81.6924 261.04 82.5298 261.269 83.0844 261.728C83.6391 262.176 83.9164 262.896 83.9164 263.888C83.9164 264.539 83.8098 265.051 83.5964 265.424C83.3938 265.797 83.0684 266.107 82.6204 266.352C83.6658 266.757 84.1884 267.605 84.1884 268.896C84.1884 270.965 83.0258 272 80.7004 272H76.4124V261.04ZM80.5724 267.216H78.1884V270.464H80.6044C81.1911 270.464 81.6284 270.341 81.9164 270.096C82.2151 269.851 82.3644 269.429 82.3644 268.832C82.3644 268.235 82.1938 267.819 81.8524 267.584C81.5111 267.339 81.0844 267.216 80.5724 267.216ZM80.4764 262.576H78.1884V265.712H80.5404C81.5858 265.712 82.1084 265.173 82.1084 264.096C82.1084 263.083 81.5644 262.576 80.4764 262.576ZM90.8493 264H92.5773V272H90.8493V271.504C90.0706 271.952 89.3506 272.176 88.6893 272.176C87.5906 272.176 86.8546 271.883 86.4813 271.296C86.108 270.699 85.9213 269.659 85.9213 268.176V264H87.6653V268.192C87.6653 269.152 87.7453 269.797 87.9053 270.128C88.0653 270.459 88.4386 270.624 89.0253 270.624C89.6013 270.624 90.1293 270.517 90.6093 270.304L90.8493 270.208V264ZM98.9928 265.488H96.7848V269.008C96.7848 269.659 96.8328 270.091 96.9288 270.304C97.0248 270.517 97.2701 270.624 97.6648 270.624L98.9768 270.576L99.0568 271.968C98.3421 272.107 97.7981 272.176 97.4248 272.176C96.5181 272.176 95.8941 271.968 95.5528 271.552C95.2221 271.136 95.0568 270.352 95.0568 269.2V265.488H94.0328V264H95.0568V261.68H96.7848V264H98.9928V265.488ZM104.727 265.488H102.519V269.008C102.519 269.659 102.567 270.091 102.663 270.304C102.759 270.517 103.005 270.624 103.399 270.624L104.711 270.576L104.791 271.968C104.077 272.107 103.533 272.176 103.159 272.176C102.253 272.176 101.629 271.968 101.287 271.552C100.957 271.136 100.791 270.352 100.791 269.2V265.488H99.7672V264H100.791V261.68H102.519V264H104.727V265.488ZM106.59 264.864C107.144 264.171 108.062 263.824 109.342 263.824C110.622 263.824 111.534 264.171 112.078 264.864C112.632 265.557 112.91 266.597 112.91 267.984C112.91 269.371 112.643 270.416 112.11 271.12C111.576 271.824 110.654 272.176 109.342 272.176C108.03 272.176 107.107 271.824 106.574 271.12C106.04 270.416 105.774 269.371 105.774 267.984C105.774 266.597 106.046 265.557 106.59 264.864ZM107.902 270.064C108.147 270.491 108.627 270.704 109.342 270.704C110.056 270.704 110.536 270.491 110.782 270.064C111.027 269.637 111.15 268.939 111.15 267.968C111.15 266.997 111.016 266.309 110.75 265.904C110.494 265.499 110.024 265.296 109.342 265.296C108.659 265.296 108.184 265.499 107.918 265.904C107.662 266.309 107.534 266.997 107.534 267.968C107.534 268.939 107.656 269.637 107.902 270.064ZM116.386 272H114.642V264H116.37V264.496C117.149 264.048 117.885 263.824 118.578 263.824C119.645 263.824 120.37 264.128 120.754 264.736C121.149 265.333 121.346 266.325 121.346 267.712V272H119.618V267.76C119.618 266.896 119.522 266.283 119.33 265.92C119.149 265.557 118.77 265.376 118.194 265.376C117.65 265.376 117.127 265.483 116.626 265.696L116.386 265.792V272ZM131.196 265.488H128.988V269.008C128.988 269.659 129.036 270.091 129.132 270.304C129.228 270.517 129.473 270.624 129.868 270.624L131.18 270.576L131.26 271.968C130.545 272.107 130.001 272.176 129.628 272.176C128.721 272.176 128.097 271.968 127.756 271.552C127.425 271.136 127.26 270.352 127.26 269.2V265.488H126.236V264H127.26V261.68H128.988V264H131.196V265.488ZM138.322 270.56L138.77 270.512L138.802 271.808C137.586 272.053 136.509 272.176 135.57 272.176C134.386 272.176 133.533 271.851 133.01 271.2C132.498 270.549 132.242 269.509 132.242 268.08C132.242 265.243 133.4 263.824 135.714 263.824C137.954 263.824 139.074 265.045 139.074 267.488L138.962 268.736H134.002C134.013 269.397 134.157 269.883 134.434 270.192C134.712 270.501 135.229 270.656 135.986 270.656C136.744 270.656 137.522 270.624 138.322 270.56ZM137.362 267.392C137.362 266.603 137.234 266.053 136.978 265.744C136.733 265.424 136.312 265.264 135.714 265.264C135.117 265.264 134.68 265.429 134.402 265.76C134.136 266.091 133.997 266.635 133.986 267.392H137.362ZM139.983 264H141.839L143.407 266.768L144.991 264H146.847L144.463 267.936L146.847 272H144.991L143.407 269.264L141.839 272H139.983L142.303 267.984L139.983 264ZM152.477 265.488H150.269V269.008C150.269 269.659 150.317 270.091 150.413 270.304C150.509 270.517 150.755 270.624 151.149 270.624L152.461 270.576L152.541 271.968C151.827 272.107 151.283 272.176 150.909 272.176C150.003 272.176 149.379 271.968 149.037 271.552C148.707 271.136 148.541 270.352 148.541 269.2V265.488H147.517V264H148.541V261.68H150.269V264H152.477V265.488Z" fill="#0066CC"/>
<path d="M75.1484 273.76H152.845V274.24H75.1484V273.76Z" fill="#0066CC"/>
<path d="M168.5 273L173.093 267.237C173.636 266.557 173.636 265.443 173.093 264.763L168.5 259" stroke="#0066CC" stroke-width="1.5" stroke-miterlimit="10" stroke-linecap="round" stroke-linejoin="round"/>
</g>
<g filter="url(#filter1_d_732_80201)">
<rect x="575.879" y="347" width="60.3832" height="53.3832" rx="6.69159" fill="white" shape-rendering="crispEdges"/>
<path d="M586.358 361.036C585.385 361.036 584.899 361.357 584.899 362C584.899 362.285 585.019 362.504 585.26 362.656C585.501 362.807 586.063 363.026 586.947 363.311C587.839 363.597 588.463 363.923 588.82 364.288C589.177 364.645 589.356 365.198 589.356 365.948C589.356 366.903 589.066 367.625 588.486 368.116C587.906 368.607 587.147 368.852 586.211 368.852C585.515 368.852 584.663 368.745 583.654 368.531L583.173 368.437L583.36 367.005C584.555 367.166 585.47 367.246 586.103 367.246C587.049 367.246 587.522 366.853 587.522 366.068C587.522 365.783 587.411 365.56 587.188 365.399C586.973 365.239 586.541 365.065 585.889 364.877C584.854 364.583 584.123 364.235 583.694 363.833C583.275 363.423 583.065 362.856 583.065 362.134C583.065 361.224 583.342 360.546 583.895 360.099C584.448 359.653 585.207 359.43 586.17 359.43C586.831 359.43 587.669 359.519 588.686 359.698L589.168 359.792L589.021 361.25C587.763 361.108 586.875 361.036 586.358 361.036ZM592.473 368.691H590.68V359.323H592.473V362.321C593.089 362 593.642 361.839 594.133 361.839C595.025 361.839 595.64 362.102 595.98 362.629C596.319 363.155 596.488 363.967 596.488 365.065V368.691H594.695V365.105C594.695 364.543 594.628 364.128 594.494 363.86C594.36 363.583 594.092 363.445 593.691 363.445C593.343 363.445 592.995 363.499 592.647 363.606L592.473 363.659V368.691ZM603.203 364.088V366.871C603.221 367.085 603.256 367.237 603.31 367.326C603.363 367.407 603.475 367.465 603.645 367.5L603.591 368.852C603.136 368.852 602.77 368.821 602.494 368.758C602.226 368.696 601.954 368.571 601.677 368.384C601.035 368.696 600.379 368.852 599.71 368.852C598.327 368.852 597.635 368.12 597.635 366.657C597.635 365.943 597.827 365.439 598.211 365.145C598.595 364.842 599.183 364.663 599.978 364.61L601.41 364.502V364.088C601.41 363.811 601.347 363.624 601.222 363.526C601.097 363.418 600.897 363.365 600.62 363.365L598.104 363.472L598.05 362.227C599.005 361.969 599.911 361.839 600.767 361.839C601.633 361.839 602.253 362.018 602.627 362.375C603.011 362.731 603.203 363.302 603.203 364.088ZM600.192 365.854C599.692 365.899 599.442 366.166 599.442 366.657C599.442 367.148 599.661 367.393 600.098 367.393C600.437 367.393 600.807 367.34 601.209 367.233L601.41 367.179V365.747L600.192 365.854ZM610.6 359.323V368.691H608.82V368.41C608.196 368.705 607.656 368.852 607.201 368.852C606.228 368.852 605.55 368.571 605.167 368.009C604.783 367.447 604.591 366.559 604.591 365.346C604.591 364.123 604.819 363.236 605.274 362.682C605.738 362.12 606.434 361.839 607.362 361.839C607.647 361.839 608.044 361.884 608.553 361.973L608.807 362.027V359.323H610.6ZM608.62 367.085L608.807 367.045V363.526C608.316 363.436 607.879 363.392 607.495 363.392C606.773 363.392 606.411 364.034 606.411 365.319C606.411 366.015 606.492 366.51 606.652 366.804C606.813 367.099 607.076 367.246 607.442 367.246C607.817 367.246 608.209 367.192 608.62 367.085ZM612.619 362.763C613.092 362.147 613.881 361.839 614.988 361.839C616.094 361.839 616.884 362.147 617.357 362.763C617.829 363.369 618.066 364.226 618.066 365.332C618.066 367.679 617.04 368.852 614.988 368.852C612.936 368.852 611.91 367.679 611.91 365.332C611.91 364.226 612.146 363.369 612.619 362.763ZM613.997 366.845C614.185 367.166 614.515 367.326 614.988 367.326C615.461 367.326 615.786 367.166 615.965 366.845C616.152 366.523 616.246 366.019 616.246 365.332C616.246 364.645 616.152 364.146 615.965 363.833C615.786 363.521 615.461 363.365 614.988 363.365C614.515 363.365 614.185 363.521 613.997 363.833C613.819 364.146 613.73 364.645 613.73 365.332C613.73 366.019 613.819 366.523 613.997 366.845ZM618.872 362H620.638L621.455 367.166H621.776L622.793 362.134H624.64L625.657 367.166H625.978L626.795 362H628.561L627.29 368.691H624.479L623.717 364.596L622.954 368.691H620.143L618.872 362ZM586.264 380.193C584.926 380.193 584.257 380.697 584.257 381.705C584.257 382.267 584.408 382.656 584.712 382.87C585.024 383.075 585.648 383.285 586.585 383.499C587.531 383.704 588.2 383.976 588.593 384.315C588.985 384.645 589.182 385.194 589.182 385.961C589.182 387.862 588.196 388.812 586.224 388.812C585.573 388.812 584.756 388.736 583.775 388.584L583.293 388.517L583.4 387.661C584.613 387.821 585.537 387.902 586.17 387.902C587.491 387.902 588.151 387.282 588.151 386.042C588.151 385.542 588.004 385.185 587.709 384.971C587.424 384.748 586.884 384.56 586.09 384.409C585.046 384.186 584.306 383.9 583.868 383.552C583.431 383.195 583.213 382.602 583.213 381.772C583.213 380.113 584.208 379.283 586.197 379.283C586.848 379.283 587.629 379.35 588.539 379.484L588.994 379.551L588.901 380.421C587.66 380.269 586.782 380.193 586.264 380.193ZM591.791 388.691H590.787V382H591.778V382.468C592.447 382.067 593.098 381.866 593.732 381.866C594.562 381.866 595.141 382.094 595.472 382.549C595.766 382.37 596.145 382.214 596.609 382.08C597.082 381.937 597.497 381.866 597.854 381.866C598.746 381.866 599.344 382.107 599.647 382.589C599.959 383.062 600.116 383.918 600.116 385.158V388.691H599.112V385.185C599.112 384.257 599.023 383.624 598.844 383.285C598.666 382.937 598.287 382.763 597.707 382.763C597.412 382.763 597.109 382.807 596.797 382.896C596.484 382.977 596.243 383.057 596.074 383.137L595.82 383.258C595.936 383.552 595.994 384.204 595.994 385.212V388.691H594.99V385.239C594.99 384.275 594.901 383.624 594.722 383.285C594.553 382.937 594.173 382.763 593.585 382.763C593.299 382.763 593.005 382.807 592.701 382.896C592.407 382.977 592.179 383.057 592.019 383.137L591.791 383.258V388.691ZM606.699 384.021V387.447C606.726 387.777 606.985 387.973 607.475 388.036L607.435 388.825C606.73 388.825 606.2 388.647 605.843 388.29C605.04 388.647 604.237 388.825 603.434 388.825C602.818 388.825 602.35 388.651 602.029 388.303C601.707 387.955 601.547 387.456 601.547 386.804C601.547 386.153 601.712 385.676 602.042 385.372C602.372 385.06 602.889 384.868 603.594 384.797L605.695 384.596V384.021C605.695 383.566 605.597 383.24 605.401 383.044C605.205 382.847 604.937 382.749 604.598 382.749C603.884 382.749 603.144 382.794 602.376 382.883L601.962 382.923L601.921 382.16C602.903 381.964 603.773 381.866 604.531 381.866C605.29 381.866 605.838 382.04 606.177 382.388C606.525 382.736 606.699 383.28 606.699 384.021ZM602.577 386.751C602.577 387.572 602.916 387.982 603.594 387.982C604.201 387.982 604.799 387.879 605.388 387.674L605.695 387.567V385.359L603.715 385.546C603.313 385.582 603.023 385.698 602.845 385.894C602.666 386.091 602.577 386.376 602.577 386.751ZM608.76 388.691V379.082H609.764V388.691H608.76ZM611.857 388.691V379.082H612.861V388.691H611.857Z" fill="#0E223D"/>
</g>
<path d="M519 306V374H576" stroke="#94A3B8" stroke-width="0.836448"/>
<defs>
<filter id="filter0_d_732_80201" x="49" y="50" width="885" height="268" filterUnits="userSpaceOnUse" color-interpolation-filters="sRGB">
<feFlood flood-opacity="0" result="BackgroundImageFix"/>
<feColorMatrix in="SourceAlpha" type="matrix" values="0 0 0 0 0 0 0 0 0 0 0 0 0 0 0 0 0 0 127 0" result="hardAlpha"/>
<feOffset dy="2"/>
<feGaussianBlur stdDeviation="5"/>
<feComposite in2="hardAlpha" operator="out"/>
<feColorMatrix type="matrix" values="0 0 0 0 0 0 0 0 0 0.2 0 0 0 0 0.4 0 0 0 0.1 0"/>
<feBlend mode="normal" in2="BackgroundImageFix" result="effect1_dropShadow_732_80201"/>
<feBlend mode="normal" in="SourceGraphic" in2="effect1_dropShadow_732_80201" result="shape"/>
</filter>
<filter id="filter1_d_732_80201" x="560.879" y="334" width="90.3828" height="83.3828" filterUnits="userSpaceOnUse" color-interpolation-filters="sRGB">
<feFlood flood-opacity="0" result="BackgroundImageFix"/>
<feColorMatrix in="SourceAlpha" type="matrix" values="0 0 0 0 0 0 0 0 0 0 0 0 0 0 0 0 0 0 127 0" result="hardAlpha"/>
<feOffset dy="2"/>
<feGaussianBlur stdDeviation="7.5"/>
<feComposite in2="hardAlpha" operator="out"/>
<feColorMatrix type="matrix" values="0 0 0 0 0 0 0 0 0 0.2 0 0 0 0 0.4 0 0 0 0.1 0"/>
<feBlend mode="normal" in2="BackgroundImageFix" result="effect1_dropShadow_732_80201"/>
<feBlend mode="normal" in="SourceGraphic" in2="effect1_dropShadow_732_80201" result="shape"/>
</filter>
</defs>
</svg>
