<svg width="159" height="28" viewBox="0 0 159 28" fill="none" xmlns="http://www.w3.org/2000/svg">
<path d="M0 4C0 1.79086 1.79086 0 4 0H155C157.209 0 159 1.79086 159 4V24C159 26.2091 157.209 28 155 28H4C1.79086 28 0 26.2091 0 24V4Z" fill="#DCEDFF"/>
<path d="M14.5937 9.11653L14.6003 9.11107L14.6067 9.10547L15.6473 8.19743C15.8372 8.04109 16.1758 8.04636 16.3522 8.1965C16.3524 8.19668 16.3526 8.19687 16.3528 8.19706L17.4024 9.10046C17.4028 9.10079 17.4031 9.10111 17.4035 9.10144C17.5922 9.26462 17.8243 9.38201 18.0298 9.4584C18.2357 9.5349 18.487 9.59703 18.7336 9.59703H19.8669C20.1594 9.59703 20.4036 9.84125 20.4036 10.1337V11.267C20.4036 11.5159 20.4652 11.7672 20.5427 11.9745C20.62 12.1815 20.7377 12.4104 20.8993 12.5972C20.8996 12.5976 20.8999 12.5979 20.9001 12.5982L21.8036 13.6478C21.8037 13.648 21.8039 13.6482 21.8041 13.6484C21.9565 13.8275 21.9578 14.1742 21.8082 14.3553L20.9068 15.4025C20.9065 15.4028 20.9062 15.4032 20.9059 15.4035C20.7427 15.5922 20.6253 15.8244 20.5489 16.03C20.4724 16.2358 20.4102 16.4872 20.4102 16.7337V17.867C20.4102 18.1595 20.166 18.4037 19.8736 18.4037H18.7402C18.4914 18.4037 18.2401 18.4653 18.0327 18.5428C17.8259 18.6201 17.597 18.7377 17.4102 18.8993C17.4098 18.8996 17.4094 18.8999 17.409 18.9003L16.3614 19.8021C16.1717 19.9597 15.8318 19.9548 15.6549 19.8042C15.6547 19.804 15.6545 19.8038 15.6543 19.8037L14.6048 18.9003C14.6044 18.9 14.6041 18.8997 14.6038 18.8994C14.4151 18.7362 14.1829 18.6187 13.9773 18.5423C13.7714 18.4658 13.5201 18.4037 13.2736 18.4037H12.1202C11.8278 18.4037 11.5836 18.1595 11.5836 17.867V16.727C11.5836 16.48 11.5212 16.2304 11.4461 16.0275C11.3706 15.8236 11.2567 15.598 11.1031 15.4136L11.1031 15.4135L11.0986 15.4083L10.201 14.3511C10.2007 14.3508 10.2004 14.3504 10.2002 14.3501C10.0492 14.1691 10.0492 13.8316 10.2002 13.6507L11.0986 12.5925L11.0987 12.5925L11.1031 12.5872C11.2567 12.4028 11.3706 12.1771 11.4461 11.9732C11.5212 11.7704 11.5836 11.5207 11.5836 11.2737V10.1337C11.5836 9.84124 11.8278 9.59703 12.1202 9.59703H13.2736C13.5198 9.59703 13.7703 9.53503 13.9739 9.46048C14.1781 9.38573 14.4072 9.27194 14.5937 9.11653ZM16.0839 16.4907L19.3039 13.2707C19.7901 12.7845 19.7901 11.9896 19.3039 11.5034C18.8177 11.0171 18.0228 11.0171 17.5366 11.5034L15.2002 13.8397L14.4706 13.11C13.9844 12.6238 13.1895 12.6238 12.7033 13.11C12.217 13.5963 12.217 14.3911 12.7032 14.8774L14.3166 16.4907C14.549 16.7231 14.8657 16.857 15.2002 16.857C15.5348 16.857 15.8515 16.7231 16.0839 16.4907Z" fill="#0066CC" stroke="#0066CC" stroke-width="1.5"/>
<path d="M28.3434 20L31.0474 9.04H34.5834L37.3034 20H35.5114L34.9194 17.648H30.7114L30.1194 20H28.3434ZM32.4234 10.528L31.0634 16.08H34.5674L33.2234 10.528H32.4234ZM41.5714 11.824C42.1368 11.824 42.8034 11.8987 43.5714 12.048L43.9714 12.128L43.9074 13.504C43.0648 13.4187 42.4408 13.376 42.0354 13.376C41.2248 13.376 40.6808 13.5573 40.4034 13.92C40.1261 14.2827 39.9874 14.9653 39.9874 15.968C39.9874 16.9707 40.1208 17.664 40.3874 18.048C40.6541 18.432 41.2088 18.624 42.0514 18.624L43.9234 18.496L43.9714 19.888C42.8941 20.08 42.0834 20.176 41.5394 20.176C40.3234 20.176 39.4648 19.8507 38.9634 19.2C38.4728 18.5387 38.2274 17.4613 38.2274 15.968C38.2274 14.4747 38.4888 13.4133 39.0114 12.784C39.5341 12.144 40.3874 11.824 41.5714 11.824ZM48.5714 11.824C49.1368 11.824 49.8034 11.8987 50.5714 12.048L50.9714 12.128L50.9074 13.504C50.0648 13.4187 49.4408 13.376 49.0354 13.376C48.2248 13.376 47.6808 13.5573 47.4034 13.92C47.1261 14.2827 46.9874 14.9653 46.9874 15.968C46.9874 16.9707 47.1208 17.664 47.3874 18.048C47.6541 18.432 48.2088 18.624 49.0514 18.624L50.9234 18.496L50.9714 19.888C49.8941 20.08 49.0834 20.176 48.5394 20.176C47.3234 20.176 46.4648 19.8507 45.9634 19.2C45.4728 18.5387 45.2274 17.4613 45.2274 15.968C45.2274 14.4747 45.4888 13.4133 46.0114 12.784C46.5341 12.144 47.3874 11.824 48.5714 11.824ZM53.0114 12.864C53.5661 12.1707 54.4834 11.824 55.7634 11.824C57.0434 11.824 57.9554 12.1707 58.4994 12.864C59.0541 13.5573 59.3314 14.5973 59.3314 15.984C59.3314 17.3707 59.0648 18.416 58.5314 19.12C57.9981 19.824 57.0754 20.176 55.7634 20.176C54.4514 20.176 53.5288 19.824 52.9954 19.12C52.4621 18.416 52.1954 17.3707 52.1954 15.984C52.1954 14.5973 52.4674 13.5573 53.0114 12.864ZM54.3234 18.064C54.5688 18.4907 55.0488 18.704 55.7634 18.704C56.4781 18.704 56.9581 18.4907 57.2034 18.064C57.4488 17.6373 57.5714 16.9387 57.5714 15.968C57.5714 14.9973 57.4381 14.3093 57.1714 13.904C56.9154 13.4987 56.4461 13.296 55.7634 13.296C55.0808 13.296 54.6061 13.4987 54.3394 13.904C54.0834 14.3093 53.9554 14.9973 53.9554 15.968C53.9554 16.9387 54.0781 17.6373 54.3234 18.064ZM65.9118 12H67.6398V20H65.9118V19.504C65.1331 19.952 64.4131 20.176 63.7518 20.176C62.6531 20.176 61.9171 19.8827 61.5438 19.296C61.1705 18.6987 60.9838 17.6587 60.9838 16.176V12H62.7278V16.192C62.7278 17.152 62.8078 17.7973 62.9678 18.128C63.1278 18.4587 63.5011 18.624 64.0878 18.624C64.6638 18.624 65.1918 18.5173 65.6718 18.304L65.9118 18.208V12ZM71.4953 20H69.7513V12H71.4793V12.496C72.258 12.048 72.994 11.824 73.6873 11.824C74.754 11.824 75.4793 12.128 75.8633 12.736C76.258 13.3333 76.4553 14.3253 76.4553 15.712V20H74.7273V15.76C74.7273 14.896 74.6313 14.2827 74.4393 13.92C74.258 13.5573 73.8793 13.376 73.3033 13.376C72.7593 13.376 72.2366 13.4827 71.7353 13.696L71.4953 13.792V20ZM82.7897 13.488H80.5817V17.008C80.5817 17.6587 80.6297 18.0907 80.7257 18.304C80.8217 18.5173 81.067 18.624 81.4617 18.624L82.7737 18.576L82.8537 19.968C82.139 20.1067 81.595 20.176 81.2217 20.176C80.315 20.176 79.691 19.968 79.3497 19.552C79.019 19.136 78.8537 18.352 78.8537 17.2V13.488H77.8297V12H78.8537V9.68H80.5817V12H82.7897V13.488ZM86.9837 12H88.8077L90.3437 18.512H90.8557L92.4557 12H94.2317L92.1517 20H89.0477L86.9837 12ZM101.166 18.56L101.614 18.512L101.646 19.808C100.43 20.0533 99.3527 20.176 98.4141 20.176C97.2301 20.176 96.3767 19.8507 95.8541 19.2C95.3421 18.5493 95.0861 17.5093 95.0861 16.08C95.0861 13.2427 96.2434 11.824 98.5581 11.824C100.798 11.824 101.918 13.0453 101.918 15.488L101.806 16.736H96.8461C96.8567 17.3973 97.0007 17.8827 97.2781 18.192C97.5554 18.5013 98.0727 18.656 98.8301 18.656C99.5874 18.656 100.366 18.624 101.166 18.56ZM100.206 15.392C100.206 14.6027 100.078 14.0533 99.8221 13.744C99.5767 13.424 99.1554 13.264 98.5581 13.264C97.9607 13.264 97.5234 13.4293 97.2461 13.76C96.9794 14.0907 96.8407 14.6347 96.8301 15.392H100.206ZM103.595 20V12H105.323V12.96C106.23 12.3733 107.136 11.9947 108.043 11.824V13.568C107.126 13.7493 106.342 13.984 105.691 14.272L105.339 14.416V20H103.595ZM109.376 20V12H111.12V20H109.376ZM109.376 10.64V8.8H111.12V10.64H109.376ZM115.332 13.488V20H113.604V13.488H112.676V12H113.604V11.488C113.604 10.3467 113.769 9.56267 114.1 9.136C114.43 8.70933 115.017 8.496 115.86 8.496L117.588 8.656L117.572 10.08C117.049 10.0587 116.612 10.048 116.26 10.048C115.918 10.048 115.678 10.1547 115.54 10.368C115.401 10.5707 115.332 10.9493 115.332 11.504V12H117.444V13.488H115.332ZM118.767 20V12H120.511V20H118.767ZM118.767 10.64V8.8H120.511V10.64H118.767ZM125.618 11.824C126.184 11.824 126.85 11.8987 127.618 12.048L128.018 12.128L127.954 13.504C127.112 13.4187 126.488 13.376 126.082 13.376C125.272 13.376 124.728 13.5573 124.45 13.92C124.173 14.2827 124.034 14.9653 124.034 15.968C124.034 16.9707 124.168 17.664 124.434 18.048C124.701 18.432 125.256 18.624 126.098 18.624L127.97 18.496L128.018 19.888C126.941 20.08 126.13 20.176 125.586 20.176C124.37 20.176 123.512 19.8507 123.01 19.2C122.52 18.5387 122.274 17.4613 122.274 15.968C122.274 14.4747 122.536 13.4133 123.058 12.784C123.581 12.144 124.434 11.824 125.618 11.824ZM135.624 14.464V18.112C135.635 18.3467 135.694 18.5227 135.8 18.64C135.918 18.7467 136.094 18.816 136.328 18.848L136.28 20.176C135.363 20.176 134.654 19.9787 134.152 19.584C133.299 19.9787 132.44 20.176 131.576 20.176C129.987 20.176 129.192 19.328 129.192 17.632C129.192 16.8213 129.406 16.2347 129.832 15.872C130.27 15.5093 130.936 15.2907 131.832 15.216L133.896 15.04V14.464C133.896 14.0373 133.8 13.7387 133.608 13.568C133.427 13.3973 133.155 13.312 132.792 13.312C132.11 13.312 131.256 13.3547 130.232 13.44L129.72 13.472L129.656 12.24C130.819 11.9627 131.886 11.824 132.856 11.824C133.838 11.824 134.542 12.0373 134.968 12.464C135.406 12.88 135.624 13.5467 135.624 14.464ZM132.04 16.448C131.304 16.512 130.936 16.912 130.936 17.648C130.936 18.384 131.262 18.752 131.912 18.752C132.446 18.752 133.011 18.6667 133.608 18.496L133.896 18.4V16.272L132.04 16.448ZM142.118 13.488H139.91V17.008C139.91 17.6587 139.958 18.0907 140.054 18.304C140.15 18.5173 140.395 18.624 140.79 18.624L142.102 18.576L142.182 19.968C141.467 20.1067 140.923 20.176 140.55 20.176C139.643 20.176 139.019 19.968 138.678 19.552C138.347 19.136 138.182 18.352 138.182 17.2V13.488H137.158V12H138.182V9.68H139.91V12H142.118V13.488ZM143.98 12.864C144.535 12.1707 145.452 11.824 146.732 11.824C148.012 11.824 148.924 12.1707 149.468 12.864C150.023 13.5573 150.3 14.5973 150.3 15.984C150.3 17.3707 150.034 18.416 149.5 19.12C148.967 19.824 148.044 20.176 146.732 20.176C145.42 20.176 144.498 19.824 143.964 19.12C143.431 18.416 143.164 17.3707 143.164 15.984C143.164 14.5973 143.436 13.5573 143.98 12.864ZM145.292 18.064C145.538 18.4907 146.018 18.704 146.732 18.704C147.447 18.704 147.927 18.4907 148.172 18.064C148.418 17.6373 148.54 16.9387 148.54 15.968C148.54 14.9973 148.407 14.3093 148.14 13.904C147.884 13.4987 147.415 13.296 146.732 13.296C146.05 13.296 145.575 13.4987 145.308 13.904C145.052 14.3093 144.924 14.9973 144.924 15.968C144.924 16.9387 145.047 17.6373 145.292 18.064Z" fill="#0066CC"/>
</svg>
