<svg width="379" height="56" viewBox="0 0 379 56" fill="none" xmlns="http://www.w3.org/2000/svg">
<mask id="path-1-inside-1_775_84559" fill="white">
<path d="M0 4C0 1.79086 1.79086 0 4 0H375C377.209 0 379 1.79086 379 4V52C379 54.2091 377.209 56 375 56H3.99999C1.79086 56 0 54.2091 0 52V4Z"/>
</mask>
<path d="M0 4C0 1.79086 1.79086 0 4 0H375C377.209 0 379 1.79086 379 4V52C379 54.2091 377.209 56 375 56H3.99999C1.79086 56 0 54.2091 0 52V4Z" fill="#E6F9EF"/>
<path d="M0 0H379H0ZM379 56H0H379ZM4 56C-0.418278 56 -4 52.4183 -4 48V8C-4 3.58172 -0.418278 0 4 0C4 0 4 1.79086 4 4V52C4 54.2091 4 56 4 56ZM379 0V56V0Z" fill="#1D7748" mask="url(#path-1-inside-1_775_84559)"/>
<path d="M24 18C18.49 18 14 22.49 14 28C14 33.51 18.49 38 24 38C29.51 38 34 33.51 34 28C34 22.49 29.51 18 24 18ZM28.78 25.7L23.11 31.37C22.97 31.51 22.78 31.59 22.58 31.59C22.38 31.59 22.19 31.51 22.05 31.37L19.22 28.54C18.93 28.25 18.93 27.77 19.22 27.48C19.51 27.19 19.99 27.19 20.28 27.48L22.58 29.78L27.72 24.64C28.01 24.35 28.49 24.35 28.78 24.64C29.07 24.93 29.07 25.4 28.78 25.7Z" fill="#1D7748"/>
<path d="M53.28 30.592H51.04V34H49.264V23.04H53.28C55.7653 23.04 57.008 24.2667 57.008 26.72C57.008 27.9787 56.6933 28.9387 56.064 29.6C55.4453 30.2613 54.5173 30.592 53.28 30.592ZM51.04 29.056H53.264C54.544 29.056 55.184 28.2773 55.184 26.72C55.184 25.9733 55.0293 25.4293 54.72 25.088C54.4107 24.7467 53.9253 24.576 53.264 24.576H51.04V29.056ZM64.351 28.464V32.112C64.3617 32.3467 64.4203 32.5227 64.527 32.64C64.6443 32.7467 64.8203 32.816 65.055 32.848L65.007 34.176C64.0897 34.176 63.3803 33.9787 62.879 33.584C62.0257 33.9787 61.167 34.176 60.303 34.176C58.7137 34.176 57.919 33.328 57.919 31.632C57.919 30.8213 58.1323 30.2347 58.559 29.872C58.9963 29.5093 59.663 29.2907 60.559 29.216L62.623 29.04V28.464C62.623 28.0373 62.527 27.7387 62.335 27.568C62.1537 27.3973 61.8817 27.312 61.519 27.312C60.8363 27.312 59.983 27.3547 58.959 27.44L58.447 27.472L58.383 26.24C59.5457 25.9627 60.6123 25.824 61.583 25.824C62.5643 25.824 63.2683 26.0373 63.695 26.464C64.1323 26.88 64.351 27.5467 64.351 28.464ZM60.767 30.448C60.031 30.512 59.663 30.912 59.663 31.648C59.663 32.384 59.9883 32.752 60.639 32.752C61.1723 32.752 61.7377 32.6667 62.335 32.496L62.623 32.4V30.272L60.767 30.448ZM73.5324 35.088C73.5324 36.8373 72.2684 37.712 69.7404 37.712C68.5244 37.712 67.623 37.5467 67.0364 37.216C66.4497 36.8853 66.1564 36.2827 66.1564 35.408C66.1564 35.0133 66.2524 34.672 66.4444 34.384C66.6364 34.1067 66.9457 33.8027 67.3724 33.472C67.0204 33.2373 66.8444 32.848 66.8444 32.304C66.8444 32.0907 66.9884 31.744 67.2764 31.264L67.4204 31.024C66.6524 30.5653 66.2684 29.7653 66.2684 28.624C66.2684 27.664 66.5564 26.96 67.1324 26.512C67.7084 26.064 68.487 25.84 69.4684 25.84C69.9377 25.84 70.4017 25.8933 70.8604 26L71.1004 26.048L73.5804 25.984V27.392L72.2524 27.312C72.5404 27.6853 72.6844 28.1227 72.6844 28.624C72.6844 29.6693 72.4177 30.3947 71.8844 30.8C71.3617 31.1947 70.5404 31.392 69.4204 31.392C69.143 31.392 68.9084 31.3707 68.7164 31.328C68.567 31.6907 68.4924 31.9733 68.4924 32.176C68.4924 32.368 68.5884 32.5013 68.7804 32.576C68.983 32.6507 69.463 32.6933 70.2204 32.704C71.4897 32.7147 72.359 32.8853 72.8284 33.216C73.2977 33.5467 73.5324 34.1707 73.5324 35.088ZM67.8684 35.248C67.8684 35.6213 68.0177 35.888 68.3164 36.048C68.615 36.208 69.127 36.288 69.8524 36.288C71.143 36.288 71.7884 35.92 71.7884 35.184C71.7884 34.768 71.671 34.5013 71.4364 34.384C71.2124 34.2773 70.759 34.2187 70.0764 34.208L68.5084 34.112C68.2737 34.304 68.1084 34.48 68.0124 34.64C67.9164 34.8107 67.8684 35.0133 67.8684 35.248ZM67.9964 28.624C67.9964 29.1147 68.1137 29.4773 68.3484 29.712C68.583 29.936 68.9617 30.048 69.4844 30.048C70.007 30.048 70.3804 29.936 70.6044 29.712C70.839 29.4773 70.9564 29.1147 70.9564 28.624C70.9564 28.1333 70.839 27.776 70.6044 27.552C70.3697 27.3173 69.991 27.2 69.4684 27.2C68.487 27.2 67.9964 27.6747 67.9964 28.624ZM80.8666 28.464V32.112C80.8773 32.3467 80.936 32.5227 81.0426 32.64C81.16 32.7467 81.336 32.816 81.5706 32.848L81.5226 34.176C80.6053 34.176 79.896 33.9787 79.3946 33.584C78.5413 33.9787 77.6826 34.176 76.8186 34.176C75.2293 34.176 74.4346 33.328 74.4346 31.632C74.4346 30.8213 74.648 30.2347 75.0746 29.872C75.512 29.5093 76.1786 29.2907 77.0746 29.216L79.1386 29.04V28.464C79.1386 28.0373 79.0426 27.7387 78.8506 27.568C78.6693 27.3973 78.3973 27.312 78.0346 27.312C77.352 27.312 76.4986 27.3547 75.4746 27.44L74.9626 27.472L74.8986 26.24C76.0613 25.9627 77.128 25.824 78.0986 25.824C79.08 25.824 79.784 26.0373 80.2106 26.464C80.648 26.88 80.8666 27.5467 80.8666 28.464ZM77.2826 30.448C76.5466 30.512 76.1786 30.912 76.1786 31.648C76.1786 32.384 76.504 32.752 77.1546 32.752C77.688 32.752 78.2533 32.6667 78.8506 32.496L79.1386 32.4V30.272L77.2826 30.448ZM84.8 34H83.056V26H84.784V26.496C85.5413 26.048 86.2347 25.824 86.864 25.824C87.792 25.824 88.4693 26.0853 88.896 26.608C89.8667 26.0853 90.832 25.824 91.792 25.824C92.752 25.824 93.4293 26.1227 93.824 26.72C94.2187 27.3067 94.416 28.304 94.416 29.712V34H92.688V29.76C92.688 28.896 92.5973 28.2827 92.416 27.92C92.2453 27.5573 91.8827 27.376 91.328 27.376C90.848 27.376 90.3307 27.4827 89.776 27.696L89.504 27.808C89.5893 28.0213 89.632 28.704 89.632 29.856V34H87.904V29.888C87.904 28.9387 87.8187 28.2827 87.648 27.92C87.4773 27.5573 87.104 27.376 86.528 27.376C85.9947 27.376 85.4987 27.4827 85.04 27.696L84.8 27.792V34ZM102.158 32.56L102.606 32.512L102.638 33.808C101.422 34.0533 100.345 34.176 99.4062 34.176C98.2223 34.176 97.3689 33.8507 96.8463 33.2C96.3343 32.5493 96.0783 31.5093 96.0783 30.08C96.0783 27.2427 97.2356 25.824 99.5503 25.824C101.79 25.824 102.91 27.0453 102.91 29.488L102.798 30.736H97.8383C97.8489 31.3973 97.9929 31.8827 98.2703 32.192C98.5476 32.5013 99.0649 32.656 99.8223 32.656C100.58 32.656 101.358 32.624 102.158 32.56ZM101.198 29.392C101.198 28.6027 101.07 28.0533 100.814 27.744C100.569 27.424 100.148 27.264 99.5503 27.264C98.9529 27.264 98.5156 27.4293 98.2383 27.76C97.9716 28.0907 97.8329 28.6347 97.8223 29.392H101.198ZM106.331 34H104.587V26H106.315V26.496C107.094 26.048 107.83 25.824 108.523 25.824C109.59 25.824 110.315 26.128 110.699 26.736C111.094 27.3333 111.291 28.3253 111.291 29.712V34H109.563V29.76C109.563 28.896 109.467 28.2827 109.275 27.92C109.094 27.5573 108.715 27.376 108.139 27.376C107.595 27.376 107.073 27.4827 106.571 27.696L106.331 27.792V34ZM117.626 27.488H115.418V31.008C115.418 31.6587 115.466 32.0907 115.562 32.304C115.658 32.5173 115.903 32.624 116.298 32.624L117.61 32.576L117.69 33.968C116.975 34.1067 116.431 34.176 116.058 34.176C115.151 34.176 114.527 33.968 114.186 33.552C113.855 33.136 113.69 32.352 113.69 31.2V27.488H112.666V26H113.69V23.68H115.418V26H117.626V27.488ZM119.488 26.864C120.043 26.1707 120.96 25.824 122.24 25.824C123.52 25.824 124.432 26.1707 124.976 26.864C125.531 27.5573 125.808 28.5973 125.808 29.984C125.808 31.3707 125.541 32.416 125.008 33.12C124.475 33.824 123.552 34.176 122.24 34.176C120.928 34.176 120.005 33.824 119.472 33.12C118.939 32.416 118.672 31.3707 118.672 29.984C118.672 28.5973 118.944 27.5573 119.488 26.864ZM120.8 32.064C121.045 32.4907 121.525 32.704 122.24 32.704C122.955 32.704 123.435 32.4907 123.68 32.064C123.925 31.6373 124.048 30.9387 124.048 29.968C124.048 28.9973 123.915 28.3093 123.648 27.904C123.392 27.4987 122.923 27.296 122.24 27.296C121.557 27.296 121.083 27.4987 120.816 27.904C120.56 28.3093 120.432 28.9973 120.432 29.968C120.432 30.9387 120.555 31.6373 120.8 32.064ZM136.976 28.464V32.112C136.987 32.3467 137.045 32.5227 137.152 32.64C137.269 32.7467 137.445 32.816 137.68 32.848L137.632 34.176C136.715 34.176 136.005 33.9787 135.504 33.584C134.651 33.9787 133.792 34.176 132.928 34.176C131.339 34.176 130.544 33.328 130.544 31.632C130.544 30.8213 130.757 30.2347 131.184 29.872C131.621 29.5093 132.288 29.2907 133.184 29.216L135.248 29.04V28.464C135.248 28.0373 135.152 27.7387 134.96 27.568C134.779 27.3973 134.507 27.312 134.144 27.312C133.461 27.312 132.608 27.3547 131.584 27.44L131.072 27.472L131.008 26.24C132.171 25.9627 133.237 25.824 134.208 25.824C135.189 25.824 135.893 26.0373 136.32 26.464C136.757 26.88 136.976 27.5467 136.976 28.464ZM133.392 30.448C132.656 30.512 132.288 30.912 132.288 31.648C132.288 32.384 132.613 32.752 133.264 32.752C133.797 32.752 134.363 32.6667 134.96 32.496L135.248 32.4V30.272L133.392 30.448ZM138.335 26H140.159L141.695 32.512H142.207L143.807 26H145.583L143.503 34H140.399L138.335 26ZM146.195 26H148.019L149.555 32.512H150.067L151.667 26H153.443L151.363 34H148.259L146.195 26ZM160.377 32.56L160.825 32.512L160.857 33.808C159.641 34.0533 158.564 34.176 157.625 34.176C156.441 34.176 155.588 33.8507 155.065 33.2C154.553 32.5493 154.297 31.5093 154.297 30.08C154.297 27.2427 155.454 25.824 157.769 25.824C160.009 25.824 161.129 27.0453 161.129 29.488L161.017 30.736H156.057C156.068 31.3973 156.212 31.8827 156.489 32.192C156.766 32.5013 157.284 32.656 158.041 32.656C158.798 32.656 159.577 32.624 160.377 32.56ZM159.417 29.392C159.417 28.6027 159.289 28.0533 159.033 27.744C158.788 27.424 158.366 27.264 157.769 27.264C157.172 27.264 156.734 27.4293 156.457 27.76C156.19 28.0907 156.052 28.6347 156.041 29.392H159.417ZM164.55 34H162.806V26H164.534V26.496C165.313 26.048 166.049 25.824 166.742 25.824C167.809 25.824 168.534 26.128 168.918 26.736C169.313 27.3333 169.51 28.3253 169.51 29.712V34H167.782V29.76C167.782 28.896 167.686 28.2827 167.494 27.92C167.313 27.5573 166.934 27.376 166.358 27.376C165.814 27.376 165.291 27.4827 164.79 27.696L164.55 27.792V34ZM176.388 26H178.116V34H176.388V33.504C175.61 33.952 174.89 34.176 174.228 34.176C173.13 34.176 172.394 33.8827 172.02 33.296C171.647 32.6987 171.46 31.6587 171.46 30.176V26H173.204V30.192C173.204 31.152 173.284 31.7973 173.444 32.128C173.604 32.4587 173.978 32.624 174.564 32.624C175.14 32.624 175.668 32.5173 176.148 32.304L176.388 32.208V26ZM184.532 27.488H182.324V31.008C182.324 31.6587 182.372 32.0907 182.468 32.304C182.564 32.5173 182.809 32.624 183.204 32.624L184.516 32.576L184.596 33.968C183.881 34.1067 183.337 34.176 182.964 34.176C182.057 34.176 181.433 33.968 181.092 33.552C180.761 33.136 180.596 32.352 180.596 31.2V27.488H179.572V26H180.596V23.68H182.324V26H184.532V27.488ZM186.394 26.864C186.949 26.1707 187.866 25.824 189.146 25.824C190.426 25.824 191.338 26.1707 191.882 26.864C192.437 27.5573 192.714 28.5973 192.714 29.984C192.714 31.3707 192.448 32.416 191.914 33.12C191.381 33.824 190.458 34.176 189.146 34.176C187.834 34.176 186.912 33.824 186.378 33.12C185.845 32.416 185.578 31.3707 185.578 29.984C185.578 28.5973 185.85 27.5573 186.394 26.864ZM187.706 32.064C187.952 32.4907 188.432 32.704 189.146 32.704C189.861 32.704 190.341 32.4907 190.586 32.064C190.832 31.6373 190.954 30.9387 190.954 29.968C190.954 28.9973 190.821 28.3093 190.554 27.904C190.298 27.4987 189.829 27.296 189.146 27.296C188.464 27.296 187.989 27.4987 187.722 27.904C187.466 28.3093 187.338 28.9973 187.338 29.968C187.338 30.9387 187.461 31.6373 187.706 32.064ZM200.954 25.824C201.52 25.824 202.186 25.8987 202.954 26.048L203.354 26.128L203.29 27.504C202.448 27.4187 201.824 27.376 201.418 27.376C200.608 27.376 200.064 27.5573 199.786 27.92C199.509 28.2827 199.37 28.9653 199.37 29.968C199.37 30.9707 199.504 31.664 199.77 32.048C200.037 32.432 200.592 32.624 201.434 32.624L203.306 32.496L203.354 33.888C202.277 34.08 201.466 34.176 200.922 34.176C199.706 34.176 198.848 33.8507 198.346 33.2C197.856 32.5387 197.61 31.4613 197.61 29.968C197.61 28.4747 197.872 27.4133 198.394 26.784C198.917 26.144 199.77 25.824 200.954 25.824ZM205.394 26.864C205.949 26.1707 206.866 25.824 208.146 25.824C209.426 25.824 210.338 26.1707 210.882 26.864C211.437 27.5573 211.714 28.5973 211.714 29.984C211.714 31.3707 211.448 32.416 210.914 33.12C210.381 33.824 209.458 34.176 208.146 34.176C206.834 34.176 205.912 33.824 205.378 33.12C204.845 32.416 204.578 31.3707 204.578 29.984C204.578 28.5973 204.85 27.5573 205.394 26.864ZM206.706 32.064C206.952 32.4907 207.432 32.704 208.146 32.704C208.861 32.704 209.341 32.4907 209.586 32.064C209.832 31.6373 209.954 30.9387 209.954 29.968C209.954 28.9973 209.821 28.3093 209.554 27.904C209.298 27.4987 208.829 27.296 208.146 27.296C207.464 27.296 206.989 27.4987 206.722 27.904C206.466 28.3093 206.338 28.9973 206.338 29.968C206.338 30.9387 206.461 31.6373 206.706 32.064ZM215.191 34H213.447V26H215.175V26.496C215.953 26.048 216.689 25.824 217.383 25.824C218.449 25.824 219.175 26.128 219.559 26.736C219.953 27.3333 220.151 28.3253 220.151 29.712V34H218.423V29.76C218.423 28.896 218.327 28.2827 218.135 27.92C217.953 27.5573 217.575 27.376 216.999 27.376C216.455 27.376 215.932 27.4827 215.431 27.696L215.191 27.792V34ZM231.249 27.648C229.99 27.4773 229.078 27.392 228.513 27.392C227.947 27.392 227.553 27.4613 227.329 27.6C227.115 27.728 227.009 27.936 227.009 28.224C227.009 28.512 227.126 28.7147 227.361 28.832C227.606 28.9493 228.171 29.088 229.057 29.248C229.953 29.3973 230.587 29.6373 230.961 29.968C231.334 30.2987 231.521 30.8853 231.521 31.728C231.521 32.5707 231.249 33.1893 230.705 33.584C230.171 33.9787 229.387 34.176 228.353 34.176C227.702 34.176 226.881 34.0853 225.889 33.904L225.393 33.824L225.457 32.368C226.737 32.5387 227.659 32.624 228.225 32.624C228.79 32.624 229.19 32.5547 229.425 32.416C229.67 32.2773 229.793 32.048 229.793 31.728C229.793 31.408 229.675 31.1893 229.441 31.072C229.217 30.944 228.667 30.8107 227.793 30.672C226.929 30.5227 226.294 30.2933 225.889 29.984C225.483 29.6747 225.281 29.1093 225.281 28.288C225.281 27.4667 225.558 26.8533 226.113 26.448C226.678 26.0427 227.398 25.84 228.273 25.84C228.955 25.84 229.793 25.9253 230.785 26.096L231.281 26.192L231.249 27.648ZM238.045 26H239.773V34H238.045V33.504C237.266 33.952 236.546 34.176 235.885 34.176C234.786 34.176 234.05 33.8827 233.677 33.296C233.303 32.6987 233.117 31.6587 233.117 30.176V26H234.861V30.192C234.861 31.152 234.941 31.7973 235.101 32.128C235.261 32.4587 235.634 32.624 236.221 32.624C236.797 32.624 237.325 32.5173 237.805 32.304L238.045 32.208V26ZM244.876 25.824C245.441 25.824 246.108 25.8987 246.876 26.048L247.276 26.128L247.212 27.504C246.369 27.4187 245.745 27.376 245.34 27.376C244.529 27.376 243.985 27.5573 243.708 27.92C243.431 28.2827 243.292 28.9653 243.292 29.968C243.292 30.9707 243.425 31.664 243.692 32.048C243.959 32.432 244.513 32.624 245.356 32.624L247.228 32.496L247.276 33.888C246.199 34.08 245.388 34.176 244.844 34.176C243.628 34.176 242.769 33.8507 242.268 33.2C241.777 32.5387 241.532 31.4613 241.532 29.968C241.532 28.4747 241.793 27.4133 242.316 26.784C242.839 26.144 243.692 25.824 244.876 25.824ZM251.876 25.824C252.441 25.824 253.108 25.8987 253.876 26.048L254.276 26.128L254.212 27.504C253.369 27.4187 252.745 27.376 252.34 27.376C251.529 27.376 250.985 27.5573 250.708 27.92C250.431 28.2827 250.292 28.9653 250.292 29.968C250.292 30.9707 250.425 31.664 250.692 32.048C250.959 32.432 251.513 32.624 252.356 32.624L254.228 32.496L254.276 33.888C253.199 34.08 252.388 34.176 251.844 34.176C250.628 34.176 249.769 33.8507 249.268 33.2C248.777 32.5387 248.532 31.4613 248.532 29.968C248.532 28.4747 248.793 27.4133 249.316 26.784C249.839 26.144 250.692 25.824 251.876 25.824ZM261.58 32.56L262.028 32.512L262.06 33.808C260.844 34.0533 259.767 34.176 258.828 34.176C257.644 34.176 256.791 33.8507 256.268 33.2C255.756 32.5493 255.5 31.5093 255.5 30.08C255.5 27.2427 256.657 25.824 258.972 25.824C261.212 25.824 262.332 27.0453 262.332 29.488L262.22 30.736H257.26C257.271 31.3973 257.415 31.8827 257.692 32.192C257.969 32.5013 258.487 32.656 259.244 32.656C260.001 32.656 260.78 32.624 261.58 32.56ZM260.62 29.392C260.62 28.6027 260.492 28.0533 260.236 27.744C259.991 27.424 259.569 27.264 258.972 27.264C258.375 27.264 257.937 27.4293 257.66 27.76C257.393 28.0907 257.255 28.6347 257.244 29.392H260.62ZM269.561 27.648C268.302 27.4773 267.39 27.392 266.825 27.392C266.26 27.392 265.865 27.4613 265.641 27.6C265.428 27.728 265.321 27.936 265.321 28.224C265.321 28.512 265.438 28.7147 265.673 28.832C265.918 28.9493 266.484 29.088 267.369 29.248C268.265 29.3973 268.9 29.6373 269.273 29.968C269.646 30.2987 269.833 30.8853 269.833 31.728C269.833 32.5707 269.561 33.1893 269.017 33.584C268.484 33.9787 267.7 34.176 266.665 34.176C266.014 34.176 265.193 34.0853 264.201 33.904L263.705 33.824L263.769 32.368C265.049 32.5387 265.972 32.624 266.537 32.624C267.102 32.624 267.502 32.5547 267.737 32.416C267.982 32.2773 268.105 32.048 268.105 31.728C268.105 31.408 267.988 31.1893 267.753 31.072C267.529 30.944 266.98 30.8107 266.105 30.672C265.241 30.5227 264.606 30.2933 264.201 29.984C263.796 29.6747 263.593 29.1093 263.593 28.288C263.593 27.4667 263.87 26.8533 264.425 26.448C264.99 26.0427 265.71 25.84 266.585 25.84C267.268 25.84 268.105 25.9253 269.097 26.096L269.593 26.192L269.561 27.648ZM277.061 27.648C275.802 27.4773 274.89 27.392 274.325 27.392C273.76 27.392 273.365 27.4613 273.141 27.6C272.928 27.728 272.821 27.936 272.821 28.224C272.821 28.512 272.938 28.7147 273.173 28.832C273.418 28.9493 273.984 29.088 274.869 29.248C275.765 29.3973 276.4 29.6373 276.773 29.968C277.146 30.2987 277.333 30.8853 277.333 31.728C277.333 32.5707 277.061 33.1893 276.517 33.584C275.984 33.9787 275.2 34.176 274.165 34.176C273.514 34.176 272.693 34.0853 271.701 33.904L271.205 33.824L271.269 32.368C272.549 32.5387 273.472 32.624 274.037 32.624C274.602 32.624 275.002 32.5547 275.237 32.416C275.482 32.2773 275.605 32.048 275.605 31.728C275.605 31.408 275.488 31.1893 275.253 31.072C275.029 30.944 274.48 30.8107 273.605 30.672C272.741 30.5227 272.106 30.2933 271.701 29.984C271.296 29.6747 271.093 29.1093 271.093 28.288C271.093 27.4667 271.37 26.8533 271.925 26.448C272.49 26.0427 273.21 25.84 274.085 25.84C274.768 25.84 275.605 25.9253 276.597 26.096L277.093 26.192L277.061 27.648ZM279.441 26.864C279.996 26.1707 280.913 25.824 282.193 25.824C283.473 25.824 284.385 26.1707 284.929 26.864C285.484 27.5573 285.761 28.5973 285.761 29.984C285.761 31.3707 285.494 32.416 284.961 33.12C284.428 33.824 283.505 34.176 282.193 34.176C280.881 34.176 279.958 33.824 279.425 33.12C278.892 32.416 278.625 31.3707 278.625 29.984C278.625 28.5973 278.897 27.5573 279.441 26.864ZM280.753 32.064C280.998 32.4907 281.478 32.704 282.193 32.704C282.908 32.704 283.388 32.4907 283.633 32.064C283.878 31.6373 284.001 30.9387 284.001 29.968C284.001 28.9973 283.868 28.3093 283.601 27.904C283.345 27.4987 282.876 27.296 282.193 27.296C281.51 27.296 281.036 27.4987 280.769 27.904C280.513 28.3093 280.385 28.9973 280.385 29.968C280.385 30.9387 280.508 31.6373 280.753 32.064ZM287.622 34V31.76H289.494V34H287.622ZM287.798 30.144L287.638 23.04H289.494L289.334 30.144H287.798Z" fill="#1D7748"/>
<path d="M355 18C349.49 18 345 22.49 345 28C345 33.51 349.49 38 355 38C360.51 38 365 33.51 365 28C365 22.49 360.51 18 355 18ZM358.36 30.3C358.65 30.59 358.65 31.07 358.36 31.36C358.21 31.51 358.02 31.58 357.83 31.58C357.64 31.58 357.45 31.51 357.3 31.36L355 29.06L352.7 31.36C352.55 31.51 352.36 31.58 352.17 31.58C351.98 31.58 351.79 31.51 351.64 31.36C351.35 31.07 351.35 30.59 351.64 30.3L353.94 28L351.64 25.7C351.35 25.41 351.35 24.93 351.64 24.64C351.93 24.35 352.41 24.35 352.7 24.64L355 26.94L357.3 24.64C357.59 24.35 358.07 24.35 358.36 24.64C358.65 24.93 358.65 25.41 358.36 25.7L356.06 28L358.36 30.3Z" fill="#1D7748"/>
</svg>
