<svg width="67" height="32" viewBox="0 0 67 32" fill="none" xmlns="http://www.w3.org/2000/svg">
<path d="M0 4C0 1.79086 1.79086 0 4 0H63C65.2091 0 67 1.79086 67 4V28C67 30.2091 65.2091 32 63 32H4C1.79086 32 0 30.2091 0 28V4Z" fill="#DCEDFF"/>
<path d="M21.9665 17.6987L17.7065 21.9587C16.7732 22.892 15.2399 22.892 14.2999 21.9587L10.0398 17.6987C9.10651 16.7654 9.10651 15.232 10.0398 14.292L14.2999 10.032C15.2332 9.0987 16.7665 9.0987 17.7065 10.032L21.9665 14.292C22.8999 15.232 22.8999 16.7654 21.9665 17.6987Z" stroke="#0066CC" stroke-width="1.5" stroke-linecap="round" stroke-linejoin="round"/>
<path d="M30.9875 22H29.2435V14H30.9715V14.496C31.7502 14.048 32.4862 13.824 33.1795 13.824C34.2462 13.824 34.9715 14.128 35.3555 14.736C35.7502 15.3333 35.9475 16.3253 35.9475 17.712V22H34.2195V17.76C34.2195 16.896 34.1235 16.2827 33.9315 15.92C33.7502 15.5573 33.3715 15.376 32.7955 15.376C32.2515 15.376 31.7288 15.4827 31.2275 15.696L30.9875 15.792V22ZM38.4099 14.864C38.9645 14.1707 39.8819 13.824 41.1619 13.824C42.4419 13.824 43.3539 14.1707 43.8979 14.864C44.4525 15.5573 44.7299 16.5973 44.7299 17.984C44.7299 19.3707 44.4632 20.416 43.9299 21.12C43.3965 21.824 42.4739 22.176 41.1619 22.176C39.8499 22.176 38.9272 21.824 38.3939 21.12C37.8605 20.416 37.5939 19.3707 37.5939 17.984C37.5939 16.5973 37.8659 15.5573 38.4099 14.864ZM39.7219 20.064C39.9672 20.4907 40.4472 20.704 41.1619 20.704C41.8765 20.704 42.3565 20.4907 42.6019 20.064C42.8472 19.6373 42.9699 18.9387 42.9699 17.968C42.9699 16.9973 42.8365 16.3093 42.5699 15.904C42.3139 15.4987 41.8445 15.296 41.1619 15.296C40.4792 15.296 40.0045 15.4987 39.7379 15.904C39.4819 16.3093 39.3539 16.9973 39.3539 17.968C39.3539 18.9387 39.4765 19.6373 39.7219 20.064ZM48.2063 22H46.4622V14H48.1903V14.496C48.9476 14.048 49.6409 13.824 50.2703 13.824C51.1983 13.824 51.8756 14.0853 52.3023 14.608C53.2729 14.0853 54.2383 13.824 55.1983 13.824C56.1583 13.824 56.8356 14.1227 57.2303 14.72C57.6249 15.3067 57.8223 16.304 57.8223 17.712V22H56.0943V17.76C56.0943 16.896 56.0036 16.2827 55.8223 15.92C55.6516 15.5573 55.2889 15.376 54.7343 15.376C54.2543 15.376 53.7369 15.4827 53.1823 15.696L52.9103 15.808C52.9956 16.0213 53.0383 16.704 53.0383 17.856V22H51.3103V17.888C51.3103 16.9387 51.2249 16.2827 51.0543 15.92C50.8836 15.5573 50.5103 15.376 49.9343 15.376C49.4009 15.376 48.9049 15.4827 48.4463 15.696L48.2063 15.792V22Z" fill="#0066CC"/>
</svg>
