<svg width="323" height="62" viewBox="0 0 323 62" fill="none" xmlns="http://www.w3.org/2000/svg">
<path d="M0 34C0 31.7909 1.79086 30 4 30H121C123.209 30 125 31.7909 125 34V58C125 60.2091 123.209 62 121 62H4C1.79086 62 0 60.2091 0 58V34Z" fill="#9747FF" fill-opacity="0.48"/>
<path d="M21.9665 47.6987L17.7065 51.9587C16.7732 52.892 15.2399 52.892 14.2999 51.9587L10.0398 47.6987C9.10651 46.7654 9.10651 45.232 10.0398 44.292L14.2999 40.032C15.2332 39.0987 16.7665 39.0987 17.7065 40.032L21.9665 44.292C22.8999 45.232 22.8999 46.7654 21.9665 47.6987Z" stroke="#9747FF" stroke-width="1.5" stroke-linecap="round" stroke-linejoin="round"/>
<path d="M35.4627 52H29.3187V41.04H31.0947V50.416H35.4627V52ZM37.1364 44.864C37.6911 44.1707 38.6084 43.824 39.8884 43.824C41.1684 43.824 42.0804 44.1707 42.6244 44.864C43.1791 45.5573 43.4564 46.5973 43.4564 47.984C43.4564 49.3707 43.1898 50.416 42.6564 51.12C42.1231 51.824 41.2004 52.176 39.8884 52.176C38.5764 52.176 37.6538 51.824 37.1204 51.12C36.5871 50.416 36.3204 49.3707 36.3204 47.984C36.3204 46.5973 36.5924 45.5573 37.1364 44.864ZM38.4484 50.064C38.6938 50.4907 39.1738 50.704 39.8884 50.704C40.6031 50.704 41.0831 50.4907 41.3284 50.064C41.5738 49.6373 41.6964 48.9387 41.6964 47.968C41.6964 46.9973 41.5631 46.3093 41.2964 45.904C41.0404 45.4987 40.5711 45.296 39.8884 45.296C39.2058 45.296 38.7311 45.4987 38.4644 45.904C38.2084 46.3093 38.0804 46.9973 38.0804 47.968C38.0804 48.9387 38.2031 49.6373 38.4484 50.064ZM45.1888 52V44H46.9168V44.96C47.8235 44.3733 48.7301 43.9947 49.6368 43.824V45.568C48.7195 45.7493 47.9355 45.984 47.2848 46.272L46.9328 46.416V52H45.1888ZM56.6036 50.56L57.0516 50.512L57.0836 51.808C55.8676 52.0533 54.7902 52.176 53.8516 52.176C52.6676 52.176 51.8142 51.8507 51.2916 51.2C50.7796 50.5493 50.5236 49.5093 50.5236 48.08C50.5236 45.2427 51.6809 43.824 53.9956 43.824C56.2356 43.824 57.3556 45.0453 57.3556 47.488L57.2436 48.736H52.2836C52.2942 49.3973 52.4382 49.8827 52.7156 50.192C52.9929 50.5013 53.5102 50.656 54.2676 50.656C55.0249 50.656 55.8036 50.624 56.6036 50.56ZM55.6436 47.392C55.6436 46.6027 55.5156 46.0533 55.2596 45.744C55.0142 45.424 54.5929 45.264 53.9956 45.264C53.3982 45.264 52.9609 45.4293 52.6836 45.76C52.4169 46.0907 52.2782 46.6347 52.2676 47.392H55.6436ZM60.7766 52H59.0326V44H60.7606V44.496C61.5179 44.048 62.2112 43.824 62.8406 43.824C63.7686 43.824 64.4459 44.0853 64.8726 44.608C65.8432 44.0853 66.8086 43.824 67.7686 43.824C68.7286 43.824 69.4059 44.1227 69.8006 44.72C70.1952 45.3067 70.3926 46.304 70.3926 47.712V52H68.6646V47.76C68.6646 46.896 68.5739 46.2827 68.3926 45.92C68.2219 45.5573 67.8592 45.376 67.3046 45.376C66.8246 45.376 66.3072 45.4827 65.7526 45.696L65.4806 45.808C65.5659 46.0213 65.6086 46.704 65.6086 47.856V52H63.8806V47.888C63.8806 46.9387 63.7952 46.2827 63.6246 45.92C63.4539 45.5573 63.0806 45.376 62.5046 45.376C61.9712 45.376 61.4752 45.4827 61.0166 45.696L60.7766 45.792V52ZM75.9544 52V44H77.6984V52H75.9544ZM75.9544 42.64V40.8H77.6984V42.64H75.9544ZM79.8138 55.44V44H81.5418V44.496C82.2778 44.048 82.9658 43.824 83.6058 43.824C84.6618 43.824 85.4351 44.1493 85.9258 44.8C86.4165 45.44 86.6618 46.5227 86.6618 48.048C86.6618 49.5627 86.3791 50.6293 85.8138 51.248C85.2591 51.8667 84.3471 52.176 83.0778 52.176C82.6405 52.176 82.1338 52.128 81.5578 52.032V55.44H79.8138ZM83.3018 45.376C82.8005 45.376 82.2991 45.488 81.7978 45.712L81.5578 45.824V50.544C81.9845 50.6293 82.4538 50.672 82.9658 50.672C83.6911 50.672 84.1925 50.464 84.4698 50.048C84.7471 49.632 84.8858 48.9227 84.8858 47.92C84.8858 46.224 84.3578 45.376 83.3018 45.376ZM93.9596 45.648C92.7009 45.4773 91.7889 45.392 91.2236 45.392C90.6582 45.392 90.2636 45.4613 90.0396 45.6C89.8262 45.728 89.7196 45.936 89.7196 46.224C89.7196 46.512 89.8369 46.7147 90.0716 46.832C90.3169 46.9493 90.8822 47.088 91.7676 47.248C92.6636 47.3973 93.2982 47.6373 93.6716 47.968C94.0449 48.2987 94.2316 48.8853 94.2316 49.728C94.2316 50.5707 93.9596 51.1893 93.4156 51.584C92.8822 51.9787 92.0982 52.176 91.0636 52.176C90.4129 52.176 89.5916 52.0853 88.5996 51.904L88.1036 51.824L88.1676 50.368C89.4476 50.5387 90.3702 50.624 90.9356 50.624C91.5009 50.624 91.9009 50.5547 92.1356 50.416C92.3809 50.2773 92.5036 50.048 92.5036 49.728C92.5036 49.408 92.3862 49.1893 92.1516 49.072C91.9276 48.944 91.3782 48.8107 90.5036 48.672C89.6396 48.5227 89.0049 48.2933 88.5996 47.984C88.1942 47.6747 87.9916 47.1093 87.9916 46.288C87.9916 45.4667 88.2689 44.8533 88.8236 44.448C89.3889 44.0427 90.1089 43.84 90.9836 43.84C91.6662 43.84 92.5036 43.9253 93.4956 44.096L93.9916 44.192L93.9596 45.648ZM100.756 44H102.484V52H100.756V51.504C99.9769 51.952 99.2569 52.176 98.5956 52.176C97.4969 52.176 96.7609 51.8827 96.3876 51.296C96.0142 50.6987 95.8276 49.6587 95.8276 48.176V44H97.5716V48.192C97.5716 49.152 97.6516 49.7973 97.8116 50.128C97.9716 50.4587 98.3449 50.624 98.9316 50.624C99.5076 50.624 100.036 50.5173 100.516 50.304L100.756 50.208V44ZM106.339 52H104.595V44H106.323V44.496C107.08 44.048 107.774 43.824 108.403 43.824C109.331 43.824 110.008 44.0853 110.435 44.608C111.406 44.0853 112.371 43.824 113.331 43.824C114.291 43.824 114.968 44.1227 115.363 44.72C115.758 45.3067 115.955 46.304 115.955 47.712V52H114.227V47.76C114.227 46.896 114.136 46.2827 113.955 45.92C113.784 45.5573 113.422 45.376 112.867 45.376C112.387 45.376 111.87 45.4827 111.315 45.696L111.043 45.808C111.128 46.0213 111.171 46.704 111.171 47.856V52H109.443V47.888C109.443 46.9387 109.358 46.2827 109.187 45.92C109.016 45.5573 108.643 45.376 108.067 45.376C107.534 45.376 107.038 45.4827 106.579 45.696L106.339 45.792V52Z" fill="#9747FF"/>
<path d="M196 34C196 31.7909 197.791 30 200 30H317C319.209 30 321 31.7909 321 34V58C321 60.2091 319.209 62 317 62H200C197.791 62 196 60.2091 196 58V34Z" fill="#9747FF" fill-opacity="0.24"/>
<path d="M217.967 47.6987L213.707 51.9587C212.773 52.892 211.24 52.892 210.3 51.9587L206.04 47.6987C205.107 46.7654 205.107 45.232 206.04 44.292L210.3 40.032C211.233 39.0987 212.767 39.0987 213.707 40.032L217.967 44.292C218.9 45.232 218.9 46.7654 217.967 47.6987Z" stroke="#6C00F8" stroke-width="1.5" stroke-linecap="round" stroke-linejoin="round"/>
<path d="M231.463 52H225.319V41.04H227.095V50.416H231.463V52ZM233.136 44.864C233.691 44.1707 234.608 43.824 235.888 43.824C237.168 43.824 238.08 44.1707 238.624 44.864C239.179 45.5573 239.456 46.5973 239.456 47.984C239.456 49.3707 239.19 50.416 238.656 51.12C238.123 51.824 237.2 52.176 235.888 52.176C234.576 52.176 233.654 51.824 233.12 51.12C232.587 50.416 232.32 49.3707 232.32 47.984C232.32 46.5973 232.592 45.5573 233.136 44.864ZM234.448 50.064C234.694 50.4907 235.174 50.704 235.888 50.704C236.603 50.704 237.083 50.4907 237.328 50.064C237.574 49.6373 237.696 48.9387 237.696 47.968C237.696 46.9973 237.563 46.3093 237.296 45.904C237.04 45.4987 236.571 45.296 235.888 45.296C235.206 45.296 234.731 45.4987 234.464 45.904C234.208 46.3093 234.08 46.9973 234.08 47.968C234.08 48.9387 234.203 49.6373 234.448 50.064ZM241.189 52V44H242.917V44.96C243.823 44.3733 244.73 43.9947 245.637 43.824V45.568C244.719 45.7493 243.935 45.984 243.285 46.272L242.933 46.416V52H241.189ZM252.604 50.56L253.052 50.512L253.084 51.808C251.868 52.0533 250.79 52.176 249.852 52.176C248.668 52.176 247.814 51.8507 247.292 51.2C246.78 50.5493 246.524 49.5093 246.524 48.08C246.524 45.2427 247.681 43.824 249.996 43.824C252.236 43.824 253.356 45.0453 253.356 47.488L253.244 48.736H248.284C248.294 49.3973 248.438 49.8827 248.716 50.192C248.993 50.5013 249.51 50.656 250.268 50.656C251.025 50.656 251.804 50.624 252.604 50.56ZM251.644 47.392C251.644 46.6027 251.516 46.0533 251.26 45.744C251.014 45.424 250.593 45.264 249.996 45.264C249.398 45.264 248.961 45.4293 248.684 45.76C248.417 46.0907 248.278 46.6347 248.268 47.392H251.644ZM256.777 52H255.033V44H256.761V44.496C257.518 44.048 258.211 43.824 258.841 43.824C259.769 43.824 260.446 44.0853 260.873 44.608C261.843 44.0853 262.809 43.824 263.769 43.824C264.729 43.824 265.406 44.1227 265.801 44.72C266.195 45.3067 266.393 46.304 266.393 47.712V52H264.665V47.76C264.665 46.896 264.574 46.2827 264.393 45.92C264.222 45.5573 263.859 45.376 263.305 45.376C262.825 45.376 262.307 45.4827 261.753 45.696L261.481 45.808C261.566 46.0213 261.609 46.704 261.609 47.856V52H259.881V47.888C259.881 46.9387 259.795 46.2827 259.625 45.92C259.454 45.5573 259.081 45.376 258.505 45.376C257.971 45.376 257.475 45.4827 257.017 45.696L256.777 45.792V52ZM271.954 52V44H273.698V52H271.954ZM271.954 42.64V40.8H273.698V42.64H271.954ZM275.814 55.44V44H277.542V44.496C278.278 44.048 278.966 43.824 279.606 43.824C280.662 43.824 281.435 44.1493 281.926 44.8C282.416 45.44 282.662 46.5227 282.662 48.048C282.662 49.5627 282.379 50.6293 281.814 51.248C281.259 51.8667 280.347 52.176 279.078 52.176C278.64 52.176 278.134 52.128 277.558 52.032V55.44H275.814ZM279.302 45.376C278.8 45.376 278.299 45.488 277.798 45.712L277.558 45.824V50.544C277.984 50.6293 278.454 50.672 278.966 50.672C279.691 50.672 280.192 50.464 280.47 50.048C280.747 49.632 280.886 48.9227 280.886 47.92C280.886 46.224 280.358 45.376 279.302 45.376ZM289.96 45.648C288.701 45.4773 287.789 45.392 287.224 45.392C286.658 45.392 286.264 45.4613 286.04 45.6C285.826 45.728 285.72 45.936 285.72 46.224C285.72 46.512 285.837 46.7147 286.072 46.832C286.317 46.9493 286.882 47.088 287.768 47.248C288.664 47.3973 289.298 47.6373 289.672 47.968C290.045 48.2987 290.232 48.8853 290.232 49.728C290.232 50.5707 289.96 51.1893 289.416 51.584C288.882 51.9787 288.098 52.176 287.064 52.176C286.413 52.176 285.592 52.0853 284.6 51.904L284.104 51.824L284.168 50.368C285.448 50.5387 286.37 50.624 286.936 50.624C287.501 50.624 287.901 50.5547 288.136 50.416C288.381 50.2773 288.504 50.048 288.504 49.728C288.504 49.408 288.386 49.1893 288.152 49.072C287.928 48.944 287.378 48.8107 286.504 48.672C285.64 48.5227 285.005 48.2933 284.6 47.984C284.194 47.6747 283.992 47.1093 283.992 46.288C283.992 45.4667 284.269 44.8533 284.824 44.448C285.389 44.0427 286.109 43.84 286.984 43.84C287.666 43.84 288.504 43.9253 289.496 44.096L289.992 44.192L289.96 45.648ZM296.756 44H298.484V52H296.756V51.504C295.977 51.952 295.257 52.176 294.596 52.176C293.497 52.176 292.761 51.8827 292.388 51.296C292.014 50.6987 291.828 49.6587 291.828 48.176V44H293.572V48.192C293.572 49.152 293.652 49.7973 293.812 50.128C293.972 50.4587 294.345 50.624 294.932 50.624C295.508 50.624 296.036 50.5173 296.516 50.304L296.756 50.208V44ZM302.339 52H300.595V44H302.323V44.496C303.08 44.048 303.774 43.824 304.403 43.824C305.331 43.824 306.008 44.0853 306.435 44.608C307.406 44.0853 308.371 43.824 309.331 43.824C310.291 43.824 310.968 44.1227 311.363 44.72C311.758 45.3067 311.955 46.304 311.955 47.712V52H310.227V47.76C310.227 46.896 310.136 46.2827 309.955 45.92C309.784 45.5573 309.422 45.376 308.867 45.376C308.387 45.376 307.87 45.4827 307.315 45.696L307.043 45.808C307.128 46.0213 307.171 46.704 307.171 47.856V52H305.443V47.888C305.443 46.9387 305.358 46.2827 305.187 45.92C305.016 45.5573 304.643 45.376 304.067 45.376C303.534 45.376 303.038 45.4827 302.579 45.696L302.339 45.792V52Z" fill="#6C00F8"/>
<path d="M194.587 12V0.927999H195.819V12H194.587ZM199.516 12H198.316V4H199.5V4.56C200.364 4.08 201.191 3.84 201.98 3.84C203.047 3.84 203.761 4.128 204.124 4.704C204.497 5.28 204.684 6.304 204.684 7.776V12H203.5V7.808C203.5 6.69867 203.388 5.94133 203.164 5.536C202.951 5.12 202.487 4.912 201.772 4.912C201.431 4.912 201.068 4.96533 200.684 5.072C200.311 5.168 200.023 5.264 199.82 5.36L199.516 5.504V12ZM213.417 3.84C213.769 3.84 214.367 3.904 215.209 4.032L215.593 4.08L215.545 5.056C214.692 4.96 214.063 4.912 213.657 4.912C212.751 4.912 212.132 5.13067 211.801 5.568C211.481 5.99467 211.321 6.79467 211.321 7.968C211.321 9.13067 211.471 9.94133 211.769 10.4C212.079 10.8587 212.713 11.088 213.673 11.088L215.561 10.944L215.609 11.936C214.617 12.0853 213.876 12.16 213.385 12.16C212.137 12.16 211.273 11.84 210.793 11.2C210.324 10.56 210.089 9.48267 210.089 7.968C210.089 6.44267 210.345 5.376 210.857 4.768C211.369 4.14933 212.223 3.84 213.417 3.84ZM223.042 6.416V10.512C223.074 10.9067 223.384 11.1413 223.97 11.216L223.922 12.16C223.08 12.16 222.445 11.9467 222.018 11.52C221.058 11.9467 220.098 12.16 219.138 12.16C218.402 12.16 217.842 11.952 217.458 11.536C217.074 11.12 216.882 10.5227 216.882 9.744C216.882 8.96533 217.08 8.39467 217.474 8.032C217.869 7.65867 218.488 7.42933 219.33 7.344L221.842 7.104V6.416C221.842 5.872 221.725 5.48267 221.49 5.248C221.256 5.01333 220.936 4.896 220.53 4.896C219.677 4.896 218.792 4.94933 217.874 5.056L217.378 5.104L217.33 4.192C218.504 3.95733 219.544 3.84 220.45 3.84C221.357 3.84 222.013 4.048 222.418 4.464C222.834 4.88 223.042 5.53067 223.042 6.416ZM218.114 9.68C218.114 10.6613 218.52 11.152 219.33 11.152C220.056 11.152 220.77 11.0293 221.474 10.784L221.842 10.656V8.016L219.474 8.24C218.994 8.28267 218.648 8.42133 218.434 8.656C218.221 8.89067 218.114 9.232 218.114 9.68ZM227.922 4.912C226.759 4.912 226.178 5.31733 226.178 6.128C226.178 6.50133 226.311 6.768 226.578 6.928C226.844 7.07733 227.452 7.23733 228.402 7.408C229.351 7.568 230.023 7.79733 230.418 8.096C230.812 8.39467 231.01 8.95467 231.01 9.776C231.01 10.5973 230.743 11.2 230.21 11.584C229.687 11.968 228.919 12.16 227.906 12.16C227.244 12.16 226.466 12.0853 225.57 11.936L225.09 11.856L225.154 10.816C226.37 10.9973 227.287 11.088 227.906 11.088C228.524 11.088 228.994 10.992 229.314 10.8C229.644 10.5973 229.81 10.2667 229.81 9.808C229.81 9.33867 229.671 9.024 229.394 8.864C229.116 8.69333 228.508 8.53333 227.57 8.384C226.631 8.23467 225.964 8.016 225.57 7.728C225.175 7.44 224.978 6.90667 224.978 6.128C224.978 5.34933 225.25 4.77333 225.794 4.4C226.348 4.02667 227.036 3.84 227.858 3.84C228.508 3.84 229.324 3.91467 230.306 4.064L230.754 4.144L230.722 5.168C229.538 4.99733 228.604 4.912 227.922 4.912ZM232.495 7.984C232.495 6.52267 232.757 5.46667 233.279 4.816C233.802 4.16533 234.682 3.84 235.919 3.84C237.167 3.84 238.047 4.16533 238.559 4.816C239.082 5.46667 239.343 6.52267 239.343 7.984C239.343 9.44533 239.098 10.5067 238.607 11.168C238.117 11.8293 237.221 12.16 235.919 12.16C234.618 12.16 233.722 11.8293 233.231 11.168C232.741 10.5067 232.495 9.44533 232.495 7.984ZM233.727 7.968C233.727 9.13067 233.866 9.94667 234.143 10.416C234.431 10.8853 235.023 11.12 235.919 11.12C236.826 11.12 237.418 10.8907 237.695 10.432C237.973 9.96267 238.111 9.14133 238.111 7.968C238.111 6.79467 237.957 5.98933 237.647 5.552C237.338 5.104 236.762 4.88 235.919 4.88C235.087 4.88 234.511 5.104 234.191 5.552C233.882 5.98933 233.727 6.79467 233.727 7.968ZM250.96 0.511999V12H249.776V11.456C248.955 11.9253 248.144 12.16 247.344 12.16C246.917 12.16 246.544 12.1067 246.224 12C245.904 11.8933 245.605 11.7013 245.328 11.424C244.752 10.848 244.464 9.78667 244.464 8.24C244.464 6.68267 244.72 5.56267 245.232 4.88C245.755 4.18667 246.613 3.84 247.808 3.84C248.427 3.84 249.083 3.90933 249.776 4.048V0.511999H250.96ZM246.256 10.56C246.427 10.7627 246.608 10.9013 246.8 10.976C246.992 11.0507 247.237 11.088 247.536 11.088C247.845 11.088 248.187 11.04 248.56 10.944C248.944 10.8373 249.243 10.736 249.456 10.64L249.776 10.496V5.072C249.093 4.944 248.459 4.88 247.872 4.88C247.061 4.88 246.496 5.14133 246.176 5.664C245.856 6.176 245.696 6.976 245.696 8.064C245.696 9.30133 245.883 10.1333 246.256 10.56ZM253.285 12V4H254.485V12H253.285ZM253.285 2.192V0.799999H254.485V2.192H253.285ZM261.5 12H260.3V4H261.484V4.56C262.348 4.08 263.175 3.84 263.964 3.84C265.031 3.84 265.746 4.128 266.108 4.704C266.482 5.28 266.668 6.304 266.668 7.776V12H265.484V7.808C265.484 6.69867 265.372 5.94133 265.148 5.536C264.935 5.12 264.471 4.912 263.756 4.912C263.415 4.912 263.052 4.96533 262.668 5.072C262.295 5.168 262.007 5.264 261.804 5.36L261.5 5.504V12ZM274.334 11.008L274.798 10.96L274.83 11.904C273.614 12.0747 272.574 12.16 271.71 12.16C270.558 12.16 269.742 11.8293 269.262 11.168C268.782 10.496 268.542 9.456 268.542 8.048C268.542 5.24267 269.657 3.84 271.886 3.84C272.964 3.84 273.769 4.144 274.302 4.752C274.836 5.34933 275.102 6.29333 275.102 7.584L275.038 8.496H269.758C269.758 9.38133 269.918 10.0373 270.238 10.464C270.558 10.8907 271.113 11.104 271.902 11.104C272.702 11.104 273.513 11.072 274.334 11.008ZM273.902 7.536C273.902 6.55467 273.742 5.86133 273.422 5.456C273.113 5.05067 272.601 4.848 271.886 4.848C271.182 4.848 270.649 5.06133 270.286 5.488C269.934 5.91467 269.753 6.59733 269.742 7.536H273.902ZM279.964 3.84C280.316 3.84 280.914 3.904 281.756 4.032L282.14 4.08L282.092 5.056C281.239 4.96 280.61 4.912 280.204 4.912C279.298 4.912 278.679 5.13067 278.348 5.568C278.028 5.99467 277.868 6.79467 277.868 7.968C277.868 9.13067 278.018 9.94133 278.316 10.4C278.626 10.8587 279.26 11.088 280.22 11.088L282.108 10.944L282.156 11.936C281.164 12.0853 280.423 12.16 279.932 12.16C278.684 12.16 277.82 11.84 277.34 11.2C276.871 10.56 276.636 9.48267 276.636 7.968C276.636 6.44267 276.892 5.376 277.404 4.768C277.916 4.14933 278.77 3.84 279.964 3.84ZM289.287 11.008L289.751 10.96L289.783 11.904C288.567 12.0747 287.527 12.16 286.663 12.16C285.511 12.16 284.695 11.8293 284.215 11.168C283.735 10.496 283.495 9.456 283.495 8.048C283.495 5.24267 284.61 3.84 286.839 3.84C287.917 3.84 288.722 4.144 289.255 4.752C289.789 5.34933 290.055 6.29333 290.055 7.584L289.991 8.496H284.711C284.711 9.38133 284.871 10.0373 285.191 10.464C285.511 10.8907 286.066 11.104 286.855 11.104C287.655 11.104 288.466 11.072 289.287 11.008ZM288.855 7.536C288.855 6.55467 288.695 5.86133 288.375 5.456C288.066 5.05067 287.554 4.848 286.839 4.848C286.135 4.848 285.602 5.06133 285.239 5.488C284.887 5.91467 284.706 6.59733 284.695 7.536H288.855ZM294.437 4.912C293.275 4.912 292.693 5.31733 292.693 6.128C292.693 6.50133 292.827 6.768 293.093 6.928C293.36 7.07733 293.968 7.23733 294.917 7.408C295.867 7.568 296.539 7.79733 296.933 8.096C297.328 8.39467 297.525 8.95467 297.525 9.776C297.525 10.5973 297.259 11.2 296.725 11.584C296.203 11.968 295.435 12.16 294.421 12.16C293.76 12.16 292.981 12.0853 292.085 11.936L291.605 11.856L291.669 10.816C292.885 10.9973 293.803 11.088 294.421 11.088C295.04 11.088 295.509 10.992 295.829 10.8C296.16 10.5973 296.325 10.2667 296.325 9.808C296.325 9.33867 296.187 9.024 295.909 8.864C295.632 8.69333 295.024 8.53333 294.085 8.384C293.147 8.23467 292.48 8.016 292.085 7.728C291.691 7.44 291.493 6.90667 291.493 6.128C291.493 5.34933 291.765 4.77333 292.309 4.4C292.864 4.02667 293.552 3.84 294.373 3.84C295.024 3.84 295.84 3.91467 296.821 4.064L297.269 4.144L297.237 5.168C296.053 4.99733 295.12 4.912 294.437 4.912ZM301.875 4.912C300.712 4.912 300.131 5.31733 300.131 6.128C300.131 6.50133 300.264 6.768 300.531 6.928C300.798 7.07733 301.406 7.23733 302.355 7.408C303.304 7.568 303.976 7.79733 304.371 8.096C304.766 8.39467 304.963 8.95467 304.963 9.776C304.963 10.5973 304.696 11.2 304.163 11.584C303.64 11.968 302.872 12.16 301.859 12.16C301.198 12.16 300.419 12.0853 299.523 11.936L299.043 11.856L299.107 10.816C300.323 10.9973 301.24 11.088 301.859 11.088C302.478 11.088 302.947 10.992 303.267 10.8C303.598 10.5973 303.763 10.2667 303.763 9.808C303.763 9.33867 303.624 9.024 303.347 8.864C303.07 8.69333 302.462 8.53333 301.523 8.384C300.584 8.23467 299.918 8.016 299.523 7.728C299.128 7.44 298.931 6.90667 298.931 6.128C298.931 5.34933 299.203 4.77333 299.747 4.4C300.302 4.02667 300.99 3.84 301.811 3.84C302.462 3.84 303.278 3.91467 304.259 4.064L304.707 4.144L304.675 5.168C303.491 4.99733 302.558 4.912 301.875 4.912ZM306.8 12V4H308V12H306.8ZM306.8 2.192V0.799999H308V2.192H306.8ZM314.444 5.04H311.9V8.864C311.9 9.78133 311.964 10.384 312.092 10.672C312.231 10.96 312.551 11.104 313.052 11.104L314.476 11.008L314.556 12C313.842 12.1173 313.298 12.176 312.924 12.176C312.092 12.176 311.516 11.9733 311.196 11.568C310.876 11.1627 310.716 10.3893 310.716 9.248V5.04H309.58V4H310.716V1.552H311.9V4H314.444V5.04ZM321.558 6.416V10.512C321.59 10.9067 321.899 11.1413 322.486 11.216L322.438 12.16C321.595 12.16 320.96 11.9467 320.534 11.52C319.574 11.9467 318.614 12.16 317.654 12.16C316.918 12.16 316.358 11.952 315.974 11.536C315.59 11.12 315.398 10.5227 315.398 9.744C315.398 8.96533 315.595 8.39467 315.99 8.032C316.384 7.65867 317.003 7.42933 317.846 7.344L320.358 7.104V6.416C320.358 5.872 320.24 5.48267 320.006 5.248C319.771 5.01333 319.451 4.896 319.046 4.896C318.192 4.896 317.307 4.94933 316.39 5.056L315.894 5.104L315.846 4.192C317.019 3.95733 318.059 3.84 318.966 3.84C319.872 3.84 320.528 4.048 320.934 4.464C321.35 4.88 321.558 5.53067 321.558 6.416ZM316.63 9.68C316.63 10.6613 317.035 11.152 317.846 11.152C318.571 11.152 319.286 11.0293 319.99 10.784L320.358 10.656V8.016L317.99 8.24C317.51 8.28267 317.163 8.42133 316.95 8.656C316.736 8.89067 316.63 9.232 316.63 9.68ZM317.11 0.16L320.566 1.728L320.23 2.544L316.694 1.184L317.11 0.16Z" fill="#64748B"/>
<path d="M52.3834 12V0.927999H54.6074L57.7434 10.288L60.8794 0.927999H63.1034V12H61.8714V2.24H61.6474L58.4314 11.6H57.0554L53.8394 2.24H53.6154V12H52.3834ZM71.2609 6.416V10.512C71.2929 10.9067 71.6023 11.1413 72.1889 11.216L72.1409 12.16C71.2983 12.16 70.6636 11.9467 70.2369 11.52C69.2769 11.9467 68.3169 12.16 67.3569 12.16C66.6209 12.16 66.0609 11.952 65.6769 11.536C65.2929 11.12 65.1009 10.5227 65.1009 9.744C65.1009 8.96533 65.2983 8.39467 65.6929 8.032C66.0876 7.65867 66.7063 7.42933 67.5489 7.344L70.0609 7.104V6.416C70.0609 5.872 69.9436 5.48267 69.7089 5.248C69.4743 5.01333 69.1543 4.896 68.7489 4.896C67.8956 4.896 67.0103 4.94933 66.0929 5.056L65.5969 5.104L65.5489 4.192C66.7223 3.95733 67.7623 3.84 68.6689 3.84C69.5756 3.84 70.2316 4.048 70.6369 4.464C71.0529 4.88 71.2609 5.53067 71.2609 6.416ZM66.3329 9.68C66.3329 10.6613 66.7383 11.152 67.5489 11.152C68.2743 11.152 68.9889 11.0293 69.6929 10.784L70.0609 10.656V8.016L67.6929 8.24C67.2129 8.28267 66.8663 8.42133 66.6529 8.656C66.4396 8.89067 66.3329 9.232 66.3329 9.68ZM73.6286 12V4H74.8286V12H73.6286ZM73.6286 2.192V0.799999H74.8286V2.192H73.6286Z" fill="#64748B"/>
</svg>
