<svg width="824" height="178" viewBox="0 0 824 178" fill="none" xmlns="http://www.w3.org/2000/svg">
<rect x="0.5" y="0.5" width="823" height="177" rx="4.5" stroke="#9747FF" stroke-dasharray="10 5"/>
<path d="M20 55C20 35.67 35.67 20 55 20C74.33 20 90 35.67 90 55C90 74.33 74.33 90 55 90C35.67 90 20 74.33 20 55Z" fill="#DCEDFF"/>
<path d="M67.5593 56.8931L56.9093 67.5431C55.8833 68.5691 54.1566 68.5821 53.1015 67.538C53.1004 67.5369 53.0993 67.5358 53.0982 67.5348L42.4566 56.8931C41.4308 55.8673 41.4177 54.1407 42.4616 53.0856L53.1066 42.4405C54.1325 41.4147 55.8591 41.4016 56.9142 42.4455C56.9154 42.4466 56.9165 42.4478 56.9177 42.4489L67.5509 53.0821C67.552 53.0832 67.5531 53.0843 67.5542 53.0855C68.5982 54.1406 68.5851 55.8673 67.5593 56.8931Z" fill="#0066CC" stroke="#0066CC" stroke-width="6.66667"/>
<path d="M110 55C110 35.67 125.67 20 145 20C164.33 20 180 35.67 180 55C180 74.33 164.33 90 145 90C125.67 90 110 74.33 110 55Z" fill="#E2E8F0"/>
<path d="M157.559 56.8931L146.909 67.5431C145.883 68.5691 144.157 68.5821 143.101 67.538C143.1 67.5369 143.099 67.5358 143.098 67.5348L132.457 56.8931C131.431 55.8673 131.418 54.1407 132.462 53.0856L143.107 42.4405C144.132 41.4147 145.859 41.4016 146.914 42.4455C146.915 42.4466 146.917 42.4478 146.918 42.4489L157.551 53.0821C157.552 53.0832 157.553 53.0843 157.554 53.0855C158.598 54.1406 158.585 55.8673 157.559 56.8931Z" fill="#94A3B8" stroke="#94A3B8" stroke-width="6.66667"/>
<path d="M200 55C200 35.67 215.67 20 235 20C254.33 20 270 35.67 270 55C270 74.33 254.33 90 235 90C215.67 90 200 74.33 200 55Z" fill="#003366"/>
<path d="M247.559 56.8931L236.909 67.5431C235.883 68.5691 234.157 68.5821 233.101 67.538C233.1 67.5369 233.099 67.5358 233.098 67.5348L222.457 56.8931C221.431 55.8673 221.418 54.1407 222.462 53.0856L233.107 42.4405C234.132 41.4147 235.859 41.4016 236.914 42.4455C236.915 42.4466 236.917 42.4478 236.918 42.4489L247.551 53.0821C247.552 53.0832 247.553 53.0843 247.554 53.0855C248.598 54.1406 248.585 55.8673 247.559 56.8931Z" fill="white" stroke="white" stroke-width="6.66667"/>
<path d="M290 55C290 35.67 305.67 20 325 20C344.33 20 360 35.67 360 55C360 74.33 344.33 90 325 90C305.67 90 290 74.33 290 55Z" fill="#E6F9EF"/>
<path d="M325 38.3335C315.817 38.3335 308.333 45.8168 308.333 55.0002C308.333 64.1835 315.817 71.6668 325 71.6668C334.183 71.6668 341.667 64.1835 341.667 55.0002C341.667 45.8168 334.183 38.3335 325 38.3335ZM332.967 51.1668L323.517 60.6168C323.283 60.8502 322.967 60.9835 322.633 60.9835C322.3 60.9835 321.983 60.8502 321.75 60.6168L317.033 55.9002C316.55 55.4168 316.55 54.6168 317.033 54.1335C317.517 53.6502 318.317 53.6502 318.8 54.1335L322.633 57.9668L331.2 49.4002C331.683 48.9168 332.483 48.9168 332.967 49.4002C333.45 49.8835 333.45 50.6668 332.967 51.1668Z" fill="#1D7748"/>
<path d="M380 55C380 35.67 395.67 20 415 20C434.33 20 450 35.67 450 55C450 74.33 434.33 90 415 90C395.67 90 380 74.33 380 55Z" fill="#F6E4C8"/>
<path d="M431.266 61.5335L420.6 42.3335C419.166 39.7502 417.183 38.3335 415 38.3335C412.816 38.3335 410.833 39.7502 409.4 42.3335L398.733 61.5335C397.383 63.9835 397.233 66.3335 398.316 68.1835C399.4 70.0335 401.533 71.0502 404.333 71.0502H425.666C428.466 71.0502 430.6 70.0335 431.683 68.1835C432.766 66.3335 432.616 63.9668 431.266 61.5335ZM413.75 50.0002C413.75 49.3168 414.316 48.7502 415 48.7502C415.683 48.7502 416.25 49.3168 416.25 50.0002V58.3335C416.25 59.0168 415.683 59.5835 415 59.5835C414.316 59.5835 413.75 59.0168 413.75 58.3335V50.0002ZM416.183 64.5168C416.1 64.5835 416.016 64.6502 415.933 64.7168C415.833 64.7835 415.733 64.8335 415.633 64.8668C415.533 64.9168 415.433 64.9502 415.316 64.9668C415.216 64.9835 415.1 65.0002 415 65.0002C414.9 65.0002 414.783 64.9835 414.666 64.9668C414.566 64.9502 414.466 64.9168 414.366 64.8668C414.266 64.8335 414.166 64.7835 414.066 64.7168C413.983 64.6502 413.9 64.5835 413.816 64.5168C413.516 64.2002 413.333 63.7668 413.333 63.3335C413.333 62.9002 413.516 62.4668 413.816 62.1502C413.9 62.0835 413.983 62.0168 414.066 61.9502C414.166 61.8835 414.266 61.8335 414.366 61.8002C414.466 61.7502 414.566 61.7168 414.666 61.7002C414.883 61.6502 415.116 61.6502 415.316 61.7002C415.433 61.7168 415.533 61.7502 415.633 61.8002C415.733 61.8335 415.833 61.8835 415.933 61.9502C416.016 62.0168 416.1 62.0835 416.183 62.1502C416.483 62.4668 416.666 62.9002 416.666 63.3335C416.666 63.7668 416.483 64.2002 416.183 64.5168Z" fill="#995C00"/>
<path d="M470 55C470 35.67 485.67 20 505 20C524.33 20 540 35.67 540 55C540 74.33 524.33 90 505 90C485.67 90 470 74.33 470 55Z" fill="#FCE8EB"/>
<path d="M505 38.3335C495.817 38.3335 488.333 45.8168 488.333 55.0002C488.333 64.1835 495.817 71.6668 505 71.6668C514.183 71.6668 521.667 64.1835 521.667 55.0002C521.667 45.8168 514.183 38.3335 505 38.3335ZM503.75 48.3335C503.75 47.6502 504.317 47.0835 505 47.0835C505.683 47.0835 506.25 47.6502 506.25 48.3335V56.6668C506.25 57.3502 505.683 57.9168 505 57.9168C504.317 57.9168 503.75 57.3502 503.75 56.6668V48.3335ZM506.533 62.3002C506.45 62.5168 506.333 62.6835 506.183 62.8502C506.017 63.0002 505.833 63.1168 505.633 63.2002C505.433 63.2835 505.217 63.3335 505 63.3335C504.783 63.3335 504.567 63.2835 504.367 63.2002C504.167 63.1168 503.983 63.0002 503.817 62.8502C503.667 62.6835 503.55 62.5168 503.467 62.3002C503.383 62.1002 503.333 61.8835 503.333 61.6668C503.333 61.4502 503.383 61.2335 503.467 61.0335C503.55 60.8335 503.667 60.6502 503.817 60.4835C503.983 60.3335 504.167 60.2168 504.367 60.1335C504.767 59.9668 505.233 59.9668 505.633 60.1335C505.833 60.2168 506.017 60.3335 506.183 60.4835C506.333 60.6502 506.45 60.8335 506.533 61.0335C506.617 61.2335 506.667 61.4502 506.667 61.6668C506.667 61.8835 506.617 62.1002 506.533 62.3002Z" fill="#BD192E"/>
<path d="M560 55C560 41.7452 570.745 31 584 31C597.255 31 608 41.7452 608 55C608 68.2548 597.255 79 584 79C570.745 79 560 68.2548 560 55Z" fill="#DCEDFF"/>
<path d="M592.713 57.3132L586.323 63.7032C585.372 64.6548 583.794 64.6594 582.828 63.7016C582.827 63.7012 582.827 63.7007 582.827 63.7003L576.439 57.3132C575.488 56.3615 575.483 54.7839 576.441 53.8178C576.441 53.8174 576.442 53.817 576.442 53.8165L582.829 47.4294C583.781 46.4777 585.359 46.4732 586.325 47.431C586.325 47.4314 586.326 47.4318 586.326 47.4323L592.71 53.8165C592.711 53.817 592.711 53.8174 592.712 53.8179C593.669 54.7839 593.665 56.3615 592.713 57.3132Z" fill="#0066CC" stroke="#0066CC" stroke-width="2.28571"/>
<path d="M628 55C628 41.7452 638.745 31 652 31C665.255 31 676 41.7452 676 55C676 68.2548 665.255 79 652 79C638.745 79 628 68.2548 628 55Z" fill="#E2E8F0"/>
<path d="M660.713 57.3132L654.323 63.7032C653.372 64.6548 651.794 64.6594 650.828 63.7016C650.827 63.7012 650.827 63.7007 650.827 63.7003L644.439 57.3132C643.488 56.3615 643.483 54.7839 644.441 53.8178C644.441 53.8174 644.442 53.817 644.442 53.8165L650.829 47.4294C651.781 46.4777 653.359 46.4732 654.325 47.431C654.325 47.4314 654.326 47.4318 654.326 47.4323L660.71 53.8165C660.711 53.817 660.711 53.8174 660.712 53.8179C661.669 54.7839 661.665 56.3615 660.713 57.3132Z" fill="#94A3B8" stroke="#94A3B8" stroke-width="2.28571"/>
<path d="M696 55C696 41.7452 706.745 31 720 31C733.255 31 744 41.7452 744 55C744 68.2548 733.255 79 720 79C706.745 79 696 68.2548 696 55Z" fill="#003366"/>
<path d="M728.713 57.3132L722.323 63.7032C721.372 64.6548 719.794 64.6594 718.828 63.7016C718.828 63.7012 718.827 63.7007 718.827 63.7003L712.44 57.3132C711.488 56.3615 711.483 54.7839 712.441 53.8178C712.442 53.8174 712.442 53.817 712.442 53.8165L718.83 47.4294C719.781 46.4777 721.359 46.4732 722.325 47.431C722.325 47.4314 722.326 47.4318 722.326 47.4323L728.71 53.8165C728.711 53.817 728.711 53.8174 728.712 53.8179C729.67 54.7839 729.665 56.3615 728.713 57.3132Z" fill="white" stroke="white" stroke-width="2.28571"/>
<path d="M20 134C20 120.745 30.7452 110 44 110C57.2548 110 68 120.745 68 134C68 147.255 57.2548 158 44 158C30.7452 158 20 147.255 20 134Z" fill="#E6F9EF"/>
<path d="M44.5715 124.571C39.0615 124.571 34.5715 129.061 34.5715 134.571C34.5715 140.081 39.0615 144.571 44.5715 144.571C50.0815 144.571 54.5715 140.081 54.5715 134.571C54.5715 129.061 50.0815 124.571 44.5715 124.571ZM49.3515 132.271L43.6815 137.941C43.5415 138.081 43.3515 138.161 43.1515 138.161C42.9515 138.161 42.7615 138.081 42.6215 137.941L39.7915 135.111C39.5015 134.821 39.5015 134.341 39.7915 134.051C40.0815 133.761 40.5615 133.761 40.8515 134.051L43.1515 136.351L48.2915 131.211C48.5815 130.921 49.0615 130.921 49.3515 131.211C49.6415 131.501 49.6415 131.971 49.3515 132.271Z" fill="#1D7748"/>
<path d="M88 134C88 120.745 98.7452 110 112 110C125.255 110 136 120.745 136 134C136 147.255 125.255 158 112 158C98.7452 158 88 147.255 88 134Z" fill="#F6E4C8"/>
<path d="M122.331 138.491L115.931 126.971C115.071 125.421 113.881 124.571 112.571 124.571C111.261 124.571 110.071 125.421 109.211 126.971L102.811 138.491C102.001 139.961 101.911 141.371 102.561 142.481C103.211 143.591 104.491 144.201 106.171 144.201H118.971C120.651 144.201 121.931 143.591 122.581 142.481C123.231 141.371 123.141 139.951 122.331 138.491ZM111.821 131.571C111.821 131.161 112.161 130.821 112.571 130.821C112.981 130.821 113.321 131.161 113.321 131.571V136.571C113.321 136.981 112.981 137.321 112.571 137.321C112.161 137.321 111.821 136.981 111.821 136.571V131.571ZM113.281 140.281C113.231 140.321 113.181 140.361 113.131 140.401C113.071 140.441 113.011 140.471 112.951 140.491C112.891 140.521 112.831 140.541 112.761 140.551C112.701 140.561 112.631 140.571 112.571 140.571C112.511 140.571 112.441 140.561 112.371 140.551C112.311 140.541 112.251 140.521 112.191 140.491C112.131 140.471 112.071 140.441 112.011 140.401C111.961 140.361 111.911 140.321 111.861 140.281C111.681 140.091 111.571 139.831 111.571 139.571C111.571 139.311 111.681 139.051 111.861 138.861C111.911 138.821 111.961 138.781 112.011 138.741C112.071 138.701 112.131 138.671 112.191 138.651C112.251 138.621 112.311 138.601 112.371 138.591C112.501 138.561 112.641 138.561 112.761 138.591C112.831 138.601 112.891 138.621 112.951 138.651C113.011 138.671 113.071 138.701 113.131 138.741C113.181 138.781 113.231 138.821 113.281 138.861C113.461 139.051 113.571 139.311 113.571 139.571C113.571 139.831 113.461 140.091 113.281 140.281Z" fill="#995C00"/>
<path d="M156 134C156 120.745 166.745 110 180 110C193.255 110 204 120.745 204 134C204 147.255 193.255 158 180 158C166.745 158 156 147.255 156 134Z" fill="#FCE8EB"/>
<path d="M180.572 124.571C175.062 124.571 170.572 129.061 170.572 134.571C170.572 140.081 175.062 144.571 180.572 144.571C186.082 144.571 190.572 140.081 190.572 134.571C190.572 129.061 186.082 124.571 180.572 124.571ZM179.822 130.571C179.822 130.161 180.162 129.821 180.572 129.821C180.982 129.821 181.322 130.161 181.322 130.571V135.571C181.322 135.981 180.982 136.321 180.572 136.321C180.162 136.321 179.822 135.981 179.822 135.571V130.571ZM181.492 138.951C181.442 139.081 181.372 139.181 181.282 139.281C181.182 139.371 181.072 139.441 180.952 139.491C180.832 139.541 180.702 139.571 180.572 139.571C180.442 139.571 180.312 139.541 180.192 139.491C180.072 139.441 179.962 139.371 179.862 139.281C179.772 139.181 179.702 139.081 179.652 138.951C179.602 138.831 179.572 138.701 179.572 138.571C179.572 138.441 179.602 138.311 179.652 138.191C179.702 138.071 179.772 137.961 179.862 137.861C179.962 137.771 180.072 137.701 180.192 137.651C180.432 137.551 180.712 137.551 180.952 137.651C181.072 137.701 181.182 137.771 181.282 137.861C181.372 137.961 181.442 138.071 181.492 138.191C181.542 138.311 181.572 138.441 181.572 138.571C181.572 138.701 181.542 138.831 181.492 138.951Z" fill="#BD192E"/>
</svg>
