<svg width="749" height="183" viewBox="0 0 749 183" fill="none" xmlns="http://www.w3.org/2000/svg">
<rect x="0.5" y="0.5" width="748" height="182" rx="4.5" stroke="#9747FF" stroke-dasharray="10 5"/>
<rect x="20" y="10" width="85" height="85" rx="42.5" fill="#4392E0"/>
<rect x="27.5" y="17.5" width="70" height="70" rx="35" fill="#0066CC"/>
<path d="M52.3453 62.1174C51.2667 61.8053 50.2584 61.2598 49.3969 60.5067C47.8487 59.1534 46.9015 57.2404 46.7638 55.1887C46.626 53.137 47.3089 51.1146 48.6623 49.5664C49.3324 48.7998 50.147 48.1727 51.0595 47.7209C51.9719 47.2691 52.9645 47.0015 53.9804 46.9333C54.0858 46.9356 54.1897 46.9076 54.2798 46.8528C54.3699 46.798 54.4424 46.7185 54.4887 46.6238C55.1895 44.5926 56.5655 42.8631 58.3872 41.7237C60.2088 40.5842 62.3661 40.1037 64.4991 40.3622C66.6322 40.6208 68.6121 41.6028 70.1087 43.1444C71.6055 44.6861 72.5283 46.6943 72.7236 48.8341C72.7399 48.9468 72.7882 49.0524 72.8625 49.1386C72.9371 49.2247 73.0344 49.2878 73.1435 49.3204C74.723 49.6925 76.1112 50.6308 77.0452 51.9577C77.9793 53.2846 78.3943 54.9079 78.2119 56.5202C78.0293 58.1326 77.2619 59.6221 76.0551 60.7066C75.1495 61.5204 74.0438 62.0637 72.8625 62.2886" stroke="white" stroke-width="1.66667" stroke-linecap="round" stroke-linejoin="round"/>
<path d="M67.9643 58.9817L63.1071 54.1245L58.25 58.9817" stroke="white" stroke-width="1.66667" stroke-linecap="round" stroke-linejoin="round"/>
<path d="M63.1072 54.1245V67.4817" stroke="white" stroke-width="1.66667" stroke-linecap="round" stroke-linejoin="round"/>
<rect x="121" y="10" width="85" height="85" rx="42.5" fill="#207AD5"/>
<rect x="128.5" y="17.5" width="70" height="70" rx="35" fill="#004D99"/>
<path d="M153.345 62.1174C152.267 61.8053 151.258 61.2598 150.397 60.5067C148.849 59.1534 147.902 57.2404 147.764 55.1887C147.626 53.137 148.309 51.1146 149.662 49.5664C150.332 48.7998 151.147 48.1727 152.059 47.7209C152.972 47.2691 153.964 47.0015 154.98 46.9333C155.086 46.9356 155.19 46.9076 155.28 46.8528C155.37 46.798 155.442 46.7185 155.489 46.6238C156.19 44.5926 157.566 42.8631 159.387 41.7237C161.209 40.5842 163.366 40.1037 165.499 40.3622C167.632 40.6208 169.612 41.6028 171.109 43.1444C172.605 44.6861 173.528 46.6943 173.724 48.8341C173.74 48.9468 173.788 49.0524 173.863 49.1386C173.937 49.2247 174.034 49.2878 174.143 49.3204C175.723 49.6925 177.111 50.6308 178.045 51.9577C178.979 53.2846 179.394 54.9079 179.212 56.5202C179.029 58.1326 178.262 59.6221 177.055 60.7066C176.149 61.5204 175.044 62.0637 173.863 62.2886" stroke="white" stroke-width="1.66667" stroke-linecap="round" stroke-linejoin="round"/>
<path d="M168.964 58.9817L164.107 54.1245L159.25 58.9817" stroke="white" stroke-width="1.66667" stroke-linecap="round" stroke-linejoin="round"/>
<path d="M164.107 54.1245V67.4817" stroke="white" stroke-width="1.66667" stroke-linecap="round" stroke-linejoin="round"/>
<rect x="222" y="10" width="85" height="85" rx="42.5" fill="#DCEDFF"/>
<rect x="229.5" y="17.5" width="70" height="70" rx="35" fill="#BFDFFF"/>
<path d="M254.345 62.1174C253.267 61.8053 252.258 61.2598 251.397 60.5067C249.849 59.1534 248.902 57.2404 248.764 55.1887C248.626 53.137 249.309 51.1146 250.662 49.5664C251.332 48.7998 252.147 48.1727 253.059 47.7209C253.972 47.2691 254.964 47.0015 255.98 46.9333C256.086 46.9356 256.19 46.9076 256.28 46.8528C256.37 46.798 256.442 46.7185 256.489 46.6238C257.19 44.5926 258.566 42.8631 260.387 41.7237C262.209 40.5842 264.366 40.1037 266.499 40.3622C268.632 40.6208 270.612 41.6028 272.109 43.1444C273.605 44.6861 274.528 46.6943 274.724 48.8341C274.74 48.9468 274.788 49.0524 274.863 49.1386C274.937 49.2247 275.034 49.2878 275.143 49.3204C276.723 49.6925 278.111 50.6308 279.045 51.9577C279.979 53.2846 280.394 54.9079 280.212 56.5202C280.029 58.1326 279.262 59.6221 278.055 60.7066C277.149 61.5204 276.044 62.0637 274.863 62.2886" stroke="#0066CC" stroke-width="1.66667" stroke-linecap="round" stroke-linejoin="round"/>
<path d="M269.964 58.9817L265.107 54.1245L260.25 58.9817" stroke="#0066CC" stroke-width="1.66667" stroke-linecap="round" stroke-linejoin="round"/>
<path d="M265.107 54.1245V67.4817" stroke="#0066CC" stroke-width="1.66667" stroke-linecap="round" stroke-linejoin="round"/>
<rect x="323" y="10" width="85" height="85" rx="42.5" fill="#E6F9EF"/>
<rect x="330.5" y="17.5" width="70" height="70" rx="35" fill="#CAF2DD"/>
<path d="M365.5 35.8335C356.317 35.8335 348.833 43.3168 348.833 52.5002C348.833 61.6835 356.317 69.1668 365.5 69.1668C374.683 69.1668 382.167 61.6835 382.167 52.5002C382.167 43.3168 374.683 35.8335 365.5 35.8335ZM373.467 48.6668L364.017 58.1168C363.783 58.3502 363.467 58.4835 363.133 58.4835C362.8 58.4835 362.483 58.3502 362.25 58.1168L357.533 53.4002C357.05 52.9168 357.05 52.1168 357.533 51.6335C358.017 51.1502 358.817 51.1502 359.3 51.6335L363.133 55.4668L371.7 46.9002C372.183 46.4168 372.983 46.4168 373.467 46.9002C373.95 47.3835 373.95 48.1668 373.467 48.6668Z" fill="#1D7748"/>
<rect x="424" y="10" width="85" height="85" rx="42.5" fill="#F6E4C8"/>
<rect x="431.5" y="17.5" width="70" height="70" rx="35" fill="#EECD9A"/>
<path d="M482.767 59.0335L472.1 39.8335C470.667 37.2502 468.683 35.8335 466.5 35.8335C464.317 35.8335 462.333 37.2502 460.9 39.8335L450.233 59.0335C448.883 61.4835 448.733 63.8335 449.817 65.6835C450.9 67.5335 453.033 68.5502 455.833 68.5502H477.167C479.967 68.5502 482.1 67.5335 483.183 65.6835C484.267 63.8335 484.117 61.4668 482.767 59.0335ZM465.25 47.5002C465.25 46.8168 465.817 46.2502 466.5 46.2502C467.183 46.2502 467.75 46.8168 467.75 47.5002V55.8335C467.75 56.5168 467.183 57.0835 466.5 57.0835C465.817 57.0835 465.25 56.5168 465.25 55.8335V47.5002ZM467.683 62.0168C467.6 62.0835 467.517 62.1502 467.433 62.2168C467.333 62.2835 467.233 62.3335 467.133 62.3668C467.033 62.4168 466.933 62.4502 466.817 62.4668C466.717 62.4835 466.6 62.5002 466.5 62.5002C466.4 62.5002 466.283 62.4835 466.167 62.4668C466.067 62.4502 465.967 62.4168 465.867 62.3668C465.767 62.3335 465.667 62.2835 465.567 62.2168C465.483 62.1502 465.4 62.0835 465.317 62.0168C465.017 61.7002 464.833 61.2668 464.833 60.8335C464.833 60.4002 465.017 59.9668 465.317 59.6502C465.4 59.5835 465.483 59.5168 465.567 59.4502C465.667 59.3835 465.767 59.3335 465.867 59.3002C465.967 59.2502 466.067 59.2168 466.167 59.2002C466.383 59.1502 466.617 59.1502 466.817 59.2002C466.933 59.2168 467.033 59.2502 467.133 59.3002C467.233 59.3335 467.333 59.3835 467.433 59.4502C467.517 59.5168 467.6 59.5835 467.683 59.6502C467.983 59.9668 468.167 60.4002 468.167 60.8335C468.167 61.2668 467.983 61.7002 467.683 62.0168Z" fill="#995C00"/>
<rect x="525" y="10" width="85" height="85" rx="42.5" fill="#FCE8EB"/>
<rect x="532.5" y="17.5" width="70" height="70" rx="35" fill="#FAD6DB"/>
<path d="M567.5 35.8335C558.317 35.8335 550.833 43.3168 550.833 52.5002C550.833 61.6835 558.317 69.1668 567.5 69.1668C576.683 69.1668 584.167 61.6835 584.167 52.5002C584.167 43.3168 576.683 35.8335 567.5 35.8335ZM566.25 45.8335C566.25 45.1502 566.817 44.5835 567.5 44.5835C568.183 44.5835 568.75 45.1502 568.75 45.8335V54.1668C568.75 54.8502 568.183 55.4168 567.5 55.4168C566.817 55.4168 566.25 54.8502 566.25 54.1668V45.8335ZM569.033 59.8002C568.95 60.0168 568.833 60.1835 568.683 60.3502C568.517 60.5002 568.333 60.6168 568.133 60.7002C567.933 60.7835 567.717 60.8335 567.5 60.8335C567.283 60.8335 567.067 60.7835 566.867 60.7002C566.667 60.6168 566.483 60.5002 566.317 60.3502C566.167 60.1835 566.05 60.0168 565.967 59.8002C565.883 59.6002 565.833 59.3835 565.833 59.1668C565.833 58.9502 565.883 58.7335 565.967 58.5335C566.05 58.3335 566.167 58.1502 566.317 57.9835C566.483 57.8335 566.667 57.7168 566.867 57.6335C567.267 57.4668 567.733 57.4668 568.133 57.6335C568.333 57.7168 568.517 57.8335 568.683 57.9835C568.833 58.1502 568.95 58.3335 569.033 58.5335C569.117 58.7335 569.167 58.9502 569.167 59.1668C569.167 59.3835 569.117 59.6002 569.033 59.8002Z" fill="#BD192E"/>
<rect x="626" y="10" width="85" height="85" rx="42.5" fill="#94A3B8"/>
<rect x="633.5" y="17.5" width="70" height="70" rx="35" fill="#64748B"/>
<path d="M658.345 62.1174C657.267 61.8053 656.258 61.2598 655.397 60.5067C653.849 59.1534 652.902 57.2404 652.764 55.1887C652.626 53.137 653.309 51.1146 654.662 49.5664C655.332 48.7998 656.147 48.1727 657.059 47.7209C657.972 47.2691 658.964 47.0015 659.98 46.9333C660.086 46.9356 660.19 46.9076 660.28 46.8528C660.37 46.798 660.442 46.7185 660.489 46.6238C661.19 44.5926 662.566 42.8631 664.387 41.7237C666.209 40.5842 668.366 40.1037 670.499 40.3622C672.632 40.6208 674.612 41.6028 676.109 43.1444C677.605 44.6861 678.528 46.6943 678.724 48.8341C678.74 48.9468 678.788 49.0524 678.863 49.1386C678.937 49.2247 679.034 49.2878 679.143 49.3204C680.723 49.6925 682.111 50.6308 683.045 51.9577C683.979 53.2846 684.394 54.9079 684.212 56.5202C684.029 58.1326 683.262 59.6221 682.055 60.7066C681.149 61.5204 680.044 62.0637 678.863 62.2886" stroke="white" stroke-width="1.66667" stroke-linecap="round" stroke-linejoin="round"/>
<path d="M673.964 58.9817L669.107 54.1245L664.25 58.9817" stroke="white" stroke-width="1.66667" stroke-linecap="round" stroke-linejoin="round"/>
<path d="M669.107 54.1245V67.4817" stroke="white" stroke-width="1.66667" stroke-linecap="round" stroke-linejoin="round"/>
<rect x="20" y="125" width="48" height="48" rx="24" fill="#4392E0"/>
<rect x="24" y="129" width="40" height="40" rx="20" fill="#0066CC"/>
<path d="M37.9072 154.77C37.2601 154.583 36.6551 154.256 36.1382 153.804C35.2093 152.992 34.641 151.844 34.5583 150.613C34.4757 149.382 34.8854 148.169 35.6974 147.24C36.0995 146.78 36.5882 146.404 37.1357 146.132C37.6832 145.861 38.2787 145.701 38.8883 145.66C38.9515 145.661 39.0139 145.644 39.0679 145.612C39.122 145.579 39.1655 145.531 39.1933 145.474C39.6138 144.255 40.4394 143.218 41.5324 142.534C42.6254 141.85 43.9197 141.562 45.1995 141.717C46.4794 141.872 47.6673 142.462 48.5653 143.387C49.4633 144.312 50.017 145.516 50.1342 146.8C50.144 146.868 50.173 146.931 50.2176 146.983C50.2623 147.035 50.3207 147.073 50.3861 147.092C51.3339 147.315 52.1668 147.878 52.7272 148.675C53.2876 149.471 53.5366 150.445 53.4272 151.412C53.3176 152.379 52.8572 153.273 52.1331 153.924C51.5897 154.412 50.9263 154.738 50.2176 154.873" stroke="white" stroke-linecap="round" stroke-linejoin="round"/>
<path d="M47.2785 152.889L44.3642 149.975L41.45 152.889" stroke="white" stroke-linecap="round" stroke-linejoin="round"/>
<path d="M44.3643 149.975V157.989" stroke="white" stroke-linecap="round" stroke-linejoin="round"/>
<rect x="84" y="125" width="48" height="48" rx="24" fill="#207AD5"/>
<rect x="88" y="129" width="40" height="40" rx="20" fill="#004D99"/>
<path d="M101.907 154.77C101.26 154.583 100.655 154.256 100.138 153.804C99.2093 152.992 98.641 151.844 98.5583 150.613C98.4757 149.382 98.8854 148.169 99.6974 147.24C100.1 146.78 100.588 146.404 101.136 146.132C101.683 145.861 102.279 145.701 102.888 145.66C102.952 145.661 103.014 145.644 103.068 145.612C103.122 145.579 103.165 145.531 103.193 145.474C103.614 144.255 104.439 143.218 105.532 142.534C106.625 141.85 107.92 141.562 109.2 141.717C110.479 141.872 111.667 142.462 112.565 143.387C113.463 144.312 114.017 145.516 114.134 146.8C114.144 146.868 114.173 146.931 114.218 146.983C114.262 147.035 114.321 147.073 114.386 147.092C115.334 147.315 116.167 147.878 116.727 148.675C117.288 149.471 117.537 150.445 117.427 151.412C117.318 152.379 116.857 153.273 116.133 153.924C115.59 154.412 114.926 154.738 114.218 154.873" stroke="white" stroke-linecap="round" stroke-linejoin="round"/>
<path d="M111.279 152.889L108.364 149.975L105.45 152.889" stroke="white" stroke-linecap="round" stroke-linejoin="round"/>
<path d="M108.364 149.975V157.989" stroke="white" stroke-linecap="round" stroke-linejoin="round"/>
<rect x="148" y="125" width="48" height="48" rx="24" fill="#DCEDFF"/>
<rect x="152" y="129" width="40" height="40" rx="20" fill="#BFDFFF"/>
<path d="M165.907 154.77C165.26 154.583 164.655 154.256 164.138 153.804C163.209 152.992 162.641 151.844 162.558 150.613C162.476 149.382 162.885 148.169 163.697 147.24C164.1 146.78 164.588 146.404 165.136 146.132C165.683 145.861 166.279 145.701 166.888 145.66C166.952 145.661 167.014 145.644 167.068 145.612C167.122 145.579 167.165 145.531 167.193 145.474C167.614 144.255 168.439 143.218 169.532 142.534C170.625 141.85 171.92 141.562 173.2 141.717C174.479 141.872 175.667 142.462 176.565 143.387C177.463 144.312 178.017 145.516 178.134 146.8C178.144 146.868 178.173 146.931 178.218 146.983C178.262 147.035 178.321 147.073 178.386 147.092C179.334 147.315 180.167 147.878 180.727 148.675C181.288 149.471 181.537 150.445 181.427 151.412C181.318 152.379 180.857 153.273 180.133 153.924C179.59 154.412 178.926 154.738 178.218 154.873" stroke="#0066CC" stroke-linecap="round" stroke-linejoin="round"/>
<path d="M175.279 152.889L172.364 149.975L169.45 152.889" stroke="#0066CC" stroke-linecap="round" stroke-linejoin="round"/>
<path d="M172.364 149.975V157.989" stroke="#0066CC" stroke-linecap="round" stroke-linejoin="round"/>
<rect x="212" y="125" width="48" height="48" rx="24" fill="#E6F9EF"/>
<rect x="216" y="129" width="40" height="40" rx="20" fill="#CAF2DD"/>
<path d="M236 139C230.49 139 226 143.49 226 149C226 154.51 230.49 159 236 159C241.51 159 246 154.51 246 149C246 143.49 241.51 139 236 139ZM240.78 146.7L235.11 152.37C234.97 152.51 234.78 152.59 234.58 152.59C234.38 152.59 234.19 152.51 234.05 152.37L231.22 149.54C230.93 149.25 230.93 148.77 231.22 148.48C231.51 148.19 231.99 148.19 232.28 148.48L234.58 150.78L239.72 145.64C240.01 145.35 240.49 145.35 240.78 145.64C241.07 145.93 241.07 146.4 240.78 146.7Z" fill="#1D7748"/>
<rect x="276" y="125" width="48" height="48" rx="24" fill="#F6E4C8"/>
<rect x="280" y="129" width="40" height="40" rx="20" fill="#EECD9A"/>
<path d="M309.76 152.92L303.36 141.4C302.5 139.85 301.31 139 300 139C298.69 139 297.5 139.85 296.64 141.4L290.24 152.92C289.43 154.39 289.34 155.8 289.99 156.91C290.64 158.02 291.92 158.63 293.6 158.63H306.4C308.08 158.63 309.36 158.02 310.01 156.91C310.66 155.8 310.57 154.38 309.76 152.92ZM299.25 146C299.25 145.59 299.59 145.25 300 145.25C300.41 145.25 300.75 145.59 300.75 146V151C300.75 151.41 300.41 151.75 300 151.75C299.59 151.75 299.25 151.41 299.25 151V146ZM300.71 154.71C300.66 154.75 300.61 154.79 300.56 154.83C300.5 154.87 300.44 154.9 300.38 154.92C300.32 154.95 300.26 154.97 300.19 154.98C300.13 154.99 300.06 155 300 155C299.94 155 299.87 154.99 299.8 154.98C299.74 154.97 299.68 154.95 299.62 154.92C299.56 154.9 299.5 154.87 299.44 154.83C299.39 154.79 299.34 154.75 299.29 154.71C299.11 154.52 299 154.26 299 154C299 153.74 299.11 153.48 299.29 153.29C299.34 153.25 299.39 153.21 299.44 153.17C299.5 153.13 299.56 153.1 299.62 153.08C299.68 153.05 299.74 153.03 299.8 153.02C299.93 152.99 300.07 152.99 300.19 153.02C300.26 153.03 300.32 153.05 300.38 153.08C300.44 153.1 300.5 153.13 300.56 153.17C300.61 153.21 300.66 153.25 300.71 153.29C300.89 153.48 301 153.74 301 154C301 154.26 300.89 154.52 300.71 154.71Z" fill="#995C00"/>
<rect x="340" y="125" width="48" height="48" rx="24" fill="#FCE8EB"/>
<rect x="344" y="129" width="40" height="40" rx="20" fill="#FAD6DB"/>
<path d="M364 139C358.49 139 354 143.49 354 149C354 154.51 358.49 159 364 159C369.51 159 374 154.51 374 149C374 143.49 369.51 139 364 139ZM363.25 145C363.25 144.59 363.59 144.25 364 144.25C364.41 144.25 364.75 144.59 364.75 145V150C364.75 150.41 364.41 150.75 364 150.75C363.59 150.75 363.25 150.41 363.25 150V145ZM364.92 153.38C364.87 153.51 364.8 153.61 364.71 153.71C364.61 153.8 364.5 153.87 364.38 153.92C364.26 153.97 364.13 154 364 154C363.87 154 363.74 153.97 363.62 153.92C363.5 153.87 363.39 153.8 363.29 153.71C363.2 153.61 363.13 153.51 363.08 153.38C363.03 153.26 363 153.13 363 153C363 152.87 363.03 152.74 363.08 152.62C363.13 152.5 363.2 152.39 363.29 152.29C363.39 152.2 363.5 152.13 363.62 152.08C363.86 151.98 364.14 151.98 364.38 152.08C364.5 152.13 364.61 152.2 364.71 152.29C364.8 152.39 364.87 152.5 364.92 152.62C364.97 152.74 365 152.87 365 153C365 153.13 364.97 153.26 364.92 153.38Z" fill="#BD192E"/>
<rect x="404" y="125" width="48" height="48" rx="24" fill="#94A3B8"/>
<rect x="408" y="129" width="40" height="40" rx="20" fill="#64748B"/>
<path d="M421.907 154.77C421.26 154.583 420.655 154.256 420.138 153.804C419.209 152.992 418.641 151.844 418.558 150.613C418.476 149.382 418.885 148.169 419.697 147.24C420.1 146.78 420.588 146.404 421.136 146.132C421.683 145.861 422.279 145.701 422.888 145.66C422.952 145.661 423.014 145.644 423.068 145.612C423.122 145.579 423.165 145.531 423.193 145.474C423.614 144.255 424.439 143.218 425.532 142.534C426.625 141.85 427.92 141.562 429.2 141.717C430.479 141.872 431.667 142.462 432.565 143.387C433.463 144.312 434.017 145.516 434.134 146.8C434.144 146.868 434.173 146.931 434.218 146.983C434.262 147.035 434.321 147.073 434.386 147.092C435.334 147.315 436.167 147.878 436.727 148.675C437.288 149.471 437.537 150.445 437.427 151.412C437.318 152.379 436.857 153.273 436.133 153.924C435.59 154.412 434.926 154.738 434.218 154.873" stroke="white" stroke-linecap="round" stroke-linejoin="round"/>
<path d="M431.279 152.889L428.364 149.975L425.45 152.889" stroke="white" stroke-linecap="round" stroke-linejoin="round"/>
<path d="M428.364 149.975V157.989" stroke="white" stroke-linecap="round" stroke-linejoin="round"/>
</svg>
