 <svg
                            
                            width="28"
                            height="30"
                            viewBox="0 0 28 30"
                            fill="none"
                            xmlns="http://www.w3.org/2000/svg"
                          >
                            <path
                              d="M14.1738 0.335938C16.0343 1.02563 17.8922 1.72575 19.7565 2.40501C22.2167 3.30069 24.6795 4.18595 27.1476 5.05686C27.5243 5.18984 27.6326 5.35803 27.5804 5.7635C27.0954 9.59004 26.6339 13.4205 26.1671 17.2496C25.9442 19.0788 25.7473 20.9106 25.4801 22.7333C25.437 23.0305 25.1476 23.3851 24.8751 23.5416C21.4736 25.4933 18.0538 27.4138 14.6406 29.3446C14.4763 29.4372 14.329 29.5611 14.1738 29.6693H14.0435C12.2091 28.6132 10.3773 27.5507 8.53767 26.5024C6.78672 25.5051 5.01882 24.539 3.28351 23.5142C3.01885 23.3578 2.76331 22.9771 2.7255 22.6733C2.03581 17.1701 1.40479 11.6578 0.690327 6.15593C0.592545 5.40366 0.786805 5.16116 1.43999 4.93039C5.45688 3.50799 9.45943 2.04778 13.4659 0.59669C13.6641 0.524983 13.8518 0.42329 14.0435 0.335938C14.0865 0.335938 14.1308 0.335938 14.1738 0.335938ZM27.1984 5.5236C27.0198 5.44668 26.8855 5.37889 26.746 5.32934C23.2271 4.05818 19.6796 2.85741 16.1999 1.48586C14.7318 0.906985 13.4685 0.920023 12.007 1.49498C8.54549 2.85741 5.01882 4.05296 1.52213 5.32413C1.28223 5.41148 0.971939 5.4193 1.0293 5.85998C1.31483 8.00857 1.56645 10.1611 1.83242 12.3123C2.25093 15.7099 2.66292 19.1101 3.1062 22.5051C3.1414 22.7724 3.35 23.114 3.57946 23.2456C6.94447 25.1713 10.3251 27.0709 13.7136 28.9548C13.9118 29.0656 14.2729 29.0839 14.4633 28.977C17.8895 27.0709 21.3028 25.1413 24.7108 23.2013C24.8868 23.1009 25.0746 22.8688 25.0994 22.6772C25.3445 20.8298 25.5531 18.9771 25.7799 17.1271C26.1072 14.4596 26.4422 11.7934 26.7695 9.1272C26.9168 7.92774 27.055 6.72828 27.1971 5.52491L27.1984 5.5236Z"
                              fill="#003366"
                            />
                            <path
                              d="M13.5831 3.00034L13.5016 3.17747C10.675 9.31691 7.9084 15.3273 5.09879 21.4315L4.86758 21.9338C4.81818 21.9001 4.7981 21.879 4.78866 21.867L4.78816 21.8664C4.78252 21.8593 4.76044 21.8318 4.74878 21.7297L4.74873 21.7293C4.43771 19.0222 4.10254 16.318 3.76774 13.6167C3.71334 13.1778 3.65895 12.739 3.60468 12.3003L13.5831 3.00034ZM13.5831 3.00034C11.9996 3.56085 10.4203 4.13212 8.83848 4.70428C8.22344 4.92674 7.60804 5.14934 6.99188 5.3715L13.5831 3.00034ZM5.64694 22.3769C8.42649 23.9388 11.2041 25.5048 13.9764 27.0811L13.9774 27.0816C14.0667 27.1326 14.1058 27.1418 14.1145 27.1433C14.1157 27.1431 14.1177 27.1426 14.1206 27.1418C14.1319 27.1386 14.1588 27.1293 14.2048 27.1029L14.2055 27.1025C15.5757 26.3201 16.9424 25.5465 18.3078 24.7737C19.7163 23.9765 21.1234 23.18 22.5314 22.3756H22.5112C22.2517 22.3756 21.9959 22.3771 21.7431 22.3785C21.0056 22.3827 20.2935 22.3868 19.5897 22.354L19.5883 22.354C19.388 22.3442 19.2309 22.2641 19.135 22.2027C19.0327 22.1372 18.9476 22.0594 18.8811 21.9888C18.7508 21.8505 18.6356 21.6797 18.5618 21.5161L18.5611 21.5145C18.0635 20.4026 17.5786 19.2807 17.1232 18.1448L17.1226 18.1431C17.1111 18.1144 17.1014 18.0926 17.0934 18.0763C17.0815 18.0758 17.0669 18.0755 17.0494 18.0757L17.0486 18.0757C15.0876 18.0993 13.1266 18.0993 11.1657 18.0757L11.1649 18.0757C11.1476 18.0755 11.1332 18.0758 11.1214 18.0763C11.1131 18.093 11.1029 18.1155 11.0908 18.1454C11.0907 18.1456 11.0907 18.1458 11.0906 18.1459L10.4722 17.8967C10.2399 18.4745 9.99425 19.0464 9.74855 19.6182L5.64694 22.3769ZM5.64694 22.3769H5.70439C5.999 22.3769 6.27873 22.375 6.54843 22.3732C7.16914 22.3689 7.73673 22.3651 8.31025 22.3856C8.57383 22.3953 8.87525 22.3613 9.1507 22.1832C9.42668 22.0048 9.58119 21.7435 9.67987 21.498L5.64694 22.3769ZM19.1696 21.2422C18.6742 20.1353 18.1931 19.0219 17.742 17.8967C17.6025 17.546 17.4369 17.4039 17.0406 17.4091C15.085 17.4326 13.1293 17.4326 11.1737 17.4091L19.1696 21.2422ZM19.1696 21.2422C19.2531 21.4273 19.4604 21.6803 19.6207 21.6881L19.1696 21.2422ZM3.60465 12.3C3.42373 10.8324 3.2392 9.36517 3.05172 7.87464C3.00845 7.53061 2.96503 7.18533 2.92145 6.83851C3.45053 6.64779 3.97904 6.45737 4.50709 6.26712C5.33627 5.96838 6.16434 5.67004 6.99177 5.37154L3.60465 12.3ZM23.1778 22.0057V21.7089V21.7076V21.5615L23.1167 21.4288C21.6108 18.1579 20.1168 14.9134 18.6205 11.664C17.3226 8.84565 16.0231 6.02359 14.7127 3.17746L14.6277 2.99287C17.5468 4.03531 20.4612 5.09194 23.3765 6.14888C24.013 6.37961 24.6494 6.61036 25.286 6.84097C25.2118 7.45901 25.1381 8.07556 25.0645 8.69105C24.8645 10.3647 24.6655 12.0304 24.4597 13.6964L24.4596 13.6966C24.1286 16.3839 23.7954 19.0675 23.4325 21.7463C23.4318 21.7487 23.4296 21.7561 23.4243 21.7685C23.4153 21.7898 23.401 21.8165 23.3817 21.8448C23.3624 21.873 23.3421 21.897 23.3242 21.9147C23.3099 21.9288 23.3015 21.9347 23.3007 21.9353C23.2597 21.9588 23.2188 21.9822 23.1778 22.0057Z"
                              fill="#003366"
                              stroke="#003366"
                              stroke-width="1.33333"
                            />
                            <path
                              d="M16.4789 14.9251H11.7554C12.5441 13.0777 13.3042 11.3006 14.1165 9.39844C14.9209 11.2798 15.6823 13.062 16.4776 14.9251H16.4789Z"
                              fill="#003366"
                            />
                          </svg>