<svg
                            class="me-2"
                            width="32"
                            height="32"
                            viewBox="0 0 32 32"
                            fill="none"
                            xmlns="http://www.w3.org/2000/svg"
                          >
                            <circle
                              cx="16.0002"
                              cy="16.1471"
                              r="14.6667"
                              fill="#003366"
                            />
                            <path
                              d="M25.5076 13.1219C24.6728 12.6932 23.7839 12.3682 22.8866 11.9832C22.9491 11.64 23.0327 11.2305 23.096 10.8178C23.2688 9.69933 23.3177 8.58181 23.0331 7.47133C22.9176 7.02056 22.7401 6.59703 22.4434 6.23454C21.8503 5.51002 21.0657 5.37338 20.1989 5.54054C19.1636 5.7401 18.2728 6.25473 17.4427 6.87641C16.9506 7.245 16.4881 7.65304 16.0096 8.04558C15.6255 7.72676 15.241 7.3854 14.8334 7.07315C13.9671 6.40921 13.0416 5.84857 11.9635 5.59642C11.4325 5.47246 10.8939 5.44147 10.3718 5.64103C9.62893 5.9251 9.24484 6.52519 9.01899 7.245C8.6889 8.29679 8.72318 9.37159 8.86404 10.4459C8.93259 10.9699 9.04435 11.4888 9.14154 12.0372C9.05843 12.064 8.95748 12.0964 8.85653 12.1283C7.50986 12.5551 6.21626 13.0909 5.1208 14.0126C4.62449 14.4305 4.20471 14.9118 4.05117 15.5659C3.87556 16.3143 4.17138 16.9294 4.64186 17.4774C5.39737 18.3573 6.37966 18.9161 7.42347 19.372C7.9719 19.612 8.54146 19.804 9.12323 20.0261C9.05233 20.3994 8.96875 20.7858 8.90677 21.1756C8.71425 22.379 8.63678 23.5834 9.01758 24.7667C9.28522 25.5987 9.76604 26.2382 10.6751 26.4467C10.7643 26.4674 10.853 26.4899 10.9418 26.5115H11.5043C11.7677 26.4505 12.0354 26.4026 12.2941 26.3265C13.3985 26.0025 14.3408 25.3865 15.2222 24.6681C15.4997 24.4422 15.7636 24.1994 16.0448 23.9548C16.3345 24.2074 16.6205 24.4704 16.921 24.7155C17.7709 25.4095 18.6767 26.0105 19.7397 26.3335C19.9745 26.4049 20.2168 26.4523 20.4553 26.511H21.1113C21.2958 26.4561 21.4864 26.4167 21.663 26.3429C22.3743 26.0443 22.749 25.4541 22.9824 24.7587C23.3388 23.698 23.3214 22.6077 23.1914 21.516C23.1298 20.999 23.0228 20.4877 22.9331 19.9524C23.2341 19.8463 23.5407 19.7401 23.8454 19.6298C24.67 19.3316 25.4602 18.9621 26.1904 18.4733C27.0074 17.9268 27.7155 17.2858 28 16.2951V15.6391C27.599 14.3746 26.5998 13.6811 25.5067 13.12L25.5076 13.1219ZM20.2205 6.58106C20.2431 6.57496 20.2656 6.56838 20.2886 6.56322C21.2014 6.36319 21.701 6.64868 21.9879 7.53706C22.2476 8.3414 22.2415 9.16874 22.1621 9.99421C22.1109 10.5286 21.9978 11.0563 21.91 11.5869C21.9001 11.647 21.8776 11.7052 21.8564 11.7818C21.4437 11.7052 21.0418 11.6203 20.6366 11.5573C20.0895 11.4723 19.5411 11.3967 18.9913 11.3338C18.7978 11.3118 18.672 11.239 18.5518 11.0812C17.9705 10.3187 17.3732 9.56833 16.7581 8.78371C17.7742 7.85307 18.8382 6.96985 20.221 6.58106H20.2205ZM12.5481 19.6246C11.8105 19.5054 11.1254 19.3946 10.3966 19.2772C10.6521 18.5771 10.8906 17.9225 11.1503 17.2107C11.6255 18.031 12.0692 18.7973 12.5481 19.6246ZM10.4126 12.7617C11.1338 12.6378 11.8034 12.5223 12.5251 12.3978C12.0546 13.2144 11.6208 13.9671 11.1517 14.7803C10.9005 14.0943 10.6657 13.4529 10.4126 12.7617ZM11.7987 16.1519C11.7565 16.0636 11.7536 15.9143 11.8001 15.8316C12.4458 14.693 13.1003 13.559 13.7638 12.4302C13.8112 12.3499 13.9441 12.2743 14.038 12.2734C15.3476 12.2635 16.6576 12.2635 17.9672 12.2734C18.0611 12.2743 18.194 12.3495 18.2414 12.4298C18.9086 13.5562 19.5665 14.6883 20.2168 15.8251C20.2604 15.9016 20.2628 16.0457 20.2201 16.1218C19.5735 17.2689 18.9189 18.4123 18.2541 19.549C18.2038 19.6345 18.0639 19.7092 17.9615 19.7153C17.3154 19.7542 16.6679 19.7725 16.0209 19.7974V19.7303C15.3729 19.7303 14.7259 19.7279 14.0784 19.7322C13.9319 19.7331 13.8398 19.6824 13.7553 19.5561C13.0252 18.4653 12.3673 17.3337 11.7982 16.1514L11.7987 16.1519ZM20.8732 17.1708C21.1376 17.8662 21.3878 18.525 21.6564 19.2307C20.9164 19.3575 20.2158 19.4777 19.4735 19.6049C19.9501 18.7762 20.3985 17.9962 20.8732 17.1708ZM20.8643 14.7888C20.3952 13.9797 19.9552 13.2205 19.4768 12.3959C20.2125 12.5246 20.8906 12.6434 21.6071 12.7692C21.3554 13.4538 21.1197 14.0938 20.8638 14.7888H20.8643ZM16.0134 9.52184C16.4782 10.0839 16.9154 10.6126 17.3924 11.1892H14.6226C15.0996 10.6168 15.5434 10.0853 16.0134 9.52184ZM9.9055 7.86105C10.1788 6.61769 10.816 6.26975 12.0326 6.67732C12.9726 6.99192 13.7788 7.53424 14.5399 8.15123C14.794 8.35689 15.0353 8.57852 15.2654 8.77761C14.6259 9.5918 14.0065 10.3839 13.382 11.1718C13.3337 11.2329 13.2524 11.2934 13.1792 11.3042C12.1781 11.4531 11.1756 11.593 10.1337 11.7409C10.0539 11.3193 9.95057 10.8727 9.88765 10.4206C9.76933 9.56786 9.71862 8.71046 9.9055 7.86058V7.86105ZM9.37115 19.0105C8.90019 18.8438 8.3912 18.6808 7.89536 18.4841C7.14596 18.1874 6.44117 17.8047 5.80822 17.2985C5.48282 17.0384 5.25603 16.7139 5.10859 16.3242C4.97055 15.9589 5.01187 15.6114 5.26965 15.3405C5.59974 14.9935 5.95096 14.6521 6.34304 14.3812C7.27556 13.7374 8.33251 13.3552 9.38806 13.0378C9.7806 14.0149 10.1614 14.9606 10.538 15.9086C10.5582 15.9598 10.5591 16.0331 10.5389 16.0838C10.1576 17.0463 9.77214 18.007 9.37115 19.01V19.0105ZM12.0757 25.3358C11.6325 25.5053 11.1737 25.5118 10.7192 25.3686C10.383 25.2625 10.2163 24.9855 10.0872 24.6878C9.77684 23.9736 9.73693 23.2143 9.80314 22.4574C9.86183 21.7836 9.99753 21.1164 10.0924 20.4454C10.114 20.2933 10.1755 20.2576 10.3257 20.2801C11.2817 20.4243 12.2392 20.5572 13.1951 20.6999C13.2632 20.7102 13.3412 20.7558 13.3848 20.8093C14.0216 21.5888 14.6531 22.3724 15.2851 23.1552C15.2945 23.1664 15.2968 23.1833 15.3081 23.211C14.3775 24.1591 13.3036 24.8662 12.0757 25.3353V25.3358ZM16.0416 22.4945C15.5626 21.9198 15.117 21.3854 14.6334 20.8051H17.4112C16.9492 21.3746 16.5134 21.9127 16.0416 22.4945ZM22.1325 24.0778C22.0569 24.561 21.824 24.978 21.4432 25.294C21.2056 25.4912 20.9112 25.5029 20.6196 25.4757C19.9923 25.417 19.4331 25.1601 18.8955 24.8531C18.1395 24.4211 17.4671 23.8778 16.8374 23.2801C16.8158 23.2594 16.8003 23.2326 16.7872 23.2157C17.2459 22.6434 17.7019 22.0804 18.1498 21.5113C18.3236 21.2911 18.4743 21.053 18.6461 20.8314C18.6931 20.7708 18.7739 20.7126 18.8471 20.7008C19.8388 20.5407 20.8324 20.3891 21.8254 20.2365C21.8475 20.2332 21.8705 20.2388 21.933 20.2426C22.0147 20.6853 22.1152 21.1319 22.1771 21.5836C22.2917 22.4156 22.2617 23.2505 22.1325 24.0783V24.0778ZM26.7571 16.5937C26.4129 17.0947 25.9312 17.4403 25.4241 17.7511C24.5883 18.2629 23.6849 18.6254 22.7528 18.9198C22.7162 18.9311 22.6772 18.9339 22.6711 18.9349C22.2631 17.9554 21.8672 17.0074 21.4761 16.057C21.4559 16.0072 21.4592 15.9349 21.4789 15.8837C21.8405 14.9465 22.2067 14.0107 22.572 13.0749C22.5744 13.0688 22.5838 13.0651 22.6195 13.0359C23.0031 13.1688 23.4106 13.2965 23.8079 13.451C24.6977 13.7975 25.5532 14.2112 26.2819 14.8437C26.4514 14.9907 26.6059 15.1606 26.7407 15.34C27.0571 15.7603 27.0557 16.1584 26.7571 16.5932V16.5937Z"
                              fill="white"
                            />
                            <path
                              d="M16.0129 18.1525C17.2018 18.145 18.1625 17.1702 18.1559 15.978C18.1494 14.799 17.1826 13.8369 16.004 13.8359C14.8057 13.835 13.8403 14.8149 13.8502 16.0217C13.8596 17.1974 14.8362 18.1595 16.0129 18.1525Z"
                              fill="white"
                            />
                          </svg>