<svg width="33" height="32" viewBox="0 0 33 32" fill="none" xmlns="http://www.w3.org/2000/svg">
<g clip-path="url(#clip0_1107_29615)">
<path d="M11.451 0.986397C11.7973 0.900244 12.1354 0.78986 12.4602 0.644476C12.5944 0.547553 12.7474 0.5314 12.9057 0.5314C13.056 0.561015 13.1714 0.453323 13.3083 0.429093C13.3888 0.386016 13.4854 0.450631 13.5606 0.386016H13.5552C13.6304 0.329478 13.7377 0.404862 13.8102 0.334863H13.8048C13.8826 0.278324 13.9873 0.353709 14.0598 0.283709H14.0544C14.1296 0.227171 14.2369 0.302555 14.3094 0.232555H14.304C14.398 0.173325 14.5187 0.254094 14.61 0.181402H14.6046C14.7334 0.116787 14.8837 0.208325 15.0126 0.130248H15.0072C15.1521 0.062941 15.3185 0.157171 15.4635 0.0790948H15.4581C15.6728 0.0117875 15.9009 0.10871 16.1156 0.0279412H16.1103C16.698 -0.00975085 17.2858 -0.00975085 17.8736 0.0306335H17.8682C18.0829 0.106018 18.3111 0.00909519 18.5258 0.0817871H18.5204C18.6653 0.157171 18.8317 0.062941 18.9767 0.132941H18.9713C19.1001 0.205632 19.2504 0.114095 19.3793 0.184094H19.3739C19.4678 0.251401 19.5859 0.170633 19.6799 0.232555H19.6745C19.7496 0.29717 19.8543 0.221786 19.9295 0.283709H19.9241C19.9992 0.348324 20.1039 0.27294 20.1791 0.334863H20.1737C20.2488 0.399478 20.3535 0.324093 20.4287 0.386016H20.4233C20.4931 0.450631 20.5951 0.372555 20.6675 0.43717C20.7937 0.512554 20.9332 0.526015 21.0755 0.542169C21.2016 0.526015 21.3197 0.571784 21.4405 0.596015C21.7733 0.714476 22.1195 0.784475 22.4443 0.929859C22.7824 1.0564 23.1179 1.1964 23.4561 1.33101C23.5903 1.41716 23.7594 1.42524 23.8936 1.51139C24.0707 1.6487 24.2935 1.70524 24.4733 1.83985C24.8088 2.00947 25.1335 2.20062 25.4529 2.39985C25.5093 2.44023 25.5683 2.47793 25.6247 2.51562C25.9253 2.68523 26.1963 2.90062 26.4781 3.10254C26.658 3.24254 26.8458 3.37446 27.023 3.51984C27.176 3.63292 27.3101 3.77292 27.4685 3.88061C27.6966 4.10676 27.9382 4.31407 28.177 4.52676C28.279 4.63445 28.3837 4.73676 28.4884 4.83907C28.7004 5.07868 28.9097 5.32099 29.1325 5.54983C29.2399 5.70868 29.3794 5.8406 29.4921 5.99675C29.629 6.16637 29.7525 6.34406 29.8894 6.51367C30.088 6.80982 30.3188 7.08444 30.4932 7.39944C30.5308 7.45867 30.5684 7.5179 30.6086 7.57444C30.8046 7.89213 30.9951 8.2152 31.1669 8.54904C31.2581 8.69174 31.3413 8.83981 31.3306 9.0202C31.3413 9.23827 31.2206 9.31904 31.022 9.32173C30.9307 9.32173 30.8395 9.32173 30.7455 9.32173C29.2345 9.32173 27.7208 9.2975 26.2098 9.32712C24.331 9.36481 22.4523 9.37289 20.5736 9.37019C20.0046 9.37019 19.4383 9.37827 18.8693 9.35942C18.7781 9.35942 18.6868 9.35942 18.5982 9.35942C18.5419 9.36212 18.4855 9.35942 18.4292 9.35942C18.3352 9.35942 18.244 9.35673 18.1581 9.30827C18.0749 9.24366 17.9702 9.25443 17.8736 9.23558C17.8468 9.23289 17.8226 9.22481 17.7984 9.21673C17.4469 9.20327 17.0979 9.18981 16.7464 9.22481C16.6229 9.25712 16.4968 9.24366 16.3733 9.2625C16.3518 9.27058 16.3277 9.27596 16.3062 9.27866C16.2176 9.29481 16.1264 9.28673 16.0378 9.31635C16.0163 9.32442 15.9949 9.32981 15.9707 9.33519C15.8929 9.34866 15.8124 9.35673 15.7372 9.38904C15.3132 9.57212 14.8515 9.65288 14.4463 9.88711C14.0491 10.0783 13.6679 10.2963 13.3244 10.5736C12.997 10.8052 12.7125 11.0852 12.4333 11.3733C12.3663 11.4325 12.3126 11.5025 12.2643 11.5806C12.0066 11.9036 11.7329 12.2133 11.545 12.5875C11.502 12.6709 11.4645 12.7571 11.4162 12.8406C11.2471 13.0694 11.2149 13.3548 11.0941 13.6025C10.9787 13.8367 10.976 14.1086 10.8445 14.3375C10.7989 14.4129 10.8015 14.5017 10.7801 14.5852C10.7479 14.6848 10.7586 14.7898 10.7318 14.8894C10.6915 15.0213 10.721 15.1613 10.6835 15.2959C10.6378 15.6621 10.6512 16.0282 10.6754 16.3917C10.7076 16.5155 10.6942 16.6448 10.713 16.7713C10.721 16.7928 10.7264 16.8171 10.7291 16.8386C10.7452 16.9275 10.7371 17.0163 10.764 17.1051C10.772 17.1267 10.7774 17.1482 10.7801 17.1671C10.7935 17.2398 10.7935 17.3178 10.8364 17.3825C10.8794 17.4525 10.9196 17.5225 10.9384 17.6005C10.9492 17.684 10.9814 17.7675 10.9438 17.8509C10.6727 17.9371 10.5734 17.9128 10.4339 17.6921C9.35224 15.9878 8.25722 14.2944 7.17024 12.5929C6.35971 11.3221 5.54381 10.054 4.73059 8.78597C4.44073 8.33635 4.15087 7.88405 3.86369 7.43174C3.78317 7.3079 3.75097 7.17328 3.73755 7.0279C3.78317 6.80982 3.94689 6.66444 4.0623 6.48675C4.15355 6.37098 4.23944 6.24983 4.33069 6.13137C4.49172 5.9106 4.67691 5.71137 4.84063 5.49329C5.00166 5.29945 5.20295 5.14599 5.33983 4.9333C5.49013 4.77714 5.64579 4.62638 5.79609 4.47022C5.98128 4.3033 6.18526 4.15522 6.34897 3.96676C6.55295 3.80523 6.74887 3.63292 6.95285 3.466C7.08973 3.36638 7.22392 3.26408 7.35812 3.15908C7.68287 2.92754 7.99688 2.68254 8.34042 2.47523C8.35921 2.46177 8.37799 2.44831 8.39678 2.43485C8.73763 2.23024 9.07312 2.01754 9.43008 1.83985C9.68236 1.67562 9.95344 1.55447 10.2433 1.48178C10.3238 1.47101 10.3936 1.44409 10.4473 1.38216C10.7908 1.26909 11.1182 1.12101 11.443 0.967551L11.451 0.986397Z" fill="#E5231F"/>
<path d="M17.8763 31.9955C17.2912 31.9955 16.7034 31.9928 16.1183 31.9901L16.121 31.9955C15.9063 31.9201 15.6808 32.0036 15.4661 31.9497L15.442 31.9443L15.4178 31.9497C15.4017 31.9443 15.3856 31.939 15.3695 31.9336C15.3507 31.9147 15.3373 31.8959 15.3266 31.8743C15.2836 31.7155 15.3507 31.5809 15.4259 31.449C16.0915 30.302 16.7598 29.1551 17.4254 28.0082C17.4871 27.9194 17.5327 27.8225 17.5918 27.7309C18.6948 25.8328 19.7979 23.9375 20.9037 22.0394C21.0755 21.7433 21.2741 21.4606 21.3975 21.1375C21.4136 21.1052 21.4324 21.0756 21.4566 21.0486C21.5747 20.8413 21.8216 20.7767 21.9611 20.5936C22.1436 20.424 22.3154 20.241 22.463 20.039C22.5865 19.891 22.6992 19.7321 22.8119 19.576C23.0132 19.2583 23.185 18.9271 23.3514 18.5906C23.397 18.5071 23.4212 18.4156 23.4534 18.3267C23.5661 18.0979 23.6439 17.8583 23.6949 17.6106C23.7137 17.5433 23.7352 17.4787 23.7567 17.4114C23.7862 17.3387 23.7915 17.2633 23.805 17.1852C23.8077 17.1637 23.8157 17.1421 23.8211 17.1206C23.8506 17.0344 23.8399 16.9429 23.8586 16.8541C23.8613 16.8298 23.8694 16.8056 23.8748 16.7841C23.8962 16.6575 23.8801 16.5283 23.9123 16.4017C23.9418 16.0356 23.9472 15.6694 23.907 15.3033C23.8721 15.1687 23.8989 15.0287 23.8586 14.8968C23.8318 14.7944 23.8425 14.6894 23.8103 14.5871C23.7889 14.501 23.7889 14.4121 23.7567 14.3287C23.6708 14.0837 23.6251 13.8252 23.5151 13.5883C23.389 13.2222 23.2226 12.8722 23.0186 12.5437C22.8576 12.2368 22.6455 11.9622 22.4254 11.6956C22.3798 11.6445 22.3476 11.5825 22.302 11.5314C22.0229 11.2379 21.7437 10.9472 21.4217 10.6995C21.368 10.6564 21.309 10.6214 21.2553 10.5783C20.9949 10.3656 20.7024 10.2014 20.4125 10.0345C20.0985 9.85679 19.763 9.73563 19.4275 9.60371C19.3712 9.58486 19.3121 9.56602 19.2531 9.55525C19.1055 9.49333 18.931 9.50679 18.8129 9.37487C18.8049 9.34794 18.8129 9.3264 18.829 9.30487C20.4904 9.30487 22.1517 9.3291 23.813 9.28871C26.1963 9.23217 28.5823 9.25102 30.9656 9.25102C31.2152 9.25102 31.3172 9.1891 31.2796 8.94141C31.4567 8.95756 31.4299 9.13525 31.5077 9.23217C31.5587 9.33987 31.6124 9.44756 31.6688 9.55256C31.8056 9.8864 31.9398 10.2202 32.0687 10.5541C32.2109 10.8933 32.2968 11.2514 32.4149 11.6014C32.4417 11.7225 32.4739 11.8437 32.5169 11.9595C32.541 12.0672 32.5732 12.1722 32.584 12.2825C32.5893 12.3633 32.5813 12.4468 32.6054 12.5248C32.6135 12.5464 32.6189 12.5706 32.6215 12.5922C32.635 12.6729 32.6403 12.7537 32.6672 12.8318C32.686 12.9125 32.6913 12.996 32.7182 13.0768C32.7396 13.1602 32.7423 13.2491 32.7718 13.3325C32.796 13.4321 32.7906 13.5398 32.8255 13.6368C32.855 13.7687 32.8309 13.906 32.8765 14.0352C32.9087 14.186 32.8765 14.3448 32.9302 14.4956C32.9705 14.7137 32.9141 14.9425 32.9839 15.1579C33.0053 15.7233 33.0053 16.2914 32.9839 16.8567C32.9114 17.0721 32.9678 17.301 32.9302 17.519C32.8738 17.6671 32.9114 17.8287 32.8765 17.9794C32.8282 18.1087 32.855 18.2487 32.8255 18.3779C32.7906 18.4775 32.796 18.5825 32.7718 18.6848C32.745 18.7683 32.7396 18.8571 32.7182 18.9433C32.6913 19.0267 32.686 19.1156 32.6672 19.199C32.6403 19.2825 32.6377 19.3713 32.6162 19.4548C32.5867 19.541 32.592 19.6271 32.5867 19.716C32.5732 19.8452 32.5437 19.969 32.5169 20.0956C32.4337 20.2679 32.4256 20.4644 32.3451 20.6394C32.2807 20.9786 32.1438 21.2936 32.0284 21.614C31.8701 21.9506 31.7708 22.3113 31.5856 22.6371C31.5534 22.7017 31.5319 22.7717 31.5024 22.8363C31.3762 23.119 31.2393 23.3963 31.0783 23.6602C30.8985 23.994 30.7294 24.3359 30.5093 24.6482C30.3027 25.0063 30.0477 25.3294 29.8088 25.6659C29.6907 25.7898 29.6156 25.9486 29.5002 26.0752C29.3418 26.2852 29.154 26.4682 28.9983 26.6782C28.8077 26.8425 28.6628 27.0471 28.4964 27.2328C28.3407 27.3809 28.1931 27.5398 28.0348 27.6905C27.812 27.8305 27.659 28.0567 27.439 28.2021C27.2457 28.3771 27.0391 28.5359 26.8324 28.6974C26.7089 28.7809 26.5935 28.8751 26.4754 28.964C26.1131 29.2251 25.7642 29.5078 25.3643 29.7124C25.0664 29.8847 24.7846 30.0813 24.4733 30.224C24.1512 30.4205 23.8077 30.574 23.4453 30.6763C23.1125 30.8136 22.7797 30.9536 22.4469 31.0909C22.1061 31.1851 21.7625 31.282 21.4405 31.4301C21.1909 31.484 20.9413 31.5378 20.689 31.5917C20.6111 31.6401 20.5118 31.5728 20.4367 31.6401L20.4394 31.6347C20.3589 31.6617 20.2542 31.5863 20.1898 31.6913C20.1066 31.7101 20.0046 31.6374 19.9402 31.7424C19.857 31.7613 19.755 31.6886 19.6906 31.7936C19.5913 31.8178 19.4732 31.729 19.39 31.8447C19.2585 31.8717 19.1108 31.7774 18.9874 31.8959C18.8371 31.9201 18.6761 31.8367 18.5365 31.947C18.3191 31.9713 18.0937 31.8851 17.8843 31.9982L17.8763 31.9955Z" fill="#FFEC3F"/>
<path d="M14.6154 31.8476C14.5268 31.7507 14.4114 31.8207 14.3094 31.7991L14.3148 31.8018C14.2396 31.7345 14.135 31.8072 14.0598 31.748H14.0652C13.99 31.6834 13.8854 31.756 13.8102 31.6968H13.8156C13.7404 31.6322 13.6358 31.7049 13.5606 31.6457H13.566C13.4908 31.581 13.3915 31.6484 13.311 31.5999C12.9997 31.5784 12.7205 31.4222 12.4119 31.3872C12.0469 31.3872 11.7356 31.196 11.3974 31.0964C10.7318 30.8245 10.0581 30.5634 9.43278 30.1972C9.1456 30.0545 8.87721 29.8795 8.59541 29.7207C8.52026 29.6668 8.44511 29.613 8.36459 29.5645C8.01569 29.3599 7.69362 29.1149 7.37424 28.8699C7.30177 28.8134 7.22662 28.7622 7.15684 28.7057C6.88577 28.4957 6.62275 28.2776 6.36241 28.0515C6.23895 27.9195 6.11013 27.793 5.95983 27.6934C5.75585 27.4941 5.55456 27.2922 5.35595 27.0876C5.25665 26.9368 5.13051 26.8076 4.99899 26.6838C4.79502 26.4522 4.60446 26.2099 4.40586 25.973C4.33876 25.868 4.25824 25.7711 4.18578 25.6715C3.94423 25.3457 3.69731 25.028 3.49333 24.6753C3.44502 24.5972 3.39135 24.5192 3.34035 24.4438C3.19274 24.1719 3.01828 23.9161 2.88141 23.6388C2.51371 22.998 2.23996 22.3169 1.9662 21.633C1.83737 21.2992 1.72733 20.96 1.62535 20.618C1.55288 20.3327 1.44016 20.0553 1.41064 19.7592C1.41064 19.6784 1.41869 19.5977 1.3999 19.5169C1.39453 19.4953 1.38916 19.4738 1.3838 19.455C1.37038 19.3823 1.37306 19.3096 1.34891 19.2396C1.34085 19.2207 1.33549 19.1992 1.3328 19.1803C1.32207 19.1184 1.31938 19.0565 1.3006 18.9973C1.29254 18.9784 1.28718 18.9569 1.28449 18.9354C1.27107 18.8627 1.27107 18.7873 1.24155 18.7173C1.2335 18.6957 1.22813 18.6742 1.22276 18.6527C1.21203 18.5584 1.20398 18.4642 1.17445 18.3727C1.14761 18.2461 1.16909 18.1115 1.12346 17.9877C1.09125 17.8369 1.12346 17.6807 1.06978 17.5327C1.02952 17.3146 1.08588 17.0857 1.0161 16.8704C0.994632 16.305 0.994632 15.7369 1.0161 15.1715C1.08857 14.9561 1.03221 14.7273 1.06978 14.5092C1.12346 14.3611 1.09125 14.2023 1.12346 14.0488C1.17177 13.9196 1.14493 13.7796 1.17445 13.6504C1.20934 13.5508 1.20398 13.4458 1.22813 13.3462C1.25497 13.2627 1.26034 13.1765 1.28181 13.0904C1.30865 13.0096 1.31402 12.9262 1.3328 12.8454C1.35964 12.7673 1.36769 12.6865 1.37843 12.6058C1.38111 12.5815 1.38916 12.56 1.39453 12.5358C1.41869 12.455 1.41064 12.3715 1.41332 12.2881C1.42942 12.0404 1.52604 11.8115 1.57972 11.5746C1.70318 11.2381 1.77028 10.8827 1.91789 10.5542C2.04403 10.2177 2.18091 9.88387 2.31242 9.55002C2.32047 9.52579 2.33121 9.50425 2.34463 9.48271C2.5325 9.17041 2.62107 8.81233 2.82773 8.5108C3.05049 8.0558 3.32693 7.63042 3.59532 7.19965C3.64095 7.12696 3.67315 7.02734 3.78856 7.02734C4.03548 7.71926 4.50784 8.27926 4.89164 8.88772C6.02424 10.6754 7.16489 12.4577 8.30286 14.2427C9.02751 15.3788 9.76021 16.5096 10.4768 17.6538C10.603 17.8557 10.7586 17.8746 10.9545 17.8557C11.1075 18.098 11.188 18.37 11.2981 18.6311C11.3276 18.7092 11.3625 18.7846 11.4028 18.8573C11.5289 19.1319 11.7007 19.3769 11.8536 19.638C12.0388 19.8965 12.2348 20.1496 12.4414 20.3892C12.5273 20.4807 12.6159 20.5669 12.7044 20.653C12.9299 20.8953 13.1983 21.0865 13.4586 21.2857C13.6384 21.4284 13.837 21.5442 14.0383 21.6546C14.1725 21.7515 14.3201 21.8215 14.4678 21.8888C14.7791 22.018 15.0851 22.1661 15.4179 22.2442C15.5279 22.2819 15.6406 22.3169 15.756 22.3438C15.8312 22.3707 15.909 22.3815 15.9868 22.3923C16.0083 22.3949 16.0298 22.403 16.0513 22.4084C16.1371 22.438 16.2311 22.4299 16.3196 22.4461C16.3438 22.4488 16.368 22.4569 16.3894 22.4623C16.5156 22.4838 16.6444 22.4676 16.7705 22.4999C17.1355 22.5323 17.4979 22.5349 17.8602 22.4973C17.989 22.4623 18.1259 22.4865 18.2547 22.4542C18.3487 22.4299 18.4506 22.4353 18.5446 22.4111C18.5661 22.403 18.5902 22.3976 18.6144 22.3949C18.6949 22.3815 18.7754 22.3788 18.8505 22.3384C19.0411 22.2576 19.237 22.2011 19.4356 22.1473C19.9858 21.9803 20.4797 21.7057 20.9601 21.3961C21.1292 21.3234 21.2204 21.0973 21.4486 21.143C21.3895 21.5065 21.1372 21.773 20.9681 22.0773C20.485 22.9469 19.9697 23.7976 19.4678 24.6538C18.8586 25.6957 18.2494 26.7376 17.6401 27.7795C17.514 27.8145 17.4979 27.9195 17.4925 28.0272C16.8242 29.1768 16.1559 30.3291 15.4876 31.4787C15.4125 31.608 15.3615 31.748 15.3722 31.9014C15.2568 31.9014 15.1441 31.8987 15.0287 31.896C14.9052 31.7937 14.7603 31.8745 14.6261 31.8449L14.6154 31.8476Z" fill="#278839"/>
<path d="M17.2456 21.4386C20.3213 21.4386 22.8147 18.9375 22.8147 15.8521C22.8147 12.7668 20.3213 10.2656 17.2456 10.2656C14.1699 10.2656 11.6765 12.7668 11.6765 15.8521C11.6765 18.9375 14.1699 21.4386 17.2456 21.4386Z" fill="#39A3DC"/>
</g>
<defs>
<clipPath id="clip0_1107_29615">
<rect width="32" height="32" fill="white" transform="translate(0.666626)"/>
</clipPath>
</defs>
</svg>
