<svg width="33" height="32" viewBox="0 0 33 32" fill="none" xmlns="http://www.w3.org/2000/svg">
<path d="M21.8333 2.66797H11.1667C6.5 2.66797 4.5 5.33464 4.5 9.33464V22.668C4.5 26.668 6.5 29.3346 11.1667 29.3346H21.8333C26.5 29.3346 28.5 26.668 28.5 22.668V9.33464C28.5 5.33464 26.5 2.66797 21.8333 2.66797ZM11.1667 16.3346H16.5C17.0467 16.3346 17.5 16.788 17.5 17.3346C17.5 17.8813 17.0467 18.3346 16.5 18.3346H11.1667C10.62 18.3346 10.1667 17.8813 10.1667 17.3346C10.1667 16.788 10.62 16.3346 11.1667 16.3346ZM21.8333 23.668H11.1667C10.62 23.668 10.1667 23.2146 10.1667 22.668C10.1667 22.1213 10.62 21.668 11.1667 21.668H21.8333C22.38 21.668 22.8333 22.1213 22.8333 22.668C22.8333 23.2146 22.38 23.668 21.8333 23.668ZM25.1667 12.3346H22.5C20.4733 12.3346 18.8333 10.6946 18.8333 8.66797V6.0013C18.8333 5.45464 19.2867 5.0013 19.8333 5.0013C20.38 5.0013 20.8333 5.45464 20.8333 6.0013V8.66797C20.8333 9.58797 21.58 10.3346 22.5 10.3346H25.1667C25.7133 10.3346 26.1667 10.788 26.1667 11.3346C26.1667 11.8813 25.7133 12.3346 25.1667 12.3346Z" fill="#003366"/>
</svg>
