<svg width="32" height="32" viewBox="0 0 32 32" fill="none" xmlns="http://www.w3.org/2000/svg">
<path d="M28.3333 12.2009C25.2533 7.36088 20.7467 4.57422 16 4.57422C13.6267 4.57422 11.32 5.26755 9.21332 6.56089C7.10666 7.86755 5.21332 9.77422 3.66666 12.2009C2.33332 14.2942 2.33332 17.6942 3.66666 19.7876C6.74666 24.6409 11.2533 27.4142 16 27.4142C18.3733 27.4142 20.68 26.7209 22.7867 25.4276C24.8933 24.1209 26.7867 22.2142 28.3333 19.7876C29.6667 17.7076 29.6667 14.2942 28.3333 12.2009ZM16 21.3876C13.0133 21.3876 10.6133 18.9742 10.6133 16.0009C10.6133 13.0276 13.0133 10.6142 16 10.6142C18.9867 10.6142 21.3867 13.0276 21.3867 16.0009C21.3867 18.9742 18.9867 21.3876 16 21.3876Z" fill="#003366"/>
<path d="M16 12.1875C13.9067 12.1875 12.2 13.8942 12.2 16.0008C12.2 18.0942 13.9067 19.8008 16 19.8008C18.0933 19.8008 19.8133 18.0942 19.8133 16.0008C19.8133 13.9075 18.0933 12.1875 16 12.1875Z" fill="#003366"/>
</svg>
