<svg width="33" height="32" viewBox="0 0 33 32" fill="none" xmlns="http://www.w3.org/2000/svg">
<path fill-rule="evenodd" clip-rule="evenodd" d="M23.3403 2.21275C21.9159 1.92884 20.4416 2.02866 19.0684 2.50198C17.6952 2.97529 16.4725 3.8051 15.5256 4.90641C14.5786 6.00771 13.9414 7.34094 13.6792 8.76953C13.417 10.1981 13.5392 11.6707 14.0334 13.0365L4.25383 22.8161C3.98488 23.085 3.77229 23.4049 3.62854 23.757C3.48479 24.1091 3.41275 24.4864 3.41665 24.8667C3.42056 25.247 3.50032 25.6228 3.65128 25.9719C3.80223 26.321 4.02134 26.6364 4.29576 26.8998L5.36289 27.925C5.90065 28.4412 6.61882 28.727 7.36425 28.7213C8.10968 28.7156 8.8234 28.4189 9.35321 27.8945L19.268 18.0883C20.6258 18.5278 22.0747 18.6059 23.4719 18.3149C24.869 18.0239 26.1662 17.3739 27.2357 16.4289C28.3051 15.4839 29.1099 14.2766 29.5706 12.9258C30.0314 11.5751 30.1322 10.1276 29.8632 8.72608C29.8022 8.39565 29.6725 8.08171 29.4824 7.80464C29.2924 7.52757 29.0462 7.29355 28.7598 7.11776C28.5773 7.0059 28.3623 6.95879 28.1497 6.98402C27.9371 7.00926 27.7392 7.10538 27.5879 7.25687L23.7767 11.0681L23.7652 11.0795C23.6764 11.1717 23.5698 11.2451 23.4519 11.2952C23.3341 11.3453 23.2073 11.3711 23.0792 11.3711C22.9512 11.3711 22.8244 11.3453 22.7065 11.2952C22.5887 11.2451 22.4821 11.1717 22.3932 11.0795C22.3767 11.063 22.3595 11.0471 22.3418 11.0319L20.9202 9.75892C20.7544 9.57997 20.6636 9.34426 20.6664 9.10035C20.6693 8.85644 20.7656 8.62291 20.9354 8.44787L24.7428 4.64048C24.8776 4.50612 24.969 4.33449 25.0054 4.14769C25.0417 3.96089 25.0213 3.76749 24.9467 3.5924C24.8022 3.25494 24.5823 2.95509 24.3038 2.71592C24.0253 2.47675 23.6957 2.30461 23.3403 2.21275Z" fill="#003366"/>
</svg>
