<svg width="33" height="32" viewBox="0 0 33 32" fill="none" xmlns="http://www.w3.org/2000/svg">
<path d="M27.5833 13.588H23.73C20.57 13.588 17.9966 11.0146 17.9966 7.85464V4.0013C17.9966 3.26797 17.3966 2.66797 16.6633 2.66797H11.01C6.90331 2.66797 3.58331 5.33464 3.58331 10.0946V21.908C3.58331 26.668 6.90331 29.3346 11.01 29.3346H21.49C25.5966 29.3346 28.9166 26.668 28.9166 21.908V14.9213C28.9166 14.188 28.3166 13.588 27.5833 13.588Z" fill="#003366"/>
<path d="M21.3167 2.94731C20.77 2.40064 19.8234 2.77398 19.8234 3.53398V8.18731C19.8234 10.134 21.4767 11.7473 23.49 11.7473C24.7567 11.7606 26.5167 11.7606 28.0234 11.7606C28.7834 11.7606 29.1834 10.8673 28.65 10.334C26.73 8.40064 23.29 4.92064 21.3167 2.94731Z" fill="#003366"/>
</svg>
