<svg width="32" height="32" viewBox="0 0 32 32" fill="none" xmlns="http://www.w3.org/2000/svg">
<g clip-path="url(#clip0_1107_34447)">
<path d="M0 7.0569C0.195956 7.0569 0.361294 7.0569 0.528673 7.0569C0.992027 7.0569 1.45538 7.06303 1.91669 7.05282C2.07591 7.04874 2.14327 7.10589 2.18613 7.2549C2.44333 8.14895 2.70868 9.04096 2.972 9.93501C3.50067 11.7333 4.02934 13.5316 4.55802 15.3299C4.73968 15.9464 4.91931 16.5608 5.10302 17.1772C5.12139 17.2405 5.14997 17.3038 5.17446 17.365C5.19283 17.365 5.2112 17.365 5.22753 17.365C5.30102 17.1303 5.37858 16.8976 5.44798 16.6628C5.75212 15.6279 6.05422 14.593 6.3604 13.5602C6.65638 12.5559 6.95643 11.5537 7.24833 10.5494C7.27486 10.4576 7.27078 10.3432 7.24425 10.2514C6.95031 9.24712 6.64821 8.24489 6.3502 7.24265C6.33387 7.18958 6.32366 7.13447 6.30529 7.0569C6.41756 7.0569 6.50737 7.0569 6.59514 7.0569C7.13606 7.0569 7.67494 7.06303 8.21586 7.05282C8.3812 7.04874 8.4506 7.10794 8.4955 7.26511C8.86292 8.53474 9.24055 9.80233 9.61409 11.0699C10.1162 12.7764 10.6143 14.4828 11.1144 16.1872C11.2083 16.5077 11.3022 16.8282 11.3961 17.1486C11.4185 17.2201 11.4471 17.2895 11.4879 17.3956C11.5267 17.3303 11.5553 17.2997 11.5655 17.2629C12.0084 15.7606 12.4493 14.2583 12.8923 12.756C13.2107 11.6782 13.5332 10.6025 13.8496 9.52472C14.07 8.77356 14.2905 8.0224 14.5028 7.26919C14.5497 7.10589 14.6273 7.05078 14.8008 7.05078C17.3788 7.0569 19.9569 7.0569 22.5349 7.05078C22.7207 7.05078 22.7554 7.10998 22.7799 7.2896C22.8574 7.87951 22.6145 8.35307 22.3267 8.83684C21.4674 10.2841 20.6305 11.7435 19.7854 13.2009C19.7507 13.2622 19.7221 13.3255 19.6834 13.401C19.7242 13.4275 19.7568 13.4581 19.7956 13.4724C21.4551 14.0562 22.4186 15.2687 22.7921 16.9384C23.1738 18.6428 23.0595 20.3166 22.1634 21.8638C21.5531 22.9171 20.6999 23.6927 19.465 23.9275C17.8606 24.2337 16.5277 23.7499 15.4805 22.4864C15.0539 21.97 14.7518 21.3841 14.5252 20.7575C14.5069 20.7044 14.5252 20.586 14.5579 20.5717C15.0682 20.3472 15.5846 20.137 16.1031 19.9206C16.2664 20.2125 16.4093 20.5003 16.5807 20.7677C16.8359 21.1678 17.1543 21.5086 17.587 21.7291C18.4301 22.1578 19.3711 22.0598 19.9753 21.2045C20.459 20.5207 20.6856 19.7553 20.7366 18.9347C20.7734 18.3366 20.7305 17.7447 20.559 17.1609C20.2427 16.0872 19.5486 15.434 18.4423 15.2605C18.0198 15.1952 17.587 15.1993 17.1584 15.1829C16.8787 15.1727 16.8992 15.1789 16.8726 14.9094C16.8216 14.4175 16.9849 14.0072 17.2339 13.5908C18.0708 12.1905 18.875 10.7699 19.6915 9.35734C19.7324 9.28794 19.763 9.21242 19.816 9.10628C19.716 9.09607 19.6507 9.08586 19.5833 9.08586C18.5301 9.08586 17.4748 9.08791 16.4215 9.08178C16.2623 9.08178 16.1562 9.13485 16.1072 9.27774C15.9459 9.7513 15.7785 10.2228 15.6356 10.7005C14.9702 12.9397 14.3129 15.1829 13.6496 17.4222C13.2515 18.7693 12.8453 20.1165 12.4432 21.4637C12.2085 22.2516 11.9798 23.0396 11.7431 23.8275C11.7227 23.8948 11.6553 23.9499 11.6083 24.0112C11.5634 23.9499 11.4981 23.8928 11.4777 23.8234C10.8511 21.7393 10.2305 19.6532 9.60592 17.5691C9.22013 16.2832 8.8323 14.9992 8.44652 13.7153C8.4261 13.65 8.40161 13.5867 8.3567 13.4622C8.3118 13.5684 8.28322 13.6194 8.26689 13.6725C7.86477 15.0197 7.46674 16.3689 7.06462 17.7161C6.76252 18.7244 6.45634 19.7308 6.15424 20.7391C5.84602 21.7658 5.54392 22.7946 5.23366 23.8193C5.2112 23.8907 5.13772 23.9458 5.08669 24.0091C5.04382 23.9458 4.98259 23.8887 4.96013 23.8193C4.61313 22.6701 4.27225 21.5189 3.93137 20.3697C3.41698 18.6346 2.90464 16.8976 2.39229 15.1625C1.95956 13.697 1.52478 12.2334 1.09205 10.7678C0.732793 9.57371 0.379665 8.37961 0.0265357 7.18346C0.0183709 7.15488 0.0142885 7.12222 0 7.0569Z" fill="#003366"/>
<path d="M24.7394 16.7282C24.6578 16.5159 24.5618 16.3098 24.4945 16.0934C23.7576 13.6929 23.8862 11.3537 25.0211 9.09614C25.3089 8.52256 25.7151 8.03063 26.2417 7.65301C26.9684 7.13046 27.7339 7.08147 28.5299 7.47951C29.228 7.82855 29.7057 8.40009 30.1017 9.05328C30.167 9.1635 30.2343 9.27169 30.316 9.40845C30.7263 8.59197 31.1243 7.79794 31.5244 7.00391C31.5387 7.00391 31.553 7.00391 31.5673 7.00391C31.6162 7.28151 31.6673 7.55707 31.7122 7.83468C31.7755 8.21434 31.8387 8.59401 31.8959 8.97571C31.9061 9.04103 31.902 9.12064 31.8734 9.17779C31.4815 9.93712 31.0855 10.6924 30.6895 11.4497C30.6834 11.4599 30.6712 11.468 30.6426 11.4946C30.5875 11.3986 30.5364 11.3047 30.4813 11.2149C30.1221 10.6168 29.6812 10.1025 29.0729 9.74116C28.3197 9.29414 27.5747 9.3268 26.8582 9.79219C26.058 10.3127 25.5641 11.0802 25.2375 11.962C24.7272 13.348 24.5537 14.7768 24.7006 16.2445C24.717 16.4037 24.7455 16.5608 24.768 16.718C24.7578 16.7221 24.7455 16.7262 24.7353 16.7303L24.7394 16.7282Z" fill="#003366"/>
<path d="M31.7183 19.2491C31.8 19.6634 31.851 20.039 31.9531 20.4003C32.0551 20.7636 31.9898 21.0616 31.7918 21.376C31.3101 22.1496 30.7263 22.8253 29.9813 23.3539C28.7402 24.2357 27.0603 24.1602 25.8213 23.1702C25.0068 22.5191 24.419 21.6863 23.974 20.7555C23.7209 20.2248 23.5229 19.6675 23.3004 19.1225C23.3228 19.1123 23.3432 19.1 23.3657 19.0898C23.429 19.2001 23.4963 19.3083 23.5576 19.4185C24.0026 20.2329 24.5455 20.9657 25.2865 21.5413C26.1969 22.2476 27.2073 22.5436 28.3422 22.2782C29.0484 22.1108 29.6547 21.7393 30.1915 21.2494C30.759 20.733 31.208 20.1268 31.5836 19.4613C31.6183 19.4021 31.6571 19.345 31.7183 19.247V19.2491Z" fill="#003366"/>
</g>
<defs>
<clipPath id="clip0_1107_34447">
<rect width="32" height="17.0175" fill="white" transform="translate(0 7)"/>
</clipPath>
</defs>
</svg>
