<?xml version="1.0" encoding="utf-8"?>
<!-- Generator: Adobe Illustrator 27.8.0, SVG Export Plug-In . SVG Version: 6.00 Build 0)  -->
<svg version="1.1" id="Layer_1" xmlns="http://www.w3.org/2000/svg" xmlns:xlink="http://www.w3.org/1999/xlink" 
	 x="0px" y="0px" width="22px" height="16px"
	 viewBox="0 0 22 16" style="enable-background:new 0 0 22 16;" xml:space="preserve">
<style type="text/css">
	.st0{clip-path:url(#SVGID_00000027575438188603290240000006577723897245946288_);}
	.st1{clip-path:url(#SVGID_00000182526607401950253280000005965905447237638042_);}
	.st2{fill:#F93939;}
	.st3{fill-rule:evenodd;clip-rule:evenodd;fill:#FFDA2C;}
	.st4{fill-rule:evenodd;clip-rule:evenodd;fill:#D4AF2C;}
	.st5{fill-rule:evenodd;clip-rule:evenodd;fill:#CBCBCB;}
	.st6{fill-rule:evenodd;clip-rule:evenodd;fill:#1A47B8;}
	.st7{fill-rule:evenodd;clip-rule:evenodd;fill:#AF010D;}
	.st8{fill-rule:evenodd;clip-rule:evenodd;fill:#AE6A3E;}
</style>
<g>
	<defs>
		<rect id="SVGID_1_" width="22" height="16"/>
	</defs>
	<clipPath id="SVGID_00000093138699160170270230000003639500888777870763_">
		<use xlink:href="#SVGID_1_"  style="overflow:visible;"/>
	</clipPath>
	<g style="clip-path:url(#SVGID_00000093138699160170270230000003639500888777870763_);">
		<g>
			<defs>
				<path id="SVGID_00000096760997438179629710000003747632439194962085_" d="M2,0h18c1.1,0,2,0.9,2,2v12c0,1.1-0.9,2-2,2H2
					c-1.1,0-2-0.9-2-2V2C0,0.9,0.9,0,2,0z"/>
			</defs>
			<clipPath id="SVGID_00000165233607491989715280000005339055404640944780_">
				<use xlink:href="#SVGID_00000096760997438179629710000003747632439194962085_"  style="overflow:visible;"/>
			</clipPath>
			<g style="clip-path:url(#SVGID_00000165233607491989715280000005339055404640944780_);">
				<path class="st2" d="M2,0h18c1.1,0,2,0.9,2,2v12c0,1.1-0.9,2-2,2H2c-1.1,0-2-0.9-2-2V2C0,0.9,0.9,0,2,0z"/>
				<path class="st2" d="M19.9,0H2.1C0.9,0,0,1,0,2.1v11.7C0,15,0.9,16,2.1,16h17.8c1.2,0,2.1-1,2.1-2.1V2.1C22,1,21.1,0,19.9,0z"/>
				<path class="st3" d="M0,4.3h22v7.5H0V4.3z"/>
				<path class="st4" d="M9.4,6.6v2.7c0,0.7-0.7,1.3-1.6,1.3H5.8c-0.9,0-1.6-0.6-1.6-1.3V6.6c0-0.6,0.5-1.1,1.1-1.3
					c0.2-0.6,0.8-0.1,1.5-0.1c0.7,0,1.3-0.5,1.5,0.1C9,5.5,9.4,6,9.4,6.6z"/>
				<path class="st5" d="M9.4,7.5h1v3.2h-1V7.5z M3.1,7.5h1v3.2h-1V7.5z"/>
				<path class="st6" d="M9.4,9.6h1v1.1h-1V9.6z M3.1,9.6h1v1.1h-1V9.6z"/>
				<path class="st4" d="M9.4,6.4h1v1.1h-1V6.4z M3.1,6.4h1v1.1h-1V6.4z"/>
				<path class="st7" d="M5.2,6.4h1V8h-1V6.4z M7.3,8.5h1v1.6h-1V8.5z"/>
				<path class="st8" d="M7.3,6.4h1V8h-1V6.4z"/>
				<path class="st3" d="M5.2,8.5h1v1.6h-1V8.5z"/>
				<path class="st7" d="M6.3,6.4l-1-1.1h3.1l-1,1.1H6.3z"/>
				<path class="st4" d="M6.3,4.3h1v1.1h-1V4.3z"/>
			</g>
		</g>
	</g>
</g>
</svg>
