<?xml version="1.0" encoding="utf-8"?>
<!-- Generator: Adobe Illustrator 27.8.0, SVG Export Plug-In . SVG Version: 6.00 Build 0)  -->
<svg version="1.1" id="Layer_1" xmlns="http://www.w3.org/2000/svg" xmlns:xlink="http://www.w3.org/1999/xlink" 
	 x="0px" y="0px" width="22px" height="16px"
	 viewBox="0 0 22 16" style="enable-background:new 0 0 22 16;" xml:space="preserve">
<style type="text/css">
	.st0{clip-path:url(#SVGID_00000029741481679159698670000007010427809670235526_);}
	.st1{fill:#FFFFFF;}
	.st2{fill-rule:evenodd;clip-rule:evenodd;fill:#249F58;}
	.st3{fill-rule:evenodd;clip-rule:evenodd;fill:#F93939;}
</style>
<g>
	<g>
		<defs>
			<path id="SVGID_1_" d="M2,0h18c1.1,0,2,0.9,2,2v12c0,1.1-0.9,2-2,2H2c-1.1,0-2-0.9-2-2V2C0,0.9,0.9,0,2,0z"/>
		</defs>
		<clipPath id="SVGID_00000169549634478362513210000010043245591370140592_">
			<use xlink:href="#SVGID_1_"  style="overflow:visible;"/>
		</clipPath>
		<g style="clip-path:url(#SVGID_00000169549634478362513210000010043245591370140592_);">
			<path class="st1" d="M2,0h18c1.1,0,2,0.9,2,2v12c0,1.1-0.9,2-2,2H2c-1.1,0-2-0.9-2-2V2C0,0.9,0.9,0,2,0z"/>
			<path class="st2" d="M0,0h7v16H0V0z"/>
			<path class="st3" d="M15,0h7v16h-7V0z"/>
		</g>
	</g>
</g>
</svg>
