<svg width="22" height="17" viewBox="0 0 22 17" fill="none" xmlns="http://www.w3.org/2000/svg">
<g clip-path="url(#clip0_1918_222722)">
<g clip-path="url(#clip1_1918_222722)">
<rect y="0.890137" width="22" height="16" rx="2" fill="white"/>
<path fill-rule="evenodd" clip-rule="evenodd" d="M0 0.890137H9.42857V8.3568H0V0.890137Z" fill="#1A47B8"/>
<path fill-rule="evenodd" clip-rule="evenodd" d="M9.42857 0.890137V1.9568H22V0.890137H9.42857ZM9.42857 3.02347V4.09014H22V3.02347H9.42857ZM9.42857 5.1568V6.22347H22V5.1568H9.42857ZM9.42857 7.29014V8.3568H22V7.29014H9.42857ZM0 9.42347V10.4901H22V9.42347H0ZM0 11.5568V12.6235H22V11.5568H0ZM0 13.6901V14.7568H22V13.6901H0ZM0 15.8235V16.8901H22V15.8235H0Z" fill="#F93939"/>
<path fill-rule="evenodd" clip-rule="evenodd" d="M1.04761 1.95679V3.02345H2.09523V1.95679H1.04761ZM3.14285 1.95679V3.02345H4.19046V1.95679H3.14285ZM5.23808 1.95679V3.02345H6.2857V1.95679H5.23808ZM7.33332 1.95679V3.02345H8.38094V1.95679H7.33332ZM6.2857 3.02345V4.09012H7.33332V3.02345H6.2857ZM4.19046 3.02345V4.09012H5.23808V3.02345H4.19046ZM2.09523 3.02345V4.09012H3.14285V3.02345H2.09523ZM1.04761 4.09012V5.15679H2.09523V4.09012H1.04761ZM3.14285 4.09012V5.15679H4.19046V4.09012H3.14285ZM5.23808 4.09012V5.15679H6.2857V4.09012H5.23808ZM7.33332 4.09012V5.15679H8.38094V4.09012H7.33332ZM1.04761 6.22345V7.29012H2.09523V6.22345H1.04761ZM3.14285 6.22345V7.29012H4.19046V6.22345H3.14285ZM5.23808 6.22345V7.29012H6.2857V6.22345H5.23808ZM7.33332 6.22345V7.29012H8.38094V6.22345H7.33332ZM6.2857 5.15679V6.22345H7.33332V5.15679H6.2857ZM4.19046 5.15679V6.22345H5.23808V5.15679H4.19046ZM2.09523 5.15679V6.22345H3.14285V5.15679H2.09523Z" fill="white"/>
</g>
</g>
<defs>
<clipPath id="clip0_1918_222722">
<rect width="22" height="16" fill="white" transform="translate(0 0.890137)"/>
</clipPath>
<clipPath id="clip1_1918_222722">
<rect y="0.890137" width="22" height="16" rx="2" fill="white"/>
</clipPath>
</defs>
</svg>
